<?xml version="1.0" encoding="utf-8"?>
<!-- Generator: Adobe Illustrator 14.0.0, SVG Export Plug-In . SVG Version: 6.00 Build 43363)  -->
<!DOCTYPE svg PUBLIC "-//W3C//DTD SVG 1.1//EN" "http://www.w3.org/Graphics/SVG/1.1/DTD/svg11.dtd">
<svg version="1.1" id="Layer_1" xmlns="http://www.w3.org/2000/svg" xmlns:xlink="http://www.w3.org/1999/xlink" x="0px" y="0px"
	 width="115.445px" height="115.445px" viewBox="0 0 115.445 115.445" enable-background="new 0 0 115.445 115.445"
	 xml:space="preserve">
<rect y="0" opacity="0.5" enable-background="new    " width="115.445" height="115.445"/>
<circle opacity="0.5" enable-background="new    " cx="57.665" cy="58.222" r="45.111"/>
<line opacity="0.5" fill="none" stroke="#FFFFFF" stroke-width="5" enable-background="new    " x1="101.773" y1="82.445" x2="15.17" y2="32.446"/>
<line opacity="0.5" fill="none" stroke="#FFFFFF" stroke-width="5" enable-background="new    " x1="58.472" y1="107.446" x2="58.472" y2="7.446"/>
<line opacity="0.5" fill="none" stroke="#FFFFFF" stroke-width="5" enable-background="new    " x1="101.773" y1="32.446" x2="15.17" y2="82.446"/>
<path fill="#FFFFFF" d="M73.097,36.919c0,2.417-1.959,4.375-4.375,4.375l0,0c-2.416,0-4.375-1.958-4.375-4.375l0,0
	c0-2.417,1.959-4.375,4.375-4.375l0,0C71.138,32.544,73.097,34.503,73.097,36.919L73.097,36.919z"/>
<circle opacity="0.28" fill="none" stroke="#FFFFFF" stroke-width="7" cx="57.915" cy="57.222" r="22.555"/>
<circle fill="none" stroke="#FF7F00" stroke-width="15" cx="57.915" cy="57.222" r="45.111"/>
</svg>
