<?xml version="1.0" encoding="utf-8"?>
<!-- Generator: Adobe Illustrator 14.0.0, SVG Export Plug-In . SVG Version: 6.00 Build 43363)  -->
<!DOCTYPE svg PUBLIC "-//W3C//DTD SVG 1.1//EN" "http://www.w3.org/Graphics/SVG/1.1/DTD/svg11.dtd">
<svg version="1.1" id="Layer_1" xmlns="http://www.w3.org/2000/svg" xmlns:xlink="http://www.w3.org/1999/xlink" x="0px" y="0px"
	 width="115.445px" height="115.445px" viewBox="0 0 115.445 115.445" enable-background="new 0 0 115.445 115.445"
	 xml:space="preserve">
<rect x="0.115" y="0.389" opacity="0.5" enable-background="new    " width="115.667" height="115"/>
<polyline fill="none" stroke="#FF7F00" stroke-width="15" points="36.698,107.932 7.581,107.932 7.581,79.014 "/>
<polyline fill="none" stroke="#FF7F00" stroke-width="15" points="108.332,78.973 108.332,107.891 79.515,107.891 "/>
<polyline fill="none" stroke="#FF7F00" stroke-width="15" points="79.515,7.931 108.332,7.931 108.332,36.094 "/>
<polyline fill="none" stroke="#FF7F00" stroke-width="15" points="7.623,36.014 7.623,7.85 36.74,7.85 "/>
<path fill="#FFFFFF" stroke="#FFFFFF" stroke-width="2" d="M16.16,78.699l1.102-5.068h8.673l6.945-31.988l-9.145,2.168l1.134-5.219
	l18.313-4.336l-8.55,39.375h8.673l-1.102,5.068H16.16z"/>
<path fill="#FFFFFF" stroke="#FFFFFF" stroke-width="2" d="M48.027,78.699l2.042-9.404h9.405l-2.041,9.404H48.027z"/>
<path fill="#FFFFFF" stroke="#FFFFFF" stroke-width="2" d="M66.435,78.699l1.486-6.854l0.607-0.646
	c2.998-3.104,5.95-5.723,8.854-7.852l4.229-3.139c6.959-5.152,10.86-9.677,11.705-13.562c0.982-4.531-1.104-6.797-6.26-6.797
	c-3.186,0-7.105,1.07-11.771,3.223l1.381-6.357c4.771-1.641,9.217-2.461,13.338-2.461c4.607,0,8.062,1.093,10.363,3.271
	s3.055,5.093,2.262,8.745c-0.547,2.52-1.719,4.812-3.518,6.885c-1.796,2.071-4.689,4.472-8.686,7.207l-3.438,2.344
	c-4.795,3.281-7.878,6.328-9.251,9.145h19.159l-1.486,6.854L66.435,78.699L66.435,78.699z"/>
</svg>
