<?xml version="1.0" encoding="utf-8"?>
<!-- Generator: Adobe Illustrator 14.0.0, SVG Export Plug-In . SVG Version: 6.00 Build 43363)  -->
<!DOCTYPE svg PUBLIC "-//W3C//DTD SVG 1.1//EN" "http://www.w3.org/Graphics/SVG/1.1/DTD/svg11.dtd">
<svg version="1.1" id="Layer_1" xmlns="http://www.w3.org/2000/svg" xmlns:xlink="http://www.w3.org/1999/xlink" x="0px" y="0px"
	 width="115.445px" height="115.445px" viewBox="0 0 115.445 115.445" enable-background="new 0 0 115.445 115.445"
	 xml:space="preserve">
<rect x="0.115" y="-0.111" opacity="0.5" enable-background="new    " width="115.667" height="115"/>
<polyline fill="none" stroke="#FF7F00" stroke-width="15" points="36.698,107.432 7.581,107.432 7.581,78.514 "/>
<polyline fill="none" stroke="#FF7F00" stroke-width="15" points="68.332,78.514 68.332,107.432 39.515,107.432 "/>
<polyline fill="none" stroke="#FF7F00" stroke-width="15" points="39.515,7.32 68.332,7.32 68.332,35.483 "/>
<polyline fill="none" stroke="#FF7F00" stroke-width="15" points="7.623,35.484 7.623,7.32 36.74,7.32 "/>
<path fill="#FFFFFF" stroke="#FFFFFF" stroke-width="2" d="M23.127,78.583l1.101-5.068h8.673l6.945-31.993l-9.144,2.168l1.132-5.215
	l18.315-4.336l-8.551,39.375h8.672l-1.1,5.068L23.127,78.583L23.127,78.583z"/>
<path fill="#FFFFFF" stroke="#FFFFFF" stroke-width="2" d="M80.949,78.582l1.486-6.855l0.609-0.645c3-3.105,5.948-5.726,8.854-7.854
	l4.226-3.135c6.959-5.157,10.859-9.678,11.705-13.565c0.982-4.528-1.104-6.797-6.26-6.797c-3.186,0-7.105,1.074-11.771,3.226
	l1.379-6.357c4.771-1.641,9.217-2.461,13.338-2.461c4.607,0,8.061,1.089,10.363,3.267c2.301,2.181,3.055,5.096,2.262,8.745
	c-0.547,2.521-1.719,4.814-3.518,6.887c-1.797,2.068-4.689,4.474-8.684,7.206l-3.438,2.347c-4.797,3.279-7.88,6.328-9.25,9.141
	h19.158l-1.486,6.855L80.949,78.582L80.949,78.582z"/>
<line fill="none" stroke="#FF7F00" stroke-width="15" x1="99.037" y1="7.32" x2="115.445" y2="7.32"/>
<line fill="none" stroke="#FF7F00" stroke-width="15" x1="74.556" y1="7.32" x2="96.197" y2="7.32"/>
<line fill="none" stroke="#FF7F00" stroke-width="15" x1="99.037" y1="107.432" x2="115.445" y2="107.432"/>
<line fill="none" stroke="#FF7F00" stroke-width="15" x1="74.556" y1="107.432" x2="96.197" y2="107.432"/>
</svg>
