  0
SECTION
  2
HEADER
  9
$ACADVER
  1
AC1009
  9
$INSBASE
 10
0.0
 20
0.0
 30
0.0
  9
$EXTMIN
 10
0.0
 20
0.0
 30
0.0
  9
$EXTMAX
 10
11.487050065205491
 20
18.458312539664568
 30
0.0
  9
$LIMMIN
 10
0.0
 20
0.0
  9
$LIMMAX
 10
11.487050065205491
 20
18.458312539664568
  9
$ORTHOMODE
 70
     0
  9
$REGENMODE
 70
     1
  9
$FILLMODE
 70
     1
  9
$QTEXTMODE
 70
     0
  9
$MIRRTEXT
 70
     0
  9
$DRAGMODE
 70
     2
  9
$LTSCALE
 40
1.0
  9
$OSMODE
 70
     0
  9
$ATTMODE
 70
     1
  9
$TEXTSIZE
 40
0.2
  9
$TRACEWID
 40
0.05
  9
$TEXTSTYLE
  7
STANDARD
  9
$CLAYER
  8
0
  9
$CELTYPE
  6
BYLAYER
  9
$CECOLOR
 62
   256
  9
$DIMSCALE
 40
1.0
  9
$DIMASZ
 40
0.0708661417322835
  9
$DIMEXO
 40
0.0625
  9
$DIMDLI
 40
0.38
  9
$DIMRND
 40
0.0
  9
$DIMDLE
 40
0.0
  9
$DIMEXE
 40
0.18
  9
$DIMTP
 40
0.0
  9
$DIMTM
 40
0.0
  9
$DIMTXT
 40
0.0708661417322835
  9
$DIMCEN
 40
0.09
  9
$DIMTSZ
 40
0.0
  9
$DIMTOL
 70
     0
  9
$DIMLIM
 70
     0
  9
$DIMTIH
 70
     1
  9
$DIMTOH
 70
     1
  9
$DIMSE1
 70
     0
  9
$DIMSE2
 70
     0
  9
$DIMTAD
 70
     0
  9
$DIMZIN
 70
     0
  9
$DIMBLK
  1

  9
$DIMASO
 70
     1
  9
$DIMSHO
 70
     1
  9
$DIMPOST
  1

  9
$DIMAPOST
  1

  9
$DIMALT
 70
     0
  9
$DIMALTD
 70
     2
  9
$DIMALTF
 40
25.399999999999999
  9
$DIMLFAC
 40
1.0
  9
$DIMTOFL
 70
     0
  9
$DIMTVP
 40
0.0
  9
$DIMTIX
 70
     0
  9
$DIMSOXD
 70
     0
  9
$DIMSAH
 70
     0
  9
$DIMBLK1
  1

  9
$DIMBLK2
  1

  9
$DIMSTYLE
  2
STANDARD
  9
$DIMCLRD
 70
     0
  9
$DIMCLRE
 70
     0
  9
$DIMCLRT
 70
     0
  9
$DIMTFAC
 40
1.0
  9
$DIMGAP
 40
0.09
  9
$LUNITS
 70
     2
  9
$LUPREC
 70
     4
  9
$SKETCHINC
 40
0.1
  9
$FILLETRAD
 40
0.0
  9
$AUNITS
 70
     0
  9
$AUPREC
 70
     0
  9
$MENU
  1
.
  9
$ELEVATION
 40
0.0
  9
$PELEVATION
 40
0.0
  9
$THICKNESS
 40
0.0
  9
$LIMCHECK
 70
     0
  9
$BLIPMODE
 70
     0
  9
$CHAMFERA
 40
0.0
  9
$CHAMFERB
 40
0.0
  9
$SKPOLY
 70
     0
  9
$TDCREATE
 40
2456358.6229286459
  9
$TDUPDATE
 40
2456358.6229286459
  9
$TDINDWG
 40
0.0000028125
  9
$TDUSRTIMER
 40
0.0000028125
  9
$USRTIMER
 70
     1
  9
$ANGBASE
 50
0.0
  9
$ANGDIR
 70
     0
  9
$PDMODE
 70
     0
  9
$PDSIZE
 40
0.0
  9
$PLINEWID
 40
0.0
  9
$COORDS
 70
     0
  9
$SPLFRAME
 70
     0
  9
$SPLINETYPE
 70
     6
  9
$SPLINESEGS
 70
     8
  9
$ATTDIA
 70
     0
  9
$ATTREQ
 70
     1
  9
$HANDLING
 70
     1
  9
$HANDSEED
  5
25B
  9
$SURFTAB1
 70
     6
  9
$SURFTAB2
 70
     6
  9
$SURFTYPE
 70
     6
  9
$SURFU
 70
     6
  9
$SURFV
 70
     6
  9
$UCSNAME
  2

  9
$UCSORG
 10
0.0
 20
0.0
 30
0.0
  9
$UCSXDIR
 10
1.0
 20
0.0
 30
0.0
  9
$UCSYDIR
 10
0.0
 20
1.0
 30
0.0
  9
$PUCSNAME
  2

  9
$PUCSORG
 10
0.0
 20
0.0
 30
0.0
  9
$PUCSXDIR
 10
1.0
 20
0.0
 30
0.0
  9
$PUCSYDIR
 10
0.0
 20
1.0
 30
0.0
  9
$USERI1
 70
     0
  9
$USERI2
 70
     0
  9
$USERI3
 70
     0
  9
$USERI4
 70
     0
  9
$USERI5
 70
     0
  9
$USERR1
 40
0.0
  9
$USERR2
 40
0.0
  9
$USERR3
 40
0.0
  9
$USERR4
 40
0.0
  9
$USERR5
 40
0.0
  9
$WORLDVIEW
 70
     1
  9
$SHADEDGE
 70
     3
  9
$SHADEDIF
 70
    70
  9
$TILEMODE
 70
     1
  9
$MAXACTVP
 70
    64
  9
$PLIMCHECK
 70
     0
  9
$PEXTMIN
 10
0.0
 20
0.0
 30
0.0
  9
$PEXTMAX
 10
11.487050065205491
 20
18.458312539664568
 30
0.0
  9
$PLIMMIN
 10
0.0
 20
0.0
  9
$PLIMMAX
 10
11.487050065205491
 20
18.458312539664568
  9
$UNITMODE
 70
     0
  9
$VISRETAIN
 70
     1
  9
$PLINEGEN
 70
     0
  9
$PSLTSCALE
 70
     1
  0
ENDSEC
  0
SECTION
  2
TABLES
  0
TABLE
  2
VPORT
 70
     1
  0
VPORT
  2
*ACTIVE
 70
     0
 10
0.0
 20
0.0
 11
1.0
 21
1.0
 12
2.9318055625579649
 22
7.3498705211454363
 13
0.0
 23
0.0
 14
1.0
 24
1.0
 15
0.0
 25
0.0
 16
0.0
 26
0.0
 36
1.0
 17
0.0
 27
0.0
 37
0.0
 40
18.458312539664568
 41
0.6223239551568587
 42
50.0
 43
0.0
 44
0.0
 50
0.0
 51
0.0
 71
     0
 72
   100
 73
     1
 74
     1
 75
     0
 76
     0
 77
     0
 78
     0
  0
ENDTAB
  0
TABLE
  2
LTYPE
 70
    59
  0
LTYPE
  2
CONTINUOUS
 70
     0
  3
Solid line
 72
    65
 73
     0
 40
0.0
  0
LTYPE
  2
PHANTOM2
 70
     0
  3
Phantom (.5x) ___ _ _ ___ _ _ ___ _ _ ___ _ _
 72
    65
 73
     6
 40
1.25
 49
0.625
 49
-0.125
 49
0.125
 49
-0.125
 49
0.125
 49
-0.125
  0
LTYPE
  2
BY_STANDARD
 70
     0
  3
By Standard ____________    ____    ____   _
 72
    65
 73
     6
 40
1.2402999999999991
 49
0.6614
 49
-0.0827
 49
0.1654
 49
-0.0827
 49
0.1654
 49
-0.0827
  0
LTYPE
  2
CHAIN
 70
     0
  3
Chain ____ _ ____ _ ____ _ ____ _ ____ _ ____
 72
    65
 73
     4
 40
0.7087
 49
0.4724000000000001
 49
-0.0591
 49
0.1181
 49
-0.0591
  0
LTYPE
  2
DASH_DOT
 70
     0
  3
Dash dot __ . __ . __ . __ . __ . __ . __ . __
 72
    65
 73
     4
 40
0.37
 49
0.24
 49
-0.06
 49
0.01
 49
-0.06
  0
LTYPE
  2
DOUBLE_DASH_DOT
 70
     0
  3
Double-Dash Dot __ __ . __ __ . __ __ . __ _
 72
    65
 73
     6
 40
0.4398
 49
0.24
 49
-0.06
 49
0.0098
 49
-0.06
 49
0.01
 49
-0.06
  0
LTYPE
  2
DASH_TRIPLE_DOT
 70
     0
  3
Dash Triple-Dot _ . . . _ . . . _ . . . _
 72
    65
 73
     8
 40
0.51
 49
0.24
 49
-0.06
 49
0.01
 49
-0.06
 49
0.01
 49
-0.06
 49
0.01
 49
-0.06
  0
LTYPE
  2
DASHED
 70
     0
  3
Dashed __ __ __ __ __ __ __ __ __ __ __ __ __ _
 72
    65
 73
     2
 40
0.2067
 49
0.1654
 49
-0.0413
  0
LTYPE
  2
DASH_DOUBLE_DOT
 70
     0
  3
Dash Double-Dot __ . . __ . . __ . . __ . .
 72
    65
 73
     6
 40
0.4398
 49
0.24
 49
-0.06
 49
0.0098
 49
-0.06
 49
0.01
 49
-0.06
  0
LTYPE
  2
DASHED_SPACE
 70
     0
  3
Dashed Space __ __ __ __ __ __ __ __ __ __ __ _
 72
    65
 73
     2
 40
0.2067
 49
0.1654
 49
-0.0413
  0
LTYPE
  2
DOTTED
 70
     0
  3
Dotted . . . . . . . . . . . . . . . . . . . . 
 72
    65
 73
     2
 40
0.0482
 49
0.0069
 49
-0.0413
  0
LTYPE
  2
DOUBLE_DASH_CHAIN
 70
     0
  3
Double-Dash Chain ______  __  __  ______  __  _
 72
    65
 73
     6
 40
1.2402999999999991
 49
0.6614
 49
-0.0827
 49
0.1654
 49
-0.0827
 49
0.1654
 49
-0.0827
  0
LTYPE
  2
DOUBLE_DASH_DOUBLE_DOT
 70
     0
  3
Double-Dash Double-dot _ _ . . _ _ . . _
 72
    65
 73
     8
 40
0.7400000000000001
 49
0.24
 49
-0.06
 49
0.24
 49
-0.06
 49
0.01
 49
-0.06
 49
0.01
 49
-0.06
  0
LTYPE
  2
DOUBLE_DASH_TRIPLE_DOT
 70
     0
  3
Double Dash Triple Dot __ __ . . . __ __ . .
 72
    65
 73
    10
 40
0.8100000000000001
 49
0.24
 49
-0.06
 49
0.24
 49
-0.06
 49
0.01
 49
-0.06
 49
0.01
 49
-0.06
 49
0.01
 49
-0.06
  0
LTYPE
  2
LONG_DASH_DOTTED
 70
     0
  3
Long Dash Dotted ____ . ____ . ____ . ____ . _
 72
    65
 73
     4
 40
0.3543
 49
0.2362
 49
-0.0295
 49
0.0591
 49
-0.0295
  0
LTYPE
  2
LONG_DASH_DOUBLE_DOT
 70
     0
  3
Long Dash Double Dot ________  .  .  ________  
 72
    65
 73
     6
 40
0.6799999999999999
 49
0.48
 49
-0.06
 49
0.01
 49
-0.06
 49
0.01
 49
-0.06
  0
LTYPE
  2
LONG_DASH_TRIPLE_DOT
 70
     0
  3
Long Dash Triple Dot ____ ... ____ ... ____
 72
    65
 73
     8
 40
0.3689
 49
0.2362
 49
-0.0295
 49
0.0049
 49
-0.0295
 49
0.0049
 49
-0.0295
 49
0.0049
 49
-0.0295
  0
LTYPE
  2
BORDER
 70
     0
  3
Border __ __ . __ __ . __ __ . __ __ . __ __ .
 72
    65
 73
     6
 40
1.75
 49
0.5
 49
-0.25
 49
0.5
 49
-0.25
 49
0.0
 49
-0.25
  0
LTYPE
  2
BORDER2
 70
     0
  3
Border (.5x) __.__.__.__.__.__.__.__.__.__.__.
 72
    65
 73
     6
 40
0.875
 49
0.25
 49
-0.125
 49
0.25
 49
-0.125
 49
0.0
 49
-0.125
  0
LTYPE
  2
BORDERX2
 70
     0
  3
Border (2x) ____  ____  .  ____  ____  .  ___
 72
    65
 73
     6
 40
3.5
 49
1.0
 49
-0.5
 49
1.0
 49
-0.5
 49
0.0
 49
-0.5
  0
LTYPE
  2
CENTER
 70
     0
  3
Center ____ _ ____ _ ____ _ ____ _ ____ _ ____
 72
    65
 73
     4
 40
2.0
 49
1.25
 49
-0.25
 49
0.25
 49
-0.25
  0
LTYPE
  2
CENTER2
 70
     0
  3
Center (.5x) ___ _ ___ _ ___ _ ___ _ ___ _ ___
 72
    65
 73
     4
 40
1.125
 49
0.75
 49
-0.125
 49
0.125
 49
-0.125
  0
LTYPE
  2
CENTERX2
 70
     0
  3
Center (2x) ________  __  ________  __  _____
 72
    65
 73
     4
 40
4.0
 49
2.5
 49
-0.5
 49
0.5
 49
-0.5
  0
LTYPE
  2
DASHDOT2
 70
     0
  3
Dash dot (.5x) _._._._._._._._._._._._._._._.
 72
    65
 73
     4
 40
0.5
 49
0.25
 49
-0.125
 49
0.0
 49
-0.125
  0
LTYPE
  2
DASHDOTX2
 70
     0
  3
Dash dot (2x) ____  .  ____  .  ____  .  ___
 72
    65
 73
     4
 40
2.0
 49
1.0
 49
-0.5
 49
0.0
 49
-0.5
  0
LTYPE
  2
DASHED2
 70
     0
  3
Dashed (.5x) _ _ _ _ _ _ _ _ _ _ _ _ _ _ _ _ _
 72
    65
 73
     2
 40
0.375
 49
0.25
 49
-0.125
  0
LTYPE
  2
DASHEDX2
 70
     0
  3
Dashed (2x) ____  ____  ____  ____  ____  ___
 72
    65
 73
     2
 40
1.5
 49
1.0
 49
-0.5
  0
LTYPE
  2
DIVIDE
 70
     0
  3
Divide ____ . . ____ . . ____ . . ____ . . ____
 72
    65
 73
     6
 40
1.25
 49
0.5
 49
-0.25
 49
0.0
 49
-0.25
 49
0.0
 49
-0.25
  0
LTYPE
  2
DIVIDE2
 70
     0
  3
Divide (.5x) __..__..__..__..__..__..__..__.._
 72
    65
 73
     6
 40
0.625
 49
0.25
 49
-0.125
 49
0.0
 49
-0.125
 49
0.0
 49
-0.125
  0
LTYPE
  2
DIVIDEX2
 70
     0
  3
Divide (2x) ________  .  .  ________  .  .  _
 72
    65
 73
     6
 40
2.5
 49
1.0
 49
-0.5
 49
0.0
 49
-0.5
 49
0.0
 49
-0.5
  0
LTYPE
  2
DOT
 70
     0
  3
Dot . . . . . . . . . . . . . . . . . . . . . .
 72
    65
 73
     2
 40
0.25
 49
0.0
 49
-0.25
  0
LTYPE
  2
DOT2
 70
     0
  3
Dot (.5x) .....................................
 72
    65
 73
     2
 40
0.125
 49
0.0
 49
-0.125
  0
LTYPE
  2
DOTX2
 70
     0
  3
Dot (2x) .  .  .  .  .  .  .  .  .  .  .  .  . 
 72
    65
 73
     2
 40
0.5
 49
0.0
 49
-0.5
  0
LTYPE
  2
HIDDEN
 70
     0
  3
Hidden __ __ __ __ __ __ __ __ __ __ __ __ __ _
 72
    65
 73
     2
 40
0.375
 49
0.25
 49
-0.125
  0
LTYPE
  2
HIDDEN2
 70
     0
  3
Hidden (.5x) _ _ _ _ _ _ _ _ _ _ _ _ _ _ _ _ _
 72
    65
 73
     2
 40
0.1875
 49
0.125
 49
-0.0625
  0
LTYPE
  2
HIDDENX2
 70
     0
  3
Hidden (2x) ____ ____ ____ ____ ____ ____ ____
 72
    65
 73
     2
 40
0.75
 49
0.5
 49
-0.25
  0
LTYPE
  2
PHANTOM
 70
     0
  3
Phantom ______  __  __  ______  __  __  ______
 72
    65
 73
     6
 40
2.5
 49
1.25
 49
-0.25
 49
0.25
 49
-0.25
 49
0.25
 49
-0.25
  0
LTYPE
  2
PHANTOMX2
 70
     0
  3
Phantom (2x) ____________    ____    ____   _
 72
    65
 73
     6
 40
5.0
 49
2.5
 49
-0.5
 49
0.5
 49
-0.5
 49
0.5
 49
-0.5
  0
LTYPE
  2
ACAD_ISO02W100
 70
     0
  3
ISO dash __ __ __ __ __ __ __ __ __ __ __ __ __
 72
    65
 73
     2
 40
0.59
 49
0.47
 49
-0.12
  0
LTYPE
  2
ACAD_ISO03W100
 70
     0
  3
ISO dash space __    __    __    __    __    __
 72
    65
 73
     2
 40
1.179999999999999
 49
0.47
 49
-0.71
  0
LTYPE
  2
ACAD_ISO04W100
 70
     0
  3
ISO long-dash dot ____ . ____ . ____ . ____ . _
 72
    65
 73
     4
 40
1.179999999999999
 49
0.9399999999999998
 49
-0.12
 49
0.0
 49
-0.12
  0
LTYPE
  2
ACAD_ISO05W100
 70
     0
  3
ISO long-dash double-dot ____ .. ____ .. ____ .
 72
    65
 73
     6
 40
1.2999999999999989
 49
0.9399999999999998
 49
-0.12
 49
0.0
 49
-0.12
 49
0.0
 49
-0.12
  0
LTYPE
  2
ACAD_ISO06W100
 70
     0
  3
ISO long-dash triple-dot ____ ... ____ ... ____
 72
    65
 73
     8
 40
1.419999999999999
 49
0.9399999999999998
 49
-0.12
 49
0.0
 49
-0.12
 49
0.0
 49
-0.12
 49
0.0
 49
-0.12
  0
LTYPE
  2
ACAD_ISO07W100
 70
     0
  3
ISO dot . . . . . . . . . . . . . . . . . . . .
 72
    65
 73
     2
 40
0.12
 49
0.0
 49
-0.12
  0
LTYPE
  2
ACAD_ISO08W100
 70
     0
  3
ISO long-dash short-dash ____ __ ____ __ ____ _
 72
    65
 73
     4
 40
0.95
 49
0.47
 49
-0.12
 49
0.24
 49
-0.12
  0
LTYPE
  2
ACAD_ISO09W100
 70
     0
  3
ISO long-dash double-short-dash ____ __ __ ____
 72
    65
 73
     6
 40
1.3100000000000001
 49
0.47
 49
-0.12
 49
0.24
 49
-0.12
 49
0.24
 49
-0.12
  0
LTYPE
  2
ACAD_ISO10W100
 70
     0
  3
ISO dash dot __ . __ . __ . __ . __ . __ . __ .
 72
    65
 73
     4
 40
0.71
 49
0.47
 49
-0.12
 49
0.0
 49
-0.12
  0
LTYPE
  2
ACAD_ISO11W100
 70
     0
  3
ISO double-dash dot __ __ . __ __ . __ __ . __ 
 72
    65
 73
     6
 40
1.2999999999999989
 49
0.47
 49
-0.12
 49
0.47
 49
-0.12
 49
0.0
 49
-0.12
  0
LTYPE
  2
ACAD_ISO12W100
 70
     0
  3
ISO dash double-dot __ . . __ . . __ . . __ . .
 72
    65
 73
     6
 40
0.8299999999999999
 49
0.47
 49
-0.12
 49
0.0
 49
-0.12
 49
0.0
 49
-0.12
  0
LTYPE
  2
ACAD_ISO13W100
 70
     0
  3
ISO double-dash double-dot __ __ . . __ __ . . 
 72
    65
 73
     8
 40
1.419999999999999
 49
0.47
 49
-0.12
 49
0.47
 49
-0.12
 49
0.0
 49
-0.12
 49
0.0
 49
-0.12
  0
LTYPE
  2
ACAD_ISO14W100
 70
     0
  3
ISO dash triple-dot __ . . . __ . . . __ . . . 
 72
    65
 73
     8
 40
0.95
 49
0.47
 49
-0.12
 49
0.0
 49
-0.12
 49
0.0
 49
-0.12
 49
0.0
 49
-0.12
  0
LTYPE
  2
ACAD_ISO15W100
 70
     0
  3
ISO double-dash triple-dot __ __ . . . __ __ . 
 72
    65
 73
    10
 40
1.5399999999999989
 49
0.47
 49
-0.12
 49
0.47
 49
-0.12
 49
0.0
 49
-0.12
 49
0.0
 49
-0.12
 49
0.0
 49
-0.12
  0
LTYPE
  2
FENCELINE1
 70
     0
  3
Fenceline circle ----0-----0----0-----0----0---
 72
    65
 73
     4
 40
1.45
 49
0.25
 49
-0.1
 49
-0.1
 49
1.0
  0
LTYPE
  2
FENCELINE2
 70
     0
  3
Fenceline square ----[]-----[]----[]-----[]----
 72
    65
 73
     4
 40
1.45
 49
0.25
 49
-0.1
 49
-0.1
 49
1.0
  0
LTYPE
  2
TRACKS
 70
     0
  3
Tracks -|-|-|-|-|-|-|-|-|-|-|-|-|-|-|-|-|-|-|-|
 72
    65
 73
     2
 40
0.3
 49
0.15
 49
0.15
  0
LTYPE
  2
BATTING
 70
     0
  3
Batting SSSSSSSSSSSSSSSSSSSSSSSSSSSSSSSSSSSSSSS
 72
    65
 73
     4
 40
0.4001000000000001
 49
0.0001
 49
-0.1
 49
-0.2
 49
-0.1
  0
LTYPE
  2
HOT_WATER_SUPPLY
 70
     0
  3
Hot water supply ---- HW ---- HW ---- HW ----
 72
    65
 73
     3
 40
0.9
 49
0.5
 49
-0.2
 49
-0.2
  0
LTYPE
  2
GAS_LINE
 70
     0
  3
Gas line ----GAS----GAS----GAS----GAS----GAS---
 72
    65
 73
     3
 40
0.95
 49
0.5
 49
-0.2
 49
-0.25
  0
LTYPE
  2
ZIGZAG
 70
     0
  3
Zig zag /\/\/\/\/\/\/\/\/\/\/\/\/\/\/\/\/\/\/\/
 72
    65
 73
     4
 40
0.8001000000000001
 49
0.0001
 49
-0.2
 49
-0.4
 49
-0.2
  0
ENDTAB
  0
TABLE
  2
LAYER
 70
     1
  0
LAYER
  2
0
 70
     0
 62
     7
  6
CONTINUOUS
  0
ENDTAB
  0
TABLE
  2
STYLE
 70
     3
  0
STYLE
  2
STANDARD
 70
     0
 40
0.0
 41
1.0
 50
0.0
 71
     0
 42
0.2
  3
txt
  4

  0
STYLE
  2
ANNOTATIVE
 70
     0
 40
0.0
 41
1.0
 50
0.0
 71
     0
 42
0.2
  3
txt
  4

  0
STYLE
  2

 70
     1
 40
0.0
 41
1.0
 50
0.0
 71
     0
 42
0.2
  3
ltypeshp.shx
  4

  0
ENDTAB
  0
TABLE
  2
VIEW
 70
     0
  0
ENDTAB
  0
TABLE
  2
UCS
 70
     0
  0
ENDTAB
  0
TABLE
  2
APPID
 70
     3
  0
APPID
  2
ACAD
 70
     0
  0
APPID
  2
ACADANNOTATIVE
 70
     0
  0
APPID
  2
ACAD_MLEADERVER
 70
     0
  0
ENDTAB
  0
TABLE
  2
DIMSTYLE
 70
     2
  0
DIMSTYLE
  2
STANDARD
 70
     0
  3

  4

  5

  6

  7

 40
1.0
 41
0.18
 42
0.0625
 43
0.38
 44
0.18
 45
0.0
 46
0.0
 47
0.0
 48
0.0
140
0.18
141
0.09
142
0.0
143
25.399999999999999
144
1.0
145
0.0
146
1.0
147
0.09
 71
     0
 72
     0
 73
     1
 74
     1
 75
     0
 76
     0
 77
     0
 78
     0
170
     0
171
     2
172
     0
173
     0
174
     0
175
     0
176
     0
177
     0
178
     0
  0
DIMSTYLE
  2
ANNOTATIVE
 70
     0
  3

  4

  5

  6

  7

 40
1.0
 41
0.18
 42
0.0625
 43
0.38
 44
0.18
 45
0.0
 46
0.0
 47
0.0
 48
0.0
140
0.18
141
0.09
142
0.0
143
25.399999999999999
144
1.0
145
0.0
146
1.0
147
0.09
 71
     0
 72
     0
 73
     1
 74
     1
 75
     0
 76
     0
 77
     0
 78
     0
170
     0
171
     2
172
     0
173
     0
174
     0
175
     0
176
     0
177
     0
178
     0
  0
ENDTAB
  0
ENDSEC
  0
SECTION
  2
BLOCKS
  0
BLOCK
  8
0
  2
$MODEL_SPACE
 70
     0
 10
0.0
 20
0.0
 30
0.0
  3
$MODEL_SPACE
  1

  0
ENDBLK
  5
73
  8
0
  0
BLOCK
 67
     1
  8
0
  2
$PAPER_SPACE
 70
     0
 10
0.0
 20
0.0
 30
0.0
  3
$PAPER_SPACE
  1

  0
ENDBLK
  5
6F
 67
     1
  8
0
  0
ENDSEC
  0
SECTION
  2
ENTITIES
  0
POLYLINE
  5
B7
  8
0
 66
     1
 10
0.0
 20
0.0
 30
0.0
  0
VERTEX
  5
B8
  8
0
 10
7.337289918011205
 20
14.196813544571871
 30
0.0
 42
-0.201485830520431
  0
VERTEX
  5
B9
  8
0
 10
2.5041648331805271
 20
10.067679607787969
 30
0.0
 42
-0.423942426452128
  0
VERTEX
  5
BB
  8
0
 10
0.0000000000000006
 20
7.4903058564029639
 30
0.0
  0
VERTEX
  5
BC
  8
0
 10
0.0
 20
0.0
 30
0.0
  0
VERTEX
  5
BD
  8
0
 10
3.4032220552015731
 20
0.0
 30
0.0
  0
SEQEND
  5
BA
  8
0
  0
POLYLINE
  8
0
  5
117
  66
     1
 10
0.000000
 20
0.000000
 30
0.000000
  70
     8
  0
VERTEX
  8
0
  5
118
 10
7.22065
 20
13.8882
 30
0.000000
  70
    32
  0
VERTEX
  8
0
  5
119
 10
7.22156
 20
13.8906
 30
0.000000
  70
    32
  0
VERTEX
  8
0
  5
11A
 10
7.22248
 20
13.8930
 30
0.000000
  70
    32
  0
VERTEX
  8
0
  5
11B
 10
7.22339
 20
13.8954
 30
0.000000
  70
    32
  0
VERTEX
  8
0
  5
11C
 10
7.22431
 20
13.8978
 30
0.000000
  70
    32
  0
VERTEX
  8
0
  5
11D
 10
7.22522
 20
13.9002
 30
0.000000
  70
    32
  0
VERTEX
  8
0
  5
11E
 10
7.22614
 20
13.9026
 30
0.000000
  70
    32
  0
VERTEX
  8
0
  5
11F
 10
7.22705
 20
13.9050
 30
0.000000
  70
    32
  0
VERTEX
  8
0
  5
120
 10
7.22797
 20
13.9075
 30
0.000000
  70
    32
  0
VERTEX
  8
0
  5
121
 10
7.22888
 20
13.9099
 30
0.000000
  70
    32
  0
VERTEX
  8
0
  5
122
 10
7.22980
 20
13.9123
 30
0.000000
  70
    32
  0
VERTEX
  8
0
  5
123
 10
7.23071
 20
13.9147
 30
0.000000
  70
    32
  0
VERTEX
  8
0
  5
124
 10
7.23163
 20
13.9171
 30
0.000000
  70
    32
  0
VERTEX
  8
0
  5
125
 10
7.23254
 20
13.9195
 30
0.000000
  70
    32
  0
VERTEX
  8
0
  5
126
 10
7.23346
 20
13.9219
 30
0.000000
  70
    32
  0
VERTEX
  8
0
  5
127
 10
7.23437
 20
13.9243
 30
0.000000
  70
    32
  0
VERTEX
  8
0
  5
128
 10
7.23529
 20
13.9268
 30
0.000000
  70
    32
  0
VERTEX
  8
0
  5
129
 10
7.23620
 20
13.9292
 30
0.000000
  70
    32
  0
VERTEX
  8
0
  5
12A
 10
7.23712
 20
13.9316
 30
0.000000
  70
    32
  0
VERTEX
  8
0
  5
12B
 10
7.23803
 20
13.9340
 30
0.000000
  70
    32
  0
VERTEX
  8
0
  5
12C
 10
7.23895
 20
13.9364
 30
0.000000
  70
    32
  0
VERTEX
  8
0
  5
12D
 10
7.23986
 20
13.9388
 30
0.000000
  70
    32
  0
VERTEX
  8
0
  5
12E
 10
7.24078
 20
13.9412
 30
0.000000
  70
    32
  0
VERTEX
  8
0
  5
12F
 10
7.24170
 20
13.9437
 30
0.000000
  70
    32
  0
VERTEX
  8
0
  5
130
 10
7.24261
 20
13.9461
 30
0.000000
  70
    32
  0
VERTEX
  8
0
  5
131
 10
7.24353
 20
13.9485
 30
0.000000
  70
    32
  0
VERTEX
  8
0
  5
132
 10
7.24444
 20
13.9509
 30
0.000000
  70
    32
  0
VERTEX
  8
0
  5
133
 10
7.24536
 20
13.9533
 30
0.000000
  70
    32
  0
VERTEX
  8
0
  5
134
 10
7.24628
 20
13.9558
 30
0.000000
  70
    32
  0
VERTEX
  8
0
  5
135
 10
7.24719
 20
13.9582
 30
0.000000
  70
    32
  0
VERTEX
  8
0
  5
136
 10
7.24811
 20
13.9606
 30
0.000000
  70
    32
  0
VERTEX
  8
0
  5
137
 10
7.24902
 20
13.9630
 30
0.000000
  70
    32
  0
VERTEX
  8
0
  5
138
 10
7.24994
 20
13.9654
 30
0.000000
  70
    32
  0
VERTEX
  8
0
  5
139
 10
7.25086
 20
13.9678
 30
0.000000
  70
    32
  0
VERTEX
  8
0
  5
13A
 10
7.25177
 20
13.9703
 30
0.000000
  70
    32
  0
VERTEX
  8
0
  5
13B
 10
7.25269
 20
13.9727
 30
0.000000
  70
    32
  0
VERTEX
  8
0
  5
13C
 10
7.25361
 20
13.9751
 30
0.000000
  70
    32
  0
VERTEX
  8
0
  5
13D
 10
7.25452
 20
13.9775
 30
0.000000
  70
    32
  0
VERTEX
  8
0
  5
13E
 10
7.25544
 20
13.9800
 30
0.000000
  70
    32
  0
VERTEX
  8
0
  5
13F
 10
7.25636
 20
13.9824
 30
0.000000
  70
    32
  0
VERTEX
  8
0
  5
140
 10
7.25727
 20
13.9848
 30
0.000000
  70
    32
  0
VERTEX
  8
0
  5
141
 10
7.25819
 20
13.9872
 30
0.000000
  70
    32
  0
VERTEX
  8
0
  5
142
 10
7.25911
 20
13.9896
 30
0.000000
  70
    32
  0
VERTEX
  8
0
  5
143
 10
7.26002
 20
13.9921
 30
0.000000
  70
    32
  0
VERTEX
  8
0
  5
144
 10
7.26094
 20
13.9945
 30
0.000000
  70
    32
  0
VERTEX
  8
0
  5
145
 10
7.26186
 20
13.9969
 30
0.000000
  70
    32
  0
VERTEX
  8
0
  5
146
 10
7.26278
 20
13.9993
 30
0.000000
  70
    32
  0
VERTEX
  8
0
  5
147
 10
7.26369
 20
14.0018
 30
0.000000
  70
    32
  0
VERTEX
  8
0
  5
148
 10
7.26461
 20
14.0042
 30
0.000000
  70
    32
  0
VERTEX
  8
0
  5
149
 10
7.26553
 20
14.0066
 30
0.000000
  70
    32
  0
VERTEX
  8
0
  5
14A
 10
7.26645
 20
14.0090
 30
0.000000
  70
    32
  0
VERTEX
  8
0
  5
14B
 10
7.26736
 20
14.0115
 30
0.000000
  70
    32
  0
VERTEX
  8
0
  5
14C
 10
7.26828
 20
14.0139
 30
0.000000
  70
    32
  0
VERTEX
  8
0
  5
14D
 10
7.26920
 20
14.0163
 30
0.000000
  70
    32
  0
VERTEX
  8
0
  5
14E
 10
7.27012
 20
14.0187
 30
0.000000
  70
    32
  0
VERTEX
  8
0
  5
14F
 10
7.27103
 20
14.0212
 30
0.000000
  70
    32
  0
VERTEX
  8
0
  5
150
 10
7.27195
 20
14.0236
 30
0.000000
  70
    32
  0
VERTEX
  8
0
  5
151
 10
7.27287
 20
14.0260
 30
0.000000
  70
    32
  0
VERTEX
  8
0
  5
152
 10
7.27379
 20
14.0285
 30
0.000000
  70
    32
  0
VERTEX
  8
0
  5
153
 10
7.27471
 20
14.0309
 30
0.000000
  70
    32
  0
VERTEX
  8
0
  5
154
 10
7.27563
 20
14.0333
 30
0.000000
  70
    32
  0
VERTEX
  8
0
  5
155
 10
7.27654
 20
14.0357
 30
0.000000
  70
    32
  0
VERTEX
  8
0
  5
156
 10
7.27746
 20
14.0382
 30
0.000000
  70
    32
  0
VERTEX
  8
0
  5
157
 10
7.27838
 20
14.0406
 30
0.000000
  70
    32
  0
VERTEX
  8
0
  5
158
 10
7.27930
 20
14.0430
 30
0.000000
  70
    32
  0
VERTEX
  8
0
  5
159
 10
7.28022
 20
14.0455
 30
0.000000
  70
    32
  0
VERTEX
  8
0
  5
15A
 10
7.28114
 20
14.0479
 30
0.000000
  70
    32
  0
VERTEX
  8
0
  5
15B
 10
7.28205
 20
14.0503
 30
0.000000
  70
    32
  0
VERTEX
  8
0
  5
15C
 10
7.28297
 20
14.0528
 30
0.000000
  70
    32
  0
VERTEX
  8
0
  5
15D
 10
7.28389
 20
14.0552
 30
0.000000
  70
    32
  0
VERTEX
  8
0
  5
15E
 10
7.28481
 20
14.0576
 30
0.000000
  70
    32
  0
VERTEX
  8
0
  5
15F
 10
7.28573
 20
14.0601
 30
0.000000
  70
    32
  0
VERTEX
  8
0
  5
160
 10
7.28665
 20
14.0625
 30
0.000000
  70
    32
  0
VERTEX
  8
0
  5
161
 10
7.28757
 20
14.0649
 30
0.000000
  70
    32
  0
VERTEX
  8
0
  5
162
 10
7.28849
 20
14.0674
 30
0.000000
  70
    32
  0
VERTEX
  8
0
  5
163
 10
7.28941
 20
14.0698
 30
0.000000
  70
    32
  0
VERTEX
  8
0
  5
164
 10
7.29032
 20
14.0722
 30
0.000000
  70
    32
  0
VERTEX
  8
0
  5
165
 10
7.29124
 20
14.0747
 30
0.000000
  70
    32
  0
VERTEX
  8
0
  5
166
 10
7.29216
 20
14.0771
 30
0.000000
  70
    32
  0
VERTEX
  8
0
  5
167
 10
7.29308
 20
14.0795
 30
0.000000
  70
    32
  0
VERTEX
  8
0
  5
168
 10
7.29400
 20
14.0820
 30
0.000000
  70
    32
  0
VERTEX
  8
0
  5
169
 10
7.29492
 20
14.0844
 30
0.000000
  70
    32
  0
VERTEX
  8
0
  5
16A
 10
7.29584
 20
14.0868
 30
0.000000
  70
    32
  0
VERTEX
  8
0
  5
16B
 10
7.29676
 20
14.0893
 30
0.000000
  70
    32
  0
VERTEX
  8
0
  5
16C
 10
7.29768
 20
14.0917
 30
0.000000
  70
    32
  0
VERTEX
  8
0
  5
16D
 10
7.29860
 20
14.0941
 30
0.000000
  70
    32
  0
VERTEX
  8
0
  5
16E
 10
7.29952
 20
14.0966
 30
0.000000
  70
    32
  0
VERTEX
  8
0
  5
16F
 10
7.30044
 20
14.0990
 30
0.000000
  70
    32
  0
VERTEX
  8
0
  5
170
 10
7.30136
 20
14.1015
 30
0.000000
  70
    32
  0
VERTEX
  8
0
  5
171
 10
7.30228
 20
14.1039
 30
0.000000
  70
    32
  0
VERTEX
  8
0
  5
172
 10
7.30320
 20
14.1063
 30
0.000000
  70
    32
  0
VERTEX
  8
0
  5
173
 10
7.30412
 20
14.1088
 30
0.000000
  70
    32
  0
VERTEX
  8
0
  5
174
 10
7.30504
 20
14.1112
 30
0.000000
  70
    32
  0
VERTEX
  8
0
  5
175
 10
7.30596
 20
14.1137
 30
0.000000
  70
    32
  0
VERTEX
  8
0
  5
176
 10
7.30688
 20
14.1161
 30
0.000000
  70
    32
  0
VERTEX
  8
0
  5
177
 10
7.30780
 20
14.1185
 30
0.000000
  70
    32
  0
VERTEX
  8
0
  5
178
 10
7.30872
 20
14.1210
 30
0.000000
  70
    32
  0
VERTEX
  8
0
  5
179
 10
7.30964
 20
14.1234
 30
0.000000
  70
    32
  0
VERTEX
  8
0
  5
17A
 10
7.31056
 20
14.1259
 30
0.000000
  70
    32
  0
VERTEX
  8
0
  5
17B
 10
7.31148
 20
14.1283
 30
0.000000
  70
    32
  0
VERTEX
  8
0
  5
17C
 10
7.31241
 20
14.1307
 30
0.000000
  70
    32
  0
VERTEX
  8
0
  5
17D
 10
7.31333
 20
14.1332
 30
0.000000
  70
    32
  0
VERTEX
  8
0
  5
17E
 10
7.31425
 20
14.1356
 30
0.000000
  70
    32
  0
VERTEX
  8
0
  5
17F
 10
7.31517
 20
14.1381
 30
0.000000
  70
    32
  0
VERTEX
  8
0
  5
180
 10
7.31609
 20
14.1405
 30
0.000000
  70
    32
  0
VERTEX
  8
0
  5
181
 10
7.31701
 20
14.1430
 30
0.000000
  70
    32
  0
VERTEX
  8
0
  5
182
 10
7.31793
 20
14.1454
 30
0.000000
  70
    32
  0
VERTEX
  8
0
  5
183
 10
7.31885
 20
14.1478
 30
0.000000
  70
    32
  0
VERTEX
  8
0
  5
184
 10
7.31977
 20
14.1503
 30
0.000000
  70
    32
  0
VERTEX
  8
0
  5
185
 10
7.32069
 20
14.1527
 30
0.000000
  70
    32
  0
VERTEX
  8
0
  5
186
 10
7.32162
 20
14.1552
 30
0.000000
  70
    32
  0
VERTEX
  8
0
  5
187
 10
7.32254
 20
14.1576
 30
0.000000
  70
    32
  0
VERTEX
  8
0
  5
188
 10
7.32346
 20
14.1601
 30
0.000000
  70
    32
  0
VERTEX
  8
0
  5
189
 10
7.32438
 20
14.1625
 30
0.000000
  70
    32
  0
VERTEX
  8
0
  5
18A
 10
7.32530
 20
14.1650
 30
0.000000
  70
    32
  0
VERTEX
  8
0
  5
18B
 10
7.32622
 20
14.1674
 30
0.000000
  70
    32
  0
VERTEX
  8
0
  5
18C
 10
7.32715
 20
14.1699
 30
0.000000
  70
    32
  0
VERTEX
  8
0
  5
18D
 10
7.32807
 20
14.1723
 30
0.000000
  70
    32
  0
VERTEX
  8
0
  5
18E
 10
7.32899
 20
14.1748
 30
0.000000
  70
    32
  0
VERTEX
  8
0
  5
18F
 10
7.32991
 20
14.1772
 30
0.000000
  70
    32
  0
VERTEX
  8
0
  5
190
 10
7.33083
 20
14.1797
 30
0.000000
  70
    32
  0
VERTEX
  8
0
  5
191
 10
7.33176
 20
14.1821
 30
0.000000
  70
    32
  0
VERTEX
  8
0
  5
192
 10
7.33268
 20
14.1846
 30
0.000000
  70
    32
  0
VERTEX
  8
0
  5
193
 10
7.33360
 20
14.1870
 30
0.000000
  70
    32
  0
VERTEX
  8
0
  5
194
 10
7.33452
 20
14.1895
 30
0.000000
  70
    32
  0
VERTEX
  8
0
  5
195
 10
7.33545
 20
14.1919
 30
0.000000
  70
    32
  0
VERTEX
  8
0
  5
196
 10
7.33637
 20
14.1944
 30
0.000000
  70
    32
  0
VERTEX
  8
0
  5
197
 10
7.33729
 20
14.1968
 30
0.000000
  70
    32
  0
SEQEND
  8
0
  5
198
  0
POLYLINE
  8
0
  5
199
  66
     1
 10
0.000000
 20
0.000000
 30
0.000000
  70
     8
  0
VERTEX
  8
0
  5
19A
 10
3.40322
 20
0.000000
 30
0.000000
  70
    32
  0
VERTEX
  8
0
  5
19B
 10
3.40902
 20
0.0712347
 30
0.000000
  70
    32
  0
VERTEX
  8
0
  5
19C
 10
3.41486
 20
0.142349
 30
0.000000
  70
    32
  0
VERTEX
  8
0
  5
19D
 10
3.42076
 20
0.213347
 30
0.000000
  70
    32
  0
VERTEX
  8
0
  5
19E
 10
3.42670
 20
0.284232
 30
0.000000
  70
    32
  0
VERTEX
  8
0
  5
19F
 10
3.43269
 20
0.355006
 30
0.000000
  70
    32
  0
VERTEX
  8
0
  5
1A0
 10
3.43874
 20
0.425674
 30
0.000000
  70
    32
  0
VERTEX
  8
0
  5
1A1
 10
3.44483
 20
0.496238
 30
0.000000
  70
    32
  0
VERTEX
  8
0
  5
1A2
 10
3.45097
 20
0.566701
 30
0.000000
  70
    32
  0
VERTEX
  8
0
  5
1A3
 10
3.45715
 20
0.637066
 30
0.000000
  70
    32
  0
VERTEX
  8
0
  5
1A4
 10
3.46339
 20
0.707336
 30
0.000000
  70
    32
  0
VERTEX
  8
0
  5
1A5
 10
3.46968
 20
0.777515
 30
0.000000
  70
    32
  0
VERTEX
  8
0
  5
1A6
 10
3.47601
 20
0.847604
 30
0.000000
  70
    32
  0
VERTEX
  8
0
  5
1A7
 10
3.48240
 20
0.917606
 30
0.000000
  70
    32
  0
VERTEX
  8
0
  5
1A8
 10
3.48883
 20
0.987525
 30
0.000000
  70
    32
  0
VERTEX
  8
0
  5
1A9
 10
3.49532
 20
1.05736
 30
0.000000
  70
    32
  0
VERTEX
  8
0
  5
1AA
 10
3.50186
 20
1.12712
 30
0.000000
  70
    32
  0
VERTEX
  8
0
  5
1AB
 10
3.50845
 20
1.19680
 30
0.000000
  70
    32
  0
VERTEX
  8
0
  5
1AC
 10
3.51510
 20
1.26641
 30
0.000000
  70
    32
  0
VERTEX
  8
0
  5
1AD
 10
3.52181
 20
1.33594
 30
0.000000
  70
    32
  0
VERTEX
  8
0
  5
1AE
 10
3.52857
 20
1.40541
 30
0.000000
  70
    32
  0
VERTEX
  8
0
  5
1AF
 10
3.53539
 20
1.47481
 30
0.000000
  70
    32
  0
VERTEX
  8
0
  5
1B0
 10
3.54227
 20
1.54414
 30
0.000000
  70
    32
  0
VERTEX
  8
0
  5
1B1
 10
3.54921
 20
1.61341
 30
0.000000
  70
    32
  0
VERTEX
  8
0
  5
1B2
 10
3.55622
 20
1.68261
 30
0.000000
  70
    32
  0
VERTEX
  8
0
  5
1B3
 10
3.56330
 20
1.75176
 30
0.000000
  70
    32
  0
VERTEX
  8
0
  5
1B4
 10
3.57044
 20
1.82084
 30
0.000000
  70
    32
  0
VERTEX
  8
0
  5
1B5
 10
3.57766
 20
1.88988
 30
0.000000
  70
    32
  0
VERTEX
  8
0
  5
1B6
 10
3.58494
 20
1.95885
 30
0.000000
  70
    32
  0
VERTEX
  8
0
  5
1B7
 10
3.59231
 20
2.02777
 30
0.000000
  70
    32
  0
VERTEX
  8
0
  5
1B8
 10
3.59975
 20
2.09665
 30
0.000000
  70
    32
  0
VERTEX
  8
0
  5
1B9
 10
3.60727
 20
2.16546
 30
0.000000
  70
    32
  0
VERTEX
  8
0
  5
1BA
 10
3.61488
 20
2.23424
 30
0.000000
  70
    32
  0
VERTEX
  8
0
  5
1BB
 10
3.62257
 20
2.30296
 30
0.000000
  70
    32
  0
VERTEX
  8
0
  5
1BC
 10
3.63036
 20
2.37163
 30
0.000000
  70
    32
  0
VERTEX
  8
0
  5
1BD
 10
3.63824
 20
2.44026
 30
0.000000
  70
    32
  0
VERTEX
  8
0
  5
1BE
 10
3.64622
 20
2.50885
 30
0.000000
  70
    32
  0
VERTEX
  8
0
  5
1BF
 10
3.65429
 20
2.57739
 30
0.000000
  70
    32
  0
VERTEX
  8
0
  5
1C0
 10
3.66247
 20
2.64588
 30
0.000000
  70
    32
  0
VERTEX
  8
0
  5
1C1
 10
3.67076
 20
2.71434
 30
0.000000
  70
    32
  0
VERTEX
  8
0
  5
1C2
 10
3.67916
 20
2.78275
 30
0.000000
  70
    32
  0
VERTEX
  8
0
  5
1C3
 10
3.68768
 20
2.85113
 30
0.000000
  70
    32
  0
VERTEX
  8
0
  5
1C4
 10
3.69632
 20
2.91946
 30
0.000000
  70
    32
  0
VERTEX
  8
0
  5
1C5
 10
3.70508
 20
2.98775
 30
0.000000
  70
    32
  0
VERTEX
  8
0
  5
1C6
 10
3.71396
 20
3.05601
 30
0.000000
  70
    32
  0
VERTEX
  8
0
  5
1C7
 10
3.72299
 20
3.12422
 30
0.000000
  70
    32
  0
VERTEX
  8
0
  5
1C8
 10
3.73214
 20
3.19240
 30
0.000000
  70
    32
  0
VERTEX
  8
0
  5
1C9
 10
3.74144
 20
3.26054
 30
0.000000
  70
    32
  0
VERTEX
  8
0
  5
1CA
 10
3.75088
 20
3.32865
 30
0.000000
  70
    32
  0
VERTEX
  8
0
  5
1CB
 10
3.76046
 20
3.39672
 30
0.000000
  70
    32
  0
VERTEX
  8
0
  5
1CC
 10
3.77020
 20
3.46476
 30
0.000000
  70
    32
  0
VERTEX
  8
0
  5
1CD
 10
3.78009
 20
3.53276
 30
0.000000
  70
    32
  0
VERTEX
  8
0
  5
1CE
 10
3.79013
 20
3.60074
 30
0.000000
  70
    32
  0
VERTEX
  8
0
  5
1CF
 10
3.80034
 20
3.66868
 30
0.000000
  70
    32
  0
VERTEX
  8
0
  5
1D0
 10
3.81071
 20
3.73659
 30
0.000000
  70
    32
  0
VERTEX
  8
0
  5
1D1
 10
3.82125
 20
3.80448
 30
0.000000
  70
    32
  0
VERTEX
  8
0
  5
1D2
 10
3.83196
 20
3.87233
 30
0.000000
  70
    32
  0
VERTEX
  8
0
  5
1D3
 10
3.84284
 20
3.94017
 30
0.000000
  70
    32
  0
VERTEX
  8
0
  5
1D4
 10
3.85390
 20
4.00797
 30
0.000000
  70
    32
  0
VERTEX
  8
0
  5
1D5
 10
3.86514
 20
4.07576
 30
0.000000
  70
    32
  0
VERTEX
  8
0
  5
1D6
 10
3.87656
 20
4.14352
 30
0.000000
  70
    32
  0
VERTEX
  8
0
  5
1D7
 10
3.88817
 20
4.21126
 30
0.000000
  70
    32
  0
VERTEX
  8
0
  5
1D8
 10
3.89996
 20
4.27898
 30
0.000000
  70
    32
  0
VERTEX
  8
0
  5
1D9
 10
3.91195
 20
4.34668
 30
0.000000
  70
    32
  0
VERTEX
  8
0
  5
1DA
 10
3.92413
 20
4.41437
 30
0.000000
  70
    32
  0
VERTEX
  8
0
  5
1DB
 10
3.93650
 20
4.48204
 30
0.000000
  70
    32
  0
VERTEX
  8
0
  5
1DC
 10
3.94907
 20
4.54970
 30
0.000000
  70
    32
  0
VERTEX
  8
0
  5
1DD
 10
3.96185
 20
4.61735
 30
0.000000
  70
    32
  0
VERTEX
  8
0
  5
1DE
 10
3.97482
 20
4.68499
 30
0.000000
  70
    32
  0
VERTEX
  8
0
  5
1DF
 10
3.98801
 20
4.75262
 30
0.000000
  70
    32
  0
VERTEX
  8
0
  5
1E0
 10
4.00140
 20
4.82024
 30
0.000000
  70
    32
  0
VERTEX
  8
0
  5
1E1
 10
4.01500
 20
4.88786
 30
0.000000
  70
    32
  0
VERTEX
  8
0
  5
1E2
 10
4.02881
 20
4.95548
 30
0.000000
  70
    32
  0
VERTEX
  8
0
  5
1E3
 10
4.04284
 20
5.02309
 30
0.000000
  70
    32
  0
VERTEX
  8
0
  5
1E4
 10
4.05708
 20
5.09071
 30
0.000000
  70
    32
  0
VERTEX
  8
0
  5
1E5
 10
4.07154
 20
5.15833
 30
0.000000
  70
    32
  0
VERTEX
  8
0
  5
1E6
 10
4.08622
 20
5.22596
 30
0.000000
  70
    32
  0
VERTEX
  8
0
  5
1E7
 10
4.10113
 20
5.29360
 30
0.000000
  70
    32
  0
VERTEX
  8
0
  5
1E8
 10
4.11625
 20
5.36124
 30
0.000000
  70
    32
  0
VERTEX
  8
0
  5
1E9
 10
4.13160
 20
5.42890
 30
0.000000
  70
    32
  0
VERTEX
  8
0
  5
1EA
 10
4.14718
 20
5.49657
 30
0.000000
  70
    32
  0
VERTEX
  8
0
  5
1EB
 10
4.16299
 20
5.56425
 30
0.000000
  70
    32
  0
VERTEX
  8
0
  5
1EC
 10
4.17903
 20
5.63196
 30
0.000000
  70
    32
  0
VERTEX
  8
0
  5
1ED
 10
4.19529
 20
5.69968
 30
0.000000
  70
    32
  0
VERTEX
  8
0
  5
1EE
 10
4.21179
 20
5.76743
 30
0.000000
  70
    32
  0
VERTEX
  8
0
  5
1EF
 10
4.22853
 20
5.83521
 30
0.000000
  70
    32
  0
VERTEX
  8
0
  5
1F0
 10
4.24550
 20
5.90301
 30
0.000000
  70
    32
  0
VERTEX
  8
0
  5
1F1
 10
4.26270
 20
5.97084
 30
0.000000
  70
    32
  0
VERTEX
  8
0
  5
1F2
 10
4.28015
 20
6.03871
 30
0.000000
  70
    32
  0
VERTEX
  8
0
  5
1F3
 10
4.29783
 20
6.10661
 30
0.000000
  70
    32
  0
VERTEX
  8
0
  5
1F4
 10
4.31575
 20
6.17455
 30
0.000000
  70
    32
  0
VERTEX
  8
0
  5
1F5
 10
4.33390
 20
6.24253
 30
0.000000
  70
    32
  0
VERTEX
  8
0
  5
1F6
 10
4.35230
 20
6.31055
 30
0.000000
  70
    32
  0
VERTEX
  8
0
  5
1F7
 10
4.37095
 20
6.37862
 30
0.000000
  70
    32
  0
VERTEX
  8
0
  5
1F8
 10
4.38983
 20
6.44674
 30
0.000000
  70
    32
  0
VERTEX
  8
0
  5
1F9
 10
4.40896
 20
6.51492
 30
0.000000
  70
    32
  0
VERTEX
  8
0
  5
1FA
 10
4.42833
 20
6.58314
 30
0.000000
  70
    32
  0
VERTEX
  8
0
  5
1FB
 10
4.44794
 20
6.65143
 30
0.000000
  70
    32
  0
VERTEX
  8
0
  5
1FC
 10
4.46780
 20
6.71977
 30
0.000000
  70
    32
  0
VERTEX
  8
0
  5
1FD
 10
4.48790
 20
6.78818
 30
0.000000
  70
    32
  0
VERTEX
  8
0
  5
1FE
 10
4.50825
 20
6.85665
 30
0.000000
  70
    32
  0
VERTEX
  8
0
  5
1FF
 10
4.52884
 20
6.92520
 30
0.000000
  70
    32
  0
VERTEX
  8
0
  5
200
 10
4.54968
 20
6.99382
 30
0.000000
  70
    32
  0
VERTEX
  8
0
  5
201
 10
4.57076
 20
7.06251
 30
0.000000
  70
    32
  0
VERTEX
  8
0
  5
202
 10
4.59209
 20
7.13129
 30
0.000000
  70
    32
  0
VERTEX
  8
0
  5
203
 10
4.61367
 20
7.20014
 30
0.000000
  70
    32
  0
VERTEX
  8
0
  5
204
 10
4.63548
 20
7.26908
 30
0.000000
  70
    32
  0
VERTEX
  8
0
  5
205
 10
4.65755
 20
7.33811
 30
0.000000
  70
    32
  0
VERTEX
  8
0
  5
206
 10
4.67986
 20
7.40724
 30
0.000000
  70
    32
  0
VERTEX
  8
0
  5
207
 10
4.70241
 20
7.47646
 30
0.000000
  70
    32
  0
VERTEX
  8
0
  5
208
 10
4.72521
 20
7.54577
 30
0.000000
  70
    32
  0
VERTEX
  8
0
  5
209
 10
4.74825
 20
7.61520
 30
0.000000
  70
    32
  0
VERTEX
  8
0
  5
20A
 10
4.77153
 20
7.68472
 30
0.000000
  70
    32
  0
VERTEX
  8
0
  5
20B
 10
4.79506
 20
7.75436
 30
0.000000
  70
    32
  0
VERTEX
  8
0
  5
20C
 10
4.81883
 20
7.82411
 30
0.000000
  70
    32
  0
VERTEX
  8
0
  5
20D
 10
4.84283
 20
7.89398
 30
0.000000
  70
    32
  0
VERTEX
  8
0
  5
20E
 10
4.86708
 20
7.96397
 30
0.000000
  70
    32
  0
VERTEX
  8
0
  5
20F
 10
4.89157
 20
8.03408
 30
0.000000
  70
    32
  0
VERTEX
  8
0
  5
210
 10
4.91630
 20
8.10433
 30
0.000000
  70
    32
  0
VERTEX
  8
0
  5
211
 10
4.94127
 20
8.17470
 30
0.000000
  70
    32
  0
VERTEX
  8
0
  5
212
 10
4.96647
 20
8.24521
 30
0.000000
  70
    32
  0
VERTEX
  8
0
  5
213
 10
4.99191
 20
8.31586
 30
0.000000
  70
    32
  0
VERTEX
  8
0
  5
214
 10
5.01758
 20
8.38666
 30
0.000000
  70
    32
  0
VERTEX
  8
0
  5
215
 10
5.04348
 20
8.45760
 30
0.000000
  70
    32
  0
VERTEX
  8
0
  5
216
 10
5.06962
 20
8.52870
 30
0.000000
  70
    32
  0
VERTEX
  8
0
  5
217
 10
5.09599
 20
8.59995
 30
0.000000
  70
    32
  0
VERTEX
  8
0
  5
218
 10
5.12258
 20
8.67136
 30
0.000000
  70
    32
  0
VERTEX
  8
0
  5
219
 10
5.14941
 20
8.74294
 30
0.000000
  70
    32
  0
VERTEX
  8
0
  5
21A
 10
5.17646
 20
8.81468
 30
0.000000
  70
    32
  0
VERTEX
  8
0
  5
21B
 10
5.20373
 20
8.88660
 30
0.000000
  70
    32
  0
VERTEX
  8
0
  5
21C
 10
5.23123
 20
8.95869
 30
0.000000
  70
    32
  0
VERTEX
  8
0
  5
21D
 10
5.25895
 20
9.03097
 30
0.000000
  70
    32
  0
VERTEX
  8
0
  5
21E
 10
5.28689
 20
9.10343
 30
0.000000
  70
    32
  0
VERTEX
  8
0
  5
21F
 10
5.31504
 20
9.17608
 30
0.000000
  70
    32
  0
VERTEX
  8
0
  5
220
 10
5.34341
 20
9.24893
 30
0.000000
  70
    32
  0
VERTEX
  8
0
  5
221
 10
5.37199
 20
9.32197
 30
0.000000
  70
    32
  0
VERTEX
  8
0
  5
222
 10
5.40079
 20
9.39522
 30
0.000000
  70
    32
  0
VERTEX
  8
0
  5
223
 10
5.42979
 20
9.46868
 30
0.000000
  70
    32
  0
VERTEX
  8
0
  5
224
 10
5.45900
 20
9.54235
 30
0.000000
  70
    32
  0
VERTEX
  8
0
  5
225
 10
5.48841
 20
9.61624
 30
0.000000
  70
    32
  0
VERTEX
  8
0
  5
226
 10
5.51803
 20
9.69035
 30
0.000000
  70
    32
  0
VERTEX
  8
0
  5
227
 10
5.54785
 20
9.76469
 30
0.000000
  70
    32
  0
VERTEX
  8
0
  5
228
 10
5.57786
 20
9.83926
 30
0.000000
  70
    32
  0
VERTEX
  8
0
  5
229
 10
5.60807
 20
9.91407
 30
0.000000
  70
    32
  0
VERTEX
  8
0
  5
22A
 10
5.63847
 20
9.98911
 30
0.000000
  70
    32
  0
VERTEX
  8
0
  5
22B
 10
5.66906
 20
10.0644
 30
0.000000
  70
    32
  0
VERTEX
  8
0
  5
22C
 10
5.69983
 20
10.1400
 30
0.000000
  70
    32
  0
VERTEX
  8
0
  5
22D
 10
5.73079
 20
10.2158
 30
0.000000
  70
    32
  0
VERTEX
  8
0
  5
22E
 10
5.76193
 20
10.2918
 30
0.000000
  70
    32
  0
VERTEX
  8
0
  5
22F
 10
5.79325
 20
10.3681
 30
0.000000
  70
    32
  0
VERTEX
  8
0
  5
230
 10
5.82475
 20
10.4448
 30
0.000000
  70
    32
  0
VERTEX
  8
0
  5
231
 10
5.85641
 20
10.5216
 30
0.000000
  70
    32
  0
VERTEX
  8
0
  5
232
 10
5.88825
 20
10.5988
 30
0.000000
  70
    32
  0
VERTEX
  8
0
  5
233
 10
5.92025
 20
10.6762
 30
0.000000
  70
    32
  0
VERTEX
  8
0
  5
234
 10
5.95241
 20
10.7540
 30
0.000000
  70
    32
  0
VERTEX
  8
0
  5
235
 10
5.98473
 20
10.8320
 30
0.000000
  70
    32
  0
VERTEX
  8
0
  5
236
 10
6.01721
 20
10.9104
 30
0.000000
  70
    32
  0
VERTEX
  8
0
  5
237
 10
6.04984
 20
10.9890
 30
0.000000
  70
    32
  0
VERTEX
  8
0
  5
238
 10
6.08261
 20
11.0680
 30
0.000000
  70
    32
  0
VERTEX
  8
0
  5
239
 10
6.11554
 20
11.1473
 30
0.000000
  70
    32
  0
VERTEX
  8
0
  5
23A
 10
6.14860
 20
11.2269
 30
0.000000
  70
    32
  0
VERTEX
  8
0
  5
23B
 10
6.18180
 20
11.3068
 30
0.000000
  70
    32
  0
VERTEX
  8
0
  5
23C
 10
6.21514
 20
11.3871
 30
0.000000
  70
    32
  0
VERTEX
  8
0
  5
23D
 10
6.24861
 20
11.4677
 30
0.000000
  70
    32
  0
VERTEX
  8
0
  5
23E
 10
6.28220
 20
11.5487
 30
0.000000
  70
    32
  0
VERTEX
  8
0
  5
23F
 10
6.31591
 20
11.6300
 30
0.000000
  70
    32
  0
VERTEX
  8
0
  5
240
 10
6.34974
 20
11.7117
 30
0.000000
  70
    32
  0
VERTEX
  8
0
  5
241
 10
6.38369
 20
11.7937
 30
0.000000
  70
    32
  0
VERTEX
  8
0
  5
242
 10
6.41774
 20
11.8761
 30
0.000000
  70
    32
  0
VERTEX
  8
0
  5
243
 10
6.45190
 20
11.9589
 30
0.000000
  70
    32
  0
VERTEX
  8
0
  5
244
 10
6.48616
 20
12.0421
 30
0.000000
  70
    32
  0
VERTEX
  8
0
  5
245
 10
6.52052
 20
12.1256
 30
0.000000
  70
    32
  0
VERTEX
  8
0
  5
246
 10
6.55497
 20
12.2096
 30
0.000000
  70
    32
  0
VERTEX
  8
0
  5
247
 10
6.58951
 20
12.2940
 30
0.000000
  70
    32
  0
VERTEX
  8
0
  5
248
 10
6.62413
 20
12.3787
 30
0.000000
  70
    32
  0
VERTEX
  8
0
  5
249
 10
6.65883
 20
12.4639
 30
0.000000
  70
    32
  0
VERTEX
  8
0
  5
24A
 10
6.69361
 20
12.5495
 30
0.000000
  70
    32
  0
VERTEX
  8
0
  5
24B
 10
6.72845
 20
12.6355
 30
0.000000
  70
    32
  0
VERTEX
  8
0
  5
24C
 10
6.76335
 20
12.7220
 30
0.000000
  70
    32
  0
VERTEX
  8
0
  5
24D
 10
6.79832
 20
12.8089
 30
0.000000
  70
    32
  0
VERTEX
  8
0
  5
24E
 10
6.83334
 20
12.8962
 30
0.000000
  70
    32
  0
VERTEX
  8
0
  5
24F
 10
6.86841
 20
12.9840
 30
0.000000
  70
    32
  0
VERTEX
  8
0
  5
250
 10
6.90352
 20
13.0723
 30
0.000000
  70
    32
  0
VERTEX
  8
0
  5
251
 10
6.93867
 20
13.1610
 30
0.000000
  70
    32
  0
VERTEX
  8
0
  5
252
 10
6.97386
 20
13.2502
 30
0.000000
  70
    32
  0
VERTEX
  8
0
  5
253
 10
7.00908
 20
13.3398
 30
0.000000
  70
    32
  0
VERTEX
  8
0
  5
254
 10
7.04431
 20
13.4300
 30
0.000000
  70
    32
  0
VERTEX
  8
0
  5
255
 10
7.07957
 20
13.5206
 30
0.000000
  70
    32
  0
VERTEX
  8
0
  5
256
 10
7.11483
 20
13.6117
 30
0.000000
  70
    32
  0
VERTEX
  8
0
  5
257
 10
7.15011
 20
13.7034
 30
0.000000
  70
    32
  0
VERTEX
  8
0
  5
258
 10
7.18538
 20
13.7955
 30
0.000000
  70
    32
  0
VERTEX
  8
0
  5
259
 10
7.22065
 20
13.8882
 30
0.000000
  70
    32
  0
SEQEND
  8
0
  5
25A
  0
ENDSEC
  0
EOF
