  0
SECTION
  2
HEADER
  9
$ACADVER
  1
AC1009
  9
$INSBASE
 10
0.0
 20
0.0
 30
0.0
  9
$EXTMIN
 10
0.0
 20
0.0
 30
0.0
  9
$EXTMAX
 10
13.42312273416208
 20
8.5788404814038941
 30
0.0
  9
$LIMMIN
 10
0.0
 20
0.0
  9
$LIMMAX
 10
13.42312273416208
 20
8.5788404814038941
  9
$ORTHOMODE
 70
     0
  9
$REGENMODE
 70
     1
  9
$FILLMODE
 70
     1
  9
$QTEXTMODE
 70
     0
  9
$MIRRTEXT
 70
     0
  9
$DRAGMODE
 70
     2
  9
$LTSCALE
 40
1.0
  9
$OSMODE
 70
     0
  9
$ATTMODE
 70
     1
  9
$TEXTSIZE
 40
0.2
  9
$TRACEWID
 40
0.05
  9
$TEXTSTYLE
  7
STANDARD
  9
$CLAYER
  8
0
  9
$CELTYPE
  6
BYLAYER
  9
$CECOLOR
 62
   256
  9
$DIMSCALE
 40
1.0
  9
$DIMASZ
 40
0.0708661417322835
  9
$DIMEXO
 40
0.0625
  9
$DIMDLI
 40
0.38
  9
$DIMRND
 40
0.0
  9
$DIMDLE
 40
0.0
  9
$DIMEXE
 40
0.18
  9
$DIMTP
 40
0.0
  9
$DIMTM
 40
0.0
  9
$DIMTXT
 40
0.0708661417322835
  9
$DIMCEN
 40
0.09
  9
$DIMTSZ
 40
0.0
  9
$DIMTOL
 70
     0
  9
$DIMLIM
 70
     0
  9
$DIMTIH
 70
     1
  9
$DIMTOH
 70
     1
  9
$DIMSE1
 70
     0
  9
$DIMSE2
 70
     0
  9
$DIMTAD
 70
     0
  9
$DIMZIN
 70
     0
  9
$DIMBLK
  1

  9
$DIMASO
 70
     1
  9
$DIMSHO
 70
     1
  9
$DIMPOST
  1

  9
$DIMAPOST
  1

  9
$DIMALT
 70
     0
  9
$DIMALTD
 70
     2
  9
$DIMALTF
 40
25.399999999999999
  9
$DIMLFAC
 40
1.0
  9
$DIMTOFL
 70
     0
  9
$DIMTVP
 40
0.0
  9
$DIMTIX
 70
     0
  9
$DIMSOXD
 70
     0
  9
$DIMSAH
 70
     0
  9
$DIMBLK1
  1

  9
$DIMBLK2
  1

  9
$DIMSTYLE
  2
STANDARD
  9
$DIMCLRD
 70
     0
  9
$DIMCLRE
 70
     0
  9
$DIMCLRT
 70
     0
  9
$DIMTFAC
 40
1.0
  9
$DIMGAP
 40
0.09
  9
$LUNITS
 70
     2
  9
$LUPREC
 70
     4
  9
$SKETCHINC
 40
0.1
  9
$FILLETRAD
 40
0.0
  9
$AUNITS
 70
     0
  9
$AUPREC
 70
     0
  9
$MENU
  1
.
  9
$ELEVATION
 40
0.0
  9
$PELEVATION
 40
0.0
  9
$THICKNESS
 40
0.0
  9
$LIMCHECK
 70
     0
  9
$BLIPMODE
 70
     0
  9
$CHAMFERA
 40
0.0
  9
$CHAMFERB
 40
0.0
  9
$SKPOLY
 70
     0
  9
$TDCREATE
 40
2456346.5531832292
  9
$TDUPDATE
 40
2456346.5531832292
  9
$TDINDWG
 40
0.0000315625
  9
$TDUSRTIMER
 40
0.0000315625
  9
$USRTIMER
 70
     1
  9
$ANGBASE
 50
0.0
  9
$ANGDIR
 70
     0
  9
$PDMODE
 70
     0
  9
$PDSIZE
 40
0.0
  9
$PLINEWID
 40
0.0
  9
$COORDS
 70
     0
  9
$SPLFRAME
 70
     0
  9
$SPLINETYPE
 70
     6
  9
$SPLINESEGS
 70
     8
  9
$ATTDIA
 70
     0
  9
$ATTREQ
 70
     1
  9
$HANDLING
 70
     1
  9
$HANDSEED
  5
270
  9
$SURFTAB1
 70
     6
  9
$SURFTAB2
 70
     6
  9
$SURFTYPE
 70
     6
  9
$SURFU
 70
     6
  9
$SURFV
 70
     6
  9
$UCSNAME
  2

  9
$UCSORG
 10
0.0
 20
0.0
 30
0.0
  9
$UCSXDIR
 10
1.0
 20
0.0
 30
0.0
  9
$UCSYDIR
 10
0.0
 20
1.0
 30
0.0
  9
$PUCSNAME
  2

  9
$PUCSORG
 10
0.0
 20
0.0
 30
0.0
  9
$PUCSXDIR
 10
1.0
 20
0.0
 30
0.0
  9
$PUCSYDIR
 10
0.0
 20
1.0
 30
0.0
  9
$USERI1
 70
     0
  9
$USERI2
 70
     0
  9
$USERI3
 70
     0
  9
$USERI4
 70
     0
  9
$USERI5
 70
     0
  9
$USERR1
 40
0.0
  9
$USERR2
 40
0.0
  9
$USERR3
 40
0.0
  9
$USERR4
 40
0.0
  9
$USERR5
 40
0.0
  9
$WORLDVIEW
 70
     1
  9
$SHADEDGE
 70
     3
  9
$SHADEDIF
 70
    70
  9
$TILEMODE
 70
     1
  9
$MAXACTVP
 70
    64
  9
$PLIMCHECK
 70
     0
  9
$PEXTMIN
 10
0.0
 20
0.0
 30
0.0
  9
$PEXTMAX
 10
13.42312273416208
 20
8.5788404814038941
 30
0.0
  9
$PLIMMIN
 10
0.0
 20
0.0
  9
$PLIMMAX
 10
13.42312273416208
 20
8.5788404814038941
  9
$UNITMODE
 70
     0
  9
$VISRETAIN
 70
     1
  9
$PLINEGEN
 70
     0
  9
$PSLTSCALE
 70
     1
  0
ENDSEC
  0
SECTION
  2
TABLES
  0
TABLE
  2
VPORT
 70
     1
  0
VPORT
  2
*ACTIVE
 70
     0
 10
0.0
 20
0.0
 11
1.0
 21
1.0
 12
-0.0000000000000004
 22
2.2019464785264531
 13
0.0
 23
0.0
 14
1.0
 24
1.0
 15
0.0
 25
0.0
 16
0.0
 26
0.0
 36
1.0
 17
0.0
 27
0.0
 37
0.0
 40
8.5788404814038941
 41
1.5646779728867779
 42
50.0
 43
0.0
 44
0.0
 50
0.0
 51
0.0
 71
     0
 72
   100
 73
     1
 74
     1
 75
     0
 76
     0
 77
     0
 78
     0
  0
ENDTAB
  0
TABLE
  2
LTYPE
 70
    59
  0
LTYPE
  2
CONTINUOUS
 70
     0
  3
Solid line
 72
    65
 73
     0
 40
0.0
  0
LTYPE
  2
PHANTOM2
 70
     0
  3
Phantom (.5x) ___ _ _ ___ _ _ ___ _ _ ___ _ _
 72
    65
 73
     6
 40
1.25
 49
0.625
 49
-0.125
 49
0.125
 49
-0.125
 49
0.125
 49
-0.125
  0
LTYPE
  2
BY_STANDARD
 70
     0
  3
By Standard ____________    ____    ____   _
 72
    65
 73
     6
 40
1.2402999999999991
 49
0.6614
 49
-0.0827
 49
0.1654
 49
-0.0827
 49
0.1654
 49
-0.0827
  0
LTYPE
  2
CHAIN
 70
     0
  3
Chain ____ _ ____ _ ____ _ ____ _ ____ _ ____
 72
    65
 73
     4
 40
0.7087
 49
0.4724000000000001
 49
-0.0591
 49
0.1181
 49
-0.0591
  0
LTYPE
  2
DASH_DOT
 70
     0
  3
Dash dot __ . __ . __ . __ . __ . __ . __ . __
 72
    65
 73
     4
 40
0.37
 49
0.24
 49
-0.06
 49
0.01
 49
-0.06
  0
LTYPE
  2
DOUBLE_DASH_DOT
 70
     0
  3
Double-Dash Dot __ __ . __ __ . __ __ . __ _
 72
    65
 73
     6
 40
0.4398
 49
0.24
 49
-0.06
 49
0.0098
 49
-0.06
 49
0.01
 49
-0.06
  0
LTYPE
  2
DASH_TRIPLE_DOT
 70
     0
  3
Dash Triple-Dot _ . . . _ . . . _ . . . _
 72
    65
 73
     8
 40
0.51
 49
0.24
 49
-0.06
 49
0.01
 49
-0.06
 49
0.01
 49
-0.06
 49
0.01
 49
-0.06
  0
LTYPE
  2
DASHED
 70
     0
  3
Dashed __ __ __ __ __ __ __ __ __ __ __ __ __ _
 72
    65
 73
     2
 40
0.2067
 49
0.1654
 49
-0.0413
  0
LTYPE
  2
DASH_DOUBLE_DOT
 70
     0
  3
Dash Double-Dot __ . . __ . . __ . . __ . .
 72
    65
 73
     6
 40
0.4398
 49
0.24
 49
-0.06
 49
0.0098
 49
-0.06
 49
0.01
 49
-0.06
  0
LTYPE
  2
DASHED_SPACE
 70
     0
  3
Dashed Space __ __ __ __ __ __ __ __ __ __ __ _
 72
    65
 73
     2
 40
0.2067
 49
0.1654
 49
-0.0413
  0
LTYPE
  2
DOTTED
 70
     0
  3
Dotted . . . . . . . . . . . . . . . . . . . . 
 72
    65
 73
     2
 40
0.0482
 49
0.0069
 49
-0.0413
  0
LTYPE
  2
DOUBLE_DASH_CHAIN
 70
     0
  3
Double-Dash Chain ______  __  __  ______  __  _
 72
    65
 73
     6
 40
1.2402999999999991
 49
0.6614
 49
-0.0827
 49
0.1654
 49
-0.0827
 49
0.1654
 49
-0.0827
  0
LTYPE
  2
DOUBLE_DASH_DOUBLE_DOT
 70
     0
  3
Double-Dash Double-dot _ _ . . _ _ . . _
 72
    65
 73
     8
 40
0.7400000000000001
 49
0.24
 49
-0.06
 49
0.24
 49
-0.06
 49
0.01
 49
-0.06
 49
0.01
 49
-0.06
  0
LTYPE
  2
DOUBLE_DASH_TRIPLE_DOT
 70
     0
  3
Double Dash Triple Dot __ __ . . . __ __ . .
 72
    65
 73
    10
 40
0.8100000000000001
 49
0.24
 49
-0.06
 49
0.24
 49
-0.06
 49
0.01
 49
-0.06
 49
0.01
 49
-0.06
 49
0.01
 49
-0.06
  0
LTYPE
  2
LONG_DASH_DOTTED
 70
     0
  3
Long Dash Dotted ____ . ____ . ____ . ____ . _
 72
    65
 73
     4
 40
0.3543
 49
0.2362
 49
-0.0295
 49
0.0591
 49
-0.0295
  0
LTYPE
  2
LONG_DASH_DOUBLE_DOT
 70
     0
  3
Long Dash Double Dot ________  .  .  ________  
 72
    65
 73
     6
 40
0.6799999999999999
 49
0.48
 49
-0.06
 49
0.01
 49
-0.06
 49
0.01
 49
-0.06
  0
LTYPE
  2
LONG_DASH_TRIPLE_DOT
 70
     0
  3
Long Dash Triple Dot ____ ... ____ ... ____
 72
    65
 73
     8
 40
0.3689
 49
0.2362
 49
-0.0295
 49
0.0049
 49
-0.0295
 49
0.0049
 49
-0.0295
 49
0.0049
 49
-0.0295
  0
LTYPE
  2
BORDER
 70
     0
  3
Border __ __ . __ __ . __ __ . __ __ . __ __ .
 72
    65
 73
     6
 40
1.75
 49
0.5
 49
-0.25
 49
0.5
 49
-0.25
 49
0.0
 49
-0.25
  0
LTYPE
  2
BORDER2
 70
     0
  3
Border (.5x) __.__.__.__.__.__.__.__.__.__.__.
 72
    65
 73
     6
 40
0.875
 49
0.25
 49
-0.125
 49
0.25
 49
-0.125
 49
0.0
 49
-0.125
  0
LTYPE
  2
BORDERX2
 70
     0
  3
Border (2x) ____  ____  .  ____  ____  .  ___
 72
    65
 73
     6
 40
3.5
 49
1.0
 49
-0.5
 49
1.0
 49
-0.5
 49
0.0
 49
-0.5
  0
LTYPE
  2
CENTER
 70
     0
  3
Center ____ _ ____ _ ____ _ ____ _ ____ _ ____
 72
    65
 73
     4
 40
2.0
 49
1.25
 49
-0.25
 49
0.25
 49
-0.25
  0
LTYPE
  2
CENTER2
 70
     0
  3
Center (.5x) ___ _ ___ _ ___ _ ___ _ ___ _ ___
 72
    65
 73
     4
 40
1.125
 49
0.75
 49
-0.125
 49
0.125
 49
-0.125
  0
LTYPE
  2
CENTERX2
 70
     0
  3
Center (2x) ________  __  ________  __  _____
 72
    65
 73
     4
 40
4.0
 49
2.5
 49
-0.5
 49
0.5
 49
-0.5
  0
LTYPE
  2
DASHDOT2
 70
     0
  3
Dash dot (.5x) _._._._._._._._._._._._._._._.
 72
    65
 73
     4
 40
0.5
 49
0.25
 49
-0.125
 49
0.0
 49
-0.125
  0
LTYPE
  2
DASHDOTX2
 70
     0
  3
Dash dot (2x) ____  .  ____  .  ____  .  ___
 72
    65
 73
     4
 40
2.0
 49
1.0
 49
-0.5
 49
0.0
 49
-0.5
  0
LTYPE
  2
DASHED2
 70
     0
  3
Dashed (.5x) _ _ _ _ _ _ _ _ _ _ _ _ _ _ _ _ _
 72
    65
 73
     2
 40
0.375
 49
0.25
 49
-0.125
  0
LTYPE
  2
DASHEDX2
 70
     0
  3
Dashed (2x) ____  ____  ____  ____  ____  ___
 72
    65
 73
     2
 40
1.5
 49
1.0
 49
-0.5
  0
LTYPE
  2
DIVIDE
 70
     0
  3
Divide ____ . . ____ . . ____ . . ____ . . ____
 72
    65
 73
     6
 40
1.25
 49
0.5
 49
-0.25
 49
0.0
 49
-0.25
 49
0.0
 49
-0.25
  0
LTYPE
  2
DIVIDE2
 70
     0
  3
Divide (.5x) __..__..__..__..__..__..__..__.._
 72
    65
 73
     6
 40
0.625
 49
0.25
 49
-0.125
 49
0.0
 49
-0.125
 49
0.0
 49
-0.125
  0
LTYPE
  2
DIVIDEX2
 70
     0
  3
Divide (2x) ________  .  .  ________  .  .  _
 72
    65
 73
     6
 40
2.5
 49
1.0
 49
-0.5
 49
0.0
 49
-0.5
 49
0.0
 49
-0.5
  0
LTYPE
  2
DOT
 70
     0
  3
Dot . . . . . . . . . . . . . . . . . . . . . .
 72
    65
 73
     2
 40
0.25
 49
0.0
 49
-0.25
  0
LTYPE
  2
DOT2
 70
     0
  3
Dot (.5x) .....................................
 72
    65
 73
     2
 40
0.125
 49
0.0
 49
-0.125
  0
LTYPE
  2
DOTX2
 70
     0
  3
Dot (2x) .  .  .  .  .  .  .  .  .  .  .  .  . 
 72
    65
 73
     2
 40
0.5
 49
0.0
 49
-0.5
  0
LTYPE
  2
HIDDEN
 70
     0
  3
Hidden __ __ __ __ __ __ __ __ __ __ __ __ __ _
 72
    65
 73
     2
 40
0.375
 49
0.25
 49
-0.125
  0
LTYPE
  2
HIDDEN2
 70
     0
  3
Hidden (.5x) _ _ _ _ _ _ _ _ _ _ _ _ _ _ _ _ _
 72
    65
 73
     2
 40
0.1875
 49
0.125
 49
-0.0625
  0
LTYPE
  2
HIDDENX2
 70
     0
  3
Hidden (2x) ____ ____ ____ ____ ____ ____ ____
 72
    65
 73
     2
 40
0.75
 49
0.5
 49
-0.25
  0
LTYPE
  2
PHANTOM
 70
     0
  3
Phantom ______  __  __  ______  __  __  ______
 72
    65
 73
     6
 40
2.5
 49
1.25
 49
-0.25
 49
0.25
 49
-0.25
 49
0.25
 49
-0.25
  0
LTYPE
  2
PHANTOMX2
 70
     0
  3
Phantom (2x) ____________    ____    ____   _
 72
    65
 73
     6
 40
5.0
 49
2.5
 49
-0.5
 49
0.5
 49
-0.5
 49
0.5
 49
-0.5
  0
LTYPE
  2
ACAD_ISO02W100
 70
     0
  3
ISO dash __ __ __ __ __ __ __ __ __ __ __ __ __
 72
    65
 73
     2
 40
0.59
 49
0.47
 49
-0.12
  0
LTYPE
  2
ACAD_ISO03W100
 70
     0
  3
ISO dash space __    __    __    __    __    __
 72
    65
 73
     2
 40
1.179999999999999
 49
0.47
 49
-0.71
  0
LTYPE
  2
ACAD_ISO04W100
 70
     0
  3
ISO long-dash dot ____ . ____ . ____ . ____ . _
 72
    65
 73
     4
 40
1.179999999999999
 49
0.9399999999999998
 49
-0.12
 49
0.0
 49
-0.12
  0
LTYPE
  2
ACAD_ISO05W100
 70
     0
  3
ISO long-dash double-dot ____ .. ____ .. ____ .
 72
    65
 73
     6
 40
1.2999999999999989
 49
0.9399999999999998
 49
-0.12
 49
0.0
 49
-0.12
 49
0.0
 49
-0.12
  0
LTYPE
  2
ACAD_ISO06W100
 70
     0
  3
ISO long-dash triple-dot ____ ... ____ ... ____
 72
    65
 73
     8
 40
1.419999999999999
 49
0.9399999999999998
 49
-0.12
 49
0.0
 49
-0.12
 49
0.0
 49
-0.12
 49
0.0
 49
-0.12
  0
LTYPE
  2
ACAD_ISO07W100
 70
     0
  3
ISO dot . . . . . . . . . . . . . . . . . . . .
 72
    65
 73
     2
 40
0.12
 49
0.0
 49
-0.12
  0
LTYPE
  2
ACAD_ISO08W100
 70
     0
  3
ISO long-dash short-dash ____ __ ____ __ ____ _
 72
    65
 73
     4
 40
0.95
 49
0.47
 49
-0.12
 49
0.24
 49
-0.12
  0
LTYPE
  2
ACAD_ISO09W100
 70
     0
  3
ISO long-dash double-short-dash ____ __ __ ____
 72
    65
 73
     6
 40
1.3100000000000001
 49
0.47
 49
-0.12
 49
0.24
 49
-0.12
 49
0.24
 49
-0.12
  0
LTYPE
  2
ACAD_ISO10W100
 70
     0
  3
ISO dash dot __ . __ . __ . __ . __ . __ . __ .
 72
    65
 73
     4
 40
0.71
 49
0.47
 49
-0.12
 49
0.0
 49
-0.12
  0
LTYPE
  2
ACAD_ISO11W100
 70
     0
  3
ISO double-dash dot __ __ . __ __ . __ __ . __ 
 72
    65
 73
     6
 40
1.2999999999999989
 49
0.47
 49
-0.12
 49
0.47
 49
-0.12
 49
0.0
 49
-0.12
  0
LTYPE
  2
ACAD_ISO12W100
 70
     0
  3
ISO dash double-dot __ . . __ . . __ . . __ . .
 72
    65
 73
     6
 40
0.8299999999999999
 49
0.47
 49
-0.12
 49
0.0
 49
-0.12
 49
0.0
 49
-0.12
  0
LTYPE
  2
ACAD_ISO13W100
 70
     0
  3
ISO double-dash double-dot __ __ . . __ __ . . 
 72
    65
 73
     8
 40
1.419999999999999
 49
0.47
 49
-0.12
 49
0.47
 49
-0.12
 49
0.0
 49
-0.12
 49
0.0
 49
-0.12
  0
LTYPE
  2
ACAD_ISO14W100
 70
     0
  3
ISO dash triple-dot __ . . . __ . . . __ . . . 
 72
    65
 73
     8
 40
0.95
 49
0.47
 49
-0.12
 49
0.0
 49
-0.12
 49
0.0
 49
-0.12
 49
0.0
 49
-0.12
  0
LTYPE
  2
ACAD_ISO15W100
 70
     0
  3
ISO double-dash triple-dot __ __ . . . __ __ . 
 72
    65
 73
    10
 40
1.5399999999999989
 49
0.47
 49
-0.12
 49
0.47
 49
-0.12
 49
0.0
 49
-0.12
 49
0.0
 49
-0.12
 49
0.0
 49
-0.12
  0
LTYPE
  2
FENCELINE1
 70
     0
  3
Fenceline circle ----0-----0----0-----0----0---
 72
    65
 73
     4
 40
1.45
 49
0.25
 49
-0.1
 49
-0.1
 49
1.0
  0
LTYPE
  2
FENCELINE2
 70
     0
  3
Fenceline square ----[]-----[]----[]-----[]----
 72
    65
 73
     4
 40
1.45
 49
0.25
 49
-0.1
 49
-0.1
 49
1.0
  0
LTYPE
  2
TRACKS
 70
     0
  3
Tracks -|-|-|-|-|-|-|-|-|-|-|-|-|-|-|-|-|-|-|-|
 72
    65
 73
     2
 40
0.3
 49
0.15
 49
0.15
  0
LTYPE
  2
BATTING
 70
     0
  3
Batting SSSSSSSSSSSSSSSSSSSSSSSSSSSSSSSSSSSSSSS
 72
    65
 73
     4
 40
0.4001000000000001
 49
0.0001
 49
-0.1
 49
-0.2
 49
-0.1
  0
LTYPE
  2
HOT_WATER_SUPPLY
 70
     0
  3
Hot water supply ---- HW ---- HW ---- HW ----
 72
    65
 73
     3
 40
0.9
 49
0.5
 49
-0.2
 49
-0.2
  0
LTYPE
  2
GAS_LINE
 70
     0
  3
Gas line ----GAS----GAS----GAS----GAS----GAS---
 72
    65
 73
     3
 40
0.95
 49
0.5
 49
-0.2
 49
-0.25
  0
LTYPE
  2
ZIGZAG
 70
     0
  3
Zig zag /\/\/\/\/\/\/\/\/\/\/\/\/\/\/\/\/\/\/\/
 72
    65
 73
     4
 40
0.8001000000000001
 49
0.0001
 49
-0.2
 49
-0.4
 49
-0.2
  0
ENDTAB
  0
TABLE
  2
LAYER
 70
     1
  0
LAYER
  2
0
 70
     0
 62
     7
  6
CONTINUOUS
  0
ENDTAB
  0
TABLE
  2
STYLE
 70
     3
  0
STYLE
  2
STANDARD
 70
     0
 40
0.0
 41
1.0
 50
0.0
 71
     0
 42
0.2
  3
txt
  4

  0
STYLE
  2
ANNOTATIVE
 70
     0
 40
0.0
 41
1.0
 50
0.0
 71
     0
 42
0.2
  3
txt
  4

  0
STYLE
  2

 70
     1
 40
0.0
 41
1.0
 50
0.0
 71
     0
 42
0.2
  3
ltypeshp.shx
  4

  0
ENDTAB
  0
TABLE
  2
VIEW
 70
     0
  0
ENDTAB
  0
TABLE
  2
UCS
 70
     0
  0
ENDTAB
  0
TABLE
  2
APPID
 70
     3
  0
APPID
  2
ACAD
 70
     0
  0
APPID
  2
ACADANNOTATIVE
 70
     0
  0
APPID
  2
ACAD_MLEADERVER
 70
     0
  0
ENDTAB
  0
TABLE
  2
DIMSTYLE
 70
     2
  0
DIMSTYLE
  2
STANDARD
 70
     0
  3

  4

  5

  6

  7

 40
1.0
 41
0.18
 42
0.0625
 43
0.38
 44
0.18
 45
0.0
 46
0.0
 47
0.0
 48
0.0
140
0.18
141
0.09
142
0.0
143
25.399999999999999
144
1.0
145
0.0
146
1.0
147
0.09
 71
     0
 72
     0
 73
     1
 74
     1
 75
     0
 76
     0
 77
     0
 78
     0
170
     0
171
     2
172
     0
173
     0
174
     0
175
     0
176
     0
177
     0
178
     0
  0
DIMSTYLE
  2
ANNOTATIVE
 70
     0
  3

  4

  5

  6

  7

 40
1.0
 41
0.18
 42
0.0625
 43
0.38
 44
0.18
 45
0.0
 46
0.0
 47
0.0
 48
0.0
140
0.18
141
0.09
142
0.0
143
25.399999999999999
144
1.0
145
0.0
146
1.0
147
0.09
 71
     0
 72
     0
 73
     1
 74
     1
 75
     0
 76
     0
 77
     0
 78
     0
170
     0
171
     2
172
     0
173
     0
174
     0
175
     0
176
     0
177
     0
178
     0
  0
ENDTAB
  0
ENDSEC
  0
SECTION
  2
BLOCKS
  0
BLOCK
  8
0
  2
$MODEL_SPACE
 70
     0
 10
0.0
 20
0.0
 30
0.0
  3
$MODEL_SPACE
  1

  0
ENDBLK
  5
73
  8
0
  0
BLOCK
 67
     1
  8
0
  2
$PAPER_SPACE
 70
     0
 10
0.0
 20
0.0
 30
0.0
  3
$PAPER_SPACE
  1

  0
ENDBLK
  5
6F
 67
     1
  8
0
  0
ENDSEC
  0
SECTION
  2
ENTITIES
  0
POLYLINE
  5
B7
  8
0
 66
     1
 10
0.0
 20
0.0
 30
0.0
 70
     1
  0
VERTEX
  5
B8
  8
0
 10
4.1244222197927121
 20
0.7500000000003964
 30
0.0
  0
VERTEX
  5
B9
  8
0
 10
4.1244222197927121
 20
0.5000000000003964
 30
0.0
  0
VERTEX
  5
BB
  8
0
 10
2.3437500000000142
 20
0.5000000000003964
 30
0.0
  0
VERTEX
  5
BC
  8
0
 10
2.34375
 20
-1.4474980687771519
 30
0.0
  0
VERTEX
  5
BD
  8
0
 10
2.59375
 20
-1.4474980687771519
 30
0.0
  0
VERTEX
  5
BE
  8
0
 10
2.59375
 20
-1.6974980687771519
 30
0.0
  0
VERTEX
  5
BF
  8
0
 10
2.84375
 20
-1.6974980687771519
 30
0.0
  0
VERTEX
  5
C0
  8
0
 10
2.84375
 20
-1.4474980687771519
 30
0.0
  0
VERTEX
  5
C1
  8
0
 10
3.09375
 20
-1.4474980687771519
 30
0.0
  0
VERTEX
  5
C2
  8
0
 10
3.09375
 20
-1.6974980687771519
 30
0.0
  0
VERTEX
  5
C3
  8
0
 10
3.34375
 20
-1.6974980687771519
 30
0.0
  0
VERTEX
  5
C4
  8
0
 10
3.34375
 20
-1.4474980687771519
 30
0.0
  0
VERTEX
  5
C5
  8
0
 10
3.59375
 20
-1.4474980687771519
 30
0.0
  0
VERTEX
  5
C6
  8
0
 10
3.59375
 20
-1.6974980687771519
 30
0.0
  0
VERTEX
  5
C7
  8
0
 10
3.84375
 20
-1.6974980687771519
 30
0.0
  0
VERTEX
  5
C8
  8
0
 10
3.84375
 20
-1.4474980687771519
 30
0.0
  0
VERTEX
  5
C9
  8
0
 10
4.09375
 20
-1.4474980687771519
 30
0.0
  0
VERTEX
  5
CA
  8
0
 10
4.09375
 20
-1.6974980687771519
 30
0.0
  0
VERTEX
  5
CB
  8
0
 10
4.3437500000000009
 20
-1.6974980687771519
 30
0.0
  0
VERTEX
  5
CC
  8
0
 10
4.3437500000000009
 20
-1.4474980687771519
 30
0.0
  0
VERTEX
  5
CD
  8
0
 10
4.59375
 20
-1.4474980687771519
 30
0.0
  0
VERTEX
  5
CE
  8
0
 10
4.59375
 20
-1.6974980687771519
 30
0.0
  0
VERTEX
  5
CF
  8
0
 10
4.84375
 20
-1.6974980687771519
 30
0.0
  0
VERTEX
  5
D0
  8
0
 10
4.84375
 20
-1.4474980687771519
 30
0.0
  0
VERTEX
  5
D1
  8
0
 10
5.0937499999999991
 20
-1.4474980687771519
 30
0.0
  0
VERTEX
  5
D2
  8
0
 10
5.0937499999999991
 20
-1.6974980687771519
 30
0.0
  0
VERTEX
  5
D3
  8
0
 10
5.3437500000000009
 20
-1.6974980687771519
 30
0.0
  0
VERTEX
  5
D4
  8
0
 10
5.3437500000000009
 20
-1.4474980687771519
 30
0.0
  0
VERTEX
  5
D5
  8
0
 10
5.6244222197926961
 20
-1.4474980687771519
 30
0.0
  0
VERTEX
  5
D6
  8
0
 10
5.6244222197926987
 20
-1.6974980687771519
 30
0.0
 42
0.0029201934261946
  0
VERTEX
  5
D7
  8
0
 10
5.6438661104778696
 20
-1.6316863445525911
 30
0.0
 42
0.0411028642433038
  0
VERTEX
  5
D8
  8
0
 10
5.8816882173390068
 20
-1.6173261000847881
 30
0.0
 42
0.0032725040294696
  0
VERTEX
  5
D9
  8
0
 10
5.9023544633975842
 20
-1.540198619792462
 30
0.0
 42
0.041102864243304
  0
VERTEX
  5
DA
  8
0
 10
5.7035745995082019
 20
-1.4088512298482221
 30
0.0
 42
0.0032725040294718
  0
VERTEX
  5
DB
  8
0
 10
5.7215272532543358
 20
-1.3340730453269409
 30
0.0
 42
0.0411028642433038
  0
VERTEX
  5
DC
  8
0
 10
5.9582718760573199
 20
-1.3072858336968081
 30
0.0
 42
0.0032725040294696
  0
VERTEX
  5
DD
  8
0
 10
5.9748732593102121
 20
-1.2291824661862609
 30
0.0
 42
0.0411028642433038
  0
VERTEX
  5
DE
  8
0
 10
5.7694916250630346
 20
-1.1084184175335099
 30
0.0
 42
0.0032725040294739
  0
VERTEX
  5
DF
  8
0
 10
5.7835060875281119
 20
-1.0328031446143291
 30
0.0
 42
0.041102864243304
  0
VERTEX
  5
E0
  8
0
 10
6.0185243257177596
 20
-0.993662387706988
 30
0.0
 42
0.0032725040294696
  0
VERTEX
  5
E1
  8
0
 10
6.0310153429274189
 20
-0.9147972088796755
 30
0.0
 42
0.0411028642433035
  0
VERTEX
  5
E2
  8
0
 10
5.8195948751060174
 20
-0.804947507381563
 30
0.0
 42
0.0032725040294718
  0
VERTEX
  5
E3
  8
0
 10
5.8296327336225557
 20
-0.7287024022716019
 30
0.0
 42
0.0411028642433038
  0
VERTEX
  5
E4
  8
0
 10
6.0622804185439039
 20
-0.6773153821810939
 30
0.0
 42
0.0032725040294718
  0
VERTEX
  5
E5
  8
0
 10
6.0706268327004
 20
-0.5979045560103176
 30
0.0
 42
0.0411028642433038
  0
VERTEX
  5
E6
  8
0
 10
5.8537470201114106
 20
-0.4992702920630928
 30
0.0
 42
0.0032725040294696
  0
VERTEX
  5
E7
  8
0
 10
5.8597807616069426
 20
-0.4226043372957237
 30
0.0
 42
0.041102864243304
  0
VERTEX
  5
E8
  8
0
 10
6.0894202221267646
 20
-0.3591119022722501
 30
0.0
 42
0.0032725040294696
  0
VERTEX
  5
E9
  8
0
 10
6.093599156289045
 20
-0.2793730883127728
 30
0.0
 42
0.0411028642433038
  0
VERTEX
  5
EA
  8
0
 10
5.8718544514236477
 20
-0.1922246115779333
 30
0.0
 42
0.0032725040294696
  0
VERTEX
  5
EB
  8
0
 10
5.8738675378321297
 20
-0.1153479432061867
 30
0.0
 42
0.0411028642433038
  0
VERTEX
  5
EC
  8
0
 10
6.0998693481511861
 20
-0.0399241216008443
 30
0.0
 42
0.0032725040294696
  0
VERTEX
  5
ED
  8
0
 10
6.0998693481511861
 20
0.0399241216008466
 30
0.0
 42
0.041102864243304
  0
VERTEX
  5
EE
  8
0
 10
5.8738675378321306
 20
0.1153479432061923
 30
0.0
 42
0.0032725040294718
  0
VERTEX
  5
EF
  8
0
 10
5.8718544514236459
 20
0.1922246115779387
 30
0.0
 42
0.0411028642433038
  0
VERTEX
  5
F0
  8
0
 10
6.093599156289045
 20
0.2793730883127785
 30
0.0
 42
0.0032725040294696
  0
VERTEX
  5
F1
  8
0
 10
6.0894202221267646
 20
0.359111902272255
 30
0.0
 42
0.0411028642433036
  0
VERTEX
  5
F2
  8
0
 10
5.8597807616069426
 20
0.4226043372957277
 30
0.0
 42
0.0032725040294696
  0
VERTEX
  5
F3
  8
0
 10
5.8537470201114123
 20
0.4992702920630988
 30
0.0
 42
0.0411028642433038
  0
VERTEX
  5
F4
  8
0
 10
6.0706268327004
 20
0.5979045560103219
 30
0.0
 42
0.0032725040294696
  0
VERTEX
  5
F5
  8
0
 10
6.0622804185439039
 20
0.6773153821810959
 30
0.0
 42
0.0411028642433038
  0
VERTEX
  5
F6
  8
0
 10
5.8296327336225557
 20
0.7287024022716026
 30
0.0
 42
0.0032725040294718
  0
VERTEX
  5
F7
  8
0
 10
5.8195948751060174
 20
0.8049475073815663
 30
0.0
 42
0.041102864243304
  0
VERTEX
  5
F8
  8
0
 10
6.0310153429274189
 20
0.9147972088796768
 30
0.0
 42
0.0032725040294696
  0
VERTEX
  5
F9
  8
0
 10
6.0185243257177596
 20
0.9936623877069915
 30
0.0
 42
0.0411028642433038
  0
VERTEX
  5
FA
  8
0
 10
5.7835060875281128
 20
1.032803144614332
 30
0.0
 42
0.0032725040294696
  0
VERTEX
  5
FB
  8
0
 10
5.7694916250630346
 20
1.1084184175335141
 30
0.0
 42
0.0411028642433038
  0
VERTEX
  5
FC
  8
0
 10
5.9748732593102121
 20
1.229182466186264
 30
0.0
 42
0.0032725040294696
  0
VERTEX
  5
FD
  8
0
 10
5.958271876057319
 20
1.3072858336968101
 30
0.0
 42
0.0411028642433038
  0
VERTEX
  5
FE
  8
0
 10
5.7215272532543349
 20
1.3340730453269429
 30
0.0
 42
0.0032725040294696
  0
VERTEX
  5
FF
  8
0
 10
5.703574599508201
 20
1.408851229848225
 30
0.0
 42
0.0411028642433041
  0
VERTEX
  5
100
  8
0
 10
5.9023544633975824
 20
1.540198619792464
 30
0.0
 42
0.0032725040294696
  0
VERTEX
  5
101
  8
0
 10
5.8816882173390059
 20
1.6173261000847889
 30
0.0
 42
0.0411028642433041
  0
VERTEX
  5
102
  8
0
 10
5.6438661104778696
 20
1.631686344552592
 30
0.0
 42
0.0032725040294718
  0
VERTEX
  5
103
  8
0
 10
5.6220244724267259
 20
1.705422478869969
 30
0.0
 42
0.041102864243304
  0
VERTEX
  5
104
  8
0
 10
5.813657724168408
 20
1.846993196039705
 30
0.0
 42
0.0032725040294696
  0
VERTEX
  5
105
  8
0
 10
5.788983260048103
 20
1.922933388051395
 30
0.0
 42
0.0411028642433038
  0
VERTEX
  5
106
  8
0
 10
5.5507355229929081
 20
1.9248273049249489
 30
0.0
 42
0.0032725040294718
  0
VERTEX
  5
107
  8
0
 10
5.5250647670484589
 20
1.997319283419593
 30
0.0
 42
0.0411028642433036
  0
VERTEX
  5
108
  8
0
 10
5.7090261532196838
 20
2.1487252923195239
 30
0.0
 42
0.0032725040294696
  0
VERTEX
  5
109
  8
0
 10
5.6804111020286996
 20
2.2232700492628119
 30
0.0
 42
0.0411028642433038
  0
VERTEX
  5
10A
  8
0
 10
5.4423907552663193
 20
2.2126924474476128
 30
0.0
 42
0.0032725040294739
  0
VERTEX
  5
10B
  8
0
 10
5.4129612431862544
 20
2.283741574645326
 30
0.0
 42
0.041102864243304
  0
VERTEX
  5
10C
  8
0
 10
5.5887465384145258
 20
2.4445678819291592
 30
0.0
 42
0.0032725040294696
  0
VERTEX
  5
10D
  8
0
 10
5.5562693320191698
 20
2.5175128818068089
 30
0.0
 42
0.041102864243304
  0
VERTEX
  5
10E
  8
0
 10
5.3191287727754863
 20
2.4944927537741899
 30
0.0
 42
0.0032725040294739
  0
VERTEX
  5
10F
  8
0
 10
5.2860211688067968
 20
2.5639042889558881
 30
0.0
 42
0.041102864243304
  0
VERTEX
  5
110
  8
0
 10
5.4531485578165828
 20
2.7337100808942592
 30
0.0
 42
0.0032725040294675
  0
VERTEX
  5
111
  8
0
 10
5.4168982139821216
 20
2.804855386531945
 30
0.0
 42
0.041102864243304
  0
VERTEX
  5
112
  8
0
 10
5.181287428046585
 20
2.769455828852736
 30
0.0
 42
0.0032725040294696
  0
VERTEX
  5
113
  8
0
 10
5.1445924778304732
 20
2.8370395198252218
 30
0.0
 42
0.0411028642433036
  0
VERTEX
  5
114
  8
0
 10
5.3026038760653726
 20
3.015359370545482
 30
0.0
 42
0.0032725040294696
  0
VERTEX
  5
115
  8
0
 10
5.2626797544645276
 20
3.0845099776057059
 30
0.0
 42
0.041102864243304
  0
VERTEX
  5
116
  8
0
 10
5.029244534624282
 20
3.0368280180069118
 30
0.0
 42
0.0032725040294718
  0
VERTEX
  5
117
  8
0
 10
4.9890628164686488
 20
3.1023986225709139
 30
0.0
 42
0.0411028642433038
  0
VERTEX
  5
118
  8
0
 10
5.1375251256693462
 20
3.2887437697571009
 30
0.0
 42
0.0032725040294675
  0
VERTEX
  5
119
  8
0
 10
5.0940366555443299
 20
3.3557101412325099
 30
0.0
 42
0.041102864243304
  0
VERTEX
  5
11A
  8
0
 10
4.8634168315110751
 20
3.2958764726510581
 30
0.0
 42
0.0032725040294696
  0
VERTEX
  5
11B
  8
0
 10
4.8198584807123899
 20
3.359254266337226
 30
0.0
 42
0.0411028642433033
  0
VERTEX
  5
11C
  8
0
 10
4.9583647760088496
 20
3.5531139508935921
 30
0.0
 42
0.0032725040294696
  0
VERTEX
  5
11D
  8
0
 10
4.9114311562334336
 20
3.6177125366147451
 30
0.0
 42
0.0411028642433036
  0
VERTEX
  5
11E
  8
0
 10
4.6842588409146551
 20
3.5458911589772328
 30
0.0
 42
0.0032725040294696
  0
VERTEX
  5
11F
  8
0
 10
4.6374432478847538
 20
3.606902427658405
 30
0.0
 42
0.0411028642433036
  0
VERTEX
  5
120
  8
0
 10
4.7656138931490251
 20
3.8077452936646079
 30
0.0
 42
0.0032725040294696
  0
VERTEX
  5
121
  8
0
 10
4.7153637655126941
 20
3.8697990333982371
 30
0.0
 42
0.0411028642433036
  0
VERTEX
  5
122
  8
0
 10
4.4922616224341283
 20
3.7861868041085232
 30
0.0
 42
0.0032725040294696
  0
VERTEX
  5
123
  8
0
 10
4.4423171054593942
 20
3.8446643201380888
 30
0.0
 42
0.0411028642433033
  0
VERTEX
  5
124
  8
0
 10
4.5598007938618368
 20
4.0519398712588179
 30
0.0
 42
0.0032725040294675
  0
VERTEX
  5
125
  8
0
 10
4.5063718904716001
 20
4.1112786800176151
 30
0.0
 42
0.0411028642433038
  0
VERTEX
  5
126
  8
0
 10
4.2879514270997836
 20
4.0161047743843694
 30
0.0
 42
0.0032725040294718
  0
VERTEX
  5
127
  8
0
 10
4.2350148806296462
 20
4.0718882549556126
 30
0.0
 42
0.0411028642433038
  0
VERTEX
  5
128
  8
0
 10
4.3414895975465431
 20
4.2850283633127946
 30
0.0
 42
0.0032725040294696
  0
VERTEX
  5
129
  8
0
 10
4.2850283633127946
 20
4.3414895975465431
 30
0.0
 42
0.041102864243304
  0
VERTEX
  5
12A
  8
0
 10
4.0718882549556099
 20
4.235014880629647
 30
0.0
 42
0.0032725040294718
  0
VERTEX
  5
12B
  8
0
 10
4.0161047743843676
 20
4.2879514270997872
 30
0.0
 42
0.0411028642433038
  0
VERTEX
  5
12C
  8
0
 10
4.1112786800176151
 20
4.506371890471601
 30
0.0
 42
0.003272504029476
  0
VERTEX
  5
12D
  8
0
 10
4.051939871258817
 20
4.5598007938618386
 30
0.0
 42
0.0411028642433041
  0
VERTEX
  5
12E
  8
0
 10
3.8446643201380861
 20
4.442317105459396
 30
0.0
 42
0.0032725040294696
  0
VERTEX
  5
12F
  8
0
 10
3.78618680410852
 20
4.4922616224341292
 30
0.0
 42
0.041102864243304
  0
VERTEX
  5
130
  8
0
 10
3.8697990333982348
 20
4.7153637655126941
 30
0.0
 42
0.0032725040294718
  0
VERTEX
  5
131
  8
0
 10
3.8077452936646061
 20
4.7656138931490251
 30
0.0
 42
0.041102864243304
  0
VERTEX
  5
132
  8
0
 10
3.6069024276584032
 20
4.6374432478847556
 30
0.0
 42
0.0032725040294696
  0
VERTEX
  5
133
  8
0
 10
3.5458911589772288
 20
4.6842588409146559
 30
0.0
 42
0.0411028642433038
  0
VERTEX
  5
134
  8
0
 10
3.6177125366147438
 20
4.9114311562334336
 30
0.0
 42
0.0032725040294696
  0
VERTEX
  5
135
  8
0
 10
3.5531139508935912
 20
4.9583647760088514
 30
0.0
 42
0.0411028642433036
  0
VERTEX
  5
136
  8
0
 10
3.359254266337222
 20
4.8198584807123934
 30
0.0
 42
0.0032725040294718
  0
VERTEX
  5
137
  8
0
 10
3.295876472651055
 20
4.863416831511076
 30
0.0
 42
0.0411028642433038
  0
VERTEX
  5
138
  8
0
 10
3.3557101412325081
 20
5.0940366555443317
 30
0.0
 42
0.0032725040294696
  0
VERTEX
  5
139
  8
0
 10
3.2887437697571
 20
5.137525125669347
 30
0.0
 42
0.041102864243304
  0
VERTEX
  5
13A
  8
0
 10
3.1023986225709121
 20
4.9890628164686497
 30
0.0
 42
0.0032725040294718
  0
VERTEX
  5
13B
  8
0
 10
3.0368280180069092
 20
5.029244534624282
 30
0.0
 42
0.041102864243304
  0
VERTEX
  5
13C
  8
0
 10
3.0845099776057041
 20
5.2626797544645294
 30
0.0
 42
0.0032725040294696
  0
VERTEX
  5
13D
  8
0
 10
3.0153593705454802
 20
5.3026038760653762
 30
0.0
 42
0.0411028642433038
  0
VERTEX
  5
13E
  8
0
 10
2.8370395198252192
 20
5.1445924778304741
 30
0.0
 42
0.0032725040294696
  0
VERTEX
  5
13F
  8
0
 10
2.7694558288527329
 20
5.1812874280465868
 30
0.0
 42
0.041102864243304
  0
VERTEX
  5
140
  8
0
 10
2.8048553865319441
 20
5.4168982139821251
 30
0.0
 42
0.0032725040294696
  0
VERTEX
  5
141
  8
0
 10
2.733710080894256
 20
5.4531485578165837
 30
0.0
 42
0.041102864243304
  0
VERTEX
  5
142
  8
0
 10
2.5639042889558841
 20
5.2860211688068013
 30
0.0
 42
0.0032725040294718
  0
VERTEX
  5
143
  8
0
 10
2.4944927537741859
 20
5.3191287727754881
 30
0.0
 42
0.0411028642433038
  0
VERTEX
  5
144
  8
0
 10
2.5175128818068062
 20
5.5562693320191707
 30
0.0
 42
0.0032725040294675
  0
VERTEX
  5
145
  8
0
 10
2.4445678819291592
 20
5.5887465384145276
 30
0.0
 42
0.0411028642433036
  0
VERTEX
  5
146
  8
0
 10
2.2837415746453251
 20
5.4129612431862562
 30
0.0
 42
0.0032725040294696
  0
VERTEX
  5
147
  8
0
 10
2.2126924474476111
 20
5.4423907552663211
 30
0.0
 42
0.041102864243304
  0
VERTEX
  5
148
  8
0
 10
2.223270049262811
 20
5.6804111020287014
 30
0.0
 42
0.0032725040294696
  0
VERTEX
  5
149
  8
0
 10
2.148725292319523
 20
5.7090261532196847
 30
0.0
 42
0.0411028642433033
  0
VERTEX
  5
14A
  8
0
 10
1.997319283419591
 20
5.5250647670484589
 30
0.0
 42
0.0032725040294718
  0
VERTEX
  5
14B
  8
0
 10
1.924827304924946
 20
5.550735522992909
 30
0.0
 42
0.041102864243304
  0
VERTEX
  5
14C
  8
0
 10
1.9229333880513939
 20
5.788983260048103
 30
0.0
 42
0.0032725040294718
  0
VERTEX
  5
14D
  8
0
 10
1.8469931960397039
 20
5.8136577241684089
 30
0.0
 42
0.041102864243304
  0
VERTEX
  5
14E
  8
0
 10
1.705422478869967
 20
5.6220244724267268
 30
0.0
 42
0.0032725040294718
  0
VERTEX
  5
14F
  8
0
 10
1.6316863445525891
 20
5.6438661104778696
 30
0.0
 42
0.0411028642433038
  0
VERTEX
  5
150
  8
0
 10
1.6173261000847881
 20
5.8816882173390068
 30
0.0
 42
0.0032725040294696
  0
VERTEX
  5
151
  8
0
 10
1.540198619792462
 20
5.9023544633975833
 30
0.0
 42
0.041102864243304
  0
VERTEX
  5
152
  8
0
 10
1.4088512298482221
 20
5.7035745995082019
 30
0.0
 42
0.0032725040294739
  0
VERTEX
  5
153
  8
0
 10
1.33407304532694
 20
5.7215272532543358
 30
0.0
 42
0.0411028642433036
  0
VERTEX
  5
154
  8
0
 10
1.3072858336968081
 20
5.9582718760573199
 30
0.0
 42
0.0032725040294696
  0
VERTEX
  5
155
  8
0
 10
1.2291824661862629
 20
5.9748732593102121
 30
0.0
 42
0.0411028642433038
  0
VERTEX
  5
156
  8
0
 10
1.1084184175335119
 20
5.7694916250630346
 30
0.0
 42
0.0032725040294718
  0
VERTEX
  5
157
  8
0
 10
1.0328031446143291
 20
5.7835060875281137
 30
0.0
 42
0.041102864243304
  0
VERTEX
  5
158
  8
0
 10
0.99366238770699
 20
6.0185243257177596
 30
0.0
 42
0.0032725040294696
  0
VERTEX
  5
159
  8
0
 10
0.9147972088796743
 20
6.0310153429274189
 30
0.0
 42
0.0411028642433038
  0
VERTEX
  5
15A
  8
0
 10
0.8049475073815624
 20
5.8195948751060174
 30
0.0
 42
0.0032725040294718
  0
VERTEX
  5
15B
  8
0
 10
0.7287024022715993
 20
5.8296327336225549
 30
0.0
 42
0.041102864243304
  0
VERTEX
  5
15C
  8
0
 10
0.6773153821810936
 20
6.0622804185439048
 30
0.0
 42
0.0032725040294718
  0
VERTEX
  5
15D
  8
0
 10
0.5979045560103193
 20
6.0706268327004
 30
0.0
 42
0.041102864243304
  0
VERTEX
  5
15E
  8
0
 10
0.4992702920630952
 20
5.8537470201114123
 30
0.0
 42
0.0032725040294696
  0
VERTEX
  5
15F
  8
0
 10
0.4226043372957241
 20
5.8597807616069426
 30
0.0
 42
0.0411028642433038
  0
VERTEX
  5
160
  8
0
 10
0.3591119022722524
 20
6.0894202221267673
 30
0.0
 42
0.0032725040294718
  0
VERTEX
  5
161
  8
0
 10
0.2793730883127758
 20
6.093599156289045
 30
0.0
 42
0.0411028642433036
  0
VERTEX
  5
162
  8
0
 10
0.1922246115779354
 20
5.8718544514236486
 30
0.0
 42
0.0032725040294696
  0
VERTEX
  5
163
  8
0
 10
0.1153479432061884
 20
5.8738675378321306
 30
0.0
 42
0.0411028642433038
  0
VERTEX
  5
164
  8
0
 10
0.0399241216008457
 20
6.0998693481511861
 30
0.0
 42
0.0032725040294696
  0
VERTEX
  5
165
  8
0
 10
-0.0399241216008462
 20
6.0998693481511861
 30
0.0
 42
0.0411028642433038
  0
VERTEX
  5
166
  8
0
 10
-0.1153479432061912
 20
5.8738675378321306
 30
0.0
 42
0.0032725040294718
  0
VERTEX
  5
167
  8
0
 10
-0.1922246115779368
 20
5.8718544514236468
 30
0.0
 42
0.0411028642433038
  0
VERTEX
  5
168
  8
0
 10
-0.2793730883127771
 20
6.093599156289045
 30
0.0
 42
0.0032725040294696
  0
VERTEX
  5
169
  8
0
 10
-0.359111902272256
 20
6.0894202221267646
 30
0.0
 42
0.0411028642433038
  0
VERTEX
  5
16A
  8
0
 10
-0.4226043372957288
 20
5.8597807616069426
 30
0.0
 42
0.0032725040294718
  0
VERTEX
  5
16B
  8
0
 10
-0.4992702920630997
 20
5.8537470201114097
 30
0.0
 42
0.041102864243304
  0
VERTEX
  5
16C
  8
0
 10
-0.5979045560103239
 20
6.0706268327004
 30
0.0
 42
0.0032725040294696
  0
VERTEX
  5
16D
  8
0
 10
-0.6773153821810986
 20
6.0622804185439039
 30
0.0
 42
0.0411028642433038
  0
VERTEX
  5
16E
  8
0
 10
-0.728702402271606
 20
5.8296327336225549
 30
0.0
 42
0.0032725040294696
  0
VERTEX
  5
16F
  8
0
 10
-0.8049475073815688
 20
5.8195948751060138
 30
0.0
 42
0.0411028642433038
  0
VERTEX
  5
170
  8
0
 10
-0.91479720887968
 20
6.0310153429274189
 30
0.0
 42
0.0032725040294696
  0
VERTEX
  5
171
  8
0
 10
-0.9936623877069923
 20
6.0185243257177596
 30
0.0
 42
0.0411028642433038
  0
VERTEX
  5
172
  8
0
 10
-1.0328031446143331
 20
5.7835060875281137
 30
0.0
 42
0.0032725040294718
  0
VERTEX
  5
173
  8
0
 10
-1.108418417533515
 20
5.7694916250630337
 30
0.0
 42
0.041102864243304
  0
VERTEX
  5
174
  8
0
 10
-1.229182466186266
 20
5.9748732593102121
 30
0.0
 42
0.0032725040294696
  0
VERTEX
  5
175
  8
0
 10
-1.3072858336968121
 20
5.958271876057319
 30
0.0
 42
0.041102864243304
  0
VERTEX
  5
176
  8
0
 10
-1.3340730453269449
 20
5.721527253254334
 30
0.0
 42
0.0032725040294718
  0
VERTEX
  5
177
  8
0
 10
-1.408851229848227
 20
5.7035745995082019
 30
0.0
 42
0.0411028642433038
  0
VERTEX
  5
178
  8
0
 10
-1.540198619792466
 20
5.9023544633975824
 30
0.0
 42
0.0032725040294675
  0
VERTEX
  5
179
  8
0
 10
-1.6173261000847921
 20
5.8816882173390059
 30
0.0
 42
0.0411028642433041
  0
VERTEX
  5
17A
  8
0
 10
-1.6316863445525951
 20
5.6438661104778678
 30
0.0
 42
0.0032725040294718
  0
VERTEX
  5
17B
  8
0
 10
-1.705422478869973
 20
5.622024472426725
 30
0.0
 42
0.0411028642433038
  0
VERTEX
  5
17C
  8
0
 10
-1.8469931960397099
 20
5.813657724168408
 30
0.0
 42
0.0032725040294696
  0
VERTEX
  5
17D
  8
0
 10
-1.922933388051395
 20
5.788983260048103
 30
0.0
 42
0.0411028642433038
  0
VERTEX
  5
17E
  8
0
 10
-1.92482730492495
 20
5.5507355229929081
 30
0.0
 42
0.0032725040294718
  0
VERTEX
  5
17F
  8
0
 10
-1.9973192834195941
 20
5.5250647670484581
 30
0.0
 42
0.0411028642433038
  0
VERTEX
  5
180
  8
0
 10
-2.1487252923195248
 20
5.7090261532196838
 30
0.0
 42
0.0032725040294696
  0
VERTEX
  5
181
  8
0
 10
-2.223270049262815
 20
5.6804111020286987
 30
0.0
 42
0.0411028642433038
  0
VERTEX
  5
182
  8
0
 10
-2.2126924474476151
 20
5.4423907552663184
 30
0.0
 42
0.0032725040294718
  0
VERTEX
  5
183
  8
0
 10
-2.2837415746453291
 20
5.4129612431862544
 30
0.0
 42
0.0411028642433036
  0
VERTEX
  5
184
  8
0
 10
-2.4445678819291632
 20
5.5887465384145258
 30
0.0
 42
0.0032725040294696
  0
VERTEX
  5
185
  8
0
 10
-2.5175128818068111
 20
5.5562693320191681
 30
0.0
 42
0.041102864243304
  0
VERTEX
  5
186
  8
0
 10
-2.494492753774193
 20
5.3191287727754846
 30
0.0
 42
0.0032725040294696
  0
VERTEX
  5
187
  8
0
 10
-2.5639042889558898
 20
5.2860211688067968
 30
0.0
 42
0.0411028642433038
  0
VERTEX
  5
188
  8
0
 10
-2.7337100808942609
 20
5.4531485578165819
 30
0.0
 42
0.0032725040294696
  0
VERTEX
  5
189
  8
0
 10
-2.8048553865319441
 20
5.4168982139821233
 30
0.0
 42
0.041102864243304
  0
VERTEX
  5
18A
  8
0
 10
-2.7694558288527369
 20
5.181287428046585
 30
0.0
 42
0.0032725040294718
  0
VERTEX
  5
18B
  8
0
 10
-2.8370395198252218
 20
5.1445924778304732
 30
0.0
 42
0.0411028642433038
  0
VERTEX
  5
18C
  8
0
 10
-3.0153593705454829
 20
5.3026038760653744
 30
0.0
 42
0.0032725040294675
  0
VERTEX
  5
18D
  8
0
 10
-3.0845099776057059
 20
5.2626797544645276
 30
0.0
 42
0.041102864243304
  0
VERTEX
  5
18E
  8
0
 10
-3.036828018006914
 20
5.0292445346242811
 30
0.0
 42
0.0032725040294718
  0
VERTEX
  5
18F
  8
0
 10
-3.1023986225709161
 20
4.9890628164686479
 30
0.0
 42
0.0411028642433038
  0
VERTEX
  5
190
  8
0
 10
-3.2887437697571031
 20
5.1375251256693444
 30
0.0
 42
0.0032725040294696
  0
VERTEX
  5
191
  8
0
 10
-3.355710141232513
 20
5.0940366555443282
 30
0.0
 42
0.0411028642433038
  0
VERTEX
  5
192
  8
0
 10
-3.2958764726510621
 20
4.8634168315110724
 30
0.0
 42
0.0032725040294696
  0
VERTEX
  5
193
  8
0
 10
-3.3592542663372278
 20
4.819858480712389
 30
0.0
 42
0.0411028642433038
  0
VERTEX
  5
194
  8
0
 10
-3.5531139508935969
 20
4.9583647760088478
 30
0.0
 42
0.0032725040294696
  0
VERTEX
  5
195
  8
0
 10
-3.6177125366147451
 20
4.9114311562334336
 30
0.0
 42
0.0411028642433036
  0
VERTEX
  5
196
  8
0
 10
-3.5458911589772328
 20
4.6842588409146551
 30
0.0
 42
0.0032725040294696
  0
VERTEX
  5
197
  8
0
 10
-3.606902427658405
 20
4.6374432478847538
 30
0.0
 42
0.0411028642433036
  0
VERTEX
  5
198
  8
0
 10
-3.8077452936646088
 20
4.7656138931490242
 30
0.0
 42
0.0032725040294696
  0
VERTEX
  5
199
  8
0
 10
-3.8697990333982371
 20
4.7153637655126932
 30
0.0
 42
0.041102864243304
  0
VERTEX
  5
19A
  8
0
 10
-3.786186804108524
 20
4.4922616224341256
 30
0.0
 42
0.0032725040294696
  0
VERTEX
  5
19B
  8
0
 10
-3.8446643201380888
 20
4.4423171054593933
 30
0.0
 42
0.0411028642433038
  0
VERTEX
  5
19C
  8
0
 10
-4.0519398712588188
 20
4.5598007938618368
 30
0.0
 42
0.0032725040294696
  0
VERTEX
  5
19D
  8
0
 10
-4.1112786800176178
 20
4.5063718904715993
 30
0.0
 42
0.041102864243304
  0
VERTEX
  5
19E
  8
0
 10
-4.0161047743843721
 20
4.2879514270997818
 30
0.0
 42
0.0032725040294718
  0
VERTEX
  5
19F
  8
0
 10
-4.0718882549556161
 20
4.2350148806296444
 30
0.0
 42
0.0411028642433036
  0
VERTEX
  5
1A0
  8
0
 10
-4.285028363312799
 20
4.3414895975465413
 30
0.0
 42
0.0032725040294675
  0
VERTEX
  5
1A1
  8
0
 10
-4.3414895975465431
 20
4.2850283633127937
 30
0.0
 42
0.041102864243304
  0
VERTEX
  5
1A2
  8
0
 10
-4.2350148806296479
 20
4.071888254955609
 30
0.0
 42
0.0032725040294718
  0
VERTEX
  5
1A3
  8
0
 10
-4.2879514270997872
 20
4.0161047743843659
 30
0.0
 42
0.0411028642433038
  0
VERTEX
  5
1A4
  8
0
 10
-4.5063718904716019
 20
4.1112786800176151
 30
0.0
 42
0.0032725040294718
  0
VERTEX
  5
1A5
  8
0
 10
-4.5598007938618403
 20
4.0519398712588162
 30
0.0
 42
0.0411028642433041
  0
VERTEX
  5
1A6
  8
0
 10
-4.4423171054593977
 20
3.8446643201380839
 30
0.0
 42
0.0032725040294718
  0
VERTEX
  5
1A7
  8
0
 10
-4.4922616224341301
 20
3.7861868041085192
 30
0.0
 42
0.041102864243304
  0
VERTEX
  5
1A8
  8
0
 10
-4.7153637655126968
 20
3.8697990333982331
 30
0.0
 42
0.0032725040294696
  0
VERTEX
  5
1A9
  8
0
 10
-4.7656138931490268
 20
3.8077452936646039
 30
0.0
 42
0.041102864243304
  0
VERTEX
  5
1AA
  8
0
 10
-4.6374432478847591
 20
3.6069024276583992
 30
0.0
 42
0.0032725040294696
  0
VERTEX
  5
1AB
  8
0
 10
-4.6842588409146577
 20
3.5458911589772271
 30
0.0
 42
0.041102864243304
  0
VERTEX
  5
1AC
  8
0
 10
-4.9114311562334381
 20
3.6177125366147398
 30
0.0
 42
0.0032725040294696
  0
VERTEX
  5
1AD
  8
0
 10
-4.9583647760088514
 20
3.5531139508935921
 30
0.0
 42
0.0411028642433036
  0
VERTEX
  5
1AE
  8
0
 10
-4.8198584807123934
 20
3.359254266337222
 30
0.0
 42
0.0032725040294718
  0
VERTEX
  5
1AF
  8
0
 10
-4.8634168315110751
 20
3.2958764726510581
 30
0.0
 42
0.0411028642433041
  0
VERTEX
  5
1B0
  8
0
 10
-5.0940366555443326
 20
3.3557101412325081
 30
0.0
 42
0.0032725040294696
  0
VERTEX
  5
1B1
  8
0
 10
-5.137525125669347
 20
3.2887437697570991
 30
0.0
 42
0.0411028642433038
  0
VERTEX
  5
1B2
  8
0
 10
-4.9890628164686524
 20
3.1023986225709099
 30
0.0
 42
0.0032725040294718
  0
VERTEX
  5
1B3
  8
0
 10
-5.0292445346242847
 20
3.0368280180069069
 30
0.0
 42
0.0411028642433038
  0
VERTEX
  5
1B4
  8
0
 10
-5.2626797544645303
 20
3.0845099776057019
 30
0.0
 42
0.0032725040294675
  0
VERTEX
  5
1B5
  8
0
 10
-5.3026038760653771
 20
3.015359370545478
 30
0.0
 42
0.041102864243304
  0
VERTEX
  5
1B6
  8
0
 10
-5.144592477830475
 20
2.8370395198252161
 30
0.0
 42
0.0032725040294696
  0
VERTEX
  5
1B7
  8
0
 10
-5.1812874280465886
 20
2.7694558288527298
 30
0.0
 42
0.041102864243304
  0
VERTEX
  5
1B8
  8
0
 10
-5.416898213982126
 20
2.8048553865319401
 30
0.0
 42
0.0032725040294696
  0
VERTEX
  5
1B9
  8
0
 10
-5.4531485578165837
 20
2.7337100808942569
 30
0.0
 42
0.0411028642433038
  0
VERTEX
  5
1BA
  8
0
 10
-5.2860211688068013
 20
2.5639042889558841
 30
0.0
 42
0.0032725040294718
  0
VERTEX
  5
1BB
  8
0
 10
-5.3191287727754881
 20
2.4944927537741859
 30
0.0
 42
0.0411028642433036
  0
VERTEX
  5
1BC
  8
0
 10
-5.5562693320191707
 20
2.5175128818068062
 30
0.0
 42
0.0032725040294675
  0
VERTEX
  5
1BD
  8
0
 10
-5.5887465384145294
 20
2.4445678819291552
 30
0.0
 42
0.0411028642433036
  0
VERTEX
  5
1BE
  8
0
 10
-5.412961243186257
 20
2.2837415746453211
 30
0.0
 42
0.0032725040294718
  0
VERTEX
  5
1BF
  8
0
 10
-5.4423907552663211
 20
2.2126924474476088
 30
0.0
 42
0.041102864243304
  0
VERTEX
  5
1C0
  8
0
 10
-5.6804111020287023
 20
2.2232700492628079
 30
0.0
 42
0.0032725040294718
  0
VERTEX
  5
1C1
  8
0
 10
-5.7090261532196864
 20
2.1487252923195208
 30
0.0
 42
0.0411028642433038
  0
VERTEX
  5
1C2
  8
0
 10
-5.5250647670484607
 20
1.997319283419587
 30
0.0
 42
0.0032725040294718
  0
VERTEX
  5
1C3
  8
0
 10
-5.5507355229929107
 20
1.9248273049249429
 30
0.0
 42
0.0411028642433038
  0
VERTEX
  5
1C4
  8
0
 10
-5.7889832600481048
 20
1.922933388051389
 30
0.0
 42
0.0032725040294718
  0
VERTEX
  5
1C5
  8
0
 10
-5.8136577241684098
 20
1.8469931960397019
 30
0.0
 42
0.0411028642433038
  0
VERTEX
  5
1C6
  8
0
 10
-5.6220244724267276
 20
1.7054224788699639
 30
0.0
 42
0.0032725040294718
  0
VERTEX
  5
1C7
  8
0
 10
-5.6438661104778696
 20
1.631686344552588
 30
0.0
 42
0.0411028642433035
  0
VERTEX
  5
1C8
  8
0
 10
-5.8816882173390068
 20
1.6173261000847861
 30
0.0
 42
0.0032725040294696
  0
VERTEX
  5
1C9
  8
0
 10
-5.9023544633975851
 20
1.5401986197924591
 30
0.0
 42
0.0411028642433038
  0
VERTEX
  5
1CA
  8
0
 10
-5.7035745995082037
 20
1.408851229848219
 30
0.0
 42
0.0032725040294718
  0
VERTEX
  5
1CB
  8
0
 10
-5.7215272532543358
 20
1.334073045326938
 30
0.0
 42
0.0411028642433036
  0
VERTEX
  5
1CC
  8
0
 10
-5.9582718760573208
 20
1.307285833696805
 30
0.0
 42
0.0032725040294696
  0
VERTEX
  5
1CD
  8
0
 10
-5.9748732593102121
 20
1.2291824661862609
 30
0.0
 42
0.0411028642433038
  0
VERTEX
  5
1CE
  8
0
 10
-5.7694916250630373
 20
1.1084184175335079
 30
0.0
 42
0.0032725040294696
  0
VERTEX
  5
1CF
  8
0
 10
-5.7835060875281137
 20
1.032803144614326
 30
0.0
 42
0.0411028642433041
  0
VERTEX
  5
1D0
  8
0
 10
-6.0185243257177614
 20
0.9936623877069857
 30
0.0
 42
0.0032725040294696
  0
VERTEX
  5
1D1
  8
0
 10
-6.0310153429274189
 20
0.914797208879672
 30
0.0
 42
0.0411028642433036
  0
VERTEX
  5
1D2
  8
0
 10
-5.8195948751060174
 20
0.8049475073815614
 30
0.0
 42
0.0032725040294718
  0
VERTEX
  5
1D3
  8
0
 10
-5.8296327336225557
 20
0.7287024022715986
 30
0.0
 42
0.0411028642433035
  0
VERTEX
  5
1D4
  8
0
 10
-6.0622804185439048
 20
0.6773153821810918
 30
0.0
 42
0.0032725040294718
  0
VERTEX
  5
1D5
  8
0
 10
-6.0706268327004
 20
0.5979045560103156
 30
0.0
 42
0.0411028642433036
  0
VERTEX
  5
1D6
  8
0
 10
-5.8537470201114132
 20
0.4992702920630919
 30
0.0
 42
0.0032725040294718
  0
VERTEX
  5
1D7
  8
0
 10
-5.8597807616069444
 20
0.4226043372957219
 30
0.0
 42
0.0411028642433038
  0
VERTEX
  5
1D8
  8
0
 10
-6.0894202221267664
 20
0.3591119022722487
 30
0.0
 42
0.0032725040294696
  0
VERTEX
  5
1D9
  8
0
 10
-6.093599156289045
 20
0.2793730883127736
 30
0.0
 42
0.041102864243304
  0
VERTEX
  5
1DA
  8
0
 10
-5.8718544514236477
 20
0.1922246115779309
 30
0.0
 42
0.0032725040294718
  0
VERTEX
  5
1DB
  8
0
 10
-5.8738675378321306
 20
0.1153479432061848
 30
0.0
 42
0.0411028642433038
  0
VERTEX
  5
1DC
  8
0
 10
-6.0998693481511861
 20
0.0399241216008411
 30
0.0
 42
0.0032725040294696
  0
VERTEX
  5
1DD
  8
0
 10
-6.0998693481511861
 20
-0.0399241216008485
 30
0.0
 42
0.0411028642433038
  0
VERTEX
  5
1DE
  8
0
 10
-5.8738675378321306
 20
-0.1153479432061923
 30
0.0
 42
0.0032725040294718
  0
VERTEX
  5
1DF
  8
0
 10
-5.8718544514236459
 20
-0.1922246115779378
 30
0.0
 42
0.0411028642433038
  0
VERTEX
  5
1E0
  8
0
 10
-6.093599156289045
 20
-0.2793730883127783
 30
0.0
 42
0.0032725040294696
  0
VERTEX
  5
1E1
  8
0
 10
-6.0894202221267664
 20
-0.3591119022722542
 30
0.0
 42
0.0411028642433036
  0
VERTEX
  5
1E2
  8
0
 10
-5.8597807616069426
 20
-0.4226043372957282
 30
0.0
 42
0.0032725040294696
  0
VERTEX
  5
1E3
  8
0
 10
-5.8537470201114123
 20
-0.4992702920630995
 30
0.0
 42
0.0411028642433038
  0
VERTEX
  5
1E4
  8
0
 10
-6.0706268327004
 20
-0.5979045560103222
 30
0.0
 42
0.0032725040294696
  0
VERTEX
  5
1E5
  8
0
 10
-6.0622804185439039
 20
-0.6773153821810968
 30
0.0
 42
0.0411028642433038
  0
VERTEX
  5
1E6
  8
0
 10
-5.8296327336225549
 20
-0.7287024022716055
 30
0.0
 42
0.0032725040294718
  0
VERTEX
  5
1E7
  8
0
 10
-5.8195948751060138
 20
-0.8049475073815685
 30
0.0
 42
0.0411028642433038
  0
VERTEX
  5
1E8
  8
0
 10
-6.031015342927418
 20
-0.9147972088796796
 30
0.0
 42
0.0032725040294696
  0
VERTEX
  5
1E9
  8
0
 10
-6.0185243257177596
 20
-0.9936623877069905
 30
0.0
 42
0.041102864243304
  0
VERTEX
  5
1EA
  8
0
 10
-5.7835060875281137
 20
-1.0328031446143331
 30
0.0
 42
0.0032725040294696
  0
VERTEX
  5
1EB
  8
0
 10
-5.7694916250630346
 20
-1.1084184175335141
 30
0.0
 42
0.041102864243304
  0
VERTEX
  5
1EC
  8
0
 10
-5.9748732593102121
 20
-1.2291824661862649
 30
0.0
 42
0.0032725040294696
  0
VERTEX
  5
1ED
  8
0
 10
-5.958271876057319
 20
-1.3072858336968101
 30
0.0
 42
0.0411028642433038
  0
VERTEX
  5
1EE
  8
0
 10
-5.7215272532543349
 20
-1.3340730453269449
 30
0.0
 42
0.0032725040294718
  0
VERTEX
  5
1EF
  8
0
 10
-5.7035745995082019
 20
-1.4088512298482261
 30
0.0
 42
0.041102864243304
  0
VERTEX
  5
1F0
  8
0
 10
-5.9023544633975824
 20
-1.540198619792466
 30
0.0
 42
0.0032725040294696
  0
VERTEX
  5
1F1
  8
0
 10
-5.8816882173390059
 20
-1.6173261000847909
 30
0.0
 42
0.0411028642433041
  0
VERTEX
  5
1F2
  8
0
 10
-5.6438661104778687
 20
-1.6316863445525951
 30
0.0
 42
0.002920193426197
  0
VERTEX
  5
1F3
  8
0
 10
-5.6244222197926987
 20
-1.697498068777151
 30
0.0
  0
VERTEX
  5
1F4
  8
0
 10
-5.6244222197926961
 20
-1.4474980687771519
 30
0.0
  0
VERTEX
  5
1F5
  8
0
 10
-5.3437500000000009
 20
-1.4474980687771519
 30
0.0
  0
VERTEX
  5
1F6
  8
0
 10
-5.3437500000000009
 20
-1.6974980687771519
 30
0.0
  0
VERTEX
  5
1F7
  8
0
 10
-5.0937499999999991
 20
-1.6974980687771519
 30
0.0
  0
VERTEX
  5
1F8
  8
0
 10
-5.0937499999999991
 20
-1.4474980687771519
 30
0.0
  0
VERTEX
  5
1F9
  8
0
 10
-4.84375
 20
-1.4474980687771519
 30
0.0
  0
VERTEX
  5
1FA
  8
0
 10
-4.84375
 20
-1.6974980687771519
 30
0.0
  0
VERTEX
  5
1FB
  8
0
 10
-4.59375
 20
-1.6974980687771519
 30
0.0
  0
VERTEX
  5
1FC
  8
0
 10
-4.59375
 20
-1.4474980687771519
 30
0.0
  0
VERTEX
  5
1FD
  8
0
 10
-4.3437500000000009
 20
-1.4474980687771519
 30
0.0
  0
VERTEX
  5
1FE
  8
0
 10
-4.3437500000000009
 20
-1.6974980687771519
 30
0.0
  0
VERTEX
  5
1FF
  8
0
 10
-4.09375
 20
-1.6974980687771519
 30
0.0
  0
VERTEX
  5
200
  8
0
 10
-4.09375
 20
-1.4474980687771519
 30
0.0
  0
VERTEX
  5
201
  8
0
 10
-3.84375
 20
-1.4474980687771519
 30
0.0
  0
VERTEX
  5
202
  8
0
 10
-3.84375
 20
-1.6974980687771519
 30
0.0
  0
VERTEX
  5
203
  8
0
 10
-3.59375
 20
-1.6974980687771519
 30
0.0
  0
VERTEX
  5
204
  8
0
 10
-3.59375
 20
-1.4474980687771519
 30
0.0
  0
VERTEX
  5
205
  8
0
 10
-3.34375
 20
-1.4474980687771519
 30
0.0
  0
VERTEX
  5
206
  8
0
 10
-3.34375
 20
-1.6974980687771519
 30
0.0
  0
VERTEX
  5
207
  8
0
 10
-3.09375
 20
-1.6974980687771519
 30
0.0
  0
VERTEX
  5
208
  8
0
 10
-3.09375
 20
-1.4474980687771519
 30
0.0
  0
VERTEX
  5
209
  8
0
 10
-2.84375
 20
-1.4474980687771519
 30
0.0
  0
VERTEX
  5
20A
  8
0
 10
-2.84375
 20
-1.6974980687771519
 30
0.0
  0
VERTEX
  5
20B
  8
0
 10
-2.59375
 20
-1.6974980687771519
 30
0.0
  0
VERTEX
  5
20C
  8
0
 10
-2.59375
 20
-1.4474980687771519
 30
0.0
  0
VERTEX
  5
20D
  8
0
 10
-2.34375
 20
-1.4474980687771519
 30
0.0
  0
VERTEX
  5
20E
  8
0
 10
-2.3437500000000142
 20
0.5000000000003964
 30
0.0
  0
VERTEX
  5
20F
  8
0
 10
-4.124422219792713
 20
0.5000000000003964
 30
0.0
  0
VERTEX
  5
210
  8
0
 10
-4.124422219792713
 20
0.7500000000003964
 30
0.0
  0
VERTEX
  5
211
  8
0
 10
-2.3437500000000142
 20
0.7500000000003964
 30
0.0
  0
VERTEX
  5
212
  8
0
 10
-2.34375
 20
1.75
 30
0.0
  0
VERTEX
  5
213
  8
0
 10
-1.5
 20
1.75
 30
0.0
  0
VERTEX
  5
214
  8
0
 10
-1.5000000000000011
 20
5.2750000000000004
 30
0.0
 42
-0.1389982519138792
  0
VERTEX
  5
215
  8
0
 10
1.4999999999999969
 20
5.2750000000000004
 30
0.0
  0
VERTEX
  5
216
  8
0
 10
1.4999999999999989
 20
1.75
 30
0.0
  0
VERTEX
  5
217
  8
0
 10
2.34375
 20
1.75
 30
0.0
  0
VERTEX
  5
218
  8
0
 10
2.3437500000000142
 20
0.7500000000003964
 30
0.0
  0
SEQEND
  5
BA
  8
0
  0
ENDSEC
  0
EOF
