  0
SECTION
  2
HEADER
  9
$ACADVER
  1
AC1009
  9
$INSBASE
 10
0.0
 20
0.0
 30
0.0
  9
$EXTMIN
 10
0.0
 20
0.0
 30
0.0
  9
$EXTMAX
 10
10.69148051224566
 20
6.018379748018341
 30
0.0
  9
$LIMMIN
 10
0.0
 20
0.0
  9
$LIMMAX
 10
10.69148051224566
 20
6.018379748018341
  9
$ORTHOMODE
 70
     0
  9
$REGENMODE
 70
     1
  9
$FILLMODE
 70
     1
  9
$QTEXTMODE
 70
     0
  9
$MIRRTEXT
 70
     0
  9
$DRAGMODE
 70
     2
  9
$LTSCALE
 40
1.0
  9
$OSMODE
 70
     0
  9
$ATTMODE
 70
     1
  9
$TEXTSIZE
 40
0.2
  9
$TRACEWID
 40
0.05
  9
$TEXTSTYLE
  7
STANDARD
  9
$CLAYER
  8
0
  9
$CELTYPE
  6
BYLAYER
  9
$CECOLOR
 62
   256
  9
$DIMSCALE
 40
1.0
  9
$DIMASZ
 40
0.0708661417322835
  9
$DIMEXO
 40
0.0625
  9
$DIMDLI
 40
0.38
  9
$DIMRND
 40
0.0
  9
$DIMDLE
 40
0.0
  9
$DIMEXE
 40
0.18
  9
$DIMTP
 40
0.0
  9
$DIMTM
 40
0.0
  9
$DIMTXT
 40
0.0708661417322835
  9
$DIMCEN
 40
0.09
  9
$DIMTSZ
 40
0.0
  9
$DIMTOL
 70
     0
  9
$DIMLIM
 70
     0
  9
$DIMTIH
 70
     1
  9
$DIMTOH
 70
     1
  9
$DIMSE1
 70
     0
  9
$DIMSE2
 70
     0
  9
$DIMTAD
 70
     0
  9
$DIMZIN
 70
     0
  9
$DIMBLK
  1

  9
$DIMASO
 70
     1
  9
$DIMSHO
 70
     1
  9
$DIMPOST
  1

  9
$DIMAPOST
  1

  9
$DIMALT
 70
     0
  9
$DIMALTD
 70
     2
  9
$DIMALTF
 40
25.399999999999999
  9
$DIMLFAC
 40
1.0
  9
$DIMTOFL
 70
     0
  9
$DIMTVP
 40
0.0
  9
$DIMTIX
 70
     0
  9
$DIMSOXD
 70
     0
  9
$DIMSAH
 70
     0
  9
$DIMBLK1
  1

  9
$DIMBLK2
  1

  9
$DIMSTYLE
  2
STANDARD
  9
$DIMCLRD
 70
     0
  9
$DIMCLRE
 70
     0
  9
$DIMCLRT
 70
     0
  9
$DIMTFAC
 40
1.0
  9
$DIMGAP
 40
0.09
  9
$LUNITS
 70
     2
  9
$LUPREC
 70
     4
  9
$SKETCHINC
 40
0.1
  9
$FILLETRAD
 40
0.0
  9
$AUNITS
 70
     0
  9
$AUPREC
 70
     0
  9
$MENU
  1
.
  9
$ELEVATION
 40
0.0
  9
$PELEVATION
 40
0.0
  9
$THICKNESS
 40
0.0
  9
$LIMCHECK
 70
     0
  9
$BLIPMODE
 70
     0
  9
$CHAMFERA
 40
0.0
  9
$CHAMFERB
 40
0.0
  9
$SKPOLY
 70
     0
  9
$TDCREATE
 40
2456770.782115255
  9
$TDUPDATE
 40
2456770.782115255
  9
$TDINDWG
 40
0.0000178819
  9
$TDUSRTIMER
 40
0.0000178819
  9
$USRTIMER
 70
     1
  9
$ANGBASE
 50
0.0
  9
$ANGDIR
 70
     0
  9
$PDMODE
 70
     0
  9
$PDSIZE
 40
0.0
  9
$PLINEWID
 40
0.0
  9
$COORDS
 70
     0
  9
$SPLFRAME
 70
     0
  9
$SPLINETYPE
 70
     6
  9
$SPLINESEGS
 70
     8
  9
$ATTDIA
 70
     0
  9
$ATTREQ
 70
     1
  9
$HANDLING
 70
     1
  9
$HANDSEED
  5
509
  9
$SURFTAB1
 70
     6
  9
$SURFTAB2
 70
     6
  9
$SURFTYPE
 70
     6
  9
$SURFU
 70
     6
  9
$SURFV
 70
     6
  9
$UCSNAME
  2

  9
$UCSORG
 10
0.0
 20
0.0
 30
0.0
  9
$UCSXDIR
 10
1.0
 20
0.0
 30
0.0
  9
$UCSYDIR
 10
0.0
 20
1.0
 30
0.0
  9
$PUCSNAME
  2

  9
$PUCSORG
 10
0.0
 20
0.0
 30
0.0
  9
$PUCSXDIR
 10
1.0
 20
0.0
 30
0.0
  9
$PUCSYDIR
 10
0.0
 20
1.0
 30
0.0
  9
$USERI1
 70
     0
  9
$USERI2
 70
     0
  9
$USERI3
 70
     0
  9
$USERI4
 70
     0
  9
$USERI5
 70
     0
  9
$USERR1
 40
0.0
  9
$USERR2
 40
0.0
  9
$USERR3
 40
0.0
  9
$USERR4
 40
0.0
  9
$USERR5
 40
0.0
  9
$WORLDVIEW
 70
     1
  9
$SHADEDGE
 70
     3
  9
$SHADEDIF
 70
    70
  9
$TILEMODE
 70
     1
  9
$MAXACTVP
 70
    64
  9
$PLIMCHECK
 70
     0
  9
$PEXTMIN
 10
0.0
 20
0.0
 30
0.0
  9
$PEXTMAX
 10
10.69148051224566
 20
6.018379748018341
 30
0.0
  9
$PLIMMIN
 10
0.0
 20
0.0
  9
$PLIMMAX
 10
10.69148051224566
 20
6.018379748018341
  9
$UNITMODE
 70
     0
  9
$VISRETAIN
 70
     1
  9
$PLINEGEN
 70
     0
  9
$PSLTSCALE
 70
     1
  0
ENDSEC
  0
SECTION
  2
TABLES
  0
TABLE
  2
VPORT
 70
     1
  0
VPORT
  2
*ACTIVE
 70
     0
 10
0.0
 20
0.0
 11
1.0
 21
1.0
 12
2.112484098222795
 22
-0.8218873161190652
 13
0.0
 23
0.0
 14
1.0
 24
1.0
 15
0.0
 25
0.0
 16
0.0
 26
0.0
 36
1.0
 17
0.0
 27
0.0
 37
0.0
 40
6.018379748018341
 41
1.7764715687417389
 42
50.0
 43
0.0
 44
0.0
 50
0.0
 51
0.0
 71
     0
 72
   100
 73
     1
 74
     1
 75
     0
 76
     0
 77
     0
 78
     0
  0
ENDTAB
  0
TABLE
  2
LTYPE
 70
    59
  0
LTYPE
  2
CONTINUOUS
 70
     0
  3
Solid line
 72
    65
 73
     0
 40
0.0
  0
LTYPE
  2
PHANTOM2
 70
     0
  3
Phantom (.5x) ___ _ _ ___ _ _ ___ _ _ ___ _ _
 72
    65
 73
     6
 40
1.25
 49
0.625
 49
-0.125
 49
0.125
 49
-0.125
 49
0.125
 49
-0.125
  0
LTYPE
  2
BY_STANDARD
 70
     0
  3
By Standard ____________    ____    ____   _
 72
    65
 73
     6
 40
1.2402999999999991
 49
0.6614
 49
-0.0827
 49
0.1654
 49
-0.0827
 49
0.1654
 49
-0.0827
  0
LTYPE
  2
CHAIN
 70
     0
  3
Chain ____ _ ____ _ ____ _ ____ _ ____ _ ____
 72
    65
 73
     4
 40
0.7087
 49
0.4724000000000001
 49
-0.0591
 49
0.1181
 49
-0.0591
  0
LTYPE
  2
DASH_DOT
 70
     0
  3
Dash dot __ . __ . __ . __ . __ . __ . __ . __
 72
    65
 73
     4
 40
0.37
 49
0.24
 49
-0.06
 49
0.01
 49
-0.06
  0
LTYPE
  2
DOUBLE_DASH_DOT
 70
     0
  3
Double-Dash Dot __ __ . __ __ . __ __ . __ _
 72
    65
 73
     6
 40
0.4398
 49
0.24
 49
-0.06
 49
0.0098
 49
-0.06
 49
0.01
 49
-0.06
  0
LTYPE
  2
DASH_TRIPLE_DOT
 70
     0
  3
Dash Triple-Dot _ . . . _ . . . _ . . . _
 72
    65
 73
     8
 40
0.51
 49
0.24
 49
-0.06
 49
0.01
 49
-0.06
 49
0.01
 49
-0.06
 49
0.01
 49
-0.06
  0
LTYPE
  2
DASHED
 70
     0
  3
Dashed __ __ __ __ __ __ __ __ __ __ __ __ __ _
 72
    65
 73
     2
 40
0.2067
 49
0.1654
 49
-0.0413
  0
LTYPE
  2
DASH_DOUBLE_DOT
 70
     0
  3
Dash Double-Dot __ . . __ . . __ . . __ . .
 72
    65
 73
     6
 40
0.4398
 49
0.24
 49
-0.06
 49
0.0098
 49
-0.06
 49
0.01
 49
-0.06
  0
LTYPE
  2
DASHED_SPACE
 70
     0
  3
Dashed Space __ __ __ __ __ __ __ __ __ __ __ _
 72
    65
 73
     2
 40
0.2067
 49
0.1654
 49
-0.0413
  0
LTYPE
  2
DOTTED
 70
     0
  3
Dotted . . . . . . . . . . . . . . . . . . . . 
 72
    65
 73
     2
 40
0.0482
 49
0.0069
 49
-0.0413
  0
LTYPE
  2
DOUBLE_DASH_CHAIN
 70
     0
  3
Double-Dash Chain ______  __  __  ______  __  _
 72
    65
 73
     6
 40
1.2402999999999991
 49
0.6614
 49
-0.0827
 49
0.1654
 49
-0.0827
 49
0.1654
 49
-0.0827
  0
LTYPE
  2
DOUBLE_DASH_DOUBLE_DOT
 70
     0
  3
Double-Dash Double-dot _ _ . . _ _ . . _
 72
    65
 73
     8
 40
0.7400000000000001
 49
0.24
 49
-0.06
 49
0.24
 49
-0.06
 49
0.01
 49
-0.06
 49
0.01
 49
-0.06
  0
LTYPE
  2
DOUBLE_DASH_TRIPLE_DOT
 70
     0
  3
Double Dash Triple Dot __ __ . . . __ __ . .
 72
    65
 73
    10
 40
0.8100000000000001
 49
0.24
 49
-0.06
 49
0.24
 49
-0.06
 49
0.01
 49
-0.06
 49
0.01
 49
-0.06
 49
0.01
 49
-0.06
  0
LTYPE
  2
LONG_DASH_DOTTED
 70
     0
  3
Long Dash Dotted ____ . ____ . ____ . ____ . _
 72
    65
 73
     4
 40
0.3543
 49
0.2362
 49
-0.0295
 49
0.0591
 49
-0.0295
  0
LTYPE
  2
LONG_DASH_DOUBLE_DOT
 70
     0
  3
Long Dash Double Dot ________  .  .  ________  
 72
    65
 73
     6
 40
0.6799999999999999
 49
0.48
 49
-0.06
 49
0.01
 49
-0.06
 49
0.01
 49
-0.06
  0
LTYPE
  2
LONG_DASH_TRIPLE_DOT
 70
     0
  3
Long Dash Triple Dot ____ ... ____ ... ____
 72
    65
 73
     8
 40
0.3689
 49
0.2362
 49
-0.0295
 49
0.0049
 49
-0.0295
 49
0.0049
 49
-0.0295
 49
0.0049
 49
-0.0295
  0
LTYPE
  2
BORDER
 70
     0
  3
Border __ __ . __ __ . __ __ . __ __ . __ __ .
 72
    65
 73
     6
 40
1.75
 49
0.5
 49
-0.25
 49
0.5
 49
-0.25
 49
0.0
 49
-0.25
  0
LTYPE
  2
BORDER2
 70
     0
  3
Border (.5x) __.__.__.__.__.__.__.__.__.__.__.
 72
    65
 73
     6
 40
0.875
 49
0.25
 49
-0.125
 49
0.25
 49
-0.125
 49
0.0
 49
-0.125
  0
LTYPE
  2
BORDERX2
 70
     0
  3
Border (2x) ____  ____  .  ____  ____  .  ___
 72
    65
 73
     6
 40
3.5
 49
1.0
 49
-0.5
 49
1.0
 49
-0.5
 49
0.0
 49
-0.5
  0
LTYPE
  2
CENTER
 70
     0
  3
Center ____ _ ____ _ ____ _ ____ _ ____ _ ____
 72
    65
 73
     4
 40
2.0
 49
1.25
 49
-0.25
 49
0.25
 49
-0.25
  0
LTYPE
  2
CENTER2
 70
     0
  3
Center (.5x) ___ _ ___ _ ___ _ ___ _ ___ _ ___
 72
    65
 73
     4
 40
1.125
 49
0.75
 49
-0.125
 49
0.125
 49
-0.125
  0
LTYPE
  2
CENTERX2
 70
     0
  3
Center (2x) ________  __  ________  __  _____
 72
    65
 73
     4
 40
4.0
 49
2.5
 49
-0.5
 49
0.5
 49
-0.5
  0
LTYPE
  2
DASHDOT2
 70
     0
  3
Dash dot (.5x) _._._._._._._._._._._._._._._.
 72
    65
 73
     4
 40
0.5
 49
0.25
 49
-0.125
 49
0.0
 49
-0.125
  0
LTYPE
  2
DASHDOTX2
 70
     0
  3
Dash dot (2x) ____  .  ____  .  ____  .  ___
 72
    65
 73
     4
 40
2.0
 49
1.0
 49
-0.5
 49
0.0
 49
-0.5
  0
LTYPE
  2
DASHED2
 70
     0
  3
Dashed (.5x) _ _ _ _ _ _ _ _ _ _ _ _ _ _ _ _ _
 72
    65
 73
     2
 40
0.375
 49
0.25
 49
-0.125
  0
LTYPE
  2
DASHEDX2
 70
     0
  3
Dashed (2x) ____  ____  ____  ____  ____  ___
 72
    65
 73
     2
 40
1.5
 49
1.0
 49
-0.5
  0
LTYPE
  2
DIVIDE
 70
     0
  3
Divide ____ . . ____ . . ____ . . ____ . . ____
 72
    65
 73
     6
 40
1.25
 49
0.5
 49
-0.25
 49
0.0
 49
-0.25
 49
0.0
 49
-0.25
  0
LTYPE
  2
DIVIDE2
 70
     0
  3
Divide (.5x) __..__..__..__..__..__..__..__.._
 72
    65
 73
     6
 40
0.625
 49
0.25
 49
-0.125
 49
0.0
 49
-0.125
 49
0.0
 49
-0.125
  0
LTYPE
  2
DIVIDEX2
 70
     0
  3
Divide (2x) ________  .  .  ________  .  .  _
 72
    65
 73
     6
 40
2.5
 49
1.0
 49
-0.5
 49
0.0
 49
-0.5
 49
0.0
 49
-0.5
  0
LTYPE
  2
DOT
 70
     0
  3
Dot . . . . . . . . . . . . . . . . . . . . . .
 72
    65
 73
     2
 40
0.25
 49
0.0
 49
-0.25
  0
LTYPE
  2
DOT2
 70
     0
  3
Dot (.5x) .....................................
 72
    65
 73
     2
 40
0.125
 49
0.0
 49
-0.125
  0
LTYPE
  2
DOTX2
 70
     0
  3
Dot (2x) .  .  .  .  .  .  .  .  .  .  .  .  . 
 72
    65
 73
     2
 40
0.5
 49
0.0
 49
-0.5
  0
LTYPE
  2
HIDDEN
 70
     0
  3
Hidden __ __ __ __ __ __ __ __ __ __ __ __ __ _
 72
    65
 73
     2
 40
0.375
 49
0.25
 49
-0.125
  0
LTYPE
  2
HIDDEN2
 70
     0
  3
Hidden (.5x) _ _ _ _ _ _ _ _ _ _ _ _ _ _ _ _ _
 72
    65
 73
     2
 40
0.1875
 49
0.125
 49
-0.0625
  0
LTYPE
  2
HIDDENX2
 70
     0
  3
Hidden (2x) ____ ____ ____ ____ ____ ____ ____
 72
    65
 73
     2
 40
0.75
 49
0.5
 49
-0.25
  0
LTYPE
  2
PHANTOM
 70
     0
  3
Phantom ______  __  __  ______  __  __  ______
 72
    65
 73
     6
 40
2.5
 49
1.25
 49
-0.25
 49
0.25
 49
-0.25
 49
0.25
 49
-0.25
  0
LTYPE
  2
PHANTOMX2
 70
     0
  3
Phantom (2x) ____________    ____    ____   _
 72
    65
 73
     6
 40
5.0
 49
2.5
 49
-0.5
 49
0.5
 49
-0.5
 49
0.5
 49
-0.5
  0
LTYPE
  2
ACAD_ISO02W100
 70
     0
  3
ISO dash __ __ __ __ __ __ __ __ __ __ __ __ __
 72
    65
 73
     2
 40
0.59
 49
0.47
 49
-0.12
  0
LTYPE
  2
ACAD_ISO03W100
 70
     0
  3
ISO dash space __    __    __    __    __    __
 72
    65
 73
     2
 40
1.179999999999999
 49
0.47
 49
-0.71
  0
LTYPE
  2
ACAD_ISO04W100
 70
     0
  3
ISO long-dash dot ____ . ____ . ____ . ____ . _
 72
    65
 73
     4
 40
1.179999999999999
 49
0.9399999999999998
 49
-0.12
 49
0.0
 49
-0.12
  0
LTYPE
  2
ACAD_ISO05W100
 70
     0
  3
ISO long-dash double-dot ____ .. ____ .. ____ .
 72
    65
 73
     6
 40
1.2999999999999989
 49
0.9399999999999998
 49
-0.12
 49
0.0
 49
-0.12
 49
0.0
 49
-0.12
  0
LTYPE
  2
ACAD_ISO06W100
 70
     0
  3
ISO long-dash triple-dot ____ ... ____ ... ____
 72
    65
 73
     8
 40
1.419999999999999
 49
0.9399999999999998
 49
-0.12
 49
0.0
 49
-0.12
 49
0.0
 49
-0.12
 49
0.0
 49
-0.12
  0
LTYPE
  2
ACAD_ISO07W100
 70
     0
  3
ISO dot . . . . . . . . . . . . . . . . . . . .
 72
    65
 73
     2
 40
0.12
 49
0.0
 49
-0.12
  0
LTYPE
  2
ACAD_ISO08W100
 70
     0
  3
ISO long-dash short-dash ____ __ ____ __ ____ _
 72
    65
 73
     4
 40
0.95
 49
0.47
 49
-0.12
 49
0.24
 49
-0.12
  0
LTYPE
  2
ACAD_ISO09W100
 70
     0
  3
ISO long-dash double-short-dash ____ __ __ ____
 72
    65
 73
     6
 40
1.3100000000000001
 49
0.47
 49
-0.12
 49
0.24
 49
-0.12
 49
0.24
 49
-0.12
  0
LTYPE
  2
ACAD_ISO10W100
 70
     0
  3
ISO dash dot __ . __ . __ . __ . __ . __ . __ .
 72
    65
 73
     4
 40
0.71
 49
0.47
 49
-0.12
 49
0.0
 49
-0.12
  0
LTYPE
  2
ACAD_ISO11W100
 70
     0
  3
ISO double-dash dot __ __ . __ __ . __ __ . __ 
 72
    65
 73
     6
 40
1.2999999999999989
 49
0.47
 49
-0.12
 49
0.47
 49
-0.12
 49
0.0
 49
-0.12
  0
LTYPE
  2
ACAD_ISO12W100
 70
     0
  3
ISO dash double-dot __ . . __ . . __ . . __ . .
 72
    65
 73
     6
 40
0.8299999999999999
 49
0.47
 49
-0.12
 49
0.0
 49
-0.12
 49
0.0
 49
-0.12
  0
LTYPE
  2
ACAD_ISO13W100
 70
     0
  3
ISO double-dash double-dot __ __ . . __ __ . . 
 72
    65
 73
     8
 40
1.419999999999999
 49
0.47
 49
-0.12
 49
0.47
 49
-0.12
 49
0.0
 49
-0.12
 49
0.0
 49
-0.12
  0
LTYPE
  2
ACAD_ISO14W100
 70
     0
  3
ISO dash triple-dot __ . . . __ . . . __ . . . 
 72
    65
 73
     8
 40
0.95
 49
0.47
 49
-0.12
 49
0.0
 49
-0.12
 49
0.0
 49
-0.12
 49
0.0
 49
-0.12
  0
LTYPE
  2
ACAD_ISO15W100
 70
     0
  3
ISO double-dash triple-dot __ __ . . . __ __ . 
 72
    65
 73
    10
 40
1.5399999999999989
 49
0.47
 49
-0.12
 49
0.47
 49
-0.12
 49
0.0
 49
-0.12
 49
0.0
 49
-0.12
 49
0.0
 49
-0.12
  0
LTYPE
  2
FENCELINE1
 70
     0
  3
Fenceline circle ----0-----0----0-----0----0---
 72
    65
 73
     4
 40
1.45
 49
0.25
 49
-0.1
 49
-0.1
 49
1.0
  0
LTYPE
  2
FENCELINE2
 70
     0
  3
Fenceline square ----[]-----[]----[]-----[]----
 72
    65
 73
     4
 40
1.45
 49
0.25
 49
-0.1
 49
-0.1
 49
1.0
  0
LTYPE
  2
TRACKS
 70
     0
  3
Tracks -|-|-|-|-|-|-|-|-|-|-|-|-|-|-|-|-|-|-|-|
 72
    65
 73
     2
 40
0.3
 49
0.15
 49
0.15
  0
LTYPE
  2
BATTING
 70
     0
  3
Batting SSSSSSSSSSSSSSSSSSSSSSSSSSSSSSSSSSSSSSS
 72
    65
 73
     4
 40
0.4001000000000001
 49
0.0001
 49
-0.1
 49
-0.2
 49
-0.1
  0
LTYPE
  2
HOT_WATER_SUPPLY
 70
     0
  3
Hot water supply ---- HW ---- HW ---- HW ----
 72
    65
 73
     3
 40
0.9
 49
0.5
 49
-0.2
 49
-0.2
  0
LTYPE
  2
GAS_LINE
 70
     0
  3
Gas line ----GAS----GAS----GAS----GAS----GAS---
 72
    65
 73
     3
 40
0.95
 49
0.5
 49
-0.2
 49
-0.25
  0
LTYPE
  2
ZIGZAG
 70
     0
  3
Zig zag /\/\/\/\/\/\/\/\/\/\/\/\/\/\/\/\/\/\/\/
 72
    65
 73
     4
 40
0.8001000000000001
 49
0.0001
 49
-0.2
 49
-0.4
 49
-0.2
  0
ENDTAB
  0
TABLE
  2
LAYER
 70
     1
  0
LAYER
  2
0
 70
     0
 62
     7
  6
CONTINUOUS
  0
ENDTAB
  0
TABLE
  2
STYLE
 70
     3
  0
STYLE
  2
STANDARD
 70
     0
 40
0.0
 41
1.0
 50
0.0
 71
     0
 42
0.2
  3
txt
  4

  0
STYLE
  2
ANNOTATIVE
 70
     0
 40
0.0
 41
1.0
 50
0.0
 71
     0
 42
0.2
  3
txt
  4

  0
STYLE
  2

 70
     1
 40
0.0
 41
1.0
 50
0.0
 71
     0
 42
0.2
  3
ltypeshp.shx
  4

  0
ENDTAB
  0
TABLE
  2
VIEW
 70
     0
  0
ENDTAB
  0
TABLE
  2
UCS
 70
     0
  0
ENDTAB
  0
TABLE
  2
APPID
 70
     3
  0
APPID
  2
ACAD
 70
     0
  0
APPID
  2
ACADANNOTATIVE
 70
     0
  0
APPID
  2
ACAD_MLEADERVER
 70
     0
  0
ENDTAB
  0
TABLE
  2
DIMSTYLE
 70
     2
  0
DIMSTYLE
  2
STANDARD
 70
     0
  3

  4

  5

  6

  7

 40
1.0
 41
0.18
 42
0.0625
 43
0.38
 44
0.18
 45
0.0
 46
0.0
 47
0.0
 48
0.0
140
0.18
141
0.09
142
0.0
143
25.399999999999999
144
1.0
145
0.0
146
1.0
147
0.09
 71
     0
 72
     0
 73
     1
 74
     1
 75
     0
 76
     0
 77
     0
 78
     0
170
     0
171
     2
172
     0
173
     0
174
     0
175
     0
176
     0
177
     0
178
     0
  0
DIMSTYLE
  2
ANNOTATIVE
 70
     0
  3

  4

  5

  6

  7

 40
1.0
 41
0.18
 42
0.0625
 43
0.38
 44
0.18
 45
0.0
 46
0.0
 47
0.0
 48
0.0
140
0.18
141
0.09
142
0.0
143
25.399999999999999
144
1.0
145
0.0
146
1.0
147
0.09
 71
     0
 72
     0
 73
     1
 74
     1
 75
     0
 76
     0
 77
     0
 78
     0
170
     0
171
     2
172
     0
173
     0
174
     0
175
     0
176
     0
177
     0
178
     0
  0
ENDTAB
  0
ENDSEC
  0
SECTION
  2
BLOCKS
  0
BLOCK
  8
0
  2
$MODEL_SPACE
 70
     0
 10
0.0
 20
0.0
 30
0.0
  3
$MODEL_SPACE
  1

  0
ENDBLK
  5
73
  8
0
  0
BLOCK
 67
     1
  8
0
  2
$PAPER_SPACE
 70
     0
 10
0.0
 20
0.0
 30
0.0
  3
$PAPER_SPACE
  1

  0
ENDBLK
  5
6F
 67
     1
  8
0
  0
ENDSEC
  0
SECTION
  2
ENTITIES
  0
POLYLINE
  5
B7
  8
0
 66
     1
 10
0.0
 20
0.0
 30
0.0
 70
     1
  0
VERTEX
  5
B8
  8
0
 10
2.3154953291170539
 20
1.004988751892711
 30
0.0
  0
VERTEX
  5
B9
  8
0
 10
2.3349012436425789
 20
1.0098271898047051
 30
0.0
  0
VERTEX
  5
BB
  8
0
 10
2.7582645609420271
 20
-0.6881903311782807
 30
0.0
 42
0.9999999999999998
  0
VERTEX
  5
BC
  8
0
 10
3.689748458166954
 20
-0.4559453114026072
 30
0.0
  0
VERTEX
  5
BD
  8
0
 10
3.2663851408675351
 20
1.2420722095803871
 30
0.0
  0
VERTEX
  5
BE
  8
0
 10
3.28579105539306
 20
1.246910647492381
 30
0.0
  0
VERTEX
  5
BF
  8
0
 10
3.7091543726924781
 20
-0.4511068734906126
 30
0.0
 42
-0.9999999925494194
  0
VERTEX
  5
C0
  8
0
 10
2.7388586464164781
 20
-0.6930287690902814
 30
0.0
  0
SEQEND
  5
BA
  8
0
  0
POLYLINE
  5
C2
  8
0
 66
     1
 10
0.0
 20
0.0
 30
0.0
 70
     1
  0
VERTEX
  5
C3
  8
0
 10
1.099449502270448
 20
0.5702093716341588
 30
0.0
  0
VERTEX
  5
C4
  8
0
 10
1.118855416795973
 20
0.5750478095461533
 30
0.0
  0
VERTEX
  5
C6
  8
0
 10
1.542218734095421
 20
-1.1229697114368331
 30
0.0
 42
0.9999999999999998
  0
VERTEX
  5
C7
  8
0
 10
2.4737026313203478
 20
-0.8907246916611598
 30
0.0
  0
VERTEX
  5
C8
  8
0
 10
2.0503393140209298
 20
0.8072928293218343
 30
0.0
  0
VERTEX
  5
C9
  8
0
 10
2.0697452285464539
 20
0.8121312672338291
 30
0.0
  0
VERTEX
  5
CA
  8
0
 10
2.4931085458458719
 20
-0.8858862537491653
 30
0.0
 42
-0.9999999999999998
  0
VERTEX
  5
CB
  8
0
 10
1.522812819569872
 20
-1.1278081493488341
 30
0.0
  0
SEQEND
  5
C5
  8
0
  0
POLYLINE
  5
CC
  8
0
 66
     1
 10
0.0
 20
0.0
 30
0.0
 70
     1
  0
VERTEX
  5
CD
  8
0
 10
0.7608865611820045
 20
0.7357934539037782
 30
0.0
  0
VERTEX
  5
CE
  8
0
 10
0.7802924757075289
 20
0.7406318918157729
 30
0.0
  0
VERTEX
  5
D0
  8
0
 10
1.2036557930069469
 20
-0.9573856291672214
 30
0.0
 42
-0.9999999999999998
  0
VERTEX
  5
D1
  8
0
 10
0.2333600667309465
 20
-1.1993075247668901
 30
0.0
  0
VERTEX
  5
D2
  8
0
 10
-0.1900032505684768
 20
0.4987099962161026
 30
0.0
  0
VERTEX
  5
D3
  8
0
 10
-0.1705973360429525
 20
0.503548434128097
 30
0.0
  0
VERTEX
  5
D4
  8
0
 10
0.2527659812564956
 20
-1.1944690868548891
 30
0.0
 42
1.0000000074505799
  0
VERTEX
  5
D5
  8
0
 10
1.1842498784814219
 20
-0.9622240670792162
 30
0.0
  0
SEQEND
  5
CF
  8
0
  0
POLYLINE
  8
0
  5
141
  66
     1
 10
0.000000
 20
0.000000
 30
0.000000
  70
     8
  0
VERTEX
  8
0
  5
142
 10
2.31349
 20
1.68684
 30
0.000000
  70
    32
  0
VERTEX
  8
0
  5
143
 10
2.26816
 20
1.67955
 30
0.000000
  70
    32
  0
VERTEX
  8
0
  5
144
 10
2.22286
 20
1.67217
 30
0.000000
  70
    32
  0
VERTEX
  8
0
  5
145
 10
2.17759
 20
1.66472
 30
0.000000
  70
    32
  0
VERTEX
  8
0
  5
146
 10
2.13235
 20
1.65718
 30
0.000000
  70
    32
  0
VERTEX
  8
0
  5
147
 10
2.08713
 20
1.64957
 30
0.000000
  70
    32
  0
VERTEX
  8
0
  5
148
 10
2.04194
 20
1.64188
 30
0.000000
  70
    32
  0
VERTEX
  8
0
  5
149
 10
1.99678
 20
1.63412
 30
0.000000
  70
    32
  0
VERTEX
  8
0
  5
14A
 10
1.95164
 20
1.62627
 30
0.000000
  70
    32
  0
VERTEX
  8
0
  5
14B
 10
1.90653
 20
1.61834
 30
0.000000
  70
    32
  0
VERTEX
  8
0
  5
14C
 10
1.86145
 20
1.61034
 30
0.000000
  70
    32
  0
VERTEX
  8
0
  5
14D
 10
1.81639
 20
1.60226
 30
0.000000
  70
    32
  0
VERTEX
  8
0
  5
14E
 10
1.77136
 20
1.59409
 30
0.000000
  70
    32
  0
VERTEX
  8
0
  5
14F
 10
1.72636
 20
1.58585
 30
0.000000
  70
    32
  0
VERTEX
  8
0
  5
150
 10
1.68139
 20
1.57754
 30
0.000000
  70
    32
  0
VERTEX
  8
0
  5
151
 10
1.63644
 20
1.56914
 30
0.000000
  70
    32
  0
VERTEX
  8
0
  5
152
 10
1.59152
 20
1.56066
 30
0.000000
  70
    32
  0
VERTEX
  8
0
  5
153
 10
1.54662
 20
1.55211
 30
0.000000
  70
    32
  0
VERTEX
  8
0
  5
154
 10
1.50176
 20
1.54348
 30
0.000000
  70
    32
  0
VERTEX
  8
0
  5
155
 10
1.45691
 20
1.53476
 30
0.000000
  70
    32
  0
VERTEX
  8
0
  5
156
 10
1.41210
 20
1.52597
 30
0.000000
  70
    32
  0
VERTEX
  8
0
  5
157
 10
1.36731
 20
1.51710
 30
0.000000
  70
    32
  0
VERTEX
  8
0
  5
158
 10
1.32255
 20
1.50816
 30
0.000000
  70
    32
  0
VERTEX
  8
0
  5
159
 10
1.27782
 20
1.49913
 30
0.000000
  70
    32
  0
VERTEX
  8
0
  5
15A
 10
1.23311
 20
1.49003
 30
0.000000
  70
    32
  0
VERTEX
  8
0
  5
15B
 10
1.18844
 20
1.48084
 30
0.000000
  70
    32
  0
VERTEX
  8
0
  5
15C
 10
1.14378
 20
1.47158
 30
0.000000
  70
    32
  0
VERTEX
  8
0
  5
15D
 10
1.09916
 20
1.46224
 30
0.000000
  70
    32
  0
VERTEX
  8
0
  5
15E
 10
1.05456
 20
1.45282
 30
0.000000
  70
    32
  0
VERTEX
  8
0
  5
15F
 10
1.00999
 20
1.44333
 30
0.000000
  70
    32
  0
VERTEX
  8
0
  5
160
 10
0.965443
 20
1.43375
 30
0.000000
  70
    32
  0
VERTEX
  8
0
  5
161
 10
0.920925
 20
1.42410
 30
0.000000
  70
    32
  0
VERTEX
  8
0
  5
162
 10
0.876434
 20
1.41436
 30
0.000000
  70
    32
  0
VERTEX
  8
0
  5
163
 10
0.831970
 20
1.40455
 30
0.000000
  70
    32
  0
VERTEX
  8
0
  5
164
 10
0.787533
 20
1.39466
 30
0.000000
  70
    32
  0
VERTEX
  8
0
  5
165
 10
0.743123
 20
1.38469
 30
0.000000
  70
    32
  0
VERTEX
  8
0
  5
166
 10
0.698740
 20
1.37464
 30
0.000000
  70
    32
  0
VERTEX
  8
0
  5
167
 10
0.654384
 20
1.36452
 30
0.000000
  70
    32
  0
VERTEX
  8
0
  5
168
 10
0.610054
 20
1.35431
 30
0.000000
  70
    32
  0
VERTEX
  8
0
  5
169
 10
0.565752
 20
1.34403
 30
0.000000
  70
    32
  0
VERTEX
  8
0
  5
16A
 10
0.521476
 20
1.33367
 30
0.000000
  70
    32
  0
VERTEX
  8
0
  5
16B
 10
0.477227
 20
1.32323
 30
0.000000
  70
    32
  0
VERTEX
  8
0
  5
16C
 10
0.433005
 20
1.31271
 30
0.000000
  70
    32
  0
VERTEX
  8
0
  5
16D
 10
0.388810
 20
1.30211
 30
0.000000
  70
    32
  0
VERTEX
  8
0
  5
16E
 10
0.344642
 20
1.29143
 30
0.000000
  70
    32
  0
VERTEX
  8
0
  5
16F
 10
0.300501
 20
1.28068
 30
0.000000
  70
    32
  0
VERTEX
  8
0
  5
170
 10
0.256387
 20
1.26985
 30
0.000000
  70
    32
  0
VERTEX
  8
0
  5
171
 10
0.212300
 20
1.25893
 30
0.000000
  70
    32
  0
VERTEX
  8
0
  5
172
 10
0.168239
 20
1.24794
 30
0.000000
  70
    32
  0
VERTEX
  8
0
  5
173
 10
0.124206
 20
1.23687
 30
0.000000
  70
    32
  0
VERTEX
  8
0
  5
174
 10
0.0801994
 20
1.22573
 30
0.000000
  70
    32
  0
VERTEX
  8
0
  5
175
 10
0.0362197
 20
1.21450
 30
0.000000
  70
    32
  0
VERTEX
  8
0
  5
176
 10
-0.00773310
 20
1.20319
 30
0.000000
  70
    32
  0
VERTEX
  8
0
  5
177
 10
-0.0516590
 20
1.19181
 30
0.000000
  70
    32
  0
VERTEX
  8
0
  5
178
 10
-0.0955579
 20
1.18035
 30
0.000000
  70
    32
  0
VERTEX
  8
0
  5
179
 10
-0.139430
 20
1.16881
 30
0.000000
  70
    32
  0
VERTEX
  8
0
  5
17A
 10
-0.183275
 20
1.15719
 30
0.000000
  70
    32
  0
VERTEX
  8
0
  5
17B
 10
-0.227093
 20
1.14549
 30
0.000000
  70
    32
  0
VERTEX
  8
0
  5
17C
 10
-0.270885
 20
1.13371
 30
0.000000
  70
    32
  0
VERTEX
  8
0
  5
17D
 10
-0.314649
 20
1.12186
 30
0.000000
  70
    32
  0
VERTEX
  8
0
  5
17E
 10
-0.358387
 20
1.10993
 30
0.000000
  70
    32
  0
VERTEX
  8
0
  5
17F
 10
-0.402097
 20
1.09791
 30
0.000000
  70
    32
  0
VERTEX
  8
0
  5
180
 10
-0.445781
 20
1.08582
 30
0.000000
  70
    32
  0
VERTEX
  8
0
  5
181
 10
-0.489438
 20
1.07365
 30
0.000000
  70
    32
  0
VERTEX
  8
0
  5
182
 10
-0.533068
 20
1.06141
 30
0.000000
  70
    32
  0
VERTEX
  8
0
  5
183
 10
-0.576671
 20
1.04908
 30
0.000000
  70
    32
  0
VERTEX
  8
0
  5
184
 10
-0.620247
 20
1.03667
 30
0.000000
  70
    32
  0
VERTEX
  8
0
  5
185
 10
-0.663796
 20
1.02419
 30
0.000000
  70
    32
  0
VERTEX
  8
0
  5
186
 10
-0.707318
 20
1.01163
 30
0.000000
  70
    32
  0
VERTEX
  8
0
  5
187
 10
-0.750814
 20
0.998986
 30
0.000000
  70
    32
  0
VERTEX
  8
0
  5
188
 10
-0.794282
 20
0.986266
 30
0.000000
  70
    32
  0
VERTEX
  8
0
  5
189
 10
-0.837724
 20
0.973468
 30
0.000000
  70
    32
  0
VERTEX
  8
0
  5
18A
 10
-0.881138
 20
0.960592
 30
0.000000
  70
    32
  0
VERTEX
  8
0
  5
18B
 10
-0.924526
 20
0.947636
 30
0.000000
  70
    32
  0
VERTEX
  8
0
  5
18C
 10
-0.967887
 20
0.934602
 30
0.000000
  70
    32
  0
VERTEX
  8
0
  5
18D
 10
-1.01122
 20
0.921490
 30
0.000000
  70
    32
  0
VERTEX
  8
0
  5
18E
 10
-1.05453
 20
0.908299
 30
0.000000
  70
    32
  0
VERTEX
  8
0
  5
18F
 10
-1.09781
 20
0.895029
 30
0.000000
  70
    32
  0
VERTEX
  8
0
  5
190
 10
-1.14106
 20
0.881681
 30
0.000000
  70
    32
  0
VERTEX
  8
0
  5
191
 10
-1.18429
 20
0.868254
 30
0.000000
  70
    32
  0
VERTEX
  8
0
  5
192
 10
-1.22749
 20
0.854748
 30
0.000000
  70
    32
  0
VERTEX
  8
0
  5
193
 10
-1.27066
 20
0.841164
 30
0.000000
  70
    32
  0
VERTEX
  8
0
  5
194
 10
-1.31381
 20
0.827501
 30
0.000000
  70
    32
  0
VERTEX
  8
0
  5
195
 10
-1.35692
 20
0.813760
 30
0.000000
  70
    32
  0
VERTEX
  8
0
  5
196
 10
-1.40002
 20
0.799940
 30
0.000000
  70
    32
  0
VERTEX
  8
0
  5
197
 10
-1.44308
 20
0.786042
 30
0.000000
  70
    32
  0
VERTEX
  8
0
  5
198
 10
-1.48612
 20
0.772065
 30
0.000000
  70
    32
  0
VERTEX
  8
0
  5
199
 10
-1.52913
 20
0.758009
 30
0.000000
  70
    32
  0
VERTEX
  8
0
  5
19A
 10
-1.57211
 20
0.743875
 30
0.000000
  70
    32
  0
VERTEX
  8
0
  5
19B
 10
-1.61507
 20
0.729662
 30
0.000000
  70
    32
  0
VERTEX
  8
0
  5
19C
 10
-1.65800
 20
0.715371
 30
0.000000
  70
    32
  0
VERTEX
  8
0
  5
19D
 10
-1.70091
 20
0.701001
 30
0.000000
  70
    32
  0
VERTEX
  8
0
  5
19E
 10
-1.74378
 20
0.686552
 30
0.000000
  70
    32
  0
VERTEX
  8
0
  5
19F
 10
-1.78663
 20
0.672025
 30
0.000000
  70
    32
  0
VERTEX
  8
0
  5
1A0
 10
-1.82945
 20
0.657420
 30
0.000000
  70
    32
  0
VERTEX
  8
0
  5
1A1
 10
-1.87225
 20
0.642735
 30
0.000000
  70
    32
  0
SEQEND
  8
0
  5
1A2
  0
POLYLINE
  8
0
  5
1A3
  66
     1
 10
0.000000
 20
0.000000
 30
0.000000
  70
     8
  0
VERTEX
  8
0
  5
1A4
 10
3.92497
 20
1.55558
 30
0.000000
  70
    32
  0
VERTEX
  8
0
  5
1A5
 10
3.92816
 20
1.56435
 30
0.000000
  70
    32
  0
VERTEX
  8
0
  5
1A6
 10
3.93131
 20
1.57303
 30
0.000000
  70
    32
  0
VERTEX
  8
0
  5
1A7
 10
3.93440
 20
1.58162
 30
0.000000
  70
    32
  0
VERTEX
  8
0
  5
1A8
 10
3.93743
 20
1.59013
 30
0.000000
  70
    32
  0
VERTEX
  8
0
  5
1A9
 10
3.94038
 20
1.59854
 30
0.000000
  70
    32
  0
VERTEX
  8
0
  5
1AA
 10
3.94325
 20
1.60685
 30
0.000000
  70
    32
  0
VERTEX
  8
0
  5
1AB
 10
3.94602
 20
1.61507
 30
0.000000
  70
    32
  0
VERTEX
  8
0
  5
1AC
 10
3.94870
 20
1.62318
 30
0.000000
  70
    32
  0
VERTEX
  8
0
  5
1AD
 10
3.95126
 20
1.63120
 30
0.000000
  70
    32
  0
VERTEX
  8
0
  5
1AE
 10
3.95370
 20
1.63910
 30
0.000000
  70
    32
  0
VERTEX
  8
0
  5
1AF
 10
3.95601
 20
1.64690
 30
0.000000
  70
    32
  0
VERTEX
  8
0
  5
1B0
 10
3.95819
 20
1.65459
 30
0.000000
  70
    32
  0
VERTEX
  8
0
  5
1B1
 10
3.96022
 20
1.66217
 30
0.000000
  70
    32
  0
VERTEX
  8
0
  5
1B2
 10
3.96210
 20
1.66964
 30
0.000000
  70
    32
  0
VERTEX
  8
0
  5
1B3
 10
3.96382
 20
1.67699
 30
0.000000
  70
    32
  0
VERTEX
  8
0
  5
1B4
 10
3.96538
 20
1.68423
 30
0.000000
  70
    32
  0
VERTEX
  8
0
  5
1B5
 10
3.96677
 20
1.69134
 30
0.000000
  70
    32
  0
VERTEX
  8
0
  5
1B6
 10
3.96798
 20
1.69834
 30
0.000000
  70
    32
  0
VERTEX
  8
0
  5
1B7
 10
3.96900
 20
1.70521
 30
0.000000
  70
    32
  0
VERTEX
  8
0
  5
1B8
 10
3.96984
 20
1.71197
 30
0.000000
  70
    32
  0
VERTEX
  8
0
  5
1B9
 10
3.97049
 20
1.71860
 30
0.000000
  70
    32
  0
VERTEX
  8
0
  5
1BA
 10
3.97093
 20
1.72510
 30
0.000000
  70
    32
  0
VERTEX
  8
0
  5
1BB
 10
3.97117
 20
1.73148
 30
0.000000
  70
    32
  0
VERTEX
  8
0
  5
1BC
 10
3.97120
 20
1.73773
 30
0.000000
  70
    32
  0
VERTEX
  8
0
  5
1BD
 10
3.97102
 20
1.74385
 30
0.000000
  70
    32
  0
VERTEX
  8
0
  5
1BE
 10
3.97063
 20
1.74984
 30
0.000000
  70
    32
  0
VERTEX
  8
0
  5
1BF
 10
3.97001
 20
1.75570
 30
0.000000
  70
    32
  0
VERTEX
  8
0
  5
1C0
 10
3.96917
 20
1.76143
 30
0.000000
  70
    32
  0
VERTEX
  8
0
  5
1C1
 10
3.96811
 20
1.76703
 30
0.000000
  70
    32
  0
VERTEX
  8
0
  5
1C2
 10
3.96682
 20
1.77250
 30
0.000000
  70
    32
  0
VERTEX
  8
0
  5
1C3
 10
3.96529
 20
1.77783
 30
0.000000
  70
    32
  0
VERTEX
  8
0
  5
1C4
 10
3.96353
 20
1.78303
 30
0.000000
  70
    32
  0
VERTEX
  8
0
  5
1C5
 10
3.96154
 20
1.78810
 30
0.000000
  70
    32
  0
VERTEX
  8
0
  5
1C6
 10
3.95931
 20
1.79304
 30
0.000000
  70
    32
  0
VERTEX
  8
0
  5
1C7
 10
3.95685
 20
1.79784
 30
0.000000
  70
    32
  0
VERTEX
  8
0
  5
1C8
 10
3.95415
 20
1.80250
 30
0.000000
  70
    32
  0
VERTEX
  8
0
  5
1C9
 10
3.95120
 20
1.80704
 30
0.000000
  70
    32
  0
VERTEX
  8
0
  5
1CA
 10
3.94802
 20
1.81143
 30
0.000000
  70
    32
  0
VERTEX
  8
0
  5
1CB
 10
3.94460
 20
1.81570
 30
0.000000
  70
    32
  0
VERTEX
  8
0
  5
1CC
 10
3.94094
 20
1.81983
 30
0.000000
  70
    32
  0
VERTEX
  8
0
  5
1CD
 10
3.93704
 20
1.82383
 30
0.000000
  70
    32
  0
VERTEX
  8
0
  5
1CE
 10
3.93290
 20
1.82769
 30
0.000000
  70
    32
  0
VERTEX
  8
0
  5
1CF
 10
3.92853
 20
1.83143
 30
0.000000
  70
    32
  0
VERTEX
  8
0
  5
1D0
 10
3.92392
 20
1.83503
 30
0.000000
  70
    32
  0
VERTEX
  8
0
  5
1D1
 10
3.91908
 20
1.83850
 30
0.000000
  70
    32
  0
VERTEX
  8
0
  5
1D2
 10
3.91401
 20
1.84184
 30
0.000000
  70
    32
  0
VERTEX
  8
0
  5
1D3
 10
3.90871
 20
1.84505
 30
0.000000
  70
    32
  0
VERTEX
  8
0
  5
1D4
 10
3.90318
 20
1.84813
 30
0.000000
  70
    32
  0
VERTEX
  8
0
  5
1D5
 10
3.89742
 20
1.85108
 30
0.000000
  70
    32
  0
VERTEX
  8
0
  5
1D6
 10
3.89145
 20
1.85391
 30
0.000000
  70
    32
  0
VERTEX
  8
0
  5
1D7
 10
3.88526
 20
1.85661
 30
0.000000
  70
    32
  0
VERTEX
  8
0
  5
1D8
 10
3.87886
 20
1.85918
 30
0.000000
  70
    32
  0
VERTEX
  8
0
  5
1D9
 10
3.87225
 20
1.86164
 30
0.000000
  70
    32
  0
VERTEX
  8
0
  5
1DA
 10
3.86543
 20
1.86397
 30
0.000000
  70
    32
  0
VERTEX
  8
0
  5
1DB
 10
3.85842
 20
1.86618
 30
0.000000
  70
    32
  0
VERTEX
  8
0
  5
1DC
 10
3.85120
 20
1.86827
 30
0.000000
  70
    32
  0
VERTEX
  8
0
  5
1DD
 10
3.84380
 20
1.87024
 30
0.000000
  70
    32
  0
VERTEX
  8
0
  5
1DE
 10
3.83622
 20
1.87210
 30
0.000000
  70
    32
  0
VERTEX
  8
0
  5
1DF
 10
3.82845
 20
1.87385
 30
0.000000
  70
    32
  0
VERTEX
  8
0
  5
1E0
 10
3.82051
 20
1.87548
 30
0.000000
  70
    32
  0
VERTEX
  8
0
  5
1E1
 10
3.81241
 20
1.87700
 30
0.000000
  70
    32
  0
VERTEX
  8
0
  5
1E2
 10
3.80414
 20
1.87842
 30
0.000000
  70
    32
  0
VERTEX
  8
0
  5
1E3
 10
3.79573
 20
1.87973
 30
0.000000
  70
    32
  0
VERTEX
  8
0
  5
1E4
 10
3.78717
 20
1.88093
 30
0.000000
  70
    32
  0
VERTEX
  8
0
  5
1E5
 10
3.77847
 20
1.88204
 30
0.000000
  70
    32
  0
VERTEX
  8
0
  5
1E6
 10
3.76964
 20
1.88304
 30
0.000000
  70
    32
  0
VERTEX
  8
0
  5
1E7
 10
3.76069
 20
1.88395
 30
0.000000
  70
    32
  0
VERTEX
  8
0
  5
1E8
 10
3.75162
 20
1.88476
 30
0.000000
  70
    32
  0
VERTEX
  8
0
  5
1E9
 10
3.74246
 20
1.88548
 30
0.000000
  70
    32
  0
VERTEX
  8
0
  5
1EA
 10
3.73319
 20
1.88611
 30
0.000000
  70
    32
  0
VERTEX
  8
0
  5
1EB
 10
3.72384
 20
1.88666
 30
0.000000
  70
    32
  0
VERTEX
  8
0
  5
1EC
 10
3.71441
 20
1.88712
 30
0.000000
  70
    32
  0
VERTEX
  8
0
  5
1ED
 10
3.70492
 20
1.88750
 30
0.000000
  70
    32
  0
VERTEX
  8
0
  5
1EE
 10
3.69537
 20
1.88781
 30
0.000000
  70
    32
  0
VERTEX
  8
0
  5
1EF
 10
3.68577
 20
1.88804
 30
0.000000
  70
    32
  0
VERTEX
  8
0
  5
1F0
 10
3.67614
 20
1.88820
 30
0.000000
  70
    32
  0
VERTEX
  8
0
  5
1F1
 10
3.66648
 20
1.88829
 30
0.000000
  70
    32
  0
VERTEX
  8
0
  5
1F2
 10
3.65681
 20
1.88831
 30
0.000000
  70
    32
  0
VERTEX
  8
0
  5
1F3
 10
3.64714
 20
1.88827
 30
0.000000
  70
    32
  0
VERTEX
  8
0
  5
1F4
 10
3.63748
 20
1.88818
 30
0.000000
  70
    32
  0
VERTEX
  8
0
  5
1F5
 10
3.62784
 20
1.88803
 30
0.000000
  70
    32
  0
VERTEX
  8
0
  5
1F6
 10
3.61823
 20
1.88783
 30
0.000000
  70
    32
  0
VERTEX
  8
0
  5
1F7
 10
3.60868
 20
1.88758
 30
0.000000
  70
    32
  0
VERTEX
  8
0
  5
1F8
 10
3.59918
 20
1.88729
 30
0.000000
  70
    32
  0
VERTEX
  8
0
  5
1F9
 10
3.58976
 20
1.88696
 30
0.000000
  70
    32
  0
VERTEX
  8
0
  5
1FA
 10
3.58041
 20
1.88659
 30
0.000000
  70
    32
  0
VERTEX
  8
0
  5
1FB
 10
3.57116
 20
1.88619
 30
0.000000
  70
    32
  0
VERTEX
  8
0
  5
1FC
 10
3.56201
 20
1.88575
 30
0.000000
  70
    32
  0
VERTEX
  8
0
  5
1FD
 10
3.55297
 20
1.88529
 30
0.000000
  70
    32
  0
VERTEX
  8
0
  5
1FE
 10
3.54405
 20
1.88480
 30
0.000000
  70
    32
  0
VERTEX
  8
0
  5
1FF
 10
3.53526
 20
1.88429
 30
0.000000
  70
    32
  0
VERTEX
  8
0
  5
200
 10
3.52660
 20
1.88376
 30
0.000000
  70
    32
  0
VERTEX
  8
0
  5
201
 10
3.51809
 20
1.88322
 30
0.000000
  70
    32
  0
VERTEX
  8
0
  5
202
 10
3.50972
 20
1.88266
 30
0.000000
  70
    32
  0
VERTEX
  8
0
  5
203
 10
3.50151
 20
1.88208
 30
0.000000
  70
    32
  0
VERTEX
  8
0
  5
204
 10
3.49346
 20
1.88150
 30
0.000000
  70
    32
  0
VERTEX
  8
0
  5
205
 10
3.48558
 20
1.88090
 30
0.000000
  70
    32
  0
VERTEX
  8
0
  5
206
 10
3.47786
 20
1.88031
 30
0.000000
  70
    32
  0
VERTEX
  8
0
  5
207
 10
3.47032
 20
1.87970
 30
0.000000
  70
    32
  0
VERTEX
  8
0
  5
208
 10
3.46295
 20
1.87909
 30
0.000000
  70
    32
  0
VERTEX
  8
0
  5
209
 10
3.45577
 20
1.87848
 30
0.000000
  70
    32
  0
VERTEX
  8
0
  5
20A
 10
3.44876
 20
1.87788
 30
0.000000
  70
    32
  0
VERTEX
  8
0
  5
20B
 10
3.44194
 20
1.87727
 30
0.000000
  70
    32
  0
VERTEX
  8
0
  5
20C
 10
3.43530
 20
1.87666
 30
0.000000
  70
    32
  0
VERTEX
  8
0
  5
20D
 10
3.42885
 20
1.87606
 30
0.000000
  70
    32
  0
VERTEX
  8
0
  5
20E
 10
3.42258
 20
1.87547
 30
0.000000
  70
    32
  0
VERTEX
  8
0
  5
20F
 10
3.41650
 20
1.87488
 30
0.000000
  70
    32
  0
VERTEX
  8
0
  5
210
 10
3.41060
 20
1.87429
 30
0.000000
  70
    32
  0
VERTEX
  8
0
  5
211
 10
3.40488
 20
1.87371
 30
0.000000
  70
    32
  0
VERTEX
  8
0
  5
212
 10
3.39935
 20
1.87315
 30
0.000000
  70
    32
  0
VERTEX
  8
0
  5
213
 10
3.39399
 20
1.87258
 30
0.000000
  70
    32
  0
VERTEX
  8
0
  5
214
 10
3.38880
 20
1.87203
 30
0.000000
  70
    32
  0
VERTEX
  8
0
  5
215
 10
3.38378
 20
1.87149
 30
0.000000
  70
    32
  0
VERTEX
  8
0
  5
216
 10
3.37893
 20
1.87095
 30
0.000000
  70
    32
  0
VERTEX
  8
0
  5
217
 10
3.37424
 20
1.87043
 30
0.000000
  70
    32
  0
VERTEX
  8
0
  5
218
 10
3.36971
 20
1.86991
 30
0.000000
  70
    32
  0
VERTEX
  8
0
  5
219
 10
3.36533
 20
1.86940
 30
0.000000
  70
    32
  0
VERTEX
  8
0
  5
21A
 10
3.36108
 20
1.86890
 30
0.000000
  70
    32
  0
VERTEX
  8
0
  5
21B
 10
3.35698
 20
1.86841
 30
0.000000
  70
    32
  0
VERTEX
  8
0
  5
21C
 10
3.35301
 20
1.86792
 30
0.000000
  70
    32
  0
VERTEX
  8
0
  5
21D
 10
3.34915
 20
1.86745
 30
0.000000
  70
    32
  0
VERTEX
  8
0
  5
21E
 10
3.34541
 20
1.86697
 30
0.000000
  70
    32
  0
VERTEX
  8
0
  5
21F
 10
3.34177
 20
1.86651
 30
0.000000
  70
    32
  0
VERTEX
  8
0
  5
220
 10
3.33823
 20
1.86604
 30
0.000000
  70
    32
  0
VERTEX
  8
0
  5
221
 10
3.33477
 20
1.86558
 30
0.000000
  70
    32
  0
VERTEX
  8
0
  5
222
 10
3.33138
 20
1.86512
 30
0.000000
  70
    32
  0
VERTEX
  8
0
  5
223
 10
3.32805
 20
1.86466
 30
0.000000
  70
    32
  0
VERTEX
  8
0
  5
224
 10
3.32477
 20
1.86420
 30
0.000000
  70
    32
  0
VERTEX
  8
0
  5
225
 10
3.32153
 20
1.86373
 30
0.000000
  70
    32
  0
VERTEX
  8
0
  5
226
 10
3.31832
 20
1.86327
 30
0.000000
  70
    32
  0
VERTEX
  8
0
  5
227
 10
3.31511
 20
1.86279
 30
0.000000
  70
    32
  0
VERTEX
  8
0
  5
228
 10
3.31190
 20
1.86231
 30
0.000000
  70
    32
  0
VERTEX
  8
0
  5
229
 10
3.30868
 20
1.86181
 30
0.000000
  70
    32
  0
VERTEX
  8
0
  5
22A
 10
3.30542
 20
1.86131
 30
0.000000
  70
    32
  0
VERTEX
  8
0
  5
22B
 10
3.30211
 20
1.86079
 30
0.000000
  70
    32
  0
VERTEX
  8
0
  5
22C
 10
3.29874
 20
1.86025
 30
0.000000
  70
    32
  0
VERTEX
  8
0
  5
22D
 10
3.29529
 20
1.85969
 30
0.000000
  70
    32
  0
VERTEX
  8
0
  5
22E
 10
3.29173
 20
1.85911
 30
0.000000
  70
    32
  0
VERTEX
  8
0
  5
22F
 10
3.28807
 20
1.85850
 30
0.000000
  70
    32
  0
VERTEX
  8
0
  5
230
 10
3.28427
 20
1.85787
 30
0.000000
  70
    32
  0
VERTEX
  8
0
  5
231
 10
3.28031
 20
1.85721
 30
0.000000
  70
    32
  0
VERTEX
  8
0
  5
232
 10
3.27619
 20
1.85651
 30
0.000000
  70
    32
  0
VERTEX
  8
0
  5
233
 10
3.27187
 20
1.85578
 30
0.000000
  70
    32
  0
VERTEX
  8
0
  5
234
 10
3.26733
 20
1.85500
 30
0.000000
  70
    32
  0
VERTEX
  8
0
  5
235
 10
3.26257
 20
1.85418
 30
0.000000
  70
    32
  0
VERTEX
  8
0
  5
236
 10
3.25755
 20
1.85332
 30
0.000000
  70
    32
  0
VERTEX
  8
0
  5
237
 10
3.25225
 20
1.85240
 30
0.000000
  70
    32
  0
VERTEX
  8
0
  5
238
 10
3.24665
 20
1.85143
 30
0.000000
  70
    32
  0
VERTEX
  8
0
  5
239
 10
3.24073
 20
1.85040
 30
0.000000
  70
    32
  0
VERTEX
  8
0
  5
23A
 10
3.23446
 20
1.84931
 30
0.000000
  70
    32
  0
VERTEX
  8
0
  5
23B
 10
3.22782
 20
1.84815
 30
0.000000
  70
    32
  0
VERTEX
  8
0
  5
23C
 10
3.22079
 20
1.84693
 30
0.000000
  70
    32
  0
VERTEX
  8
0
  5
23D
 10
3.21333
 20
1.84562
 30
0.000000
  70
    32
  0
VERTEX
  8
0
  5
23E
 10
3.20543
 20
1.84424
 30
0.000000
  70
    32
  0
VERTEX
  8
0
  5
23F
 10
3.19705
 20
1.84278
 30
0.000000
  70
    32
  0
VERTEX
  8
0
  5
240
 10
3.18817
 20
1.84122
 30
0.000000
  70
    32
  0
VERTEX
  8
0
  5
241
 10
3.17877
 20
1.83958
 30
0.000000
  70
    32
  0
VERTEX
  8
0
  5
242
 10
3.16881
 20
1.83783
 30
0.000000
  70
    32
  0
VERTEX
  8
0
  5
243
 10
3.15827
 20
1.83599
 30
0.000000
  70
    32
  0
VERTEX
  8
0
  5
244
 10
3.14711
 20
1.83403
 30
0.000000
  70
    32
  0
VERTEX
  8
0
  5
245
 10
3.13531
 20
1.83196
 30
0.000000
  70
    32
  0
VERTEX
  8
0
  5
246
 10
3.12284
 20
1.82977
 30
0.000000
  70
    32
  0
VERTEX
  8
0
  5
247
 10
3.10966
 20
1.82746
 30
0.000000
  70
    32
  0
VERTEX
  8
0
  5
248
 10
3.09575
 20
1.82502
 30
0.000000
  70
    32
  0
VERTEX
  8
0
  5
249
 10
3.08107
 20
1.82245
 30
0.000000
  70
    32
  0
VERTEX
  8
0
  5
24A
 10
3.06559
 20
1.81973
 30
0.000000
  70
    32
  0
VERTEX
  8
0
  5
24B
 10
3.04928
 20
1.81687
 30
0.000000
  70
    32
  0
VERTEX
  8
0
  5
24C
 10
3.03211
 20
1.81385
 30
0.000000
  70
    32
  0
VERTEX
  8
0
  5
24D
 10
3.01404
 20
1.81067
 30
0.000000
  70
    32
  0
VERTEX
  8
0
  5
24E
 10
2.99503
 20
1.80733
 30
0.000000
  70
    32
  0
VERTEX
  8
0
  5
24F
 10
2.97505
 20
1.80382
 30
0.000000
  70
    32
  0
VERTEX
  8
0
  5
250
 10
2.95407
 20
1.80013
 30
0.000000
  70
    32
  0
VERTEX
  8
0
  5
251
 10
2.93205
 20
1.79626
 30
0.000000
  70
    32
  0
VERTEX
  8
0
  5
252
 10
2.90896
 20
1.79219
 30
0.000000
  70
    32
  0
VERTEX
  8
0
  5
253
 10
2.88475
 20
1.78793
 30
0.000000
  70
    32
  0
VERTEX
  8
0
  5
254
 10
2.85939
 20
1.78346
 30
0.000000
  70
    32
  0
VERTEX
  8
0
  5
255
 10
2.83284
 20
1.77879
 30
0.000000
  70
    32
  0
VERTEX
  8
0
  5
256
 10
2.80506
 20
1.77389
 30
0.000000
  70
    32
  0
VERTEX
  8
0
  5
257
 10
2.77601
 20
1.76876
 30
0.000000
  70
    32
  0
VERTEX
  8
0
  5
258
 10
2.74565
 20
1.76340
 30
0.000000
  70
    32
  0
VERTEX
  8
0
  5
259
 10
2.71395
 20
1.75781
 30
0.000000
  70
    32
  0
VERTEX
  8
0
  5
25A
 10
2.68085
 20
1.75196
 30
0.000000
  70
    32
  0
VERTEX
  8
0
  5
25B
 10
2.64633
 20
1.74586
 30
0.000000
  70
    32
  0
VERTEX
  8
0
  5
25C
 10
2.61033
 20
1.73949
 30
0.000000
  70
    32
  0
VERTEX
  8
0
  5
25D
 10
2.57282
 20
1.73285
 30
0.000000
  70
    32
  0
VERTEX
  8
0
  5
25E
 10
2.53375
 20
1.72593
 30
0.000000
  70
    32
  0
VERTEX
  8
0
  5
25F
 10
2.49308
 20
1.71872
 30
0.000000
  70
    32
  0
VERTEX
  8
0
  5
260
 10
2.45076
 20
1.71122
 30
0.000000
  70
    32
  0
VERTEX
  8
0
  5
261
 10
2.40676
 20
1.70341
 30
0.000000
  70
    32
  0
VERTEX
  8
0
  5
262
 10
2.36101
 20
1.69529
 30
0.000000
  70
    32
  0
VERTEX
  8
0
  5
263
 10
2.31349
 20
1.68684
 30
0.000000
  70
    32
  0
SEQEND
  8
0
  5
264
  0
ARC
  5
D8
  8
0
 10
5.2082648781103771
 20
1.0618396068190901
 30
0.0
 40
1.3749999999999989
 50
158.95607571371531
 51
307.14856683888348
  0
POLYLINE
  8
0
  5
265
  66
     1
 10
0.000000
 20
0.000000
 30
0.000000
  70
     8
  0
VERTEX
  8
0
  5
266
 10
-2.05401
 20
-1.88361
 30
0.000000
  70
    32
  0
VERTEX
  8
0
  5
267
 10
-2.02522
 20
-1.88257
 30
0.000000
  70
    32
  0
VERTEX
  8
0
  5
268
 10
-1.99626
 20
-1.88160
 30
0.000000
  70
    32
  0
VERTEX
  8
0
  5
269
 10
-1.96713
 20
-1.88071
 30
0.000000
  70
    32
  0
VERTEX
  8
0
  5
26A
 10
-1.93784
 20
-1.87988
 30
0.000000
  70
    32
  0
VERTEX
  8
0
  5
26B
 10
-1.90838
 20
-1.87913
 30
0.000000
  70
    32
  0
VERTEX
  8
0
  5
26C
 10
-1.87876
 20
-1.87845
 30
0.000000
  70
    32
  0
VERTEX
  8
0
  5
26D
 10
-1.84899
 20
-1.87784
 30
0.000000
  70
    32
  0
VERTEX
  8
0
  5
26E
 10
-1.81905
 20
-1.87730
 30
0.000000
  70
    32
  0
VERTEX
  8
0
  5
26F
 10
-1.78895
 20
-1.87682
 30
0.000000
  70
    32
  0
VERTEX
  8
0
  5
270
 10
-1.75869
 20
-1.87640
 30
0.000000
  70
    32
  0
VERTEX
  8
0
  5
271
 10
-1.72828
 20
-1.87604
 30
0.000000
  70
    32
  0
VERTEX
  8
0
  5
272
 10
-1.69772
 20
-1.87575
 30
0.000000
  70
    32
  0
VERTEX
  8
0
  5
273
 10
-1.66700
 20
-1.87552
 30
0.000000
  70
    32
  0
VERTEX
  8
0
  5
274
 10
-1.63612
 20
-1.87534
 30
0.000000
  70
    32
  0
VERTEX
  8
0
  5
275
 10
-1.60510
 20
-1.87523
 30
0.000000
  70
    32
  0
VERTEX
  8
0
  5
276
 10
-1.57392
 20
-1.87516
 30
0.000000
  70
    32
  0
VERTEX
  8
0
  5
277
 10
-1.54260
 20
-1.87515
 30
0.000000
  70
    32
  0
VERTEX
  8
0
  5
278
 10
-1.51113
 20
-1.87520
 30
0.000000
  70
    32
  0
VERTEX
  8
0
  5
279
 10
-1.47951
 20
-1.87530
 30
0.000000
  70
    32
  0
VERTEX
  8
0
  5
27A
 10
-1.44775
 20
-1.87544
 30
0.000000
  70
    32
  0
VERTEX
  8
0
  5
27B
 10
-1.41584
 20
-1.87564
 30
0.000000
  70
    32
  0
VERTEX
  8
0
  5
27C
 10
-1.38379
 20
-1.87589
 30
0.000000
  70
    32
  0
VERTEX
  8
0
  5
27D
 10
-1.35161
 20
-1.87618
 30
0.000000
  70
    32
  0
VERTEX
  8
0
  5
27E
 10
-1.31928
 20
-1.87652
 30
0.000000
  70
    32
  0
VERTEX
  8
0
  5
27F
 10
-1.28681
 20
-1.87690
 30
0.000000
  70
    32
  0
VERTEX
  8
0
  5
280
 10
-1.25421
 20
-1.87733
 30
0.000000
  70
    32
  0
VERTEX
  8
0
  5
281
 10
-1.22147
 20
-1.87780
 30
0.000000
  70
    32
  0
VERTEX
  8
0
  5
282
 10
-1.18860
 20
-1.87831
 30
0.000000
  70
    32
  0
VERTEX
  8
0
  5
283
 10
-1.15559
 20
-1.87886
 30
0.000000
  70
    32
  0
VERTEX
  8
0
  5
284
 10
-1.12246
 20
-1.87945
 30
0.000000
  70
    32
  0
VERTEX
  8
0
  5
285
 10
-1.08919
 20
-1.88008
 30
0.000000
  70
    32
  0
VERTEX
  8
0
  5
286
 10
-1.05580
 20
-1.88075
 30
0.000000
  70
    32
  0
VERTEX
  8
0
  5
287
 10
-1.02228
 20
-1.88145
 30
0.000000
  70
    32
  0
VERTEX
  8
0
  5
288
 10
-0.988637
 20
-1.88219
 30
0.000000
  70
    32
  0
VERTEX
  8
0
  5
289
 10
-0.954868
 20
-1.88297
 30
0.000000
  70
    32
  0
VERTEX
  8
0
  5
28A
 10
-0.920978
 20
-1.88378
 30
0.000000
  70
    32
  0
VERTEX
  8
0
  5
28B
 10
-0.886967
 20
-1.88462
 30
0.000000
  70
    32
  0
VERTEX
  8
0
  5
28C
 10
-0.852838
 20
-1.88550
 30
0.000000
  70
    32
  0
VERTEX
  8
0
  5
28D
 10
-0.818590
 20
-1.88640
 30
0.000000
  70
    32
  0
VERTEX
  8
0
  5
28E
 10
-0.784227
 20
-1.88734
 30
0.000000
  70
    32
  0
VERTEX
  8
0
  5
28F
 10
-0.749750
 20
-1.88831
 30
0.000000
  70
    32
  0
VERTEX
  8
0
  5
290
 10
-0.715159
 20
-1.88931
 30
0.000000
  70
    32
  0
VERTEX
  8
0
  5
291
 10
-0.680458
 20
-1.89033
 30
0.000000
  70
    32
  0
VERTEX
  8
0
  5
292
 10
-0.645647
 20
-1.89139
 30
0.000000
  70
    32
  0
VERTEX
  8
0
  5
293
 10
-0.610728
 20
-1.89247
 30
0.000000
  70
    32
  0
VERTEX
  8
0
  5
294
 10
-0.575702
 20
-1.89358
 30
0.000000
  70
    32
  0
VERTEX
  8
0
  5
295
 10
-0.540572
 20
-1.89471
 30
0.000000
  70
    32
  0
VERTEX
  8
0
  5
296
 10
-0.505339
 20
-1.89587
 30
0.000000
  70
    32
  0
VERTEX
  8
0
  5
297
 10
-0.470004
 20
-1.89705
 30
0.000000
  70
    32
  0
VERTEX
  8
0
  5
298
 10
-0.434570
 20
-1.89826
 30
0.000000
  70
    32
  0
VERTEX
  8
0
  5
299
 10
-0.399038
 20
-1.89949
 30
0.000000
  70
    32
  0
VERTEX
  8
0
  5
29A
 10
-0.363409
 20
-1.90075
 30
0.000000
  70
    32
  0
VERTEX
  8
0
  5
29B
 10
-0.327686
 20
-1.90203
 30
0.000000
  70
    32
  0
VERTEX
  8
0
  5
29C
 10
-0.291869
 20
-1.90333
 30
0.000000
  70
    32
  0
VERTEX
  8
0
  5
29D
 10
-0.255962
 20
-1.90465
 30
0.000000
  70
    32
  0
VERTEX
  8
0
  5
29E
 10
-0.219965
 20
-1.90599
 30
0.000000
  70
    32
  0
VERTEX
  8
0
  5
29F
 10
-0.183880
 20
-1.90736
 30
0.000000
  70
    32
  0
VERTEX
  8
0
  5
2A0
 10
-0.147709
 20
-1.90875
 30
0.000000
  70
    32
  0
VERTEX
  8
0
  5
2A1
 10
-0.111454
 20
-1.91015
 30
0.000000
  70
    32
  0
VERTEX
  8
0
  5
2A2
 10
-0.0751171
 20
-1.91158
 30
0.000000
  70
    32
  0
VERTEX
  8
0
  5
2A3
 10
-0.0386992
 20
-1.91302
 30
0.000000
  70
    32
  0
VERTEX
  8
0
  5
2A4
 10
-0.00220246
 20
-1.91449
 30
0.000000
  70
    32
  0
VERTEX
  8
0
  5
2A5
 10
0.0343713
 20
-1.91597
 30
0.000000
  70
    32
  0
VERTEX
  8
0
  5
2A6
 10
0.0710201
 20
-1.91748
 30
0.000000
  70
    32
  0
VERTEX
  8
0
  5
2A7
 10
0.107742
 20
-1.91900
 30
0.000000
  70
    32
  0
VERTEX
  8
0
  5
2A8
 10
0.144536
 20
-1.92054
 30
0.000000
  70
    32
  0
VERTEX
  8
0
  5
2A9
 10
0.181399
 20
-1.92210
 30
0.000000
  70
    32
  0
VERTEX
  8
0
  5
2AA
 10
0.218330
 20
-1.92367
 30
0.000000
  70
    32
  0
VERTEX
  8
0
  5
2AB
 10
0.255327
 20
-1.92527
 30
0.000000
  70
    32
  0
VERTEX
  8
0
  5
2AC
 10
0.292388
 20
-1.92688
 30
0.000000
  70
    32
  0
VERTEX
  8
0
  5
2AD
 10
0.329511
 20
-1.92851
 30
0.000000
  70
    32
  0
VERTEX
  8
0
  5
2AE
 10
0.366694
 20
-1.93016
 30
0.000000
  70
    32
  0
VERTEX
  8
0
  5
2AF
 10
0.403935
 20
-1.93182
 30
0.000000
  70
    32
  0
VERTEX
  8
0
  5
2B0
 10
0.441232
 20
-1.93351
 30
0.000000
  70
    32
  0
VERTEX
  8
0
  5
2B1
 10
0.478584
 20
-1.93521
 30
0.000000
  70
    32
  0
VERTEX
  8
0
  5
2B2
 10
0.515988
 20
-1.93693
 30
0.000000
  70
    32
  0
VERTEX
  8
0
  5
2B3
 10
0.553442
 20
-1.93866
 30
0.000000
  70
    32
  0
VERTEX
  8
0
  5
2B4
 10
0.590945
 20
-1.94042
 30
0.000000
  70
    32
  0
VERTEX
  8
0
  5
2B5
 10
0.628494
 20
-1.94219
 30
0.000000
  70
    32
  0
VERTEX
  8
0
  5
2B6
 10
0.666087
 20
-1.94398
 30
0.000000
  70
    32
  0
VERTEX
  8
0
  5
2B7
 10
0.703723
 20
-1.94579
 30
0.000000
  70
    32
  0
VERTEX
  8
0
  5
2B8
 10
0.741399
 20
-1.94762
 30
0.000000
  70
    32
  0
VERTEX
  8
0
  5
2B9
 10
0.779113
 20
-1.94946
 30
0.000000
  70
    32
  0
VERTEX
  8
0
  5
2BA
 10
0.816863
 20
-1.95133
 30
0.000000
  70
    32
  0
VERTEX
  8
0
  5
2BB
 10
0.854648
 20
-1.95321
 30
0.000000
  70
    32
  0
VERTEX
  8
0
  5
2BC
 10
0.892464
 20
-1.95511
 30
0.000000
  70
    32
  0
VERTEX
  8
0
  5
2BD
 10
0.930310
 20
-1.95703
 30
0.000000
  70
    32
  0
VERTEX
  8
0
  5
2BE
 10
0.968185
 20
-1.95897
 30
0.000000
  70
    32
  0
VERTEX
  8
0
  5
2BF
 10
1.00608
 20
-1.96093
 30
0.000000
  70
    32
  0
VERTEX
  8
0
  5
2C0
 10
1.04401
 20
-1.96291
 30
0.000000
  70
    32
  0
VERTEX
  8
0
  5
2C1
 10
1.08195
 20
-1.96492
 30
0.000000
  70
    32
  0
VERTEX
  8
0
  5
2C2
 10
1.11992
 20
-1.96694
 30
0.000000
  70
    32
  0
VERTEX
  8
0
  5
2C3
 10
1.15790
 20
-1.96899
 30
0.000000
  70
    32
  0
VERTEX
  8
0
  5
2C4
 10
1.19590
 20
-1.97105
 30
0.000000
  70
    32
  0
VERTEX
  8
0
  5
2C5
 10
1.23390
 20
-1.97314
 30
0.000000
  70
    32
  0
VERTEX
  8
0
  5
2C6
 10
1.27192
 20
-1.97525
 30
0.000000
  70
    32
  0
VERTEX
  8
0
  5
2C7
 10
1.30995
 20
-1.97739
 30
0.000000
  70
    32
  0
VERTEX
  8
0
  5
2C8
 10
1.34799
 20
-1.97955
 30
0.000000
  70
    32
  0
VERTEX
  8
0
  5
2C9
 10
1.38603
 20
-1.98173
 30
0.000000
  70
    32
  0
VERTEX
  8
0
  5
2CA
 10
1.42407
 20
-1.98394
 30
0.000000
  70
    32
  0
VERTEX
  8
0
  5
2CB
 10
1.46210
 20
-1.98617
 30
0.000000
  70
    32
  0
VERTEX
  8
0
  5
2CC
 10
1.50014
 20
-1.98843
 30
0.000000
  70
    32
  0
VERTEX
  8
0
  5
2CD
 10
1.53817
 20
-1.99072
 30
0.000000
  70
    32
  0
VERTEX
  8
0
  5
2CE
 10
1.57620
 20
-1.99303
 30
0.000000
  70
    32
  0
VERTEX
  8
0
  5
2CF
 10
1.61421
 20
-1.99538
 30
0.000000
  70
    32
  0
VERTEX
  8
0
  5
2D0
 10
1.65221
 20
-1.99775
 30
0.000000
  70
    32
  0
VERTEX
  8
0
  5
2D1
 10
1.69020
 20
-2.00015
 30
0.000000
  70
    32
  0
VERTEX
  8
0
  5
2D2
 10
1.72817
 20
-2.00258
 30
0.000000
  70
    32
  0
VERTEX
  8
0
  5
2D3
 10
1.76613
 20
-2.00504
 30
0.000000
  70
    32
  0
VERTEX
  8
0
  5
2D4
 10
1.80406
 20
-2.00753
 30
0.000000
  70
    32
  0
VERTEX
  8
0
  5
2D5
 10
1.84197
 20
-2.01006
 30
0.000000
  70
    32
  0
VERTEX
  8
0
  5
2D6
 10
1.87985
 20
-2.01262
 30
0.000000
  70
    32
  0
VERTEX
  8
0
  5
2D7
 10
1.91770
 20
-2.01521
 30
0.000000
  70
    32
  0
VERTEX
  8
0
  5
2D8
 10
1.95552
 20
-2.01784
 30
0.000000
  70
    32
  0
VERTEX
  8
0
  5
2D9
 10
1.99331
 20
-2.02050
 30
0.000000
  70
    32
  0
VERTEX
  8
0
  5
2DA
 10
2.03107
 20
-2.02320
 30
0.000000
  70
    32
  0
VERTEX
  8
0
  5
2DB
 10
2.06878
 20
-2.02594
 30
0.000000
  70
    32
  0
VERTEX
  8
0
  5
2DC
 10
2.10645
 20
-2.02872
 30
0.000000
  70
    32
  0
VERTEX
  8
0
  5
2DD
 10
2.14409
 20
-2.03154
 30
0.000000
  70
    32
  0
VERTEX
  8
0
  5
2DE
 10
2.18167
 20
-2.03440
 30
0.000000
  70
    32
  0
VERTEX
  8
0
  5
2DF
 10
2.21921
 20
-2.03730
 30
0.000000
  70
    32
  0
VERTEX
  8
0
  5
2E0
 10
2.25670
 20
-2.04024
 30
0.000000
  70
    32
  0
VERTEX
  8
0
  5
2E1
 10
2.29413
 20
-2.04322
 30
0.000000
  70
    32
  0
VERTEX
  8
0
  5
2E2
 10
2.33151
 20
-2.04626
 30
0.000000
  70
    32
  0
VERTEX
  8
0
  5
2E3
 10
2.36883
 20
-2.04933
 30
0.000000
  70
    32
  0
VERTEX
  8
0
  5
2E4
 10
2.40609
 20
-2.05246
 30
0.000000
  70
    32
  0
VERTEX
  8
0
  5
2E5
 10
2.44329
 20
-2.05563
 30
0.000000
  70
    32
  0
VERTEX
  8
0
  5
2E6
 10
2.48042
 20
-2.05885
 30
0.000000
  70
    32
  0
VERTEX
  8
0
  5
2E7
 10
2.51749
 20
-2.06213
 30
0.000000
  70
    32
  0
VERTEX
  8
0
  5
2E8
 10
2.55448
 20
-2.06545
 30
0.000000
  70
    32
  0
VERTEX
  8
0
  5
2E9
 10
2.59140
 20
-2.06883
 30
0.000000
  70
    32
  0
VERTEX
  8
0
  5
2EA
 10
2.62823
 20
-2.07226
 30
0.000000
  70
    32
  0
VERTEX
  8
0
  5
2EB
 10
2.66499
 20
-2.07574
 30
0.000000
  70
    32
  0
VERTEX
  8
0
  5
2EC
 10
2.70167
 20
-2.07927
 30
0.000000
  70
    32
  0
VERTEX
  8
0
  5
2ED
 10
2.73825
 20
-2.08286
 30
0.000000
  70
    32
  0
VERTEX
  8
0
  5
2EE
 10
2.77474
 20
-2.08651
 30
0.000000
  70
    32
  0
VERTEX
  8
0
  5
2EF
 10
2.81114
 20
-2.09021
 30
0.000000
  70
    32
  0
VERTEX
  8
0
  5
2F0
 10
2.84744
 20
-2.09396
 30
0.000000
  70
    32
  0
VERTEX
  8
0
  5
2F1
 10
2.88363
 20
-2.09777
 30
0.000000
  70
    32
  0
VERTEX
  8
0
  5
2F2
 10
2.91971
 20
-2.10163
 30
0.000000
  70
    32
  0
VERTEX
  8
0
  5
2F3
 10
2.95568
 20
-2.10554
 30
0.000000
  70
    32
  0
VERTEX
  8
0
  5
2F4
 10
2.99154
 20
-2.10951
 30
0.000000
  70
    32
  0
VERTEX
  8
0
  5
2F5
 10
3.02727
 20
-2.11353
 30
0.000000
  70
    32
  0
VERTEX
  8
0
  5
2F6
 10
3.06287
 20
-2.11761
 30
0.000000
  70
    32
  0
VERTEX
  8
0
  5
2F7
 10
3.09834
 20
-2.12173
 30
0.000000
  70
    32
  0
VERTEX
  8
0
  5
2F8
 10
3.13367
 20
-2.12591
 30
0.000000
  70
    32
  0
VERTEX
  8
0
  5
2F9
 10
3.16886
 20
-2.13013
 30
0.000000
  70
    32
  0
VERTEX
  8
0
  5
2FA
 10
3.20391
 20
-2.13441
 30
0.000000
  70
    32
  0
VERTEX
  8
0
  5
2FB
 10
3.23879
 20
-2.13873
 30
0.000000
  70
    32
  0
VERTEX
  8
0
  5
2FC
 10
3.27352
 20
-2.14310
 30
0.000000
  70
    32
  0
VERTEX
  8
0
  5
2FD
 10
3.30808
 20
-2.14751
 30
0.000000
  70
    32
  0
VERTEX
  8
0
  5
2FE
 10
3.34247
 20
-2.15197
 30
0.000000
  70
    32
  0
VERTEX
  8
0
  5
2FF
 10
3.37668
 20
-2.15647
 30
0.000000
  70
    32
  0
VERTEX
  8
0
  5
300
 10
3.41071
 20
-2.16101
 30
0.000000
  70
    32
  0
VERTEX
  8
0
  5
301
 10
3.44455
 20
-2.16559
 30
0.000000
  70
    32
  0
VERTEX
  8
0
  5
302
 10
3.47819
 20
-2.17021
 30
0.000000
  70
    32
  0
VERTEX
  8
0
  5
303
 10
3.51163
 20
-2.17486
 30
0.000000
  70
    32
  0
VERTEX
  8
0
  5
304
 10
3.54485
 20
-2.17954
 30
0.000000
  70
    32
  0
VERTEX
  8
0
  5
305
 10
3.57786
 20
-2.18425
 30
0.000000
  70
    32
  0
VERTEX
  8
0
  5
306
 10
3.61064
 20
-2.18899
 30
0.000000
  70
    32
  0
VERTEX
  8
0
  5
307
 10
3.64319
 20
-2.19376
 30
0.000000
  70
    32
  0
VERTEX
  8
0
  5
308
 10
3.67550
 20
-2.19855
 30
0.000000
  70
    32
  0
VERTEX
  8
0
  5
309
 10
3.70756
 20
-2.20336
 30
0.000000
  70
    32
  0
VERTEX
  8
0
  5
30A
 10
3.73937
 20
-2.20819
 30
0.000000
  70
    32
  0
VERTEX
  8
0
  5
30B
 10
3.77092
 20
-2.21304
 30
0.000000
  70
    32
  0
VERTEX
  8
0
  5
30C
 10
3.80219
 20
-2.21789
 30
0.000000
  70
    32
  0
VERTEX
  8
0
  5
30D
 10
3.83319
 20
-2.22276
 30
0.000000
  70
    32
  0
VERTEX
  8
0
  5
30E
 10
3.86390
 20
-2.22763
 30
0.000000
  70
    32
  0
VERTEX
  8
0
  5
30F
 10
3.89431
 20
-2.23251
 30
0.000000
  70
    32
  0
VERTEX
  8
0
  5
310
 10
3.92442
 20
-2.23738
 30
0.000000
  70
    32
  0
VERTEX
  8
0
  5
311
 10
3.95422
 20
-2.24225
 30
0.000000
  70
    32
  0
VERTEX
  8
0
  5
312
 10
3.98369
 20
-2.24711
 30
0.000000
  70
    32
  0
VERTEX
  8
0
  5
313
 10
4.01283
 20
-2.25197
 30
0.000000
  70
    32
  0
VERTEX
  8
0
  5
314
 10
4.04164
 20
-2.25680
 30
0.000000
  70
    32
  0
VERTEX
  8
0
  5
315
 10
4.07009
 20
-2.26162
 30
0.000000
  70
    32
  0
VERTEX
  8
0
  5
316
 10
4.09819
 20
-2.26641
 30
0.000000
  70
    32
  0
VERTEX
  8
0
  5
317
 10
4.12592
 20
-2.27118
 30
0.000000
  70
    32
  0
VERTEX
  8
0
  5
318
 10
4.15327
 20
-2.27592
 30
0.000000
  70
    32
  0
VERTEX
  8
0
  5
319
 10
4.18024
 20
-2.28062
 30
0.000000
  70
    32
  0
VERTEX
  8
0
  5
31A
 10
4.20680
 20
-2.28528
 30
0.000000
  70
    32
  0
VERTEX
  8
0
  5
31B
 10
4.23296
 20
-2.28990
 30
0.000000
  70
    32
  0
VERTEX
  8
0
  5
31C
 10
4.25870
 20
-2.29447
 30
0.000000
  70
    32
  0
VERTEX
  8
0
  5
31D
 10
4.28402
 20
-2.29898
 30
0.000000
  70
    32
  0
VERTEX
  8
0
  5
31E
 10
4.30889
 20
-2.30344
 30
0.000000
  70
    32
  0
VERTEX
  8
0
  5
31F
 10
4.33332
 20
-2.30783
 30
0.000000
  70
    32
  0
VERTEX
  8
0
  5
320
 10
4.35730
 20
-2.31215
 30
0.000000
  70
    32
  0
VERTEX
  8
0
  5
321
 10
4.38081
 20
-2.31641
 30
0.000000
  70
    32
  0
VERTEX
  8
0
  5
322
 10
4.40385
 20
-2.32058
 30
0.000000
  70
    32
  0
VERTEX
  8
0
  5
323
 10
4.42641
 20
-2.32468
 30
0.000000
  70
    32
  0
VERTEX
  8
0
  5
324
 10
4.44850
 20
-2.32869
 30
0.000000
  70
    32
  0
VERTEX
  8
0
  5
325
 10
4.47011
 20
-2.33261
 30
0.000000
  70
    32
  0
VERTEX
  8
0
  5
326
 10
4.49123
 20
-2.33644
 30
0.000000
  70
    32
  0
VERTEX
  8
0
  5
327
 10
4.51186
 20
-2.34018
 30
0.000000
  70
    32
  0
VERTEX
  8
0
  5
328
 10
4.53201
 20
-2.34381
 30
0.000000
  70
    32
  0
VERTEX
  8
0
  5
329
 10
4.55168
 20
-2.34734
 30
0.000000
  70
    32
  0
VERTEX
  8
0
  5
32A
 10
4.57086
 20
-2.35076
 30
0.000000
  70
    32
  0
VERTEX
  8
0
  5
32B
 10
4.58956
 20
-2.35408
 30
0.000000
  70
    32
  0
VERTEX
  8
0
  5
32C
 10
4.60778
 20
-2.35727
 30
0.000000
  70
    32
  0
VERTEX
  8
0
  5
32D
 10
4.62553
 20
-2.36036
 30
0.000000
  70
    32
  0
VERTEX
  8
0
  5
32E
 10
4.64282
 20
-2.36332
 30
0.000000
  70
    32
  0
VERTEX
  8
0
  5
32F
 10
4.65964
 20
-2.36616
 30
0.000000
  70
    32
  0
VERTEX
  8
0
  5
330
 10
4.67602
 20
-2.36888
 30
0.000000
  70
    32
  0
VERTEX
  8
0
  5
331
 10
4.69194
 20
-2.37146
 30
0.000000
  70
    32
  0
VERTEX
  8
0
  5
332
 10
4.70744
 20
-2.37392
 30
0.000000
  70
    32
  0
VERTEX
  8
0
  5
333
 10
4.72251
 20
-2.37624
 30
0.000000
  70
    32
  0
VERTEX
  8
0
  5
334
 10
4.73717
 20
-2.37843
 30
0.000000
  70
    32
  0
VERTEX
  8
0
  5
335
 10
4.75143
 20
-2.38049
 30
0.000000
  70
    32
  0
VERTEX
  8
0
  5
336
 10
4.76531
 20
-2.38240
 30
0.000000
  70
    32
  0
VERTEX
  8
0
  5
337
 10
4.77881
 20
-2.38417
 30
0.000000
  70
    32
  0
VERTEX
  8
0
  5
338
 10
4.79196
 20
-2.38580
 30
0.000000
  70
    32
  0
VERTEX
  8
0
  5
339
 10
4.80478
 20
-2.38728
 30
0.000000
  70
    32
  0
VERTEX
  8
0
  5
33A
 10
4.81727
 20
-2.38862
 30
0.000000
  70
    32
  0
VERTEX
  8
0
  5
33B
 10
4.82946
 20
-2.38981
 30
0.000000
  70
    32
  0
VERTEX
  8
0
  5
33C
 10
4.84137
 20
-2.39085
 30
0.000000
  70
    32
  0
VERTEX
  8
0
  5
33D
 10
4.85302
 20
-2.39174
 30
0.000000
  70
    32
  0
VERTEX
  8
0
  5
33E
 10
4.86442
 20
-2.39247
 30
0.000000
  70
    32
  0
VERTEX
  8
0
  5
33F
 10
4.87561
 20
-2.39306
 30
0.000000
  70
    32
  0
VERTEX
  8
0
  5
340
 10
4.88661
 20
-2.39349
 30
0.000000
  70
    32
  0
VERTEX
  8
0
  5
341
 10
4.89744
 20
-2.39377
 30
0.000000
  70
    32
  0
VERTEX
  8
0
  5
342
 10
4.90812
 20
-2.39389
 30
0.000000
  70
    32
  0
VERTEX
  8
0
  5
343
 10
4.91869
 20
-2.39385
 30
0.000000
  70
    32
  0
VERTEX
  8
0
  5
344
 10
4.92917
 20
-2.39366
 30
0.000000
  70
    32
  0
VERTEX
  8
0
  5
345
 10
4.93959
 20
-2.39331
 30
0.000000
  70
    32
  0
VERTEX
  8
0
  5
346
 10
4.94998
 20
-2.39281
 30
0.000000
  70
    32
  0
VERTEX
  8
0
  5
347
 10
4.96036
 20
-2.39214
 30
0.000000
  70
    32
  0
VERTEX
  8
0
  5
348
 10
4.97078
 20
-2.39132
 30
0.000000
  70
    32
  0
VERTEX
  8
0
  5
349
 10
4.98127
 20
-2.39035
 30
0.000000
  70
    32
  0
VERTEX
  8
0
  5
34A
 10
4.99185
 20
-2.38921
 30
0.000000
  70
    32
  0
VERTEX
  8
0
  5
34B
 10
5.00257
 20
-2.38792
 30
0.000000
  70
    32
  0
VERTEX
  8
0
  5
34C
 10
5.01344
 20
-2.38647
 30
0.000000
  70
    32
  0
VERTEX
  8
0
  5
34D
 10
5.02452
 20
-2.38487
 30
0.000000
  70
    32
  0
VERTEX
  8
0
  5
34E
 10
5.03581
 20
-2.38310
 30
0.000000
  70
    32
  0
VERTEX
  8
0
  5
34F
 10
5.04735
 20
-2.38117
 30
0.000000
  70
    32
  0
VERTEX
  8
0
  5
350
 10
5.05915
 20
-2.37907
 30
0.000000
  70
    32
  0
VERTEX
  8
0
  5
351
 10
5.07124
 20
-2.37680
 30
0.000000
  70
    32
  0
VERTEX
  8
0
  5
352
 10
5.08364
 20
-2.37435
 30
0.000000
  70
    32
  0
VERTEX
  8
0
  5
353
 10
5.09635
 20
-2.37172
 30
0.000000
  70
    32
  0
VERTEX
  8
0
  5
354
 10
5.10940
 20
-2.36891
 30
0.000000
  70
    32
  0
VERTEX
  8
0
  5
355
 10
5.12279
 20
-2.36589
 30
0.000000
  70
    32
  0
VERTEX
  8
0
  5
356
 10
5.13652
 20
-2.36267
 30
0.000000
  70
    32
  0
VERTEX
  8
0
  5
357
 10
5.15061
 20
-2.35924
 30
0.000000
  70
    32
  0
VERTEX
  8
0
  5
358
 10
5.16506
 20
-2.35558
 30
0.000000
  70
    32
  0
VERTEX
  8
0
  5
359
 10
5.17986
 20
-2.35169
 30
0.000000
  70
    32
  0
VERTEX
  8
0
  5
35A
 10
5.19501
 20
-2.34755
 30
0.000000
  70
    32
  0
VERTEX
  8
0
  5
35B
 10
5.21051
 20
-2.34315
 30
0.000000
  70
    32
  0
VERTEX
  8
0
  5
35C
 10
5.22635
 20
-2.33848
 30
0.000000
  70
    32
  0
VERTEX
  8
0
  5
35D
 10
5.24251
 20
-2.33353
 30
0.000000
  70
    32
  0
VERTEX
  8
0
  5
35E
 10
5.25900
 20
-2.32828
 30
0.000000
  70
    32
  0
VERTEX
  8
0
  5
35F
 10
5.27579
 20
-2.32271
 30
0.000000
  70
    32
  0
VERTEX
  8
0
  5
360
 10
5.29286
 20
-2.31681
 30
0.000000
  70
    32
  0
VERTEX
  8
0
  5
361
 10
5.31019
 20
-2.31057
 30
0.000000
  70
    32
  0
VERTEX
  8
0
  5
362
 10
5.32777
 20
-2.30396
 30
0.000000
  70
    32
  0
VERTEX
  8
0
  5
363
 10
5.34558
 20
-2.29698
 30
0.000000
  70
    32
  0
VERTEX
  8
0
  5
364
 10
5.36359
 20
-2.28961
 30
0.000000
  70
    32
  0
VERTEX
  8
0
  5
365
 10
5.38179
 20
-2.28184
 30
0.000000
  70
    32
  0
VERTEX
  8
0
  5
366
 10
5.40015
 20
-2.27366
 30
0.000000
  70
    32
  0
VERTEX
  8
0
  5
367
 10
5.41866
 20
-2.26506
 30
0.000000
  70
    32
  0
VERTEX
  8
0
  5
368
 10
5.43730
 20
-2.25603
 30
0.000000
  70
    32
  0
VERTEX
  8
0
  5
369
 10
5.45605
 20
-2.24658
 30
0.000000
  70
    32
  0
VERTEX
  8
0
  5
36A
 10
5.47490
 20
-2.23669
 30
0.000000
  70
    32
  0
VERTEX
  8
0
  5
36B
 10
5.49381
 20
-2.22637
 30
0.000000
  70
    32
  0
VERTEX
  8
0
  5
36C
 10
5.51278
 20
-2.21560
 30
0.000000
  70
    32
  0
VERTEX
  8
0
  5
36D
 10
5.53179
 20
-2.20440
 30
0.000000
  70
    32
  0
VERTEX
  8
0
  5
36E
 10
5.55082
 20
-2.19276
 30
0.000000
  70
    32
  0
VERTEX
  8
0
  5
36F
 10
5.56985
 20
-2.18069
 30
0.000000
  70
    32
  0
VERTEX
  8
0
  5
370
 10
5.58886
 20
-2.16819
 30
0.000000
  70
    32
  0
VERTEX
  8
0
  5
371
 10
5.60784
 20
-2.15526
 30
0.000000
  70
    32
  0
VERTEX
  8
0
  5
372
 10
5.62678
 20
-2.14193
 30
0.000000
  70
    32
  0
VERTEX
  8
0
  5
373
 10
5.64564
 20
-2.12818
 30
0.000000
  70
    32
  0
VERTEX
  8
0
  5
374
 10
5.66442
 20
-2.11404
 30
0.000000
  70
    32
  0
VERTEX
  8
0
  5
375
 10
5.68310
 20
-2.09951
 30
0.000000
  70
    32
  0
VERTEX
  8
0
  5
376
 10
5.70166
 20
-2.08462
 30
0.000000
  70
    32
  0
VERTEX
  8
0
  5
377
 10
5.72010
 20
-2.06936
 30
0.000000
  70
    32
  0
VERTEX
  8
0
  5
378
 10
5.73838
 20
-2.05377
 30
0.000000
  70
    32
  0
VERTEX
  8
0
  5
379
 10
5.75649
 20
-2.03785
 30
0.000000
  70
    32
  0
VERTEX
  8
0
  5
37A
 10
5.77443
 20
-2.02162
 30
0.000000
  70
    32
  0
VERTEX
  8
0
  5
37B
 10
5.79217
 20
-2.00511
 30
0.000000
  70
    32
  0
VERTEX
  8
0
  5
37C
 10
5.80970
 20
-1.98833
 30
0.000000
  70
    32
  0
VERTEX
  8
0
  5
37D
 10
5.82701
 20
-1.97131
 30
0.000000
  70
    32
  0
VERTEX
  8
0
  5
37E
 10
5.84408
 20
-1.95405
 30
0.000000
  70
    32
  0
VERTEX
  8
0
  5
37F
 10
5.86090
 20
-1.93658
 30
0.000000
  70
    32
  0
VERTEX
  8
0
  5
380
 10
5.87747
 20
-1.91891
 30
0.000000
  70
    32
  0
VERTEX
  8
0
  5
381
 10
5.89376
 20
-1.90106
 30
0.000000
  70
    32
  0
VERTEX
  8
0
  5
382
 10
5.90977
 20
-1.88305
 30
0.000000
  70
    32
  0
VERTEX
  8
0
  5
383
 10
5.92549
 20
-1.86489
 30
0.000000
  70
    32
  0
VERTEX
  8
0
  5
384
 10
5.94092
 20
-1.84659
 30
0.000000
  70
    32
  0
VERTEX
  8
0
  5
385
 10
5.95604
 20
-1.82818
 30
0.000000
  70
    32
  0
VERTEX
  8
0
  5
386
 10
5.97085
 20
-1.80966
 30
0.000000
  70
    32
  0
VERTEX
  8
0
  5
387
 10
5.98535
 20
-1.79105
 30
0.000000
  70
    32
  0
VERTEX
  8
0
  5
388
 10
5.99952
 20
-1.77237
 30
0.000000
  70
    32
  0
VERTEX
  8
0
  5
389
 10
6.01337
 20
-1.75362
 30
0.000000
  70
    32
  0
VERTEX
  8
0
  5
38A
 10
6.02689
 20
-1.73481
 30
0.000000
  70
    32
  0
VERTEX
  8
0
  5
38B
 10
6.04007
 20
-1.71597
 30
0.000000
  70
    32
  0
VERTEX
  8
0
  5
38C
 10
6.05293
 20
-1.69709
 30
0.000000
  70
    32
  0
VERTEX
  8
0
  5
38D
 10
6.06545
 20
-1.67820
 30
0.000000
  70
    32
  0
VERTEX
  8
0
  5
38E
 10
6.07763
 20
-1.65930
 30
0.000000
  70
    32
  0
VERTEX
  8
0
  5
38F
 10
6.08948
 20
-1.64039
 30
0.000000
  70
    32
  0
VERTEX
  8
0
  5
390
 10
6.10100
 20
-1.62151
 30
0.000000
  70
    32
  0
VERTEX
  8
0
  5
391
 10
6.11219
 20
-1.60264
 30
0.000000
  70
    32
  0
VERTEX
  8
0
  5
392
 10
6.12305
 20
-1.58379
 30
0.000000
  70
    32
  0
VERTEX
  8
0
  5
393
 10
6.13359
 20
-1.56499
 30
0.000000
  70
    32
  0
VERTEX
  8
0
  5
394
 10
6.14381
 20
-1.54623
 30
0.000000
  70
    32
  0
VERTEX
  8
0
  5
395
 10
6.15372
 20
-1.52752
 30
0.000000
  70
    32
  0
VERTEX
  8
0
  5
396
 10
6.16332
 20
-1.50887
 30
0.000000
  70
    32
  0
VERTEX
  8
0
  5
397
 10
6.17261
 20
-1.49028
 30
0.000000
  70
    32
  0
VERTEX
  8
0
  5
398
 10
6.18162
 20
-1.47177
 30
0.000000
  70
    32
  0
VERTEX
  8
0
  5
399
 10
6.19034
 20
-1.45333
 30
0.000000
  70
    32
  0
VERTEX
  8
0
  5
39A
 10
6.19879
 20
-1.43496
 30
0.000000
  70
    32
  0
VERTEX
  8
0
  5
39B
 10
6.20697
 20
-1.41669
 30
0.000000
  70
    32
  0
VERTEX
  8
0
  5
39C
 10
6.21490
 20
-1.39850
 30
0.000000
  70
    32
  0
VERTEX
  8
0
  5
39D
 10
6.22258
 20
-1.38040
 30
0.000000
  70
    32
  0
VERTEX
  8
0
  5
39E
 10
6.23004
 20
-1.36240
 30
0.000000
  70
    32
  0
VERTEX
  8
0
  5
39F
 10
6.23727
 20
-1.34450
 30
0.000000
  70
    32
  0
VERTEX
  8
0
  5
3A0
 10
6.24431
 20
-1.32669
 30
0.000000
  70
    32
  0
VERTEX
  8
0
  5
3A1
 10
6.25114
 20
-1.30899
 30
0.000000
  70
    32
  0
VERTEX
  8
0
  5
3A2
 10
6.25780
 20
-1.29139
 30
0.000000
  70
    32
  0
VERTEX
  8
0
  5
3A3
 10
6.26428
 20
-1.27389
 30
0.000000
  70
    32
  0
VERTEX
  8
0
  5
3A4
 10
6.27059
 20
-1.25650
 30
0.000000
  70
    32
  0
VERTEX
  8
0
  5
3A5
 10
6.27675
 20
-1.23922
 30
0.000000
  70
    32
  0
VERTEX
  8
0
  5
3A6
 10
6.28276
 20
-1.22205
 30
0.000000
  70
    32
  0
VERTEX
  8
0
  5
3A7
 10
6.28864
 20
-1.20499
 30
0.000000
  70
    32
  0
VERTEX
  8
0
  5
3A8
 10
6.29438
 20
-1.18804
 30
0.000000
  70
    32
  0
VERTEX
  8
0
  5
3A9
 10
6.30000
 20
-1.17119
 30
0.000000
  70
    32
  0
VERTEX
  8
0
  5
3AA
 10
6.30550
 20
-1.15446
 30
0.000000
  70
    32
  0
VERTEX
  8
0
  5
3AB
 10
6.31088
 20
-1.13783
 30
0.000000
  70
    32
  0
VERTEX
  8
0
  5
3AC
 10
6.31616
 20
-1.12131
 30
0.000000
  70
    32
  0
VERTEX
  8
0
  5
3AD
 10
6.32134
 20
-1.10490
 30
0.000000
  70
    32
  0
VERTEX
  8
0
  5
3AE
 10
6.32643
 20
-1.08860
 30
0.000000
  70
    32
  0
VERTEX
  8
0
  5
3AF
 10
6.33141
 20
-1.07239
 30
0.000000
  70
    32
  0
VERTEX
  8
0
  5
3B0
 10
6.33631
 20
-1.05630
 30
0.000000
  70
    32
  0
VERTEX
  8
0
  5
3B1
 10
6.34112
 20
-1.04030
 30
0.000000
  70
    32
  0
VERTEX
  8
0
  5
3B2
 10
6.34585
 20
-1.02440
 30
0.000000
  70
    32
  0
VERTEX
  8
0
  5
3B3
 10
6.35049
 20
-1.00859
 30
0.000000
  70
    32
  0
VERTEX
  8
0
  5
3B4
 10
6.35505
 20
-0.992883
 30
0.000000
  70
    32
  0
VERTEX
  8
0
  5
3B5
 10
6.35953
 20
-0.977261
 30
0.000000
  70
    32
  0
VERTEX
  8
0
  5
3B6
 10
6.36393
 20
-0.961727
 30
0.000000
  70
    32
  0
VERTEX
  8
0
  5
3B7
 10
6.36825
 20
-0.946275
 30
0.000000
  70
    32
  0
VERTEX
  8
0
  5
3B8
 10
6.37248
 20
-0.930902
 30
0.000000
  70
    32
  0
VERTEX
  8
0
  5
3B9
 10
6.37663
 20
-0.915604
 30
0.000000
  70
    32
  0
VERTEX
  8
0
  5
3BA
 10
6.38069
 20
-0.900377
 30
0.000000
  70
    32
  0
VERTEX
  8
0
  5
3BB
 10
6.38467
 20
-0.885217
 30
0.000000
  70
    32
  0
VERTEX
  8
0
  5
3BC
 10
6.38855
 20
-0.870117
 30
0.000000
  70
    32
  0
VERTEX
  8
0
  5
3BD
 10
6.39234
 20
-0.855074
 30
0.000000
  70
    32
  0
VERTEX
  8
0
  5
3BE
 10
6.39603
 20
-0.840081
 30
0.000000
  70
    32
  0
VERTEX
  8
0
  5
3BF
 10
6.39962
 20
-0.825133
 30
0.000000
  70
    32
  0
VERTEX
  8
0
  5
3C0
 10
6.40310
 20
-0.810226
 30
0.000000
  70
    32
  0
VERTEX
  8
0
  5
3C1
 10
6.40646
 20
-0.795354
 30
0.000000
  70
    32
  0
VERTEX
  8
0
  5
3C2
 10
6.40971
 20
-0.780512
 30
0.000000
  70
    32
  0
VERTEX
  8
0
  5
3C3
 10
6.41285
 20
-0.765697
 30
0.000000
  70
    32
  0
VERTEX
  8
0
  5
3C4
 10
6.41585
 20
-0.750905
 30
0.000000
  70
    32
  0
VERTEX
  8
0
  5
3C5
 10
6.41874
 20
-0.736133
 30
0.000000
  70
    32
  0
VERTEX
  8
0
  5
3C6
 10
6.42149
 20
-0.721377
 30
0.000000
  70
    32
  0
VERTEX
  8
0
  5
3C7
 10
6.42411
 20
-0.706635
 30
0.000000
  70
    32
  0
VERTEX
  8
0
  5
3C8
 10
6.42659
 20
-0.691905
 30
0.000000
  70
    32
  0
VERTEX
  8
0
  5
3C9
 10
6.42893
 20
-0.677184
 30
0.000000
  70
    32
  0
VERTEX
  8
0
  5
3CA
 10
6.43113
 20
-0.662472
 30
0.000000
  70
    32
  0
VERTEX
  8
0
  5
3CB
 10
6.43319
 20
-0.647767
 30
0.000000
  70
    32
  0
VERTEX
  8
0
  5
3CC
 10
6.43510
 20
-0.633069
 30
0.000000
  70
    32
  0
VERTEX
  8
0
  5
3CD
 10
6.43686
 20
-0.618377
 30
0.000000
  70
    32
  0
VERTEX
  8
0
  5
3CE
 10
6.43847
 20
-0.603691
 30
0.000000
  70
    32
  0
VERTEX
  8
0
  5
3CF
 10
6.43993
 20
-0.589011
 30
0.000000
  70
    32
  0
VERTEX
  8
0
  5
3D0
 10
6.44123
 20
-0.574339
 30
0.000000
  70
    32
  0
VERTEX
  8
0
  5
3D1
 10
6.44238
 20
-0.559675
 30
0.000000
  70
    32
  0
VERTEX
  8
0
  5
3D2
 10
6.44337
 20
-0.545021
 30
0.000000
  70
    32
  0
VERTEX
  8
0
  5
3D3
 10
6.44420
 20
-0.530379
 30
0.000000
  70
    32
  0
VERTEX
  8
0
  5
3D4
 10
6.44487
 20
-0.515751
 30
0.000000
  70
    32
  0
VERTEX
  8
0
  5
3D5
 10
6.44538
 20
-0.501139
 30
0.000000
  70
    32
  0
VERTEX
  8
0
  5
3D6
 10
6.44572
 20
-0.486547
 30
0.000000
  70
    32
  0
VERTEX
  8
0
  5
3D7
 10
6.44591
 20
-0.471978
 30
0.000000
  70
    32
  0
VERTEX
  8
0
  5
3D8
 10
6.44593
 20
-0.457436
 30
0.000000
  70
    32
  0
VERTEX
  8
0
  5
3D9
 10
6.44580
 20
-0.442925
 30
0.000000
  70
    32
  0
VERTEX
  8
0
  5
3DA
 10
6.44549
 20
-0.428449
 30
0.000000
  70
    32
  0
VERTEX
  8
0
  5
3DB
 10
6.44503
 20
-0.414013
 30
0.000000
  70
    32
  0
VERTEX
  8
0
  5
3DC
 10
6.44441
 20
-0.399623
 30
0.000000
  70
    32
  0
VERTEX
  8
0
  5
3DD
 10
6.44362
 20
-0.385283
 30
0.000000
  70
    32
  0
VERTEX
  8
0
  5
3DE
 10
6.44267
 20
-0.371001
 30
0.000000
  70
    32
  0
VERTEX
  8
0
  5
3DF
 10
6.44156
 20
-0.356782
 30
0.000000
  70
    32
  0
VERTEX
  8
0
  5
3E0
 10
6.44029
 20
-0.342633
 30
0.000000
  70
    32
  0
VERTEX
  8
0
  5
3E1
 10
6.43886
 20
-0.328561
 30
0.000000
  70
    32
  0
VERTEX
  8
0
  5
3E2
 10
6.43728
 20
-0.314573
 30
0.000000
  70
    32
  0
VERTEX
  8
0
  5
3E3
 10
6.43554
 20
-0.300679
 30
0.000000
  70
    32
  0
VERTEX
  8
0
  5
3E4
 10
6.43365
 20
-0.286885
 30
0.000000
  70
    32
  0
VERTEX
  8
0
  5
3E5
 10
6.43160
 20
-0.273200
 30
0.000000
  70
    32
  0
VERTEX
  8
0
  5
3E6
 10
6.42940
 20
-0.259633
 30
0.000000
  70
    32
  0
VERTEX
  8
0
  5
3E7
 10
6.42705
 20
-0.246194
 30
0.000000
  70
    32
  0
VERTEX
  8
0
  5
3E8
 10
6.42456
 20
-0.232892
 30
0.000000
  70
    32
  0
VERTEX
  8
0
  5
3E9
 10
6.42192
 20
-0.219737
 30
0.000000
  70
    32
  0
VERTEX
  8
0
  5
3EA
 10
6.41912
 20
-0.206739
 30
0.000000
  70
    32
  0
VERTEX
  8
0
  5
3EB
 10
6.41619
 20
-0.193909
 30
0.000000
  70
    32
  0
VERTEX
  8
0
  5
3EC
 10
6.41310
 20
-0.181257
 30
0.000000
  70
    32
  0
VERTEX
  8
0
  5
3ED
 10
6.40987
 20
-0.168794
 30
0.000000
  70
    32
  0
VERTEX
  8
0
  5
3EE
 10
6.40649
 20
-0.156533
 30
0.000000
  70
    32
  0
VERTEX
  8
0
  5
3EF
 10
6.40296
 20
-0.144485
 30
0.000000
  70
    32
  0
VERTEX
  8
0
  5
3F0
 10
6.39928
 20
-0.132662
 30
0.000000
  70
    32
  0
VERTEX
  8
0
  5
3F1
 10
6.39545
 20
-0.121077
 30
0.000000
  70
    32
  0
VERTEX
  8
0
  5
3F2
 10
6.39147
 20
-0.109742
 30
0.000000
  70
    32
  0
VERTEX
  8
0
  5
3F3
 10
6.38733
 20
-0.0986700
 30
0.000000
  70
    32
  0
VERTEX
  8
0
  5
3F4
 10
6.38304
 20
-0.0878753
 30
0.000000
  70
    32
  0
VERTEX
  8
0
  5
3F5
 10
6.37859
 20
-0.0773712
 30
0.000000
  70
    32
  0
VERTEX
  8
0
  5
3F6
 10
6.37398
 20
-0.0671718
 30
0.000000
  70
    32
  0
VERTEX
  8
0
  5
3F7
 10
6.36920
 20
-0.0572915
 30
0.000000
  70
    32
  0
VERTEX
  8
0
  5
3F8
 10
6.36425
 20
-0.0477450
 30
0.000000
  70
    32
  0
VERTEX
  8
0
  5
3F9
 10
6.35914
 20
-0.0385474
 30
0.000000
  70
    32
  0
VERTEX
  8
0
  5
3FA
 10
6.35384
 20
-0.0297139
 30
0.000000
  70
    32
  0
VERTEX
  8
0
  5
3FB
 10
6.34837
 20
-0.0212603
 30
0.000000
  70
    32
  0
VERTEX
  8
0
  5
3FC
 10
6.34272
 20
-0.0132026
 30
0.000000
  70
    32
  0
VERTEX
  8
0
  5
3FD
 10
6.33688
 20
-0.00555710
 30
0.000000
  70
    32
  0
VERTEX
  8
0
  5
3FE
 10
6.33085
 20
0.00165959
 30
0.000000
  70
    32
  0
VERTEX
  8
0
  5
3FF
 10
6.32462
 20
0.00843048
 30
0.000000
  70
    32
  0
VERTEX
  8
0
  5
400
 10
6.31819
 20
0.0147383
 30
0.000000
  70
    32
  0
VERTEX
  8
0
  5
401
 10
6.31155
 20
0.0205654
 30
0.000000
  70
    32
  0
VERTEX
  8
0
  5
402
 10
6.30470
 20
0.0258939
 30
0.000000
  70
    32
  0
VERTEX
  8
0
  5
403
 10
6.29763
 20
0.0307066
 30
0.000000
  70
    32
  0
VERTEX
  8
0
  5
404
 10
6.29034
 20
0.0349889
 30
0.000000
  70
    32
  0
VERTEX
  8
0
  5
405
 10
6.28282
 20
0.0387294
 30
0.000000
  70
    32
  0
VERTEX
  8
0
  5
406
 10
6.27508
 20
0.0419195
 30
0.000000
  70
    32
  0
VERTEX
  8
0
  5
407
 10
6.26713
 20
0.0445541
 30
0.000000
  70
    32
  0
VERTEX
  8
0
  5
408
 10
6.25896
 20
0.0466310
 30
0.000000
  70
    32
  0
VERTEX
  8
0
  5
409
 10
6.25059
 20
0.0481511
 30
0.000000
  70
    32
  0
VERTEX
  8
0
  5
40A
 10
6.24202
 20
0.0491183
 30
0.000000
  70
    32
  0
VERTEX
  8
0
  5
40B
 10
6.23327
 20
0.0495399
 30
0.000000
  70
    32
  0
VERTEX
  8
0
  5
40C
 10
6.22436
 20
0.0494259
 30
0.000000
  70
    32
  0
VERTEX
  8
0
  5
40D
 10
6.21530
 20
0.0487898
 30
0.000000
  70
    32
  0
VERTEX
  8
0
  5
40E
 10
6.20611
 20
0.0476480
 30
0.000000
  70
    32
  0
VERTEX
  8
0
  5
40F
 10
6.19681
 20
0.0460199
 30
0.000000
  70
    32
  0
VERTEX
  8
0
  5
410
 10
6.18743
 20
0.0439281
 30
0.000000
  70
    32
  0
VERTEX
  8
0
  5
411
 10
6.17799
 20
0.0413984
 30
0.000000
  70
    32
  0
VERTEX
  8
0
  5
412
 10
6.16853
 20
0.0384596
 30
0.000000
  70
    32
  0
VERTEX
  8
0
  5
413
 10
6.15907
 20
0.0351435
 30
0.000000
  70
    32
  0
VERTEX
  8
0
  5
414
 10
6.14964
 20
0.0314852
 30
0.000000
  70
    32
  0
VERTEX
  8
0
  5
415
 10
6.14029
 20
0.0275228
 30
0.000000
  70
    32
  0
VERTEX
  8
0
  5
416
 10
6.13105
 20
0.0232974
 30
0.000000
  70
    32
  0
VERTEX
  8
0
  5
417
 10
6.12197
 20
0.0188535
 30
0.000000
  70
    32
  0
VERTEX
  8
0
  5
418
 10
6.11307
 20
0.0142383
 30
0.000000
  70
    32
  0
VERTEX
  8
0
  5
419
 10
6.10441
 20
0.00950232
 30
0.000000
  70
    32
  0
VERTEX
  8
0
  5
41A
 10
6.09604
 20
0.00469925
 30
0.000000
  70
    32
  0
VERTEX
  8
0
  5
41B
 10
6.08801
 20
-0.000114257
 30
0.000000
  70
    32
  0
VERTEX
  8
0
  5
41C
 10
6.08036
 20
-0.00487841
 30
0.000000
  70
    32
  0
VERTEX
  8
0
  5
41D
 10
6.07315
 20
-0.00953032
 30
0.000000
  70
    32
  0
VERTEX
  8
0
  5
41E
 10
6.06644
 20
-0.0140040
 30
0.000000
  70
    32
  0
VERTEX
  8
0
  5
41F
 10
6.06028
 20
-0.0182303
 30
0.000000
  70
    32
  0
VERTEX
  8
0
  5
420
 10
6.05475
 20
-0.0221371
 30
0.000000
  70
    32
  0
VERTEX
  8
0
  5
421
 10
6.04989
 20
-0.0256492
 30
0.000000
  70
    32
  0
VERTEX
  8
0
  5
422
 10
6.04578
 20
-0.0286880
 30
0.000000
  70
    32
  0
VERTEX
  8
0
  5
423
 10
6.04248
 20
-0.0311721
 30
0.000000
  70
    32
  0
VERTEX
  8
0
  5
424
 10
6.04006
 20
-0.0330169
 30
0.000000
  70
    32
  0
VERTEX
  8
0
  5
425
 10
6.03861
 20
-0.0341349
 30
0.000000
  70
    32
  0
SEQEND
  8
0
  5
426
  0
POLYLINE
  8
0
  5
427
  66
     1
 10
0.000000
 20
0.000000
 30
0.000000
  70
     8
  0
VERTEX
  8
0
  5
428
 10
-1.87225
 20
0.642735
 30
0.000000
  70
    32
  0
VERTEX
  8
0
  5
429
 10
-1.88668
 20
0.617695
 30
0.000000
  70
    32
  0
VERTEX
  8
0
  5
42A
 10
-1.90062
 20
0.593479
 30
0.000000
  70
    32
  0
VERTEX
  8
0
  5
42B
 10
-1.91407
 20
0.570061
 30
0.000000
  70
    32
  0
VERTEX
  8
0
  5
42C
 10
-1.92706
 20
0.547417
 30
0.000000
  70
    32
  0
VERTEX
  8
0
  5
42D
 10
-1.93959
 20
0.525521
 30
0.000000
  70
    32
  0
VERTEX
  8
0
  5
42E
 10
-1.95169
 20
0.504350
 30
0.000000
  70
    32
  0
VERTEX
  8
0
  5
42F
 10
-1.96336
 20
0.483879
 30
0.000000
  70
    32
  0
VERTEX
  8
0
  5
430
 10
-1.97463
 20
0.464085
 30
0.000000
  70
    32
  0
VERTEX
  8
0
  5
431
 10
-1.98550
 20
0.444943
 30
0.000000
  70
    32
  0
VERTEX
  8
0
  5
432
 10
-1.99599
 20
0.426432
 30
0.000000
  70
    32
  0
VERTEX
  8
0
  5
433
 10
-2.00611
 20
0.408528
 30
0.000000
  70
    32
  0
VERTEX
  8
0
  5
434
 10
-2.01588
 20
0.391208
 30
0.000000
  70
    32
  0
VERTEX
  8
0
  5
435
 10
-2.02531
 20
0.374452
 30
0.000000
  70
    32
  0
VERTEX
  8
0
  5
436
 10
-2.03441
 20
0.358237
 30
0.000000
  70
    32
  0
VERTEX
  8
0
  5
437
 10
-2.04320
 20
0.342542
 30
0.000000
  70
    32
  0
VERTEX
  8
0
  5
438
 10
-2.05168
 20
0.327345
 30
0.000000
  70
    32
  0
VERTEX
  8
0
  5
439
 10
-2.05988
 20
0.312627
 30
0.000000
  70
    32
  0
VERTEX
  8
0
  5
43A
 10
-2.06779
 20
0.298367
 30
0.000000
  70
    32
  0
VERTEX
  8
0
  5
43B
 10
-2.07544
 20
0.284544
 30
0.000000
  70
    32
  0
VERTEX
  8
0
  5
43C
 10
-2.08284
 20
0.271140
 30
0.000000
  70
    32
  0
VERTEX
  8
0
  5
43D
 10
-2.08999
 20
0.258134
 30
0.000000
  70
    32
  0
VERTEX
  8
0
  5
43E
 10
-2.09691
 20
0.245509
 30
0.000000
  70
    32
  0
VERTEX
  8
0
  5
43F
 10
-2.10360
 20
0.233245
 30
0.000000
  70
    32
  0
VERTEX
  8
0
  5
440
 10
-2.11009
 20
0.221324
 30
0.000000
  70
    32
  0
VERTEX
  8
0
  5
441
 10
-2.11638
 20
0.209728
 30
0.000000
  70
    32
  0
VERTEX
  8
0
  5
442
 10
-2.12247
 20
0.198440
 30
0.000000
  70
    32
  0
VERTEX
  8
0
  5
443
 10
-2.12839
 20
0.187443
 30
0.000000
  70
    32
  0
VERTEX
  8
0
  5
444
 10
-2.13414
 20
0.176718
 30
0.000000
  70
    32
  0
VERTEX
  8
0
  5
445
 10
-2.13972
 20
0.166251
 30
0.000000
  70
    32
  0
VERTEX
  8
0
  5
446
 10
-2.14516
 20
0.156024
 30
0.000000
  70
    32
  0
VERTEX
  8
0
  5
447
 10
-2.15045
 20
0.146023
 30
0.000000
  70
    32
  0
VERTEX
  8
0
  5
448
 10
-2.15561
 20
0.136230
 30
0.000000
  70
    32
  0
VERTEX
  8
0
  5
449
 10
-2.16065
 20
0.126632
 30
0.000000
  70
    32
  0
VERTEX
  8
0
  5
44A
 10
-2.16556
 20
0.117213
 30
0.000000
  70
    32
  0
VERTEX
  8
0
  5
44B
 10
-2.17038
 20
0.107958
 30
0.000000
  70
    32
  0
VERTEX
  8
0
  5
44C
 10
-2.17509
 20
0.0988546
 30
0.000000
  70
    32
  0
VERTEX
  8
0
  5
44D
 10
-2.17971
 20
0.0898877
 30
0.000000
  70
    32
  0
VERTEX
  8
0
  5
44E
 10
-2.18424
 20
0.0810441
 30
0.000000
  70
    32
  0
VERTEX
  8
0
  5
44F
 10
-2.18870
 20
0.0723108
 30
0.000000
  70
    32
  0
VERTEX
  8
0
  5
450
 10
-2.19309
 20
0.0636748
 30
0.000000
  70
    32
  0
VERTEX
  8
0
  5
451
 10
-2.19741
 20
0.0551239
 30
0.000000
  70
    32
  0
VERTEX
  8
0
  5
452
 10
-2.20168
 20
0.0466458
 30
0.000000
  70
    32
  0
VERTEX
  8
0
  5
453
 10
-2.20590
 20
0.0382288
 30
0.000000
  70
    32
  0
VERTEX
  8
0
  5
454
 10
-2.21007
 20
0.0298615
 30
0.000000
  70
    32
  0
VERTEX
  8
0
  5
455
 10
-2.21421
 20
0.0215328
 30
0.000000
  70
    32
  0
VERTEX
  8
0
  5
456
 10
-2.21831
 20
0.0132320
 30
0.000000
  70
    32
  0
VERTEX
  8
0
  5
457
 10
-2.22239
 20
0.00494869
 30
0.000000
  70
    32
  0
VERTEX
  8
0
  5
458
 10
-2.22644
 20
-0.00332718
 30
0.000000
  70
    32
  0
VERTEX
  8
0
  5
459
 10
-2.23048
 20
-0.0116053
 30
0.000000
  70
    32
  0
VERTEX
  8
0
  5
45A
 10
-2.23451
 20
-0.0198951
 30
0.000000
  70
    32
  0
VERTEX
  8
0
  5
45B
 10
-2.23854
 20
-0.0282055
 30
0.000000
  70
    32
  0
VERTEX
  8
0
  5
45C
 10
-2.24256
 20
-0.0365453
 30
0.000000
  70
    32
  0
VERTEX
  8
0
  5
45D
 10
-2.24658
 20
-0.0449227
 30
0.000000
  70
    32
  0
VERTEX
  8
0
  5
45E
 10
-2.25061
 20
-0.0533457
 30
0.000000
  70
    32
  0
VERTEX
  8
0
  5
45F
 10
-2.25464
 20
-0.0618221
 30
0.000000
  70
    32
  0
VERTEX
  8
0
  5
460
 10
-2.25870
 20
-0.0703591
 30
0.000000
  70
    32
  0
VERTEX
  8
0
  5
461
 10
-2.26276
 20
-0.0789637
 30
0.000000
  70
    32
  0
VERTEX
  8
0
  5
462
 10
-2.26685
 20
-0.0876425
 30
0.000000
  70
    32
  0
VERTEX
  8
0
  5
463
 10
-2.27096
 20
-0.0964018
 30
0.000000
  70
    32
  0
VERTEX
  8
0
  5
464
 10
-2.27510
 20
-0.105248
 30
0.000000
  70
    32
  0
VERTEX
  8
0
  5
465
 10
-2.27926
 20
-0.114185
 30
0.000000
  70
    32
  0
VERTEX
  8
0
  5
466
 10
-2.28345
 20
-0.123220
 30
0.000000
  70
    32
  0
VERTEX
  8
0
  5
467
 10
-2.28768
 20
-0.132358
 30
0.000000
  70
    32
  0
VERTEX
  8
0
  5
468
 10
-2.29194
 20
-0.141602
 30
0.000000
  70
    32
  0
VERTEX
  8
0
  5
469
 10
-2.29623
 20
-0.150956
 30
0.000000
  70
    32
  0
VERTEX
  8
0
  5
46A
 10
-2.30056
 20
-0.160426
 30
0.000000
  70
    32
  0
VERTEX
  8
0
  5
46B
 10
-2.30493
 20
-0.170015
 30
0.000000
  70
    32
  0
VERTEX
  8
0
  5
46C
 10
-2.30933
 20
-0.179725
 30
0.000000
  70
    32
  0
VERTEX
  8
0
  5
46D
 10
-2.31378
 20
-0.189559
 30
0.000000
  70
    32
  0
VERTEX
  8
0
  5
46E
 10
-2.31826
 20
-0.199520
 30
0.000000
  70
    32
  0
VERTEX
  8
0
  5
46F
 10
-2.32279
 20
-0.209611
 30
0.000000
  70
    32
  0
VERTEX
  8
0
  5
470
 10
-2.32735
 20
-0.219832
 30
0.000000
  70
    32
  0
VERTEX
  8
0
  5
471
 10
-2.33195
 20
-0.230186
 30
0.000000
  70
    32
  0
VERTEX
  8
0
  5
472
 10
-2.33659
 20
-0.240674
 30
0.000000
  70
    32
  0
VERTEX
  8
0
  5
473
 10
-2.34127
 20
-0.251296
 30
0.000000
  70
    32
  0
VERTEX
  8
0
  5
474
 10
-2.34599
 20
-0.262053
 30
0.000000
  70
    32
  0
VERTEX
  8
0
  5
475
 10
-2.35074
 20
-0.272945
 30
0.000000
  70
    32
  0
VERTEX
  8
0
  5
476
 10
-2.35552
 20
-0.283972
 30
0.000000
  70
    32
  0
VERTEX
  8
0
  5
477
 10
-2.36034
 20
-0.295133
 30
0.000000
  70
    32
  0
VERTEX
  8
0
  5
478
 10
-2.36519
 20
-0.306427
 30
0.000000
  70
    32
  0
VERTEX
  8
0
  5
479
 10
-2.37007
 20
-0.317853
 30
0.000000
  70
    32
  0
VERTEX
  8
0
  5
47A
 10
-2.37498
 20
-0.329410
 30
0.000000
  70
    32
  0
VERTEX
  8
0
  5
47B
 10
-2.37991
 20
-0.341095
 30
0.000000
  70
    32
  0
VERTEX
  8
0
  5
47C
 10
-2.38486
 20
-0.352907
 30
0.000000
  70
    32
  0
VERTEX
  8
0
  5
47D
 10
-2.38983
 20
-0.364842
 30
0.000000
  70
    32
  0
VERTEX
  8
0
  5
47E
 10
-2.39482
 20
-0.376898
 30
0.000000
  70
    32
  0
VERTEX
  8
0
  5
47F
 10
-2.39981
 20
-0.389071
 30
0.000000
  70
    32
  0
VERTEX
  8
0
  5
480
 10
-2.40482
 20
-0.401358
 30
0.000000
  70
    32
  0
VERTEX
  8
0
  5
481
 10
-2.40983
 20
-0.413754
 30
0.000000
  70
    32
  0
VERTEX
  8
0
  5
482
 10
-2.41484
 20
-0.426257
 30
0.000000
  70
    32
  0
VERTEX
  8
0
  5
483
 10
-2.41985
 20
-0.438861
 30
0.000000
  70
    32
  0
VERTEX
  8
0
  5
484
 10
-2.42485
 20
-0.451563
 30
0.000000
  70
    32
  0
VERTEX
  8
0
  5
485
 10
-2.42984
 20
-0.464359
 30
0.000000
  70
    32
  0
VERTEX
  8
0
  5
486
 10
-2.43481
 20
-0.477246
 30
0.000000
  70
    32
  0
VERTEX
  8
0
  5
487
 10
-2.43977
 20
-0.490219
 30
0.000000
  70
    32
  0
VERTEX
  8
0
  5
488
 10
-2.44471
 20
-0.503275
 30
0.000000
  70
    32
  0
VERTEX
  8
0
  5
489
 10
-2.44962
 20
-0.516409
 30
0.000000
  70
    32
  0
VERTEX
  8
0
  5
48A
 10
-2.45450
 20
-0.529619
 30
0.000000
  70
    32
  0
VERTEX
  8
0
  5
48B
 10
-2.45934
 20
-0.542901
 30
0.000000
  70
    32
  0
VERTEX
  8
0
  5
48C
 10
-2.46415
 20
-0.556251
 30
0.000000
  70
    32
  0
VERTEX
  8
0
  5
48D
 10
-2.46893
 20
-0.569666
 30
0.000000
  70
    32
  0
VERTEX
  8
0
  5
48E
 10
-2.47365
 20
-0.583142
 30
0.000000
  70
    32
  0
VERTEX
  8
0
  5
48F
 10
-2.47833
 20
-0.596676
 30
0.000000
  70
    32
  0
VERTEX
  8
0
  5
490
 10
-2.48296
 20
-0.610264
 30
0.000000
  70
    32
  0
VERTEX
  8
0
  5
491
 10
-2.48754
 20
-0.623904
 30
0.000000
  70
    32
  0
VERTEX
  8
0
  5
492
 10
-2.49206
 20
-0.637591
 30
0.000000
  70
    32
  0
VERTEX
  8
0
  5
493
 10
-2.49651
 20
-0.651322
 30
0.000000
  70
    32
  0
VERTEX
  8
0
  5
494
 10
-2.50091
 20
-0.665095
 30
0.000000
  70
    32
  0
VERTEX
  8
0
  5
495
 10
-2.50523
 20
-0.678907
 30
0.000000
  70
    32
  0
VERTEX
  8
0
  5
496
 10
-2.50948
 20
-0.692753
 30
0.000000
  70
    32
  0
VERTEX
  8
0
  5
497
 10
-2.51366
 20
-0.706631
 30
0.000000
  70
    32
  0
VERTEX
  8
0
  5
498
 10
-2.51776
 20
-0.720538
 30
0.000000
  70
    32
  0
VERTEX
  8
0
  5
499
 10
-2.52178
 20
-0.734471
 30
0.000000
  70
    32
  0
VERTEX
  8
0
  5
49A
 10
-2.52572
 20
-0.748427
 30
0.000000
  70
    32
  0
VERTEX
  8
0
  5
49B
 10
-2.52956
 20
-0.762403
 30
0.000000
  70
    32
  0
VERTEX
  8
0
  5
49C
 10
-2.53332
 20
-0.776396
 30
0.000000
  70
    32
  0
VERTEX
  8
0
  5
49D
 10
-2.53698
 20
-0.790404
 30
0.000000
  70
    32
  0
VERTEX
  8
0
  5
49E
 10
-2.54055
 20
-0.804423
 30
0.000000
  70
    32
  0
VERTEX
  8
0
  5
49F
 10
-2.54401
 20
-0.818451
 30
0.000000
  70
    32
  0
VERTEX
  8
0
  5
4A0
 10
-2.54737
 20
-0.832485
 30
0.000000
  70
    32
  0
VERTEX
  8
0
  5
4A1
 10
-2.55063
 20
-0.846523
 30
0.000000
  70
    32
  0
VERTEX
  8
0
  5
4A2
 10
-2.55377
 20
-0.860561
 30
0.000000
  70
    32
  0
VERTEX
  8
0
  5
4A3
 10
-2.55681
 20
-0.874598
 30
0.000000
  70
    32
  0
VERTEX
  8
0
  5
4A4
 10
-2.55972
 20
-0.888631
 30
0.000000
  70
    32
  0
VERTEX
  8
0
  5
4A5
 10
-2.56252
 20
-0.902658
 30
0.000000
  70
    32
  0
VERTEX
  8
0
  5
4A6
 10
-2.56520
 20
-0.916675
 30
0.000000
  70
    32
  0
VERTEX
  8
0
  5
4A7
 10
-2.56775
 20
-0.930681
 30
0.000000
  70
    32
  0
VERTEX
  8
0
  5
4A8
 10
-2.57017
 20
-0.944673
 30
0.000000
  70
    32
  0
VERTEX
  8
0
  5
4A9
 10
-2.57247
 20
-0.958649
 30
0.000000
  70
    32
  0
VERTEX
  8
0
  5
4AA
 10
-2.57463
 20
-0.972607
 30
0.000000
  70
    32
  0
VERTEX
  8
0
  5
4AB
 10
-2.57665
 20
-0.986544
 30
0.000000
  70
    32
  0
VERTEX
  8
0
  5
4AC
 10
-2.57854
 20
-1.00046
 30
0.000000
  70
    32
  0
VERTEX
  8
0
  5
4AD
 10
-2.58028
 20
-1.01435
 30
0.000000
  70
    32
  0
VERTEX
  8
0
  5
4AE
 10
-2.58188
 20
-1.02821
 30
0.000000
  70
    32
  0
VERTEX
  8
0
  5
4AF
 10
-2.58333
 20
-1.04204
 30
0.000000
  70
    32
  0
VERTEX
  8
0
  5
4B0
 10
-2.58463
 20
-1.05585
 30
0.000000
  70
    32
  0
VERTEX
  8
0
  5
4B1
 10
-2.58578
 20
-1.06962
 30
0.000000
  70
    32
  0
VERTEX
  8
0
  5
4B2
 10
-2.58677
 20
-1.08335
 30
0.000000
  70
    32
  0
VERTEX
  8
0
  5
4B3
 10
-2.58761
 20
-1.09705
 30
0.000000
  70
    32
  0
VERTEX
  8
0
  5
4B4
 10
-2.58828
 20
-1.11071
 30
0.000000
  70
    32
  0
VERTEX
  8
0
  5
4B5
 10
-2.58879
 20
-1.12433
 30
0.000000
  70
    32
  0
VERTEX
  8
0
  5
4B6
 10
-2.58914
 20
-1.13791
 30
0.000000
  70
    32
  0
VERTEX
  8
0
  5
4B7
 10
-2.58932
 20
-1.15145
 30
0.000000
  70
    32
  0
VERTEX
  8
0
  5
4B8
 10
-2.58932
 20
-1.16493
 30
0.000000
  70
    32
  0
VERTEX
  8
0
  5
4B9
 10
-2.58915
 20
-1.17838
 30
0.000000
  70
    32
  0
VERTEX
  8
0
  5
4BA
 10
-2.58881
 20
-1.19177
 30
0.000000
  70
    32
  0
VERTEX
  8
0
  5
4BB
 10
-2.58829
 20
-1.20511
 30
0.000000
  70
    32
  0
VERTEX
  8
0
  5
4BC
 10
-2.58759
 20
-1.21841
 30
0.000000
  70
    32
  0
VERTEX
  8
0
  5
4BD
 10
-2.58670
 20
-1.23164
 30
0.000000
  70
    32
  0
VERTEX
  8
0
  5
4BE
 10
-2.58564
 20
-1.24483
 30
0.000000
  70
    32
  0
VERTEX
  8
0
  5
4BF
 10
-2.58438
 20
-1.25795
 30
0.000000
  70
    32
  0
VERTEX
  8
0
  5
4C0
 10
-2.58294
 20
-1.27102
 30
0.000000
  70
    32
  0
VERTEX
  8
0
  5
4C1
 10
-2.58131
 20
-1.28402
 30
0.000000
  70
    32
  0
VERTEX
  8
0
  5
4C2
 10
-2.57949
 20
-1.29696
 30
0.000000
  70
    32
  0
VERTEX
  8
0
  5
4C3
 10
-2.57748
 20
-1.30984
 30
0.000000
  70
    32
  0
VERTEX
  8
0
  5
4C4
 10
-2.57528
 20
-1.32265
 30
0.000000
  70
    32
  0
VERTEX
  8
0
  5
4C5
 10
-2.57288
 20
-1.33538
 30
0.000000
  70
    32
  0
VERTEX
  8
0
  5
4C6
 10
-2.57029
 20
-1.34805
 30
0.000000
  70
    32
  0
VERTEX
  8
0
  5
4C7
 10
-2.56751
 20
-1.36065
 30
0.000000
  70
    32
  0
VERTEX
  8
0
  5
4C8
 10
-2.56453
 20
-1.37316
 30
0.000000
  70
    32
  0
VERTEX
  8
0
  5
4C9
 10
-2.56135
 20
-1.38560
 30
0.000000
  70
    32
  0
VERTEX
  8
0
  5
4CA
 10
-2.55798
 20
-1.39796
 30
0.000000
  70
    32
  0
VERTEX
  8
0
  5
4CB
 10
-2.55441
 20
-1.41024
 30
0.000000
  70
    32
  0
VERTEX
  8
0
  5
4CC
 10
-2.55065
 20
-1.42243
 30
0.000000
  70
    32
  0
VERTEX
  8
0
  5
4CD
 10
-2.54669
 20
-1.43454
 30
0.000000
  70
    32
  0
VERTEX
  8
0
  5
4CE
 10
-2.54254
 20
-1.44655
 30
0.000000
  70
    32
  0
VERTEX
  8
0
  5
4CF
 10
-2.53819
 20
-1.45847
 30
0.000000
  70
    32
  0
VERTEX
  8
0
  5
4D0
 10
-2.53364
 20
-1.47030
 30
0.000000
  70
    32
  0
VERTEX
  8
0
  5
4D1
 10
-2.52890
 20
-1.48203
 30
0.000000
  70
    32
  0
VERTEX
  8
0
  5
4D2
 10
-2.52397
 20
-1.49366
 30
0.000000
  70
    32
  0
VERTEX
  8
0
  5
4D3
 10
-2.51885
 20
-1.50519
 30
0.000000
  70
    32
  0
VERTEX
  8
0
  5
4D4
 10
-2.51353
 20
-1.51661
 30
0.000000
  70
    32
  0
VERTEX
  8
0
  5
4D5
 10
-2.50802
 20
-1.52792
 30
0.000000
  70
    32
  0
VERTEX
  8
0
  5
4D6
 10
-2.50233
 20
-1.53912
 30
0.000000
  70
    32
  0
VERTEX
  8
0
  5
4D7
 10
-2.49645
 20
-1.55021
 30
0.000000
  70
    32
  0
VERTEX
  8
0
  5
4D8
 10
-2.49038
 20
-1.56118
 30
0.000000
  70
    32
  0
VERTEX
  8
0
  5
4D9
 10
-2.48412
 20
-1.57203
 30
0.000000
  70
    32
  0
VERTEX
  8
0
  5
4DA
 10
-2.47769
 20
-1.58276
 30
0.000000
  70
    32
  0
VERTEX
  8
0
  5
4DB
 10
-2.47107
 20
-1.59337
 30
0.000000
  70
    32
  0
VERTEX
  8
0
  5
4DC
 10
-2.46428
 20
-1.60384
 30
0.000000
  70
    32
  0
VERTEX
  8
0
  5
4DD
 10
-2.45731
 20
-1.61419
 30
0.000000
  70
    32
  0
VERTEX
  8
0
  5
4DE
 10
-2.45016
 20
-1.62440
 30
0.000000
  70
    32
  0
VERTEX
  8
0
  5
4DF
 10
-2.44284
 20
-1.63447
 30
0.000000
  70
    32
  0
VERTEX
  8
0
  5
4E0
 10
-2.43536
 20
-1.64440
 30
0.000000
  70
    32
  0
VERTEX
  8
0
  5
4E1
 10
-2.42771
 20
-1.65419
 30
0.000000
  70
    32
  0
VERTEX
  8
0
  5
4E2
 10
-2.41989
 20
-1.66383
 30
0.000000
  70
    32
  0
VERTEX
  8
0
  5
4E3
 10
-2.41192
 20
-1.67331
 30
0.000000
  70
    32
  0
VERTEX
  8
0
  5
4E4
 10
-2.40379
 20
-1.68265
 30
0.000000
  70
    32
  0
VERTEX
  8
0
  5
4E5
 10
-2.39550
 20
-1.69183
 30
0.000000
  70
    32
  0
VERTEX
  8
0
  5
4E6
 10
-2.38706
 20
-1.70084
 30
0.000000
  70
    32
  0
VERTEX
  8
0
  5
4E7
 10
-2.37848
 20
-1.70970
 30
0.000000
  70
    32
  0
VERTEX
  8
0
  5
4E8
 10
-2.36975
 20
-1.71838
 30
0.000000
  70
    32
  0
VERTEX
  8
0
  5
4E9
 10
-2.36089
 20
-1.72690
 30
0.000000
  70
    32
  0
VERTEX
  8
0
  5
4EA
 10
-2.35188
 20
-1.73524
 30
0.000000
  70
    32
  0
VERTEX
  8
0
  5
4EB
 10
-2.34275
 20
-1.74340
 30
0.000000
  70
    32
  0
VERTEX
  8
0
  5
4EC
 10
-2.33349
 20
-1.75138
 30
0.000000
  70
    32
  0
VERTEX
  8
0
  5
4ED
 10
-2.32410
 20
-1.75917
 30
0.000000
  70
    32
  0
VERTEX
  8
0
  5
4EE
 10
-2.31460
 20
-1.76677
 30
0.000000
  70
    32
  0
VERTEX
  8
0
  5
4EF
 10
-2.30498
 20
-1.77419
 30
0.000000
  70
    32
  0
VERTEX
  8
0
  5
4F0
 10
-2.29525
 20
-1.78140
 30
0.000000
  70
    32
  0
VERTEX
  8
0
  5
4F1
 10
-2.28542
 20
-1.78841
 30
0.000000
  70
    32
  0
VERTEX
  8
0
  5
4F2
 10
-2.27549
 20
-1.79522
 30
0.000000
  70
    32
  0
VERTEX
  8
0
  5
4F3
 10
-2.26546
 20
-1.80182
 30
0.000000
  70
    32
  0
VERTEX
  8
0
  5
4F4
 10
-2.25535
 20
-1.80821
 30
0.000000
  70
    32
  0
VERTEX
  8
0
  5
4F5
 10
-2.24515
 20
-1.81438
 30
0.000000
  70
    32
  0
VERTEX
  8
0
  5
4F6
 10
-2.23487
 20
-1.82033
 30
0.000000
  70
    32
  0
VERTEX
  8
0
  5
4F7
 10
-2.22452
 20
-1.82606
 30
0.000000
  70
    32
  0
VERTEX
  8
0
  5
4F8
 10
-2.21410
 20
-1.83155
 30
0.000000
  70
    32
  0
VERTEX
  8
0
  5
4F9
 10
-2.20361
 20
-1.83682
 30
0.000000
  70
    32
  0
VERTEX
  8
0
  5
4FA
 10
-2.19308
 20
-1.84184
 30
0.000000
  70
    32
  0
VERTEX
  8
0
  5
4FB
 10
-2.18249
 20
-1.84663
 30
0.000000
  70
    32
  0
VERTEX
  8
0
  5
4FC
 10
-2.17186
 20
-1.85117
 30
0.000000
  70
    32
  0
VERTEX
  8
0
  5
4FD
 10
-2.16120
 20
-1.85546
 30
0.000000
  70
    32
  0
VERTEX
  8
0
  5
4FE
 10
-2.15050
 20
-1.85949
 30
0.000000
  70
    32
  0
VERTEX
  8
0
  5
4FF
 10
-2.13978
 20
-1.86327
 30
0.000000
  70
    32
  0
VERTEX
  8
0
  5
500
 10
-2.12904
 20
-1.86678
 30
0.000000
  70
    32
  0
VERTEX
  8
0
  5
501
 10
-2.11830
 20
-1.87002
 30
0.000000
  70
    32
  0
VERTEX
  8
0
  5
502
 10
-2.10755
 20
-1.87300
 30
0.000000
  70
    32
  0
VERTEX
  8
0
  5
503
 10
-2.09680
 20
-1.87569
 30
0.000000
  70
    32
  0
VERTEX
  8
0
  5
504
 10
-2.08607
 20
-1.87811
 30
0.000000
  70
    32
  0
VERTEX
  8
0
  5
505
 10
-2.07535
 20
-1.88023
 30
0.000000
  70
    32
  0
VERTEX
  8
0
  5
506
 10
-2.06466
 20
-1.88207
 30
0.000000
  70
    32
  0
VERTEX
  8
0
  5
507
 10
-2.05401
 20
-1.88361
 30
0.000000
  70
    32
  0
SEQEND
  8
0
  5
508
  0
CIRCLE
  5
DB
  8
0
 10
2.8963546002011502
 20
0.7420722095803871
 30
0.0
 40
0.0625
  0
CIRCLE
  5
DC
  8
0
 10
0.3908560205156189
 20
0.2357934539037782
 30
0.0
 40
0.0625
  0
CIRCLE
  5
DD
  8
0
 10
1.6803087733545441
 20
0.3072928293218343
 30
0.0
 40
0.0624999999999999
  0
CIRCLE
  5
DE
  8
0
 10
1.37315539925345
 20
-1.719882728031239
 30
0.0
 40
0.0625
  0
CIRCLE
  5
DF
  8
0
 10
6.1568522758467807
 20
-0.2856431257819168
 30
0.0
 40
0.0625
  0
CIRCLE
  5
E0
  8
0
 10
3.6241051510297599
 20
1.6273355726947301
 30
0.0
 40
0.0625
  0
CIRCLE
  5
E1
  8
0
 10
-2.110997026514672
 20
-1.371782461609405
 30
0.0
 40
0.0625
  0
CIRCLE
  5
E2
  8
0
 10
-1.6319405262619331
 20
0.412569703113628
 30
0.0
 40
0.0625
  0
CIRCLE
  5
E3
  8
0
 10
4.9420863933717882
 20
-2.0884188519062872
 30
0.0
 40
0.0625
  0
CIRCLE
  5
E4
  8
0
 10
0.8849351867060011
 20
1.0618396068190901
 30
0.0
 40
0.0625
  0
CIRCLE
  5
E5
  8
0
 10
3.2241226133280261
 20
0.8546622125553437
 30
0.0
 40
0.055
  0
CIRCLE
  5
E6
  8
0
 10
2.008076788023561
 20
0.4198828326812908
 30
0.0
 40
0.055
  0
CIRCLE
  5
E7
  8
0
 10
0.7185079298689447
 20
0.3483834616028533
 30
0.0
 40
0.055
  0
CIRCLE
  5
E8
  8
0
 10
0.0263222127932562
 20
0.1671833669064361
 30
0.0
 40
0.0550000000000002
  0
CIRCLE
  5
E9
  8
0
 10
1.3158763276227681
 20
0.2387390669522234
 30
0.0
 40
0.0550000000000002
  0
CIRCLE
  5
EA
  8
0
 10
2.5319221529272342
 20
0.6735184468262764
 30
0.0
 40
0.0550000000000002
  0
ENDSEC
  0
EOF
