  0
SECTION
  2
HEADER
  9
$ACADVER
  1
AC1009
  9
$INSBASE
 10
0.0
 20
0.0
 30
0.0
  9
$EXTMIN
 10
0.0
 20
0.0
 30
0.0
  9
$EXTMAX
 10
15.073230120013489
 20
9.4615640290912371
 30
0.0
  9
$LIMMIN
 10
0.0
 20
0.0
  9
$LIMMAX
 10
15.073230120013489
 20
9.4615640290912371
  9
$ORTHOMODE
 70
     0
  9
$REGENMODE
 70
     1
  9
$FILLMODE
 70
     1
  9
$QTEXTMODE
 70
     0
  9
$MIRRTEXT
 70
     0
  9
$DRAGMODE
 70
     2
  9
$LTSCALE
 40
1.0
  9
$OSMODE
 70
     0
  9
$ATTMODE
 70
     1
  9
$TEXTSIZE
 40
0.2
  9
$TRACEWID
 40
0.05
  9
$TEXTSTYLE
  7
STANDARD
  9
$CLAYER
  8
0
  9
$CELTYPE
  6
BYLAYER
  9
$CECOLOR
 62
   256
  9
$DIMSCALE
 40
1.0
  9
$DIMASZ
 40
0.0708661417322835
  9
$DIMEXO
 40
0.0625
  9
$DIMDLI
 40
0.38
  9
$DIMRND
 40
0.0
  9
$DIMDLE
 40
0.0
  9
$DIMEXE
 40
0.18
  9
$DIMTP
 40
0.0
  9
$DIMTM
 40
0.0
  9
$DIMTXT
 40
0.0708661417322835
  9
$DIMCEN
 40
0.09
  9
$DIMTSZ
 40
0.0
  9
$DIMTOL
 70
     0
  9
$DIMLIM
 70
     0
  9
$DIMTIH
 70
     1
  9
$DIMTOH
 70
     1
  9
$DIMSE1
 70
     0
  9
$DIMSE2
 70
     0
  9
$DIMTAD
 70
     0
  9
$DIMZIN
 70
     0
  9
$DIMBLK
  1

  9
$DIMASO
 70
     1
  9
$DIMSHO
 70
     1
  9
$DIMPOST
  1

  9
$DIMAPOST
  1

  9
$DIMALT
 70
     0
  9
$DIMALTD
 70
     2
  9
$DIMALTF
 40
25.399999999999999
  9
$DIMLFAC
 40
1.0
  9
$DIMTOFL
 70
     0
  9
$DIMTVP
 40
0.0
  9
$DIMTIX
 70
     0
  9
$DIMSOXD
 70
     0
  9
$DIMSAH
 70
     0
  9
$DIMBLK1
  1

  9
$DIMBLK2
  1

  9
$DIMSTYLE
  2
STANDARD
  9
$DIMCLRD
 70
     0
  9
$DIMCLRE
 70
     0
  9
$DIMCLRT
 70
     0
  9
$DIMTFAC
 40
1.0
  9
$DIMGAP
 40
0.09
  9
$LUNITS
 70
     2
  9
$LUPREC
 70
     4
  9
$SKETCHINC
 40
0.1
  9
$FILLETRAD
 40
0.0
  9
$AUNITS
 70
     0
  9
$AUPREC
 70
     0
  9
$MENU
  1
.
  9
$ELEVATION
 40
0.0
  9
$PELEVATION
 40
0.0
  9
$THICKNESS
 40
0.0
  9
$LIMCHECK
 70
     0
  9
$BLIPMODE
 70
     0
  9
$CHAMFERA
 40
0.0
  9
$CHAMFERB
 40
0.0
  9
$SKPOLY
 70
     0
  9
$TDCREATE
 40
2456346.730791979
  9
$TDUPDATE
 40
2456346.730791979
  9
$TDINDWG
 40
0.0000025463
  9
$TDUSRTIMER
 40
0.0000025463
  9
$USRTIMER
 70
     1
  9
$ANGBASE
 50
0.0
  9
$ANGDIR
 70
     0
  9
$PDMODE
 70
     0
  9
$PDSIZE
 40
0.0
  9
$PLINEWID
 40
0.0
  9
$COORDS
 70
     0
  9
$SPLFRAME
 70
     0
  9
$SPLINETYPE
 70
     6
  9
$SPLINESEGS
 70
     8
  9
$ATTDIA
 70
     0
  9
$ATTREQ
 70
     1
  9
$HANDLING
 70
     1
  9
$HANDSEED
  5
292
  9
$SURFTAB1
 70
     6
  9
$SURFTAB2
 70
     6
  9
$SURFTYPE
 70
     6
  9
$SURFU
 70
     6
  9
$SURFV
 70
     6
  9
$UCSNAME
  2

  9
$UCSORG
 10
0.0
 20
0.0
 30
0.0
  9
$UCSXDIR
 10
1.0
 20
0.0
 30
0.0
  9
$UCSYDIR
 10
0.0
 20
1.0
 30
0.0
  9
$PUCSNAME
  2

  9
$PUCSORG
 10
0.0
 20
0.0
 30
0.0
  9
$PUCSXDIR
 10
1.0
 20
0.0
 30
0.0
  9
$PUCSYDIR
 10
0.0
 20
1.0
 30
0.0
  9
$USERI1
 70
     0
  9
$USERI2
 70
     0
  9
$USERI3
 70
     0
  9
$USERI4
 70
     0
  9
$USERI5
 70
     0
  9
$USERR1
 40
0.0
  9
$USERR2
 40
0.0
  9
$USERR3
 40
0.0
  9
$USERR4
 40
0.0
  9
$USERR5
 40
0.0
  9
$WORLDVIEW
 70
     1
  9
$SHADEDGE
 70
     3
  9
$SHADEDIF
 70
    70
  9
$TILEMODE
 70
     1
  9
$MAXACTVP
 70
    64
  9
$PLIMCHECK
 70
     0
  9
$PEXTMIN
 10
0.0
 20
0.0
 30
0.0
  9
$PEXTMAX
 10
15.073230120013489
 20
9.4615640290912371
 30
0.0
  9
$PLIMMIN
 10
0.0
 20
0.0
  9
$PLIMMAX
 10
15.073230120013489
 20
9.4615640290912371
  9
$UNITMODE
 70
     0
  9
$VISRETAIN
 70
     1
  9
$PLINEGEN
 70
     0
  9
$PSLTSCALE
 70
     1
  0
ENDSEC
  0
SECTION
  2
TABLES
  0
TABLE
  2
VPORT
 70
     1
  0
VPORT
  2
*ACTIVE
 70
     0
 10
0.0
 20
0.0
 11
1.0
 21
1.0
 12
0.0
 22
2.5507043055832761
 13
0.0
 23
0.0
 14
1.0
 24
1.0
 15
0.0
 25
0.0
 16
0.0
 26
0.0
 36
1.0
 17
0.0
 27
0.0
 37
0.0
 40
9.4615640290912371
 41
1.5931013174638149
 42
50.0
 43
0.0
 44
0.0
 50
0.0
 51
0.0
 71
     0
 72
   100
 73
     1
 74
     1
 75
     0
 76
     0
 77
     0
 78
     0
  0
ENDTAB
  0
TABLE
  2
LTYPE
 70
    59
  0
LTYPE
  2
CONTINUOUS
 70
     0
  3
Solid line
 72
    65
 73
     0
 40
0.0
  0
LTYPE
  2
PHANTOM2
 70
     0
  3
Phantom (.5x) ___ _ _ ___ _ _ ___ _ _ ___ _ _
 72
    65
 73
     6
 40
1.25
 49
0.625
 49
-0.125
 49
0.125
 49
-0.125
 49
0.125
 49
-0.125
  0
LTYPE
  2
BY_STANDARD
 70
     0
  3
By Standard ____________    ____    ____   _
 72
    65
 73
     6
 40
1.2402999999999991
 49
0.6614
 49
-0.0827
 49
0.1654
 49
-0.0827
 49
0.1654
 49
-0.0827
  0
LTYPE
  2
CHAIN
 70
     0
  3
Chain ____ _ ____ _ ____ _ ____ _ ____ _ ____
 72
    65
 73
     4
 40
0.7087
 49
0.4724000000000001
 49
-0.0591
 49
0.1181
 49
-0.0591
  0
LTYPE
  2
DASH_DOT
 70
     0
  3
Dash dot __ . __ . __ . __ . __ . __ . __ . __
 72
    65
 73
     4
 40
0.37
 49
0.24
 49
-0.06
 49
0.01
 49
-0.06
  0
LTYPE
  2
DOUBLE_DASH_DOT
 70
     0
  3
Double-Dash Dot __ __ . __ __ . __ __ . __ _
 72
    65
 73
     6
 40
0.4398
 49
0.24
 49
-0.06
 49
0.0098
 49
-0.06
 49
0.01
 49
-0.06
  0
LTYPE
  2
DASH_TRIPLE_DOT
 70
     0
  3
Dash Triple-Dot _ . . . _ . . . _ . . . _
 72
    65
 73
     8
 40
0.51
 49
0.24
 49
-0.06
 49
0.01
 49
-0.06
 49
0.01
 49
-0.06
 49
0.01
 49
-0.06
  0
LTYPE
  2
DASHED
 70
     0
  3
Dashed __ __ __ __ __ __ __ __ __ __ __ __ __ _
 72
    65
 73
     2
 40
0.2067
 49
0.1654
 49
-0.0413
  0
LTYPE
  2
DASH_DOUBLE_DOT
 70
     0
  3
Dash Double-Dot __ . . __ . . __ . . __ . .
 72
    65
 73
     6
 40
0.4398
 49
0.24
 49
-0.06
 49
0.0098
 49
-0.06
 49
0.01
 49
-0.06
  0
LTYPE
  2
DASHED_SPACE
 70
     0
  3
Dashed Space __ __ __ __ __ __ __ __ __ __ __ _
 72
    65
 73
     2
 40
0.2067
 49
0.1654
 49
-0.0413
  0
LTYPE
  2
DOTTED
 70
     0
  3
Dotted . . . . . . . . . . . . . . . . . . . . 
 72
    65
 73
     2
 40
0.0482
 49
0.0069
 49
-0.0413
  0
LTYPE
  2
DOUBLE_DASH_CHAIN
 70
     0
  3
Double-Dash Chain ______  __  __  ______  __  _
 72
    65
 73
     6
 40
1.2402999999999991
 49
0.6614
 49
-0.0827
 49
0.1654
 49
-0.0827
 49
0.1654
 49
-0.0827
  0
LTYPE
  2
DOUBLE_DASH_DOUBLE_DOT
 70
     0
  3
Double-Dash Double-dot _ _ . . _ _ . . _
 72
    65
 73
     8
 40
0.7400000000000001
 49
0.24
 49
-0.06
 49
0.24
 49
-0.06
 49
0.01
 49
-0.06
 49
0.01
 49
-0.06
  0
LTYPE
  2
DOUBLE_DASH_TRIPLE_DOT
 70
     0
  3
Double Dash Triple Dot __ __ . . . __ __ . .
 72
    65
 73
    10
 40
0.8100000000000001
 49
0.24
 49
-0.06
 49
0.24
 49
-0.06
 49
0.01
 49
-0.06
 49
0.01
 49
-0.06
 49
0.01
 49
-0.06
  0
LTYPE
  2
LONG_DASH_DOTTED
 70
     0
  3
Long Dash Dotted ____ . ____ . ____ . ____ . _
 72
    65
 73
     4
 40
0.3543
 49
0.2362
 49
-0.0295
 49
0.0591
 49
-0.0295
  0
LTYPE
  2
LONG_DASH_DOUBLE_DOT
 70
     0
  3
Long Dash Double Dot ________  .  .  ________  
 72
    65
 73
     6
 40
0.6799999999999999
 49
0.48
 49
-0.06
 49
0.01
 49
-0.06
 49
0.01
 49
-0.06
  0
LTYPE
  2
LONG_DASH_TRIPLE_DOT
 70
     0
  3
Long Dash Triple Dot ____ ... ____ ... ____
 72
    65
 73
     8
 40
0.3689
 49
0.2362
 49
-0.0295
 49
0.0049
 49
-0.0295
 49
0.0049
 49
-0.0295
 49
0.0049
 49
-0.0295
  0
LTYPE
  2
BORDER
 70
     0
  3
Border __ __ . __ __ . __ __ . __ __ . __ __ .
 72
    65
 73
     6
 40
1.75
 49
0.5
 49
-0.25
 49
0.5
 49
-0.25
 49
0.0
 49
-0.25
  0
LTYPE
  2
BORDER2
 70
     0
  3
Border (.5x) __.__.__.__.__.__.__.__.__.__.__.
 72
    65
 73
     6
 40
0.875
 49
0.25
 49
-0.125
 49
0.25
 49
-0.125
 49
0.0
 49
-0.125
  0
LTYPE
  2
BORDERX2
 70
     0
  3
Border (2x) ____  ____  .  ____  ____  .  ___
 72
    65
 73
     6
 40
3.5
 49
1.0
 49
-0.5
 49
1.0
 49
-0.5
 49
0.0
 49
-0.5
  0
LTYPE
  2
CENTER
 70
     0
  3
Center ____ _ ____ _ ____ _ ____ _ ____ _ ____
 72
    65
 73
     4
 40
2.0
 49
1.25
 49
-0.25
 49
0.25
 49
-0.25
  0
LTYPE
  2
CENTER2
 70
     0
  3
Center (.5x) ___ _ ___ _ ___ _ ___ _ ___ _ ___
 72
    65
 73
     4
 40
1.125
 49
0.75
 49
-0.125
 49
0.125
 49
-0.125
  0
LTYPE
  2
CENTERX2
 70
     0
  3
Center (2x) ________  __  ________  __  _____
 72
    65
 73
     4
 40
4.0
 49
2.5
 49
-0.5
 49
0.5
 49
-0.5
  0
LTYPE
  2
DASHDOT2
 70
     0
  3
Dash dot (.5x) _._._._._._._._._._._._._._._.
 72
    65
 73
     4
 40
0.5
 49
0.25
 49
-0.125
 49
0.0
 49
-0.125
  0
LTYPE
  2
DASHDOTX2
 70
     0
  3
Dash dot (2x) ____  .  ____  .  ____  .  ___
 72
    65
 73
     4
 40
2.0
 49
1.0
 49
-0.5
 49
0.0
 49
-0.5
  0
LTYPE
  2
DASHED2
 70
     0
  3
Dashed (.5x) _ _ _ _ _ _ _ _ _ _ _ _ _ _ _ _ _
 72
    65
 73
     2
 40
0.375
 49
0.25
 49
-0.125
  0
LTYPE
  2
DASHEDX2
 70
     0
  3
Dashed (2x) ____  ____  ____  ____  ____  ___
 72
    65
 73
     2
 40
1.5
 49
1.0
 49
-0.5
  0
LTYPE
  2
DIVIDE
 70
     0
  3
Divide ____ . . ____ . . ____ . . ____ . . ____
 72
    65
 73
     6
 40
1.25
 49
0.5
 49
-0.25
 49
0.0
 49
-0.25
 49
0.0
 49
-0.25
  0
LTYPE
  2
DIVIDE2
 70
     0
  3
Divide (.5x) __..__..__..__..__..__..__..__.._
 72
    65
 73
     6
 40
0.625
 49
0.25
 49
-0.125
 49
0.0
 49
-0.125
 49
0.0
 49
-0.125
  0
LTYPE
  2
DIVIDEX2
 70
     0
  3
Divide (2x) ________  .  .  ________  .  .  _
 72
    65
 73
     6
 40
2.5
 49
1.0
 49
-0.5
 49
0.0
 49
-0.5
 49
0.0
 49
-0.5
  0
LTYPE
  2
DOT
 70
     0
  3
Dot . . . . . . . . . . . . . . . . . . . . . .
 72
    65
 73
     2
 40
0.25
 49
0.0
 49
-0.25
  0
LTYPE
  2
DOT2
 70
     0
  3
Dot (.5x) .....................................
 72
    65
 73
     2
 40
0.125
 49
0.0
 49
-0.125
  0
LTYPE
  2
DOTX2
 70
     0
  3
Dot (2x) .  .  .  .  .  .  .  .  .  .  .  .  . 
 72
    65
 73
     2
 40
0.5
 49
0.0
 49
-0.5
  0
LTYPE
  2
HIDDEN
 70
     0
  3
Hidden __ __ __ __ __ __ __ __ __ __ __ __ __ _
 72
    65
 73
     2
 40
0.375
 49
0.25
 49
-0.125
  0
LTYPE
  2
HIDDEN2
 70
     0
  3
Hidden (.5x) _ _ _ _ _ _ _ _ _ _ _ _ _ _ _ _ _
 72
    65
 73
     2
 40
0.1875
 49
0.125
 49
-0.0625
  0
LTYPE
  2
HIDDENX2
 70
     0
  3
Hidden (2x) ____ ____ ____ ____ ____ ____ ____
 72
    65
 73
     2
 40
0.75
 49
0.5
 49
-0.25
  0
LTYPE
  2
PHANTOM
 70
     0
  3
Phantom ______  __  __  ______  __  __  ______
 72
    65
 73
     6
 40
2.5
 49
1.25
 49
-0.25
 49
0.25
 49
-0.25
 49
0.25
 49
-0.25
  0
LTYPE
  2
PHANTOMX2
 70
     0
  3
Phantom (2x) ____________    ____    ____   _
 72
    65
 73
     6
 40
5.0
 49
2.5
 49
-0.5
 49
0.5
 49
-0.5
 49
0.5
 49
-0.5
  0
LTYPE
  2
ACAD_ISO02W100
 70
     0
  3
ISO dash __ __ __ __ __ __ __ __ __ __ __ __ __
 72
    65
 73
     2
 40
0.59
 49
0.47
 49
-0.12
  0
LTYPE
  2
ACAD_ISO03W100
 70
     0
  3
ISO dash space __    __    __    __    __    __
 72
    65
 73
     2
 40
1.179999999999999
 49
0.47
 49
-0.71
  0
LTYPE
  2
ACAD_ISO04W100
 70
     0
  3
ISO long-dash dot ____ . ____ . ____ . ____ . _
 72
    65
 73
     4
 40
1.179999999999999
 49
0.9399999999999998
 49
-0.12
 49
0.0
 49
-0.12
  0
LTYPE
  2
ACAD_ISO05W100
 70
     0
  3
ISO long-dash double-dot ____ .. ____ .. ____ .
 72
    65
 73
     6
 40
1.2999999999999989
 49
0.9399999999999998
 49
-0.12
 49
0.0
 49
-0.12
 49
0.0
 49
-0.12
  0
LTYPE
  2
ACAD_ISO06W100
 70
     0
  3
ISO long-dash triple-dot ____ ... ____ ... ____
 72
    65
 73
     8
 40
1.419999999999999
 49
0.9399999999999998
 49
-0.12
 49
0.0
 49
-0.12
 49
0.0
 49
-0.12
 49
0.0
 49
-0.12
  0
LTYPE
  2
ACAD_ISO07W100
 70
     0
  3
ISO dot . . . . . . . . . . . . . . . . . . . .
 72
    65
 73
     2
 40
0.12
 49
0.0
 49
-0.12
  0
LTYPE
  2
ACAD_ISO08W100
 70
     0
  3
ISO long-dash short-dash ____ __ ____ __ ____ _
 72
    65
 73
     4
 40
0.95
 49
0.47
 49
-0.12
 49
0.24
 49
-0.12
  0
LTYPE
  2
ACAD_ISO09W100
 70
     0
  3
ISO long-dash double-short-dash ____ __ __ ____
 72
    65
 73
     6
 40
1.3100000000000001
 49
0.47
 49
-0.12
 49
0.24
 49
-0.12
 49
0.24
 49
-0.12
  0
LTYPE
  2
ACAD_ISO10W100
 70
     0
  3
ISO dash dot __ . __ . __ . __ . __ . __ . __ .
 72
    65
 73
     4
 40
0.71
 49
0.47
 49
-0.12
 49
0.0
 49
-0.12
  0
LTYPE
  2
ACAD_ISO11W100
 70
     0
  3
ISO double-dash dot __ __ . __ __ . __ __ . __ 
 72
    65
 73
     6
 40
1.2999999999999989
 49
0.47
 49
-0.12
 49
0.47
 49
-0.12
 49
0.0
 49
-0.12
  0
LTYPE
  2
ACAD_ISO12W100
 70
     0
  3
ISO dash double-dot __ . . __ . . __ . . __ . .
 72
    65
 73
     6
 40
0.8299999999999999
 49
0.47
 49
-0.12
 49
0.0
 49
-0.12
 49
0.0
 49
-0.12
  0
LTYPE
  2
ACAD_ISO13W100
 70
     0
  3
ISO double-dash double-dot __ __ . . __ __ . . 
 72
    65
 73
     8
 40
1.419999999999999
 49
0.47
 49
-0.12
 49
0.47
 49
-0.12
 49
0.0
 49
-0.12
 49
0.0
 49
-0.12
  0
LTYPE
  2
ACAD_ISO14W100
 70
     0
  3
ISO dash triple-dot __ . . . __ . . . __ . . . 
 72
    65
 73
     8
 40
0.95
 49
0.47
 49
-0.12
 49
0.0
 49
-0.12
 49
0.0
 49
-0.12
 49
0.0
 49
-0.12
  0
LTYPE
  2
ACAD_ISO15W100
 70
     0
  3
ISO double-dash triple-dot __ __ . . . __ __ . 
 72
    65
 73
    10
 40
1.5399999999999989
 49
0.47
 49
-0.12
 49
0.47
 49
-0.12
 49
0.0
 49
-0.12
 49
0.0
 49
-0.12
 49
0.0
 49
-0.12
  0
LTYPE
  2
FENCELINE1
 70
     0
  3
Fenceline circle ----0-----0----0-----0----0---
 72
    65
 73
     4
 40
1.45
 49
0.25
 49
-0.1
 49
-0.1
 49
1.0
  0
LTYPE
  2
FENCELINE2
 70
     0
  3
Fenceline square ----[]-----[]----[]-----[]----
 72
    65
 73
     4
 40
1.45
 49
0.25
 49
-0.1
 49
-0.1
 49
1.0
  0
LTYPE
  2
TRACKS
 70
     0
  3
Tracks -|-|-|-|-|-|-|-|-|-|-|-|-|-|-|-|-|-|-|-|
 72
    65
 73
     2
 40
0.3
 49
0.15
 49
0.15
  0
LTYPE
  2
BATTING
 70
     0
  3
Batting SSSSSSSSSSSSSSSSSSSSSSSSSSSSSSSSSSSSSSS
 72
    65
 73
     4
 40
0.4001000000000001
 49
0.0001
 49
-0.1
 49
-0.2
 49
-0.1
  0
LTYPE
  2
HOT_WATER_SUPPLY
 70
     0
  3
Hot water supply ---- HW ---- HW ---- HW ----
 72
    65
 73
     3
 40
0.9
 49
0.5
 49
-0.2
 49
-0.2
  0
LTYPE
  2
GAS_LINE
 70
     0
  3
Gas line ----GAS----GAS----GAS----GAS----GAS---
 72
    65
 73
     3
 40
0.95
 49
0.5
 49
-0.2
 49
-0.25
  0
LTYPE
  2
ZIGZAG
 70
     0
  3
Zig zag /\/\/\/\/\/\/\/\/\/\/\/\/\/\/\/\/\/\/\/
 72
    65
 73
     4
 40
0.8001000000000001
 49
0.0001
 49
-0.2
 49
-0.4
 49
-0.2
  0
ENDTAB
  0
TABLE
  2
LAYER
 70
     1
  0
LAYER
  2
0
 70
     0
 62
     7
  6
CONTINUOUS
  0
ENDTAB
  0
TABLE
  2
STYLE
 70
     3
  0
STYLE
  2
STANDARD
 70
     0
 40
0.0
 41
1.0
 50
0.0
 71
     0
 42
0.2
  3
txt
  4

  0
STYLE
  2
ANNOTATIVE
 70
     0
 40
0.0
 41
1.0
 50
0.0
 71
     0
 42
0.2
  3
txt
  4

  0
STYLE
  2

 70
     1
 40
0.0
 41
1.0
 50
0.0
 71
     0
 42
0.2
  3
ltypeshp.shx
  4

  0
ENDTAB
  0
TABLE
  2
VIEW
 70
     0
  0
ENDTAB
  0
TABLE
  2
UCS
 70
     0
  0
ENDTAB
  0
TABLE
  2
APPID
 70
     3
  0
APPID
  2
ACAD
 70
     0
  0
APPID
  2
ACADANNOTATIVE
 70
     0
  0
APPID
  2
ACAD_MLEADERVER
 70
     0
  0
ENDTAB
  0
TABLE
  2
DIMSTYLE
 70
     2
  0
DIMSTYLE
  2
STANDARD
 70
     0
  3

  4

  5

  6

  7

 40
1.0
 41
0.18
 42
0.0625
 43
0.38
 44
0.18
 45
0.0
 46
0.0
 47
0.0
 48
0.0
140
0.18
141
0.09
142
0.0
143
25.399999999999999
144
1.0
145
0.0
146
1.0
147
0.09
 71
     0
 72
     0
 73
     1
 74
     1
 75
     0
 76
     0
 77
     0
 78
     0
170
     0
171
     2
172
     0
173
     0
174
     0
175
     0
176
     0
177
     0
178
     0
  0
DIMSTYLE
  2
ANNOTATIVE
 70
     0
  3

  4

  5

  6

  7

 40
1.0
 41
0.18
 42
0.0625
 43
0.38
 44
0.18
 45
0.0
 46
0.0
 47
0.0
 48
0.0
140
0.18
141
0.09
142
0.0
143
25.399999999999999
144
1.0
145
0.0
146
1.0
147
0.09
 71
     0
 72
     0
 73
     1
 74
     1
 75
     0
 76
     0
 77
     0
 78
     0
170
     0
171
     2
172
     0
173
     0
174
     0
175
     0
176
     0
177
     0
178
     0
  0
ENDTAB
  0
ENDSEC
  0
SECTION
  2
BLOCKS
  0
BLOCK
  8
0
  2
$MODEL_SPACE
 70
     0
 10
0.0
 20
0.0
 30
0.0
  3
$MODEL_SPACE
  1

  0
ENDBLK
  5
73
  8
0
  0
BLOCK
 67
     1
  8
0
  2
$PAPER_SPACE
 70
     0
 10
0.0
 20
0.0
 30
0.0
  3
$PAPER_SPACE
  1

  0
ENDBLK
  5
6F
 67
     1
  8
0
  0
ENDSEC
  0
SECTION
  2
ENTITIES
  0
POLYLINE
  5
B7
  8
0
 66
     1
 10
0.0
 20
0.0
 30
0.0
 70
     1
  0
VERTEX
  5
B8
  8
0
 10
4.1244222197926899
 20
0.6974980687771331
 30
0.0
  0
VERTEX
  5
B9
  8
0
 10
4.1244222197926881
 20
0.447498068777133
 30
0.0
  0
VERTEX
  5
BB
  8
0
 10
2.3437499999999911
 20
0.4474980687771414
 30
0.0
  0
VERTEX
  5
BC
  8
0
 10
2.34375
 20
-1.5
 30
0.0
  0
VERTEX
  5
BD
  8
0
 10
2.59375
 20
-1.5
 30
0.0
  0
VERTEX
  5
BE
  8
0
 10
2.59375
 20
-1.75
 30
0.0
  0
VERTEX
  5
BF
  8
0
 10
2.84375
 20
-1.75
 30
0.0
  0
VERTEX
  5
C0
  8
0
 10
2.84375
 20
-1.5
 30
0.0
  0
VERTEX
  5
C1
  8
0
 10
3.09375
 20
-1.5
 30
0.0
  0
VERTEX
  5
C2
  8
0
 10
3.09375
 20
-1.75
 30
0.0
  0
VERTEX
  5
C3
  8
0
 10
3.3437500000000022
 20
-1.75
 30
0.0
  0
VERTEX
  5
C4
  8
0
 10
3.3437500000000022
 20
-1.5
 30
0.0
  0
VERTEX
  5
C5
  8
0
 10
3.59375
 20
-1.5
 30
0.0
  0
VERTEX
  5
C6
  8
0
 10
3.59375
 20
-1.75
 30
0.0
  0
VERTEX
  5
C7
  8
0
 10
3.84375
 20
-1.75
 30
0.0
  0
VERTEX
  5
C8
  8
0
 10
3.84375
 20
-1.5
 30
0.0
  0
VERTEX
  5
C9
  8
0
 10
4.09375
 20
-1.5
 30
0.0
  0
VERTEX
  5
CA
  8
0
 10
4.09375
 20
-1.75
 30
0.0
  0
VERTEX
  5
CB
  8
0
 10
4.3437500000000027
 20
-1.75
 30
0.0
  0
VERTEX
  5
CC
  8
0
 10
4.3437500000000027
 20
-1.5
 30
0.0
  0
VERTEX
  5
CD
  8
0
 10
4.59375
 20
-1.5
 30
0.0
  0
VERTEX
  5
CE
  8
0
 10
4.59375
 20
-1.75
 30
0.0
  0
VERTEX
  5
CF
  8
0
 10
4.84375
 20
-1.75
 30
0.0
  0
VERTEX
  5
D0
  8
0
 10
4.84375
 20
-1.5
 30
0.0
  0
VERTEX
  5
D1
  8
0
 10
5.0937499999999991
 20
-1.5
 30
0.0
  0
VERTEX
  5
D2
  8
0
 10
5.0937499999999991
 20
-1.75
 30
0.0
  0
VERTEX
  5
D3
  8
0
 10
5.3437500000000009
 20
-1.75
 30
0.0
  0
VERTEX
  5
D4
  8
0
 10
5.3437500000000009
 20
-1.5
 30
0.0
  0
VERTEX
  5
D5
  8
0
 10
5.6244222197926961
 20
-1.5
 30
0.0
  0
VERTEX
  5
D6
  8
0
 10
5.6244222197926961
 20
-1.75
 30
0.0
  0
VERTEX
  5
D7
  8
0
 10
6.3896889595660289
 20
-1.75
 30
0.0
 42
0.0013810268070489
  0
VERTEX
  5
D8
  8
0
 10
6.3992585991650781
 20
-1.7146761738041989
 30
0.0
 42
0.0404151429548667
  0
VERTEX
  5
D9
  8
0
 10
6.636772304197418
 20
-1.6958046415309951
 30
0.0
 42
0.0029088902912798
  0
VERTEX
  5
DA
  8
0
 10
6.6560541855830291
 20
-1.618469239306888
 30
0.0
 42
0.0404151429548667
  0
VERTEX
  5
DB
  8
0
 10
6.455201679202184
 20
-1.490300735028101
 30
0.0
 42
0.0029088902912798
  0
VERTEX
  5
DC
  8
0
 10
6.4721047588904703
 20
-1.4150918662572121
 30
0.0
 42
0.0404151429548667
  0
VERTEX
  5
DD
  8
0
 10
6.7084832590940264
 20
-1.3851903704744579
 30
0.0
 42
0.0029088902912798
  0
VERTEX
  5
DE
  8
0
 10
6.7241462066164983
 20
-1.3070416183293301
 30
0.0
 42
0.0404151429548667
  0
VERTEX
  5
DF
  8
0
 10
6.5175481214619513
 20
-1.1883566318356551
 30
0.0
 42
0.0029088902912798
  0
VERTEX
  5
E0
  8
0
 10
6.5309337808972927
 20
-1.112442784836404
 30
0.0
 42
0.0404151429548671
  0
VERTEX
  5
E1
  8
0
 10
6.7656651330766922
 20
-1.071576085525584
 30
0.0
 42
0.0029088902912775
  0
VERTEX
  5
E2
  8
0
 10
6.77767522427947
 20
-0.9927832362546366
 30
0.0
 42
0.0404151429548664
  0
VERTEX
  5
E3
  8
0
 10
6.5657790057990164
 20
-0.8838388127983941
 30
0.0
 42
0.0029088902912846
  0
VERTEX
  5
E4
  8
0
 10
6.5756182546237589
 20
-0.8073844000591003
 30
0.0
 42
0.0404151429548671
  0
VERTEX
  5
E5
  8
0
 10
6.80819408293946
 20
-0.7556410053908554
 30
0.0
 42
0.0029088902912798
  0
VERTEX
  5
E6
  8
0
 10
6.8165253066393703
 20
-0.6763747067602607
 30
0.0
 42
0.0404151429548667
  0
VERTEX
  5
E7
  8
0
 10
6.5997898748578141
 20
-0.5774067957032356
 30
0.0
 42
0.0029088902912846
  0
VERTEX
  5
E8
  8
0
 10
6.6060614034499761
 20
-0.5005774004572539
 30
0.0
 42
0.0404151429548664
  0
VERTEX
  5
E9
  8
0
 10
6.835978000447148
 20
-0.4380693751023648
 30
0.0
 42
0.0029088902912775
  0
VERTEX
  5
EA
  8
0
 10
6.8406123130688297
 20
-0.3585013002641612
 30
0.0
 42
0.0404151429548671
  0
VERTEX
  5
EB
  8
0
 10
6.6195070686694022
 20
-0.2697242440638191
 30
0.0
 42
0.0029088902912798
  0
VERTEX
  5
EC
  8
0
 10
6.622197294294577
 20
-0.1926862616731108
 30
0.0
 42
0.0404151429548672
  0
VERTEX
  5
ED
  8
0
 10
6.8489567118212786
 20
-0.1195489840953912
 30
0.0
 42
0.0029088902912775
  0
VERTEX
  5
EE
  8
0
 10
6.8498840764755471
 20
-0.0398514597817012
 30
0.0
 42
0.0404151429548671
  0
VERTEX
  5
EF
  8
0
 10
6.624887884182554
 20
0.0385424702268396
 30
0.0
 42
0.0029088902912798
  0
VERTEX
  5
F0
  8
0
 10
6.623990980411091
 20
0.1156221926470066
 30
0.0
 42
0.0404151429548669
  0
VERTEX
  5
F1
  8
0
 10
6.847102108063071
 20
0.1992303233903157
 30
0.0
 42
0.0029088902912775
  0
VERTEX
  5
F2
  8
0
 10
6.8443205162845899
 20
0.2788846900886338
 30
0.0
 42
0.0404151429548667
  0
VERTEX
  5
F3
  8
0
 10
6.6159206677490507
 20
0.3467257101095043
 30
0.0
 42
0.0029088902912775
  0
VERTEX
  5
F4
  8
0
 10
6.6114385770747992
 20
0.4236802350442543
 30
0.0
 42
0.0404151429548672
  0
VERTEX
  5
F5
  8
0
 10
6.8304182058312941
 20
0.5175781423595737
 30
0.0
 42
0.0029088902912798
  0
VERTEX
  5
F6
  8
0
 10
6.8239336819284553
 20
0.5970168378214638
 30
0.0
 42
0.0404151429548667
  0
VERTEX
  5
F7
  8
0
 10
6.5926248403628938
 20
0.6541580193119363
 30
0.0
 42
0.0029088902912775
  0
VERTEX
  5
F8
  8
0
 10
6.5845672699961941
 20
0.7308206803962668
 30
0.0
 42
0.0404151429548671
  0
VERTEX
  5
F9
  8
0
 10
6.7989411387430536
 20
0.8348050023252611
 30
0.0
 42
0.0029088902912775
  0
VERTEX
  5
FA
  8
0
 10
6.7887677267506801
 20
0.9138559800255132
 30
0.0
 42
0.0404151429548664
  0
VERTEX
  5
FB
  8
0
 10
6.5550508555987559
 20
0.9601735679105098
 30
0.0
 42
0.0029088902912798
  0
VERTEX
  5
FC
  8
0
 10
6.5434352564427876
 20
1.0363783308915271
 30
0.0
 42
0.0404151429548667
  0
VERTEX
  5
FD
  8
0
 10
6.7527390791164459
 20
1.150223860547819
 30
0.0
 42
0.0029088902912775
  0
VERTEX
  5
FE
  8
0
 10
6.738898812379527
 20
1.2287159136715851
 30
0.0
 42
0.0404151429548671
  0
VERTEX
  5
FF
  8
0
 10
6.5032800903407733
 20
1.264109594369611
 30
0.0
 42
0.0029088902912775
  0
VERTEX
  5
100
  8
0
 10
6.4881316191967784
 20
1.3396914166997509
 30
0.0
 42
0.0404151429548667
  0
VERTEX
  5
101
  8
0
 10
6.6919120903244842
 20
1.4631515900168921
 30
0.0
 42
0.0029088902912775
  0
VERTEX
  5
102
  8
0
 10
6.6744349437788602
 20
1.54091472225548
 30
0.0
 42
0.0404151429548664
  0
VERTEX
  5
103
  8
0
 10
6.4374246685383296
 20
1.565307840935503
 30
0.0
 42
0.0029088902912775
  0
VERTEX
  5
104
  8
0
 10
6.4187761336215923
 20
1.6401030292179339
 30
0.0
 42
0.0404151429548667
  0
VERTEX
  5
105
  8
0
 10
6.6165919100801149
 20
1.7729104589522671
 30
0.0
 42
0.0029088902912775
  0
VERTEX
  5
106
  8
0
 10
6.5955157353334464
 20
1.8497762526773061
 30
0.0
 42
0.0404151429548669
  0
VERTEX
  5
107
  8
0
 10
6.3576272183705642
 20
1.863115979276053
 30
0.0
 42
0.0029088902912798
  0
VERTEX
  5
108
  8
0
 10
6.3355190082551101
 20
1.9369625437881299
 30
0.0
 42
0.0404151429548662
  0
VERTEX
  5
109
  8
0
 10
6.526941665121675
 20
2.078829598620016
 30
0.0
 42
0.0029088902912798
  0
VERTEX
  5
10A
  8
0
 10
6.5023121084752802
 20
2.1546315796385569
 30
0.0
 42
0.0404151429548667
  0
VERTEX
  5
10B
  8
0
 10
6.2640605633454713
 20
2.1568890232786662
 30
0.0
 42
0.0029088902912798
  0
VERTEX
  5
10C
  8
0
 10
6.2385405594914234
 20
2.2296270288055879
 30
0.0
 42
0.0404151429548667
  0
VERTEX
  5
10D
  8
0
 10
6.4231555179166904
 20
2.3802464562847989
 30
0.0
 42
0.0029088902912775
  0
VERTEX
  5
10E
  8
0
 10
6.395025921505832
 20
2.454820454385306
 30
0.0
 42
0.0404151429548667
  0
VERTEX
  5
10F
  8
0
 10
6.1569273480026983
 20
2.4459907259465341
 30
0.0
 42
0.0029088902912798
  0
VERTEX
  5
110
  8
0
 10
6.1280508210556821
 20
2.5174626381654148
 30
0.0
 42
0.0404151429548669
  0
VERTEX
  5
111
  8
0
 10
6.3054582461492164
 20
2.6765082301515202
 30
0.0
 42
0.0029088902912798
  0
VERTEX
  5
112
  8
0
 10
6.2738895324158976
 20
2.7496927346600399
 30
0.0
 42
0.0404151429548666
  0
VERTEX
  5
113
  8
0
 10
6.036459599030561
 20
2.7297949573680058
 30
0.0
 42
0.0029088902912798
  0
VERTEX
  5
114
  8
0
 10
6.0042890891178047
 20
2.7998459840321348
 30
0.0
 42
0.0404151429548664
  0
VERTEX
  5
115
  8
0
 10
6.1741047559014151
 20
2.966973283188695
 30
0.0
 42
0.0029088902912775
  0
VERTEX
  5
116
  8
0
 10
6.1391652956499643
 20
3.0386097927649551
 30
0.0
 42
0.0404151429548666
  0
VERTEX
  5
117
  8
0
 10
5.9029182227479371
 20
3.0076870607744959
 30
0.0
 42
0.0029088902912798
  0
VERTEX
  5
118
  8
0
 10
5.8675234040302806
 20
3.076165486958875
 30
0.0
 42
0.0404151429548672
  0
VERTEX
  5
119
  8
0
 10
6.0293795295837631
 20
3.2510125327713331
 30
0.0
 42
0.0029088902912798
  0
VERTEX
  5
11A
  8
0
 10
5.9911449939048591
 20
3.3209458986874099
 30
0.0
 42
0.0404151429548666
  0
VERTEX
  5
11B
  8
0
 10
5.7565924400392481
 20
3.279065183750236
 30
0.0
 42
0.0029088902912775
  0
VERTEX
  5
11C
  8
0
 10
5.7180499698124168
 20
3.3458227004323211
 30
0.0
 42
0.0404151429548669
  0
VERTEX
  5
11D
  8
0
 10
5.8715960098094691
 20
3.5280108131338692
 30
0.0
 42
0.0029088902912798
  0
VERTEX
  5
11E
  8
0
 10
5.830149206193445
 20
3.596089575291741
 30
0.0
 42
0.0404151429548667
  0
VERTEX
  5
11F
  8
0
 10
5.5977991599664518
 20
3.5433415817105289
 30
0.0
 42
0.0029088902912798
  0
VERTEX
  5
120
  8
0
 10
5.5561925126384333
 20
3.6082336069745549
 30
0.0
 42
0.0404151429548669
  0
VERTEX
  5
121
  8
0
 10
5.7010959205476004
 20
3.7973682076821942
 30
0.0
 42
0.0029088902912798
  0
VERTEX
  5
122
  8
0
 10
5.6565266135418391
 20
3.8634449226425991
 30
0.0
 42
0.0404151429548667
  0
VERTEX
  5
123
  8
0
 10
5.4268822934145691
 20
3.7999438908256811
 30
0.0
 42
0.0029088902912798
  0
VERTEX
  5
124
  8
0
 10
5.3823015797186304
 20
3.8628298829948902
 30
0.0
 42
0.0404151429548669
  0
VERTEX
  5
125
  8
0
 10
5.5182485270250448
 20
4.0585013482794219
 30
0.0
 42
0.0029088902912775
  0
VERTEX
  5
126
  8
0
 10
5.4706532438239526
 20
4.1224329085915343
 30
0.0
 42
0.0404151429548667
  0
VERTEX
  5
127
  8
0
 10
5.2442120082572821
 20
4.0483163676335998
 30
0.0
 42
0.0029088902912846
  0
VERTEX
  5
128
  8
0
 10
5.1967537800921866
 20
4.1090601296522227
 30
0.0
 42
0.0404151429548667
  0
VERTEX
  5
129
  8
0
 10
5.3234498359802478
 20
4.3108446786913852
 30
0.0
 42
0.0029088902912798
  0
VERTEX
  5
12A
  8
0
 10
5.2729316573688694
 20
4.3724926228316479
 30
0.0
 42
0.0404151429548667
  0
VERTEX
  5
12B
  8
0
 10
5.0501839276557687
 20
4.2879210926563651
 30
0.0
 42
0.0029088902912798
  0
VERTEX
  5
12C
  8
0
 10
4.9999509689758659
 20
4.3463910670621102
 30
0.0
 42
0.0404151429548669
  0
VERTEX
  5
12D
  8
0
 10
5.117121738000824
 20
4.5538516794554704
 30
0.0
 42
0.0029088902912775
  0
VERTEX
  5
12E
  8
0
 10
5.0637900751047811
 20
4.6130824917044686
 30
0.0
 42
0.0404151429548669
  0
VERTEX
  5
12F
  8
0
 10
4.8452182732270019
 20
4.5182391354140528
 30
0.0
 42
0.0029088902912775
  0
VERTEX
  5
130
  8
0
 10
4.7923193774350654
 20
4.5743086892622777
 30
0.0
 42
0.0404151429548666
  0
VERTEX
  5
131
  8
0
 10
4.8997110938024528
 20
4.786996051520112
 30
0.0
 42
0.0029088902912798
  0
VERTEX
  5
132
  8
0
 10
4.8436814511278472
 20
4.8436814511278543
 30
0.0
 42
0.0404151429548667
  0
VERTEX
  5
133
  8
0
 10
4.6297589549373344
 20
4.7387716783125944
 30
0.0
 42
0.0029088902912798
  0
VERTEX
  5
134
  8
0
 10
4.574308689262276
 20
4.7923193774350672
 30
0.0
 42
0.0404151429548671
  0
VERTEX
  5
135
  8
0
 10
4.6716887664281108
 20
5.0097728560913177
 30
0.0
 42
0.0029088902912798
  0
VERTEX
  5
136
  8
0
 10
4.613082491704465
 20
5.0637900751047837
 30
0.0
 42
0.0404151429548669
  0
VERTEX
  5
137
  8
0
 10
4.4042726096923372
 20
4.9490410969715981
 30
0.0
 42
0.0029088902912798
  0
VERTEX
  5
138
  8
0
 10
4.3463910670621111
 20
4.9999509689758632
 30
0.0
 42
0.0404151429548664
  0
VERTEX
  5
139
  8
0
 10
4.4335486014635617
 20
5.2216996082176603
 30
0.0
 42
0.0029088902912798
  0
VERTEX
  5
13A
  8
0
 10
4.3724926228316452
 20
5.272931657368872
 30
0.0
 42
0.0404151429548666
  0
VERTEX
  5
13B
  8
0
 10
4.1692475907051687
 20
5.148591994652433
 30
0.0
 42
0.0029088902912775
  0
VERTEX
  5
13C
  8
0
 10
4.1090601296522209
 20
5.1967537800921901
 30
0.0
 42
0.0404151429548667
  0
VERTEX
  5
13D
  8
0
 10
4.1858063574777571
 20
5.4223173217452674
 30
0.0
 42
0.0029088902912798
  0
VERTEX
  5
13E
  8
0
 10
4.1224329085915299
 20
5.4706532438239561
 30
0.0
 42
0.0404151429548669
  0
VERTEX
  5
13F
  8
0
 10
3.9251929098322909
 20
5.3369921885461196
 30
0.0
 42
0.0029088902912798
  0
VERTEX
  5
140
  8
0
 10
3.8628298829948942
 20
5.3823015797186269
 30
0.0
 42
0.0404151429548669
  0
VERTEX
  5
141
  8
0
 10
3.9289985890046681
 20
5.6111915033795894
 30
0.0
 42
0.0029088902912775
  0
VERTEX
  5
142
  8
0
 10
3.863444922642596
 20
5.6565266135418426
 30
0.0
 42
0.0404151429548669
  0
VERTEX
  5
143
  8
0
 10
3.672637135167085
 20
5.5138336457850912
 30
0.0
 42
0.0029088902912798
  0
VERTEX
  5
144
  8
0
 10
3.608233606974554
 20
5.5561925126384342
 30
0.0
 42
0.0404151429548669
  0
VERTEX
  5
145
  8
0
 10
3.6636814844856
 20
5.7879130937011629
 30
0.0
 42
0.0029088902912798
  0
VERTEX
  5
146
  8
0
 10
3.5960895752917308
 20
5.8301492061934512
 30
0.0
 42
0.0404151429548669
  0
VERTEX
  5
147
  8
0
 10
3.412127246279105
 20
5.6787333671514961
 30
0.0
 42
0.0029088902912798
  0
VERTEX
  5
148
  8
0
 10
3.345822700432318
 20
5.7180499698124159
 30
0.0
 42
0.0404151429548671
  0
VERTEX
  5
149
  8
0
 10
3.3904296616889189
 20
5.9520993530971857
 30
0.0
 42
0.0029088902912798
  0
VERTEX
  5
14A
  8
0
 10
3.3209458986874059
 20
5.9911449939048609
 30
0.0
 42
0.0404151429548669
  0
VERTEX
  5
14B
  8
0
 10
3.1442274495781168
 20
5.8313342165682371
 30
0.0
 42
0.0029088902912798
  0
VERTEX
  5
14C
  8
0
 10
3.0761654869588781
 20
5.8675234040302771
 30
0.0
 42
0.0404151429548667
  0
VERTEX
  5
14D
  8
0
 10
3.1098349232158968
 20
6.103394690690318
 30
0.0
 42
0.0029088902912775
  0
VERTEX
  5
14E
  8
0
 10
3.038609792764952
 20
6.1391652956499652
 30
0.0
 42
0.0404151429548669
  0
VERTEX
  5
14F
  8
0
 10
2.8695179563686271
 20
5.9713056945761878
 30
0.0
 42
0.0029088902912798
  0
VERTEX
  5
150
  8
0
 10
2.799845984032133
 20
6.0042890891178047
 30
0.0
 42
0.0404151429548669
  0
VERTEX
  5
151
  8
0
 10
2.8225049747880471
 20
6.2414714344693358
 30
0.0
 42
0.0029088902912775
  0
VERTEX
  5
152
  8
0
 10
2.7496927346600351
 20
6.2738895324159012
 30
0.0
 42
0.0404151429548671
  0
VERTEX
  5
153
  8
0
 10
2.588593726241438
 20
6.0983446541224167
 30
0.0
 42
0.0029088902912798
  0
VERTEX
  5
154
  8
0
 10
2.517462638165421
 20
6.1280508210556794
 30
0.0
 42
0.0404151429548671
  0
VERTEX
  5
155
  8
0
 10
2.5290621090918912
 20
6.366030540953731
 30
0.0
 42
0.0029088902912798
  0
VERTEX
  5
156
  8
0
 10
2.4548204543853029
 20
6.3950259215058329
 30
0.0
 42
0.0404151429548667
  0
VERTEX
  5
157
  8
0
 10
2.3020631785236181
 20
6.2121759571092099
 30
0.0
 42
0.0029088902912798
  0
VERTEX
  5
158
  8
0
 10
2.2296270288055879
 20
6.2385405594914243
 30
0.0
 42
0.0404151429548669
  0
VERTEX
  5
159
  8
0
 10
2.2301418580315242
 20
6.4768022428553191
 30
0.0
 42
0.0029088902912775
  0
VERTEX
  5
15A
  8
0
 10
2.1546315796385471
 20
6.5023121084752828
 30
0.0
 42
0.0404151429548669
  0
VERTEX
  5
15B
  8
0
 10
2.0105468745777508
 20
6.3125530702819148
 30
0.0
 42
0.0029088902912798
  0
VERTEX
  5
15C
  8
0
 10
1.936962543788129
 20
6.3355190082551101
 30
0.0
 42
0.0404151429548669
  0
VERTEX
  5
15D
  8
0
 10
1.926391616308067
 20
6.5735466333340922
 30
0.0
 42
0.0029088902912775
  0
VERTEX
  5
15E
  8
0
 10
1.8497762526773021
 20
6.5955157353334481
 30
0.0
 42
0.0404151429548667
  0
VERTEX
  5
15F
  8
0
 10
1.7146761738041989
 20
6.3992585991650772
 30
0.0
 42
0.0029088902912798
  0
VERTEX
  5
160
  8
0
 10
1.6401030292179331
 20
6.4187761336215923
 30
0.0
 42
0.0404151429548669
  0
VERTEX
  5
161
  8
0
 10
1.618469239306894
 20
6.6560541855830273
 30
0.0
 42
0.0029088902912775
  0
VERTEX
  5
162
  8
0
 10
1.54091472225547
 20
6.6744349437788619
 30
0.0
 42
0.0404151429548669
  0
VERTEX
  5
163
  8
0
 10
1.415091866257211
 20
6.4721047588904703
 30
0.0
 42
0.0029088902912798
  0
VERTEX
  5
164
  8
0
 10
1.3396914166997509
 20
6.4881316191967784
 30
0.0
 42
0.0404151429548672
  0
VERTEX
  5
165
  8
0
 10
1.307041618329331
 20
6.7241462066164983
 30
0.0
 42
0.0029088902912798
  0
VERTEX
  5
166
  8
0
 10
1.2287159136715811
 20
6.738898812379527
 30
0.0
 42
0.0404151429548669
  0
VERTEX
  5
167
  8
0
 10
1.112442784836398
 20
6.5309337808972936
 30
0.0
 42
0.0029088902912798
  0
VERTEX
  5
168
  8
0
 10
1.0363783308915311
 20
6.5434352564427858
 30
0.0
 42
0.0404151429548664
  0
VERTEX
  5
169
  8
0
 10
0.9927832362546432
 20
6.7776752242794682
 30
0.0
 42
0.0029088902912798
  0
VERTEX
  5
16A
  8
0
 10
0.9138559800255081
 20
6.7887677267506801
 30
0.0
 42
0.0404151429548667
  0
VERTEX
  5
16B
  8
0
 10
0.8073844000590996
 20
6.575618254623758
 30
0.0
 42
0.0029088902912798
  0
VERTEX
  5
16C
  8
0
 10
0.7308206803962646
 20
6.5845672699961941
 30
0.0
 42
0.0404151429548669
  0
VERTEX
  5
16D
  8
0
 10
0.6763747067602628
 20
6.8165253066393703
 30
0.0
 42
0.0029088902912798
  0
VERTEX
  5
16E
  8
0
 10
0.5970168378214522
 20
6.8239336819284571
 30
0.0
 42
0.0404151429548664
  0
VERTEX
  5
16F
  8
0
 10
0.5005774004572487
 20
6.6060614034499761
 30
0.0
 42
0.0029088902912846
  0
VERTEX
  5
170
  8
0
 10
0.4236802350442519
 20
6.6114385770747992
 30
0.0
 42
0.0404151429548667
  0
VERTEX
  5
171
  8
0
 10
0.3585013002641637
 20
6.8406123130688288
 30
0.0
 42
0.0029088902912775
  0
VERTEX
  5
172
  8
0
 10
0.2788846900886272
 20
6.8443205162845899
 30
0.0
 42
0.0404151429548664
  0
VERTEX
  5
173
  8
0
 10
0.1926862616731102
 20
6.6221972942945779
 30
0.0
 42
0.0029088902912846
  0
VERTEX
  5
174
  8
0
 10
0.1156221926470024
 20
6.623990980411091
 30
0.0
 42
0.0404151429548669
  0
VERTEX
  5
175
  8
0
 10
0.0398514597817079
 20
6.8498840764755462
 30
0.0
 42
0.0029088902912727
  0
VERTEX
  5
176
  8
0
 10
-0.0398514597817115
 20
6.8498840764755471
 30
0.0
 42
0.0404151429548667
  0
VERTEX
  5
177
  8
0
 10
-0.1156221926470061
 20
6.623990980411091
 30
0.0
 42
0.0029088902912846
  0
VERTEX
  5
178
  8
0
 10
-0.1926862616731134
 20
6.6221972942945779
 30
0.0
 42
0.0404151429548667
  0
VERTEX
  5
179
  8
0
 10
-0.2788846900886309
 20
6.844320516284589
 30
0.0
 42
0.0029088902912775
  0
VERTEX
  5
17A
  8
0
 10
-0.3585013002641684
 20
6.8406123130688297
 30
0.0
 42
0.0404151429548664
  0
VERTEX
  5
17B
  8
0
 10
-0.4236802350442577
 20
6.6114385770747992
 30
0.0
 42
0.0029088902912798
  0
VERTEX
  5
17C
  8
0
 10
-0.5005774004572534
 20
6.6060614034499743
 30
0.0
 42
0.0404151429548662
  0
VERTEX
  5
17D
  8
0
 10
-0.5970168378214579
 20
6.8239336819284553
 30
0.0
 42
0.0029088902912775
  0
VERTEX
  5
17E
  8
0
 10
-0.6763747067602647
 20
6.8165253066393703
 30
0.0
 42
0.0404151429548669
  0
VERTEX
  5
17F
  8
0
 10
-0.730820680396268
 20
6.5845672699961941
 30
0.0
 42
0.0029088902912798
  0
VERTEX
  5
180
  8
0
 10
-0.8073844000591012
 20
6.575618254623758
 30
0.0
 42
0.0404151429548669
  0
VERTEX
  5
181
  8
0
 10
-0.9138559800255116
 20
6.7887677267506801
 30
0.0
 42
0.0029088902912798
  0
VERTEX
  5
182
  8
0
 10
-0.9927832362546435
 20
6.7776752242794691
 30
0.0
 42
0.0404151429548669
  0
VERTEX
  5
183
  8
0
 10
-1.036378330891532
 20
6.5434352564427858
 30
0.0
 42
0.0029088902912798
  0
VERTEX
  5
184
  8
0
 10
-1.112442784836398
 20
6.5309337808972936
 30
0.0
 42
0.0404151429548669
  0
VERTEX
  5
185
  8
0
 10
-1.2287159136715819
 20
6.738898812379527
 30
0.0
 42
0.0029088902912775
  0
VERTEX
  5
186
  8
0
 10
-1.3070416183293341
 20
6.7241462066164983
 30
0.0
 42
0.0404151429548667
  0
VERTEX
  5
187
  8
0
 10
-1.339691416699754
 20
6.4881316191967784
 30
0.0
 42
0.0029088902912798
  0
VERTEX
  5
188
  8
0
 10
-1.4150918662572141
 20
6.4721047588904721
 30
0.0
 42
0.0404151429548671
  0
VERTEX
  5
189
  8
0
 10
-1.5409147222554751
 20
6.674434943778861
 30
0.0
 42
0.0029088902912798
  0
VERTEX
  5
18A
  8
0
 10
-1.6184692393068949
 20
6.6560541855830291
 30
0.0
 42
0.0404151429548669
  0
VERTEX
  5
18B
  8
0
 10
-1.640103029217935
 20
6.4187761336215923
 30
0.0
 42
0.0029088902912798
  0
VERTEX
  5
18C
  8
0
 10
-1.7146761738041989
 20
6.3992585991650772
 30
0.0
 42
0.0404151429548667
  0
VERTEX
  5
18D
  8
0
 10
-1.8497762526773041
 20
6.5955157353334464
 30
0.0
 42
0.0029088902912775
  0
VERTEX
  5
18E
  8
0
 10
-1.9263916163080721
 20
6.5735466333340922
 30
0.0
 42
0.0404151429548667
  0
VERTEX
  5
18F
  8
0
 10
-1.936962543788133
 20
6.3355190082551101
 30
0.0
 42
0.0029088902912798
  0
VERTEX
  5
190
  8
0
 10
-2.0105468745777548
 20
6.3125530702819148
 30
0.0
 42
0.0404151429548671
  0
VERTEX
  5
191
  8
0
 10
-2.1546315796385529
 20
6.502312108475282
 30
0.0
 42
0.0029088902912775
  0
VERTEX
  5
192
  8
0
 10
-2.2301418580315269
 20
6.4768022428553191
 30
0.0
 42
0.0404151429548664
  0
VERTEX
  5
193
  8
0
 10
-2.2296270288055902
 20
6.2385405594914234
 30
0.0
 42
0.0029088902912798
  0
VERTEX
  5
194
  8
0
 10
-2.3020631785236199
 20
6.212175957109209
 30
0.0
 42
0.0404151429548669
  0
VERTEX
  5
195
  8
0
 10
-2.454820454385306
 20
6.3950259215058303
 30
0.0
 42
0.0029088902912798
  0
VERTEX
  5
196
  8
0
 10
-2.5290621090918921
 20
6.366030540953731
 30
0.0
 42
0.0404151429548669
  0
VERTEX
  5
197
  8
0
 10
-2.5174626381654202
 20
6.1280508210556803
 30
0.0
 42
0.0029088902912798
  0
VERTEX
  5
198
  8
0
 10
-2.588593726241438
 20
6.0983446541224158
 30
0.0
 42
0.0404151429548669
  0
VERTEX
  5
199
  8
0
 10
-2.7496927346600359
 20
6.2738895324158994
 30
0.0
 42
0.0029088902912775
  0
VERTEX
  5
19A
  8
0
 10
-2.8225049747880502
 20
6.2414714344693349
 30
0.0
 42
0.0404151429548667
  0
VERTEX
  5
19B
  8
0
 10
-2.7998459840321361
 20
6.0042890891178038
 30
0.0
 42
0.0029088902912798
  0
VERTEX
  5
19C
  8
0
 10
-2.8695179563686302
 20
5.9713056945761851
 30
0.0
 42
0.0404151429548667
  0
VERTEX
  5
19D
  8
0
 10
-3.0386097927649538
 20
6.1391652956499634
 30
0.0
 42
0.0029088902912798
  0
VERTEX
  5
19E
  8
0
 10
-3.1098349232158968
 20
6.103394690690318
 30
0.0
 42
0.0404151429548669
  0
VERTEX
  5
19F
  8
0
 10
-3.076165486958879
 20
5.8675234040302762
 30
0.0
 42
0.0029088902912798
  0
VERTEX
  5
1A0
  8
0
 10
-3.1442274495781168
 20
5.8313342165682354
 30
0.0
 42
0.0404151429548669
  0
VERTEX
  5
1A1
  8
0
 10
-3.3209458986874081
 20
5.9911449939048591
 30
0.0
 42
0.0029088902912798
  0
VERTEX
  5
1A2
  8
0
 10
-3.390429661688922
 20
5.9520993530971849
 30
0.0
 42
0.0404151429548669
  0
VERTEX
  5
1A3
  8
0
 10
-3.3458227004323229
 20
5.7180499698124141
 30
0.0
 42
0.0029088902912798
  0
VERTEX
  5
1A4
  8
0
 10
-3.412127246279109
 20
5.6787333671514926
 30
0.0
 42
0.0404151429548671
  0
VERTEX
  5
1A5
  8
0
 10
-3.5960895752917348
 20
5.8301492061934459
 30
0.0
 42
0.0029088902912798
  0
VERTEX
  5
1A6
  8
0
 10
-3.663681484485604
 20
5.787913093701162
 30
0.0
 42
0.0404151429548669
  0
VERTEX
  5
1A7
  8
0
 10
-3.6082336069745562
 20
5.5561925126384324
 30
0.0
 42
0.0029088902912798
  0
VERTEX
  5
1A8
  8
0
 10
-3.6726371351670859
 20
5.5138336457850903
 30
0.0
 42
0.0404151429548669
  0
VERTEX
  5
1A9
  8
0
 10
-3.8634449226425982
 20
5.6565266135418399
 30
0.0
 42
0.0029088902912798
  0
VERTEX
  5
1AA
  8
0
 10
-3.928998589004665
 20
5.611191503379592
 30
0.0
 42
0.0404151429548671
  0
VERTEX
  5
1AB
  8
0
 10
-3.8628298829948928
 20
5.3823015797186278
 30
0.0
 42
0.0029088902912798
  0
VERTEX
  5
1AC
  8
0
 10
-3.92519290983229
 20
5.3369921885461213
 30
0.0
 42
0.0404151429548669
  0
VERTEX
  5
1AD
  8
0
 10
-4.1224329085915281
 20
5.4706532438239561
 30
0.0
 42
0.0029088902912775
  0
VERTEX
  5
1AE
  8
0
 10
-4.1858063574777598
 20
5.4223173217452656
 30
0.0
 42
0.0404151429548669
  0
VERTEX
  5
1AF
  8
0
 10
-4.1090601296522253
 20
5.1967537800921866
 30
0.0
 42
0.0029088902912846
  0
VERTEX
  5
1B0
  8
0
 10
-4.169247590705174
 20
5.1485919946524312
 30
0.0
 42
0.0404151429548669
  0
VERTEX
  5
1B1
  8
0
 10
-4.3724926228316479
 20
5.2729316573688694
 30
0.0
 42
0.0029088902912798
  0
VERTEX
  5
1B2
  8
0
 10
-4.4335486014635634
 20
5.2216996082176603
 30
0.0
 42
0.0404151429548662
  0
VERTEX
  5
1B3
  8
0
 10
-4.346391067062112
 20
4.9999509689758632
 30
0.0
 42
0.0029088902912798
  0
VERTEX
  5
1B4
  8
0
 10
-4.404272609692339
 20
4.949041096971599
 30
0.0
 42
0.0404151429548671
  0
VERTEX
  5
1B5
  8
0
 10
-4.613082491704465
 20
5.063790075104782
 30
0.0
 42
0.0029088902912798
  0
VERTEX
  5
1B6
  8
0
 10
-4.6716887664281153
 20
5.0097728560913151
 30
0.0
 42
0.0404151429548669
  0
VERTEX
  5
1B7
  8
0
 10
-4.5743086892622822
 20
4.7923193774350628
 30
0.0
 42
0.0029088902912798
  0
VERTEX
  5
1B8
  8
0
 10
-4.6297589549373379
 20
4.7387716783125908
 30
0.0
 42
0.0404151429548669
  0
VERTEX
  5
1B9
  8
0
 10
-4.843681451127849
 20
4.843681451127849
 30
0.0
 42
0.0029088902912775
  0
VERTEX
  5
1BA
  8
0
 10
-4.8997110938024528
 20
4.7869960515201129
 30
0.0
 42
0.0404151429548671
  0
VERTEX
  5
1BB
  8
0
 10
-4.7923193774350672
 20
4.574308689262276
 30
0.0
 42
0.0029088902912775
  0
VERTEX
  5
1BC
  8
0
 10
-4.8452182732270028
 20
4.518239135414051
 30
0.0
 42
0.0404151429548669
  0
VERTEX
  5
1BD
  8
0
 10
-5.0637900751047811
 20
4.6130824917044659
 30
0.0
 42
0.0029088902912798
  0
VERTEX
  5
1BE
  8
0
 10
-5.1171217380008223
 20
4.5538516794554731
 30
0.0
 42
0.0404151429548669
  0
VERTEX
  5
1BF
  8
0
 10
-4.999950968975865
 20
4.3463910670621093
 30
0.0
 42
0.0029088902912798
  0
VERTEX
  5
1C0
  8
0
 10
-5.050183927655767
 20
4.2879210926563651
 30
0.0
 42
0.0404151429548669
  0
VERTEX
  5
1C1
  8
0
 10
-5.2729316573688667
 20
4.3724926228316479
 30
0.0
 42
0.0029088902912798
  0
VERTEX
  5
1C2
  8
0
 10
-5.3234498359802522
 20
4.3108446786913834
 30
0.0
 42
0.0404151429548666
  0
VERTEX
  5
1C3
  8
0
 10
-5.196753780092191
 20
4.10906012965222
 30
0.0
 42
0.0029088902912798
  0
VERTEX
  5
1C4
  8
0
 10
-5.2442120082572847
 20
4.0483163676335971
 30
0.0
 42
0.0404151429548666
  0
VERTEX
  5
1C5
  8
0
 10
-5.4706532438239552
 20
4.1224329085915299
 30
0.0
 42
0.0029088902912798
  0
VERTEX
  5
1C6
  8
0
 10
-5.5182485270250474
 20
4.0585013482794228
 30
0.0
 42
0.0404151429548669
  0
VERTEX
  5
1C7
  8
0
 10
-5.3823015797186322
 20
3.8628298829948902
 30
0.0
 42
0.0029088902912798
  0
VERTEX
  5
1C8
  8
0
 10
-5.42688229341457
 20
3.7999438908256788
 30
0.0
 42
0.0404151429548669
  0
VERTEX
  5
1C9
  8
0
 10
-5.6565266135418391
 20
3.8634449226425982
 30
0.0
 42
0.0029088902912798
  0
VERTEX
  5
1CA
  8
0
 10
-5.7010959205476031
 20
3.7973682076821929
 30
0.0
 42
0.0404151429548669
  0
VERTEX
  5
1CB
  8
0
 10
-5.5561925126384351
 20
3.60823360697455
 30
0.0
 42
0.0029088902912846
  0
VERTEX
  5
1CC
  8
0
 10
-5.5977991599664536
 20
3.543341581710524
 30
0.0
 42
0.0404151429548666
  0
VERTEX
  5
1CD
  8
0
 10
-5.8301492061934459
 20
3.596089575291737
 30
0.0
 42
0.0029088902912798
  0
VERTEX
  5
1CE
  8
0
 10
-5.8715960098094708
 20
3.5280108131338661
 30
0.0
 42
0.0404151429548669
  0
VERTEX
  5
1CF
  8
0
 10
-5.7180499698124168
 20
3.3458227004323171
 30
0.0
 42
0.0029088902912798
  0
VERTEX
  5
1D0
  8
0
 10
-5.7565924400392499
 20
3.2790651837502311
 30
0.0
 42
0.0404151429548669
  0
VERTEX
  5
1D1
  8
0
 10
-5.99114499390486
 20
3.3209458986874081
 30
0.0
 42
0.0029088902912798
  0
VERTEX
  5
1D2
  8
0
 10
-6.0293795295837613
 20
3.2510125327713348
 30
0.0
 42
0.0404151429548669
  0
VERTEX
  5
1D3
  8
0
 10
-5.8675234040302779
 20
3.076165486958875
 30
0.0
 42
0.0029088902912798
  0
VERTEX
  5
1D4
  8
0
 10
-5.9029182227479362
 20
3.0076870607744972
 30
0.0
 42
0.0404151429548667
  0
VERTEX
  5
1D5
  8
0
 10
-6.1391652956499634
 20
3.038609792764956
 30
0.0
 42
0.0029088902912775
  0
VERTEX
  5
1D6
  8
0
 10
-6.1741047559014168
 20
2.9669732831886928
 30
0.0
 42
0.0404151429548672
  0
VERTEX
  5
1D7
  8
0
 10
-6.0042890891178056
 20
2.7998459840321299
 30
0.0
 42
0.0029088902912846
  0
VERTEX
  5
1D8
  8
0
 10
-6.036459599030561
 20
2.7297949573680031
 30
0.0
 42
0.0404151429548667
  0
VERTEX
  5
1D9
  8
0
 10
-6.2738895324158994
 20
2.7496927346600351
 30
0.0
 42
0.0029088902912798
  0
VERTEX
  5
1DA
  8
0
 10
-6.3054582461492172
 20
2.6765082301515219
 30
0.0
 42
0.0404151429548667
  0
VERTEX
  5
1DB
  8
0
 10
-6.1280508210556821
 20
2.5174626381654148
 30
0.0
 42
0.0029088902912798
  0
VERTEX
  5
1DC
  8
0
 10
-6.1569273480026991
 20
2.4459907259465332
 30
0.0
 42
0.0404151429548667
  0
VERTEX
  5
1DD
  8
0
 10
-6.395025921505832
 20
2.454820454385306
 30
0.0
 42
0.0029088902912798
  0
VERTEX
  5
1DE
  8
0
 10
-6.423155517916693
 20
2.3802464562847971
 30
0.0
 42
0.0404151429548667
  0
VERTEX
  5
1DF
  8
0
 10
-6.2385405594914252
 20
2.2296270288055839
 30
0.0
 42
0.0029088902912798
  0
VERTEX
  5
1E0
  8
0
 10
-6.264060563345474
 20
2.1568890232786622
 30
0.0
 42
0.0404151429548667
  0
VERTEX
  5
1E1
  8
0
 10
-6.5023121084752811
 20
2.1546315796385529
 30
0.0
 42
0.0029088902912727
  0
VERTEX
  5
1E2
  8
0
 10
-6.5269416651216794
 20
2.0788295986200138
 30
0.0
 42
0.0404151429548667
  0
VERTEX
  5
1E3
  8
0
 10
-6.3355190082551101
 20
1.936962543788127
 30
0.0
 42
0.0029088902912798
  0
VERTEX
  5
1E4
  8
0
 10
-6.3576272183705651
 20
1.863115979276053
 30
0.0
 42
0.0404151429548671
  0
VERTEX
  5
1E5
  8
0
 10
-6.5955157353334464
 20
1.8497762526773041
 30
0.0
 42
0.0029088902912775
  0
VERTEX
  5
1E6
  8
0
 10
-6.6165919100801194
 20
1.772910458952262
 30
0.0
 42
0.0404151429548671
  0
VERTEX
  5
1E7
  8
0
 10
-6.4187761336215923
 20
1.6401030292179279
 30
0.0
 42
0.0029088902912798
  0
VERTEX
  5
1E8
  8
0
 10
-6.4374246685383278
 20
1.5653078409354979
 30
0.0
 42
0.0404151429548664
  0
VERTEX
  5
1E9
  8
0
 10
-6.6744349437788602
 20
1.540914722255474
 30
0.0
 42
0.0029088902912775
  0
VERTEX
  5
1EA
  8
0
 10
-6.6919120903244851
 20
1.463151590016893
 30
0.0
 42
0.0404151429548671
  0
VERTEX
  5
1EB
  8
0
 10
-6.4881316191967784
 20
1.3396914166997489
 30
0.0
 42
0.0029088902912775
  0
VERTEX
  5
1EC
  8
0
 10
-6.5032800903407733
 20
1.2641095943696099
 30
0.0
 42
0.0404151429548672
  0
VERTEX
  5
1ED
  8
0
 10
-6.738898812379527
 20
1.2287159136715839
 30
0.0
 42
0.0029088902912775
  0
VERTEX
  5
1EE
  8
0
 10
-6.7527390791164494
 20
1.150223860547819
 30
0.0
 42
0.0404151429548671
  0
VERTEX
  5
1EF
  8
0
 10
-6.5434352564427876
 20
1.036378330891526
 30
0.0
 42
0.0029088902912846
  0
VERTEX
  5
1F0
  8
0
 10
-6.5550508555987577
 20
0.9601735679105086
 30
0.0
 42
0.0404151429548669
  0
VERTEX
  5
1F1
  8
0
 10
-6.7887677267506801
 20
0.9138559800255112
 30
0.0
 42
0.0029088902912798
  0
VERTEX
  5
1F2
  8
0
 10
-6.7989411387430563
 20
0.8348050023252577
 30
0.0
 42
0.0404151429548669
  0
VERTEX
  5
1F3
  8
0
 10
-6.5845672699961941
 20
0.730820680396263
 30
0.0
 42
0.0029088902912798
  0
VERTEX
  5
1F4
  8
0
 10
-6.5926248403628938
 20
0.6541580193119316
 30
0.0
 42
0.0404151429548669
  0
VERTEX
  5
1F5
  8
0
 10
-6.8239336819284553
 20
0.5970168378214592
 30
0.0
 42
0.0029088902912775
  0
VERTEX
  5
1F6
  8
0
 10
-6.8304182058312941
 20
0.5175781423595735
 30
0.0
 42
0.0404151429548669
  0
VERTEX
  5
1F7
  8
0
 10
-6.6114385770747992
 20
0.4236802350442524
 30
0.0
 42
0.0029088902912798
  0
VERTEX
  5
1F8
  8
0
 10
-6.6159206677490507
 20
0.3467257101095027
 30
0.0
 42
0.0404151429548669
  0
VERTEX
  5
1F9
  8
0
 10
-6.844320516284589
 20
0.2788846900886319
 30
0.0
 42
0.0029088902912775
  0
VERTEX
  5
1FA
  8
0
 10
-6.8471021080630727
 20
0.1992303233903117
 30
0.0
 42
0.0404151429548666
  0
VERTEX
  5
1FB
  8
0
 10
-6.623990980411091
 20
0.1156221926470002
 30
0.0
 42
0.0029088902912798
  0
VERTEX
  5
1FC
  8
0
 10
-6.6248878841825549
 20
0.0385424702268345
 30
0.0
 42
0.0404151429548672
  0
VERTEX
  5
1FD
  8
0
 10
-6.8498840764755462
 20
-0.0398514597817078
 30
0.0
 42
0.0029088902912775
  0
VERTEX
  5
1FE
  8
0
 10
-6.8489567118212804
 20
-0.1195489840953959
 30
0.0
 42
0.0404151429548662
  0
VERTEX
  5
1FF
  8
0
 10
-6.6221972942945788
 20
-0.1926862616731172
 30
0.0
 42
0.0029088902912775
  0
VERTEX
  5
200
  8
0
 10
-6.619507068669404
 20
-0.2697242440638244
 30
0.0
 42
0.0404151429548669
  0
VERTEX
  5
201
  8
0
 10
-6.8406123130688297
 20
-0.3585013002641668
 30
0.0
 42
0.0029088902912798
  0
VERTEX
  5
202
  8
0
 10
-6.8359780004471489
 20
-0.438069375102365
 30
0.0
 42
0.0404151429548672
  0
VERTEX
  5
203
  8
0
 10
-6.6060614034499743
 20
-0.5005774004572571
 30
0.0
 42
0.0029088902912846
  0
VERTEX
  5
204
  8
0
 10
-6.5997898748578141
 20
-0.5774067957032367
 30
0.0
 42
0.0404151429548667
  0
VERTEX
  5
205
  8
0
 10
-6.8165253066393703
 20
-0.6763747067602624
 30
0.0
 42
0.0029088902912775
  0
VERTEX
  5
206
  8
0
 10
-6.80819408293946
 20
-0.7556410053908581
 30
0.0
 42
0.0404151429548669
  0
VERTEX
  5
207
  8
0
 10
-6.575618254623758
 20
-0.807384400059105
 30
0.0
 42
0.0029088902912775
  0
VERTEX
  5
208
  8
0
 10
-6.5657790057990146
 20
-0.8838388127983973
 30
0.0
 42
0.0404151429548669
  0
VERTEX
  5
209
  8
0
 10
-6.77767522427947
 20
-0.9927832362546396
 30
0.0
 42
0.0029088902912798
  0
VERTEX
  5
20A
  8
0
 10
-6.7656651330766922
 20
-1.0715760855255829
 30
0.0
 42
0.0404151429548671
  0
VERTEX
  5
20B
  8
0
 10
-6.5309337808972936
 20
-1.1124427848363989
 30
0.0
 42
0.0029088902912798
  0
VERTEX
  5
20C
  8
0
 10
-6.5175481214619531
 20
-1.188356631835652
 30
0.0
 42
0.0404151429548669
  0
VERTEX
  5
20D
  8
0
 10
-6.7241462066164983
 20
-1.3070416183293301
 30
0.0
 42
0.0029088902912775
  0
VERTEX
  5
20E
  8
0
 10
-6.7084832590940282
 20
-1.385190370474461
 30
0.0
 42
0.0404151429548664
  0
VERTEX
  5
20F
  8
0
 10
-6.4721047588904721
 20
-1.4150918662572181
 30
0.0
 42
0.0029088902912846
  0
VERTEX
  5
210
  8
0
 10
-6.455201679202184
 20
-1.490300735028105
 30
0.0
 42
0.0404151429548667
  0
VERTEX
  5
211
  8
0
 10
-6.6560541855830291
 20
-1.618469239306892
 30
0.0
 42
0.0029088902912846
  0
VERTEX
  5
212
  8
0
 10
-6.636772304197418
 20
-1.695804641530998
 30
0.0
 42
0.0404151429548671
  0
VERTEX
  5
213
  8
0
 10
-6.3992585991650763
 20
-1.714676173804202
 30
0.0
 42
0.0013810268070489
  0
VERTEX
  5
214
  8
0
 10
-6.389688959566028
 20
-1.75
 30
0.0
  0
VERTEX
  5
215
  8
0
 10
-5.6244222197926961
 20
-1.75
 30
0.0
  0
VERTEX
  5
216
  8
0
 10
-5.6244222197926961
 20
-1.5
 30
0.0
  0
VERTEX
  5
217
  8
0
 10
-5.3437500000000009
 20
-1.5
 30
0.0
  0
VERTEX
  5
218
  8
0
 10
-5.3437500000000009
 20
-1.75
 30
0.0
  0
VERTEX
  5
219
  8
0
 10
-5.0937499999999991
 20
-1.75
 30
0.0
  0
VERTEX
  5
21A
  8
0
 10
-5.0937499999999991
 20
-1.5
 30
0.0
  0
VERTEX
  5
21B
  8
0
 10
-4.84375
 20
-1.5
 30
0.0
  0
VERTEX
  5
21C
  8
0
 10
-4.84375
 20
-1.75
 30
0.0
  0
VERTEX
  5
21D
  8
0
 10
-4.59375
 20
-1.75
 30
0.0
  0
VERTEX
  5
21E
  8
0
 10
-4.59375
 20
-1.5
 30
0.0
  0
VERTEX
  5
21F
  8
0
 10
-4.3437500000000027
 20
-1.5
 30
0.0
  0
VERTEX
  5
220
  8
0
 10
-4.3437500000000027
 20
-1.75
 30
0.0
  0
VERTEX
  5
221
  8
0
 10
-4.09375
 20
-1.75
 30
0.0
  0
VERTEX
  5
222
  8
0
 10
-4.09375
 20
-1.5
 30
0.0
  0
VERTEX
  5
223
  8
0
 10
-3.84375
 20
-1.5
 30
0.0
  0
VERTEX
  5
224
  8
0
 10
-3.84375
 20
-1.75
 30
0.0
  0
VERTEX
  5
225
  8
0
 10
-3.59375
 20
-1.75
 30
0.0
  0
VERTEX
  5
226
  8
0
 10
-3.59375
 20
-1.5
 30
0.0
  0
VERTEX
  5
227
  8
0
 10
-3.3437500000000022
 20
-1.5
 30
0.0
  0
VERTEX
  5
228
  8
0
 10
-3.3437500000000022
 20
-1.75
 30
0.0
  0
VERTEX
  5
229
  8
0
 10
-3.09375
 20
-1.75
 30
0.0
  0
VERTEX
  5
22A
  8
0
 10
-3.09375
 20
-1.5
 30
0.0
  0
VERTEX
  5
22B
  8
0
 10
-2.84375
 20
-1.5
 30
0.0
  0
VERTEX
  5
22C
  8
0
 10
-2.84375
 20
-1.75
 30
0.0
  0
VERTEX
  5
22D
  8
0
 10
-2.59375
 20
-1.75
 30
0.0
  0
VERTEX
  5
22E
  8
0
 10
-2.59375
 20
-1.5
 30
0.0
  0
VERTEX
  5
22F
  8
0
 10
-2.34375
 20
-1.5
 30
0.0
  0
VERTEX
  5
230
  8
0
 10
-2.3437499999999911
 20
0.4474980687771416
 30
0.0
  0
VERTEX
  5
231
  8
0
 10
-4.1244222197926881
 20
0.447498068777133
 30
0.0
  0
VERTEX
  5
232
  8
0
 10
-4.1244222197926899
 20
0.6974980687771331
 30
0.0
  0
VERTEX
  5
233
  8
0
 10
-2.3437499999999929
 20
0.6974980687771413
 30
0.0
  0
VERTEX
  5
234
  8
0
 10
-2.34375
 20
1.75
 30
0.0
  0
VERTEX
  5
235
  8
0
 10
-1.5
 20
1.75
 30
0.0
  0
VERTEX
  5
236
  8
0
 10
-1.5
 20
5.5
 30
0.0
 42
-0.1339180836637932
  0
VERTEX
  5
237
  8
0
 10
1.4999999999999989
 20
5.5
 30
0.0
  0
VERTEX
  5
238
  8
0
 10
1.5
 20
1.75
 30
0.0
  0
VERTEX
  5
239
  8
0
 10
2.34375
 20
1.75
 30
0.0
  0
VERTEX
  5
23A
  8
0
 10
2.3437499999999929
 20
0.6974980687771414
 30
0.0
  0
SEQEND
  5
BA
  8
0
  0
ENDSEC
  0
EOF
