<?xml version="1.0" encoding="utf-8"?>
<!-- Generator: Adobe Illustrator 12.0.0, SVG Export Plug-In . SVG Version: 6.00 Build 51448)  -->
<!DOCTYPE svg PUBLIC "-//W3C//DTD SVG 1.0//EN" "http://www.w3.org/TR/2001/REC-SVG-20010904/DTD/svg10.dtd" [
	<!ENTITY ns_svg "http://www.w3.org/2000/svg">
	<!ENTITY ns_xlink "http://www.w3.org/1999/xlink">
]>
<svg  version="1.0" id="Layer_1" xmlns="&ns_svg;" xmlns:xlink="&ns_xlink;" width="1133.857" height="1133.857"
	 viewBox="0 0 1133.857 1133.857" overflow="visible" enable-background="new 0 0 1133.857 1133.857" xml:space="preserve">
<rect x="566.929" y="566.929" width="566.929" height="566.929"/>
<rect x="566.929" width="566.929" height="566.929"/>
<g>
	<g>
		<g id="XMLID_1_">
			<g>
				<path fill="#808080" d="M348.35,108.294c72.213,26.275,123.772,95.533,123.772,176.818c0,103.883-84.22,188.102-188.103,188.102
					c-103.882,0-188.102-84.219-188.102-188.102c0-81.165,51.411-150.331,123.44-176.697c-0.276,51.425,0,0-0.276,51.425
					c-45.238,23.496-76.137,70.778-76.137,125.272c0,77.912,63.163,141.074,141.074,141.074
					c77.912,0,141.075-63.162,141.075-141.074c0-55.095-30.8-102.462-76.845-125.696c0.085-51.086,0.085-51.086,0.085-51.086
					L348.35,108.294z"/>
			</g>
			<g>
				<path fill="none" stroke="#000000" d="M348.335,108.33c0,0,0,0-0.085,51.086c46.045,23.234,76.845,70.601,76.845,125.696
					c0,77.912-63.163,141.074-141.075,141.074c-77.912,0-141.074-63.162-141.074-141.074c0-54.494,30.899-101.776,76.137-125.272
					c0.276-51.425,0,0,0.276-51.425c-72.029,26.367-123.44,95.532-123.44,176.697c0,103.883,84.219,188.102,188.102,188.102
					c103.883,0,188.103-84.219,188.103-188.102c0-81.285-51.56-150.543-123.772-176.818c-0.135-0.049-0.276-0.099-0.41-0.148"/>
			</g>
		</g>
		<rect x="259.319" y="100.255" fill="#7F7F7F" stroke="#000000" width="47.374" height="186.667"/>
	</g>
	<rect fill="none" width="566.929" height="566.929"/>
</g>
<g id="XMLID_3_">
	<g>
		<path d="M348.35,675.224c72.213,26.274,123.772,95.532,123.772,176.817c0,103.883-84.22,188.102-188.103,188.102
			c-103.882,0-188.102-84.219-188.102-188.102c0-81.165,51.411-150.331,123.44-176.697c-0.276,51.425,0,0-0.276,51.425
			c-45.238,23.496-76.137,70.778-76.137,125.272c0,77.912,63.163,141.074,141.074,141.074c77.912,0,141.075-63.162,141.075-141.074
			c0-55.088-30.8-102.462-76.845-125.696c0.085-51.086,0.085-51.086,0.085-51.086L348.35,675.224z"/>
	</g>
	<g>
		<path fill="none" stroke="#000000" d="M348.335,675.259c0,0,0,0-0.085,51.086c46.045,23.234,76.845,70.608,76.845,125.696
			c0,77.912-63.163,141.074-141.075,141.074c-77.912,0-141.074-63.162-141.074-141.074c0-54.494,30.899-101.776,76.137-125.272
			c0.276-51.425,0,0,0.276-51.425c-72.029,26.366-123.44,95.532-123.44,176.697c0,103.883,84.219,188.102,188.102,188.102
			c103.883,0,188.103-84.219,188.103-188.102c0-81.285-51.56-150.543-123.772-176.817c-0.135-0.05-0.276-0.1-0.41-0.148"/>
	</g>
</g>
<rect x="259.319" y="667.184" stroke="#000000" width="47.374" height="186.667"/>
<rect y="566.929" fill="none" width="566.929" height="566.929"/>
<g id="XMLID_13_">
	<g>
		<path fill="#FFFFFF" d="M915.278,108.294c72.213,26.275,123.772,95.533,123.772,176.818c0,103.883-84.22,188.102-188.103,188.102
			s-188.102-84.219-188.102-188.102c0-81.165,51.411-150.331,123.44-176.697c-0.276,51.425,0,0-0.276,51.425
			c-45.238,23.496-76.137,70.778-76.137,125.272c0,77.912,63.162,141.074,141.074,141.074s141.075-63.162,141.075-141.074
			c0-55.095-30.8-102.462-76.845-125.696c0.085-51.086,0.085-51.086,0.085-51.086L915.278,108.294z"/>
	</g>
	<g>
		<path fill="none" stroke="#000000" d="M915.264,108.33c0,0,0,0-0.085,51.086c46.045,23.234,76.845,70.601,76.845,125.696
			c0,77.912-63.163,141.074-141.075,141.074s-141.074-63.162-141.074-141.074c0-54.494,30.898-101.776,76.137-125.272
			c0.276-51.425,0,0,0.276-51.425c-72.029,26.367-123.44,95.532-123.44,176.697c0,103.883,84.219,188.102,188.102,188.102
			s188.103-84.219,188.103-188.102c0-81.285-51.56-150.543-123.772-176.818c-0.135-0.049-0.276-0.099-0.41-0.148"/>
	</g>
</g>
<rect x="826.248" y="100.255" fill="#FFFFFF" stroke="#000000" width="47.373" height="186.667"/>
<g id="XMLID_12_">
	<g>
		<path fill="#808080" d="M915.278,675.224c72.213,26.274,123.772,95.532,123.772,176.817c0,103.883-84.22,188.102-188.103,188.102
			s-188.102-84.219-188.102-188.102c0-81.165,51.411-150.331,123.44-176.697c-0.276,51.425,0,0-0.276,51.425
			c-45.238,23.496-76.137,70.778-76.137,125.272c0,77.912,63.162,141.074,141.074,141.074s141.075-63.162,141.075-141.074
			c0-55.088-30.8-102.462-76.845-125.696c0.085-51.086,0.085-51.086,0.085-51.086L915.278,675.224z"/>
	</g>
	<g>
		<path fill="none" stroke="#000000" d="M915.264,675.259c0,0,0,0-0.085,51.086c46.045,23.234,76.845,70.608,76.845,125.696
			c0,77.912-63.163,141.074-141.075,141.074s-141.074-63.162-141.074-141.074c0-54.494,30.898-101.776,76.137-125.272
			c0.276-51.425,0,0,0.276-51.425c-72.029,26.366-123.44,95.532-123.44,176.697c0,103.883,84.219,188.102,188.102,188.102
			s188.103-84.219,188.103-188.102c0-81.285-51.56-150.543-123.772-176.817c-0.135-0.05-0.276-0.1-0.41-0.148"/>
	</g>
</g>
<rect x="826.248" y="667.184" fill="#808080" stroke="#000000" width="47.373" height="186.667"/>
</svg>
