<?xml version="1.0" encoding="utf-8"?>
<!-- Generator: Adobe Illustrator 12.0.0, SVG Export Plug-In . SVG Version: 6.00 Build 51448)  -->
<!DOCTYPE svg PUBLIC "-//W3C//DTD SVG 1.1//EN" "http://www.w3.org/Graphics/SVG/1.1/DTD/svg11.dtd" [
	<!ENTITY ns_svg "http://www.w3.org/2000/svg">
	<!ENTITY ns_xlink "http://www.w3.org/1999/xlink">
]>
<svg  version="1.1" xmlns="&ns_svg;" xmlns:xlink="&ns_xlink;" width="1024" height="388.223" viewBox="0 0 1024 388.223"
	 overflow="visible" enable-background="new 0 0 1024 388.223" xml:space="preserve">
<g id="Layer_1">
	<g>
		<rect x="54.102" y="49.657" fill="#D7D7D7" width="360" height="109.938"/>
		<rect x="34.102" y="29.657" fill="#484848" width="400" height="10"/>
		<rect x="54.102" y="39.657" fill="#BABABA" width="360" height="10"/>
		<rect x="54.102" y="159.657" fill="#F2F2F2" width="360" height="10"/>
		<rect x="44.102" y="39.657" fill="#ABABAB" width="10" height="10"/>
		<rect x="414.102" y="39.657" fill="#ABABAB" width="10" height="9.938"/>
		<rect x="44.102" y="49.658" fill="#BABABA" width="10" height="120.001"/>
		<rect x="414.102" y="49.596" fill="#BABABA" width="10" height="119.938"/>
		<rect x="34.102" y="39.658" fill="#8F8F8F" width="10" height="139.876"/>
		<rect x="43.914" y="169.534" fill="#8F8F8F" width="380.252" height="10"/>
		<rect x="424.102" y="39.658" fill="#8F8F8F" width="10" height="139.876"/>
	</g>
	<rect x="-0.034" y="-0.404" fill="none" width="468.271" height="210"/>
	<g>
		<rect x="54.07" y="259.673" fill="#D7D7D7" width="360" height="109.938"/>
		<rect x="34.07" y="239.673" fill="#484848" width="400" height="10"/>
		<rect x="54.07" y="249.673" fill="#BABABA" width="360" height="10"/>
		<rect x="54.07" y="369.673" fill="#F2F2F2" width="360" height="10"/>
		<rect x="44.07" y="249.673" fill="#ABABAB" width="10" height="10"/>
		<rect x="414.07" y="249.673" fill="#ABABAB" width="10" height="9.938"/>
		<rect x="44.07" y="259.674" fill="#BABABA" width="10" height="120.001"/>
		<rect x="414.07" y="259.612" fill="#BABABA" width="10" height="119.938"/>
		<rect x="34.07" y="249.674" fill="#8F8F8F" width="10" height="139.876"/>
		<rect x="43.883" y="379.55" fill="#8F8F8F" width="380.252" height="10"/>
		<rect x="424.07" y="249.674" fill="#8F8F8F" width="10" height="139.876"/>
	</g>
	<rect x="-0.065" y="209.612" fill="none" width="468.271" height="210"/>
	<rect x="522.414" y="49.657" fill="#FFFFFF" width="360" height="109.938"/>
	<rect x="502.414" y="29.657" fill="#484848" width="400" height="10"/>
	<rect x="522.414" y="39.657" fill="#BABABA" width="360" height="10"/>
	<rect x="522.414" y="159.657" fill="#F2F2F2" width="360" height="10"/>
	<rect x="512.414" y="39.657" fill="#ABABAB" width="10" height="10"/>
	<rect x="882.414" y="39.657" fill="#ABABAB" width="10" height="9.938"/>
	<rect x="512.414" y="49.658" fill="#BABABA" width="10" height="120.001"/>
	<rect x="882.414" y="49.596" fill="#BABABA" width="10" height="119.938"/>
	<rect x="502.414" y="39.658" fill="#8F8F8F" width="10" height="139.876"/>
	<rect x="512.227" y="169.534" fill="#8F8F8F" width="380.252" height="10"/>
	<rect x="892.414" y="39.658" fill="#8F8F8F" width="10" height="139.876"/>
	<rect x="468.278" y="-0.404" fill="none" width="468.271" height="210"/>
	<g>
		<rect x="522.383" y="259.673" fill="#D7D7D7" width="360" height="109.938"/>
		<rect x="502.383" y="239.673" fill="#484848" width="400" height="10"/>
		<rect x="522.383" y="249.673" fill="#BABABA" width="360" height="10"/>
		<rect x="522.383" y="369.673" fill="#F2F2F2" width="360" height="10"/>
		<rect x="512.383" y="249.673" fill="#ABABAB" width="10" height="10"/>
		<rect x="882.383" y="249.673" fill="#ABABAB" width="10" height="9.938"/>
		<rect x="512.383" y="259.674" fill="#BABABA" width="10" height="120.001"/>
		<rect x="882.383" y="259.612" fill="#BABABA" width="10" height="119.938"/>
		<rect x="502.383" y="249.674" fill="#8F8F8F" width="10" height="139.876"/>
		<rect x="512.195" y="379.55" fill="#8F8F8F" width="380.252" height="10"/>
		<rect x="892.383" y="249.674" fill="#8F8F8F" width="10" height="139.876"/>
	</g>
	<rect x="468.247" y="209.612" fill="none" width="468.271" height="210"/>
</g>
<g id="Layer_2">
	<rect x="-0.065" y="209.612" fill="none" width="468.271" height="210"/>
	<path fill="none" d="M-0.065,269.612c0-33,27-60,60-60h348.271c33,0,60,27,60,60v90c0,33-27,60-60,60H59.935c-33,0-60-27-60-60
		V269.612z"/>
	<g id="Layer_3">
	</g>
</g>
</svg>
