<?xml version="1.0" encoding="utf-8"?>
<!-- Generator: Adobe Illustrator 12.0.0, SVG Export Plug-In . SVG Version: 6.00 Build 51448)  -->
<!DOCTYPE svg PUBLIC "-//W3C//DTD SVG 1.0//EN" "http://www.w3.org/TR/2001/REC-SVG-20010904/DTD/svg10.dtd" [
	<!ENTITY ns_svg "http://www.w3.org/2000/svg">
	<!ENTITY ns_xlink "http://www.w3.org/1999/xlink">
]>
<svg  version="1.0" id="Layer_3" xmlns="&ns_svg;" xmlns:xlink="&ns_xlink;" width="564.096" height="564.096"
	 viewBox="0 0 564.096 564.096" overflow="visible" enable-background="new 0 0 564.096 564.096" xml:space="preserve">
<linearGradient id="XMLID_13_" gradientUnits="userSpaceOnUse" x1="140.3154" y1="-2.441406e-04" x2="140.3154" y2="280.6296">
	<stop  offset="0" style="stop-color:#BFBFBF"/>
	<stop  offset="1" style="stop-color:#343434"/>
</linearGradient>
<polygon fill="url(#XMLID_13_)" points="140.315,0 154.544,28.753 176.324,4.333 182.924,36.344 210.314,18.523 208.665,50.534 
	239.684,40.634 228.794,71.983 261.464,69.673 243.314,97.063 275.654,103.664 251.234,125.443 280.631,140.315 251.234,154.813 
	275.654,176.264 243.974,182.533 261.464,209.924 229.455,208.273 239.354,238.963 208.334,229.063 210.314,261.404 
	182.924,243.583 176.324,275.264 154.544,251.174 140.315,280.63 125.174,251.174 103.724,275.264 97.124,243.914 70.064,261.733 
	71.714,228.734 40.694,239.294 51.254,208.273 18.584,210.253 36.404,182.863 4.394,176.264 28.814,154.484 0,140.315 
	29.144,125.443 4.724,103.664 36.734,96.733 18.584,70.003 50.924,71.653 40.694,40.304 71.714,50.863 70.064,18.523 97.124,36.013 
	103.724,4.333 125.504,28.423 "/>
<linearGradient id="XMLID_14_" gradientUnits="userSpaceOnUse" x1="140.3154" y1="283.4636" x2="140.3154" y2="564.0955">
	<stop  offset="0" style="stop-color:#D2D2D2"/>
	<stop  offset="1" style="stop-color:#808080"/>
</linearGradient>
<polygon fill="url(#XMLID_14_)" points="140.315,283.464 154.544,312.219 176.324,287.798 182.924,319.808 210.314,301.987 
	208.665,333.998 239.684,324.098 228.794,355.447 261.464,353.138 243.314,380.528 275.654,387.127 251.234,408.907 
	280.631,423.779 251.234,438.277 275.654,459.728 243.974,465.997 261.464,493.388 229.455,491.737 239.354,522.428 
	208.334,512.527 210.314,544.868 182.924,527.049 176.324,558.728 154.544,534.638 140.315,564.095 125.174,534.638 
	103.724,558.728 97.124,527.379 70.064,545.197 71.714,512.198 40.694,522.759 51.254,491.737 18.584,493.719 36.404,466.327 
	4.394,459.728 28.814,437.948 0,423.779 29.144,408.907 4.724,387.127 36.734,380.197 18.584,353.468 50.924,355.118 
	40.694,323.767 71.714,334.327 70.064,301.987 97.124,319.478 103.724,287.798 125.504,311.888 "/>
<linearGradient id="XMLID_15_" gradientUnits="userSpaceOnUse" x1="423.7803" y1="-2.441406e-04" x2="423.7803" y2="280.6296">
	<stop  offset="0" style="stop-color:#FFBFBF"/>
	<stop  offset="1" style="stop-color:#FF0000"/>
</linearGradient>
<polygon fill="url(#XMLID_15_)" points="423.779,0 438.008,28.753 459.788,4.333 466.388,36.344 493.778,18.523 492.129,50.534 
	523.147,40.634 512.258,71.983 544.928,69.673 526.779,97.063 559.118,103.664 534.699,125.443 564.096,140.315 534.699,154.813 
	559.118,176.264 527.438,182.533 544.928,209.924 512.919,208.273 522.819,238.963 491.799,229.063 493.778,261.404 
	466.388,243.583 459.788,275.264 438.008,251.174 423.779,280.63 408.639,251.174 387.188,275.264 380.588,243.914 353.528,261.733 
	355.179,228.734 324.157,239.294 334.718,208.273 302.048,210.253 319.868,182.863 287.858,176.264 312.278,154.484 
	283.464,140.315 312.608,125.443 288.188,103.664 320.198,96.733 302.048,70.003 334.389,71.653 324.157,40.304 355.179,50.863 
	353.528,18.523 380.588,36.013 387.188,4.333 408.968,28.423 "/>
<linearGradient id="XMLID_16_" gradientUnits="userSpaceOnUse" x1="423.7803" y1="283.4636" x2="423.7803" y2="564.0955">
	<stop  offset="0" style="stop-color:#FFBFBF"/>
	<stop  offset="1" style="stop-color:#FF7F7F"/>
</linearGradient>
<polygon fill="url(#XMLID_16_)" points="423.779,283.464 438.008,312.219 459.788,287.798 466.388,319.808 493.778,301.987 
	492.129,333.998 523.147,324.098 512.258,355.447 544.928,353.138 526.779,380.528 559.118,387.127 534.699,408.907 
	564.096,423.779 534.699,438.277 559.118,459.728 527.438,465.997 544.928,493.388 512.919,491.737 522.819,522.428 
	491.799,512.527 493.778,544.868 466.388,527.049 459.788,558.728 438.008,534.638 423.779,564.095 408.639,534.638 
	387.188,558.728 380.588,527.379 353.528,545.197 355.179,512.198 324.157,522.759 334.718,491.737 302.048,493.719 
	319.868,466.327 287.858,459.728 312.278,437.948 283.464,423.779 312.608,408.907 288.188,387.127 320.198,380.197 
	302.048,353.468 334.389,355.118 324.157,323.767 355.179,334.327 353.528,301.987 380.588,319.478 387.188,287.798 
	408.968,311.888 "/>
</svg>
