  0
SECTION
  2
HEADER
  9
$ACADVER
  1
AC1009
  9
$INSBASE
 10
0.0
 20
0.0
 30
0.0
  9
$EXTMIN
 10
0.0
 20
0.0
 30
0.0
  9
$EXTMAX
 10
3.8500000173228401
 20
5.053125017322837
 30
0.0
  9
$LIMMIN
 10
0.0
 20
0.0
  9
$LIMMAX
 10
3.8500000173228401
 20
5.053125017322837
  9
$ORTHOMODE
 70
     0
  9
$REGENMODE
 70
     1
  9
$FILLMODE
 70
     1
  9
$QTEXTMODE
 70
     0
  9
$MIRRTEXT
 70
     0
  9
$DRAGMODE
 70
     2
  9
$LTSCALE
 40
1.0
  9
$OSMODE
 70
     0
  9
$ATTMODE
 70
     1
  9
$TEXTSIZE
 40
0.2
  9
$TRACEWID
 40
0.05
  9
$TEXTSTYLE
  7
STANDARD
  9
$CLAYER
  8
0
  9
$CELTYPE
  6
BYLAYER
  9
$CECOLOR
 62
   256
  9
$DIMSCALE
 40
1.0
  9
$DIMASZ
 40
0.0708661417322835
  9
$DIMEXO
 40
0.0625
  9
$DIMDLI
 40
0.38
  9
$DIMRND
 40
0.0
  9
$DIMDLE
 40
0.0
  9
$DIMEXE
 40
0.18
  9
$DIMTP
 40
0.0
  9
$DIMTM
 40
0.0
  9
$DIMTXT
 40
0.0708661417322835
  9
$DIMCEN
 40
0.09
  9
$DIMTSZ
 40
0.0
  9
$DIMTOL
 70
     0
  9
$DIMLIM
 70
     0
  9
$DIMTIH
 70
     1
  9
$DIMTOH
 70
     1
  9
$DIMSE1
 70
     0
  9
$DIMSE2
 70
     0
  9
$DIMTAD
 70
     0
  9
$DIMZIN
 70
     0
  9
$DIMBLK
  1

  9
$DIMASO
 70
     1
  9
$DIMSHO
 70
     1
  9
$DIMPOST
  1

  9
$DIMAPOST
  1

  9
$DIMALT
 70
     0
  9
$DIMALTD
 70
     2
  9
$DIMALTF
 40
25.399999999999999
  9
$DIMLFAC
 40
1.0
  9
$DIMTOFL
 70
     0
  9
$DIMTVP
 40
0.0
  9
$DIMTIX
 70
     0
  9
$DIMSOXD
 70
     0
  9
$DIMSAH
 70
     0
  9
$DIMBLK1
  1

  9
$DIMBLK2
  1

  9
$DIMSTYLE
  2
STANDARD
  9
$DIMCLRD
 70
     0
  9
$DIMCLRE
 70
     0
  9
$DIMCLRT
 70
     0
  9
$DIMTFAC
 40
1.0
  9
$DIMGAP
 40
0.09
  9
$LUNITS
 70
     2
  9
$LUPREC
 70
     4
  9
$SKETCHINC
 40
0.1
  9
$FILLETRAD
 40
0.0
  9
$AUNITS
 70
     0
  9
$AUPREC
 70
     0
  9
$MENU
  1
.
  9
$ELEVATION
 40
0.0
  9
$PELEVATION
 40
0.0
  9
$THICKNESS
 40
0.0
  9
$LIMCHECK
 70
     0
  9
$BLIPMODE
 70
     0
  9
$CHAMFERA
 40
0.0
  9
$CHAMFERB
 40
0.0
  9
$SKPOLY
 70
     0
  9
$TDCREATE
 40
2456394.7644672338
  9
$TDUPDATE
 40
2456394.7644672338
  9
$TDINDWG
 40
0.0000026042
  9
$TDUSRTIMER
 40
0.0000026042
  9
$USRTIMER
 70
     1
  9
$ANGBASE
 50
0.0
  9
$ANGDIR
 70
     0
  9
$PDMODE
 70
     0
  9
$PDSIZE
 40
0.0
  9
$PLINEWID
 40
0.0
  9
$COORDS
 70
     0
  9
$SPLFRAME
 70
     0
  9
$SPLINETYPE
 70
     6
  9
$SPLINESEGS
 70
     8
  9
$ATTDIA
 70
     0
  9
$ATTREQ
 70
     1
  9
$HANDLING
 70
     1
  9
$HANDSEED
  5
1DD
  9
$SURFTAB1
 70
     6
  9
$SURFTAB2
 70
     6
  9
$SURFTYPE
 70
     6
  9
$SURFU
 70
     6
  9
$SURFV
 70
     6
  9
$UCSNAME
  2

  9
$UCSORG
 10
0.0
 20
0.0
 30
0.0
  9
$UCSXDIR
 10
1.0
 20
0.0
 30
0.0
  9
$UCSYDIR
 10
0.0
 20
1.0
 30
0.0
  9
$PUCSNAME
  2

  9
$PUCSORG
 10
0.0
 20
0.0
 30
0.0
  9
$PUCSXDIR
 10
1.0
 20
0.0
 30
0.0
  9
$PUCSYDIR
 10
0.0
 20
1.0
 30
0.0
  9
$USERI1
 70
     0
  9
$USERI2
 70
     0
  9
$USERI3
 70
     0
  9
$USERI4
 70
     0
  9
$USERI5
 70
     0
  9
$USERR1
 40
0.0
  9
$USERR2
 40
0.0
  9
$USERR3
 40
0.0
  9
$USERR4
 40
0.0
  9
$USERR5
 40
0.0
  9
$WORLDVIEW
 70
     1
  9
$SHADEDGE
 70
     3
  9
$SHADEDIF
 70
    70
  9
$TILEMODE
 70
     1
  9
$MAXACTVP
 70
    64
  9
$PLIMCHECK
 70
     0
  9
$PEXTMIN
 10
0.0
 20
0.0
 30
0.0
  9
$PEXTMAX
 10
3.8500000173228401
 20
5.053125017322837
 30
0.0
  9
$PLIMMIN
 10
0.0
 20
0.0
  9
$PLIMMAX
 10
3.8500000173228401
 20
5.053125017322837
  9
$UNITMODE
 70
     0
  9
$VISRETAIN
 70
     1
  9
$PLINEGEN
 70
     0
  9
$PSLTSCALE
 70
     1
  0
ENDSEC
  0
SECTION
  2
TABLES
  0
TABLE
  2
VPORT
 70
     1
  0
VPORT
  2
*ACTIVE
 70
     0
 10
0.0
 20
0.0
 11
1.0
 21
1.0
 12
-1.7500000000000011
 22
-2.296875
 13
0.0
 23
0.0
 14
1.0
 24
1.0
 15
0.0
 25
0.0
 16
0.0
 26
0.0
 36
1.0
 17
0.0
 27
0.0
 37
0.0
 40
5.053125017322837
 41
0.7619047627209872
 42
50.0
 43
0.0
 44
0.0
 50
0.0
 51
0.0
 71
     0
 72
   100
 73
     1
 74
     1
 75
     0
 76
     0
 77
     0
 78
     0
  0
ENDTAB
  0
TABLE
  2
LTYPE
 70
    59
  0
LTYPE
  2
CONTINUOUS
 70
     0
  3
Solid line
 72
    65
 73
     0
 40
0.0
  0
LTYPE
  2
PHANTOM2
 70
     0
  3
Phantom (.5x) ___ _ _ ___ _ _ ___ _ _ ___ _ _
 72
    65
 73
     6
 40
1.25
 49
0.625
 49
-0.125
 49
0.125
 49
-0.125
 49
0.125
 49
-0.125
  0
LTYPE
  2
BY_STANDARD
 70
     0
  3
By Standard ____________    ____    ____   _
 72
    65
 73
     6
 40
1.2402999999999991
 49
0.6614
 49
-0.0827
 49
0.1654
 49
-0.0827
 49
0.1654
 49
-0.0827
  0
LTYPE
  2
CHAIN
 70
     0
  3
Chain ____ _ ____ _ ____ _ ____ _ ____ _ ____
 72
    65
 73
     4
 40
0.7087
 49
0.4724000000000001
 49
-0.0591
 49
0.1181
 49
-0.0591
  0
LTYPE
  2
DASH_DOT
 70
     0
  3
Dash dot __ . __ . __ . __ . __ . __ . __ . __
 72
    65
 73
     4
 40
0.37
 49
0.24
 49
-0.06
 49
0.01
 49
-0.06
  0
LTYPE
  2
DOUBLE_DASH_DOT
 70
     0
  3
Double-Dash Dot __ __ . __ __ . __ __ . __ _
 72
    65
 73
     6
 40
0.4398
 49
0.24
 49
-0.06
 49
0.0098
 49
-0.06
 49
0.01
 49
-0.06
  0
LTYPE
  2
DASH_TRIPLE_DOT
 70
     0
  3
Dash Triple-Dot _ . . . _ . . . _ . . . _
 72
    65
 73
     8
 40
0.51
 49
0.24
 49
-0.06
 49
0.01
 49
-0.06
 49
0.01
 49
-0.06
 49
0.01
 49
-0.06
  0
LTYPE
  2
DASHED
 70
     0
  3
Dashed __ __ __ __ __ __ __ __ __ __ __ __ __ _
 72
    65
 73
     2
 40
0.2067
 49
0.1654
 49
-0.0413
  0
LTYPE
  2
DASH_DOUBLE_DOT
 70
     0
  3
Dash Double-Dot __ . . __ . . __ . . __ . .
 72
    65
 73
     6
 40
0.4398
 49
0.24
 49
-0.06
 49
0.0098
 49
-0.06
 49
0.01
 49
-0.06
  0
LTYPE
  2
DASHED_SPACE
 70
     0
  3
Dashed Space __ __ __ __ __ __ __ __ __ __ __ _
 72
    65
 73
     2
 40
0.2067
 49
0.1654
 49
-0.0413
  0
LTYPE
  2
DOTTED
 70
     0
  3
Dotted . . . . . . . . . . . . . . . . . . . . 
 72
    65
 73
     2
 40
0.0482
 49
0.0069
 49
-0.0413
  0
LTYPE
  2
DOUBLE_DASH_CHAIN
 70
     0
  3
Double-Dash Chain ______  __  __  ______  __  _
 72
    65
 73
     6
 40
1.2402999999999991
 49
0.6614
 49
-0.0827
 49
0.1654
 49
-0.0827
 49
0.1654
 49
-0.0827
  0
LTYPE
  2
DOUBLE_DASH_DOUBLE_DOT
 70
     0
  3
Double-Dash Double-dot _ _ . . _ _ . . _
 72
    65
 73
     8
 40
0.7400000000000001
 49
0.24
 49
-0.06
 49
0.24
 49
-0.06
 49
0.01
 49
-0.06
 49
0.01
 49
-0.06
  0
LTYPE
  2
DOUBLE_DASH_TRIPLE_DOT
 70
     0
  3
Double Dash Triple Dot __ __ . . . __ __ . .
 72
    65
 73
    10
 40
0.8100000000000001
 49
0.24
 49
-0.06
 49
0.24
 49
-0.06
 49
0.01
 49
-0.06
 49
0.01
 49
-0.06
 49
0.01
 49
-0.06
  0
LTYPE
  2
LONG_DASH_DOTTED
 70
     0
  3
Long Dash Dotted ____ . ____ . ____ . ____ . _
 72
    65
 73
     4
 40
0.3543
 49
0.2362
 49
-0.0295
 49
0.0591
 49
-0.0295
  0
LTYPE
  2
LONG_DASH_DOUBLE_DOT
 70
     0
  3
Long Dash Double Dot ________  .  .  ________  
 72
    65
 73
     6
 40
0.6799999999999999
 49
0.48
 49
-0.06
 49
0.01
 49
-0.06
 49
0.01
 49
-0.06
  0
LTYPE
  2
LONG_DASH_TRIPLE_DOT
 70
     0
  3
Long Dash Triple Dot ____ ... ____ ... ____
 72
    65
 73
     8
 40
0.3689
 49
0.2362
 49
-0.0295
 49
0.0049
 49
-0.0295
 49
0.0049
 49
-0.0295
 49
0.0049
 49
-0.0295
  0
LTYPE
  2
BORDER
 70
     0
  3
Border __ __ . __ __ . __ __ . __ __ . __ __ .
 72
    65
 73
     6
 40
1.75
 49
0.5
 49
-0.25
 49
0.5
 49
-0.25
 49
0.0
 49
-0.25
  0
LTYPE
  2
BORDER2
 70
     0
  3
Border (.5x) __.__.__.__.__.__.__.__.__.__.__.
 72
    65
 73
     6
 40
0.875
 49
0.25
 49
-0.125
 49
0.25
 49
-0.125
 49
0.0
 49
-0.125
  0
LTYPE
  2
BORDERX2
 70
     0
  3
Border (2x) ____  ____  .  ____  ____  .  ___
 72
    65
 73
     6
 40
3.5
 49
1.0
 49
-0.5
 49
1.0
 49
-0.5
 49
0.0
 49
-0.5
  0
LTYPE
  2
CENTER
 70
     0
  3
Center ____ _ ____ _ ____ _ ____ _ ____ _ ____
 72
    65
 73
     4
 40
2.0
 49
1.25
 49
-0.25
 49
0.25
 49
-0.25
  0
LTYPE
  2
CENTER2
 70
     0
  3
Center (.5x) ___ _ ___ _ ___ _ ___ _ ___ _ ___
 72
    65
 73
     4
 40
1.125
 49
0.75
 49
-0.125
 49
0.125
 49
-0.125
  0
LTYPE
  2
CENTERX2
 70
     0
  3
Center (2x) ________  __  ________  __  _____
 72
    65
 73
     4
 40
4.0
 49
2.5
 49
-0.5
 49
0.5
 49
-0.5
  0
LTYPE
  2
DASHDOT2
 70
     0
  3
Dash dot (.5x) _._._._._._._._._._._._._._._.
 72
    65
 73
     4
 40
0.5
 49
0.25
 49
-0.125
 49
0.0
 49
-0.125
  0
LTYPE
  2
DASHDOTX2
 70
     0
  3
Dash dot (2x) ____  .  ____  .  ____  .  ___
 72
    65
 73
     4
 40
2.0
 49
1.0
 49
-0.5
 49
0.0
 49
-0.5
  0
LTYPE
  2
DASHED2
 70
     0
  3
Dashed (.5x) _ _ _ _ _ _ _ _ _ _ _ _ _ _ _ _ _
 72
    65
 73
     2
 40
0.375
 49
0.25
 49
-0.125
  0
LTYPE
  2
DASHEDX2
 70
     0
  3
Dashed (2x) ____  ____  ____  ____  ____  ___
 72
    65
 73
     2
 40
1.5
 49
1.0
 49
-0.5
  0
LTYPE
  2
DIVIDE
 70
     0
  3
Divide ____ . . ____ . . ____ . . ____ . . ____
 72
    65
 73
     6
 40
1.25
 49
0.5
 49
-0.25
 49
0.0
 49
-0.25
 49
0.0
 49
-0.25
  0
LTYPE
  2
DIVIDE2
 70
     0
  3
Divide (.5x) __..__..__..__..__..__..__..__.._
 72
    65
 73
     6
 40
0.625
 49
0.25
 49
-0.125
 49
0.0
 49
-0.125
 49
0.0
 49
-0.125
  0
LTYPE
  2
DIVIDEX2
 70
     0
  3
Divide (2x) ________  .  .  ________  .  .  _
 72
    65
 73
     6
 40
2.5
 49
1.0
 49
-0.5
 49
0.0
 49
-0.5
 49
0.0
 49
-0.5
  0
LTYPE
  2
DOT
 70
     0
  3
Dot . . . . . . . . . . . . . . . . . . . . . .
 72
    65
 73
     2
 40
0.25
 49
0.0
 49
-0.25
  0
LTYPE
  2
DOT2
 70
     0
  3
Dot (.5x) .....................................
 72
    65
 73
     2
 40
0.125
 49
0.0
 49
-0.125
  0
LTYPE
  2
DOTX2
 70
     0
  3
Dot (2x) .  .  .  .  .  .  .  .  .  .  .  .  . 
 72
    65
 73
     2
 40
0.5
 49
0.0
 49
-0.5
  0
LTYPE
  2
HIDDEN
 70
     0
  3
Hidden __ __ __ __ __ __ __ __ __ __ __ __ __ _
 72
    65
 73
     2
 40
0.375
 49
0.25
 49
-0.125
  0
LTYPE
  2
HIDDEN2
 70
     0
  3
Hidden (.5x) _ _ _ _ _ _ _ _ _ _ _ _ _ _ _ _ _
 72
    65
 73
     2
 40
0.1875
 49
0.125
 49
-0.0625
  0
LTYPE
  2
HIDDENX2
 70
     0
  3
Hidden (2x) ____ ____ ____ ____ ____ ____ ____
 72
    65
 73
     2
 40
0.75
 49
0.5
 49
-0.25
  0
LTYPE
  2
PHANTOM
 70
     0
  3
Phantom ______  __  __  ______  __  __  ______
 72
    65
 73
     6
 40
2.5
 49
1.25
 49
-0.25
 49
0.25
 49
-0.25
 49
0.25
 49
-0.25
  0
LTYPE
  2
PHANTOMX2
 70
     0
  3
Phantom (2x) ____________    ____    ____   _
 72
    65
 73
     6
 40
5.0
 49
2.5
 49
-0.5
 49
0.5
 49
-0.5
 49
0.5
 49
-0.5
  0
LTYPE
  2
ACAD_ISO02W100
 70
     0
  3
ISO dash __ __ __ __ __ __ __ __ __ __ __ __ __
 72
    65
 73
     2
 40
0.59
 49
0.47
 49
-0.12
  0
LTYPE
  2
ACAD_ISO03W100
 70
     0
  3
ISO dash space __    __    __    __    __    __
 72
    65
 73
     2
 40
1.179999999999999
 49
0.47
 49
-0.71
  0
LTYPE
  2
ACAD_ISO04W100
 70
     0
  3
ISO long-dash dot ____ . ____ . ____ . ____ . _
 72
    65
 73
     4
 40
1.179999999999999
 49
0.9399999999999998
 49
-0.12
 49
0.0
 49
-0.12
  0
LTYPE
  2
ACAD_ISO05W100
 70
     0
  3
ISO long-dash double-dot ____ .. ____ .. ____ .
 72
    65
 73
     6
 40
1.2999999999999989
 49
0.9399999999999998
 49
-0.12
 49
0.0
 49
-0.12
 49
0.0
 49
-0.12
  0
LTYPE
  2
ACAD_ISO06W100
 70
     0
  3
ISO long-dash triple-dot ____ ... ____ ... ____
 72
    65
 73
     8
 40
1.419999999999999
 49
0.9399999999999998
 49
-0.12
 49
0.0
 49
-0.12
 49
0.0
 49
-0.12
 49
0.0
 49
-0.12
  0
LTYPE
  2
ACAD_ISO07W100
 70
     0
  3
ISO dot . . . . . . . . . . . . . . . . . . . .
 72
    65
 73
     2
 40
0.12
 49
0.0
 49
-0.12
  0
LTYPE
  2
ACAD_ISO08W100
 70
     0
  3
ISO long-dash short-dash ____ __ ____ __ ____ _
 72
    65
 73
     4
 40
0.95
 49
0.47
 49
-0.12
 49
0.24
 49
-0.12
  0
LTYPE
  2
ACAD_ISO09W100
 70
     0
  3
ISO long-dash double-short-dash ____ __ __ ____
 72
    65
 73
     6
 40
1.3100000000000001
 49
0.47
 49
-0.12
 49
0.24
 49
-0.12
 49
0.24
 49
-0.12
  0
LTYPE
  2
ACAD_ISO10W100
 70
     0
  3
ISO dash dot __ . __ . __ . __ . __ . __ . __ .
 72
    65
 73
     4
 40
0.71
 49
0.47
 49
-0.12
 49
0.0
 49
-0.12
  0
LTYPE
  2
ACAD_ISO11W100
 70
     0
  3
ISO double-dash dot __ __ . __ __ . __ __ . __ 
 72
    65
 73
     6
 40
1.2999999999999989
 49
0.47
 49
-0.12
 49
0.47
 49
-0.12
 49
0.0
 49
-0.12
  0
LTYPE
  2
ACAD_ISO12W100
 70
     0
  3
ISO dash double-dot __ . . __ . . __ . . __ . .
 72
    65
 73
     6
 40
0.8299999999999999
 49
0.47
 49
-0.12
 49
0.0
 49
-0.12
 49
0.0
 49
-0.12
  0
LTYPE
  2
ACAD_ISO13W100
 70
     0
  3
ISO double-dash double-dot __ __ . . __ __ . . 
 72
    65
 73
     8
 40
1.419999999999999
 49
0.47
 49
-0.12
 49
0.47
 49
-0.12
 49
0.0
 49
-0.12
 49
0.0
 49
-0.12
  0
LTYPE
  2
ACAD_ISO14W100
 70
     0
  3
ISO dash triple-dot __ . . . __ . . . __ . . . 
 72
    65
 73
     8
 40
0.95
 49
0.47
 49
-0.12
 49
0.0
 49
-0.12
 49
0.0
 49
-0.12
 49
0.0
 49
-0.12
  0
LTYPE
  2
ACAD_ISO15W100
 70
     0
  3
ISO double-dash triple-dot __ __ . . . __ __ . 
 72
    65
 73
    10
 40
1.5399999999999989
 49
0.47
 49
-0.12
 49
0.47
 49
-0.12
 49
0.0
 49
-0.12
 49
0.0
 49
-0.12
 49
0.0
 49
-0.12
  0
LTYPE
  2
FENCELINE1
 70
     0
  3
Fenceline circle ----0-----0----0-----0----0---
 72
    65
 73
     4
 40
1.45
 49
0.25
 49
-0.1
 49
-0.1
 49
1.0
  0
LTYPE
  2
FENCELINE2
 70
     0
  3
Fenceline square ----[]-----[]----[]-----[]----
 72
    65
 73
     4
 40
1.45
 49
0.25
 49
-0.1
 49
-0.1
 49
1.0
  0
LTYPE
  2
TRACKS
 70
     0
  3
Tracks -|-|-|-|-|-|-|-|-|-|-|-|-|-|-|-|-|-|-|-|
 72
    65
 73
     2
 40
0.3
 49
0.15
 49
0.15
  0
LTYPE
  2
BATTING
 70
     0
  3
Batting SSSSSSSSSSSSSSSSSSSSSSSSSSSSSSSSSSSSSSS
 72
    65
 73
     4
 40
0.4001000000000001
 49
0.0001
 49
-0.1
 49
-0.2
 49
-0.1
  0
LTYPE
  2
HOT_WATER_SUPPLY
 70
     0
  3
Hot water supply ---- HW ---- HW ---- HW ----
 72
    65
 73
     3
 40
0.9
 49
0.5
 49
-0.2
 49
-0.2
  0
LTYPE
  2
GAS_LINE
 70
     0
  3
Gas line ----GAS----GAS----GAS----GAS----GAS---
 72
    65
 73
     3
 40
0.95
 49
0.5
 49
-0.2
 49
-0.25
  0
LTYPE
  2
ZIGZAG
 70
     0
  3
Zig zag /\/\/\/\/\/\/\/\/\/\/\/\/\/\/\/\/\/\/\/
 72
    65
 73
     4
 40
0.8001000000000001
 49
0.0001
 49
-0.2
 49
-0.4
 49
-0.2
  0
ENDTAB
  0
TABLE
  2
LAYER
 70
     1
  0
LAYER
  2
0
 70
     0
 62
     7
  6
CONTINUOUS
  0
ENDTAB
  0
TABLE
  2
STYLE
 70
     3
  0
STYLE
  2
STANDARD
 70
     0
 40
0.0
 41
1.0
 50
0.0
 71
     0
 42
0.2
  3
txt
  4

  0
STYLE
  2
ANNOTATIVE
 70
     0
 40
0.0
 41
1.0
 50
0.0
 71
     0
 42
0.2
  3
txt
  4

  0
STYLE
  2

 70
     1
 40
0.0
 41
1.0
 50
0.0
 71
     0
 42
0.2
  3
ltypeshp.shx
  4

  0
ENDTAB
  0
TABLE
  2
VIEW
 70
     0
  0
ENDTAB
  0
TABLE
  2
UCS
 70
     0
  0
ENDTAB
  0
TABLE
  2
APPID
 70
     3
  0
APPID
  2
ACAD
 70
     0
  0
APPID
  2
ACADANNOTATIVE
 70
     0
  0
APPID
  2
ACAD_MLEADERVER
 70
     0
  0
ENDTAB
  0
TABLE
  2
DIMSTYLE
 70
     2
  0
DIMSTYLE
  2
STANDARD
 70
     0
  3

  4

  5

  6

  7

 40
1.0
 41
0.18
 42
0.0625
 43
0.38
 44
0.18
 45
0.0
 46
0.0
 47
0.0
 48
0.0
140
0.18
141
0.09
142
0.0
143
25.399999999999999
144
1.0
145
0.0
146
1.0
147
0.09
 71
     0
 72
     0
 73
     1
 74
     1
 75
     0
 76
     0
 77
     0
 78
     0
170
     0
171
     2
172
     0
173
     0
174
     0
175
     0
176
     0
177
     0
178
     0
  0
DIMSTYLE
  2
ANNOTATIVE
 70
     0
  3

  4

  5

  6

  7

 40
1.0
 41
0.18
 42
0.0625
 43
0.38
 44
0.18
 45
0.0
 46
0.0
 47
0.0
 48
0.0
140
0.18
141
0.09
142
0.0
143
25.399999999999999
144
1.0
145
0.0
146
1.0
147
0.09
 71
     0
 72
     0
 73
     1
 74
     1
 75
     0
 76
     0
 77
     0
 78
     0
170
     0
171
     2
172
     0
173
     0
174
     0
175
     0
176
     0
177
     0
178
     0
  0
ENDTAB
  0
ENDSEC
  0
SECTION
  2
BLOCKS
  0
BLOCK
  8
0
  2
$MODEL_SPACE
 70
     0
 10
0.0
 20
0.0
 30
0.0
  3
$MODEL_SPACE
  1

  0
ENDBLK
  5
73
  8
0
  0
BLOCK
 67
     1
  8
0
  2
$PAPER_SPACE
 70
     0
 10
0.0
 20
0.0
 30
0.0
  3
$PAPER_SPACE
  1

  0
ENDBLK
  5
6F
 67
     1
  8
0
  0
ENDSEC
  0
SECTION
  2
ENTITIES
  0
POLYLINE
  5
B7
  8
0
 66
     1
 10
0.0
 20
0.0
 30
0.0
 70
     1
  0
VERTEX
  5
B8
  8
0
 10
-3.0624999999999978
 20
-4.4375000000000213
 30
0.0
  0
VERTEX
  5
B9
  8
0
 10
-3.0624999999999978
 20
-4.3281250000000213
 30
0.0
  0
VERTEX
  5
BB
  8
0
 10
-3.1562499999999978
 20
-4.3281250000000213
 30
0.0
  0
VERTEX
  5
BC
  8
0
 10
-3.1562499999999978
 20
-4.2031250000000204
 30
0.0
  0
VERTEX
  5
BD
  8
0
 10
-3.0624999999999978
 20
-4.2031250000000204
 30
0.0
  0
VERTEX
  5
BE
  8
0
 10
-3.0624999999999978
 20
-4.0875000000000208
 30
0.0
  0
VERTEX
  5
BF
  8
0
 10
-2.9374999999999978
 20
-4.0875000000000208
 30
0.0
  0
VERTEX
  5
C0
  8
0
 10
-2.9374999999999978
 20
-4.2031250000000204
 30
0.0
  0
VERTEX
  5
C1
  8
0
 10
-2.8437499999999969
 20
-4.2031250000000204
 30
0.0
  0
VERTEX
  5
C2
  8
0
 10
-2.8437499999999969
 20
-4.3281250000000213
 30
0.0
  0
VERTEX
  5
C3
  8
0
 10
-2.9374999999999978
 20
-4.3281250000000213
 30
0.0
  0
VERTEX
  5
C4
  8
0
 10
-2.9374999999999969
 20
-4.4375000000000213
 30
0.0
  0
VERTEX
  5
C5
  8
0
 10
-2.8749999999999991
 20
-4.4375000000000213
 30
0.0
  0
VERTEX
  5
C6
  8
0
 10
-2.8749999999999991
 20
-4.59375
 30
0.0
  0
VERTEX
  5
C7
  8
0
 10
-2.6249999999999991
 20
-4.59375
 30
0.0
  0
VERTEX
  5
C8
  8
0
 10
-2.6249999999999991
 20
-4.4375000000000213
 30
0.0
  0
VERTEX
  5
C9
  8
0
 10
-2.5624999999999978
 20
-4.4375000000000213
 30
0.0
  0
VERTEX
  5
CA
  8
0
 10
-2.5624999999999978
 20
-4.3281250000000204
 30
0.0
  0
VERTEX
  5
CB
  8
0
 10
-2.6562499999999978
 20
-4.3281250000000204
 30
0.0
  0
VERTEX
  5
CC
  8
0
 10
-2.6562499999999978
 20
-4.2031250000000204
 30
0.0
  0
VERTEX
  5
CD
  8
0
 10
-2.5624999999999991
 20
-4.2031250000000204
 30
0.0
  0
VERTEX
  5
CE
  8
0
 10
-2.5624999999999978
 20
-4.087500000000019
 30
0.0
  0
VERTEX
  5
CF
  8
0
 10
-2.4374999999999978
 20
-4.087500000000019
 30
0.0
  0
VERTEX
  5
D0
  8
0
 10
-2.4374999999999978
 20
-4.2031250000000204
 30
0.0
  0
VERTEX
  5
D1
  8
0
 10
-2.3437499999999978
 20
-4.2031250000000204
 30
0.0
  0
VERTEX
  5
D2
  8
0
 10
-2.3437499999999978
 20
-4.3281250000000204
 30
0.0
  0
VERTEX
  5
D3
  8
0
 10
-2.4374999999999978
 20
-4.3281250000000204
 30
0.0
  0
VERTEX
  5
D4
  8
0
 10
-2.4374999999999978
 20
-4.4375000000000213
 30
0.0
  0
VERTEX
  5
D5
  8
0
 10
-2.3749999999999991
 20
-4.4375000000000213
 30
0.0
  0
VERTEX
  5
D6
  8
0
 10
-2.3749999999999991
 20
-4.59375
 30
0.0
  0
VERTEX
  5
D7
  8
0
 10
-2.125
 20
-4.59375
 30
0.0
  0
VERTEX
  5
D8
  8
0
 10
-2.125
 20
-4.4375000000000213
 30
0.0
  0
VERTEX
  5
D9
  8
0
 10
-2.0624999999999978
 20
-4.4375000000000204
 30
0.0
  0
VERTEX
  5
DA
  8
0
 10
-2.0624999999999978
 20
-4.3281250000000204
 30
0.0
  0
VERTEX
  5
DB
  8
0
 10
-2.1562499999999978
 20
-4.3281250000000204
 30
0.0
  0
VERTEX
  5
DC
  8
0
 10
-2.1562499999999978
 20
-4.2031250000000204
 30
0.0
  0
VERTEX
  5
DD
  8
0
 10
-2.0624999999999991
 20
-4.2031250000000204
 30
0.0
  0
VERTEX
  5
DE
  8
0
 10
-2.0624999999999978
 20
-4.087500000000019
 30
0.0
  0
VERTEX
  5
DF
  8
0
 10
-1.9374999999999989
 20
-4.087500000000019
 30
0.0
  0
VERTEX
  5
E0
  8
0
 10
-1.9374999999999989
 20
-4.2031250000000204
 30
0.0
  0
VERTEX
  5
E1
  8
0
 10
-1.843749999999998
 20
-4.2031250000000204
 30
0.0
  0
VERTEX
  5
E2
  8
0
 10
-1.843749999999998
 20
-4.3281250000000204
 30
0.0
  0
VERTEX
  5
E3
  8
0
 10
-1.937499999999998
 20
-4.3281250000000204
 30
0.0
  0
VERTEX
  5
E4
  8
0
 10
-1.937499999999998
 20
-4.4375000000000204
 30
0.0
  0
VERTEX
  5
E5
  8
0
 10
-1.8749999999999989
 20
-4.4375000000000213
 30
0.0
  0
VERTEX
  5
E6
  8
0
 10
-1.8749999999999989
 20
-4.59375
 30
0.0
  0
VERTEX
  5
E7
  8
0
 10
-1.6249999999999989
 20
-4.59375
 30
0.0
  0
VERTEX
  5
E8
  8
0
 10
-1.6249999999999989
 20
-4.4375000000000204
 30
0.0
  0
VERTEX
  5
E9
  8
0
 10
-1.562499999999998
 20
-4.4375000000000204
 30
0.0
  0
VERTEX
  5
EA
  8
0
 10
-1.562499999999998
 20
-4.3281250000000204
 30
0.0
  0
VERTEX
  5
EB
  8
0
 10
-1.656249999999998
 20
-4.3281250000000204
 30
0.0
  0
VERTEX
  5
EC
  8
0
 10
-1.656249999999998
 20
-4.2031250000000204
 30
0.0
  0
VERTEX
  5
ED
  8
0
 10
-1.5624999999999989
 20
-4.2031250000000204
 30
0.0
  0
VERTEX
  5
EE
  8
0
 10
-1.562499999999998
 20
-4.087500000000019
 30
0.0
  0
VERTEX
  5
EF
  8
0
 10
-1.4374999999999989
 20
-4.087500000000019
 30
0.0
  0
VERTEX
  5
F0
  8
0
 10
-1.4374999999999989
 20
-4.2031250000000204
 30
0.0
  0
VERTEX
  5
F1
  8
0
 10
-1.343749999999998
 20
-4.2031250000000204
 30
0.0
  0
VERTEX
  5
F2
  8
0
 10
-1.343749999999998
 20
-4.3281250000000204
 30
0.0
  0
VERTEX
  5
F3
  8
0
 10
-1.437499999999998
 20
-4.3281250000000204
 30
0.0
  0
VERTEX
  5
F4
  8
0
 10
-1.437499999999998
 20
-4.4375000000000204
 30
0.0
  0
VERTEX
  5
F5
  8
0
 10
-1.375
 20
-4.4375000000000204
 30
0.0
  0
VERTEX
  5
F6
  8
0
 10
-1.3749999999999989
 20
-4.59375
 30
0.0
  0
VERTEX
  5
F7
  8
0
 10
-1.1249999999999989
 20
-4.59375
 30
0.0
  0
VERTEX
  5
F8
  8
0
 10
-1.125
 20
-4.4375000000000204
 30
0.0
  0
VERTEX
  5
F9
  8
0
 10
-1.0624999999999989
 20
-4.4375000000000204
 30
0.0
  0
VERTEX
  5
FA
  8
0
 10
-1.0624999999999989
 20
-4.3281250000000204
 30
0.0
  0
VERTEX
  5
FB
  8
0
 10
-1.156249999999998
 20
-4.3281250000000204
 30
0.0
  0
VERTEX
  5
FC
  8
0
 10
-1.156249999999998
 20
-4.2031250000000204
 30
0.0
  0
VERTEX
  5
FD
  8
0
 10
-1.0624999999999989
 20
-4.2031250000000187
 30
0.0
  0
VERTEX
  5
FE
  8
0
 10
-1.062499999999998
 20
-4.087500000000019
 30
0.0
  0
VERTEX
  5
FF
  8
0
 10
-0.9374999999999992
 20
-4.087500000000019
 30
0.0
  0
VERTEX
  5
100
  8
0
 10
-0.9374999999999991
 20
-4.2031250000000187
 30
0.0
  0
VERTEX
  5
101
  8
0
 10
-0.8437499999999985
 20
-4.2031250000000187
 30
0.0
  0
VERTEX
  5
102
  8
0
 10
-0.8437499999999985
 20
-4.3281250000000204
 30
0.0
  0
VERTEX
  5
103
  8
0
 10
-0.9374999999999989
 20
-4.3281250000000204
 30
0.0
  0
VERTEX
  5
104
  8
0
 10
-0.9374999999999989
 20
-4.4375000000000204
 30
0.0
  0
VERTEX
  5
105
  8
0
 10
-0.875
 20
-4.4375000000000204
 30
0.0
  0
VERTEX
  5
106
  8
0
 10
-0.8749999999999998
 20
-4.59375
 30
0.0
  0
VERTEX
  5
107
  8
0
 10
-0.625
 20
-4.59375
 30
0.0
  0
VERTEX
  5
108
  8
0
 10
-0.625
 20
-4.4375000000000204
 30
0.0
  0
VERTEX
  5
109
  8
0
 10
-0.5624999999999991
 20
-4.4375000000000204
 30
0.0
  0
VERTEX
  5
10A
  8
0
 10
-0.5624999999999991
 20
-4.3281250000000204
 30
0.0
  0
VERTEX
  5
10B
  8
0
 10
-0.6562499999999987
 20
-4.3281250000000204
 30
0.0
  0
VERTEX
  5
10C
  8
0
 10
-0.6562499999999987
 20
-4.2031250000000204
 30
0.0
  0
VERTEX
  5
10D
  8
0
 10
-0.5624999999999992
 20
-4.2031250000000187
 30
0.0
  0
VERTEX
  5
10E
  8
0
 10
-0.562499999999999
 20
-4.087500000000019
 30
0.0
  0
VERTEX
  5
10F
  8
0
 10
-0.4374999999999992
 20
-4.087500000000019
 30
0.0
  0
VERTEX
  5
110
  8
0
 10
-0.4374999999999991
 20
-4.2031250000000187
 30
0.0
  0
VERTEX
  5
111
  8
0
 10
-0.3437499999999987
 20
-4.2031250000000187
 30
0.0
  0
VERTEX
  5
112
  8
0
 10
-0.3437499999999986
 20
-4.3281250000000204
 30
0.0
  0
VERTEX
  5
113
  8
0
 10
-0.437499999999999
 20
-4.3281250000000204
 30
0.0
  0
VERTEX
  5
114
  8
0
 10
-0.4374999999999989
 20
-4.4375000000000204
 30
0.0
  0
VERTEX
  5
115
  8
0
 10
-0.375
 20
-4.4375000000000204
 30
0.0
  0
VERTEX
  5
116
  8
0
 10
-0.3749999999999998
 20
-4.59375
 30
0.0
  0
VERTEX
  5
117
  8
0
 10
-0.125
 20
-4.59375
 30
0.0
  0
VERTEX
  5
118
  8
0
 10
-0.125
 20
-4.4375000000000204
 30
0.0
  0
VERTEX
  5
119
  8
0
 10
0.0000000000000015
 20
-4.4375000000000204
 30
0.0
  0
VERTEX
  5
11A
  8
0
 10
0.0000000000000002
 20
-0.2499999999999999
 30
0.0
  0
VERTEX
  5
11B
  8
0
 10
-0.1250000000000013
 20
-0.2499999999999996
 30
0.0
  0
VERTEX
  5
11C
  8
0
 10
-0.1250000000000013
 20
0.0000000000000003
 30
0.0
  0
VERTEX
  5
11D
  8
0
 10
-0.3750000000000012
 20
0.0000000000000003
 30
0.0
  0
VERTEX
  5
11E
  8
0
 10
-0.3750000000000012
 20
-0.2499999999999996
 30
0.0
  0
VERTEX
  5
11F
  8
0
 10
-0.4375000000000001
 20
-0.2499999999999996
 30
0.0
  0
VERTEX
  5
120
  8
0
 10
-0.4375000000000001
 20
-0.3593749999999996
 30
0.0
  0
VERTEX
  5
121
  8
0
 10
-0.3437499999999998
 20
-0.3593749999999996
 30
0.0
  0
VERTEX
  5
122
  8
0
 10
-0.3437499999999998
 20
-0.4843749999999997
 30
0.0
  0
VERTEX
  5
123
  8
0
 10
-0.4375000000000002
 20
-0.4843749999999997
 30
0.0
  0
VERTEX
  5
124
  8
0
 10
-0.4375000000000002
 20
-0.5999999999999996
 30
0.0
  0
VERTEX
  5
125
  8
0
 10
-0.5625
 20
-0.5999999999999996
 30
0.0
  0
VERTEX
  5
126
  8
0
 10
-0.5625000000000002
 20
-0.4843749999999999
 30
0.0
  0
VERTEX
  5
127
  8
0
 10
-0.6562499999999999
 20
-0.4843749999999997
 30
0.0
  0
VERTEX
  5
128
  8
0
 10
-0.6562499999999999
 20
-0.3593749999999996
 30
0.0
  0
VERTEX
  5
129
  8
0
 10
-0.5625000000000001
 20
-0.3593749999999996
 30
0.0
  0
VERTEX
  5
12A
  8
0
 10
-0.5625000000000002
 20
-0.2499999999999996
 30
0.0
  0
VERTEX
  5
12B
  8
0
 10
-0.6250000000000013
 20
-0.2499999999999996
 30
0.0
  0
VERTEX
  5
12C
  8
0
 10
-0.6250000000000013
 20
0.0000000000000003
 30
0.0
  0
VERTEX
  5
12D
  8
0
 10
-0.8750000000000012
 20
0.0000000000000003
 30
0.0
  0
VERTEX
  5
12E
  8
0
 10
-0.8750000000000012
 20
-0.2499999999999996
 30
0.0
  0
VERTEX
  5
12F
  8
0
 10
-0.9375000000000001
 20
-0.2499999999999996
 30
0.0
  0
VERTEX
  5
130
  8
0
 10
-0.9375000000000001
 20
-0.3593749999999996
 30
0.0
  0
VERTEX
  5
131
  8
0
 10
-0.8437499999999998
 20
-0.3593749999999996
 30
0.0
  0
VERTEX
  5
132
  8
0
 10
-0.8437499999999998
 20
-0.4843749999999997
 30
0.0
  0
VERTEX
  5
133
  8
0
 10
-0.9375000000000003
 20
-0.4843749999999997
 30
0.0
  0
VERTEX
  5
134
  8
0
 10
-0.9375000000000003
 20
-0.5999999999999996
 30
0.0
  0
VERTEX
  5
135
  8
0
 10
-1.0625
 20
-0.5999999999999996
 30
0.0
  0
VERTEX
  5
136
  8
0
 10
-1.0625
 20
-0.4843749999999999
 30
0.0
  0
VERTEX
  5
137
  8
0
 10
-1.15625
 20
-0.4843749999999997
 30
0.0
  0
VERTEX
  5
138
  8
0
 10
-1.15625
 20
-0.3593749999999996
 30
0.0
  0
VERTEX
  5
139
  8
0
 10
-1.0625
 20
-0.3593749999999996
 30
0.0
  0
VERTEX
  5
13A
  8
0
 10
-1.0625
 20
-0.2499999999999996
 30
0.0
  0
VERTEX
  5
13B
  8
0
 10
-1.1250000000000011
 20
-0.2499999999999996
 30
0.0
  0
VERTEX
  5
13C
  8
0
 10
-1.1250000000000011
 20
0.0000000000000003
 30
0.0
  0
VERTEX
  5
13D
  8
0
 10
-1.3750000000000011
 20
0.0000000000000003
 30
0.0
  0
VERTEX
  5
13E
  8
0
 10
-1.3750000000000011
 20
-0.2499999999999996
 30
0.0
  0
VERTEX
  5
13F
  8
0
 10
-1.4375
 20
-0.2499999999999996
 30
0.0
  0
VERTEX
  5
140
  8
0
 10
-1.4375
 20
-0.3593749999999996
 30
0.0
  0
VERTEX
  5
141
  8
0
 10
-1.3437499999999989
 20
-0.3593749999999996
 30
0.0
  0
VERTEX
  5
142
  8
0
 10
-1.3437499999999989
 20
-0.4843749999999997
 30
0.0
  0
VERTEX
  5
143
  8
0
 10
-1.4375
 20
-0.4843749999999997
 30
0.0
  0
VERTEX
  5
144
  8
0
 10
-1.4375
 20
-0.5999999999999996
 30
0.0
  0
VERTEX
  5
145
  8
0
 10
-1.5624999999999989
 20
-0.5999999999999996
 30
0.0
  0
VERTEX
  5
146
  8
0
 10
-1.5625
 20
-0.4843749999999999
 30
0.0
  0
VERTEX
  5
147
  8
0
 10
-1.6562499999999989
 20
-0.4843749999999997
 30
0.0
  0
VERTEX
  5
148
  8
0
 10
-1.6562499999999989
 20
-0.3593749999999996
 30
0.0
  0
VERTEX
  5
149
  8
0
 10
-1.5625
 20
-0.3593749999999996
 30
0.0
  0
VERTEX
  5
14A
  8
0
 10
-1.5625
 20
-0.2499999999999996
 30
0.0
  0
VERTEX
  5
14B
  8
0
 10
-1.6250000000000011
 20
-0.2499999999999996
 30
0.0
  0
VERTEX
  5
14C
  8
0
 10
-1.6250000000000011
 20
0.0000000000000003
 30
0.0
  0
VERTEX
  5
14D
  8
0
 10
-1.875
 20
0.0000000000000003
 30
0.0
  0
VERTEX
  5
14E
  8
0
 10
-1.875
 20
-0.2499999999999996
 30
0.0
  0
VERTEX
  5
14F
  8
0
 10
-1.9374999999999989
 20
-0.2499999999999996
 30
0.0
  0
VERTEX
  5
150
  8
0
 10
-1.9374999999999989
 20
-0.3593749999999996
 30
0.0
  0
VERTEX
  5
151
  8
0
 10
-1.8437499999999989
 20
-0.3593749999999996
 30
0.0
  0
VERTEX
  5
152
  8
0
 10
-1.8437499999999989
 20
-0.4843749999999997
 30
0.0
  0
VERTEX
  5
153
  8
0
 10
-1.9374999999999989
 20
-0.4843749999999997
 30
0.0
  0
VERTEX
  5
154
  8
0
 10
-1.9374999999999989
 20
-0.5999999999999996
 30
0.0
  0
VERTEX
  5
155
  8
0
 10
-2.0625
 20
-0.5999999999999996
 30
0.0
  0
VERTEX
  5
156
  8
0
 10
-2.0625
 20
-0.4843749999999999
 30
0.0
  0
VERTEX
  5
157
  8
0
 10
-2.1562499999999991
 20
-0.4843749999999997
 30
0.0
  0
VERTEX
  5
158
  8
0
 10
-2.1562499999999991
 20
-0.3593749999999996
 30
0.0
  0
VERTEX
  5
159
  8
0
 10
-2.0625
 20
-0.3593749999999996
 30
0.0
  0
VERTEX
  5
15A
  8
0
 10
-2.0625
 20
-0.2499999999999996
 30
0.0
  0
VERTEX
  5
15B
  8
0
 10
-2.1250000000000009
 20
-0.2499999999999996
 30
0.0
  0
VERTEX
  5
15C
  8
0
 10
-2.1250000000000009
 20
0.0000000000000003
 30
0.0
  0
VERTEX
  5
15D
  8
0
 10
-2.375
 20
0.0000000000000003
 30
0.0
  0
VERTEX
  5
15E
  8
0
 10
-2.375
 20
-0.2499999999999996
 30
0.0
  0
VERTEX
  5
15F
  8
0
 10
-2.4374999999999991
 20
-0.2499999999999996
 30
0.0
  0
VERTEX
  5
160
  8
0
 10
-2.4374999999999991
 20
-0.3593749999999996
 30
0.0
  0
VERTEX
  5
161
  8
0
 10
-2.3437499999999991
 20
-0.3593749999999996
 30
0.0
  0
VERTEX
  5
162
  8
0
 10
-2.3437499999999991
 20
-0.4843749999999997
 30
0.0
  0
VERTEX
  5
163
  8
0
 10
-2.4375
 20
-0.4843749999999997
 30
0.0
  0
VERTEX
  5
164
  8
0
 10
-2.4375
 20
-0.5999999999999996
 30
0.0
  0
VERTEX
  5
165
  8
0
 10
-2.5625
 20
-0.5999999999999996
 30
0.0
  0
VERTEX
  5
166
  8
0
 10
-2.5625
 20
-0.4843749999999999
 30
0.0
  0
VERTEX
  5
167
  8
0
 10
-2.65625
 20
-0.4843749999999997
 30
0.0
  0
VERTEX
  5
168
  8
0
 10
-2.65625
 20
-0.3593749999999996
 30
0.0
  0
VERTEX
  5
169
  8
0
 10
-2.5625
 20
-0.3593749999999996
 30
0.0
  0
VERTEX
  5
16A
  8
0
 10
-2.5625
 20
-0.2499999999999996
 30
0.0
  0
VERTEX
  5
16B
  8
0
 10
-2.625
 20
-0.2499999999999996
 30
0.0
  0
VERTEX
  5
16C
  8
0
 10
-2.625
 20
0.0000000000000003
 30
0.0
  0
VERTEX
  5
16D
  8
0
 10
-2.875
 20
0.0000000000000003
 30
0.0
  0
VERTEX
  5
16E
  8
0
 10
-2.875
 20
-0.2499999999999996
 30
0.0
  0
VERTEX
  5
16F
  8
0
 10
-2.9375
 20
-0.2499999999999996
 30
0.0
  0
VERTEX
  5
170
  8
0
 10
-2.9375
 20
-0.3593749999999996
 30
0.0
  0
VERTEX
  5
171
  8
0
 10
-2.8437499999999991
 20
-0.3593749999999996
 30
0.0
  0
VERTEX
  5
172
  8
0
 10
-2.8437499999999991
 20
-0.4843749999999997
 30
0.0
  0
VERTEX
  5
173
  8
0
 10
-2.9375
 20
-0.4843749999999997
 30
0.0
  0
VERTEX
  5
174
  8
0
 10
-2.9375
 20
-0.5999999999999996
 30
0.0
  0
VERTEX
  5
175
  8
0
 10
-3.0624999999999991
 20
-0.5999999999999996
 30
0.0
  0
VERTEX
  5
176
  8
0
 10
-3.0624999999999991
 20
-0.4843749999999999
 30
0.0
  0
VERTEX
  5
177
  8
0
 10
-3.15625
 20
-0.4843749999999997
 30
0.0
  0
VERTEX
  5
178
  8
0
 10
-3.15625
 20
-0.3593749999999996
 30
0.0
  0
VERTEX
  5
179
  8
0
 10
-3.0624999999999991
 20
-0.3593749999999996
 30
0.0
  0
VERTEX
  5
17A
  8
0
 10
-3.0624999999999991
 20
-0.2499999999999996
 30
0.0
  0
VERTEX
  5
17B
  8
0
 10
-3.125
 20
-0.2499999999999996
 30
0.0
  0
VERTEX
  5
17C
  8
0
 10
-3.125
 20
0.0000000000000003
 30
0.0
  0
VERTEX
  5
17D
  8
0
 10
-3.375
 20
0.0000000000000003
 30
0.0
  0
VERTEX
  5
17E
  8
0
 10
-3.375
 20
-0.2499999999999996
 30
0.0
  0
VERTEX
  5
17F
  8
0
 10
-3.5000000000000022
 20
-0.2499999999999996
 30
0.0
  0
VERTEX
  5
180
  8
0
 10
-3.5000000000000009
 20
-4.4375000000000213
 30
0.0
  0
VERTEX
  5
181
  8
0
 10
-3.3749999999999991
 20
-4.4375000000000213
 30
0.0
  0
VERTEX
  5
182
  8
0
 10
-3.3749999999999991
 20
-4.59375
 30
0.0
  0
VERTEX
  5
183
  8
0
 10
-3.1249999999999991
 20
-4.59375
 30
0.0
  0
VERTEX
  5
184
  8
0
 10
-3.1249999999999991
 20
-4.4375000000000213
 30
0.0
  0
SEQEND
  5
BA
  8
0
  0
CIRCLE
  5
186
  8
0
 10
-1.75
 20
-2.3437500000000102
 30
0.0
 40
0.234375
  0
ENDSEC
  0
EOF
