%
M48
M72
T01C0.0320
T02C0.0360
T03C0.0440
T04C0.0520
%
T01
X2600Y7600
X2600Y9600
X5100Y9600
X5100Y7600
X7600Y7600
X7600Y9600
X11100Y4600
X13100Y4600
X14100Y8600
X15100Y8600
X16100Y8600
X17100Y8600
X17100Y11600
X16100Y11600
X15100Y11600
X14100Y11600
X12850Y21600
X11850Y21600
X10850Y21600
X9850Y21600
X9850Y24600
X10850Y24600
X11850Y24600
X12850Y24600
T02
X2600Y1600
X5100Y1600
X7600Y1600
X10100Y2100
X10100Y5600
X7600Y6600
X5100Y6600
X2600Y6600
X7600Y12100
X10100Y10600
X12600Y12100
X12100Y13600
X10100Y13600
X14600Y14600
X17600Y13600
X19600Y14600
X22100Y13600
X22100Y10600
X19600Y9600
X19600Y8600
X15600Y7600
X19600Y3600
X15600Y2600
X15100Y2100
X14600Y17600
X14100Y20100
X12100Y18600
X10100Y18600
X9100Y20100
X7600Y18600
X5600Y18600
X5600Y23600
X7600Y23600
X17600Y18600
T03
X2600Y17600
X2600Y15600
X2600Y20100
X2600Y22100
T04
X1600Y11600
X3600Y11600
X17100Y1600
X19100Y1600
X21600Y1600
X19600Y16100
M30
