  0
SECTION
  2
HEADER
  9
$ACADVER
  1
AC1009
  9
$INSBASE
 10
0.0
 20
0.0
 30
0.0
  9
$EXTMIN
 10
0.0
 20
0.0
 30
0.0
  9
$EXTMAX
 10
4.7557560728306827
 20
25.341233175834638
 30
0.0
  9
$LIMMIN
 10
0.0
 20
0.0
  9
$LIMMAX
 10
4.7557560728306827
 20
25.341233175834638
  9
$ORTHOMODE
 70
     0
  9
$REGENMODE
 70
     1
  9
$FILLMODE
 70
     1
  9
$QTEXTMODE
 70
     0
  9
$MIRRTEXT
 70
     0
  9
$DRAGMODE
 70
     2
  9
$LTSCALE
 40
1.0
  9
$OSMODE
 70
     0
  9
$ATTMODE
 70
     1
  9
$TEXTSIZE
 40
0.2
  9
$TRACEWID
 40
0.05
  9
$TEXTSTYLE
  7
STANDARD
  9
$CLAYER
  8
0
  9
$CELTYPE
  6
BYLAYER
  9
$CECOLOR
 62
   256
  9
$DIMSCALE
 40
1.0
  9
$DIMASZ
 40
0.0708661417322835
  9
$DIMEXO
 40
0.0625
  9
$DIMDLI
 40
0.38
  9
$DIMRND
 40
0.0
  9
$DIMDLE
 40
0.0
  9
$DIMEXE
 40
0.18
  9
$DIMTP
 40
0.0
  9
$DIMTM
 40
0.0
  9
$DIMTXT
 40
0.0708661417322835
  9
$DIMCEN
 40
0.09
  9
$DIMTSZ
 40
0.0
  9
$DIMTOL
 70
     0
  9
$DIMLIM
 70
     0
  9
$DIMTIH
 70
     1
  9
$DIMTOH
 70
     1
  9
$DIMSE1
 70
     0
  9
$DIMSE2
 70
     0
  9
$DIMTAD
 70
     0
  9
$DIMZIN
 70
     0
  9
$DIMBLK
  1

  9
$DIMASO
 70
     1
  9
$DIMSHO
 70
     1
  9
$DIMPOST
  1

  9
$DIMAPOST
  1

  9
$DIMALT
 70
     0
  9
$DIMALTD
 70
     2
  9
$DIMALTF
 40
25.399999999999999
  9
$DIMLFAC
 40
1.0
  9
$DIMTOFL
 70
     0
  9
$DIMTVP
 40
0.0
  9
$DIMTIX
 70
     0
  9
$DIMSOXD
 70
     0
  9
$DIMSAH
 70
     0
  9
$DIMBLK1
  1

  9
$DIMBLK2
  1

  9
$DIMSTYLE
  2
STANDARD
  9
$DIMCLRD
 70
     0
  9
$DIMCLRE
 70
     0
  9
$DIMCLRT
 70
     0
  9
$DIMTFAC
 40
1.0
  9
$DIMGAP
 40
0.09
  9
$LUNITS
 70
     2
  9
$LUPREC
 70
     4
  9
$SKETCHINC
 40
0.1
  9
$FILLETRAD
 40
0.0
  9
$AUNITS
 70
     0
  9
$AUPREC
 70
     0
  9
$MENU
  1
.
  9
$ELEVATION
 40
0.0
  9
$PELEVATION
 40
0.0
  9
$THICKNESS
 40
0.0
  9
$LIMCHECK
 70
     0
  9
$BLIPMODE
 70
     0
  9
$CHAMFERA
 40
0.0
  9
$CHAMFERB
 40
0.0
  9
$SKPOLY
 70
     0
  9
$TDCREATE
 40
2456955.707211806
  9
$TDUPDATE
 40
2456955.707211806
  9
$TDINDWG
 40
0.0000060417
  9
$TDUSRTIMER
 40
0.0000060417
  9
$USRTIMER
 70
     1
  9
$ANGBASE
 50
0.0
  9
$ANGDIR
 70
     0
  9
$PDMODE
 70
     0
  9
$PDSIZE
 40
0.0
  9
$PLINEWID
 40
0.0
  9
$COORDS
 70
     0
  9
$SPLFRAME
 70
     0
  9
$SPLINETYPE
 70
     6
  9
$SPLINESEGS
 70
     8
  9
$ATTDIA
 70
     0
  9
$ATTREQ
 70
     1
  9
$HANDLING
 70
     1
  9
$HANDSEED
  5
291
  9
$SURFTAB1
 70
     6
  9
$SURFTAB2
 70
     6
  9
$SURFTYPE
 70
     6
  9
$SURFU
 70
     6
  9
$SURFV
 70
     6
  9
$UCSNAME
  2

  9
$UCSORG
 10
0.0
 20
0.0
 30
0.0
  9
$UCSXDIR
 10
1.0
 20
0.0
 30
0.0
  9
$UCSYDIR
 10
0.0
 20
1.0
 30
0.0
  9
$PUCSNAME
  2

  9
$PUCSORG
 10
0.0
 20
0.0
 30
0.0
  9
$PUCSXDIR
 10
1.0
 20
0.0
 30
0.0
  9
$PUCSYDIR
 10
0.0
 20
1.0
 30
0.0
  9
$USERI1
 70
     0
  9
$USERI2
 70
     0
  9
$USERI3
 70
     0
  9
$USERI4
 70
     0
  9
$USERI5
 70
     0
  9
$USERR1
 40
0.0
  9
$USERR2
 40
0.0
  9
$USERR3
 40
0.0
  9
$USERR4
 40
0.0
  9
$USERR5
 40
0.0
  9
$WORLDVIEW
 70
     1
  9
$SHADEDGE
 70
     3
  9
$SHADEDIF
 70
    70
  9
$TILEMODE
 70
     1
  9
$MAXACTVP
 70
    64
  9
$PLIMCHECK
 70
     0
  9
$PEXTMIN
 10
0.0
 20
0.0
 30
0.0
  9
$PEXTMAX
 10
4.7557560728306827
 20
25.341233175834638
 30
0.0
  9
$PLIMMIN
 10
0.0
 20
0.0
  9
$PLIMMAX
 10
4.7557560728306827
 20
25.341233175834638
  9
$UNITMODE
 70
     0
  9
$VISRETAIN
 70
     1
  9
$PLINEGEN
 70
     0
  9
$PSLTSCALE
 70
     1
  0
ENDSEC
  0
SECTION
  2
TABLES
  0
TABLE
  2
VPORT
 70
     1
  0
VPORT
  2
*ACTIVE
 70
     0
 10
0.0
 20
0.0
 11
1.0
 21
1.0
 12
1.767187500000019
 22
11.981257655368511
 13
0.0
 23
0.0
 14
1.0
 24
1.0
 15
0.0
 25
0.0
 16
0.0
 26
0.0
 36
1.0
 17
0.0
 27
0.0
 37
0.0
 40
25.341233175834638
 41
0.187668691568087
 42
50.0
 43
0.0
 44
0.0
 50
0.0
 51
0.0
 71
     0
 72
   100
 73
     1
 74
     1
 75
     0
 76
     0
 77
     0
 78
     0
  0
ENDTAB
  0
TABLE
  2
LTYPE
 70
    59
  0
LTYPE
  2
CONTINUOUS
 70
     0
  3
Solid line
 72
    65
 73
     0
 40
0.0
  0
LTYPE
  2
PHANTOM2
 70
     0
  3
Phantom (.5x) ___ _ _ ___ _ _ ___ _ _ ___ _ _
 72
    65
 73
     6
 40
1.25
 49
0.625
 49
-0.125
 49
0.125
 49
-0.125
 49
0.125
 49
-0.125
  0
LTYPE
  2
BY_STANDARD
 70
     0
  3
By Standard ____________    ____    ____   _
 72
    65
 73
     6
 40
1.2402999999999991
 49
0.6614
 49
-0.0827
 49
0.1654
 49
-0.0827
 49
0.1654
 49
-0.0827
  0
LTYPE
  2
CHAIN
 70
     0
  3
Chain ____ _ ____ _ ____ _ ____ _ ____ _ ____
 72
    65
 73
     4
 40
0.7087
 49
0.4724000000000001
 49
-0.0591
 49
0.1181
 49
-0.0591
  0
LTYPE
  2
DASH_DOT
 70
     0
  3
Dash dot __ . __ . __ . __ . __ . __ . __ . __
 72
    65
 73
     4
 40
0.37
 49
0.24
 49
-0.06
 49
0.01
 49
-0.06
  0
LTYPE
  2
DOUBLE_DASH_DOT
 70
     0
  3
Double-Dash Dot __ __ . __ __ . __ __ . __ _
 72
    65
 73
     6
 40
0.4398
 49
0.24
 49
-0.06
 49
0.0098
 49
-0.06
 49
0.01
 49
-0.06
  0
LTYPE
  2
DASH_TRIPLE_DOT
 70
     0
  3
Dash Triple-Dot _ . . . _ . . . _ . . . _
 72
    65
 73
     8
 40
0.51
 49
0.24
 49
-0.06
 49
0.01
 49
-0.06
 49
0.01
 49
-0.06
 49
0.01
 49
-0.06
  0
LTYPE
  2
DASHED
 70
     0
  3
Dashed __ __ __ __ __ __ __ __ __ __ __ __ __ _
 72
    65
 73
     2
 40
0.2067
 49
0.1654
 49
-0.0413
  0
LTYPE
  2
DASH_DOUBLE_DOT
 70
     0
  3
Dash Double-Dot __ . . __ . . __ . . __ . .
 72
    65
 73
     6
 40
0.4398
 49
0.24
 49
-0.06
 49
0.0098
 49
-0.06
 49
0.01
 49
-0.06
  0
LTYPE
  2
DASHED_SPACE
 70
     0
  3
Dashed Space __ __ __ __ __ __ __ __ __ __ __ _
 72
    65
 73
     2
 40
0.2067
 49
0.1654
 49
-0.0413
  0
LTYPE
  2
DOTTED
 70
     0
  3
Dotted . . . . . . . . . . . . . . . . . . . . 
 72
    65
 73
     2
 40
0.0482
 49
0.0069
 49
-0.0413
  0
LTYPE
  2
DOUBLE_DASH_CHAIN
 70
     0
  3
Double-Dash Chain ______  __  __  ______  __  _
 72
    65
 73
     6
 40
1.2402999999999991
 49
0.6614
 49
-0.0827
 49
0.1654
 49
-0.0827
 49
0.1654
 49
-0.0827
  0
LTYPE
  2
DOUBLE_DASH_DOUBLE_DOT
 70
     0
  3
Double-Dash Double-dot _ _ . . _ _ . . _
 72
    65
 73
     8
 40
0.7400000000000001
 49
0.24
 49
-0.06
 49
0.24
 49
-0.06
 49
0.01
 49
-0.06
 49
0.01
 49
-0.06
  0
LTYPE
  2
DOUBLE_DASH_TRIPLE_DOT
 70
     0
  3
Double Dash Triple Dot __ __ . . . __ __ . .
 72
    65
 73
    10
 40
0.8100000000000001
 49
0.24
 49
-0.06
 49
0.24
 49
-0.06
 49
0.01
 49
-0.06
 49
0.01
 49
-0.06
 49
0.01
 49
-0.06
  0
LTYPE
  2
LONG_DASH_DOTTED
 70
     0
  3
Long Dash Dotted ____ . ____ . ____ . ____ . _
 72
    65
 73
     4
 40
0.3543
 49
0.2362
 49
-0.0295
 49
0.0591
 49
-0.0295
  0
LTYPE
  2
LONG_DASH_DOUBLE_DOT
 70
     0
  3
Long Dash Double Dot ________  .  .  ________  
 72
    65
 73
     6
 40
0.6799999999999999
 49
0.48
 49
-0.06
 49
0.01
 49
-0.06
 49
0.01
 49
-0.06
  0
LTYPE
  2
LONG_DASH_TRIPLE_DOT
 70
     0
  3
Long Dash Triple Dot ____ ... ____ ... ____
 72
    65
 73
     8
 40
0.3689
 49
0.2362
 49
-0.0295
 49
0.0049
 49
-0.0295
 49
0.0049
 49
-0.0295
 49
0.0049
 49
-0.0295
  0
LTYPE
  2
BORDER
 70
     0
  3
Border __ __ . __ __ . __ __ . __ __ . __ __ .
 72
    65
 73
     6
 40
1.75
 49
0.5
 49
-0.25
 49
0.5
 49
-0.25
 49
0.0
 49
-0.25
  0
LTYPE
  2
BORDER2
 70
     0
  3
Border (.5x) __.__.__.__.__.__.__.__.__.__.__.
 72
    65
 73
     6
 40
0.875
 49
0.25
 49
-0.125
 49
0.25
 49
-0.125
 49
0.0
 49
-0.125
  0
LTYPE
  2
BORDERX2
 70
     0
  3
Border (2x) ____  ____  .  ____  ____  .  ___
 72
    65
 73
     6
 40
3.5
 49
1.0
 49
-0.5
 49
1.0
 49
-0.5
 49
0.0
 49
-0.5
  0
LTYPE
  2
CENTER
 70
     0
  3
Center ____ _ ____ _ ____ _ ____ _ ____ _ ____
 72
    65
 73
     4
 40
2.0
 49
1.25
 49
-0.25
 49
0.25
 49
-0.25
  0
LTYPE
  2
CENTER2
 70
     0
  3
Center (.5x) ___ _ ___ _ ___ _ ___ _ ___ _ ___
 72
    65
 73
     4
 40
1.125
 49
0.75
 49
-0.125
 49
0.125
 49
-0.125
  0
LTYPE
  2
CENTERX2
 70
     0
  3
Center (2x) ________  __  ________  __  _____
 72
    65
 73
     4
 40
4.0
 49
2.5
 49
-0.5
 49
0.5
 49
-0.5
  0
LTYPE
  2
DASHDOT2
 70
     0
  3
Dash dot (.5x) _._._._._._._._._._._._._._._.
 72
    65
 73
     4
 40
0.5
 49
0.25
 49
-0.125
 49
0.0
 49
-0.125
  0
LTYPE
  2
DASHDOTX2
 70
     0
  3
Dash dot (2x) ____  .  ____  .  ____  .  ___
 72
    65
 73
     4
 40
2.0
 49
1.0
 49
-0.5
 49
0.0
 49
-0.5
  0
LTYPE
  2
DASHED2
 70
     0
  3
Dashed (.5x) _ _ _ _ _ _ _ _ _ _ _ _ _ _ _ _ _
 72
    65
 73
     2
 40
0.375
 49
0.25
 49
-0.125
  0
LTYPE
  2
DASHEDX2
 70
     0
  3
Dashed (2x) ____  ____  ____  ____  ____  ___
 72
    65
 73
     2
 40
1.5
 49
1.0
 49
-0.5
  0
LTYPE
  2
DIVIDE
 70
     0
  3
Divide ____ . . ____ . . ____ . . ____ . . ____
 72
    65
 73
     6
 40
1.25
 49
0.5
 49
-0.25
 49
0.0
 49
-0.25
 49
0.0
 49
-0.25
  0
LTYPE
  2
DIVIDE2
 70
     0
  3
Divide (.5x) __..__..__..__..__..__..__..__.._
 72
    65
 73
     6
 40
0.625
 49
0.25
 49
-0.125
 49
0.0
 49
-0.125
 49
0.0
 49
-0.125
  0
LTYPE
  2
DIVIDEX2
 70
     0
  3
Divide (2x) ________  .  .  ________  .  .  _
 72
    65
 73
     6
 40
2.5
 49
1.0
 49
-0.5
 49
0.0
 49
-0.5
 49
0.0
 49
-0.5
  0
LTYPE
  2
DOT
 70
     0
  3
Dot . . . . . . . . . . . . . . . . . . . . . .
 72
    65
 73
     2
 40
0.25
 49
0.0
 49
-0.25
  0
LTYPE
  2
DOT2
 70
     0
  3
Dot (.5x) .....................................
 72
    65
 73
     2
 40
0.125
 49
0.0
 49
-0.125
  0
LTYPE
  2
DOTX2
 70
     0
  3
Dot (2x) .  .  .  .  .  .  .  .  .  .  .  .  . 
 72
    65
 73
     2
 40
0.5
 49
0.0
 49
-0.5
  0
LTYPE
  2
HIDDEN
 70
     0
  3
Hidden __ __ __ __ __ __ __ __ __ __ __ __ __ _
 72
    65
 73
     2
 40
0.375
 49
0.25
 49
-0.125
  0
LTYPE
  2
HIDDEN2
 70
     0
  3
Hidden (.5x) _ _ _ _ _ _ _ _ _ _ _ _ _ _ _ _ _
 72
    65
 73
     2
 40
0.1875
 49
0.125
 49
-0.0625
  0
LTYPE
  2
HIDDENX2
 70
     0
  3
Hidden (2x) ____ ____ ____ ____ ____ ____ ____
 72
    65
 73
     2
 40
0.75
 49
0.5
 49
-0.25
  0
LTYPE
  2
PHANTOM
 70
     0
  3
Phantom ______  __  __  ______  __  __  ______
 72
    65
 73
     6
 40
2.5
 49
1.25
 49
-0.25
 49
0.25
 49
-0.25
 49
0.25
 49
-0.25
  0
LTYPE
  2
PHANTOMX2
 70
     0
  3
Phantom (2x) ____________    ____    ____   _
 72
    65
 73
     6
 40
5.0
 49
2.5
 49
-0.5
 49
0.5
 49
-0.5
 49
0.5
 49
-0.5
  0
LTYPE
  2
ACAD_ISO02W100
 70
     0
  3
ISO dash __ __ __ __ __ __ __ __ __ __ __ __ __
 72
    65
 73
     2
 40
0.59
 49
0.47
 49
-0.12
  0
LTYPE
  2
ACAD_ISO03W100
 70
     0
  3
ISO dash space __    __    __    __    __    __
 72
    65
 73
     2
 40
1.179999999999999
 49
0.47
 49
-0.71
  0
LTYPE
  2
ACAD_ISO04W100
 70
     0
  3
ISO long-dash dot ____ . ____ . ____ . ____ . _
 72
    65
 73
     4
 40
1.179999999999999
 49
0.9399999999999998
 49
-0.12
 49
0.0
 49
-0.12
  0
LTYPE
  2
ACAD_ISO05W100
 70
     0
  3
ISO long-dash double-dot ____ .. ____ .. ____ .
 72
    65
 73
     6
 40
1.2999999999999989
 49
0.9399999999999998
 49
-0.12
 49
0.0
 49
-0.12
 49
0.0
 49
-0.12
  0
LTYPE
  2
ACAD_ISO06W100
 70
     0
  3
ISO long-dash triple-dot ____ ... ____ ... ____
 72
    65
 73
     8
 40
1.419999999999999
 49
0.9399999999999998
 49
-0.12
 49
0.0
 49
-0.12
 49
0.0
 49
-0.12
 49
0.0
 49
-0.12
  0
LTYPE
  2
ACAD_ISO07W100
 70
     0
  3
ISO dot . . . . . . . . . . . . . . . . . . . .
 72
    65
 73
     2
 40
0.12
 49
0.0
 49
-0.12
  0
LTYPE
  2
ACAD_ISO08W100
 70
     0
  3
ISO long-dash short-dash ____ __ ____ __ ____ _
 72
    65
 73
     4
 40
0.95
 49
0.47
 49
-0.12
 49
0.24
 49
-0.12
  0
LTYPE
  2
ACAD_ISO09W100
 70
     0
  3
ISO long-dash double-short-dash ____ __ __ ____
 72
    65
 73
     6
 40
1.3100000000000001
 49
0.47
 49
-0.12
 49
0.24
 49
-0.12
 49
0.24
 49
-0.12
  0
LTYPE
  2
ACAD_ISO10W100
 70
     0
  3
ISO dash dot __ . __ . __ . __ . __ . __ . __ .
 72
    65
 73
     4
 40
0.71
 49
0.47
 49
-0.12
 49
0.0
 49
-0.12
  0
LTYPE
  2
ACAD_ISO11W100
 70
     0
  3
ISO double-dash dot __ __ . __ __ . __ __ . __ 
 72
    65
 73
     6
 40
1.2999999999999989
 49
0.47
 49
-0.12
 49
0.47
 49
-0.12
 49
0.0
 49
-0.12
  0
LTYPE
  2
ACAD_ISO12W100
 70
     0
  3
ISO dash double-dot __ . . __ . . __ . . __ . .
 72
    65
 73
     6
 40
0.8299999999999999
 49
0.47
 49
-0.12
 49
0.0
 49
-0.12
 49
0.0
 49
-0.12
  0
LTYPE
  2
ACAD_ISO13W100
 70
     0
  3
ISO double-dash double-dot __ __ . . __ __ . . 
 72
    65
 73
     8
 40
1.419999999999999
 49
0.47
 49
-0.12
 49
0.47
 49
-0.12
 49
0.0
 49
-0.12
 49
0.0
 49
-0.12
  0
LTYPE
  2
ACAD_ISO14W100
 70
     0
  3
ISO dash triple-dot __ . . . __ . . . __ . . . 
 72
    65
 73
     8
 40
0.95
 49
0.47
 49
-0.12
 49
0.0
 49
-0.12
 49
0.0
 49
-0.12
 49
0.0
 49
-0.12
  0
LTYPE
  2
ACAD_ISO15W100
 70
     0
  3
ISO double-dash triple-dot __ __ . . . __ __ . 
 72
    65
 73
    10
 40
1.5399999999999989
 49
0.47
 49
-0.12
 49
0.47
 49
-0.12
 49
0.0
 49
-0.12
 49
0.0
 49
-0.12
 49
0.0
 49
-0.12
  0
LTYPE
  2
FENCELINE1
 70
     0
  3
Fenceline circle ----0-----0----0-----0----0---
 72
    65
 73
     4
 40
1.45
 49
0.25
 49
-0.1
 49
-0.1
 49
1.0
  0
LTYPE
  2
FENCELINE2
 70
     0
  3
Fenceline square ----[]-----[]----[]-----[]----
 72
    65
 73
     4
 40
1.45
 49
0.25
 49
-0.1
 49
-0.1
 49
1.0
  0
LTYPE
  2
TRACKS
 70
     0
  3
Tracks -|-|-|-|-|-|-|-|-|-|-|-|-|-|-|-|-|-|-|-|
 72
    65
 73
     2
 40
0.3
 49
0.15
 49
0.15
  0
LTYPE
  2
BATTING
 70
     0
  3
Batting SSSSSSSSSSSSSSSSSSSSSSSSSSSSSSSSSSSSSSS
 72
    65
 73
     4
 40
0.4001000000000001
 49
0.0001
 49
-0.1
 49
-0.2
 49
-0.1
  0
LTYPE
  2
HOT_WATER_SUPPLY
 70
     0
  3
Hot water supply ---- HW ---- HW ---- HW ----
 72
    65
 73
     3
 40
0.9
 49
0.5
 49
-0.2
 49
-0.2
  0
LTYPE
  2
GAS_LINE
 70
     0
  3
Gas line ----GAS----GAS----GAS----GAS----GAS---
 72
    65
 73
     3
 40
0.95
 49
0.5
 49
-0.2
 49
-0.25
  0
LTYPE
  2
ZIGZAG
 70
     0
  3
Zig zag /\/\/\/\/\/\/\/\/\/\/\/\/\/\/\/\/\/\/\/
 72
    65
 73
     4
 40
0.8001000000000001
 49
0.0001
 49
-0.2
 49
-0.4
 49
-0.2
  0
ENDTAB
  0
TABLE
  2
LAYER
 70
     1
  0
LAYER
  2
0
 70
     0
 62
     7
  6
CONTINUOUS
  0
ENDTAB
  0
TABLE
  2
STYLE
 70
     3
  0
STYLE
  2
STANDARD
 70
     0
 40
0.0
 41
1.0
 50
0.0
 71
     0
 42
0.2
  3
txt
  4

  0
STYLE
  2
ANNOTATIVE
 70
     0
 40
0.0
 41
1.0
 50
0.0
 71
     0
 42
0.2
  3
txt
  4

  0
STYLE
  2

 70
     1
 40
0.0
 41
1.0
 50
0.0
 71
     0
 42
0.2
  3
ltypeshp.shx
  4

  0
ENDTAB
  0
TABLE
  2
VIEW
 70
     0
  0
ENDTAB
  0
TABLE
  2
UCS
 70
     0
  0
ENDTAB
  0
TABLE
  2
APPID
 70
     3
  0
APPID
  2
ACAD
 70
     0
  0
APPID
  2
ACADANNOTATIVE
 70
     0
  0
APPID
  2
ACAD_MLEADERVER
 70
     0
  0
ENDTAB
  0
TABLE
  2
DIMSTYLE
 70
     2
  0
DIMSTYLE
  2
STANDARD
 70
     0
  3

  4

  5

  6

  7

 40
1.0
 41
0.18
 42
0.0625
 43
0.38
 44
0.18
 45
0.0
 46
0.0
 47
0.0
 48
0.0
140
0.18
141
0.09
142
0.0
143
25.399999999999999
144
1.0
145
0.0
146
1.0
147
0.09
 71
     0
 72
     0
 73
     1
 74
     1
 75
     0
 76
     0
 77
     0
 78
     0
170
     0
171
     2
172
     0
173
     0
174
     0
175
     0
176
     0
177
     0
178
     0
  0
DIMSTYLE
  2
ANNOTATIVE
 70
     0
  3

  4

  5

  6

  7

 40
1.0
 41
0.18
 42
0.0625
 43
0.38
 44
0.18
 45
0.0
 46
0.0
 47
0.0
 48
0.0
140
0.18
141
0.09
142
0.0
143
25.399999999999999
144
1.0
145
0.0
146
1.0
147
0.09
 71
     0
 72
     0
 73
     1
 74
     1
 75
     0
 76
     0
 77
     0
 78
     0
170
     0
171
     2
172
     0
173
     0
174
     0
175
     0
176
     0
177
     0
178
     0
  0
ENDTAB
  0
ENDSEC
  0
SECTION
  2
BLOCKS
  0
BLOCK
  8
0
  2
$MODEL_SPACE
 70
     0
 10
0.0
 20
0.0
 30
0.0
  3
$MODEL_SPACE
  1

  0
ENDBLK
  5
73
  8
0
  0
BLOCK
 67
     1
  8
0
  2
$PAPER_SPACE
 70
     0
 10
0.0
 20
0.0
 30
0.0
  3
$PAPER_SPACE
  1

  0
ENDBLK
  5
6F
 67
     1
  8
0
  0
ENDSEC
  0
SECTION
  2
ENTITIES
  0
POLYLINE
  5
B7
  8
0
 66
     1
 10
0.0
 20
0.0
 30
0.0
 70
     1
  0
VERTEX
  5
B8
  8
0
 10
0.7687689889810869
 20
23.5
 30
0.0
 42
0.1011850388332634
  0
VERTEX
  5
B9
  8
0
 10
1.642187500000009
 20
0.5067037537146025
 30
0.0
  0
VERTEX
  5
BB
  8
0
 10
1.892187500000005
 20
0.5067037537145996
 30
0.0
 42
0.1011850388332634
  0
VERTEX
  5
BC
  8
0
 10
2.7656060110189609
 20
23.499999999999989
 30
0.0
  0
SEQEND
  5
BA
  8
0
  0
POLYLINE
  5
BE
  8
0
 66
     1
 10
0.0
 20
0.0
 30
0.0
 70
     1
  0
VERTEX
  5
BF
  8
0
 10
1.767187500000053
 20
0.7333444530738652
 30
0.0
 42
2.7958513001476151
  0
VERTEX
  5
C0
  8
0
 10
1.767187500000055
 20
0.7729826468863904
 30
0.0
 42
2.7958513001476639
  0
SEQEND
  5
C1
  8
0
  0
POLYLINE
  5
C2
  8
0
 66
     1
 10
0.0
 20
0.0
 30
0.0
 70
     1
  0
VERTEX
  5
C3
  8
0
 10
1.767187500000057
 20
0.6624876733631352
 30
0.0
 42
1.1898114984403361
  0
VERTEX
  5
C4
  8
0
 10
1.7671875000000501
 20
0.6009198340660672
 30
0.0
 42
1.1898114984403501
  0
SEQEND
  5
C5
  8
0
  0
CIRCLE
  5
C6
  8
0
 10
0.8523475656038826
 20
23.337164697856391
 30
0.0
 40
0.0312500000000001
  0
CIRCLE
  5
C7
  8
0
 10
0.8327351419897224
 20
23.213712898873499
 30
0.0
 40
0.0312500000000001
  0
CIRCLE
  5
C8
  8
0
 10
0.8133914509112861
 20
23.090218706914541
 30
0.0
 40
0.0312500000000001
  0
CIRCLE
  5
C9
  8
0
 10
0.7943165839980735
 20
22.966682706961581
 30
0.0
 40
0.0312500000000001
  0
CIRCLE
  5
CA
  8
0
 10
0.7755106316061906
 20
22.84310548419473
 30
0.0
 40
0.0312500000000001
  0
CIRCLE
  5
CB
  8
0
 10
0.7569736828179366
 20
22.719487623989352
 30
0.0
 40
0.0312500000000001
  0
CIRCLE
  5
CC
  8
0
 10
0.7387058254413381
 20
22.595829711913321
 30
0.0
 40
0.0312500000000001
  0
CIRCLE
  5
CD
  8
0
 10
0.7207071460097686
 20
22.472132333724229
 30
0.0
 40
0.0312500000000001
  0
CIRCLE
  5
CE
  8
0
 10
0.7029777297815238
 20
22.348396075366619
 30
0.0
 40
0.0312500000000001
  0
CIRCLE
  5
CF
  8
0
 10
0.6855176607394232
 20
22.224621522969208
 30
0.0
 40
0.0312500000000001
  0
CIRCLE
  5
D0
  8
0
 10
0.6683270215904306
 20
22.100809262842098
 30
0.0
 40
0.0312500000000001
  0
CIRCLE
  5
D1
  8
0
 10
0.6514058937652058
 20
21.97695988147402
 30
0.0
 40
0.0312500000000001
  0
CIRCLE
  5
D2
  8
0
 10
0.6347543574177637
 20
21.853073965529539
 30
0.0
 40
0.0312500000000001
  0
CIRCLE
  5
D3
  8
0
 10
0.6183724914251028
 20
21.729152101846271
 30
0.0
 40
0.0312500000000001
  0
CIRCLE
  5
D4
  8
0
 10
0.6022603733868294
 20
21.60519487743214
 30
0.0
 40
0.0312500000000001
  0
CIRCLE
  5
D5
  8
0
 10
0.5864180796247001
 20
21.481202879462561
 30
0.0
 40
0.0312500000000001
  0
CIRCLE
  5
D6
  8
0
 10
0.5708456851824205
 20
21.357176695277658
 30
0.0
 40
0.0312500000000001
  0
CIRCLE
  5
D7
  8
0
 10
0.5555432638251686
 20
21.23311691237949
 30
0.0
 40
0.0312500000000001
  0
CIRCLE
  5
D8
  8
0
 10
0.5405108880392939
 20
21.109024118429289
 30
0.0
 40
0.0312500000000001
  0
CIRCLE
  5
D9
  8
0
 10
0.525748629031936
 20
20.984898901244652
 30
0.0
 40
0.0312500000000001
  0
CIRCLE
  5
DA
  8
0
 10
0.5112565567307302
 20
20.860741848796749
 30
0.0
 40
0.0312500000000001
  0
CIRCLE
  5
DB
  8
0
 10
0.4970347397834693
 20
20.73655354920756
 30
0.0
 40
0.0312500000000001
  0
CIRCLE
  5
DC
  8
0
 10
0.4830832455577371
 20
20.6123345907471
 30
0.0
 40
0.0312500000000001
  0
CIRCLE
  5
DD
  8
0
 10
0.4694021401406665
 20
20.488085561830559
 30
0.0
 40
0.0312500000000001
  0
CIRCLE
  5
DE
  8
0
 10
0.4559914883385384
 20
20.36380705101563
 30
0.0
 40
0.0312500000000001
  0
CIRCLE
  5
DF
  8
0
 10
0.4428513536765459
 20
20.239499646999619
 30
0.0
 40
0.0312500000000001
  0
CIRCLE
  5
E0
  8
0
 10
0.4299817983984435
 20
20.115163938616721
 30
0.0
 40
0.0312500000000001
  0
CIRCLE
  5
E1
  8
0
 10
0.4173828834662658
 20
19.990800514835179
 30
0.0
 40
0.0312500000000001
  0
CIRCLE
  5
E2
  8
0
 10
0.4050546685600745
 20
19.866409964754549
 30
0.0
 40
0.0312500000000001
  0
CIRCLE
  5
E3
  8
0
 10
0.392997212077648
 20
19.741992877602868
 30
0.0
 40
0.0312500000000001
  0
CIRCLE
  5
E4
  8
0
 10
0.3812105711341569
 20
19.61754984273389
 30
0.0
 40
0.0312500000000001
  0
CIRCLE
  5
E5
  8
0
 10
0.369694801561991
 20
19.493081449624249
 30
0.0
 40
0.0312500000000001
  0
CIRCLE
  5
E6
  8
0
 10
0.3584499579104251
 20
19.36858828787074
 30
0.0
 40
0.0312500000000001
  0
CIRCLE
  5
E7
  8
0
 10
0.347476093445384
 20
19.244070947187449
 30
0.0
 40
0.0312500000000001
  0
CIRCLE
  5
E8
  8
0
 10
0.3367732601491599
 20
19.119530017403029
 30
0.0
 40
0.0312500000000001
  0
CIRCLE
  5
E9
  8
0
 10
0.3263415087202547
 20
18.994966088457851
 30
0.0
 40
0.0312500000000001
  0
CIRCLE
  5
EA
  8
0
 10
0.3161808885729913
 20
18.870379750401231
 30
0.0
 40
0.0312500000000001
  0
CIRCLE
  5
EB
  8
0
 10
0.30629144783743
 20
18.74577159338866
 30
0.0
 40
0.0312500000000001
  0
CIRCLE
  5
EC
  8
0
 10
0.2966732333590665
 20
18.621142207678929
 30
0.0
 40
0.0312500000000001
  0
CIRCLE
  5
ED
  8
0
 10
0.2873262906986022
 20
18.49649218363145
 30
0.0
 40
0.0312500000000001
  0
CIRCLE
  5
EE
  8
0
 10
0.2782506641317344
 20
18.37182211170337
 30
0.0
 40
0.0312500000000001
  0
CIRCLE
  5
EF
  8
0
 10
0.2694463966490029
 20
18.247132582446799
 30
0.0
 40
0.0312500000000001
  0
CIRCLE
  5
F0
  8
0
 10
0.260913529955513
 20
18.122424186505999
 30
0.0
 40
0.0312500000000001
  0
CIRCLE
  5
F1
  8
0
 10
0.2526521044707634
 20
17.99769751461465
 30
0.0
 40
0.0312500000000001
  0
CIRCLE
  5
F2
  8
0
 10
0.2446621593284533
 20
17.872953157592939
 30
0.0
 40
0.0312500000000001
  0
CIRCLE
  5
F3
  8
0
 10
0.2369437323763373
 20
17.748191706344901
 30
0.0
 40
0.0312500000000001
  0
CIRCLE
  5
F4
  8
0
 10
0.2294968601759552
 20
17.62341375185547
 30
0.0
 40
0.0312500000000001
  0
CIRCLE
  5
F5
  8
0
 10
0.2223215780025361
 20
17.4986198851878
 30
0.0
 40
0.0312500000000001
  0
CIRCLE
  5
F6
  8
0
 10
0.2154179198448603
 20
17.373810697480419
 30
0.0
 40
0.0312500000000001
  0
CIRCLE
  5
F7
  8
0
 10
0.2087859184049464
 20
17.248986779944421
 30
0.0
 40
0.0312500000000001
  0
CIRCLE
  5
F8
  8
0
 10
0.2024256050981014
 20
17.12414872386066
 30
0.0
 40
0.0312500000000001
  0
CIRCLE
  5
F9
  8
0
 10
0.1963370100525806
 20
16.999297120576969
 30
0.0
 40
0.0312500000000001
  0
CIRCLE
  5
FA
  8
0
 10
0.1905201621095992
 20
16.87443256150538
 30
0.0
 40
0.0312500000000001
  0
CIRCLE
  5
FB
  8
0
 10
0.1849750888230603
 20
16.749555638119269
 30
0.0
 40
0.0312500000000001
  0
CIRCLE
  5
FC
  8
0
 10
0.1797018164595827
 20
16.624666941950579
 30
0.0
 40
0.0312500000000001
  0
CIRCLE
  5
FD
  8
0
 10
0.1747003699981891
 20
16.49976706458704
 30
0.0
 40
0.0312500000000001
  0
CIRCLE
  5
FE
  8
0
 10
0.1699707731303466
 20
16.374856597669321
 30
0.0
 40
0.0312500000000001
  0
CIRCLE
  5
FF
  8
0
 10
0.1655130482597717
 20
16.249936132888269
 30
0.0
 40
0.0312500000000001
  0
CIRCLE
  5
100
  8
0
 10
0.1613272165023541
 20
16.125006261982101
 30
0.0
 40
0.0312500000000001
  0
CIRCLE
  5
101
  8
0
 10
0.1574132976860418
 20
16.000067576733549
 30
0.0
 40
0.0312500000000001
  0
CIRCLE
  5
102
  8
0
 10
0.1537713103507468
 20
15.87512066896717
 30
0.0
 40
0.0312500000000001
  0
CIRCLE
  5
103
  8
0
 10
0.1504012717482878
 20
15.750166130546379
 30
0.0
 40
0.0312500000000001
  0
CIRCLE
  5
104
  8
0
 10
0.1473031978422496
 20
15.6252045533708
 30
0.0
 40
0.0312500000000001
  0
CIRCLE
  5
105
  8
0
 10
0.1444771033079586
 20
15.500236529373391
 30
0.0
 40
0.0312500000000001
  0
CIRCLE
  5
106
  8
0
 10
0.141923001532402
 20
15.37526265051762
 30
0.0
 40
0.0312500000000001
  0
CIRCLE
  5
107
  8
0
 10
0.139640904614169
 20
15.250283508794739
 30
0.0
 40
0.0312500000000001
  0
CIRCLE
  5
108
  8
0
 10
0.1376308233633513
 20
15.125299696220869
 30
0.0
 40
0.0312500000000001
  0
CIRCLE
  5
109
  8
0
 10
0.1358927673015329
 20
15.0003118048343
 30
0.0
 40
0.0312500000000001
  0
CIRCLE
  5
10A
  8
0
 10
0.1344267446617823
 20
14.87532042669263
 30
0.0
 40
0.0312500000000001
  0
CIRCLE
  5
10B
  8
0
 10
0.1332327623885014
 20
14.75032615386997
 30
0.0
 40
0.0312500000000001
  0
CIRCLE
  5
10C
  8
0
 10
0.1323108261374815
 20
14.625329578454149
 30
0.0
 40
0.0312500000000001
  0
CIRCLE
  5
10D
  8
0
 10
0.1316609402758838
 20
14.500331292543899
 30
0.0
 40
0.0312500000000001
  0
CIRCLE
  5
10E
  8
0
 10
0.1312831078821696
 20
14.37533188824605
 30
0.0
 40
0.0312500000000001
  0
CIRCLE
  5
10F
  8
0
 10
0.1311773307460639
 20
14.25033195767274
 30
0.0
 40
0.0312500000000001
  0
CIRCLE
  5
110
  8
0
 10
0.131343609368664
 20
14.125332092938599
 30
0.0
 40
0.0312500000000001
  0
CIRCLE
  5
111
  8
0
 10
0.1317819429622973
 20
14.00033288615794
 30
0.0
 40
0.0312500000000001
  0
CIRCLE
  5
112
  8
0
 10
0.132492329450626
 20
13.87533492944195
 30
0.0
 40
0.0312500000000001
  0
CIRCLE
  5
113
  8
0
 10
0.1334747654686028
 20
13.75033881489591
 30
0.0
 40
0.0312500000000001
  0
CIRCLE
  5
114
  8
0
 10
0.1347292463624969
 20
13.62534513461638
 30
0.0
 40
0.0312500000000001
  0
CIRCLE
  5
115
  8
0
 10
0.1362557661899419
 20
13.50035448068838
 30
0.0
 40
0.0312500000000001
  0
CIRCLE
  5
116
  8
0
 10
0.1380543177199462
 20
13.375367445182579
 30
0.0
 40
0.0312500000000001
  0
CIRCLE
  5
117
  8
0
 10
0.1401248924328925
 20
13.25038462015252
 30
0.0
 40
0.0312500000000001
  0
CIRCLE
  5
118
  8
0
 10
0.1424674805206559
 20
13.125406597631819
 30
0.0
 40
0.0312500000000001
  0
CIRCLE
  5
119
  8
0
 10
0.1450820708865685
 20
13.00043396963132
 30
0.0
 40
0.0312500000000001
  0
CIRCLE
  5
11A
  8
0
 10
0.1479686511455417
 20
12.875467328136301
 30
0.0
 40
0.0312500000000001
  0
CIRCLE
  5
11B
  8
0
 10
0.1511272076240756
 20
12.750507265103719
 30
0.0
 40
0.0312500000000001
  0
CIRCLE
  5
11C
  8
0
 10
0.1545577253603217
 20
12.62555437245935
 30
0.0
 40
0.0312500000000001
  0
CIRCLE
  5
11D
  8
0
 10
0.158260188104221
 20
12.500609242095001
 30
0.0
 40
0.0312500000000001
  0
CIRCLE
  5
11E
  8
0
 10
0.1622345783174859
 20
12.37567246586571
 30
0.0
 40
0.0312500000000001
  0
CIRCLE
  5
11F
  8
0
 10
0.1664808771737494
 20
12.25074463558696
 30
0.0
 40
0.0312500000000001
  0
CIRCLE
  5
120
  8
0
 10
0.1709990645586499
 20
12.12582634303183
 30
0.0
 40
0.0312500000000001
  0
CIRCLE
  5
121
  8
0
 10
0.1757891190698782
 20
12.000918179928229
 30
0.0
 40
0.0312500000000001
  0
CIRCLE
  5
122
  8
0
 10
0.180851018017332
 20
11.876020737956109
 30
0.0
 40
0.0312500000000001
  0
CIRCLE
  5
123
  8
0
 10
0.1861847374232171
 20
11.7511346087446
 30
0.0
 40
0.0312500000000001
  0
CIRCLE
  5
124
  8
0
 10
0.1917902520221375
 20
11.62626038386926
 30
0.0
 40
0.0312500000000001
  0
CIRCLE
  5
125
  8
0
 10
0.1976675352612044
 20
11.50139865484927
 30
0.0
 40
0.0312500000000001
  0
CIRCLE
  5
126
  8
0
 10
0.2038165593001984
 20
11.3765500131446
 30
0.0
 40
0.0312500000000001
  0
CIRCLE
  5
127
  8
0
 10
0.2102372950116984
 20
11.251715050153219
 30
0.0
 40
0.0312500000000001
  0
CIRCLE
  5
128
  8
0
 10
0.2169297119811888
 20
11.126894357208339
 30
0.0
 40
0.0312500000000001
  0
CIRCLE
  5
129
  8
0
 10
0.2238937785072339
 20
11.002088525575539
 30
0.0
 40
0.0312500000000001
  0
CIRCLE
  5
12A
  8
0
 10
0.231129461601596
 20
10.877298146450009
 30
0.0
 40
0.0312500000000001
  0
CIRCLE
  5
12B
  8
0
 10
0.2386367269894363
 20
10.752523810953759
 30
0.0
 40
0.0312500000000001
  0
CIRCLE
  5
12C
  8
0
 10
0.2464155391094591
 20
10.627766110132789
 30
0.0
 40
0.0312500000000001
  0
CIRCLE
  5
12D
  8
0
 10
0.2544658611140307
 20
10.503025634954289
 30
0.0
 40
0.0312500000000001
  0
CIRCLE
  5
12E
  8
0
 10
0.2627876548694246
 20
10.37830297630388
 30
0.0
 40
0.0312500000000001
  0
CIRCLE
  5
12F
  8
0
 10
0.2713808809559803
 20
10.253598724982769
 30
0.0
 40
0.0312500000000001
  0
CIRCLE
  5
130
  8
0
 10
0.2802454986682747
 20
10.128913471704969
 30
0.0
 40
0.0312500000000001
  0
CIRCLE
  5
131
  8
0
 10
0.2893814660153378
 20
10.004247807094499
 30
0.0
 40
0.0312500000000001
  0
CIRCLE
  5
132
  8
0
 10
0.2987887397207984
 20
9.8796023216826221
 30
0.0
 40
0.0312500000000001
  0
CIRCLE
  5
133
  8
0
 10
0.3084672752231824
 20
9.7549776059049531
 30
0.0
 40
0.0312500000000001
  0
CIRCLE
  5
134
  8
0
 10
0.3184170266760259
 20
9.6303742500987806
 30
0.0
 40
0.0312500000000001
  0
CIRCLE
  5
135
  8
0
 10
0.3286379469481905
 20
9.5057928445001707
 30
0.0
 40
0.0312500000000001
  0
CIRCLE
  5
136
  8
0
 10
0.3391299876239375
 20
9.3812339792412391
 30
0.0
 40
0.0312500000000001
  0
CIRCLE
  5
137
  8
0
 10
0.3498930990033787
 20
9.2566982443473247
 30
0.0
 40
0.0312500000000001
  0
CIRCLE
  5
138
  8
0
 10
0.3609272301024781
 20
9.1321862297341845
 30
0.0
 40
0.0312500000000001
  0
CIRCLE
  5
139
  8
0
 10
0.3722323286534765
 20
9.0076985252052353
 30
0.0
 40
0.0312500000000001
  0
CIRCLE
  5
13A
  8
0
 10
0.3838083411049795
 20
8.8832357204487273
 30
0.0
 40
0.0312500000000001
  0
CIRCLE
  5
13B
  8
0
 10
0.395655212622402
 20
8.7587984050349625
 30
0.0
 40
0.0312500000000001
  0
CIRCLE
  5
13C
  8
0
 10
0.407772887088019
 20
8.6343871684135092
 30
0.0
 40
0.0312500000000001
  0
CIRCLE
  5
13D
  8
0
 10
0.4201613071014182
 20
8.5100025999103988
 30
0.0
 40
0.0312500000000001
  0
CIRCLE
  5
13E
  8
0
 10
0.4328204139796274
 20
8.3856452887253212
 30
0.0
 40
0.0312500000000001
  0
CIRCLE
  5
13F
  8
0
 10
0.4457501477574814
 20
8.2613158239288822
 30
0.0
 40
0.0312500000000001
  0
CIRCLE
  5
140
  8
0
 10
0.4589504471878739
 20
8.1370147944597715
 30
0.0
 40
0.0312500000000001
  0
CIRCLE
  5
141
  8
0
 10
0.4724212497420303
 20
8.0127427891219618
 30
0.0
 40
0.0312500000000001
  0
CIRCLE
  5
142
  8
0
 10
0.486162491609853
 20
7.8885003965819571
 30
0.0
 40
0.0312500000000001
  0
CIRCLE
  5
143
  8
0
 10
0.5001741077002069
 20
7.764288205365987
 30
0.0
 40
0.0312500000000001
  0
CIRCLE
  5
144
  8
0
 10
0.5144560316411654
 20
7.64010680385723
 30
0.0
 40
0.0312500000000001
  0
CIRCLE
  5
145
  8
0
 10
0.5290081957803916
 20
7.5159567802930081
 30
0.0
 40
0.0312500000000001
  0
CIRCLE
  5
146
  8
0
 10
0.5438305311854769
 20
7.3918387227619791
 30
0.0
 40
0.0312500000000001
  0
CIRCLE
  5
147
  8
0
 10
0.5589229676441943
 20
7.2677532192014409
 30
0.0
 40
0.0312500000000001
  0
CIRCLE
  5
148
  8
0
 10
0.5742854336649068
 20
7.1437008573944256
 30
0.0
 40
0.0312500000000001
  0
CIRCLE
  5
149
  8
0
 10
0.5899178564768272
 20
7.0196822249670241
 30
0.0
 40
0.0312500000000001
  0
CIRCLE
  5
14A
  8
0
 10
0.6058201620304261
 20
6.8956979093855217
 30
0.0
 40
0.0312500000000001
  0
CIRCLE
  5
14B
  8
0
 10
0.6219922749977654
 20
6.7717484979536531
 30
0.0
 40
0.0312500000000001
  0
CIRCLE
  5
14C
  8
0
 10
0.6384341187728595
 20
6.6478345778098236
 30
0.0
 40
0.0312500000000001
  0
CIRCLE
  5
14D
  8
0
 10
0.6551456154719854
 20
6.5239567359243269
 30
0.0
 40
0.0312500000000001
  0
CIRCLE
  5
14E
  8
0
 10
0.6721266859341462
 20
6.4001155590965269
 30
0.0
 40
0.0312500000000001
  0
CIRCLE
  5
14F
  8
0
 10
0.6893772497213704
 20
6.276311633952135
 30
0.0
 40
0.0312500000000001
  0
CIRCLE
  5
150
  8
0
 10
0.7068972251191324
 20
6.1525455469404067
 30
0.0
 40
0.0312500000000001
  0
CIRCLE
  5
151
  8
0
 10
0.724686529136706
 20
6.0288178843313283
 30
0.0
 40
0.0312500000000001
  0
CIRCLE
  5
152
  8
0
 10
0.7427450775075787
 20
5.9051292322129108
 30
0.0
 40
0.0312500000000001
  0
CIRCLE
  5
153
  8
0
 10
0.7610727846898781
 20
5.7814801764883592
 30
0.0
 40
0.0312500000000001
  0
CIRCLE
  5
154
  8
0
 10
0.7796695638667224
 20
5.6578713028733016
 30
0.0
 40
0.0312500000000001
  0
CIRCLE
  5
155
  8
0
 10
0.7985353269466524
 20
5.5343031968930516
 30
0.0
 40
0.0312500000000001
  0
CIRCLE
  5
156
  8
0
 10
0.8176699845640731
 20
5.4107764438797981
 30
0.0
 40
0.0312500000000001
  0
CIRCLE
  5
157
  8
0
 10
0.8370734460796505
 20
5.2872916289698342
 30
0.0
 40
0.0312500000000001
  0
CIRCLE
  5
158
  8
0
 10
0.8567456195807389
 20
5.1638493371008112
 30
0.0
 40
0.0312500000000001
  0
CIRCLE
  5
159
  8
0
 10
0.876686411881864
 20
5.040450153008937
 30
0.0
 40
0.0312500000000001
  0
CIRCLE
  5
15A
  8
0
 10
0.8968957285250402
 20
4.9170946612262538
 30
0.0
 40
0.0312500000000001
  0
CIRCLE
  5
15B
  8
0
 10
0.9173734737803965
 20
4.7937834460777893
 30
0.0
 40
0.0312500000000001
  0
CIRCLE
  5
15C
  8
0
 10
0.9381195506464974
 20
4.6705170916788612
 30
0.0
 40
0.0312500000000001
  0
CIRCLE
  5
15D
  8
0
 10
0.9591338608508275
 20
4.5472961819323041
 30
0.0
 40
0.0312500000000001
  0
CIRCLE
  5
15E
  8
0
 10
0.9804163048503063
 20
4.4241213005256483
 30
0.0
 40
0.0312500000000001
  0
CIRCLE
  5
15F
  8
0
 10
1.0019667818316971
 20
4.300993030928411
 30
0.0
 40
0.0312500000000001
  0
CIRCLE
  5
160
  8
0
 10
1.0237851897121331
 20
4.1779119563893223
 30
0.0
 40
0.0312500000000001
  0
CIRCLE
  5
161
  8
0
 10
1.045871425139544
 20
4.0548786599335314
 30
0.0
 40
0.0312500000000001
  0
CIRCLE
  5
162
  8
0
 10
1.0682253834932349
 20
3.9318937243598682
 30
0.0
 40
0.0312500000000001
  0
CIRCLE
  5
163
  8
0
 10
1.09084695888428
 20
3.8089577322381092
 30
0.0
 40
0.0312500000000001
  0
CIRCLE
  5
164
  8
0
 10
1.1137360441561019
 20
3.6860712659061612
 30
0.0
 40
0.0312500000000001
  0
CIRCLE
  5
165
  8
0
 10
1.136892530884962
 20
3.5632349074673368
 30
0.0
 40
0.0312500000000001
  0
CIRCLE
  5
166
  8
0
 10
1.1603163093804121
 20
3.4404492387876018
 30
0.0
 40
0.0312500000000001
  0
CIRCLE
  5
167
  8
0
 10
1.184007268685928
 20
3.3177148414927902
 30
0.0
 40
0.0312500000000001
  0
CIRCLE
  5
168
  8
0
 10
1.2079652965792991
 20
3.1950322969658949
 30
0.0
 40
0.0312500000000001
  0
CIRCLE
  5
169
  8
0
 10
1.232190279573308
 20
3.0724021863442612
 30
0.0
 40
0.0312500000000001
  0
CIRCLE
  5
16A
  8
0
 10
1.2566821029161359
 20
2.9498250905168701
 30
0.0
 40
0.0312500000000001
  0
CIRCLE
  5
16B
  8
0
 10
1.2814406505920031
 20
2.827301590121571
 30
0.0
 40
0.0312500000000001
  0
CIRCLE
  5
16C
  8
0
 10
1.30646580532165
 20
2.7048322655423491
 30
0.0
 40
0.0312500000000001
  0
CIRCLE
  5
16D
  8
0
 10
1.331757448562926
 20
2.5824176969065369
 30
0.0
 40
0.0312500000000001
  0
CIRCLE
  5
16E
  8
0
 10
1.357315460511344
 20
2.4600584640821248
 30
0.0
 40
0.0312500000000001
  0
CIRCLE
  5
16F
  8
0
 10
1.3831397201006661
 20
2.3377551466749562
 30
0.0
 40
0.0312500000000001
  0
CIRCLE
  5
170
  8
0
 10
1.409230105003429
 20
2.2155083240260272
 30
0.0
 40
0.0312500000000001
  0
CIRCLE
  5
171
  8
0
 10
1.4355864916316179
 20
2.0933185752087091
 30
0.0
 40
0.0312500000000001
  0
CIRCLE
  5
172
  8
0
 10
1.462208755137121
 20
1.971186479026013
 30
0.0
 40
0.0312500000000001
  0
CIRCLE
  5
173
  8
0
 10
1.4890967694124011
 20
1.849112614007876
 30
0.0
 40
0.0312500000000001
  0
CIRCLE
  5
174
  8
0
 10
1.516250407091128
 20
1.7270975584083861
 30
0.0
 40
0.0312500000000001
  0
CIRCLE
  5
175
  8
0
 10
1.543669539548677
 20
1.6051418902030461
 30
0.0
 40
0.0312500000000001
  0
CIRCLE
  5
176
  8
0
 10
1.571354036902826
 20
1.483246187086074
 30
0.0
 40
0.0312500000000001
  0
CIRCLE
  5
177
  8
0
 10
1.599303768014336
 20
1.361411026467604
 30
0.0
 40
0.0312500000000001
  0
CIRCLE
  5
178
  8
0
 10
1.6275186004875859
 20
1.239636985471001
 30
0.0
 40
0.0312500000000001
  0
CIRCLE
  5
179
  8
0
 10
1.6559984006711761
 20
1.1179246409301311
 30
0.0
 40
0.0312500000000001
  0
CIRCLE
  5
17A
  8
0
 10
1.684743033658584
 20
0.9962745693865709
 30
0.0
 40
0.0312500000000001
  0
CIRCLE
  5
17B
  8
0
 10
1.7137523632887961
 20
0.8746873470869303
 30
0.0
 40
0.0312500000000001
  0
CIRCLE
  5
17C
  8
0
 10
1.8206226367113121
 20
0.8746873470869289
 30
0.0
 40
0.0312500000000001
  0
CIRCLE
  5
17D
  8
0
 10
1.8496319663415219
 20
0.9962745693865697
 30
0.0
 40
0.0312500000000001
  0
CIRCLE
  5
17E
  8
0
 10
1.8783765993289301
 20
1.1179246409301291
 30
0.0
 40
0.0312500000000001
  0
CIRCLE
  5
17F
  8
0
 10
1.9068563995125201
 20
1.2396369854710001
 30
0.0
 40
0.0312500000000001
  0
CIRCLE
  5
180
  8
0
 10
1.935071231985769
 20
1.3614110264676029
 30
0.0
 40
0.0312500000000001
  0
CIRCLE
  5
181
  8
0
 10
1.963020963097279
 20
1.4832461870860729
 30
0.0
 40
0.0312500000000001
  0
CIRCLE
  5
182
  8
0
 10
1.9907054604514269
 20
1.605141890203045
 30
0.0
 40
0.0312500000000001
  0
CIRCLE
  5
183
  8
0
 10
2.0181245929089751
 20
1.727097558408385
 30
0.0
 40
0.0312500000000001
  0
CIRCLE
  5
184
  8
0
 10
2.045278230587702
 20
1.8491126140078751
 30
0.0
 40
0.0312500000000001
  0
CIRCLE
  5
185
  8
0
 10
2.0721662448629821
 20
1.9711864790260121
 30
0.0
 40
0.0312500000000001
  0
CIRCLE
  5
186
  8
0
 10
2.0987885083684841
 20
2.0933185752087091
 30
0.0
 40
0.0312500000000001
  0
CIRCLE
  5
187
  8
0
 10
2.1251448949966729
 20
2.2155083240260272
 30
0.0
 40
0.0312500000000001
  0
CIRCLE
  5
188
  8
0
 10
2.151235279899435
 20
2.3377551466749562
 30
0.0
 40
0.0312500000000001
  0
CIRCLE
  5
189
  8
0
 10
2.1770595394887571
 20
2.4600584640821248
 30
0.0
 40
0.0312500000000001
  0
CIRCLE
  5
18A
  8
0
 10
2.2026175514371751
 20
2.5824176969065369
 30
0.0
 40
0.0312500000000001
  0
CIRCLE
  5
18B
  8
0
 10
2.2279091946784502
 20
2.7048322655423491
 30
0.0
 40
0.0312500000000001
  0
CIRCLE
  5
18C
  8
0
 10
2.252934349408096
 20
2.8273015901215719
 30
0.0
 40
0.0312500000000001
  0
CIRCLE
  5
18D
  8
0
 10
2.2776928970839632
 20
2.949825090516871
 30
0.0
 40
0.0312500000000001
  0
CIRCLE
  5
18E
  8
0
 10
2.3021847204267911
 20
3.0724021863442621
 30
0.0
 40
0.0312500000000001
  0
CIRCLE
  5
18F
  8
0
 10
2.326409703420798
 20
3.1950322969658962
 30
0.0
 40
0.0312500000000001
  0
CIRCLE
  5
190
  8
0
 10
2.35036773131417
 20
3.3177148414927911
 30
0.0
 40
0.0312500000000001
  0
CIRCLE
  5
191
  8
0
 10
2.3740586906196852
 20
3.4404492387876031
 30
0.0
 40
0.0312500000000001
  0
CIRCLE
  5
192
  8
0
 10
2.397482469115134
 20
3.5632349074673382
 30
0.0
 40
0.0312500000000001
  0
CIRCLE
  5
193
  8
0
 10
2.420638955843994
 20
3.6860712659061621
 30
0.0
 40
0.0312500000000001
  0
CIRCLE
  5
194
  8
0
 10
2.4435280411158158
 20
3.808957732238111
 30
0.0
 40
0.0312500000000001
  0
CIRCLE
  5
195
  8
0
 10
2.466149616506859
 20
3.9318937243598691
 30
0.0
 40
0.0312500000000001
  0
CIRCLE
  5
196
  8
0
 10
2.48850357486055
 20
4.0548786599335322
 30
0.0
 40
0.0312500000000001
  0
CIRCLE
  5
197
  8
0
 10
2.5105898102879611
 20
4.1779119563893241
 30
0.0
 40
0.0312500000000001
  0
CIRCLE
  5
198
  8
0
 10
2.532408218168396
 20
4.3009930309284119
 30
0.0
 40
0.0312500000000001
  0
CIRCLE
  5
199
  8
0
 10
2.5539586951497868
 20
4.4241213005256501
 30
0.0
 40
0.0312500000000001
  0
CIRCLE
  5
19A
  8
0
 10
2.575241139149266
 20
4.5472961819323059
 30
0.0
 40
0.0312500000000001
  0
CIRCLE
  5
19B
  8
0
 10
2.596255449353595
 20
4.6705170916788621
 30
0.0
 40
0.0312500000000001
  0
CIRCLE
  5
19C
  8
0
 10
2.617001526219696
 20
4.7937834460777911
 30
0.0
 40
0.0312500000000001
  0
CIRCLE
  5
19D
  8
0
 10
2.6374792714750508
 20
4.9170946612262574
 30
0.0
 40
0.0312500000000001
  0
CIRCLE
  5
19E
  8
0
 10
2.6576885881182268
 20
5.0404501530089387
 30
0.0
 40
0.0312500000000001
  0
CIRCLE
  5
19F
  8
0
 10
2.6776293804193521
 20
5.1638493371008121
 30
0.0
 40
0.0312500000000001
  0
CIRCLE
  5
1A0
  8
0
 10
2.6973015539204401
 20
5.287291628969836
 30
0.0
 40
0.0312500000000001
  0
CIRCLE
  5
1A1
  8
0
 10
2.7167050154360171
 20
5.4107764438797998
 30
0.0
 40
0.0312500000000001
  0
CIRCLE
  5
1A2
  8
0
 10
2.7358396730534369
 20
5.5343031968930552
 30
0.0
 40
0.0312500000000001
  0
CIRCLE
  5
1A3
  8
0
 10
2.7547054361333658
 20
5.6578713028733052
 30
0.0
 40
0.0312500000000001
  0
CIRCLE
  5
1A4
  8
0
 10
2.7733022153102098
 20
5.781480176488361
 30
0.0
 40
0.0312500000000001
  0
CIRCLE
  5
1A5
  8
0
 10
2.791629922492509
 20
5.9051292322129143
 30
0.0
 40
0.0312500000000001
  0
CIRCLE
  5
1A6
  8
0
 10
2.8096884708633811
 20
6.0288178843313309
 30
0.0
 40
0.0312500000000001
  0
CIRCLE
  5
1A7
  8
0
 10
2.8274777748809541
 20
6.1525455469404102
 30
0.0
 40
0.0312500000000001
  0
CIRCLE
  5
1A8
  8
0
 10
2.8449977502787149
 20
6.2763116339521376
 30
0.0
 40
0.0312500000000001
  0
CIRCLE
  5
1A9
  8
0
 10
2.86224831406594
 20
6.4001155590965304
 30
0.0
 40
0.0312500000000001
  0
CIRCLE
  5
1AA
  8
0
 10
2.8792293845281001
 20
6.5239567359243296
 30
0.0
 40
0.0312500000000001
  0
CIRCLE
  5
1AB
  8
0
 10
2.8959408812272249
 20
6.6478345778098271
 30
0.0
 40
0.0312500000000001
  0
CIRCLE
  5
1AC
  8
0
 10
2.9123827250023182
 20
6.7717484979536549
 30
0.0
 40
0.0312500000000001
  0
CIRCLE
  5
1AD
  8
0
 10
2.9285548379696569
 20
6.8956979093855253
 30
0.0
 40
0.0312500000000001
  0
CIRCLE
  5
1AE
  8
0
 10
2.9444571435232558
 20
7.0196822249670259
 30
0.0
 40
0.0312500000000001
  0
CIRCLE
  5
1AF
  8
0
 10
2.9600895663351761
 20
7.1437008573944301
 30
0.0
 40
0.0312500000000001
  0
CIRCLE
  5
1B0
  8
0
 10
2.9754520323558871
 20
7.2677532192014436
 30
0.0
 40
0.0312500000000001
  0
CIRCLE
  5
1B1
  8
0
 10
2.9905444688146048
 20
7.3918387227619826
 30
0.0
 40
0.0312500000000001
  0
CIRCLE
  5
1B2
  8
0
 10
3.005366804219689
 20
7.5159567802930116
 30
0.0
 40
0.0312500000000001
  0
CIRCLE
  5
1B3
  8
0
 10
3.0199189683589149
 20
7.6401068038572344
 30
0.0
 40
0.0312500000000001
  0
CIRCLE
  5
1B4
  8
0
 10
3.0342008922998729
 20
7.7642882053659914
 30
0.0
 40
0.0312500000000001
  0
CIRCLE
  5
1B5
  8
0
 10
3.0482125083902272
 20
7.8885003965819598
 30
0.0
 40
0.0312500000000001
  0
CIRCLE
  5
1B6
  8
0
 10
3.0619537502580481
 20
8.0127427891219654
 30
0.0
 40
0.0312500000000001
  0
CIRCLE
  5
1B7
  8
0
 10
3.0754245528122048
 20
8.137014794459775
 30
0.0
 40
0.0312500000000001
  0
CIRCLE
  5
1B8
  8
0
 10
3.0886248522425959
 20
8.2613158239288875
 30
0.0
 40
0.0312500000000001
  0
CIRCLE
  5
1B9
  8
0
 10
3.1015545860204501
 20
8.3856452887253266
 30
0.0
 40
0.0312500000000001
  0
CIRCLE
  5
1BA
  8
0
 10
3.1142136928986588
 20
8.5100025999104023
 30
0.0
 40
0.0312500000000001
  0
CIRCLE
  5
1BB
  8
0
 10
3.1266021129120571
 20
8.6343871684135163
 30
0.0
 40
0.0312500000000001
  0
CIRCLE
  5
1BC
  8
0
 10
3.1387197873776742
 20
8.7587984050349661
 30
0.0
 40
0.0312500000000001
  0
CIRCLE
  5
1BD
  8
0
 10
3.1505666588950958
 20
8.8832357204487309
 30
0.0
 40
0.0312500000000001
  0
CIRCLE
  5
1BE
  8
0
 10
3.1621426713465981
 20
9.0076985252052406
 30
0.0
 40
0.0312500000000001
  0
CIRCLE
  5
1BF
  8
0
 10
3.1734477698975971
 20
9.132186229734188
 30
0.0
 40
0.0312500000000001
  0
CIRCLE
  5
1C0
  8
0
 10
3.1844819009966949
 20
9.25669824434733
 30
0.0
 40
0.0312500000000001
  0
CIRCLE
  5
1C1
  8
0
 10
3.1952450123761351
 20
9.3812339792412427
 30
0.0
 40
0.0312500000000001
  0
CIRCLE
  5
1C2
  8
0
 10
3.2057370530518821
 20
9.505792844500176
 30
0.0
 40
0.0312500000000001
  0
CIRCLE
  5
1C3
  8
0
 10
3.2159579733240471
 20
9.6303742500987841
 30
0.0
 40
0.0312500000000001
  0
CIRCLE
  5
1C4
  8
0
 10
3.225907724776889
 20
9.7549776059049567
 30
0.0
 40
0.0312500000000001
  0
CIRCLE
  5
1C5
  8
0
 10
3.2355862602792729
 20
9.8796023216826256
 30
0.0
 40
0.0312500000000001
  0
CIRCLE
  5
1C6
  8
0
 10
3.2449935339847329
 20
10.00424780709451
 30
0.0
 40
0.0312500000000001
  0
CIRCLE
  5
1C7
  8
0
 10
3.254129501331795
 20
10.128913471704969
 30
0.0
 40
0.0312500000000001
  0
CIRCLE
  5
1C8
  8
0
 10
3.2629941190440901
 20
10.253598724982769
 30
0.0
 40
0.0312500000000001
  0
CIRCLE
  5
1C9
  8
0
 10
3.2715873451306439
 20
10.37830297630388
 30
0.0
 40
0.0312500000000001
  0
CIRCLE
  5
1CA
  8
0
 10
3.2799091388860369
 20
10.5030256349543
 30
0.0
 40
0.0312500000000001
  0
CIRCLE
  5
1CB
  8
0
 10
3.2879594608906091
 20
10.627766110132789
 30
0.0
 40
0.0312500000000001
  0
CIRCLE
  5
1CC
  8
0
 10
3.2957382730106319
 20
10.75252381095377
 30
0.0
 40
0.0312500000000001
  0
CIRCLE
  5
1CD
  8
0
 10
3.3032455383984711
 20
10.87729814645002
 30
0.0
 40
0.0312500000000001
  0
CIRCLE
  5
1CE
  8
0
 10
3.3104812214928332
 20
11.002088525575539
 30
0.0
 40
0.0312500000000001
  0
CIRCLE
  5
1CF
  8
0
 10
3.3174452880188778
 20
11.12689435720835
 30
0.0
 40
0.0312500000000001
  0
CIRCLE
  5
1D0
  8
0
 10
3.324137704988368
 20
11.25171505015323
 30
0.0
 40
0.0312500000000001
  0
CIRCLE
  5
1D1
  8
0
 10
3.3305584406998672
 20
11.3765500131446
 30
0.0
 40
0.0312500000000001
  0
CIRCLE
  5
1D2
  8
0
 10
3.3367074647388599
 20
11.501398654849281
 30
0.0
 40
0.0312500000000001
  0
CIRCLE
  5
1D3
  8
0
 10
3.3425847479779272
 20
11.626260383869271
 30
0.0
 40
0.0312500000000001
  0
CIRCLE
  5
1D4
  8
0
 10
3.3481902625768472
 20
11.751134608744611
 30
0.0
 40
0.0312500000000001
  0
CIRCLE
  5
1D5
  8
0
 10
3.3535239819827312
 20
11.87602073795612
 30
0.0
 40
0.0312500000000001
  0
CIRCLE
  5
1D6
  8
0
 10
3.3585858809301841
 20
12.00091817992824
 30
0.0
 40
0.0312500000000001
  0
CIRCLE
  5
1D7
  8
0
 10
3.363375935441411
 20
12.12582634303183
 30
0.0
 40
0.0312500000000001
  0
CIRCLE
  5
1D8
  8
0
 10
3.367894122826312
 20
12.25074463558696
 30
0.0
 40
0.0312500000000001
  0
CIRCLE
  5
1D9
  8
0
 10
3.3721404216825759
 20
12.375672465865719
 30
0.0
 40
0.0312500000000001
  0
CIRCLE
  5
1DA
  8
0
 10
3.3761148118958388
 20
12.50060924209501
 30
0.0
 40
0.0312500000000001
  0
CIRCLE
  5
1DB
  8
0
 10
3.3798172746397381
 20
12.62555437245936
 30
0.0
 40
0.0312500000000001
  0
CIRCLE
  5
1DC
  8
0
 10
3.3832477923759838
 20
12.75050726510373
 30
0.0
 40
0.0312500000000001
  0
CIRCLE
  5
1DD
  8
0
 10
3.3864063488545182
 20
12.87546732813631
 30
0.0
 40
0.0312500000000001
  0
CIRCLE
  5
1DE
  8
0
 10
3.3892929291134908
 20
13.00043396963132
 30
0.0
 40
0.0312500000000001
  0
CIRCLE
  5
1DF
  8
0
 10
3.3919075194794019
 20
13.12540659763183
 30
0.0
 40
0.0312500000000001
  0
CIRCLE
  5
1E0
  8
0
 10
3.3942501075671641
 20
13.250384620152531
 30
0.0
 40
0.0312500000000001
  0
CIRCLE
  5
1E1
  8
0
 10
3.3963206822801109
 20
13.375367445182579
 30
0.0
 40
0.0312500000000001
  0
CIRCLE
  5
1E2
  8
0
 10
3.398119233810116
 20
13.50035448068838
 30
0.0
 40
0.0312500000000001
  0
CIRCLE
  5
1E3
  8
0
 10
3.3996457536375591
 20
13.62534513461639
 30
0.0
 40
0.0312500000000001
  0
CIRCLE
  5
1E4
  8
0
 10
3.400900234531453
 20
13.750338814895921
 30
0.0
 40
0.0312500000000001
  0
CIRCLE
  5
1E5
  8
0
 10
3.4018826705494289
 20
13.87533492944195
 30
0.0
 40
0.0312500000000001
  0
CIRCLE
  5
1E6
  8
0
 10
3.4025930570377581
 20
14.00033288615794
 30
0.0
 40
0.0312500000000001
  0
CIRCLE
  5
1E7
  8
0
 10
3.4030313906313898
 20
14.125332092938599
 30
0.0
 40
0.0312500000000001
  0
CIRCLE
  5
1E8
  8
0
 10
3.4031976692539891
 20
14.25033195767274
 30
0.0
 40
0.0312500000000001
  0
CIRCLE
  5
1E9
  8
0
 10
3.4030918921178839
 20
14.37533188824605
 30
0.0
 40
0.0312500000000001
  0
CIRCLE
  5
1EA
  8
0
 10
3.4027140597241692
 20
14.500331292543899
 30
0.0
 40
0.0312500000000001
  0
CIRCLE
  5
1EB
  8
0
 10
3.4020641738625712
 20
14.625329578454149
 30
0.0
 40
0.0312500000000001
  0
CIRCLE
  5
1EC
  8
0
 10
3.4011422376115501
 20
14.75032615386997
 30
0.0
 40
0.0312500000000001
  0
CIRCLE
  5
1ED
  8
0
 10
3.3999482553382681
 20
14.875320426692641
 30
0.0
 40
0.0312500000000001
  0
CIRCLE
  5
1EE
  8
0
 10
3.3984822326985178
 20
15.0003118048343
 30
0.0
 40
0.0312500000000001
  0
CIRCLE
  5
1EF
  8
0
 10
3.3967441766366981
 20
15.125299696220869
 30
0.0
 40
0.0312500000000001
  0
CIRCLE
  5
1F0
  8
0
 10
3.3947340953858798
 20
15.250283508794739
 30
0.0
 40
0.0312500000000001
  0
CIRCLE
  5
1F1
  8
0
 10
3.3924519984676471
 20
15.37526265051763
 30
0.0
 40
0.0312500000000001
  0
CIRCLE
  5
1F2
  8
0
 10
3.389897896692089
 20
15.500236529373391
 30
0.0
 40
0.0312500000000001
  0
CIRCLE
  5
1F3
  8
0
 10
3.387071802157799
 20
15.6252045533708
 30
0.0
 40
0.0312500000000001
  0
CIRCLE
  5
1F4
  8
0
 10
3.3839737282517599
 20
15.750166130546379
 30
0.0
 40
0.0312500000000001
  0
CIRCLE
  5
1F5
  8
0
 10
3.380603689649301
 20
15.87512066896717
 30
0.0
 40
0.0312500000000001
  0
CIRCLE
  5
1F6
  8
0
 10
3.3769617023140039
 20
16.00006757673356
 30
0.0
 40
0.0312500000000001
  0
CIRCLE
  5
1F7
  8
0
 10
3.3730477834976922
 20
16.125006261982101
 30
0.0
 40
0.0312500000000001
  0
CIRCLE
  5
1F8
  8
0
 10
3.368861951740274
 20
16.24993613288828
 30
0.0
 40
0.0312500000000001
  0
CIRCLE
  5
1F9
  8
0
 10
3.3644042268696981
 20
16.374856597669321
 30
0.0
 40
0.0312500000000001
  0
CIRCLE
  5
1FA
  8
0
 10
3.3596746300018561
 20
16.49976706458704
 30
0.0
 40
0.0312500000000001
  0
CIRCLE
  5
1FB
  8
0
 10
3.3546731835404611
 20
16.624666941950579
 30
0.0
 40
0.0312500000000001
  0
CIRCLE
  5
1FC
  8
0
 10
3.3493999111769841
 20
16.749555638119269
 30
0.0
 40
0.0312500000000001
  0
CIRCLE
  5
1FD
  8
0
 10
3.343854837890444
 20
16.87443256150539
 30
0.0
 40
0.0312500000000001
  0
CIRCLE
  5
1FE
  8
0
 10
3.3380379899474608
 20
16.99929712057698
 30
0.0
 40
0.0312500000000001
  0
CIRCLE
  5
1FF
  8
0
 10
3.3319493949019412
 20
17.12414872386066
 30
0.0
 40
0.0312500000000001
  0
CIRCLE
  5
200
  8
0
 10
3.325589081595095
 20
17.248986779944421
 30
0.0
 40
0.0312500000000001
  0
CIRCLE
  5
201
  8
0
 10
3.31895708015518
 20
17.373810697480419
 30
0.0
 40
0.0312500000000001
  0
CIRCLE
  5
202
  8
0
 10
3.3120534219975051
 20
17.498619885187811
 30
0.0
 40
0.0312500000000001
  0
CIRCLE
  5
203
  8
0
 10
3.3048781398240852
 20
17.62341375185547
 30
0.0
 40
0.0312500000000001
  0
CIRCLE
  5
204
  8
0
 10
3.2974312676237032
 20
17.748191706344901
 30
0.0
 40
0.0312500000000001
  0
CIRCLE
  5
205
  8
0
 10
3.289712840671585
 20
17.872953157592949
 30
0.0
 40
0.0312500000000001
  0
CIRCLE
  5
206
  8
0
 10
3.281722895529275
 20
17.99769751461465
 30
0.0
 40
0.0312500000000001
  0
CIRCLE
  5
207
  8
0
 10
3.2734614700445248
 20
18.122424186505999
 30
0.0
 40
0.0312500000000001
  0
CIRCLE
  5
208
  8
0
 10
3.2649286033510352
 20
18.247132582446799
 30
0.0
 40
0.0312500000000001
  0
CIRCLE
  5
209
  8
0
 10
3.2561243358683032
 20
18.371822111703381
 30
0.0
 40
0.0312500000000001
  0
CIRCLE
  5
20A
  8
0
 10
3.247048709301434
 20
18.49649218363146
 30
0.0
 40
0.0312500000000001
  0
CIRCLE
  5
20B
  8
0
 10
3.2377017666409702
 20
18.62114220767894
 30
0.0
 40
0.0312500000000001
  0
CIRCLE
  5
20C
  8
0
 10
3.2280835521626048
 20
18.74577159338866
 30
0.0
 40
0.0312500000000001
  0
CIRCLE
  5
20D
  8
0
 10
3.218194111427044
 20
18.870379750401241
 30
0.0
 40
0.0312500000000001
  0
CIRCLE
  5
20E
  8
0
 10
3.2080334912797799
 20
18.994966088457861
 30
0.0
 40
0.0312500000000001
  0
CIRCLE
  5
20F
  8
0
 10
3.197601739850874
 20
19.119530017403029
 30
0.0
 40
0.0312500000000001
  0
CIRCLE
  5
210
  8
0
 10
3.1868989065546498
 20
19.244070947187449
 30
0.0
 40
0.0312500000000001
  0
CIRCLE
  5
211
  8
0
 10
3.1759250420896081
 20
19.36858828787074
 30
0.0
 40
0.0312500000000001
  0
CIRCLE
  5
212
  8
0
 10
3.1646801984380408
 20
19.493081449624249
 30
0.0
 40
0.0312500000000001
  0
CIRCLE
  5
213
  8
0
 10
3.1531644288658751
 20
19.61754984273389
 30
0.0
 40
0.0312500000000001
  0
CIRCLE
  5
214
  8
0
 10
3.1413777879223841
 20
19.741992877602879
 30
0.0
 40
0.0312500000000001
  0
CIRCLE
  5
215
  8
0
 10
3.1293203314399558
 20
19.86640996475456
 30
0.0
 40
0.0312500000000001
  0
CIRCLE
  5
216
  8
0
 10
3.1169921165337651
 20
19.990800514835179
 30
0.0
 40
0.0312500000000001
  0
CIRCLE
  5
217
  8
0
 10
3.1043932016015869
 20
20.115163938616721
 30
0.0
 40
0.0312500000000001
  0
CIRCLE
  5
218
  8
0
 10
3.0915236463234841
 20
20.239499646999629
 30
0.0
 40
0.0312500000000001
  0
CIRCLE
  5
219
  8
0
 10
3.078383511661491
 20
20.363807051015641
 30
0.0
 40
0.0312500000000001
  0
CIRCLE
  5
21A
  8
0
 10
3.064972859859362
 20
20.488085561830559
 30
0.0
 40
0.0312500000000001
  0
CIRCLE
  5
21B
  8
0
 10
3.0512917544422908
 20
20.6123345907471
 30
0.0
 40
0.0312500000000001
  0
CIRCLE
  5
21C
  8
0
 10
3.037340260216558
 20
20.736553549207571
 30
0.0
 40
0.0312500000000001
  0
CIRCLE
  5
21D
  8
0
 10
3.023118443269297
 20
20.860741848796749
 30
0.0
 40
0.0312500000000001
  0
CIRCLE
  5
21E
  8
0
 10
3.00862637096809
 20
20.984898901244652
 30
0.0
 40
0.0312500000000001
  0
CIRCLE
  5
21F
  8
0
 10
2.9938641119607321
 20
21.109024118429289
 30
0.0
 40
0.0312500000000001
  0
CIRCLE
  5
220
  8
0
 10
2.9788317361748571
 20
21.23311691237949
 30
0.0
 40
0.0312500000000001
  0
CIRCLE
  5
221
  8
0
 10
2.9635293148176052
 20
21.357176695277658
 30
0.0
 40
0.0312500000000001
  0
CIRCLE
  5
222
  8
0
 10
2.9479569203753249
 20
21.481202879462561
 30
0.0
 40
0.0312500000000001
  0
CIRCLE
  5
223
  8
0
 10
2.932114626613195
 20
21.605194877432151
 30
0.0
 40
0.0312500000000001
  0
CIRCLE
  5
224
  8
0
 10
2.916002508574921
 20
21.729152101846282
 30
0.0
 40
0.0312500000000001
  0
CIRCLE
  5
225
  8
0
 10
2.899620642582259
 20
21.853073965529539
 30
0.0
 40
0.0312500000000001
  0
CIRCLE
  5
226
  8
0
 10
2.8829691062348171
 20
21.97695988147402
 30
0.0
 40
0.0312500000000001
  0
CIRCLE
  5
227
  8
0
 10
2.8660479784095911
 20
22.100809262842109
 30
0.0
 40
0.0312500000000001
  0
CIRCLE
  5
228
  8
0
 10
2.848857339260598
 20
22.224621522969208
 30
0.0
 40
0.0312500000000001
  0
CIRCLE
  5
229
  8
0
 10
2.8313972702184969
 20
22.34839607536663
 30
0.0
 40
0.0312500000000001
  0
CIRCLE
  5
22A
  8
0
 10
2.813667853990252
 20
22.472132333724229
 30
0.0
 40
0.0312500000000001
  0
CIRCLE
  5
22B
  8
0
 10
2.7956691745586819
 20
22.595829711913321
 30
0.0
 40
0.0312500000000001
  0
CIRCLE
  5
22C
  8
0
 10
2.7774013171820831
 20
22.719487623989352
 30
0.0
 40
0.0312500000000001
  0
CIRCLE
  5
22D
  8
0
 10
2.7588643683938292
 20
22.84310548419473
 30
0.0
 40
0.0312500000000001
  0
CIRCLE
  5
22E
  8
0
 10
2.7400584160019452
 20
22.966682706961581
 30
0.0
 40
0.0312500000000001
  0
CIRCLE
  5
22F
  8
0
 10
2.7209835490887322
 20
23.090218706914541
 30
0.0
 40
0.0312500000000001
  0
CIRCLE
  5
230
  8
0
 10
2.7016398580102949
 20
23.213712898873499
 30
0.0
 40
0.0312500000000001
  0
CIRCLE
  5
231
  8
0
 10
2.6820274343961339
 20
23.337164697856391
 30
0.0
 40
0.0312500000000001
  0
CIRCLE
  5
232
  8
0
 10
0.9537689889810783
 20
23.406250000000011
 30
0.0
 40
0.0312499999999998
  0
CIRCLE
  5
233
  8
0
 10
0.9206870810603111
 20
21.7221926604036
 30
0.0
 40
0.0649999999999995
  0
CIRCLE
  5
234
  8
0
 10
1.0574769666723429
 20
22.712779993185599
 30
0.0
 40
0.0649999999999995
  0
CIRCLE
  5
235
  8
0
 10
2.402040514280257
 20
23.2071429902558
 30
0.0
 40
0.0649999999999995
  0
CIRCLE
  5
236
  8
0
 10
2.547448950571761
 20
22.217784044610081
 30
0.0
 40
0.0649999999999995
  0
CIRCLE
  5
237
  8
0
 10
2.6136879189397151
 20
21.7221926604036
 30
0.0
 40
0.0649999999999995
  0
CIRCLE
  5
238
  8
0
 10
2.4768980333276791
 20
22.712779993185599
 30
0.0
 40
0.0649999999999995
  0
CIRCLE
  5
239
  8
0
 10
1.1323344857197619
 20
23.20714299025579
 30
0.0
 40
0.0649999999999995
  0
CIRCLE
  5
23A
  8
0
 10
0.986926049428262
 20
22.217784044610081
 30
0.0
 40
0.0649999999999995
  0
ENDSEC
  0
EOF
