  0
SECTION
  2
HEADER
  9
$ACADVER
  1
AC1009
  9
$INSBASE
 10
0.0
 20
0.0
 30
0.0
  9
$EXTMIN
 10
0.0
 20
0.0
 30
0.0
  9
$EXTMAX
 10
15.073230120013489
 20
15.072209782977509
 30
0.0
  9
$LIMMIN
 10
0.0
 20
0.0
  9
$LIMMAX
 10
15.073230120013489
 20
15.072209782977509
  9
$ORTHOMODE
 70
     0
  9
$REGENMODE
 70
     1
  9
$FILLMODE
 70
     1
  9
$QTEXTMODE
 70
     0
  9
$MIRRTEXT
 70
     0
  9
$DRAGMODE
 70
     2
  9
$LTSCALE
 40
1.0
  9
$OSMODE
 70
     0
  9
$ATTMODE
 70
     1
  9
$TEXTSIZE
 40
0.2
  9
$TRACEWID
 40
0.05
  9
$TEXTSTYLE
  7
STANDARD
  9
$CLAYER
  8
0
  9
$CELTYPE
  6
BYLAYER
  9
$CECOLOR
 62
   256
  9
$DIMSCALE
 40
1.0
  9
$DIMASZ
 40
0.0708661417322835
  9
$DIMEXO
 40
0.0625
  9
$DIMDLI
 40
0.38
  9
$DIMRND
 40
0.0
  9
$DIMDLE
 40
0.0
  9
$DIMEXE
 40
0.18
  9
$DIMTP
 40
0.0
  9
$DIMTM
 40
0.0
  9
$DIMTXT
 40
0.0708661417322835
  9
$DIMCEN
 40
0.09
  9
$DIMTSZ
 40
0.0
  9
$DIMTOL
 70
     0
  9
$DIMLIM
 70
     0
  9
$DIMTIH
 70
     1
  9
$DIMTOH
 70
     1
  9
$DIMSE1
 70
     0
  9
$DIMSE2
 70
     0
  9
$DIMTAD
 70
     0
  9
$DIMZIN
 70
     0
  9
$DIMBLK
  1

  9
$DIMASO
 70
     1
  9
$DIMSHO
 70
     1
  9
$DIMPOST
  1

  9
$DIMAPOST
  1

  9
$DIMALT
 70
     0
  9
$DIMALTD
 70
     2
  9
$DIMALTF
 40
25.399999999999999
  9
$DIMLFAC
 40
1.0
  9
$DIMTOFL
 70
     0
  9
$DIMTVP
 40
0.0
  9
$DIMTIX
 70
     0
  9
$DIMSOXD
 70
     0
  9
$DIMSAH
 70
     0
  9
$DIMBLK1
  1

  9
$DIMBLK2
  1

  9
$DIMSTYLE
  2
STANDARD
  9
$DIMCLRD
 70
     0
  9
$DIMCLRE
 70
     0
  9
$DIMCLRT
 70
     0
  9
$DIMTFAC
 40
1.0
  9
$DIMGAP
 40
0.09
  9
$LUNITS
 70
     2
  9
$LUPREC
 70
     4
  9
$SKETCHINC
 40
0.1
  9
$FILLETRAD
 40
0.0
  9
$AUNITS
 70
     0
  9
$AUPREC
 70
     0
  9
$MENU
  1
.
  9
$ELEVATION
 40
0.0
  9
$PELEVATION
 40
0.0
  9
$THICKNESS
 40
0.0
  9
$LIMCHECK
 70
     0
  9
$BLIPMODE
 70
     0
  9
$CHAMFERA
 40
0.0
  9
$CHAMFERB
 40
0.0
  9
$SKPOLY
 70
     0
  9
$TDCREATE
 40
2456951.718684583
  9
$TDUPDATE
 40
2456951.718684583
  9
$TDINDWG
 40
0.0000063079
  9
$TDUSRTIMER
 40
0.0000063079
  9
$USRTIMER
 70
     1
  9
$ANGBASE
 50
0.0
  9
$ANGDIR
 70
     0
  9
$PDMODE
 70
     0
  9
$PDSIZE
 40
0.0
  9
$PLINEWID
 40
0.0
  9
$COORDS
 70
     0
  9
$SPLFRAME
 70
     0
  9
$SPLINETYPE
 70
     6
  9
$SPLINESEGS
 70
     8
  9
$ATTDIA
 70
     0
  9
$ATTREQ
 70
     1
  9
$HANDLING
 70
     1
  9
$HANDSEED
  5
404
  9
$SURFTAB1
 70
     6
  9
$SURFTAB2
 70
     6
  9
$SURFTYPE
 70
     6
  9
$SURFU
 70
     6
  9
$SURFV
 70
     6
  9
$UCSNAME
  2

  9
$UCSORG
 10
0.0
 20
0.0
 30
0.0
  9
$UCSXDIR
 10
1.0
 20
0.0
 30
0.0
  9
$UCSYDIR
 10
0.0
 20
1.0
 30
0.0
  9
$PUCSNAME
  2

  9
$PUCSORG
 10
0.0
 20
0.0
 30
0.0
  9
$PUCSXDIR
 10
1.0
 20
0.0
 30
0.0
  9
$PUCSYDIR
 10
0.0
 20
1.0
 30
0.0
  9
$USERI1
 70
     0
  9
$USERI2
 70
     0
  9
$USERI3
 70
     0
  9
$USERI4
 70
     0
  9
$USERI5
 70
     0
  9
$USERR1
 40
0.0
  9
$USERR2
 40
0.0
  9
$USERR3
 40
0.0
  9
$USERR4
 40
0.0
  9
$USERR5
 40
0.0
  9
$WORLDVIEW
 70
     1
  9
$SHADEDGE
 70
     3
  9
$SHADEDIF
 70
    70
  9
$TILEMODE
 70
     1
  9
$MAXACTVP
 70
    64
  9
$PLIMCHECK
 70
     0
  9
$PEXTMIN
 10
0.0
 20
0.0
 30
0.0
  9
$PEXTMAX
 10
15.073230120013489
 20
15.072209782977509
 30
0.0
  9
$PLIMMIN
 10
0.0
 20
0.0
  9
$PLIMMAX
 10
15.073230120013489
 20
15.072209782977509
  9
$UNITMODE
 70
     0
  9
$VISRETAIN
 70
     1
  9
$PLINEGEN
 70
     0
  9
$PSLTSCALE
 70
     1
  0
ENDSEC
  0
SECTION
  2
TABLES
  0
TABLE
  2
VPORT
 70
     1
  0
VPORT
  2
*ACTIVE
 70
     0
 10
0.0
 20
0.0
 11
1.0
 21
1.0
 12
0.0
 22
0.0004107810895175
 13
0.0
 23
0.0
 14
1.0
 24
1.0
 15
0.0
 25
0.0
 16
0.0
 26
0.0
 36
1.0
 17
0.0
 27
0.0
 37
0.0
 40
15.072209782977509
 41
1.000067696578715
 42
50.0
 43
0.0
 44
0.0
 50
0.0
 51
0.0
 71
     0
 72
   100
 73
     1
 74
     1
 75
     0
 76
     0
 77
     0
 78
     0
  0
ENDTAB
  0
TABLE
  2
LTYPE
 70
    59
  0
LTYPE
  2
CONTINUOUS
 70
     0
  3
Solid line
 72
    65
 73
     0
 40
0.0
  0
LTYPE
  2
PHANTOM2
 70
     0
  3
Phantom (.5x) ___ _ _ ___ _ _ ___ _ _ ___ _ _
 72
    65
 73
     6
 40
1.25
 49
0.625
 49
-0.125
 49
0.125
 49
-0.125
 49
0.125
 49
-0.125
  0
LTYPE
  2
BY_STANDARD
 70
     0
  3
By Standard ____________    ____    ____   _
 72
    65
 73
     6
 40
1.2402999999999991
 49
0.6614
 49
-0.0827
 49
0.1654
 49
-0.0827
 49
0.1654
 49
-0.0827
  0
LTYPE
  2
CHAIN
 70
     0
  3
Chain ____ _ ____ _ ____ _ ____ _ ____ _ ____
 72
    65
 73
     4
 40
0.7087
 49
0.4724000000000001
 49
-0.0591
 49
0.1181
 49
-0.0591
  0
LTYPE
  2
DASH_DOT
 70
     0
  3
Dash dot __ . __ . __ . __ . __ . __ . __ . __
 72
    65
 73
     4
 40
0.37
 49
0.24
 49
-0.06
 49
0.01
 49
-0.06
  0
LTYPE
  2
DOUBLE_DASH_DOT
 70
     0
  3
Double-Dash Dot __ __ . __ __ . __ __ . __ _
 72
    65
 73
     6
 40
0.4398
 49
0.24
 49
-0.06
 49
0.0098
 49
-0.06
 49
0.01
 49
-0.06
  0
LTYPE
  2
DASH_TRIPLE_DOT
 70
     0
  3
Dash Triple-Dot _ . . . _ . . . _ . . . _
 72
    65
 73
     8
 40
0.51
 49
0.24
 49
-0.06
 49
0.01
 49
-0.06
 49
0.01
 49
-0.06
 49
0.01
 49
-0.06
  0
LTYPE
  2
DASHED
 70
     0
  3
Dashed __ __ __ __ __ __ __ __ __ __ __ __ __ _
 72
    65
 73
     2
 40
0.2067
 49
0.1654
 49
-0.0413
  0
LTYPE
  2
DASH_DOUBLE_DOT
 70
     0
  3
Dash Double-Dot __ . . __ . . __ . . __ . .
 72
    65
 73
     6
 40
0.4398
 49
0.24
 49
-0.06
 49
0.0098
 49
-0.06
 49
0.01
 49
-0.06
  0
LTYPE
  2
DASHED_SPACE
 70
     0
  3
Dashed Space __ __ __ __ __ __ __ __ __ __ __ _
 72
    65
 73
     2
 40
0.2067
 49
0.1654
 49
-0.0413
  0
LTYPE
  2
DOTTED
 70
     0
  3
Dotted . . . . . . . . . . . . . . . . . . . . 
 72
    65
 73
     2
 40
0.0482
 49
0.0069
 49
-0.0413
  0
LTYPE
  2
DOUBLE_DASH_CHAIN
 70
     0
  3
Double-Dash Chain ______  __  __  ______  __  _
 72
    65
 73
     6
 40
1.2402999999999991
 49
0.6614
 49
-0.0827
 49
0.1654
 49
-0.0827
 49
0.1654
 49
-0.0827
  0
LTYPE
  2
DOUBLE_DASH_DOUBLE_DOT
 70
     0
  3
Double-Dash Double-dot _ _ . . _ _ . . _
 72
    65
 73
     8
 40
0.7400000000000001
 49
0.24
 49
-0.06
 49
0.24
 49
-0.06
 49
0.01
 49
-0.06
 49
0.01
 49
-0.06
  0
LTYPE
  2
DOUBLE_DASH_TRIPLE_DOT
 70
     0
  3
Double Dash Triple Dot __ __ . . . __ __ . .
 72
    65
 73
    10
 40
0.8100000000000001
 49
0.24
 49
-0.06
 49
0.24
 49
-0.06
 49
0.01
 49
-0.06
 49
0.01
 49
-0.06
 49
0.01
 49
-0.06
  0
LTYPE
  2
LONG_DASH_DOTTED
 70
     0
  3
Long Dash Dotted ____ . ____ . ____ . ____ . _
 72
    65
 73
     4
 40
0.3543
 49
0.2362
 49
-0.0295
 49
0.0591
 49
-0.0295
  0
LTYPE
  2
LONG_DASH_DOUBLE_DOT
 70
     0
  3
Long Dash Double Dot ________  .  .  ________  
 72
    65
 73
     6
 40
0.6799999999999999
 49
0.48
 49
-0.06
 49
0.01
 49
-0.06
 49
0.01
 49
-0.06
  0
LTYPE
  2
LONG_DASH_TRIPLE_DOT
 70
     0
  3
Long Dash Triple Dot ____ ... ____ ... ____
 72
    65
 73
     8
 40
0.3689
 49
0.2362
 49
-0.0295
 49
0.0049
 49
-0.0295
 49
0.0049
 49
-0.0295
 49
0.0049
 49
-0.0295
  0
LTYPE
  2
BORDER
 70
     0
  3
Border __ __ . __ __ . __ __ . __ __ . __ __ .
 72
    65
 73
     6
 40
1.75
 49
0.5
 49
-0.25
 49
0.5
 49
-0.25
 49
0.0
 49
-0.25
  0
LTYPE
  2
BORDER2
 70
     0
  3
Border (.5x) __.__.__.__.__.__.__.__.__.__.__.
 72
    65
 73
     6
 40
0.875
 49
0.25
 49
-0.125
 49
0.25
 49
-0.125
 49
0.0
 49
-0.125
  0
LTYPE
  2
BORDERX2
 70
     0
  3
Border (2x) ____  ____  .  ____  ____  .  ___
 72
    65
 73
     6
 40
3.5
 49
1.0
 49
-0.5
 49
1.0
 49
-0.5
 49
0.0
 49
-0.5
  0
LTYPE
  2
CENTER
 70
     0
  3
Center ____ _ ____ _ ____ _ ____ _ ____ _ ____
 72
    65
 73
     4
 40
2.0
 49
1.25
 49
-0.25
 49
0.25
 49
-0.25
  0
LTYPE
  2
CENTER2
 70
     0
  3
Center (.5x) ___ _ ___ _ ___ _ ___ _ ___ _ ___
 72
    65
 73
     4
 40
1.125
 49
0.75
 49
-0.125
 49
0.125
 49
-0.125
  0
LTYPE
  2
CENTERX2
 70
     0
  3
Center (2x) ________  __  ________  __  _____
 72
    65
 73
     4
 40
4.0
 49
2.5
 49
-0.5
 49
0.5
 49
-0.5
  0
LTYPE
  2
DASHDOT2
 70
     0
  3
Dash dot (.5x) _._._._._._._._._._._._._._._.
 72
    65
 73
     4
 40
0.5
 49
0.25
 49
-0.125
 49
0.0
 49
-0.125
  0
LTYPE
  2
DASHDOTX2
 70
     0
  3
Dash dot (2x) ____  .  ____  .  ____  .  ___
 72
    65
 73
     4
 40
2.0
 49
1.0
 49
-0.5
 49
0.0
 49
-0.5
  0
LTYPE
  2
DASHED2
 70
     0
  3
Dashed (.5x) _ _ _ _ _ _ _ _ _ _ _ _ _ _ _ _ _
 72
    65
 73
     2
 40
0.375
 49
0.25
 49
-0.125
  0
LTYPE
  2
DASHEDX2
 70
     0
  3
Dashed (2x) ____  ____  ____  ____  ____  ___
 72
    65
 73
     2
 40
1.5
 49
1.0
 49
-0.5
  0
LTYPE
  2
DIVIDE
 70
     0
  3
Divide ____ . . ____ . . ____ . . ____ . . ____
 72
    65
 73
     6
 40
1.25
 49
0.5
 49
-0.25
 49
0.0
 49
-0.25
 49
0.0
 49
-0.25
  0
LTYPE
  2
DIVIDE2
 70
     0
  3
Divide (.5x) __..__..__..__..__..__..__..__.._
 72
    65
 73
     6
 40
0.625
 49
0.25
 49
-0.125
 49
0.0
 49
-0.125
 49
0.0
 49
-0.125
  0
LTYPE
  2
DIVIDEX2
 70
     0
  3
Divide (2x) ________  .  .  ________  .  .  _
 72
    65
 73
     6
 40
2.5
 49
1.0
 49
-0.5
 49
0.0
 49
-0.5
 49
0.0
 49
-0.5
  0
LTYPE
  2
DOT
 70
     0
  3
Dot . . . . . . . . . . . . . . . . . . . . . .
 72
    65
 73
     2
 40
0.25
 49
0.0
 49
-0.25
  0
LTYPE
  2
DOT2
 70
     0
  3
Dot (.5x) .....................................
 72
    65
 73
     2
 40
0.125
 49
0.0
 49
-0.125
  0
LTYPE
  2
DOTX2
 70
     0
  3
Dot (2x) .  .  .  .  .  .  .  .  .  .  .  .  . 
 72
    65
 73
     2
 40
0.5
 49
0.0
 49
-0.5
  0
LTYPE
  2
HIDDEN
 70
     0
  3
Hidden __ __ __ __ __ __ __ __ __ __ __ __ __ _
 72
    65
 73
     2
 40
0.375
 49
0.25
 49
-0.125
  0
LTYPE
  2
HIDDEN2
 70
     0
  3
Hidden (.5x) _ _ _ _ _ _ _ _ _ _ _ _ _ _ _ _ _
 72
    65
 73
     2
 40
0.1875
 49
0.125
 49
-0.0625
  0
LTYPE
  2
HIDDENX2
 70
     0
  3
Hidden (2x) ____ ____ ____ ____ ____ ____ ____
 72
    65
 73
     2
 40
0.75
 49
0.5
 49
-0.25
  0
LTYPE
  2
PHANTOM
 70
     0
  3
Phantom ______  __  __  ______  __  __  ______
 72
    65
 73
     6
 40
2.5
 49
1.25
 49
-0.25
 49
0.25
 49
-0.25
 49
0.25
 49
-0.25
  0
LTYPE
  2
PHANTOMX2
 70
     0
  3
Phantom (2x) ____________    ____    ____   _
 72
    65
 73
     6
 40
5.0
 49
2.5
 49
-0.5
 49
0.5
 49
-0.5
 49
0.5
 49
-0.5
  0
LTYPE
  2
ACAD_ISO02W100
 70
     0
  3
ISO dash __ __ __ __ __ __ __ __ __ __ __ __ __
 72
    65
 73
     2
 40
0.59
 49
0.47
 49
-0.12
  0
LTYPE
  2
ACAD_ISO03W100
 70
     0
  3
ISO dash space __    __    __    __    __    __
 72
    65
 73
     2
 40
1.179999999999999
 49
0.47
 49
-0.71
  0
LTYPE
  2
ACAD_ISO04W100
 70
     0
  3
ISO long-dash dot ____ . ____ . ____ . ____ . _
 72
    65
 73
     4
 40
1.179999999999999
 49
0.9399999999999998
 49
-0.12
 49
0.0
 49
-0.12
  0
LTYPE
  2
ACAD_ISO05W100
 70
     0
  3
ISO long-dash double-dot ____ .. ____ .. ____ .
 72
    65
 73
     6
 40
1.2999999999999989
 49
0.9399999999999998
 49
-0.12
 49
0.0
 49
-0.12
 49
0.0
 49
-0.12
  0
LTYPE
  2
ACAD_ISO06W100
 70
     0
  3
ISO long-dash triple-dot ____ ... ____ ... ____
 72
    65
 73
     8
 40
1.419999999999999
 49
0.9399999999999998
 49
-0.12
 49
0.0
 49
-0.12
 49
0.0
 49
-0.12
 49
0.0
 49
-0.12
  0
LTYPE
  2
ACAD_ISO07W100
 70
     0
  3
ISO dot . . . . . . . . . . . . . . . . . . . .
 72
    65
 73
     2
 40
0.12
 49
0.0
 49
-0.12
  0
LTYPE
  2
ACAD_ISO08W100
 70
     0
  3
ISO long-dash short-dash ____ __ ____ __ ____ _
 72
    65
 73
     4
 40
0.95
 49
0.47
 49
-0.12
 49
0.24
 49
-0.12
  0
LTYPE
  2
ACAD_ISO09W100
 70
     0
  3
ISO long-dash double-short-dash ____ __ __ ____
 72
    65
 73
     6
 40
1.3100000000000001
 49
0.47
 49
-0.12
 49
0.24
 49
-0.12
 49
0.24
 49
-0.12
  0
LTYPE
  2
ACAD_ISO10W100
 70
     0
  3
ISO dash dot __ . __ . __ . __ . __ . __ . __ .
 72
    65
 73
     4
 40
0.71
 49
0.47
 49
-0.12
 49
0.0
 49
-0.12
  0
LTYPE
  2
ACAD_ISO11W100
 70
     0
  3
ISO double-dash dot __ __ . __ __ . __ __ . __ 
 72
    65
 73
     6
 40
1.2999999999999989
 49
0.47
 49
-0.12
 49
0.47
 49
-0.12
 49
0.0
 49
-0.12
  0
LTYPE
  2
ACAD_ISO12W100
 70
     0
  3
ISO dash double-dot __ . . __ . . __ . . __ . .
 72
    65
 73
     6
 40
0.8299999999999999
 49
0.47
 49
-0.12
 49
0.0
 49
-0.12
 49
0.0
 49
-0.12
  0
LTYPE
  2
ACAD_ISO13W100
 70
     0
  3
ISO double-dash double-dot __ __ . . __ __ . . 
 72
    65
 73
     8
 40
1.419999999999999
 49
0.47
 49
-0.12
 49
0.47
 49
-0.12
 49
0.0
 49
-0.12
 49
0.0
 49
-0.12
  0
LTYPE
  2
ACAD_ISO14W100
 70
     0
  3
ISO dash triple-dot __ . . . __ . . . __ . . . 
 72
    65
 73
     8
 40
0.95
 49
0.47
 49
-0.12
 49
0.0
 49
-0.12
 49
0.0
 49
-0.12
 49
0.0
 49
-0.12
  0
LTYPE
  2
ACAD_ISO15W100
 70
     0
  3
ISO double-dash triple-dot __ __ . . . __ __ . 
 72
    65
 73
    10
 40
1.5399999999999989
 49
0.47
 49
-0.12
 49
0.47
 49
-0.12
 49
0.0
 49
-0.12
 49
0.0
 49
-0.12
 49
0.0
 49
-0.12
  0
LTYPE
  2
FENCELINE1
 70
     0
  3
Fenceline circle ----0-----0----0-----0----0---
 72
    65
 73
     4
 40
1.45
 49
0.25
 49
-0.1
 49
-0.1
 49
1.0
  0
LTYPE
  2
FENCELINE2
 70
     0
  3
Fenceline square ----[]-----[]----[]-----[]----
 72
    65
 73
     4
 40
1.45
 49
0.25
 49
-0.1
 49
-0.1
 49
1.0
  0
LTYPE
  2
TRACKS
 70
     0
  3
Tracks -|-|-|-|-|-|-|-|-|-|-|-|-|-|-|-|-|-|-|-|
 72
    65
 73
     2
 40
0.3
 49
0.15
 49
0.15
  0
LTYPE
  2
BATTING
 70
     0
  3
Batting SSSSSSSSSSSSSSSSSSSSSSSSSSSSSSSSSSSSSSS
 72
    65
 73
     4
 40
0.4001000000000001
 49
0.0001
 49
-0.1
 49
-0.2
 49
-0.1
  0
LTYPE
  2
HOT_WATER_SUPPLY
 70
     0
  3
Hot water supply ---- HW ---- HW ---- HW ----
 72
    65
 73
     3
 40
0.9
 49
0.5
 49
-0.2
 49
-0.2
  0
LTYPE
  2
GAS_LINE
 70
     0
  3
Gas line ----GAS----GAS----GAS----GAS----GAS---
 72
    65
 73
     3
 40
0.95
 49
0.5
 49
-0.2
 49
-0.25
  0
LTYPE
  2
ZIGZAG
 70
     0
  3
Zig zag /\/\/\/\/\/\/\/\/\/\/\/\/\/\/\/\/\/\/\/
 72
    65
 73
     4
 40
0.8001000000000001
 49
0.0001
 49
-0.2
 49
-0.4
 49
-0.2
  0
ENDTAB
  0
TABLE
  2
LAYER
 70
     1
  0
LAYER
  2
0
 70
     0
 62
     7
  6
CONTINUOUS
  0
ENDTAB
  0
TABLE
  2
STYLE
 70
     3
  0
STYLE
  2
STANDARD
 70
     0
 40
0.0
 41
1.0
 50
0.0
 71
     0
 42
0.2
  3
txt
  4

  0
STYLE
  2
ANNOTATIVE
 70
     0
 40
0.0
 41
1.0
 50
0.0
 71
     0
 42
0.2
  3
txt
  4

  0
STYLE
  2

 70
     1
 40
0.0
 41
1.0
 50
0.0
 71
     0
 42
0.2
  3
ltypeshp.shx
  4

  0
ENDTAB
  0
TABLE
  2
VIEW
 70
     0
  0
ENDTAB
  0
TABLE
  2
UCS
 70
     0
  0
ENDTAB
  0
TABLE
  2
APPID
 70
     3
  0
APPID
  2
ACAD
 70
     0
  0
APPID
  2
ACADANNOTATIVE
 70
     0
  0
APPID
  2
ACAD_MLEADERVER
 70
     0
  0
ENDTAB
  0
TABLE
  2
DIMSTYLE
 70
     2
  0
DIMSTYLE
  2
STANDARD
 70
     0
  3

  4

  5

  6

  7

 40
1.0
 41
0.18
 42
0.0625
 43
0.38
 44
0.18
 45
0.0
 46
0.0
 47
0.0
 48
0.0
140
0.18
141
0.09
142
0.0
143
25.399999999999999
144
1.0
145
0.0
146
1.0
147
0.09
 71
     0
 72
     0
 73
     1
 74
     1
 75
     0
 76
     0
 77
     0
 78
     0
170
     0
171
     2
172
     0
173
     0
174
     0
175
     0
176
     0
177
     0
178
     0
  0
DIMSTYLE
  2
ANNOTATIVE
 70
     0
  3

  4

  5

  6

  7

 40
1.0
 41
0.18
 42
0.0625
 43
0.38
 44
0.18
 45
0.0
 46
0.0
 47
0.0
 48
0.0
140
0.18
141
0.09
142
0.0
143
25.399999999999999
144
1.0
145
0.0
146
1.0
147
0.09
 71
     0
 72
     0
 73
     1
 74
     1
 75
     0
 76
     0
 77
     0
 78
     0
170
     0
171
     2
172
     0
173
     0
174
     0
175
     0
176
     0
177
     0
178
     0
  0
ENDTAB
  0
ENDSEC
  0
SECTION
  2
BLOCKS
  0
BLOCK
  8
0
  2
$MODEL_SPACE
 70
     0
 10
0.0
 20
0.0
 30
0.0
  3
$MODEL_SPACE
  1

  0
ENDBLK
  5
73
  8
0
  0
BLOCK
 67
     1
  8
0
  2
$PAPER_SPACE
 70
     0
 10
0.0
 20
0.0
 30
0.0
  3
$PAPER_SPACE
  1

  0
ENDBLK
  5
6F
 67
     1
  8
0
  0
ENDSEC
  0
SECTION
  2
ENTITIES
  0
POLYLINE
  5
B7
  8
0
 66
     1
 10
0.0
 20
0.0
 30
0.0
 70
     1
  0
VERTEX
  5
B8
  8
0
 10
-4.1162499999999982
 20
-1.502501931222858
 30
0.0
  0
VERTEX
  5
B9
  8
0
 10
-2.34375
 20
-1.5025019312228669
 30
0.0
  0
VERTEX
  5
BB
  8
0
 10
-2.343749999999992
 20
0.4474980687771414
 30
0.0
  0
VERTEX
  5
BC
  8
0
 10
-4.1244222197926899
 20
0.447498068777133
 30
0.0
  0
VERTEX
  5
BD
  8
0
 10
-4.1244222197926916
 20
0.6974980687771331
 30
0.0
  0
VERTEX
  5
BE
  8
0
 10
-2.3437499999999929
 20
0.6974980687771413
 30
0.0
  0
VERTEX
  5
BF
  8
0
 10
-2.34375
 20
1.625
 30
0.0
  0
VERTEX
  5
C0
  8
0
 10
-2.21875
 20
1.75
 30
0.0
  0
VERTEX
  5
C1
  8
0
 10
-1.5
 20
1.75
 30
0.0
  0
VERTEX
  5
C2
  8
0
 10
-1.5
 20
5.4036821444850061
 30
0.0
 42
-0.3429797050975352
  0
VERTEX
  5
C3
  8
0
 10
-1.4058247466957441
 20
5.5248218778145102
 30
0.0
 42
-0.1252327134623151
  0
VERTEX
  5
C4
  8
0
 10
1.4058247466957421
 20
5.5248218778145102
 30
0.0
 42
-0.3429797050975356
  0
VERTEX
  5
C5
  8
0
 10
1.5
 20
5.4036821444850061
 30
0.0
  0
VERTEX
  5
C6
  8
0
 10
1.5
 20
1.75
 30
0.0
  0
VERTEX
  5
C7
  8
0
 10
2.21875
 20
1.75
 30
0.0
  0
VERTEX
  5
C8
  8
0
 10
2.34375
 20
1.625
 30
0.0
  0
VERTEX
  5
C9
  8
0
 10
2.3437499999999929
 20
0.6974980687771414
 30
0.0
  0
VERTEX
  5
CA
  8
0
 10
4.1244222197926916
 20
0.6974980687771331
 30
0.0
  0
VERTEX
  5
CB
  8
0
 10
4.1244222197926899
 20
0.447498068777133
 30
0.0
  0
VERTEX
  5
CC
  8
0
 10
2.343749999999992
 20
0.4474980687771414
 30
0.0
  0
VERTEX
  5
CD
  8
0
 10
2.3437500000000009
 20
-1.502501931222858
 30
0.0
  0
VERTEX
  5
CE
  8
0
 10
4.1244222197926987
 20
-1.5025019312228669
 30
0.0
  0
VERTEX
  5
CF
  8
0
 10
4.1244222197926979
 20
-1.7525019312228669
 30
0.0
  0
VERTEX
  5
D0
  8
0
 10
2.34375
 20
-1.7525019312228589
 30
0.0
  0
VERTEX
  5
D1
  8
0
 10
2.34375
 20
-1.75
 30
0.0
  0
VERTEX
  5
D2
  8
0
 10
1.5
 20
-1.75
 30
0.0
  0
VERTEX
  5
D3
  8
0
 10
1.5
 20
-5.4036821444850061
 30
0.0
 42
-0.3429797050975356
  0
VERTEX
  5
D4
  8
0
 10
1.4058247466957441
 20
-5.5248218778145102
 30
0.0
 42
-0.125232713462315
  0
VERTEX
  5
D5
  8
0
 10
-1.405824746695741
 20
-5.5248218778145102
 30
0.0
 42
-0.3429797050975352
  0
VERTEX
  5
D6
  8
0
 10
-1.5
 20
-5.4036821444850061
 30
0.0
  0
VERTEX
  5
D7
  8
0
 10
-1.5
 20
-1.75
 30
0.0
  0
VERTEX
  5
D8
  8
0
 10
-2.3355777802073008
 20
-1.75
 30
0.0
  0
VERTEX
  5
D9
  8
0
 10
-2.3355777802073008
 20
-1.7525019312228669
 30
0.0
  0
VERTEX
  5
DA
  8
0
 10
-4.1162499999999991
 20
-1.7525019312228589
 30
0.0
  0
SEQEND
  5
BA
  8
0
  0
POLYLINE
  5
DC
  8
0
 66
     1
 10
0.0
 20
0.0
 30
0.0
 70
     1
  0
VERTEX
  5
DD
  8
0
 10
-0.3585013002641637
 20
6.8406123130688288
 30
0.0
 42
0.0404151429548667
  0
VERTEX
  5
DE
  8
0
 10
-0.4236802350442517
 20
6.6114385770747992
 30
0.0
 42
0.0029088902912846
  0
VERTEX
  5
E0
  8
0
 10
-0.5005774004572476
 20
6.6060614034499761
 30
0.0
 42
0.0404151429548667
  0
VERTEX
  5
E1
  8
0
 10
-0.5970168378214518
 20
6.8239336819284553
 30
0.0
 42
0.0029088902912798
  0
VERTEX
  5
E2
  8
0
 10
-0.6763747067602618
 20
6.8165253066393703
 30
0.0
 42
0.0404151429548669
  0
VERTEX
  5
E3
  8
0
 10
-0.7308206803962645
 20
6.5845672699961941
 30
0.0
 42
0.0029088902912798
  0
VERTEX
  5
E4
  8
0
 10
-0.8073844000590984
 20
6.575618254623758
 30
0.0
 42
0.0404151429548664
  0
VERTEX
  5
E5
  8
0
 10
-0.9138559800255077
 20
6.7887677267506801
 30
0.0
 42
0.0029088902912798
  0
VERTEX
  5
E6
  8
0
 10
-0.9927832362546422
 20
6.7776752242794691
 30
0.0
 42
0.0404151429548664
  0
VERTEX
  5
E7
  8
0
 10
-1.0363783308915311
 20
6.5434352564427858
 30
0.0
 42
0.0029088902912798
  0
VERTEX
  5
E8
  8
0
 10
-1.112442784836396
 20
6.5309337808972936
 30
0.0
 42
0.0404151429548669
  0
VERTEX
  5
E9
  8
0
 10
-1.2287159136715811
 20
6.738898812379527
 30
0.0
 42
0.0029088902912775
  0
VERTEX
  5
EA
  8
0
 10
-1.3070416183293301
 20
6.7241462066164983
 30
0.0
 42
0.0404151429548672
  0
VERTEX
  5
EB
  8
0
 10
-1.3396914166997489
 20
6.4881316191967766
 30
0.0
 42
0.0029088902912798
  0
VERTEX
  5
EC
  8
0
 10
-1.4150918662572101
 20
6.4721047588904703
 30
0.0
 42
0.0404151429548669
  0
VERTEX
  5
ED
  8
0
 10
-1.54091472225547
 20
6.674434943778861
 30
0.0
 42
0.0029088902912775
  0
VERTEX
  5
EE
  8
0
 10
-1.6184692393068929
 20
6.6560541855830291
 30
0.0
 42
0.0404151429548669
  0
VERTEX
  5
EF
  8
0
 10
-1.6401030292179331
 20
6.4187761336215923
 30
0.0
 42
0.0029088902912798
  0
VERTEX
  5
F0
  8
0
 10
-1.7146761738041969
 20
6.3992585991650772
 30
0.0
 42
0.0404151429548667
  0
VERTEX
  5
F1
  8
0
 10
-1.8497762526773021
 20
6.5955157353334464
 30
0.0
 42
0.0029088902912798
  0
VERTEX
  5
F2
  8
0
 10
-1.9263916163080661
 20
6.5735466333340931
 30
0.0
 42
0.0404151429548669
  0
VERTEX
  5
F3
  8
0
 10
-1.936962543788127
 20
6.3355190082551101
 30
0.0
 42
0.0029088902912798
  0
VERTEX
  5
F4
  8
0
 10
-2.0105468745777491
 20
6.3125530702819148
 30
0.0
 42
0.0404151429548667
  0
VERTEX
  5
F5
  8
0
 10
-2.1546315796385471
 20
6.502312108475282
 30
0.0
 42
0.0029088902912798
  0
VERTEX
  5
F6
  8
0
 10
-2.2301418580315242
 20
6.4768022428553191
 30
0.0
 42
0.0404151429548669
  0
VERTEX
  5
F7
  8
0
 10
-2.2296270288055871
 20
6.2385405594914234
 30
0.0
 42
0.0029088902912798
  0
VERTEX
  5
F8
  8
0
 10
-2.3020631785236172
 20
6.2121759571092108
 30
0.0
 42
0.0404151429548669
  0
VERTEX
  5
F9
  8
0
 10
-2.4548204543853029
 20
6.395025921505832
 30
0.0
 42
0.0029088902912798
  0
VERTEX
  5
FA
  8
0
 10
-2.5290621090918899
 20
6.366030540953731
 30
0.0
 42
0.0404151429548669
  0
VERTEX
  5
FB
  8
0
 10
-2.5174626381654188
 20
6.1280508210556803
 30
0.0
 42
0.0029088902912798
  0
VERTEX
  5
FC
  8
0
 10
-2.5885937262414371
 20
6.0983446541224167
 30
0.0
 42
0.0404151429548669
  0
VERTEX
  5
FD
  8
0
 10
-2.7496927346600342
 20
6.2738895324159012
 30
0.0
 42
0.0029088902912798
  0
VERTEX
  5
FE
  8
0
 10
-2.8225049747880471
 20
6.2414714344693358
 30
0.0
 42
0.0404151429548669
  0
VERTEX
  5
FF
  8
0
 10
-2.7998459840321321
 20
6.0042890891178047
 30
0.0
 42
0.0029088902912798
  0
VERTEX
  5
100
  8
0
 10
-2.8695179563686248
 20
5.9713056945761878
 30
0.0
 42
0.0404151429548667
  0
VERTEX
  5
101
  8
0
 10
-3.0386097927649511
 20
6.1391652956499652
 30
0.0
 42
0.0029088902912798
  0
VERTEX
  5
102
  8
0
 10
-3.1098349232158968
 20
6.103394690690318
 30
0.0
 42
0.0404151429548667
  0
VERTEX
  5
103
  8
0
 10
-3.0761654869588781
 20
5.8675234040302771
 30
0.0
 42
0.0029088902912798
  0
VERTEX
  5
104
  8
0
 10
-3.1442274495781151
 20
5.831334216568238
 30
0.0
 42
0.0404151429548669
  0
VERTEX
  5
105
  8
0
 10
-3.320945898687405
 20
5.9911449939048609
 30
0.0
 42
0.0029088902912798
  0
VERTEX
  5
106
  8
0
 10
-3.3904296616889189
 20
5.9520993530971866
 30
0.0
 42
0.0404151429548667
  0
VERTEX
  5
107
  8
0
 10
-3.345822700432318
 20
5.7180499698124159
 30
0.0
 42
0.0029088902912846
  0
VERTEX
  5
108
  8
0
 10
-3.4121272462791041
 20
5.678733367151497
 30
0.0
 42
0.0404151429548669
  0
VERTEX
  5
109
  8
0
 10
-3.5960895752917308
 20
5.8301492061934503
 30
0.0
 42
0.0029088902912798
  0
VERTEX
  5
10A
  8
0
 10
-3.6636814844855992
 20
5.7879130937011647
 30
0.0
 42
0.0404151429548669
  0
VERTEX
  5
10B
  8
0
 10
-3.6082336069745531
 20
5.5561925126384333
 30
0.0
 42
0.0029088902912798
  0
VERTEX
  5
10C
  8
0
 10
-3.6726371351670819
 20
5.5138336457850921
 30
0.0
 42
0.0404151429548664
  0
VERTEX
  5
10D
  8
0
 10
-3.8634449226425942
 20
5.6565266135418408
 30
0.0
 42
0.0029088902912798
  0
VERTEX
  5
10E
  8
0
 10
-3.928998589004669
 20
5.6111915033795912
 30
0.0
 42
0.0404151429548669
  0
VERTEX
  5
10F
  8
0
 10
-3.8628298829948942
 20
5.3823015797186269
 30
0.0
 42
0.0029088902912775
  0
VERTEX
  5
110
  8
0
 10
-3.92519290983229
 20
5.3369921885461213
 30
0.0
 42
0.0404151429548669
  0
VERTEX
  5
111
  8
0
 10
-4.122432908591529
 20
5.4706532438239561
 30
0.0
 42
0.0029088902912798
  0
VERTEX
  5
112
  8
0
 10
-4.1858063574777562
 20
5.42231732174527
 30
0.0
 42
0.0404151429548667
  0
VERTEX
  5
113
  8
0
 10
-4.10906012965222
 20
5.1967537800921901
 30
0.0
 42
0.0029088902912798
  0
VERTEX
  5
114
  8
0
 10
-4.1692475907051687
 20
5.1485919946524339
 30
0.0
 42
0.0404151429548667
  0
VERTEX
  5
115
  8
0
 10
-4.3724926228316434
 20
5.2729316573688712
 30
0.0
 42
0.0029088902912798
  0
VERTEX
  5
116
  8
0
 10
-4.4335486014635608
 20
5.2216996082176621
 30
0.0
 42
0.0404151429548662
  0
VERTEX
  5
117
  8
0
 10
-4.3463910670621111
 20
4.9999509689758641
 30
0.0
 42
0.0029088902912846
  0
VERTEX
  5
118
  8
0
 10
-4.4042726096923364
 20
4.9490410969715981
 30
0.0
 42
0.0404151429548671
  0
VERTEX
  5
119
  8
0
 10
-4.6130824917044642
 20
5.0637900751047837
 30
0.0
 42
0.0029088902912798
  0
VERTEX
  5
11A
  8
0
 10
-4.6716887664281108
 20
5.0097728560913204
 30
0.0
 42
0.0404151429548671
  0
VERTEX
  5
11B
  8
0
 10
-4.574308689262276
 20
4.7923193774350672
 30
0.0
 42
0.0029088902912846
  0
VERTEX
  5
11C
  8
0
 10
-4.6297589549373326
 20
4.7387716783125953
 30
0.0
 42
0.0404151429548669
  0
VERTEX
  5
11D
  8
0
 10
-4.8436814511278463
 20
4.8436814511278534
 30
0.0
 42
0.0029088902912798
  0
VERTEX
  5
11E
  8
0
 10
-4.8997110938024511
 20
4.7869960515201146
 30
0.0
 42
0.0404151429548667
  0
VERTEX
  5
11F
  8
0
 10
-4.7923193774350654
 20
4.5743086892622777
 30
0.0
 42
0.0029088902912846
  0
VERTEX
  5
120
  8
0
 10
-4.845218273227001
 20
4.5182391354140528
 30
0.0
 42
0.0404151429548669
  0
VERTEX
  5
121
  8
0
 10
-5.0637900751047802
 20
4.6130824917044704
 30
0.0
 42
0.0029088902912798
  0
VERTEX
  5
122
  8
0
 10
-5.1171217380008223
 20
4.5538516794554731
 30
0.0
 42
0.0404151429548671
  0
VERTEX
  5
123
  8
0
 10
-4.999950968975865
 20
4.3463910670621093
 30
0.0
 42
0.0029088902912798
  0
VERTEX
  5
124
  8
0
 10
-5.0501839276557687
 20
4.287921092656366
 30
0.0
 42
0.0404151429548669
  0
VERTEX
  5
125
  8
0
 10
-5.2729316573688676
 20
4.3724926228316487
 30
0.0
 42
0.0029088902912798
  0
VERTEX
  5
126
  8
0
 10
-5.3234498359802478
 20
4.310844678691387
 30
0.0
 42
0.0404151429548669
  0
VERTEX
  5
127
  8
0
 10
-5.1967537800921866
 20
4.1090601296522227
 30
0.0
 42
0.0029088902912798
  0
VERTEX
  5
128
  8
0
 10
-5.2442120082572821
 20
4.0483163676336007
 30
0.0
 42
0.0404151429548667
  0
VERTEX
  5
129
  8
0
 10
-5.4706532438239517
 20
4.1224329085915343
 30
0.0
 42
0.0029088902912775
  0
VERTEX
  5
12A
  8
0
 10
-5.5182485270250448
 20
4.0585013482794263
 30
0.0
 42
0.0404151429548671
  0
VERTEX
  5
12B
  8
0
 10
-5.3823015797186304
 20
3.8628298829948911
 30
0.0
 42
0.0029088902912798
  0
VERTEX
  5
12C
  8
0
 10
-5.4268822934145691
 20
3.7999438908256811
 30
0.0
 42
0.0404151429548667
  0
VERTEX
  5
12D
  8
0
 10
-5.6565266135418382
 20
3.8634449226425991
 30
0.0
 42
0.0029088902912798
  0
VERTEX
  5
12E
  8
0
 10
-5.7010959205476013
 20
3.7973682076821951
 30
0.0
 42
0.0404151429548669
  0
VERTEX
  5
12F
  8
0
 10
-5.5561925126384324
 20
3.6082336069745549
 30
0.0
 42
0.0029088902912798
  0
VERTEX
  5
130
  8
0
 10
-5.5977991599664509
 20
3.5433415817105289
 30
0.0
 42
0.0404151429548667
  0
VERTEX
  5
131
  8
0
 10
-5.8301492061934432
 20
3.596089575291741
 30
0.0
 42
0.0029088902912798
  0
VERTEX
  5
132
  8
0
 10
-5.8715960098094682
 20
3.5280108131338719
 30
0.0
 42
0.0404151429548664
  0
VERTEX
  5
133
  8
0
 10
-5.718049969812415
 20
3.3458227004323211
 30
0.0
 42
0.0029088902912846
  0
VERTEX
  5
134
  8
0
 10
-5.7565924400392481
 20
3.2790651837502369
 30
0.0
 42
0.0404151429548666
  0
VERTEX
  5
135
  8
0
 10
-5.9911449939048591
 20
3.3209458986874112
 30
0.0
 42
0.0029088902912798
  0
VERTEX
  5
136
  8
0
 10
-6.0293795295837631
 20
3.2510125327713331
 30
0.0
 42
0.0404151429548669
  0
VERTEX
  5
137
  8
0
 10
-5.8675234040302779
 20
3.0761654869588742
 30
0.0
 42
0.0029088902912798
  0
VERTEX
  5
138
  8
0
 10
-5.902918222747938
 20
3.0076870607744981
 30
0.0
 42
0.0404151429548666
  0
VERTEX
  5
139
  8
0
 10
-6.1391652956499634
 20
3.0386097927649551
 30
0.0
 42
0.0029088902912775
  0
VERTEX
  5
13A
  8
0
 10
-6.1741047559014151
 20
2.9669732831886981
 30
0.0
 42
0.0404151429548667
  0
VERTEX
  5
13B
  8
0
 10
-6.0042890891178047
 20
2.7998459840321348
 30
0.0
 42
0.0029088902912798
  0
VERTEX
  5
13C
  8
0
 10
-6.036459599030561
 20
2.7297949573680058
 30
0.0
 42
0.0404151429548666
  0
VERTEX
  5
13D
  8
0
 10
-6.2738895324158976
 20
2.7496927346600399
 30
0.0
 42
0.0029088902912775
  0
VERTEX
  5
13E
  8
0
 10
-6.3054582461492172
 20
2.6765082301515219
 30
0.0
 42
0.0404151429548669
  0
VERTEX
  5
13F
  8
0
 10
-6.1280508210556821
 20
2.5174626381654148
 30
0.0
 42
0.0029088902912798
  0
VERTEX
  5
140
  8
0
 10
-6.1569273480026974
 20
2.445990725946535
 30
0.0
 42
0.0404151429548667
  0
VERTEX
  5
141
  8
0
 10
-6.3950259215058303
 20
2.4548204543853069
 30
0.0
 42
0.0029088902912775
  0
VERTEX
  5
142
  8
0
 10
-6.4231555179166913
 20
2.3802464562848029
 30
0.0
 42
0.0404151429548669
  0
VERTEX
  5
143
  8
0
 10
-6.2385405594914216
 20
2.2296270288055879
 30
0.0
 42
0.0029088902912798
  0
VERTEX
  5
144
  8
0
 10
-6.2640605633454713
 20
2.1568890232786671
 30
0.0
 42
0.0404151429548667
  0
VERTEX
  5
145
  8
0
 10
-6.5023121084752802
 20
2.1546315796385578
 30
0.0
 42
0.0029088902912775
  0
VERTEX
  5
146
  8
0
 10
-6.5269416651216767
 20
2.078829598620016
 30
0.0
 42
0.0404151429548664
  0
VERTEX
  5
147
  8
0
 10
-6.3355190082551101
 20
1.9369625437881299
 30
0.0
 42
0.0029088902912775
  0
VERTEX
  5
148
  8
0
 10
-6.3576272183705642
 20
1.863115979276055
 30
0.0
 42
0.0404151429548669
  0
VERTEX
  5
149
  8
0
 10
-6.5955157353334464
 20
1.8497762526773069
 30
0.0
 42
0.0029088902912727
  0
VERTEX
  5
14A
  8
0
 10
-6.6165919100801167
 20
1.7729104589522691
 30
0.0
 42
0.0404151429548667
  0
VERTEX
  5
14B
  8
0
 10
-6.4187761336215923
 20
1.640103029217935
 30
0.0
 42
0.0029088902912798
  0
VERTEX
  5
14C
  8
0
 10
-6.4374246685383296
 20
1.5653078409355039
 30
0.0
 42
0.0404151429548664
  0
VERTEX
  5
14D
  8
0
 10
-6.6744349437788584
 20
1.5409147222554811
 30
0.0
 42
0.0029088902912775
  0
VERTEX
  5
14E
  8
0
 10
-6.6919120903244851
 20
1.463151590016893
 30
0.0
 42
0.0404151429548667
  0
VERTEX
  5
14F
  8
0
 10
-6.4881316191967766
 20
1.3396914166997509
 30
0.0
 42
0.0029088902912775
  0
VERTEX
  5
150
  8
0
 10
-6.5032800903407733
 20
1.264109594369613
 30
0.0
 42
0.0404151429548671
  0
VERTEX
  5
151
  8
0
 10
-6.738898812379527
 20
1.2287159136715859
 30
0.0
 42
0.0029088902912775
  0
VERTEX
  5
152
  8
0
 10
-6.7527390791164494
 20
1.150223860547819
 30
0.0
 42
0.0404151429548669
  0
VERTEX
  5
153
  8
0
 10
-6.5434352564427858
 20
1.0363783308915271
 30
0.0
 42
0.0029088902912798
  0
VERTEX
  5
154
  8
0
 10
-6.5550508555987559
 20
0.9601735679105111
 30
0.0
 42
0.0404151429548664
  0
VERTEX
  5
155
  8
0
 10
-6.7887677267506801
 20
0.9138559800255137
 30
0.0
 42
0.0029088902912775
  0
VERTEX
  5
156
  8
0
 10
-6.7989411387430563
 20
0.8348050023252607
 30
0.0
 42
0.0404151429548669
  0
VERTEX
  5
157
  8
0
 10
-6.5845672699961941
 20
0.7308206803962677
 30
0.0
 42
0.0029088902912775
  0
VERTEX
  5
158
  8
0
 10
-6.5926248403628938
 20
0.6541580193119376
 30
0.0
 42
0.0404151429548664
  0
VERTEX
  5
159
  8
0
 10
-6.8239336819284544
 20
0.5970168378214645
 30
0.0
 42
0.0029088902912798
  0
VERTEX
  5
15A
  8
0
 10
-6.8304182058312941
 20
0.5175781423595735
 30
0.0
 42
0.0404151429548669
  0
VERTEX
  5
15B
  8
0
 10
-6.6114385770747992
 20
0.4236802350442543
 30
0.0
 42
0.0029088902912775
  0
VERTEX
  5
15C
  8
0
 10
-6.6159206677490507
 20
0.3467257101095056
 30
0.0
 42
0.0404151429548667
  0
VERTEX
  5
15D
  8
0
 10
-6.844320516284589
 20
0.2788846900886346
 30
0.0
 42
0.0029088902912775
  0
VERTEX
  5
15E
  8
0
 10
-6.8471021080630727
 20
0.1992303233903178
 30
0.0
 42
0.0404151429548671
  0
VERTEX
  5
15F
  8
0
 10
-6.623990980411091
 20
0.1156221926470072
 30
0.0
 42
0.0029088902912798
  0
VERTEX
  5
160
  8
0
 10
-6.6248878841825549
 20
0.0385424702268404
 30
0.0
 42
0.0404151429548671
  0
VERTEX
  5
161
  8
0
 10
-6.8498840764755462
 20
-0.0398514597817009
 30
0.0
 42
0.0029088902912798
  0
VERTEX
  5
162
  8
0
 10
-6.8489567118212804
 20
-0.1195489840953898
 30
0.0
 42
0.0404151429548671
  0
VERTEX
  5
163
  8
0
 10
-6.6221972942945779
 20
-0.1926862616731114
 30
0.0
 42
0.0029088902912798
  0
VERTEX
  5
164
  8
0
 10
-6.6195070686694022
 20
-0.2697242440638185
 30
0.0
 42
0.0404151429548667
  0
VERTEX
  5
165
  8
0
 10
-6.8406123130688288
 20
-0.3585013002641604
 30
0.0
 42
0.0029088902912798
  0
VERTEX
  5
166
  8
0
 10
-6.8359780004471489
 20
-0.438069375102365
 30
0.0
 42
0.0404151429548666
  0
VERTEX
  5
167
  8
0
 10
-6.6060614034499761
 20
-0.5005774004572551
 30
0.0
 42
0.0029088902912846
  0
VERTEX
  5
168
  8
0
 10
-6.599789874857815
 20
-0.5774067957032341
 30
0.0
 42
0.0404151429548667
  0
VERTEX
  5
169
  8
0
 10
-6.8165253066393703
 20
-0.6763747067602611
 30
0.0
 42
0.0029088902912798
  0
VERTEX
  5
16A
  8
0
 10
-6.80819408293946
 20
-0.7556410053908551
 30
0.0
 42
0.0404151429548669
  0
VERTEX
  5
16B
  8
0
 10
-6.575618254623758
 20
-0.8073844000591011
 30
0.0
 42
0.0029088902912846
  0
VERTEX
  5
16C
  8
0
 10
-6.5657790057990182
 20
-0.8838388127983947
 30
0.0
 42
0.0404151429548664
  0
VERTEX
  5
16D
  8
0
 10
-6.7776752242794691
 20
-0.9927832362546357
 30
0.0
 42
0.0029088902912798
  0
VERTEX
  5
16E
  8
0
 10
-6.7656651330766922
 20
-1.0715760855255829
 30
0.0
 42
0.0404151429548671
  0
VERTEX
  5
16F
  8
0
 10
-6.5309337808972936
 20
-1.1124427848363989
 30
0.0
 42
0.0029088902912798
  0
VERTEX
  5
170
  8
0
 10
-6.5175481214619513
 20
-1.1883566318356551
 30
0.0
 42
0.0404151429548667
  0
VERTEX
  5
171
  8
0
 10
-6.7241462066164956
 20
-1.3070416183293301
 30
0.0
 42
0.0029088902912798
  0
VERTEX
  5
172
  8
0
 10
-6.7084832590940282
 20
-1.3851903704744579
 30
0.0
 42
0.0404151429548664
  0
VERTEX
  5
173
  8
0
 10
-6.4721047588904721
 20
-1.4150918662572121
 30
0.0
 42
0.0029088902912798
  0
VERTEX
  5
174
  8
0
 10
-6.455201679202184
 20
-1.490300735028099
 30
0.0
 42
0.0404151429548667
  0
VERTEX
  5
175
  8
0
 10
-6.6560541855830291
 20
-1.6184692393068869
 30
0.0
 42
0.0029088902912775
  0
VERTEX
  5
176
  8
0
 10
-6.6367723041974189
 20
-1.6958046415309951
 30
0.0
 42
0.0404151429548669
  0
VERTEX
  5
177
  8
0
 10
-6.3992585991650772
 20
-1.7146761738041989
 30
0.0
 42
0.0029088902912775
  0
VERTEX
  5
178
  8
0
 10
-6.3788747075305263
 20
-1.789017178684251
 30
0.0
 42
0.0404151429548669
  0
VERTEX
  5
179
  8
0
 10
-6.5735466333340931
 20
-1.9263916163080641
 30
0.0
 42
0.0029088902912798
  0
VERTEX
  5
17A
  8
0
 10
-6.5506875783467908
 20
-2.0027461773507489
 30
0.0
 42
0.0404151429548669
  0
VERTEX
  5
17B
  8
0
 10
-6.3125530702819121
 20
-2.010546874577757
 30
0.0
 42
0.0029088902912798
  0
VERTEX
  5
17C
  8
0
 10
-6.2887325136713503
 20
-2.0838590095044389
 30
0.0
 42
0.0404151429548667
  0
VERTEX
  5
17D
  8
0
 10
-6.4768022428553191
 20
-2.2301418580315211
 30
0.0
 42
0.0029088902912798
  0
VERTEX
  5
17E
  8
0
 10
-6.4504155218892461
 20
-2.3053502109159618
 30
0.0
 42
0.0404151429548667
  0
VERTEX
  5
17F
  8
0
 10
-6.212175957109209
 20
-2.3020631785236172
 30
0.0
 42
0.0029088902912798
  0
VERTEX
  5
180
  8
0
 10
-6.1849703255439623
 20
-2.3741876657376091
 30
0.0
 42
0.0404151429548671
  0
VERTEX
  5
181
  8
0
 10
-6.3660305409537354
 20
-2.5290621090918819
 30
0.0
 42
0.0029088902912798
  0
VERTEX
  5
182
  8
0
 10
-6.3361733017707804
 20
-2.6029613692729212
 30
0.0
 42
0.0404151429548669
  0
VERTEX
  5
183
  8
0
 10
-6.0983446541224167
 20
-2.588593726241438
 30
0.0
 42
0.0029088902912798
  0
VERTEX
  5
184
  8
0
 10
-6.0678128689423856
 20
-2.6593743601639011
 30
0.0
 42
0.0404151429548671
  0
VERTEX
  5
185
  8
0
 10
-6.2414714344693358
 20
-2.822504974788044
 30
0.0
 42
0.0029088902912775
  0
VERTEX
  5
186
  8
0
 10
-6.208208341201054
 20
-2.8949350929237871
 30
0.0
 42
0.0404151429548669
  0
VERTEX
  5
187
  8
0
 10
-5.9713056945761886
 20
-2.8695179563686262
 30
0.0
 42
0.0029088902912775
  0
VERTEX
  5
188
  8
0
 10
-5.9375138808293473
 20
-2.9388014419077071
 30
0.0
 42
0.0404151429548666
  0
VERTEX
  5
189
  8
0
 10
-6.1033946906903207
 20
-3.1098349232158879
 30
0.0
 42
0.0029088902912798
  0
VERTEX
  5
18A
  8
0
 10
-6.0667977837897951
 20
-3.1806390317989912
 30
0.0
 42
0.0404151429548667
  0
VERTEX
  5
18B
  8
0
 10
-5.8313342165682371
 20
-3.144227449578116
 30
0.0
 42
0.0029088902912775
  0
VERTEX
  5
18C
  8
0
 10
-5.7943555597985004
 20
-3.2118637341319798
 30
0.0
 42
0.0404151429548664
  0
VERTEX
  5
18D
  8
0
 10
-5.9520993530971866
 20
-3.3904296616889158
 30
0.0
 42
0.0029088902912798
  0
VERTEX
  5
18E
  8
0
 10
-5.9122478933154783
 20
-3.4594544147866269
 30
0.0
 42
0.0404151429548669
  0
VERTEX
  5
18F
  8
0
 10
-5.6787333671514926
 20
-3.412127246279109
 30
0.0
 42
0.0029088902912798
  0
VERTEX
  5
190
  8
0
 10
-5.6386479548951227
 20
-3.4779698447164602
 30
0.0
 42
0.0404151429548664
  0
VERTEX
  5
191
  8
0
 10
-5.7879130937011629
 20
-3.6636814844855978
 30
0.0
 42
0.0029088902912798
  0
VERTEX
  5
192
  8
0
 10
-5.7448933904261548
 20
-3.7307773898529328
 30
0.0
 42
0.0404151429548667
  0
VERTEX
  5
193
  8
0
 10
-5.5138336457850921
 20
-3.6726371351670828
 30
0.0
 42
0.0029088902912798
  0
VERTEX
  5
194
  8
0
 10
-5.4707282941189357
 20
-3.736543447081341
 30
0.0
 42
0.0404151429548667
  0
VERTEX
  5
195
  8
0
 10
-5.6111915033795974
 20
-3.9289985890046601
 30
0.0
 42
0.0029088902912798
  0
VERTEX
  5
196
  8
0
 10
-5.5650967277090739
 20
-3.9940203318513219
 30
0.0
 42
0.0404151429548664
  0
VERTEX
  5
197
  8
0
 10
-5.3369921885461213
 20
-3.92519290983229
 30
0.0
 42
0.0029088902912775
  0
VERTEX
  5
198
  8
0
 10
-5.2909602540633172
 20
-3.9870245283823191
 30
0.0
 42
0.0404151429548669
  0
VERTEX
  5
199
  8
0
 10
-5.4223173217452691
 20
-4.1858063574777562
 30
0.0
 42
0.0029088902912798
  0
VERTEX
  5
19A
  8
0
 10
-5.3732473046990963
 20
-4.2486131151875766
 30
0.0
 42
0.0404151429548671
  0
VERTEX
  5
19B
  8
0
 10
-5.148591994652433
 20
-4.1692475907051696
 30
0.0
 42
0.0029088902912798
  0
VERTEX
  5
19C
  8
0
 10
-5.0997331722728161
 20
-4.2288706023736706
 30
0.0
 42
0.0404151429548667
  0
VERTEX
  5
19D
  8
0
 10
-5.2216996082176657
 20
-4.4335486014635563
 30
0.0
 42
0.0029088902912798
  0
VERTEX
  5
19E
  8
0
 10
-5.1697606245259893
 20
-4.4940043485849719
 30
0.0
 42
0.0404151429548669
  0
VERTEX
  5
19F
  8
0
 10
-4.9490410969715981
 20
-4.4042726096923364
 30
0.0
 42
0.0029088902912798
  0
VERTEX
  5
1A0
  8
0
 10
-4.8974612040247001
 20
-4.4615578843127119
 30
0.0
 42
0.0404151429548669
  0
VERTEX
  5
1A1
  8
0
 10
-5.0097728560913177
 20
-4.6716887664281108
 30
0.0
 42
0.0029088902912798
  0
VERTEX
  5
1A2
  8
0
 10
-4.9550773940271977
 20
-4.7296625692749599
 30
0.0
 42
0.0404151429548671
  0
VERTEX
  5
1A3
  8
0
 10
-4.7387716783125908
 20
-4.6297589549373361
 30
0.0
 42
0.0029088902912798
  0
VERTEX
  5
1A4
  8
0
 10
-4.6845824253608797
 20
-4.6845824253608752
 30
0.0
 42
0.0404151429548667
  0
VERTEX
  5
1A5
  8
0
 10
-4.7869960515201173
 20
-4.8997110938024484
 30
0.0
 42
0.0029088902912775
  0
VERTEX
  5
1A6
  8
0
 10
-4.729662569274959
 20
-4.9550773940271986
 30
0.0
 42
0.0404151429548669
  0
VERTEX
  5
1A7
  8
0
 10
-4.5182391354140528
 20
-4.8452182732270028
 30
0.0
 42
0.0029088902912775
  0
VERTEX
  5
1A8
  8
0
 10
-4.4615578843127182
 20
-4.8974612040246948
 30
0.0
 42
0.0404151429548669
  0
VERTEX
  5
1A9
  8
0
 10
-4.5538516794554758
 20
-5.1171217380008178
 30
0.0
 42
0.0029088902912798
  0
VERTEX
  5
1AA
  8
0
 10
-4.4940043485849737
 20
-5.1697606245259884
 30
0.0
 42
0.0404151429548667
  0
VERTEX
  5
1AB
  8
0
 10
-4.287921092656366
 20
-5.050183927655767
 30
0.0
 42
0.0029088902912775
  0
VERTEX
  5
1AC
  8
0
 10
-4.2288706023736751
 20
-5.099733172272809
 30
0.0
 42
0.0404151429548669
  0
VERTEX
  5
1AD
  8
0
 10
-4.3108446786913897
 20
-5.323449835980246
 30
0.0
 42
0.0029088902912775
  0
VERTEX
  5
1AE
  8
0
 10
-4.2486131151875801
 20
-5.3732473046990954
 30
0.0
 42
0.0404151429548671
  0
VERTEX
  5
1AF
  8
0
 10
-4.048316367633598
 20
-5.2442120082572847
 30
0.0
 42
0.0029088902912798
  0
VERTEX
  5
1B0
  8
0
 10
-3.98702452838232
 20
-5.2909602540633163
 30
0.0
 42
0.0404151429548667
  0
VERTEX
  5
1B1
  8
0
 10
-4.0585013482794263
 20
-5.518248527025043
 30
0.0
 42
0.0029088902912775
  0
VERTEX
  5
1B2
  8
0
 10
-3.9940203318513232
 20
-5.565096727709073
 30
0.0
 42
0.0404151429548671
  0
VERTEX
  5
1B3
  8
0
 10
-3.7999438908256788
 20
-5.4268822934145691
 30
0.0
 42
0.0029088902912798
  0
VERTEX
  5
1B4
  8
0
 10
-3.7365434470813481
 20
-5.470728294118933
 30
0.0
 42
0.0404151429548669
  0
VERTEX
  5
1B5
  8
0
 10
-3.7973682076821982
 20
-5.7010959205476004
 30
0.0
 42
0.0029088902912798
  0
VERTEX
  5
1B6
  8
0
 10
-3.7307773898529342
 20
-5.7448933904261539
 30
0.0
 42
0.0404151429548669
  0
VERTEX
  5
1B7
  8
0
 10
-3.5433415817105272
 20
-5.5977991599664527
 30
0.0
 42
0.0029088902912798
  0
VERTEX
  5
1B8
  8
0
 10
-3.477969844716462
 20
-5.6386479548951227
 30
0.0
 42
0.0404151429548666
  0
VERTEX
  5
1B9
  8
0
 10
-3.5280108131338741
 20
-5.8715960098094646
 30
0.0
 42
0.0029088902912798
  0
VERTEX
  5
1BA
  8
0
 10
-3.4594544147866291
 20
-5.9122478933154774
 30
0.0
 42
0.0404151429548669
  0
VERTEX
  5
1BB
  8
0
 10
-3.2790651837502351
 20
-5.7565924400392481
 30
0.0
 42
0.0029088902912798
  0
VERTEX
  5
1BC
  8
0
 10
-3.211863734131986
 20
-5.794355559798495
 30
0.0
 42
0.0404151429548664
  0
VERTEX
  5
1BD
  8
0
 10
-3.2510125327713402
 20
-6.0293795295837569
 30
0.0
 42
0.0029088902912798
  0
VERTEX
  5
1BE
  8
0
 10
-3.180639031798989
 20
-6.0667977837897951
 30
0.0
 42
0.0404151429548669
  0
VERTEX
  5
1BF
  8
0
 10
-3.0076870607744981
 20
-5.9029182227479362
 30
0.0
 42
0.0029088902912798
  0
VERTEX
  5
1C0
  8
0
 10
-2.93880144190772
 20
-5.937513880829342
 30
0.0
 42
0.0404151429548669
  0
VERTEX
  5
1C1
  8
0
 10
-2.9669732831886999
 20
-6.1741047559014133
 30
0.0
 42
0.0029088902912798
  0
VERTEX
  5
1C2
  8
0
 10
-2.894935092923788
 20
-6.2082083412010531
 30
0.0
 42
0.0404151429548672
  0
VERTEX
  5
1C3
  8
0
 10
-2.7297949573680009
 20
-6.036459599030561
 30
0.0
 42
0.0029088902912798
  0
VERTEX
  5
1C4
  8
0
 10
-2.6593743601639028
 20
-6.0678128689423847
 30
0.0
 42
0.0404151429548664
  0
VERTEX
  5
1C5
  8
0
 10
-2.6765082301515268
 20
-6.3054582461492128
 30
0.0
 42
0.0029088902912775
  0
VERTEX
  5
1C6
  8
0
 10
-2.602961369272923
 20
-6.3361733017707786
 30
0.0
 42
0.0404151429548669
  0
VERTEX
  5
1C7
  8
0
 10
-2.445990725946535
 20
-6.1569273480026991
 30
0.0
 42
0.0029088902912798
  0
VERTEX
  5
1C8
  8
0
 10
-2.3741876657376171
 20
-6.1849703255439614
 30
0.0
 42
0.0404151429548666
  0
VERTEX
  5
1C9
  8
0
 10
-2.3802464562848029
 20
-6.4231555179166904
 30
0.0
 42
0.0029088902912775
  0
VERTEX
  5
1CA
  8
0
 10
-2.305350210915964
 20
-6.4504155218892452
 30
0.0
 42
0.0404151429548671
  0
VERTEX
  5
1CB
  8
0
 10
-2.1568890232786631
 20
-6.2640605633454731
 30
0.0
 42
0.0029088902912775
  0
VERTEX
  5
1CC
  8
0
 10
-2.083859009504446
 20
-6.2887325136713468
 30
0.0
 42
0.0404151429548667
  0
VERTEX
  5
1CD
  8
0
 10
-2.0788295986200218
 20
-6.5269416651216741
 30
0.0
 42
0.0029088902912798
  0
VERTEX
  5
1CE
  8
0
 10
-2.002746177350748
 20
-6.5506875783467908
 30
0.0
 42
0.0404151429548672
  0
VERTEX
  5
1CF
  8
0
 10
-1.863115979276053
 20
-6.3576272183705624
 30
0.0
 42
0.0029088902912798
  0
VERTEX
  5
1D0
  8
0
 10
-1.7890171786842579
 20
-6.378874707530521
 30
0.0
 42
0.0404151429548664
  0
VERTEX
  5
1D1
  8
0
 10
-1.7729104589522711
 20
-6.6165919100801149
 30
0.0
 42
0.0029088902912775
  0
VERTEX
  5
1D2
  8
0
 10
-1.695804641530994
 20
-6.6367723041974189
 30
0.0
 42
0.0404151429548669
  0
VERTEX
  5
1D3
  8
0
 10
-1.5653078409354999
 20
-6.4374246685383296
 30
0.0
 42
0.0029088902912846
  0
VERTEX
  5
1D4
  8
0
 10
-1.490300735028107
 20
-6.4552016792021831
 30
0.0
 42
0.0404151429548667
  0
VERTEX
  5
1D5
  8
0
 10
-1.463151590016899
 20
-6.6919120903244842
 30
0.0
 42
0.0029088902912775
  0
VERTEX
  5
1D6
  8
0
 10
-1.385190370474463
 20
-6.7084832590940264
 30
0.0
 42
0.0404151429548669
  0
VERTEX
  5
1D7
  8
0
 10
-1.264109594369611
 20
-6.5032800903407706
 30
0.0
 42
0.0029088902912798
  0
VERTEX
  5
1D8
  8
0
 10
-1.18835663183566
 20
-6.5175481214619513
 30
0.0
 42
0.0404151429548671
  0
VERTEX
  5
1D9
  8
0
 10
-1.1502238605478281
 20
-6.7527390791164459
 30
0.0
 42
0.0029088902912846
  0
VERTEX
  5
1DA
  8
0
 10
-1.071576085525582
 20
-6.7656651330766922
 30
0.0
 42
0.0404151429548669
  0
VERTEX
  5
1DB
  8
0
 10
-0.9601735679105097
 20
-6.5550508555987559
 30
0.0
 42
0.0029088902912798
  0
VERTEX
  5
1DC
  8
0
 10
-0.8838388127983989
 20
-6.565779005799012
 30
0.0
 42
0.0404151429548667
  0
VERTEX
  5
1DD
  8
0
 10
-0.8348050023252632
 20
-6.7989411387430536
 30
0.0
 42
0.0029088902912798
  0
VERTEX
  5
1DE
  8
0
 10
-0.755641005390854
 20
-6.80819408293946
 30
0.0
 42
0.0404151429548671
  0
VERTEX
  5
1DF
  8
0
 10
-0.6541580193119332
 20
-6.5926248403628938
 30
0.0
 42
0.0029088902912798
  0
VERTEX
  5
1E0
  8
0
 10
-0.5774067957032358
 20
-6.5997898748578141
 30
0.0
 42
0.0404151429548669
  0
VERTEX
  5
1E1
  8
0
 10
-0.5175781423595796
 20
-6.8304182058312941
 30
0.0
 42
0.0029088902912775
  0
VERTEX
  5
1E2
  8
0
 10
-0.438069375102364
 20
-6.8359780004471489
 30
0.0
 42
0.0404151429548669
  0
VERTEX
  5
1E3
  8
0
 10
-0.346725710109504
 20
-6.6159206677490507
 30
0.0
 42
0.0029088902912775
  0
VERTEX
  5
1E4
  8
0
 10
-0.2697242440638264
 20
-6.6195070686694031
 30
0.0
 42
0.0404151429548664
  0
VERTEX
  5
1E5
  8
0
 10
-0.1992303233903172
 20
-6.847102108063071
 30
0.0
 42
0.0029088902912798
  0
VERTEX
  5
1E6
  8
0
 10
-0.119548984095392
 20
-6.8489567118212804
 30
0.0
 42
0.0404151429548669
  0
VERTEX
  5
1E7
  8
0
 10
-0.0385424702268357
 20
-6.6248878841825549
 30
0.0
 42
0.0029088902912846
  0
VERTEX
  5
1E8
  8
0
 10
0.0385424702268266
 20
-6.6248878841825549
 30
0.0
 42
0.0404151429548667
  0
VERTEX
  5
1E9
  8
0
 10
0.1195489840953868
 20
-6.8489567118212769
 30
0.0
 42
0.0029088902912798
  0
VERTEX
  5
1EA
  8
0
 10
0.1992303233903096
 20
-6.8471021080630727
 30
0.0
 42
0.0404151429548669
  0
VERTEX
  5
1EB
  8
0
 10
0.2697242440638206
 20
-6.6195070686694022
 30
0.0
 42
0.0029088902912775
  0
VERTEX
  5
1EC
  8
0
 10
0.3467257101094977
 20
-6.6159206677490507
 30
0.0
 42
0.0404151429548664
  0
VERTEX
  5
1ED
  8
0
 10
0.4380693751023565
 20
-6.8359780004471489
 30
0.0
 42
0.0029088902912775
  0
VERTEX
  5
1EE
  8
0
 10
0.5175781423595744
 20
-6.8304182058312941
 30
0.0
 42
0.0404151429548669
  0
VERTEX
  5
1EF
  8
0
 10
0.5774067957032361
 20
-6.5997898748578132
 30
0.0
 42
0.0029088902912798
  0
VERTEX
  5
1F0
  8
0
 10
0.6541580193119299
 20
-6.5926248403628964
 30
0.0
 42
0.0404151429548667
  0
VERTEX
  5
1F1
  8
0
 10
0.7556410053908526
 20
-6.80819408293946
 30
0.0
 42
0.0029088902912798
  0
VERTEX
  5
1F2
  8
0
 10
0.8348050023252616
 20
-6.7989411387430563
 30
0.0
 42
0.0404151429548669
  0
VERTEX
  5
1F3
  8
0
 10
0.8838388127983959
 20
-6.5657790057990164
 30
0.0
 42
0.0029088902912775
  0
VERTEX
  5
1F4
  8
0
 10
0.9601735679105035
 20
-6.5550508555987577
 30
0.0
 42
0.0404151429548667
  0
VERTEX
  5
1F5
  8
0
 10
1.0715760855255769
 20
-6.7656651330766922
 30
0.0
 42
0.0029088902912798
  0
VERTEX
  5
1F6
  8
0
 10
1.1502238605478201
 20
-6.7527390791164468
 30
0.0
 42
0.0404151429548669
  0
VERTEX
  5
1F7
  8
0
 10
1.188356631835654
 20
-6.5175481214619513
 30
0.0
 42
0.0029088902912846
  0
VERTEX
  5
1F8
  8
0
 10
1.264109594369605
 20
-6.503280090340775
 30
0.0
 42
0.0404151429548664
  0
VERTEX
  5
1F9
  8
0
 10
1.385190370474455
 20
-6.7084832590940282
 30
0.0
 42
0.0029088902912775
  0
VERTEX
  5
1FA
  8
0
 10
1.4631515900168941
 20
-6.6919120903244851
 30
0.0
 42
0.0404151429548669
  0
VERTEX
  5
1FB
  8
0
 10
1.490300735028105
 20
-6.455201679202184
 30
0.0
 42
0.0029088902912798
  0
VERTEX
  5
1FC
  8
0
 10
1.565307840935497
 20
-6.4374246685383332
 30
0.0
 42
0.0404151429548669
  0
VERTEX
  5
1FD
  8
0
 10
1.6958046415309891
 20
-6.6367723041974189
 30
0.0
 42
0.0029088902912727
  0
VERTEX
  5
1FE
  8
0
 10
1.772910458952264
 20
-6.6165919100801194
 30
0.0
 42
0.0404151429548669
  0
VERTEX
  5
1FF
  8
0
 10
1.789017178684253
 20
-6.3788747075305228
 30
0.0
 42
0.0029088902912775
  0
VERTEX
  5
200
  8
0
 10
1.863115979276047
 20
-6.3576272183705642
 30
0.0
 42
0.0404151429548664
  0
VERTEX
  5
201
  8
0
 10
2.0027461773507409
 20
-6.5506875783467917
 30
0.0
 42
0.0029088902912798
  0
VERTEX
  5
202
  8
0
 10
2.0788295986200178
 20
-6.5269416651216767
 30
0.0
 42
0.0404151429548669
  0
VERTEX
  5
203
  8
0
 10
2.0838590095044411
 20
-6.2887325136713486
 30
0.0
 42
0.0029088902912775
  0
VERTEX
  5
204
  8
0
 10
2.1568890232786599
 20
-6.264060563345474
 30
0.0
 42
0.0404151429548669
  0
VERTEX
  5
205
  8
0
 10
2.3053502109159618
 20
-6.4504155218892452
 30
0.0
 42
0.0029088902912775
  0
VERTEX
  5
206
  8
0
 10
2.3802464562848011
 20
-6.4231555179166913
 30
0.0
 42
0.0404151429548671
  0
VERTEX
  5
207
  8
0
 10
2.374187665737614
 20
-6.1849703255439596
 30
0.0
 42
0.0029088902912798
  0
VERTEX
  5
208
  8
0
 10
2.4459907259465341
 20
-6.1569273480027
 30
0.0
 42
0.0404151429548667
  0
VERTEX
  5
209
  8
0
 10
2.602961369272919
 20
-6.3361733017707804
 30
0.0
 42
0.0029088902912775
  0
VERTEX
  5
20A
  8
0
 10
2.6765082301515228
 20
-6.3054582461492172
 30
0.0
 42
0.0404151429548667
  0
VERTEX
  5
20B
  8
0
 10
2.6593743601639028
 20
-6.0678128689423847
 30
0.0
 42
0.0029088902912798
  0
VERTEX
  5
20C
  8
0
 10
2.7297949573679992
 20
-6.0364595990305627
 30
0.0
 42
0.0404151429548669
  0
VERTEX
  5
20D
  8
0
 10
2.8949350929237858
 20
-6.2082083412010531
 30
0.0
 42
0.0029088902912775
  0
VERTEX
  5
20E
  8
0
 10
2.966973283188691
 20
-6.1741047559014177
 30
0.0
 42
0.0404151429548671
  0
VERTEX
  5
20F
  8
0
 10
2.9388014419077111
 20
-5.9375138808293446
 30
0.0
 42
0.0029088902912798
  0
VERTEX
  5
210
  8
0
 10
3.007687060774491
 20
-5.9029182227479406
 30
0.0
 42
0.0404151429548672
  0
VERTEX
  5
211
  8
0
 10
3.1806390317989859
 20
-6.0667977837897968
 30
0.0
 42
0.0029088902912798
  0
VERTEX
  5
212
  8
0
 10
3.2510125327713331
 20
-6.0293795295837622
 30
0.0
 42
0.0404151429548667
  0
VERTEX
  5
213
  8
0
 10
3.2118637341319798
 20
-5.7943555597984968
 30
0.0
 42
0.0029088902912798
  0
VERTEX
  5
214
  8
0
 10
3.2790651837502289
 20
-5.7565924400392507
 30
0.0
 42
0.0404151429548667
  0
VERTEX
  5
215
  8
0
 10
3.4594544147866211
 20
-5.9122478933154801
 30
0.0
 42
0.0029088902912798
  0
VERTEX
  5
216
  8
0
 10
3.5280108131338701
 20
-5.8715960098094691
 30
0.0
 42
0.0404151429548669
  0
VERTEX
  5
217
  8
0
 10
3.4779698447164611
 20
-5.6386479548951209
 30
0.0
 42
0.0029088902912846
  0
VERTEX
  5
218
  8
0
 10
3.5433415817105232
 20
-5.5977991599664554
 30
0.0
 42
0.0404151429548671
  0
VERTEX
  5
219
  8
0
 10
3.7307773898529328
 20
-5.7448933904261539
 30
0.0
 42
0.0029088902912798
  0
VERTEX
  5
21A
  8
0
 10
3.7973682076821911
 20
-5.7010959205476039
 30
0.0
 42
0.0404151429548671
  0
VERTEX
  5
21B
  8
0
 10
3.736543447081345
 20
-5.470728294118933
 30
0.0
 42
0.0029088902912846
  0
VERTEX
  5
21C
  8
0
 10
3.7999438908256762
 20
-5.4268822934145753
 30
0.0
 42
0.0404151429548669
  0
VERTEX
  5
21D
  8
0
 10
3.9940203318513179
 20
-5.5650967277090748
 30
0.0
 42
0.0029088902912798
  0
VERTEX
  5
21E
  8
0
 10
4.0585013482794228
 20
-5.5182485270250474
 30
0.0
 42
0.0404151429548669
  0
VERTEX
  5
21F
  8
0
 10
3.9870245283823191
 20
-5.2909602540633154
 30
0.0
 42
0.0029088902912798
  0
VERTEX
  5
220
  8
0
 10
4.0483163676335963
 20
-5.2442120082572883
 30
0.0
 42
0.0404151429548669
  0
VERTEX
  5
221
  8
0
 10
4.2486131151875783
 20
-5.3732473046990954
 30
0.0
 42
0.0029088902912798
  0
VERTEX
  5
222
  8
0
 10
4.3108446786913861
 20
-5.3234498359802487
 30
0.0
 42
0.0404151429548669
  0
VERTEX
  5
223
  8
0
 10
4.2288706023736733
 20
-5.0997331722728108
 30
0.0
 42
0.0029088902912798
  0
VERTEX
  5
224
  8
0
 10
4.2879210926563633
 20
-5.0501839276557687
 30
0.0
 42
0.0404151429548671
  0
VERTEX
  5
225
  8
0
 10
4.494004348584971
 20
-5.1697606245259911
 30
0.0
 42
0.0029088902912798
  0
VERTEX
  5
226
  8
0
 10
4.5538516794554722
 20
-5.117121738000824
 30
0.0
 42
0.0404151429548671
  0
VERTEX
  5
227
  8
0
 10
4.4615578843127119
 20
-4.8974612040246992
 30
0.0
 42
0.0029088902912798
  0
VERTEX
  5
228
  8
0
 10
4.5182391354140492
 20
-4.845218273227009
 30
0.0
 42
0.0404151429548667
  0
VERTEX
  5
229
  8
0
 10
4.7296625692749554
 20
-4.955077394027203
 30
0.0
 42
0.0029088902912775
  0
VERTEX
  5
22A
  8
0
 10
4.7869960515201102
 20
-4.8997110938024582
 30
0.0
 42
0.0404151429548671
  0
VERTEX
  5
22B
  8
0
 10
4.6845824253608752
 20
-4.6845824253608779
 30
0.0
 42
0.0029088902912798
  0
VERTEX
  5
22C
  8
0
 10
4.7387716783125846
 20
-4.6297589549373432
 30
0.0
 42
0.0404151429548667
  0
VERTEX
  5
22D
  8
0
 10
4.955077394027195
 20
-4.7296625692749643
 30
0.0
 42
0.0029088902912798
  0
VERTEX
  5
22E
  8
0
 10
5.0097728560913177
 20
-4.6716887664281117
 30
0.0
 42
0.0404151429548669
  0
VERTEX
  5
22F
  8
0
 10
4.8974612040246983
 20
-4.4615578843127128
 30
0.0
 42
0.0029088902912775
  0
VERTEX
  5
230
  8
0
 10
4.9490410969715937
 20
-4.4042726096923408
 30
0.0
 42
0.0404151429548667
  0
VERTEX
  5
231
  8
0
 10
5.1697606245259848
 20
-4.4940043485849763
 30
0.0
 42
0.0029088902912798
  0
VERTEX
  5
232
  8
0
 10
5.2216996082176612
 20
-4.4335486014635617
 30
0.0
 42
0.0404151429548669
  0
VERTEX
  5
233
  8
0
 10
5.099733172272809
 20
-4.2288706023736751
 30
0.0
 42
0.0029088902912798
  0
VERTEX
  5
234
  8
0
 10
5.1485919946524303
 20
-4.1692475907051749
 30
0.0
 42
0.0404151429548669
  0
VERTEX
  5
235
  8
0
 10
5.3732473046990901
 20
-4.2486131151875837
 30
0.0
 42
0.0029088902912798
  0
VERTEX
  5
236
  8
0
 10
5.4223173217452683
 20
-4.1858063574777571
 30
0.0
 42
0.0404151429548667
  0
VERTEX
  5
237
  8
0
 10
5.2909602540633127
 20
-3.9870245283823191
 30
0.0
 42
0.0029088902912798
  0
VERTEX
  5
238
  8
0
 10
5.336992188546116
 20
-3.9251929098322962
 30
0.0
 42
0.0404151429548662
  0
VERTEX
  5
239
  8
0
 10
5.5650967277090686
 20
-3.994020331851325
 30
0.0
 42
0.0029088902912798
  0
VERTEX
  5
23A
  8
0
 10
5.611191503379592
 20
-3.9289985890046681
 30
0.0
 42
0.0404151429548671
  0
VERTEX
  5
23B
  8
0
 10
5.4707282941189312
 20
-3.7365434470813459
 30
0.0
 42
0.0029088902912798
  0
VERTEX
  5
23C
  8
0
 10
5.5138336457850867
 20
-3.672637135167089
 30
0.0
 42
0.0404151429548671
  0
VERTEX
  5
23D
  8
0
 10
5.7448933904261503
 20
-3.7307773898529391
 30
0.0
 42
0.0029088902912798
  0
VERTEX
  5
23E
  8
0
 10
5.7879130937011629
 20
-3.6636814844856
 30
0.0
 42
0.0404151429548664
  0
VERTEX
  5
23F
  8
0
 10
5.6386479548951218
 20
-3.477969844716462
 30
0.0
 42
0.0029088902912798
  0
VERTEX
  5
240
  8
0
 10
5.6787333671514917
 20
-3.4121272462791108
 30
0.0
 42
0.0404151429548667
  0
VERTEX
  5
241
  8
0
 10
5.9122478933154756
 20
-3.45945441478663
 30
0.0
 42
0.0029088902912775
  0
VERTEX
  5
242
  8
0
 10
5.9520993530971866
 20
-3.3904296616889189
 30
0.0
 42
0.0404151429548671
  0
VERTEX
  5
243
  8
0
 10
5.7943555597984959
 20
-3.211863734131982
 30
0.0
 42
0.0029088902912798
  0
VERTEX
  5
244
  8
0
 10
5.8313342165682327
 20
-3.1442274495781222
 30
0.0
 42
0.0404151429548667
  0
VERTEX
  5
245
  8
0
 10
6.0667977837897933
 20
-3.1806390317989921
 30
0.0
 42
0.0029088902912798
  0
VERTEX
  5
246
  8
0
 10
6.103394690690318
 20
-3.1098349232158959
 30
0.0
 42
0.0404151429548669
  0
VERTEX
  5
247
  8
0
 10
5.9375138808293437
 20
-2.938801441907712
 30
0.0
 42
0.0029088902912798
  0
VERTEX
  5
248
  8
0
 10
5.9713056945761851
 20
-2.8695179563686319
 30
0.0
 42
0.0404151429548666
  0
VERTEX
  5
249
  8
0
 10
6.2082083412010487
 20
-2.8949350929237938
 30
0.0
 42
0.0029088902912775
  0
VERTEX
  5
24A
  8
0
 10
6.2414714344693358
 20
-2.8225049747880471
 30
0.0
 42
0.0404151429548669
  0
VERTEX
  5
24B
  8
0
 10
6.0678128689423838
 20
-2.659374360163905
 30
0.0
 42
0.0029088902912775
  0
VERTEX
  5
24C
  8
0
 10
6.0983446541224131
 20
-2.5885937262414451
 30
0.0
 42
0.0404151429548667
  0
VERTEX
  5
24D
  8
0
 10
6.336173301770776
 20
-2.6029613692729261
 30
0.0
 42
0.0029088902912798
  0
VERTEX
  5
24E
  8
0
 10
6.366030540953731
 20
-2.5290621090918899
 30
0.0
 42
0.0404151429548669
  0
VERTEX
  5
24F
  8
0
 10
6.1849703255439614
 20
-2.3741876657376162
 30
0.0
 42
0.0029088902912798
  0
VERTEX
  5
250
  8
0
 10
6.212175957109209
 20
-2.3020631785236239
 30
0.0
 42
0.0404151429548666
  0
VERTEX
  5
251
  8
0
 10
6.4504155218892416
 20
-2.3053502109159698
 30
0.0
 42
0.0029088902912775
  0
VERTEX
  5
252
  8
0
 10
6.47680224285532
 20
-2.2301418580315229
 30
0.0
 42
0.0404151429548671
  0
VERTEX
  5
253
  8
0
 10
6.2887325136713477
 20
-2.0838590095044398
 30
0.0
 42
0.0029088902912846
  0
VERTEX
  5
254
  8
0
 10
6.3125530702819121
 20
-2.010546874577757
 30
0.0
 42
0.0404151429548667
  0
VERTEX
  5
255
  8
0
 10
6.5506875783467908
 20
-2.002746177350748
 30
0.0
 42
0.0029088902912798
  0
VERTEX
  5
256
  8
0
 10
6.5735466333340931
 20
-1.926391616308067
 30
0.0
 42
0.0404151429548669
  0
VERTEX
  5
257
  8
0
 10
6.378874707530521
 20
-1.7890171786842539
 30
0.0
 42
0.0029088902912798
  0
VERTEX
  5
258
  8
0
 10
6.3992585991650763
 20
-1.7146761738042049
 30
0.0
 42
0.0404151429548669
  0
VERTEX
  5
259
  8
0
 10
6.636772304197418
 20
-1.6958046415309971
 30
0.0
 42
0.0029088902912798
  0
VERTEX
  5
25A
  8
0
 10
6.6560541855830291
 20
-1.618469239306894
 30
0.0
 42
0.0404151429548667
  0
VERTEX
  5
25B
  8
0
 10
6.455201679202184
 20
-1.490300735028107
 30
0.0
 42
0.0029088902912798
  0
VERTEX
  5
25C
  8
0
 10
6.4721047588904703
 20
-1.4150918662572181
 30
0.0
 42
0.0404151429548667
  0
VERTEX
  5
25D
  8
0
 10
6.7084832590940264
 20
-1.3851903704744639
 30
0.0
 42
0.0029088902912798
  0
VERTEX
  5
25E
  8
0
 10
6.7241462066164983
 20
-1.3070416183293301
 30
0.0
 42
0.0404151429548669
  0
VERTEX
  5
25F
  8
0
 10
6.5175481214619513
 20
-1.188356631835654
 30
0.0
 42
0.0029088902912798
  0
VERTEX
  5
260
  8
0
 10
6.5309337808972936
 20
-1.112442784836398
 30
0.0
 42
0.0404151429548669
  0
VERTEX
  5
261
  8
0
 10
6.7656651330766922
 20
-1.071576085525584
 30
0.0
 42
0.0029088902912798
  0
VERTEX
  5
262
  8
0
 10
6.7776752242794691
 20
-0.9927832362546427
 30
0.0
 42
0.0404151429548669
  0
VERTEX
  5
263
  8
0
 10
6.5657790057990164
 20
-0.8838388127983975
 30
0.0
 42
0.0029088902912846
  0
VERTEX
  5
264
  8
0
 10
6.575618254623758
 20
-0.8073844000591062
 30
0.0
 42
0.0404151429548671
  0
VERTEX
  5
265
  8
0
 10
6.80819408293946
 20
-0.7556410053908592
 30
0.0
 42
0.0029088902912775
  0
VERTEX
  5
266
  8
0
 10
6.8165253066393703
 20
-0.6763747067602607
 30
0.0
 42
0.0404151429548667
  0
VERTEX
  5
267
  8
0
 10
6.5997898748578132
 20
-0.5774067957032364
 30
0.0
 42
0.0029088902912846
  0
VERTEX
  5
268
  8
0
 10
6.6060614034499743
 20
-0.5005774004572539
 30
0.0
 42
0.0404151429548671
  0
VERTEX
  5
269
  8
0
 10
6.8359780004471489
 20
-0.4380693751023662
 30
0.0
 42
0.0029088902912775
  0
VERTEX
  5
26A
  8
0
 10
6.8406123130688297
 20
-0.3585013002641673
 30
0.0
 42
0.0404151429548669
  0
VERTEX
  5
26B
  8
0
 10
6.6195070686694031
 20
-0.2697242440638249
 30
0.0
 42
0.0029088902912775
  0
VERTEX
  5
26C
  8
0
 10
6.6221972942945788
 20
-0.1926862616731168
 30
0.0
 42
0.0404151429548669
  0
VERTEX
  5
26D
  8
0
 10
6.8489567118212786
 20
-0.119548984095398
 30
0.0
 42
0.0029088902912775
  0
VERTEX
  5
26E
  8
0
 10
6.8498840764755471
 20
-0.0398514597817073
 30
0.0
 42
0.0404151429548672
  0
VERTEX
  5
26F
  8
0
 10
6.624887884182554
 20
0.0385424702268333
 30
0.0
 42
0.0029088902912798
  0
VERTEX
  5
270
  8
0
 10
6.623990980411091
 20
0.1156221926470009
 30
0.0
 42
0.0404151429548666
  0
VERTEX
  5
271
  8
0
 10
6.847102108063071
 20
0.1992303233903087
 30
0.0
 42
0.0029088902912775
  0
VERTEX
  5
272
  8
0
 10
6.8443205162845899
 20
0.278884690088632
 30
0.0
 42
0.0404151429548669
  0
VERTEX
  5
273
  8
0
 10
6.6159206677490507
 20
0.3467257101095019
 30
0.0
 42
0.0029088902912798
  0
VERTEX
  5
274
  8
0
 10
6.6114385770747992
 20
0.4236802350442526
 30
0.0
 42
0.0404151429548669
  0
VERTEX
  5
275
  8
0
 10
6.8304182058312941
 20
0.5175781423595718
 30
0.0
 42
0.0029088902912775
  0
VERTEX
  5
276
  8
0
 10
6.8239336819284571
 20
0.5970168378214595
 30
0.0
 42
0.0404151429548669
  0
VERTEX
  5
277
  8
0
 10
6.5926248403628938
 20
0.6541580193119319
 30
0.0
 42
0.0029088902912798
  0
VERTEX
  5
278
  8
0
 10
6.5845672699961941
 20
0.730820680396263
 30
0.0
 42
0.0404151429548667
  0
VERTEX
  5
279
  8
0
 10
6.7989411387430536
 20
0.8348050023252565
 30
0.0
 42
0.0029088902912798
  0
VERTEX
  5
27A
  8
0
 10
6.7887677267506801
 20
0.9138559800255112
 30
0.0
 42
0.0404151429548669
  0
VERTEX
  5
27B
  8
0
 10
6.5550508555987559
 20
0.9601735679105075
 30
0.0
 42
0.0029088902912846
  0
VERTEX
  5
27C
  8
0
 10
6.5434352564427893
 20
1.036378330891526
 30
0.0
 42
0.0404151429548671
  0
VERTEX
  5
27D
  8
0
 10
6.7527390791164494
 20
1.1502238605478179
 30
0.0
 42
0.0029088902912775
  0
VERTEX
  5
27E
  8
0
 10
6.738898812379527
 20
1.2287159136715839
 30
0.0
 42
0.0404151429548672
  0
VERTEX
  5
27F
  8
0
 10
6.5032800903407706
 20
1.264109594369609
 30
0.0
 42
0.0029088902912798
  0
VERTEX
  5
280
  8
0
 10
6.4881316191967784
 20
1.33969141669975
 30
0.0
 42
0.0404151429548672
  0
VERTEX
  5
281
  8
0
 10
6.6919120903244851
 20
1.463151590016891
 30
0.0
 42
0.0029088902912798
  0
VERTEX
  5
282
  8
0
 10
6.674434943778861
 20
1.5409147222554751
 30
0.0
 42
0.0404151429548664
  0
VERTEX
  5
283
  8
0
 10
6.4374246685383314
 20
1.565307840935497
 30
0.0
 42
0.0029088902912775
  0
VERTEX
  5
284
  8
0
 10
6.4187761336215923
 20
1.6401030292179291
 30
0.0
 42
0.0404151429548671
  0
VERTEX
  5
285
  8
0
 10
6.6165919100801167
 20
1.772910458952262
 30
0.0
 42
0.0029088902912798
  0
VERTEX
  5
286
  8
0
 10
6.5955157353334464
 20
1.8497762526773041
 30
0.0
 42
0.0404151429548671
  0
VERTEX
  5
287
  8
0
 10
6.3576272183705624
 20
1.8631159792760501
 30
0.0
 42
0.0029088902912798
  0
VERTEX
  5
288
  8
0
 10
6.3355190082551118
 20
1.936962543788127
 30
0.0
 42
0.0404151429548664
  0
VERTEX
  5
289
  8
0
 10
6.5269416651216767
 20
2.0788295986200129
 30
0.0
 42
0.0029088902912775
  0
VERTEX
  5
28A
  8
0
 10
6.502312108475282
 20
2.1546315796385538
 30
0.0
 42
0.0404151429548667
  0
VERTEX
  5
28B
  8
0
 10
6.264060563345474
 20
2.1568890232786622
 30
0.0
 42
0.0029088902912798
  0
VERTEX
  5
28C
  8
0
 10
6.2385405594914261
 20
2.2296270288055848
 30
0.0
 42
0.0404151429548667
  0
VERTEX
  5
28D
  8
0
 10
6.423155517916693
 20
2.3802464562847949
 30
0.0
 42
0.0029088902912775
  0
VERTEX
  5
28E
  8
0
 10
6.395025921505832
 20
2.454820454385306
 30
0.0
 42
0.0404151429548667
  0
VERTEX
  5
28F
  8
0
 10
6.1569273480026991
 20
2.4459907259465332
 30
0.0
 42
0.0029088902912798
  0
VERTEX
  5
290
  8
0
 10
6.1280508210556821
 20
2.5174626381654148
 30
0.0
 42
0.0404151429548662
  0
VERTEX
  5
291
  8
0
 10
6.3054582461492164
 20
2.6765082301515188
 30
0.0
 42
0.0029088902912798
  0
VERTEX
  5
292
  8
0
 10
6.2738895324159003
 20
2.7496927346600359
 30
0.0
 42
0.0404151429548667
  0
VERTEX
  5
293
  8
0
 10
6.0364595990305618
 20
2.7297949573680009
 30
0.0
 42
0.0029088902912798
  0
VERTEX
  5
294
  8
0
 10
6.0042890891178056
 20
2.7998459840321308
 30
0.0
 42
0.0404151429548667
  0
VERTEX
  5
295
  8
0
 10
6.1741047559014159
 20
2.966973283188691
 30
0.0
 42
0.0029088902912798
  0
VERTEX
  5
296
  8
0
 10
6.1391652956499634
 20
3.038609792764956
 30
0.0
 42
0.0404151429548667
  0
VERTEX
  5
297
  8
0
 10
5.9029182227479371
 20
3.0076870607744972
 30
0.0
 42
0.0029088902912798
  0
VERTEX
  5
298
  8
0
 10
5.8675234040302771
 20
3.076165486958875
 30
0.0
 42
0.0404151429548669
  0
VERTEX
  5
299
  8
0
 10
6.0293795295837622
 20
3.2510125327713331
 30
0.0
 42
0.0029088902912798
  0
VERTEX
  5
29A
  8
0
 10
5.99114499390486
 20
3.3209458986874081
 30
0.0
 42
0.0404151429548669
  0
VERTEX
  5
29B
  8
0
 10
5.756592440039249
 20
3.279065183750232
 30
0.0
 42
0.0029088902912798
  0
VERTEX
  5
29C
  8
0
 10
5.7180499698124168
 20
3.345822700432318
 30
0.0
 42
0.0404151429548669
  0
VERTEX
  5
29D
  8
0
 10
5.8715960098094699
 20
3.5280108131338661
 30
0.0
 42
0.0029088902912798
  0
VERTEX
  5
29E
  8
0
 10
5.8301492061934468
 20
3.596089575291737
 30
0.0
 42
0.0404151429548666
  0
VERTEX
  5
29F
  8
0
 10
5.5977991599664554
 20
3.5433415817105249
 30
0.0
 42
0.0029088902912846
  0
VERTEX
  5
2A0
  8
0
 10
5.5561925126384351
 20
3.6082336069745531
 30
0.0
 42
0.0404151429548669
  0
VERTEX
  5
2A1
  8
0
 10
5.7010959205476039
 20
3.7973682076821902
 30
0.0
 42
0.0029088902912775
  0
VERTEX
  5
2A2
  8
0
 10
5.6565266135418391
 20
3.8634449226425982
 30
0.0
 42
0.0404151429548667
  0
VERTEX
  5
2A3
  8
0
 10
5.42688229341457
 20
3.7999438908256788
 30
0.0
 42
0.0029088902912798
  0
VERTEX
  5
2A4
  8
0
 10
5.3823015797186313
 20
3.8628298829948902
 30
0.0
 42
0.0404151429548664
  0
VERTEX
  5
2A5
  8
0
 10
5.5182485270250474
 20
4.0585013482794201
 30
0.0
 42
0.0029088902912775
  0
VERTEX
  5
2A6
  8
0
 10
5.4706532438239561
 20
4.1224329085915308
 30
0.0
 42
0.0404151429548669
  0
VERTEX
  5
2A7
  8
0
 10
5.2442120082572847
 20
4.0483163676335971
 30
0.0
 42
0.0029088902912798
  0
VERTEX
  5
2A8
  8
0
 10
5.1967537800921901
 20
4.10906012965222
 30
0.0
 42
0.0404151429548669
  0
VERTEX
  5
2A9
  8
0
 10
5.3234498359802522
 20
4.3108446786913808
 30
0.0
 42
0.0029088902912798
  0
VERTEX
  5
2AA
  8
0
 10
5.2729316573688694
 20
4.3724926228316487
 30
0.0
 42
0.0404151429548671
  0
VERTEX
  5
2AB
  8
0
 10
5.0501839276557678
 20
4.2879210926563633
 30
0.0
 42
0.0029088902912798
  0
VERTEX
  5
2AC
  8
0
 10
4.9999509689758641
 20
4.3463910670621084
 30
0.0
 42
0.0404151429548667
  0
VERTEX
  5
2AD
  8
0
 10
5.117121738000824
 20
4.5538516794554704
 30
0.0
 42
0.0029088902912798
  0
VERTEX
  5
2AE
  8
0
 10
5.063790075104782
 20
4.6130824917044659
 30
0.0
 42
0.0404151429548667
  0
VERTEX
  5
2AF
  8
0
 10
4.8452182732270046
 20
4.518239135414051
 30
0.0
 42
0.0029088902912775
  0
VERTEX
  5
2B0
  8
0
 10
4.7923193774350672
 20
4.574308689262276
 30
0.0
 42
0.0404151429548669
  0
VERTEX
  5
2B1
  8
0
 10
4.8997110938024537
 20
4.7869960515201111
 30
0.0
 42
0.0029088902912798
  0
VERTEX
  5
2B2
  8
0
 10
4.8436814511278499
 20
4.843681451127849
 30
0.0
 42
0.0404151429548666
  0
VERTEX
  5
2B3
  8
0
 10
4.6297589549373379
 20
4.7387716783125899
 30
0.0
 42
0.0029088902912846
  0
VERTEX
  5
2B4
  8
0
 10
4.5743086892622813
 20
4.7923193774350628
 30
0.0
 42
0.0404151429548664
  0
VERTEX
  5
2B5
  8
0
 10
4.671688766428117
 20
5.0097728560913133
 30
0.0
 42
0.0029088902912775
  0
VERTEX
  5
2B6
  8
0
 10
4.6130824917044668
 20
5.063790075104782
 30
0.0
 42
0.0404151429548671
  0
VERTEX
  5
2B7
  8
0
 10
4.4042726096923381
 20
4.9490410969715981
 30
0.0
 42
0.0029088902912798
  0
VERTEX
  5
2B8
  8
0
 10
4.3463910670621138
 20
4.9999509689758641
 30
0.0
 42
0.0404151429548664
  0
VERTEX
  5
2B9
  8
0
 10
4.4335486014635652
 20
5.2216996082176577
 30
0.0
 42
0.0029088902912798
  0
VERTEX
  5
2BA
  8
0
 10
4.372492622831647
 20
5.2729316573688694
 30
0.0
 42
0.0404151429548669
  0
VERTEX
  5
2BB
  8
0
 10
4.1692475907051731
 20
5.1485919946524312
 30
0.0
 42
0.0029088902912798
  0
VERTEX
  5
2BC
  8
0
 10
4.1090601296522253
 20
5.1967537800921866
 30
0.0
 42
0.0404151429548669
  0
VERTEX
  5
2BD
  8
0
 10
4.1858063574777606
 20
5.4223173217452647
 30
0.0
 42
0.0029088902912775
  0
VERTEX
  5
2BE
  8
0
 10
4.1224329085915299
 20
5.4706532438239561
 30
0.0
 42
0.0404151429548669
  0
VERTEX
  5
2BF
  8
0
 10
3.92519290983229
 20
5.3369921885461196
 30
0.0
 42
0.0029088902912798
  0
VERTEX
  5
2C0
  8
0
 10
3.8628298829948942
 20
5.3823015797186278
 30
0.0
 42
0.0404151429548669
  0
VERTEX
  5
2C1
  8
0
 10
3.9289985890046668
 20
5.6111915033795903
 30
0.0
 42
0.0029088902912798
  0
VERTEX
  5
2C2
  8
0
 10
3.8634449226425982
 20
5.6565266135418399
 30
0.0
 42
0.0404151429548669
  0
VERTEX
  5
2C3
  8
0
 10
3.6726371351670868
 20
5.5138336457850903
 30
0.0
 42
0.0029088902912798
  0
VERTEX
  5
2C4
  8
0
 10
3.6082336069745562
 20
5.5561925126384324
 30
0.0
 42
0.0404151429548669
  0
VERTEX
  5
2C5
  8
0
 10
3.6636814844856032
 20
5.787913093701162
 30
0.0
 42
0.0029088902912798
  0
VERTEX
  5
2C6
  8
0
 10
3.596089575291737
 20
5.8301492061934468
 30
0.0
 42
0.0404151429548671
  0
VERTEX
  5
2C7
  8
0
 10
3.412127246279109
 20
5.6787333671514917
 30
0.0
 42
0.0029088902912846
  0
VERTEX
  5
2C8
  8
0
 10
3.345822700432322
 20
5.7180499698124141
 30
0.0
 42
0.0404151429548669
  0
VERTEX
  5
2C9
  8
0
 10
3.3904296616889238
 20
5.9520993530971831
 30
0.0
 42
0.0029088902912775
  0
VERTEX
  5
2CA
  8
0
 10
3.320945898687409
 20
5.99114499390486
 30
0.0
 42
0.0404151429548671
  0
VERTEX
  5
2CB
  8
0
 10
3.1442274495781191
 20
5.8313342165682354
 30
0.0
 42
0.0029088902912846
  0
VERTEX
  5
2CC
  8
0
 10
3.076165486958879
 20
5.8675234040302753
 30
0.0
 42
0.0404151429548669
  0
VERTEX
  5
2CD
  8
0
 10
3.109834923215899
 20
6.103394690690318
 30
0.0
 42
0.0029088902912775
  0
VERTEX
  5
2CE
  8
0
 10
3.0386097927649551
 20
6.1391652956499643
 30
0.0
 42
0.0404151429548667
  0
VERTEX
  5
2CF
  8
0
 10
2.8695179563686302
 20
5.9713056945761851
 30
0.0
 42
0.0029088902912798
  0
VERTEX
  5
2D0
  8
0
 10
2.7998459840321361
 20
6.0042890891178038
 30
0.0
 42
0.0404151429548667
  0
VERTEX
  5
2D1
  8
0
 10
2.8225049747880511
 20
6.2414714344693332
 30
0.0
 42
0.0029088902912798
  0
VERTEX
  5
2D2
  8
0
 10
2.7496927346600359
 20
6.2738895324159003
 30
0.0
 42
0.0404151429548671
  0
VERTEX
  5
2D3
  8
0
 10
2.5885937262414398
 20
6.098344654122414
 30
0.0
 42
0.0029088902912798
  0
VERTEX
  5
2D4
  8
0
 10
2.517462638165421
 20
6.1280508210556794
 30
0.0
 42
0.0404151429548669
  0
VERTEX
  5
2D5
  8
0
 10
2.5290621090918921
 20
6.3660305409537301
 30
0.0
 42
0.0029088902912775
  0
VERTEX
  5
2D6
  8
0
 10
2.4548204543853069
 20
6.395025921505832
 30
0.0
 42
0.0404151429548669
  0
VERTEX
  5
2D7
  8
0
 10
2.3020631785236212
 20
6.2121759571092081
 30
0.0
 42
0.0029088902912798
  0
VERTEX
  5
2D8
  8
0
 10
2.2296270288055888
 20
6.2385405594914234
 30
0.0
 42
0.0404151429548669
  0
VERTEX
  5
2D9
  8
0
 10
2.2301418580315269
 20
6.4768022428553174
 30
0.0
 42
0.0029088902912775
  0
VERTEX
  5
2DA
  8
0
 10
2.1546315796385529
 20
6.502312108475282
 30
0.0
 42
0.0404151429548671
  0
VERTEX
  5
2DB
  8
0
 10
2.0105468745777562
 20
6.312553070281913
 30
0.0
 42
0.0029088902912798
  0
VERTEX
  5
2DC
  8
0
 10
1.936962543788133
 20
6.3355190082551101
 30
0.0
 42
0.0404151429548667
  0
VERTEX
  5
2DD
  8
0
 10
1.926391616308073
 20
6.5735466333340904
 30
0.0
 42
0.0029088902912798
  0
VERTEX
  5
2DE
  8
0
 10
1.8497762526773041
 20
6.5955157353334464
 30
0.0
 42
0.0404151429548667
  0
VERTEX
  5
2DF
  8
0
 10
1.7146761738042009
 20
6.3992585991650772
 30
0.0
 42
0.0029088902912775
  0
VERTEX
  5
2E0
  8
0
 10
1.6401030292179339
 20
6.4187761336215923
 30
0.0
 42
0.0404151429548669
  0
VERTEX
  5
2E1
  8
0
 10
1.618469239306896
 20
6.6560541855830273
 30
0.0
 42
0.0029088902912798
  0
VERTEX
  5
2E2
  8
0
 10
1.540914722255474
 20
6.674434943778861
 30
0.0
 42
0.0404151429548671
  0
VERTEX
  5
2E3
  8
0
 10
1.4150918662572161
 20
6.4721047588904694
 30
0.0
 42
0.0029088902912798
  0
VERTEX
  5
2E4
  8
0
 10
1.339691416699754
 20
6.4881316191967784
 30
0.0
 42
0.0404151429548667
  0
VERTEX
  5
2E5
  8
0
 10
1.3070416183293361
 20
6.7241462066164956
 30
0.0
 42
0.0029088902912775
  0
VERTEX
  5
2E6
  8
0
 10
1.2287159136715831
 20
6.738898812379527
 30
0.0
 42
0.0404151429548669
  0
VERTEX
  5
2E7
  8
0
 10
1.1124427848363989
 20
6.5309337808972936
 30
0.0
 42
0.0029088902912798
  0
VERTEX
  5
2E8
  8
0
 10
1.036378330891532
 20
6.5434352564427858
 30
0.0
 42
0.0404151429548669
  0
VERTEX
  5
2E9
  8
0
 10
0.9927832362546443
 20
6.7776752242794691
 30
0.0
 42
0.0029088902912798
  0
VERTEX
  5
2EA
  8
0
 10
0.9138559800255111
 20
6.7887677267506801
 30
0.0
 42
0.0404151429548669
  0
VERTEX
  5
2EB
  8
0
 10
0.807384400059103
 20
6.575618254623758
 30
0.0
 42
0.0029088902912798
  0
VERTEX
  5
2EC
  8
0
 10
0.7308206803962675
 20
6.5845672699961932
 30
0.0
 42
0.0404151429548664
  0
VERTEX
  5
2ED
  8
0
 10
0.6763747067602668
 20
6.8165253066393676
 30
0.0
 42
0.0029088902912775
  0
VERTEX
  5
2EE
  8
0
 10
0.5970168378214584
 20
6.8239336819284571
 30
0.0
 42
0.0404151429548664
  0
VERTEX
  5
2EF
  8
0
 10
0.5005774004572553
 20
6.6060614034499761
 30
0.0
 42
0.0029088902912798
  0
VERTEX
  5
2F0
  8
0
 10
0.4236802350442578
 20
6.6114385770747992
 30
0.0
 42
0.0404151429548664
  0
VERTEX
  5
2F1
  8
0
 10
0.3585013002641696
 20
6.8406123130688288
 30
0.0
 42
0.0029088902912775
  0
VERTEX
  5
2F2
  8
0
 10
0.2788846900886317
 20
6.8443205162845899
 30
0.0
 42
0.0404151429548667
  0
VERTEX
  5
2F3
  8
0
 10
0.1926862616731142
 20
6.6221972942945779
 30
0.0
 42
0.0029088902912846
  0
VERTEX
  5
2F4
  8
0
 10
0.1156221926470053
 20
6.623990980411091
 30
0.0
 42
0.0404151429548667
  0
VERTEX
  5
2F5
  8
0
 10
0.039851459781712
 20
6.8498840764755462
 30
0.0
 42
0.0029088902912727
  0
VERTEX
  5
2F6
  8
0
 10
-0.0398514597817069
 20
6.8498840764755471
 30
0.0
 42
0.0404151429548669
  0
VERTEX
  5
2F7
  8
0
 10
-0.1156221926470021
 20
6.623990980411091
 30
0.0
 42
0.0029088902912846
  0
VERTEX
  5
2F8
  8
0
 10
-0.192686261673109
 20
6.6221972942945779
 30
0.0
 42
0.0404151429548664
  0
VERTEX
  5
2F9
  8
0
 10
-0.278884690088627
 20
6.844320516284589
 30
0.0
 42
0.0029088902912775
  0
SEQEND
  5
DF
  8
0
  0
CIRCLE
  5
2FA
  8
0
 10
-6.1668790765908863
 20
0.9767376910949257
 30
0.0
 40
0.125
  0
CIRCLE
  5
2FB
  8
0
 10
-5.1791907359957481
 20
0.8203032260546995
 30
0.0
 40
0.125
  0
CIRCLE
  5
2FC
  8
0
 10
-5.9381591236178624
 20
1.9294248586285609
 30
0.0
 40
0.125
  0
CIRCLE
  5
2FD
  8
0
 10
-4.9871026073227069
 20
1.620407864253619
 30
0.0
 40
0.125
  0
CIRCLE
  5
2FE
  8
0
 10
-4.0360460910275533
 20
1.3113908698786749
 30
0.0
 40
0.125
  0
CIRCLE
  5
2FF
  8
0
 10
-5.563221985401122
 20
2.8346031827487779
 30
0.0
 40
0.125
  0
CIRCLE
  5
300
  8
0
 10
-4.6722154612127511
 20
2.380612683009236
 30
0.0
 40
0.125
  0
CIRCLE
  5
301
  8
0
 10
-3.781208937024382
 20
1.926622183269693
 30
0.0
 40
0.125
  0
CIRCLE
  5
302
  8
0
 10
-5.0512998586285809
 20
3.669984169001113
 30
0.0
 40
0.125
  0
CIRCLE
  5
303
  8
0
 10
-4.2422828642536308
 20
3.0821989167086441
 30
0.0
 40
0.125
  0
CIRCLE
  5
304
  8
0
 10
-3.4332658698786811
 20
2.4944136644161738
 30
0.0
 40
0.125
  0
CIRCLE
  5
305
  8
0
 10
-4.4149979650335096
 20
4.4149979650334901
 30
0.0
 40
0.125
  0
CIRCLE
  5
306
  8
0
 10
-3.7078911838469608
 20
3.7078911838469462
 30
0.0
 40
0.125
  0
CIRCLE
  5
307
  8
0
 10
-3.0007844026604098
 20
3.0007844026604018
 30
0.0
 40
0.125
  0
CIRCLE
  5
308
  8
0
 10
-3.6699841690011361
 20
5.0512998586285631
 30
0.0
 40
0.125
  0
CIRCLE
  5
309
  8
0
 10
-3.0821989167086592
 20
4.2422828642536192
 30
0.0
 40
0.125
  0
CIRCLE
  5
30A
  8
0
 10
-2.4944136644161832
 20
3.4332658698786731
 30
0.0
 40
0.125
  0
CIRCLE
  5
30B
  8
0
 10
-2.834603182748805
 20
5.5632219854011087
 30
0.0
 40
0.125
  0
CIRCLE
  5
30C
  8
0
 10
-2.3806126830092542
 20
4.672215461212744
 30
0.0
 40
0.125
  0
CIRCLE
  5
30D
  8
0
 10
-1.9266221832697039
 20
3.7812089370243771
 30
0.0
 40
0.125
  0
CIRCLE
  5
30E
  8
0
 10
-1.7749163614411141
 20
5.4626308654702784
 30
0.0
 40
0.125
  0
CIRCLE
  5
30F
  8
0
 10
-0.000000000000015
 20
6.2437499999999924
 30
0.0
 40
0.125
  0
CIRCLE
  5
310
  8
0
 10
1.9294248586285609
 20
5.9381591236178624
 30
0.0
 40
0.125
  0
CIRCLE
  5
311
  8
0
 10
2.8346031827487779
 20
5.563221985401122
 30
0.0
 40
0.125
  0
CIRCLE
  5
312
  8
0
 10
2.380612683009236
 20
4.6722154612127511
 30
0.0
 40
0.125
  0
CIRCLE
  5
313
  8
0
 10
1.926622183269693
 20
3.781208937024382
 30
0.0
 40
0.125
  0
CIRCLE
  5
314
  8
0
 10
3.3760915428548768
 20
4.6467913614411058
 30
0.0
 40
0.125
  0
CIRCLE
  5
315
  8
0
 10
2.7883062905624079
 20
3.8377743670661562
 30
0.0
 40
0.125
  0
CIRCLE
  5
316
  8
0
 10
2.2005210382699389
 20
3.028757372691206
 30
0.0
 40
0.125
  0
CIRCLE
  5
317
  8
0
 10
4.061444574440217
 20
4.0614445744402357
 30
0.0
 40
0.125
  0
CIRCLE
  5
318
  8
0
 10
3.354337793253674
 20
3.3543377932536851
 30
0.0
 40
0.125
  0
CIRCLE
  5
319
  8
0
 10
2.6472310120671301
 20
2.647231012067135
 30
0.0
 40
0.125
  0
CIRCLE
  5
31A
  8
0
 10
4.646791361441089
 20
3.3760915428548981
 30
0.0
 40
0.125
  0
CIRCLE
  5
31B
  8
0
 10
3.8377743670661451
 20
2.7883062905624221
 30
0.0
 40
0.125
  0
CIRCLE
  5
31C
  8
0
 10
3.028757372691202
 20
2.2005210382699452
 30
0.0
 40
0.125
  0
CIRCLE
  5
31D
  8
0
 10
5.1177187233069246
 20
2.6076079328790289
 30
0.0
 40
0.125
  0
CIRCLE
  5
31E
  8
0
 10
4.226712199118559
 20
2.1536174331394791
 30
0.0
 40
0.125
  0
CIRCLE
  5
31F
  8
0
 10
3.3357056749301939
 20
1.6996269333999281
 30
0.0
 40
0.125
  0
CIRCLE
  5
320
  8
0
 10
5.4626308654702784
 20
1.7749163614411141
 30
0.0
 40
0.125
  0
CIRCLE
  5
321
  8
0
 10
4.5115743491751248
 20
1.465899367066162
 30
0.0
 40
0.125
  0
CIRCLE
  5
322
  8
0
 10
3.5605178328799729
 20
1.1568823726912101
 30
0.0
 40
0.125
  0
CIRCLE
  5
323
  8
0
 10
5.6730349062933128
 20
0.8985204585748378
 30
0.0
 40
0.125
  0
CIRCLE
  5
324
  8
0
 10
4.6853465656981763
 20
0.7420859935346024
 30
0.0
 40
0.125
  0
CIRCLE
  5
325
  8
0
 10
5.7437499999999932
 20
0.000000000000013
 30
0.0
 40
0.125
  0
CIRCLE
  5
326
  8
0
 10
4.7437499999999932
 20
0.0000000000000085
 30
0.0
 40
0.125
  0
CIRCLE
  5
327
  8
0
 10
3.7437499999999928
 20
0.0000000000000039
 30
0.0
 40
0.125
  0
CIRCLE
  5
328
  8
0
 10
5.6730349062933163
 20
-0.8985204585748117
 30
0.0
 40
0.125
  0
CIRCLE
  5
329
  8
0
 10
4.6853465656981781
 20
-0.7420859935345857
 30
0.0
 40
0.125
  0
CIRCLE
  5
32A
  8
0
 10
3.6976582251030412
 20
-0.5856515284943596
 30
0.0
 40
0.125
  0
CIRCLE
  5
32B
  8
0
 10
5.4626308654702846
 20
-1.774916361441089
 30
0.0
 40
0.125
  0
CIRCLE
  5
32C
  8
0
 10
4.511574349175131
 20
-1.465899367066146
 30
0.0
 40
0.125
  0
CIRCLE
  5
32D
  8
0
 10
5.563221985401122
 20
-2.8346031827487779
 30
0.0
 40
0.125
  0
CIRCLE
  5
32E
  8
0
 10
4.6722154612127511
 20
-2.3806126830092351
 30
0.0
 40
0.125
  0
CIRCLE
  5
32F
  8
0
 10
5.0512998586285809
 20
-3.6699841690011121
 30
0.0
 40
0.125
  0
CIRCLE
  5
330
  8
0
 10
4.2422828642536308
 20
-3.0821989167086432
 30
0.0
 40
0.125
  0
CIRCLE
  5
331
  8
0
 10
3.4332658698786811
 20
-2.4944136644161738
 30
0.0
 40
0.125
  0
CIRCLE
  5
332
  8
0
 10
4.4149979650335114
 20
-4.4149979650334901
 30
0.0
 40
0.125
  0
CIRCLE
  5
333
  8
0
 10
3.7078911838469608
 20
-3.7078911838469448
 30
0.0
 40
0.125
  0
CIRCLE
  5
334
  8
0
 10
3.0007844026604098
 20
-3.0007844026604018
 30
0.0
 40
0.125
  0
CIRCLE
  5
335
  8
0
 10
3.669984169001137
 20
-5.0512998586285631
 30
0.0
 40
0.125
  0
CIRCLE
  5
336
  8
0
 10
3.0821989167086601
 20
-4.2422828642536183
 30
0.0
 40
0.125
  0
CIRCLE
  5
337
  8
0
 10
2.4944136644161841
 20
-3.4332658698786731
 30
0.0
 40
0.125
  0
CIRCLE
  5
338
  8
0
 10
2.834603182748805
 20
-5.5632219854011078
 30
0.0
 40
0.125
  0
CIRCLE
  5
339
  8
0
 10
2.3806126830092551
 20
-4.6722154612127431
 30
0.0
 40
0.125
  0
CIRCLE
  5
33A
  8
0
 10
1.9266221832697039
 20
-3.7812089370243771
 30
0.0
 40
0.125
  0
CIRCLE
  5
33B
  8
0
 10
1.7749163614411141
 20
-5.4626308654702784
 30
0.0
 40
0.125
  0
CIRCLE
  5
33C
  8
0
 10
0.0000000000000157
 20
-6.2437499999999924
 30
0.0
 40
0.125
  0
CIRCLE
  5
33D
  8
0
 10
-1.9294248586285601
 20
-5.9381591236178624
 30
0.0
 40
0.125
  0
CIRCLE
  5
33E
  8
0
 10
-2.8346031827487779
 20
-5.563221985401122
 30
0.0
 40
0.125
  0
CIRCLE
  5
33F
  8
0
 10
-2.3806126830092351
 20
-4.6722154612127511
 30
0.0
 40
0.125
  0
CIRCLE
  5
340
  8
0
 10
-1.926622183269693
 20
-3.781208937024382
 30
0.0
 40
0.125
  0
CIRCLE
  5
341
  8
0
 10
-3.3760915428548768
 20
-4.6467913614411058
 30
0.0
 40
0.125
  0
CIRCLE
  5
342
  8
0
 10
-2.7883062905624079
 20
-3.8377743670661562
 30
0.0
 40
0.125
  0
CIRCLE
  5
343
  8
0
 10
-2.2005210382699389
 20
-3.028757372691206
 30
0.0
 40
0.125
  0
CIRCLE
  5
344
  8
0
 10
-4.061444574440217
 20
-4.0614445744402357
 30
0.0
 40
0.125
  0
CIRCLE
  5
345
  8
0
 10
-3.3543377932536731
 20
-3.3543377932536851
 30
0.0
 40
0.125
  0
CIRCLE
  5
346
  8
0
 10
-2.6472310120671301
 20
-2.647231012067135
 30
0.0
 40
0.125
  0
CIRCLE
  5
347
  8
0
 10
-4.646791361441089
 20
-3.376091542854899
 30
0.0
 40
0.125
  0
CIRCLE
  5
348
  8
0
 10
-3.8377743670661451
 20
-2.7883062905624221
 30
0.0
 40
0.125
  0
CIRCLE
  5
349
  8
0
 10
-3.028757372691202
 20
-2.2005210382699461
 30
0.0
 40
0.125
  0
CIRCLE
  5
34A
  8
0
 10
-5.1177187233069246
 20
-2.6076079328790298
 30
0.0
 40
0.125
  0
CIRCLE
  5
34B
  8
0
 10
-4.226712199118559
 20
-2.1536174331394791
 30
0.0
 40
0.125
  0
CIRCLE
  5
34C
  8
0
 10
-5.4626308654702767
 20
-1.7749163614411141
 30
0.0
 40
0.125
  0
CIRCLE
  5
34D
  8
0
 10
-4.5115743491751248
 20
-1.4658993670661631
 30
0.0
 40
0.125
  0
CIRCLE
  5
34E
  8
0
 10
-6.1668790765908801
 20
-0.9767376910949561
 30
0.0
 40
0.125
  0
CIRCLE
  5
34F
  8
0
 10
-5.1791907359957436
 20
-0.820303226054721
 30
0.0
 40
0.125
  0
CIRCLE
  5
350
  8
0
 10
-4.1915023954006081
 20
-0.6638687610144853
 30
0.0
 40
0.125
  0
CIRCLE
  5
351
  8
0
 10
-6.2437499999999924
 20
-0.0000000000000161
 30
0.0
 40
0.125
  0
CIRCLE
  5
352
  8
0
 10
-5.2437499999999932
 20
-0.0000000000000114
 30
0.0
 40
0.125
  0
CIRCLE
  5
353
  8
0
 10
-4.2437499999999932
 20
-0.0000000000000067
 30
0.0
 40
0.125
  0
CIRCLE
  5
354
  8
0
 10
-3.7437499999999928
 20
-0.0000000000000043
 30
0.0
 40
0.125
  0
CIRCLE
  5
355
  8
0
 10
-4.7437499999999932
 20
-0.000000000000009
 30
0.0
 40
0.125
  0
CIRCLE
  5
356
  8
0
 10
-5.7437499999999932
 20
-0.0000000000000137
 30
0.0
 40
0.125
  0
CIRCLE
  5
357
  8
0
 10
-3.697658225103039
 20
-0.5856515284943678
 30
0.0
 40
0.125
  0
CIRCLE
  5
358
  8
0
 10
-4.6853465656981763
 20
-0.742085993534603
 30
0.0
 40
0.125
  0
CIRCLE
  5
359
  8
0
 10
-5.6730349062933128
 20
-0.8985204585748384
 30
0.0
 40
0.125
  0
CIRCLE
  5
35A
  8
0
 10
-3.5605178328799729
 20
-1.156882372691211
 30
0.0
 40
0.125
  0
CIRCLE
  5
35B
  8
0
 10
-4.9871026073227007
 20
-1.620407864253639
 30
0.0
 40
0.125
  0
CIRCLE
  5
35C
  8
0
 10
-5.9381591236178517
 20
-1.9294248586285909
 30
0.0
 40
0.125
  0
CIRCLE
  5
35D
  8
0
 10
-4.6722154612127431
 20
-2.3806126830092551
 30
0.0
 40
0.125
  0
CIRCLE
  5
35E
  8
0
 10
-5.5632219854011078
 20
-2.8346031827488058
 30
0.0
 40
0.125
  0
CIRCLE
  5
35F
  8
0
 10
-3.4332658698786731
 20
-2.4944136644161841
 30
0.0
 40
0.125
  0
CIRCLE
  5
360
  8
0
 10
-4.2422828642536183
 20
-3.0821989167086601
 30
0.0
 40
0.125
  0
CIRCLE
  5
361
  8
0
 10
-5.0512998586285631
 20
-3.6699841690011379
 30
0.0
 40
0.125
  0
CIRCLE
  5
362
  8
0
 10
-3.0007844026604018
 20
-3.0007844026604098
 30
0.0
 40
0.125
  0
CIRCLE
  5
363
  8
0
 10
-3.7078911838469448
 20
-3.7078911838469608
 30
0.0
 40
0.125
  0
CIRCLE
  5
364
  8
0
 10
-4.4149979650334901
 20
-4.4149979650335114
 30
0.0
 40
0.125
  0
CIRCLE
  5
365
  8
0
 10
-2.494413664416173
 20
-3.433265869878682
 30
0.0
 40
0.125
  0
CIRCLE
  5
366
  8
0
 10
-3.0821989167086419
 20
-4.2422828642536317
 30
0.0
 40
0.125
  0
CIRCLE
  5
367
  8
0
 10
-3.6699841690011108
 20
-5.0512998586285818
 30
0.0
 40
0.125
  0
CIRCLE
  5
368
  8
0
 10
-2.153617433139464
 20
-4.226712199118567
 30
0.0
 40
0.125
  0
CIRCLE
  5
369
  8
0
 10
-2.6076079328790058
 20
-5.117718723306937
 30
0.0
 40
0.125
  0
CIRCLE
  5
36A
  8
0
 10
-1.774916361441089
 20
-5.4626308654702846
 30
0.0
 40
0.125
  0
CIRCLE
  5
36B
  8
0
 10
-0.9767376910949247
 20
-6.1668790765908872
 30
0.0
 40
0.125
  0
CIRCLE
  5
36C
  8
0
 10
0.9767376910949558
 20
-6.1668790765908801
 30
0.0
 40
0.125
  0
CIRCLE
  5
36D
  8
0
 10
1.92942485862859
 20
-5.9381591236178526
 30
0.0
 40
0.125
  0
CIRCLE
  5
36E
  8
0
 10
2.1536174331394791
 20
-4.226712199118559
 30
0.0
 40
0.125
  0
CIRCLE
  5
36F
  8
0
 10
2.6076079328790298
 20
-5.1177187233069246
 30
0.0
 40
0.125
  0
CIRCLE
  5
370
  8
0
 10
2.2005210382699452
 20
-3.028757372691202
 30
0.0
 40
0.125
  0
CIRCLE
  5
371
  8
0
 10
2.7883062905624221
 20
-3.8377743670661451
 30
0.0
 40
0.125
  0
CIRCLE
  5
372
  8
0
 10
3.3760915428548981
 20
-4.646791361441089
 30
0.0
 40
0.125
  0
CIRCLE
  5
373
  8
0
 10
2.647231012067135
 20
-2.6472310120671301
 30
0.0
 40
0.125
  0
CIRCLE
  5
374
  8
0
 10
3.3543377932536851
 20
-3.3543377932536731
 30
0.0
 40
0.125
  0
CIRCLE
  5
375
  8
0
 10
4.0614445744402357
 20
-4.061444574440217
 30
0.0
 40
0.125
  0
CIRCLE
  5
376
  8
0
 10
3.028757372691206
 20
-2.2005210382699389
 30
0.0
 40
0.125
  0
CIRCLE
  5
377
  8
0
 10
3.8377743670661562
 20
-2.7883062905624079
 30
0.0
 40
0.125
  0
CIRCLE
  5
378
  8
0
 10
4.6467913614411058
 20
-3.3760915428548768
 30
0.0
 40
0.125
  0
CIRCLE
  5
379
  8
0
 10
4.226712199118567
 20
-2.153617433139464
 30
0.0
 40
0.125
  0
CIRCLE
  5
37A
  8
0
 10
5.117718723306937
 20
-2.6076079328790058
 30
0.0
 40
0.125
  0
CIRCLE
  5
37B
  8
0
 10
3.560517832879976
 20
-1.156882372691203
 30
0.0
 40
0.125
  0
CIRCLE
  5
37C
  8
0
 10
4.9871026073227069
 20
-1.620407864253617
 30
0.0
 40
0.125
  0
CIRCLE
  5
37D
  8
0
 10
5.9381591236178624
 20
-1.9294248586285601
 30
0.0
 40
0.125
  0
CIRCLE
  5
37E
  8
0
 10
4.191502395400609
 20
-0.6638687610144727
 30
0.0
 40
0.125
  0
CIRCLE
  5
37F
  8
0
 10
5.1791907359957481
 20
-0.820303226054699
 30
0.0
 40
0.125
  0
CIRCLE
  5
380
  8
0
 10
6.1668790765908863
 20
-0.976737691094925
 30
0.0
 40
0.125
  0
CIRCLE
  5
381
  8
0
 10
4.2437499999999932
 20
0.0000000000000062
 30
0.0
 40
0.125
  0
CIRCLE
  5
382
  8
0
 10
5.2437499999999932
 20
0.0000000000000107
 30
0.0
 40
0.125
  0
CIRCLE
  5
383
  8
0
 10
6.2437499999999924
 20
0.0000000000000153
 30
0.0
 40
0.125
  0
CIRCLE
  5
384
  8
0
 10
5.1791907359957436
 20
0.82030322605472
 30
0.0
 40
0.125
  0
CIRCLE
  5
385
  8
0
 10
6.1668790765908801
 20
0.9767376910949552
 30
0.0
 40
0.125
  0
CIRCLE
  5
386
  8
0
 10
4.0360460910275497
 20
1.311390869878686
 30
0.0
 40
0.125
  0
CIRCLE
  5
387
  8
0
 10
4.9871026073227007
 20
1.6204078642536379
 30
0.0
 40
0.125
  0
CIRCLE
  5
388
  8
0
 10
5.9381591236178526
 20
1.92942485862859
 30
0.0
 40
0.125
  0
CIRCLE
  5
389
  8
0
 10
3.7812089370243771
 20
1.9266221832697039
 30
0.0
 40
0.125
  0
CIRCLE
  5
38A
  8
0
 10
4.6722154612127431
 20
2.3806126830092542
 30
0.0
 40
0.125
  0
CIRCLE
  5
38B
  8
0
 10
5.5632219854011078
 20
2.834603182748805
 30
0.0
 40
0.125
  0
CIRCLE
  5
38C
  8
0
 10
3.4332658698786731
 20
2.4944136644161841
 30
0.0
 40
0.125
  0
CIRCLE
  5
38D
  8
0
 10
4.2422828642536183
 20
3.0821989167086601
 30
0.0
 40
0.125
  0
CIRCLE
  5
38E
  8
0
 10
5.0512998586285631
 20
3.669984169001137
 30
0.0
 40
0.125
  0
CIRCLE
  5
38F
  8
0
 10
3.0007844026604018
 20
3.0007844026604098
 30
0.0
 40
0.125
  0
CIRCLE
  5
390
  8
0
 10
3.7078911838469462
 20
3.7078911838469608
 30
0.0
 40
0.125
  0
CIRCLE
  5
391
  8
0
 10
4.4149979650334901
 20
4.4149979650335114
 30
0.0
 40
0.125
  0
CIRCLE
  5
392
  8
0
 10
2.4944136644161738
 20
3.4332658698786811
 30
0.0
 40
0.125
  0
CIRCLE
  5
393
  8
0
 10
3.0821989167086432
 20
4.2422828642536308
 30
0.0
 40
0.125
  0
CIRCLE
  5
394
  8
0
 10
3.6699841690011121
 20
5.0512998586285809
 30
0.0
 40
0.125
  0
CIRCLE
  5
395
  8
0
 10
2.153617433139464
 20
4.226712199118567
 30
0.0
 40
0.125
  0
CIRCLE
  5
396
  8
0
 10
2.6076079328790072
 20
5.117718723306937
 30
0.0
 40
0.125
  0
CIRCLE
  5
397
  8
0
 10
1.774916361441089
 20
5.4626308654702846
 30
0.0
 40
0.125
  0
CIRCLE
  5
398
  8
0
 10
0.9767376910949254
 20
6.1668790765908863
 30
0.0
 40
0.125
  0
CIRCLE
  5
399
  8
0
 10
-0.976737691094955
 20
6.1668790765908801
 30
0.0
 40
0.125
  0
CIRCLE
  5
39A
  8
0
 10
-1.9294248586285889
 20
5.9381591236178526
 30
0.0
 40
0.125
  0
CIRCLE
  5
39B
  8
0
 10
-2.1536174331394791
 20
4.2267121991185599
 30
0.0
 40
0.125
  0
CIRCLE
  5
39C
  8
0
 10
-2.6076079328790289
 20
5.1177187233069263
 30
0.0
 40
0.125
  0
CIRCLE
  5
39D
  8
0
 10
-2.2005210382699452
 20
3.028757372691202
 30
0.0
 40
0.125
  0
CIRCLE
  5
39E
  8
0
 10
-2.7883062905624212
 20
3.8377743670661459
 30
0.0
 40
0.125
  0
CIRCLE
  5
39F
  8
0
 10
-3.3760915428548981
 20
4.6467913614410898
 30
0.0
 40
0.125
  0
CIRCLE
  5
3A0
  8
0
 10
-2.647231012067135
 20
2.6472310120671301
 30
0.0
 40
0.125
  0
CIRCLE
  5
3A1
  8
0
 10
-3.3543377932536851
 20
3.354337793253674
 30
0.0
 40
0.125
  0
CIRCLE
  5
3A2
  8
0
 10
-4.0614445744402357
 20
4.061444574440217
 30
0.0
 40
0.125
  0
CIRCLE
  5
3A3
  8
0
 10
-3.028757372691206
 20
2.2005210382699389
 30
0.0
 40
0.125
  0
CIRCLE
  5
3A4
  8
0
 10
-3.8377743670661562
 20
2.7883062905624092
 30
0.0
 40
0.125
  0
CIRCLE
  5
3A5
  8
0
 10
-4.6467913614411058
 20
3.3760915428548781
 30
0.0
 40
0.125
  0
CIRCLE
  5
3A6
  8
0
 10
-3.3357056749301979
 20
1.6996269333999221
 30
0.0
 40
0.125
  0
CIRCLE
  5
3A7
  8
0
 10
-4.226712199118567
 20
2.153617433139464
 30
0.0
 40
0.125
  0
CIRCLE
  5
3A8
  8
0
 10
-5.117718723306937
 20
2.6076079328790072
 30
0.0
 40
0.125
  0
CIRCLE
  5
3A9
  8
0
 10
-3.560517832879976
 20
1.1568823726912041
 30
0.0
 40
0.125
  0
CIRCLE
  5
3AA
  8
0
 10
-4.511574349175131
 20
1.4658993670661471
 30
0.0
 40
0.125
  0
CIRCLE
  5
3AB
  8
0
 10
-5.4626308654702846
 20
1.7749163614410901
 30
0.0
 40
0.125
  0
CIRCLE
  5
3AC
  8
0
 10
-4.6853465656981781
 20
0.7420859935345863
 30
0.0
 40
0.125
  0
CIRCLE
  5
3AD
  8
0
 10
-5.6730349062933163
 20
0.8985204585748126
 30
0.0
 40
0.125
  0
ENDSEC
  0
EOF
