  0
SECTION
  2
HEADER
  9
$ACADVER
  1
AC1009
  9
$INSBASE
 10
0.0
 20
0.0
 30
0.0
  9
$EXTMIN
 10
0.0
 20
0.0
 30
0.0
  9
$EXTMAX
 10
6.4657456958095167
 20
19.60788557590044
 30
0.0
  9
$LIMMIN
 10
0.0
 20
0.0
  9
$LIMMAX
 10
6.4657456958095167
 20
19.60788557590044
  9
$ORTHOMODE
 70
     0
  9
$REGENMODE
 70
     1
  9
$FILLMODE
 70
     1
  9
$QTEXTMODE
 70
     0
  9
$MIRRTEXT
 70
     0
  9
$DRAGMODE
 70
     2
  9
$LTSCALE
 40
1.0
  9
$OSMODE
 70
     0
  9
$ATTMODE
 70
     1
  9
$TEXTSIZE
 40
0.2
  9
$TRACEWID
 40
0.05
  9
$TEXTSTYLE
  7
STANDARD
  9
$CLAYER
  8
0
  9
$CELTYPE
  6
BYLAYER
  9
$CECOLOR
 62
   256
  9
$DIMSCALE
 40
1.0
  9
$DIMASZ
 40
0.0708661417322835
  9
$DIMEXO
 40
0.0625
  9
$DIMDLI
 40
0.38
  9
$DIMRND
 40
0.0
  9
$DIMDLE
 40
0.0
  9
$DIMEXE
 40
0.18
  9
$DIMTP
 40
0.0
  9
$DIMTM
 40
0.0
  9
$DIMTXT
 40
0.0708661417322835
  9
$DIMCEN
 40
0.09
  9
$DIMTSZ
 40
0.0
  9
$DIMTOL
 70
     0
  9
$DIMLIM
 70
     0
  9
$DIMTIH
 70
     1
  9
$DIMTOH
 70
     1
  9
$DIMSE1
 70
     0
  9
$DIMSE2
 70
     0
  9
$DIMTAD
 70
     0
  9
$DIMZIN
 70
     0
  9
$DIMBLK
  1

  9
$DIMASO
 70
     1
  9
$DIMSHO
 70
     1
  9
$DIMPOST
  1

  9
$DIMAPOST
  1

  9
$DIMALT
 70
     0
  9
$DIMALTD
 70
     2
  9
$DIMALTF
 40
25.399999999999999
  9
$DIMLFAC
 40
1.0
  9
$DIMTOFL
 70
     0
  9
$DIMTVP
 40
0.0
  9
$DIMTIX
 70
     0
  9
$DIMSOXD
 70
     0
  9
$DIMSAH
 70
     0
  9
$DIMBLK1
  1

  9
$DIMBLK2
  1

  9
$DIMSTYLE
  2
STANDARD
  9
$DIMCLRD
 70
     0
  9
$DIMCLRE
 70
     0
  9
$DIMCLRT
 70
     0
  9
$DIMTFAC
 40
1.0
  9
$DIMGAP
 40
0.09
  9
$LUNITS
 70
     2
  9
$LUPREC
 70
     4
  9
$SKETCHINC
 40
0.1
  9
$FILLETRAD
 40
0.0
  9
$AUNITS
 70
     0
  9
$AUPREC
 70
     0
  9
$MENU
  1
.
  9
$ELEVATION
 40
0.0
  9
$PELEVATION
 40
0.0
  9
$THICKNESS
 40
0.0
  9
$LIMCHECK
 70
     0
  9
$BLIPMODE
 70
     0
  9
$CHAMFERA
 40
0.0
  9
$CHAMFERB
 40
0.0
  9
$SKPOLY
 70
     0
  9
$TDCREATE
 40
2456358.635849908
  9
$TDUPDATE
 40
2456358.635849908
  9
$TDINDWG
 40
0.0000039005
  9
$TDUSRTIMER
 40
0.0000039005
  9
$USRTIMER
 70
     1
  9
$ANGBASE
 50
0.0
  9
$ANGDIR
 70
     0
  9
$PDMODE
 70
     0
  9
$PDSIZE
 40
0.0
  9
$PLINEWID
 40
0.0
  9
$COORDS
 70
     0
  9
$SPLFRAME
 70
     0
  9
$SPLINETYPE
 70
     6
  9
$SPLINESEGS
 70
     8
  9
$ATTDIA
 70
     0
  9
$ATTREQ
 70
     1
  9
$HANDLING
 70
     1
  9
$HANDSEED
  5
1B7
  9
$SURFTAB1
 70
     6
  9
$SURFTAB2
 70
     6
  9
$SURFTYPE
 70
     6
  9
$SURFU
 70
     6
  9
$SURFV
 70
     6
  9
$UCSNAME
  2

  9
$UCSORG
 10
0.0
 20
0.0
 30
0.0
  9
$UCSXDIR
 10
1.0
 20
0.0
 30
0.0
  9
$UCSYDIR
 10
0.0
 20
1.0
 30
0.0
  9
$PUCSNAME
  2

  9
$PUCSORG
 10
0.0
 20
0.0
 30
0.0
  9
$PUCSXDIR
 10
1.0
 20
0.0
 30
0.0
  9
$PUCSYDIR
 10
0.0
 20
1.0
 30
0.0
  9
$USERI1
 70
     0
  9
$USERI2
 70
     0
  9
$USERI3
 70
     0
  9
$USERI4
 70
     0
  9
$USERI5
 70
     0
  9
$USERR1
 40
0.0
  9
$USERR2
 40
0.0
  9
$USERR3
 40
0.0
  9
$USERR4
 40
0.0
  9
$USERR5
 40
0.0
  9
$WORLDVIEW
 70
     1
  9
$SHADEDGE
 70
     3
  9
$SHADEDIF
 70
    70
  9
$TILEMODE
 70
     1
  9
$MAXACTVP
 70
    64
  9
$PLIMCHECK
 70
     0
  9
$PEXTMIN
 10
0.0
 20
0.0
 30
0.0
  9
$PEXTMAX
 10
6.4657456958095167
 20
19.60788557590044
 30
0.0
  9
$PLIMMIN
 10
0.0
 20
0.0
  9
$PLIMMAX
 10
6.4657456958095167
 20
19.60788557590044
  9
$UNITMODE
 70
     0
  9
$VISRETAIN
 70
     1
  9
$PLINEGEN
 70
     0
  9
$PSLTSCALE
 70
     1
  0
ENDSEC
  0
SECTION
  2
TABLES
  0
TABLE
  2
VPORT
 70
     1
  0
VPORT
  2
*ACTIVE
 70
     0
 10
0.0
 20
0.0
 11
1.0
 21
1.0
 12
2.868901759350746
 22
-8.7996585201443906
 13
0.0
 23
0.0
 14
1.0
 24
1.0
 15
0.0
 25
0.0
 16
0.0
 26
0.0
 36
1.0
 17
0.0
 27
0.0
 37
0.0
 40
19.60788557590044
 41
0.3297523167799593
 42
50.0
 43
0.0
 44
0.0
 50
0.0
 51
0.0
 71
     0
 72
   100
 73
     1
 74
     1
 75
     0
 76
     0
 77
     0
 78
     0
  0
ENDTAB
  0
TABLE
  2
LTYPE
 70
    59
  0
LTYPE
  2
CONTINUOUS
 70
     0
  3
Solid line
 72
    65
 73
     0
 40
0.0
  0
LTYPE
  2
PHANTOM2
 70
     0
  3
Phantom (.5x) ___ _ _ ___ _ _ ___ _ _ ___ _ _
 72
    65
 73
     6
 40
1.25
 49
0.625
 49
-0.125
 49
0.125
 49
-0.125
 49
0.125
 49
-0.125
  0
LTYPE
  2
BY_STANDARD
 70
     0
  3
By Standard ____________    ____    ____   _
 72
    65
 73
     6
 40
1.2402999999999991
 49
0.6614
 49
-0.0827
 49
0.1654
 49
-0.0827
 49
0.1654
 49
-0.0827
  0
LTYPE
  2
CHAIN
 70
     0
  3
Chain ____ _ ____ _ ____ _ ____ _ ____ _ ____
 72
    65
 73
     4
 40
0.7087
 49
0.4724000000000001
 49
-0.0591
 49
0.1181
 49
-0.0591
  0
LTYPE
  2
DASH_DOT
 70
     0
  3
Dash dot __ . __ . __ . __ . __ . __ . __ . __
 72
    65
 73
     4
 40
0.37
 49
0.24
 49
-0.06
 49
0.01
 49
-0.06
  0
LTYPE
  2
DOUBLE_DASH_DOT
 70
     0
  3
Double-Dash Dot __ __ . __ __ . __ __ . __ _
 72
    65
 73
     6
 40
0.4398
 49
0.24
 49
-0.06
 49
0.0098
 49
-0.06
 49
0.01
 49
-0.06
  0
LTYPE
  2
DASH_TRIPLE_DOT
 70
     0
  3
Dash Triple-Dot _ . . . _ . . . _ . . . _
 72
    65
 73
     8
 40
0.51
 49
0.24
 49
-0.06
 49
0.01
 49
-0.06
 49
0.01
 49
-0.06
 49
0.01
 49
-0.06
  0
LTYPE
  2
DASHED
 70
     0
  3
Dashed __ __ __ __ __ __ __ __ __ __ __ __ __ _
 72
    65
 73
     2
 40
0.2067
 49
0.1654
 49
-0.0413
  0
LTYPE
  2
DASH_DOUBLE_DOT
 70
     0
  3
Dash Double-Dot __ . . __ . . __ . . __ . .
 72
    65
 73
     6
 40
0.4398
 49
0.24
 49
-0.06
 49
0.0098
 49
-0.06
 49
0.01
 49
-0.06
  0
LTYPE
  2
DASHED_SPACE
 70
     0
  3
Dashed Space __ __ __ __ __ __ __ __ __ __ __ _
 72
    65
 73
     2
 40
0.2067
 49
0.1654
 49
-0.0413
  0
LTYPE
  2
DOTTED
 70
     0
  3
Dotted . . . . . . . . . . . . . . . . . . . . 
 72
    65
 73
     2
 40
0.0482
 49
0.0069
 49
-0.0413
  0
LTYPE
  2
DOUBLE_DASH_CHAIN
 70
     0
  3
Double-Dash Chain ______  __  __  ______  __  _
 72
    65
 73
     6
 40
1.2402999999999991
 49
0.6614
 49
-0.0827
 49
0.1654
 49
-0.0827
 49
0.1654
 49
-0.0827
  0
LTYPE
  2
DOUBLE_DASH_DOUBLE_DOT
 70
     0
  3
Double-Dash Double-dot _ _ . . _ _ . . _
 72
    65
 73
     8
 40
0.7400000000000001
 49
0.24
 49
-0.06
 49
0.24
 49
-0.06
 49
0.01
 49
-0.06
 49
0.01
 49
-0.06
  0
LTYPE
  2
DOUBLE_DASH_TRIPLE_DOT
 70
     0
  3
Double Dash Triple Dot __ __ . . . __ __ . .
 72
    65
 73
    10
 40
0.8100000000000001
 49
0.24
 49
-0.06
 49
0.24
 49
-0.06
 49
0.01
 49
-0.06
 49
0.01
 49
-0.06
 49
0.01
 49
-0.06
  0
LTYPE
  2
LONG_DASH_DOTTED
 70
     0
  3
Long Dash Dotted ____ . ____ . ____ . ____ . _
 72
    65
 73
     4
 40
0.3543
 49
0.2362
 49
-0.0295
 49
0.0591
 49
-0.0295
  0
LTYPE
  2
LONG_DASH_DOUBLE_DOT
 70
     0
  3
Long Dash Double Dot ________  .  .  ________  
 72
    65
 73
     6
 40
0.6799999999999999
 49
0.48
 49
-0.06
 49
0.01
 49
-0.06
 49
0.01
 49
-0.06
  0
LTYPE
  2
LONG_DASH_TRIPLE_DOT
 70
     0
  3
Long Dash Triple Dot ____ ... ____ ... ____
 72
    65
 73
     8
 40
0.3689
 49
0.2362
 49
-0.0295
 49
0.0049
 49
-0.0295
 49
0.0049
 49
-0.0295
 49
0.0049
 49
-0.0295
  0
LTYPE
  2
BORDER
 70
     0
  3
Border __ __ . __ __ . __ __ . __ __ . __ __ .
 72
    65
 73
     6
 40
1.75
 49
0.5
 49
-0.25
 49
0.5
 49
-0.25
 49
0.0
 49
-0.25
  0
LTYPE
  2
BORDER2
 70
     0
  3
Border (.5x) __.__.__.__.__.__.__.__.__.__.__.
 72
    65
 73
     6
 40
0.875
 49
0.25
 49
-0.125
 49
0.25
 49
-0.125
 49
0.0
 49
-0.125
  0
LTYPE
  2
BORDERX2
 70
     0
  3
Border (2x) ____  ____  .  ____  ____  .  ___
 72
    65
 73
     6
 40
3.5
 49
1.0
 49
-0.5
 49
1.0
 49
-0.5
 49
0.0
 49
-0.5
  0
LTYPE
  2
CENTER
 70
     0
  3
Center ____ _ ____ _ ____ _ ____ _ ____ _ ____
 72
    65
 73
     4
 40
2.0
 49
1.25
 49
-0.25
 49
0.25
 49
-0.25
  0
LTYPE
  2
CENTER2
 70
     0
  3
Center (.5x) ___ _ ___ _ ___ _ ___ _ ___ _ ___
 72
    65
 73
     4
 40
1.125
 49
0.75
 49
-0.125
 49
0.125
 49
-0.125
  0
LTYPE
  2
CENTERX2
 70
     0
  3
Center (2x) ________  __  ________  __  _____
 72
    65
 73
     4
 40
4.0
 49
2.5
 49
-0.5
 49
0.5
 49
-0.5
  0
LTYPE
  2
DASHDOT2
 70
     0
  3
Dash dot (.5x) _._._._._._._._._._._._._._._.
 72
    65
 73
     4
 40
0.5
 49
0.25
 49
-0.125
 49
0.0
 49
-0.125
  0
LTYPE
  2
DASHDOTX2
 70
     0
  3
Dash dot (2x) ____  .  ____  .  ____  .  ___
 72
    65
 73
     4
 40
2.0
 49
1.0
 49
-0.5
 49
0.0
 49
-0.5
  0
LTYPE
  2
DASHED2
 70
     0
  3
Dashed (.5x) _ _ _ _ _ _ _ _ _ _ _ _ _ _ _ _ _
 72
    65
 73
     2
 40
0.375
 49
0.25
 49
-0.125
  0
LTYPE
  2
DASHEDX2
 70
     0
  3
Dashed (2x) ____  ____  ____  ____  ____  ___
 72
    65
 73
     2
 40
1.5
 49
1.0
 49
-0.5
  0
LTYPE
  2
DIVIDE
 70
     0
  3
Divide ____ . . ____ . . ____ . . ____ . . ____
 72
    65
 73
     6
 40
1.25
 49
0.5
 49
-0.25
 49
0.0
 49
-0.25
 49
0.0
 49
-0.25
  0
LTYPE
  2
DIVIDE2
 70
     0
  3
Divide (.5x) __..__..__..__..__..__..__..__.._
 72
    65
 73
     6
 40
0.625
 49
0.25
 49
-0.125
 49
0.0
 49
-0.125
 49
0.0
 49
-0.125
  0
LTYPE
  2
DIVIDEX2
 70
     0
  3
Divide (2x) ________  .  .  ________  .  .  _
 72
    65
 73
     6
 40
2.5
 49
1.0
 49
-0.5
 49
0.0
 49
-0.5
 49
0.0
 49
-0.5
  0
LTYPE
  2
DOT
 70
     0
  3
Dot . . . . . . . . . . . . . . . . . . . . . .
 72
    65
 73
     2
 40
0.25
 49
0.0
 49
-0.25
  0
LTYPE
  2
DOT2
 70
     0
  3
Dot (.5x) .....................................
 72
    65
 73
     2
 40
0.125
 49
0.0
 49
-0.125
  0
LTYPE
  2
DOTX2
 70
     0
  3
Dot (2x) .  .  .  .  .  .  .  .  .  .  .  .  . 
 72
    65
 73
     2
 40
0.5
 49
0.0
 49
-0.5
  0
LTYPE
  2
HIDDEN
 70
     0
  3
Hidden __ __ __ __ __ __ __ __ __ __ __ __ __ _
 72
    65
 73
     2
 40
0.375
 49
0.25
 49
-0.125
  0
LTYPE
  2
HIDDEN2
 70
     0
  3
Hidden (.5x) _ _ _ _ _ _ _ _ _ _ _ _ _ _ _ _ _
 72
    65
 73
     2
 40
0.1875
 49
0.125
 49
-0.0625
  0
LTYPE
  2
HIDDENX2
 70
     0
  3
Hidden (2x) ____ ____ ____ ____ ____ ____ ____
 72
    65
 73
     2
 40
0.75
 49
0.5
 49
-0.25
  0
LTYPE
  2
PHANTOM
 70
     0
  3
Phantom ______  __  __  ______  __  __  ______
 72
    65
 73
     6
 40
2.5
 49
1.25
 49
-0.25
 49
0.25
 49
-0.25
 49
0.25
 49
-0.25
  0
LTYPE
  2
PHANTOMX2
 70
     0
  3
Phantom (2x) ____________    ____    ____   _
 72
    65
 73
     6
 40
5.0
 49
2.5
 49
-0.5
 49
0.5
 49
-0.5
 49
0.5
 49
-0.5
  0
LTYPE
  2
ACAD_ISO02W100
 70
     0
  3
ISO dash __ __ __ __ __ __ __ __ __ __ __ __ __
 72
    65
 73
     2
 40
0.59
 49
0.47
 49
-0.12
  0
LTYPE
  2
ACAD_ISO03W100
 70
     0
  3
ISO dash space __    __    __    __    __    __
 72
    65
 73
     2
 40
1.179999999999999
 49
0.47
 49
-0.71
  0
LTYPE
  2
ACAD_ISO04W100
 70
     0
  3
ISO long-dash dot ____ . ____ . ____ . ____ . _
 72
    65
 73
     4
 40
1.179999999999999
 49
0.9399999999999998
 49
-0.12
 49
0.0
 49
-0.12
  0
LTYPE
  2
ACAD_ISO05W100
 70
     0
  3
ISO long-dash double-dot ____ .. ____ .. ____ .
 72
    65
 73
     6
 40
1.2999999999999989
 49
0.9399999999999998
 49
-0.12
 49
0.0
 49
-0.12
 49
0.0
 49
-0.12
  0
LTYPE
  2
ACAD_ISO06W100
 70
     0
  3
ISO long-dash triple-dot ____ ... ____ ... ____
 72
    65
 73
     8
 40
1.419999999999999
 49
0.9399999999999998
 49
-0.12
 49
0.0
 49
-0.12
 49
0.0
 49
-0.12
 49
0.0
 49
-0.12
  0
LTYPE
  2
ACAD_ISO07W100
 70
     0
  3
ISO dot . . . . . . . . . . . . . . . . . . . .
 72
    65
 73
     2
 40
0.12
 49
0.0
 49
-0.12
  0
LTYPE
  2
ACAD_ISO08W100
 70
     0
  3
ISO long-dash short-dash ____ __ ____ __ ____ _
 72
    65
 73
     4
 40
0.95
 49
0.47
 49
-0.12
 49
0.24
 49
-0.12
  0
LTYPE
  2
ACAD_ISO09W100
 70
     0
  3
ISO long-dash double-short-dash ____ __ __ ____
 72
    65
 73
     6
 40
1.3100000000000001
 49
0.47
 49
-0.12
 49
0.24
 49
-0.12
 49
0.24
 49
-0.12
  0
LTYPE
  2
ACAD_ISO10W100
 70
     0
  3
ISO dash dot __ . __ . __ . __ . __ . __ . __ .
 72
    65
 73
     4
 40
0.71
 49
0.47
 49
-0.12
 49
0.0
 49
-0.12
  0
LTYPE
  2
ACAD_ISO11W100
 70
     0
  3
ISO double-dash dot __ __ . __ __ . __ __ . __ 
 72
    65
 73
     6
 40
1.2999999999999989
 49
0.47
 49
-0.12
 49
0.47
 49
-0.12
 49
0.0
 49
-0.12
  0
LTYPE
  2
ACAD_ISO12W100
 70
     0
  3
ISO dash double-dot __ . . __ . . __ . . __ . .
 72
    65
 73
     6
 40
0.8299999999999999
 49
0.47
 49
-0.12
 49
0.0
 49
-0.12
 49
0.0
 49
-0.12
  0
LTYPE
  2
ACAD_ISO13W100
 70
     0
  3
ISO double-dash double-dot __ __ . . __ __ . . 
 72
    65
 73
     8
 40
1.419999999999999
 49
0.47
 49
-0.12
 49
0.47
 49
-0.12
 49
0.0
 49
-0.12
 49
0.0
 49
-0.12
  0
LTYPE
  2
ACAD_ISO14W100
 70
     0
  3
ISO dash triple-dot __ . . . __ . . . __ . . . 
 72
    65
 73
     8
 40
0.95
 49
0.47
 49
-0.12
 49
0.0
 49
-0.12
 49
0.0
 49
-0.12
 49
0.0
 49
-0.12
  0
LTYPE
  2
ACAD_ISO15W100
 70
     0
  3
ISO double-dash triple-dot __ __ . . . __ __ . 
 72
    65
 73
    10
 40
1.5399999999999989
 49
0.47
 49
-0.12
 49
0.47
 49
-0.12
 49
0.0
 49
-0.12
 49
0.0
 49
-0.12
 49
0.0
 49
-0.12
  0
LTYPE
  2
FENCELINE1
 70
     0
  3
Fenceline circle ----0-----0----0-----0----0---
 72
    65
 73
     4
 40
1.45
 49
0.25
 49
-0.1
 49
-0.1
 49
1.0
  0
LTYPE
  2
FENCELINE2
 70
     0
  3
Fenceline square ----[]-----[]----[]-----[]----
 72
    65
 73
     4
 40
1.45
 49
0.25
 49
-0.1
 49
-0.1
 49
1.0
  0
LTYPE
  2
TRACKS
 70
     0
  3
Tracks -|-|-|-|-|-|-|-|-|-|-|-|-|-|-|-|-|-|-|-|
 72
    65
 73
     2
 40
0.3
 49
0.15
 49
0.15
  0
LTYPE
  2
BATTING
 70
     0
  3
Batting SSSSSSSSSSSSSSSSSSSSSSSSSSSSSSSSSSSSSSS
 72
    65
 73
     4
 40
0.4001000000000001
 49
0.0001
 49
-0.1
 49
-0.2
 49
-0.1
  0
LTYPE
  2
HOT_WATER_SUPPLY
 70
     0
  3
Hot water supply ---- HW ---- HW ---- HW ----
 72
    65
 73
     3
 40
0.9
 49
0.5
 49
-0.2
 49
-0.2
  0
LTYPE
  2
GAS_LINE
 70
     0
  3
Gas line ----GAS----GAS----GAS----GAS----GAS---
 72
    65
 73
     3
 40
0.95
 49
0.5
 49
-0.2
 49
-0.25
  0
LTYPE
  2
ZIGZAG
 70
     0
  3
Zig zag /\/\/\/\/\/\/\/\/\/\/\/\/\/\/\/\/\/\/\/
 72
    65
 73
     4
 40
0.8001000000000001
 49
0.0001
 49
-0.2
 49
-0.4
 49
-0.2
  0
ENDTAB
  0
TABLE
  2
LAYER
 70
     1
  0
LAYER
  2
0
 70
     0
 62
     7
  6
CONTINUOUS
  0
ENDTAB
  0
TABLE
  2
STYLE
 70
     3
  0
STYLE
  2
STANDARD
 70
     0
 40
0.0
 41
1.0
 50
0.0
 71
     0
 42
0.2
  3
txt
  4

  0
STYLE
  2
ANNOTATIVE
 70
     0
 40
0.0
 41
1.0
 50
0.0
 71
     0
 42
0.2
  3
txt
  4

  0
STYLE
  2

 70
     1
 40
0.0
 41
1.0
 50
0.0
 71
     0
 42
0.2
  3
ltypeshp.shx
  4

  0
ENDTAB
  0
TABLE
  2
VIEW
 70
     0
  0
ENDTAB
  0
TABLE
  2
UCS
 70
     0
  0
ENDTAB
  0
TABLE
  2
APPID
 70
     3
  0
APPID
  2
ACAD
 70
     0
  0
APPID
  2
ACADANNOTATIVE
 70
     0
  0
APPID
  2
ACAD_MLEADERVER
 70
     0
  0
ENDTAB
  0
TABLE
  2
DIMSTYLE
 70
     2
  0
DIMSTYLE
  2
STANDARD
 70
     0
  3

  4

  5

  6

  7

 40
1.0
 41
0.18
 42
0.0625
 43
0.38
 44
0.18
 45
0.0
 46
0.0
 47
0.0
 48
0.0
140
0.18
141
0.09
142
0.0
143
25.399999999999999
144
1.0
145
0.0
146
1.0
147
0.09
 71
     0
 72
     0
 73
     1
 74
     1
 75
     0
 76
     0
 77
     0
 78
     0
170
     0
171
     2
172
     0
173
     0
174
     0
175
     0
176
     0
177
     0
178
     0
  0
DIMSTYLE
  2
ANNOTATIVE
 70
     0
  3

  4

  5

  6

  7

 40
1.0
 41
0.18
 42
0.0625
 43
0.38
 44
0.18
 45
0.0
 46
0.0
 47
0.0
 48
0.0
140
0.18
141
0.09
142
0.0
143
25.399999999999999
144
1.0
145
0.0
146
1.0
147
0.09
 71
     0
 72
     0
 73
     1
 74
     1
 75
     0
 76
     0
 77
     0
 78
     0
170
     0
171
     2
172
     0
173
     0
174
     0
175
     0
176
     0
177
     0
178
     0
  0
ENDTAB
  0
ENDSEC
  0
SECTION
  2
BLOCKS
  0
BLOCK
  8
0
  2
$MODEL_SPACE
 70
     0
 10
0.0
 20
0.0
 30
0.0
  3
$MODEL_SPACE
  1

  0
ENDBLK
  5
73
  8
0
  0
BLOCK
 67
     1
  8
0
  2
$PAPER_SPACE
 70
     0
 10
0.0
 20
0.0
 30
0.0
  3
$PAPER_SPACE
  1

  0
ENDBLK
  5
6F
 67
     1
  8
0
  0
ENDSEC
  0
SECTION
  2
ENTITIES
  0
POLYLINE
  5
B7
  8
0
 66
     1
 10
0.0
 20
0.0
 30
0.0
  0
VERTEX
  5
B8
  8
0
 10
3.4032220552015731
 20
0.0
 30
0.0
  0
VERTEX
  5
B9
  8
0
 10
0.0
 20
0.0
 30
0.0
  0
VERTEX
  5
BB
  8
0
 10
0.0
 20
-16.614350172704089
 30
0.0
 42
0.5108347168593089
  0
VERTEX
  5
BC
  8
0
 10
4.2739388919739261
 20
-10.70600137085397
 30
0.0
  0
SEQEND
  5
BA
  8
0
  0
POLYLINE
  8
0
  5
115
  66
     1
 10
0.000000
 20
0.000000
 30
0.000000
  70
     8
  0
VERTEX
  8
0
  5
116
 10
4.27394
 20
-10.7060
 30
0.000000
  70
    32
  0
VERTEX
  8
0
  5
117
 10
4.24543
 20
-10.6111
 30
0.000000
  70
    32
  0
VERTEX
  8
0
  5
118
 10
4.21745
 20
-10.5167
 30
0.000000
  70
    32
  0
VERTEX
  8
0
  5
119
 10
4.18999
 20
-10.4229
 30
0.000000
  70
    32
  0
VERTEX
  8
0
  5
11A
 10
4.16307
 20
-10.3296
 30
0.000000
  70
    32
  0
VERTEX
  8
0
  5
11B
 10
4.13665
 20
-10.2369
 30
0.000000
  70
    32
  0
VERTEX
  8
0
  5
11C
 10
4.11075
 20
-10.1447
 30
0.000000
  70
    32
  0
VERTEX
  8
0
  5
11D
 10
4.08535
 20
-10.0530
 30
0.000000
  70
    32
  0
VERTEX
  8
0
  5
11E
 10
4.06045
 20
-9.96187
 30
0.000000
  70
    32
  0
VERTEX
  8
0
  5
11F
 10
4.03605
 20
-9.87125
 30
0.000000
  70
    32
  0
VERTEX
  8
0
  5
120
 10
4.01213
 20
-9.78115
 30
0.000000
  70
    32
  0
VERTEX
  8
0
  5
121
 10
3.98869
 20
-9.69156
 30
0.000000
  70
    32
  0
VERTEX
  8
0
  5
122
 10
3.96573
 20
-9.60248
 30
0.000000
  70
    32
  0
VERTEX
  8
0
  5
123
 10
3.94323
 20
-9.51391
 30
0.000000
  70
    32
  0
VERTEX
  8
0
  5
124
 10
3.92120
 20
-9.42583
 30
0.000000
  70
    32
  0
VERTEX
  8
0
  5
125
 10
3.89963
 20
-9.33825
 30
0.000000
  70
    32
  0
VERTEX
  8
0
  5
126
 10
3.87851
 20
-9.25116
 30
0.000000
  70
    32
  0
VERTEX
  8
0
  5
127
 10
3.85784
 20
-9.16455
 30
0.000000
  70
    32
  0
VERTEX
  8
0
  5
128
 10
3.83761
 20
-9.07843
 30
0.000000
  70
    32
  0
VERTEX
  8
0
  5
129
 10
3.81782
 20
-8.99278
 30
0.000000
  70
    32
  0
VERTEX
  8
0
  5
12A
 10
3.79846
 20
-8.90760
 30
0.000000
  70
    32
  0
VERTEX
  8
0
  5
12B
 10
3.77952
 20
-8.82289
 30
0.000000
  70
    32
  0
VERTEX
  8
0
  5
12C
 10
3.76101
 20
-8.73865
 30
0.000000
  70
    32
  0
VERTEX
  8
0
  5
12D
 10
3.74291
 20
-8.65487
 30
0.000000
  70
    32
  0
VERTEX
  8
0
  5
12E
 10
3.72522
 20
-8.57154
 30
0.000000
  70
    32
  0
VERTEX
  8
0
  5
12F
 10
3.70793
 20
-8.48866
 30
0.000000
  70
    32
  0
VERTEX
  8
0
  5
130
 10
3.69104
 20
-8.40622
 30
0.000000
  70
    32
  0
VERTEX
  8
0
  5
131
 10
3.67455
 20
-8.32423
 30
0.000000
  70
    32
  0
VERTEX
  8
0
  5
132
 10
3.65844
 20
-8.24268
 30
0.000000
  70
    32
  0
VERTEX
  8
0
  5
133
 10
3.64272
 20
-8.16156
 30
0.000000
  70
    32
  0
VERTEX
  8
0
  5
134
 10
3.62738
 20
-8.08088
 30
0.000000
  70
    32
  0
VERTEX
  8
0
  5
135
 10
3.61241
 20
-8.00061
 30
0.000000
  70
    32
  0
VERTEX
  8
0
  5
136
 10
3.59781
 20
-7.92077
 30
0.000000
  70
    32
  0
VERTEX
  8
0
  5
137
 10
3.58357
 20
-7.84135
 30
0.000000
  70
    32
  0
VERTEX
  8
0
  5
138
 10
3.56969
 20
-7.76234
 30
0.000000
  70
    32
  0
VERTEX
  8
0
  5
139
 10
3.55616
 20
-7.68373
 30
0.000000
  70
    32
  0
VERTEX
  8
0
  5
13A
 10
3.54299
 20
-7.60554
 30
0.000000
  70
    32
  0
VERTEX
  8
0
  5
13B
 10
3.53016
 20
-7.52774
 30
0.000000
  70
    32
  0
VERTEX
  8
0
  5
13C
 10
3.51766
 20
-7.45034
 30
0.000000
  70
    32
  0
VERTEX
  8
0
  5
13D
 10
3.50550
 20
-7.37333
 30
0.000000
  70
    32
  0
VERTEX
  8
0
  5
13E
 10
3.49368
 20
-7.29672
 30
0.000000
  70
    32
  0
VERTEX
  8
0
  5
13F
 10
3.48217
 20
-7.22048
 30
0.000000
  70
    32
  0
VERTEX
  8
0
  5
140
 10
3.47099
 20
-7.14463
 30
0.000000
  70
    32
  0
VERTEX
  8
0
  5
141
 10
3.46012
 20
-7.06916
 30
0.000000
  70
    32
  0
VERTEX
  8
0
  5
142
 10
3.44957
 20
-6.99406
 30
0.000000
  70
    32
  0
VERTEX
  8
0
  5
143
 10
3.43932
 20
-6.91933
 30
0.000000
  70
    32
  0
VERTEX
  8
0
  5
144
 10
3.42937
 20
-6.84496
 30
0.000000
  70
    32
  0
VERTEX
  8
0
  5
145
 10
3.41972
 20
-6.77096
 30
0.000000
  70
    32
  0
VERTEX
  8
0
  5
146
 10
3.41037
 20
-6.69731
 30
0.000000
  70
    32
  0
VERTEX
  8
0
  5
147
 10
3.40130
 20
-6.62402
 30
0.000000
  70
    32
  0
VERTEX
  8
0
  5
148
 10
3.39252
 20
-6.55108
 30
0.000000
  70
    32
  0
VERTEX
  8
0
  5
149
 10
3.38402
 20
-6.47848
 30
0.000000
  70
    32
  0
VERTEX
  8
0
  5
14A
 10
3.37579
 20
-6.40623
 30
0.000000
  70
    32
  0
VERTEX
  8
0
  5
14B
 10
3.36784
 20
-6.33432
 30
0.000000
  70
    32
  0
VERTEX
  8
0
  5
14C
 10
3.36016
 20
-6.26274
 30
0.000000
  70
    32
  0
VERTEX
  8
0
  5
14D
 10
3.35274
 20
-6.19150
 30
0.000000
  70
    32
  0
VERTEX
  8
0
  5
14E
 10
3.34557
 20
-6.12058
 30
0.000000
  70
    32
  0
VERTEX
  8
0
  5
14F
 10
3.33867
 20
-6.04999
 30
0.000000
  70
    32
  0
VERTEX
  8
0
  5
150
 10
3.33201
 20
-5.97972
 30
0.000000
  70
    32
  0
VERTEX
  8
0
  5
151
 10
3.32560
 20
-5.90977
 30
0.000000
  70
    32
  0
VERTEX
  8
0
  5
152
 10
3.31944
 20
-5.84013
 30
0.000000
  70
    32
  0
VERTEX
  8
0
  5
153
 10
3.31351
 20
-5.77080
 30
0.000000
  70
    32
  0
VERTEX
  8
0
  5
154
 10
3.30782
 20
-5.70178
 30
0.000000
  70
    32
  0
VERTEX
  8
0
  5
155
 10
3.30236
 20
-5.63306
 30
0.000000
  70
    32
  0
VERTEX
  8
0
  5
156
 10
3.29713
 20
-5.56464
 30
0.000000
  70
    32
  0
VERTEX
  8
0
  5
157
 10
3.29212
 20
-5.49652
 30
0.000000
  70
    32
  0
VERTEX
  8
0
  5
158
 10
3.28734
 20
-5.42869
 30
0.000000
  70
    32
  0
VERTEX
  8
0
  5
159
 10
3.28277
 20
-5.36116
 30
0.000000
  70
    32
  0
VERTEX
  8
0
  5
15A
 10
3.27841
 20
-5.29390
 30
0.000000
  70
    32
  0
VERTEX
  8
0
  5
15B
 10
3.27426
 20
-5.22694
 30
0.000000
  70
    32
  0
VERTEX
  8
0
  5
15C
 10
3.27031
 20
-5.16025
 30
0.000000
  70
    32
  0
VERTEX
  8
0
  5
15D
 10
3.26657
 20
-5.09383
 30
0.000000
  70
    32
  0
VERTEX
  8
0
  5
15E
 10
3.26303
 20
-5.02769
 30
0.000000
  70
    32
  0
VERTEX
  8
0
  5
15F
 10
3.25968
 20
-4.96182
 30
0.000000
  70
    32
  0
VERTEX
  8
0
  5
160
 10
3.25652
 20
-4.89622
 30
0.000000
  70
    32
  0
VERTEX
  8
0
  5
161
 10
3.25355
 20
-4.83088
 30
0.000000
  70
    32
  0
VERTEX
  8
0
  5
162
 10
3.25077
 20
-4.76580
 30
0.000000
  70
    32
  0
VERTEX
  8
0
  5
163
 10
3.24816
 20
-4.70098
 30
0.000000
  70
    32
  0
VERTEX
  8
0
  5
164
 10
3.24574
 20
-4.63641
 30
0.000000
  70
    32
  0
VERTEX
  8
0
  5
165
 10
3.24348
 20
-4.57210
 30
0.000000
  70
    32
  0
VERTEX
  8
0
  5
166
 10
3.24140
 20
-4.50803
 30
0.000000
  70
    32
  0
VERTEX
  8
0
  5
167
 10
3.23949
 20
-4.44420
 30
0.000000
  70
    32
  0
VERTEX
  8
0
  5
168
 10
3.23774
 20
-4.38062
 30
0.000000
  70
    32
  0
VERTEX
  8
0
  5
169
 10
3.23615
 20
-4.31727
 30
0.000000
  70
    32
  0
VERTEX
  8
0
  5
16A
 10
3.23473
 20
-4.25416
 30
0.000000
  70
    32
  0
VERTEX
  8
0
  5
16B
 10
3.23345
 20
-4.19128
 30
0.000000
  70
    32
  0
VERTEX
  8
0
  5
16C
 10
3.23233
 20
-4.12863
 30
0.000000
  70
    32
  0
VERTEX
  8
0
  5
16D
 10
3.23136
 20
-4.06621
 30
0.000000
  70
    32
  0
VERTEX
  8
0
  5
16E
 10
3.23054
 20
-4.00401
 30
0.000000
  70
    32
  0
VERTEX
  8
0
  5
16F
 10
3.22986
 20
-3.94203
 30
0.000000
  70
    32
  0
VERTEX
  8
0
  5
170
 10
3.22931
 20
-3.88027
 30
0.000000
  70
    32
  0
VERTEX
  8
0
  5
171
 10
3.22891
 20
-3.81873
 30
0.000000
  70
    32
  0
VERTEX
  8
0
  5
172
 10
3.22864
 20
-3.75739
 30
0.000000
  70
    32
  0
VERTEX
  8
0
  5
173
 10
3.22851
 20
-3.69627
 30
0.000000
  70
    32
  0
VERTEX
  8
0
  5
174
 10
3.22850
 20
-3.63535
 30
0.000000
  70
    32
  0
VERTEX
  8
0
  5
175
 10
3.22862
 20
-3.57463
 30
0.000000
  70
    32
  0
VERTEX
  8
0
  5
176
 10
3.22887
 20
-3.51411
 30
0.000000
  70
    32
  0
VERTEX
  8
0
  5
177
 10
3.22923
 20
-3.45380
 30
0.000000
  70
    32
  0
VERTEX
  8
0
  5
178
 10
3.22971
 20
-3.39367
 30
0.000000
  70
    32
  0
VERTEX
  8
0
  5
179
 10
3.23031
 20
-3.33374
 30
0.000000
  70
    32
  0
VERTEX
  8
0
  5
17A
 10
3.23103
 20
-3.27400
 30
0.000000
  70
    32
  0
VERTEX
  8
0
  5
17B
 10
3.23185
 20
-3.21445
 30
0.000000
  70
    32
  0
VERTEX
  8
0
  5
17C
 10
3.23279
 20
-3.15508
 30
0.000000
  70
    32
  0
VERTEX
  8
0
  5
17D
 10
3.23383
 20
-3.09589
 30
0.000000
  70
    32
  0
VERTEX
  8
0
  5
17E
 10
3.23497
 20
-3.03689
 30
0.000000
  70
    32
  0
VERTEX
  8
0
  5
17F
 10
3.23621
 20
-2.97805
 30
0.000000
  70
    32
  0
VERTEX
  8
0
  5
180
 10
3.23756
 20
-2.91940
 30
0.000000
  70
    32
  0
VERTEX
  8
0
  5
181
 10
3.23900
 20
-2.86091
 30
0.000000
  70
    32
  0
VERTEX
  8
0
  5
182
 10
3.24054
 20
-2.80259
 30
0.000000
  70
    32
  0
VERTEX
  8
0
  5
183
 10
3.24216
 20
-2.74444
 30
0.000000
  70
    32
  0
VERTEX
  8
0
  5
184
 10
3.24388
 20
-2.68646
 30
0.000000
  70
    32
  0
VERTEX
  8
0
  5
185
 10
3.24569
 20
-2.62863
 30
0.000000
  70
    32
  0
VERTEX
  8
0
  5
186
 10
3.24758
 20
-2.57096
 30
0.000000
  70
    32
  0
VERTEX
  8
0
  5
187
 10
3.24956
 20
-2.51345
 30
0.000000
  70
    32
  0
VERTEX
  8
0
  5
188
 10
3.25162
 20
-2.45610
 30
0.000000
  70
    32
  0
VERTEX
  8
0
  5
189
 10
3.25375
 20
-2.39889
 30
0.000000
  70
    32
  0
VERTEX
  8
0
  5
18A
 10
3.25597
 20
-2.34184
 30
0.000000
  70
    32
  0
VERTEX
  8
0
  5
18B
 10
3.25826
 20
-2.28493
 30
0.000000
  70
    32
  0
VERTEX
  8
0
  5
18C
 10
3.26063
 20
-2.22817
 30
0.000000
  70
    32
  0
VERTEX
  8
0
  5
18D
 10
3.26307
 20
-2.17155
 30
0.000000
  70
    32
  0
VERTEX
  8
0
  5
18E
 10
3.26558
 20
-2.11507
 30
0.000000
  70
    32
  0
VERTEX
  8
0
  5
18F
 10
3.26815
 20
-2.05873
 30
0.000000
  70
    32
  0
VERTEX
  8
0
  5
190
 10
3.27080
 20
-2.00252
 30
0.000000
  70
    32
  0
VERTEX
  8
0
  5
191
 10
3.27351
 20
-1.94645
 30
0.000000
  70
    32
  0
VERTEX
  8
0
  5
192
 10
3.27628
 20
-1.89051
 30
0.000000
  70
    32
  0
VERTEX
  8
0
  5
193
 10
3.27912
 20
-1.83470
 30
0.000000
  70
    32
  0
VERTEX
  8
0
  5
194
 10
3.28202
 20
-1.77901
 30
0.000000
  70
    32
  0
VERTEX
  8
0
  5
195
 10
3.28497
 20
-1.72345
 30
0.000000
  70
    32
  0
VERTEX
  8
0
  5
196
 10
3.28798
 20
-1.66802
 30
0.000000
  70
    32
  0
VERTEX
  8
0
  5
197
 10
3.29105
 20
-1.61270
 30
0.000000
  70
    32
  0
VERTEX
  8
0
  5
198
 10
3.29418
 20
-1.55751
 30
0.000000
  70
    32
  0
VERTEX
  8
0
  5
199
 10
3.29735
 20
-1.50243
 30
0.000000
  70
    32
  0
VERTEX
  8
0
  5
19A
 10
3.30058
 20
-1.44746
 30
0.000000
  70
    32
  0
VERTEX
  8
0
  5
19B
 10
3.30386
 20
-1.39261
 30
0.000000
  70
    32
  0
VERTEX
  8
0
  5
19C
 10
3.30718
 20
-1.33787
 30
0.000000
  70
    32
  0
VERTEX
  8
0
  5
19D
 10
3.31056
 20
-1.28323
 30
0.000000
  70
    32
  0
VERTEX
  8
0
  5
19E
 10
3.31398
 20
-1.22871
 30
0.000000
  70
    32
  0
VERTEX
  8
0
  5
19F
 10
3.31745
 20
-1.17429
 30
0.000000
  70
    32
  0
VERTEX
  8
0
  5
1A0
 10
3.32096
 20
-1.11997
 30
0.000000
  70
    32
  0
VERTEX
  8
0
  5
1A1
 10
3.32451
 20
-1.06575
 30
0.000000
  70
    32
  0
VERTEX
  8
0
  5
1A2
 10
3.32811
 20
-1.01163
 30
0.000000
  70
    32
  0
VERTEX
  8
0
  5
1A3
 10
3.33174
 20
-0.957614
 30
0.000000
  70
    32
  0
VERTEX
  8
0
  5
1A4
 10
3.33542
 20
-0.903690
 30
0.000000
  70
    32
  0
VERTEX
  8
0
  5
1A5
 10
3.33914
 20
-0.849861
 30
0.000000
  70
    32
  0
VERTEX
  8
0
  5
1A6
 10
3.34289
 20
-0.796123
 30
0.000000
  70
    32
  0
VERTEX
  8
0
  5
1A7
 10
3.34668
 20
-0.742476
 30
0.000000
  70
    32
  0
VERTEX
  8
0
  5
1A8
 10
3.35051
 20
-0.688917
 30
0.000000
  70
    32
  0
VERTEX
  8
0
  5
1A9
 10
3.35437
 20
-0.635446
 30
0.000000
  70
    32
  0
VERTEX
  8
0
  5
1AA
 10
3.35827
 20
-0.582061
 30
0.000000
  70
    32
  0
VERTEX
  8
0
  5
1AB
 10
3.36220
 20
-0.528759
 30
0.000000
  70
    32
  0
VERTEX
  8
0
  5
1AC
 10
3.36616
 20
-0.475539
 30
0.000000
  70
    32
  0
VERTEX
  8
0
  5
1AD
 10
3.37016
 20
-0.422400
 30
0.000000
  70
    32
  0
VERTEX
  8
0
  5
1AE
 10
3.37418
 20
-0.369339
 30
0.000000
  70
    32
  0
VERTEX
  8
0
  5
1AF
 10
3.37824
 20
-0.316356
 30
0.000000
  70
    32
  0
VERTEX
  8
0
  5
1B0
 10
3.38233
 20
-0.263449
 30
0.000000
  70
    32
  0
VERTEX
  8
0
  5
1B1
 10
3.38645
 20
-0.210617
 30
0.000000
  70
    32
  0
VERTEX
  8
0
  5
1B2
 10
3.39060
 20
-0.157857
 30
0.000000
  70
    32
  0
VERTEX
  8
0
  5
1B3
 10
3.39478
 20
-0.105169
 30
0.000000
  70
    32
  0
VERTEX
  8
0
  5
1B4
 10
3.39899
 20
-0.0525501
 30
0.000000
  70
    32
  0
VERTEX
  8
0
  5
1B5
 10
3.40322
 20
-2.19677e-010
 30
0.000000
  70
    32
  0
SEQEND
  8
0
  5
1B6
  0
ENDSEC
  0
EOF
