  0
SECTION
  2
HEADER
  9
$ACADVER
  1
AC1009
  9
$INSBASE
 10
0.0
 20
0.0
 30
0.0
  9
$EXTMIN
 10
0.0
 20
0.0
 30
0.0
  9
$EXTMAX
 10
10.475428291455289
 20
5.8327380826404349
 30
0.0
  9
$LIMMIN
 10
0.0
 20
0.0
  9
$LIMMAX
 10
10.475428291455289
 20
5.8327380826404349
  9
$ORTHOMODE
 70
     0
  9
$REGENMODE
 70
     1
  9
$FILLMODE
 70
     1
  9
$QTEXTMODE
 70
     0
  9
$MIRRTEXT
 70
     0
  9
$DRAGMODE
 70
     2
  9
$LTSCALE
 40
1.0
  9
$OSMODE
 70
     0
  9
$ATTMODE
 70
     1
  9
$TEXTSIZE
 40
0.2
  9
$TRACEWID
 40
0.05
  9
$TEXTSTYLE
  7
STANDARD
  9
$CLAYER
  8
0
  9
$CELTYPE
  6
BYLAYER
  9
$CECOLOR
 62
   256
  9
$DIMSCALE
 40
1.0
  9
$DIMASZ
 40
0.0708661417322835
  9
$DIMEXO
 40
0.0625
  9
$DIMDLI
 40
0.38
  9
$DIMRND
 40
0.0
  9
$DIMDLE
 40
0.0
  9
$DIMEXE
 40
0.18
  9
$DIMTP
 40
0.0
  9
$DIMTM
 40
0.0
  9
$DIMTXT
 40
0.0708661417322835
  9
$DIMCEN
 40
0.09
  9
$DIMTSZ
 40
0.0
  9
$DIMTOL
 70
     0
  9
$DIMLIM
 70
     0
  9
$DIMTIH
 70
     1
  9
$DIMTOH
 70
     1
  9
$DIMSE1
 70
     0
  9
$DIMSE2
 70
     0
  9
$DIMTAD
 70
     0
  9
$DIMZIN
 70
     0
  9
$DIMBLK
  1

  9
$DIMASO
 70
     1
  9
$DIMSHO
 70
     1
  9
$DIMPOST
  1

  9
$DIMAPOST
  1

  9
$DIMALT
 70
     0
  9
$DIMALTD
 70
     2
  9
$DIMALTF
 40
25.399999999999999
  9
$DIMLFAC
 40
1.0
  9
$DIMTOFL
 70
     0
  9
$DIMTVP
 40
0.0
  9
$DIMTIX
 70
     0
  9
$DIMSOXD
 70
     0
  9
$DIMSAH
 70
     0
  9
$DIMBLK1
  1

  9
$DIMBLK2
  1

  9
$DIMSTYLE
  2
STANDARD
  9
$DIMCLRD
 70
     0
  9
$DIMCLRE
 70
     0
  9
$DIMCLRT
 70
     0
  9
$DIMTFAC
 40
1.0
  9
$DIMGAP
 40
0.09
  9
$LUNITS
 70
     2
  9
$LUPREC
 70
     4
  9
$SKETCHINC
 40
0.1
  9
$FILLETRAD
 40
0.0
  9
$AUNITS
 70
     0
  9
$AUPREC
 70
     0
  9
$MENU
  1
.
  9
$ELEVATION
 40
0.0
  9
$PELEVATION
 40
0.0
  9
$THICKNESS
 40
0.0
  9
$LIMCHECK
 70
     0
  9
$BLIPMODE
 70
     0
  9
$CHAMFERA
 40
0.0
  9
$CHAMFERB
 40
0.0
  9
$SKPOLY
 70
     0
  9
$TDCREATE
 40
2456777.8846716089
  9
$TDUPDATE
 40
2456777.8846716089
  9
$TDINDWG
 40
0.0000027083
  9
$TDUSRTIMER
 40
0.0000027083
  9
$USRTIMER
 70
     1
  9
$ANGBASE
 50
0.0
  9
$ANGDIR
 70
     0
  9
$PDMODE
 70
     0
  9
$PDSIZE
 40
0.0
  9
$PLINEWID
 40
0.0
  9
$COORDS
 70
     0
  9
$SPLFRAME
 70
     0
  9
$SPLINETYPE
 70
     6
  9
$SPLINESEGS
 70
     8
  9
$ATTDIA
 70
     0
  9
$ATTREQ
 70
     1
  9
$HANDLING
 70
     1
  9
$HANDSEED
  5
662
  9
$SURFTAB1
 70
     6
  9
$SURFTAB2
 70
     6
  9
$SURFTYPE
 70
     6
  9
$SURFU
 70
     6
  9
$SURFV
 70
     6
  9
$UCSNAME
  2

  9
$UCSORG
 10
0.0
 20
0.0
 30
0.0
  9
$UCSXDIR
 10
1.0
 20
0.0
 30
0.0
  9
$UCSYDIR
 10
0.0
 20
1.0
 30
0.0
  9
$PUCSNAME
  2

  9
$PUCSORG
 10
0.0
 20
0.0
 30
0.0
  9
$PUCSXDIR
 10
1.0
 20
0.0
 30
0.0
  9
$PUCSYDIR
 10
0.0
 20
1.0
 30
0.0
  9
$USERI1
 70
     0
  9
$USERI2
 70
     0
  9
$USERI3
 70
     0
  9
$USERI4
 70
     0
  9
$USERI5
 70
     0
  9
$USERR1
 40
0.0
  9
$USERR2
 40
0.0
  9
$USERR3
 40
0.0
  9
$USERR4
 40
0.0
  9
$USERR5
 40
0.0
  9
$WORLDVIEW
 70
     1
  9
$SHADEDGE
 70
     3
  9
$SHADEDIF
 70
    70
  9
$TILEMODE
 70
     1
  9
$MAXACTVP
 70
    64
  9
$PLIMCHECK
 70
     0
  9
$PEXTMIN
 10
0.0
 20
0.0
 30
0.0
  9
$PEXTMAX
 10
10.475428291455289
 20
5.8327380826404349
 30
0.0
  9
$PLIMMIN
 10
0.0
 20
0.0
  9
$PLIMMAX
 10
10.475428291455289
 20
5.8327380826404349
  9
$UNITMODE
 70
     0
  9
$VISRETAIN
 70
     1
  9
$PLINEGEN
 70
     0
  9
$PSLTSCALE
 70
     1
  0
ENDSEC
  0
SECTION
  2
TABLES
  0
TABLE
  2
VPORT
 70
     1
  0
VPORT
  2
*ACTIVE
 70
     0
 10
0.0
 20
0.0
 11
1.0
 21
1.0
 12
2.034355661309033
 22
-0.7501613276389937
 13
0.0
 23
0.0
 14
1.0
 24
1.0
 15
0.0
 25
0.0
 16
0.0
 26
0.0
 36
1.0
 17
0.0
 27
0.0
 37
0.0
 40
5.8327380826404349
 41
1.7959709733294149
 42
50.0
 43
0.0
 44
0.0
 50
0.0
 51
0.0
 71
     0
 72
   100
 73
     1
 74
     1
 75
     0
 76
     0
 77
     0
 78
     0
  0
ENDTAB
  0
TABLE
  2
LTYPE
 70
    59
  0
LTYPE
  2
CONTINUOUS
 70
     0
  3
Solid line
 72
    65
 73
     0
 40
0.0
  0
LTYPE
  2
PHANTOM2
 70
     0
  3
Phantom (.5x) ___ _ _ ___ _ _ ___ _ _ ___ _ _
 72
    65
 73
     6
 40
1.25
 49
0.625
 49
-0.125
 49
0.125
 49
-0.125
 49
0.125
 49
-0.125
  0
LTYPE
  2
BY_STANDARD
 70
     0
  3
By Standard ____________    ____    ____   _
 72
    65
 73
     6
 40
1.2402999999999991
 49
0.6614
 49
-0.0827
 49
0.1654
 49
-0.0827
 49
0.1654
 49
-0.0827
  0
LTYPE
  2
CHAIN
 70
     0
  3
Chain ____ _ ____ _ ____ _ ____ _ ____ _ ____
 72
    65
 73
     4
 40
0.7087
 49
0.4724000000000001
 49
-0.0591
 49
0.1181
 49
-0.0591
  0
LTYPE
  2
DASH_DOT
 70
     0
  3
Dash dot __ . __ . __ . __ . __ . __ . __ . __
 72
    65
 73
     4
 40
0.37
 49
0.24
 49
-0.06
 49
0.01
 49
-0.06
  0
LTYPE
  2
DOUBLE_DASH_DOT
 70
     0
  3
Double-Dash Dot __ __ . __ __ . __ __ . __ _
 72
    65
 73
     6
 40
0.4398
 49
0.24
 49
-0.06
 49
0.0098
 49
-0.06
 49
0.01
 49
-0.06
  0
LTYPE
  2
DASH_TRIPLE_DOT
 70
     0
  3
Dash Triple-Dot _ . . . _ . . . _ . . . _
 72
    65
 73
     8
 40
0.51
 49
0.24
 49
-0.06
 49
0.01
 49
-0.06
 49
0.01
 49
-0.06
 49
0.01
 49
-0.06
  0
LTYPE
  2
DASHED
 70
     0
  3
Dashed __ __ __ __ __ __ __ __ __ __ __ __ __ _
 72
    65
 73
     2
 40
0.2067
 49
0.1654
 49
-0.0413
  0
LTYPE
  2
DASH_DOUBLE_DOT
 70
     0
  3
Dash Double-Dot __ . . __ . . __ . . __ . .
 72
    65
 73
     6
 40
0.4398
 49
0.24
 49
-0.06
 49
0.0098
 49
-0.06
 49
0.01
 49
-0.06
  0
LTYPE
  2
DASHED_SPACE
 70
     0
  3
Dashed Space __ __ __ __ __ __ __ __ __ __ __ _
 72
    65
 73
     2
 40
0.2067
 49
0.1654
 49
-0.0413
  0
LTYPE
  2
DOTTED
 70
     0
  3
Dotted . . . . . . . . . . . . . . . . . . . . 
 72
    65
 73
     2
 40
0.0482
 49
0.0069
 49
-0.0413
  0
LTYPE
  2
DOUBLE_DASH_CHAIN
 70
     0
  3
Double-Dash Chain ______  __  __  ______  __  _
 72
    65
 73
     6
 40
1.2402999999999991
 49
0.6614
 49
-0.0827
 49
0.1654
 49
-0.0827
 49
0.1654
 49
-0.0827
  0
LTYPE
  2
DOUBLE_DASH_DOUBLE_DOT
 70
     0
  3
Double-Dash Double-dot _ _ . . _ _ . . _
 72
    65
 73
     8
 40
0.7400000000000001
 49
0.24
 49
-0.06
 49
0.24
 49
-0.06
 49
0.01
 49
-0.06
 49
0.01
 49
-0.06
  0
LTYPE
  2
DOUBLE_DASH_TRIPLE_DOT
 70
     0
  3
Double Dash Triple Dot __ __ . . . __ __ . .
 72
    65
 73
    10
 40
0.8100000000000001
 49
0.24
 49
-0.06
 49
0.24
 49
-0.06
 49
0.01
 49
-0.06
 49
0.01
 49
-0.06
 49
0.01
 49
-0.06
  0
LTYPE
  2
LONG_DASH_DOTTED
 70
     0
  3
Long Dash Dotted ____ . ____ . ____ . ____ . _
 72
    65
 73
     4
 40
0.3543
 49
0.2362
 49
-0.0295
 49
0.0591
 49
-0.0295
  0
LTYPE
  2
LONG_DASH_DOUBLE_DOT
 70
     0
  3
Long Dash Double Dot ________  .  .  ________  
 72
    65
 73
     6
 40
0.6799999999999999
 49
0.48
 49
-0.06
 49
0.01
 49
-0.06
 49
0.01
 49
-0.06
  0
LTYPE
  2
LONG_DASH_TRIPLE_DOT
 70
     0
  3
Long Dash Triple Dot ____ ... ____ ... ____
 72
    65
 73
     8
 40
0.3689
 49
0.2362
 49
-0.0295
 49
0.0049
 49
-0.0295
 49
0.0049
 49
-0.0295
 49
0.0049
 49
-0.0295
  0
LTYPE
  2
BORDER
 70
     0
  3
Border __ __ . __ __ . __ __ . __ __ . __ __ .
 72
    65
 73
     6
 40
1.75
 49
0.5
 49
-0.25
 49
0.5
 49
-0.25
 49
0.0
 49
-0.25
  0
LTYPE
  2
BORDER2
 70
     0
  3
Border (.5x) __.__.__.__.__.__.__.__.__.__.__.
 72
    65
 73
     6
 40
0.875
 49
0.25
 49
-0.125
 49
0.25
 49
-0.125
 49
0.0
 49
-0.125
  0
LTYPE
  2
BORDERX2
 70
     0
  3
Border (2x) ____  ____  .  ____  ____  .  ___
 72
    65
 73
     6
 40
3.5
 49
1.0
 49
-0.5
 49
1.0
 49
-0.5
 49
0.0
 49
-0.5
  0
LTYPE
  2
CENTER
 70
     0
  3
Center ____ _ ____ _ ____ _ ____ _ ____ _ ____
 72
    65
 73
     4
 40
2.0
 49
1.25
 49
-0.25
 49
0.25
 49
-0.25
  0
LTYPE
  2
CENTER2
 70
     0
  3
Center (.5x) ___ _ ___ _ ___ _ ___ _ ___ _ ___
 72
    65
 73
     4
 40
1.125
 49
0.75
 49
-0.125
 49
0.125
 49
-0.125
  0
LTYPE
  2
CENTERX2
 70
     0
  3
Center (2x) ________  __  ________  __  _____
 72
    65
 73
     4
 40
4.0
 49
2.5
 49
-0.5
 49
0.5
 49
-0.5
  0
LTYPE
  2
DASHDOT2
 70
     0
  3
Dash dot (.5x) _._._._._._._._._._._._._._._.
 72
    65
 73
     4
 40
0.5
 49
0.25
 49
-0.125
 49
0.0
 49
-0.125
  0
LTYPE
  2
DASHDOTX2
 70
     0
  3
Dash dot (2x) ____  .  ____  .  ____  .  ___
 72
    65
 73
     4
 40
2.0
 49
1.0
 49
-0.5
 49
0.0
 49
-0.5
  0
LTYPE
  2
DASHED2
 70
     0
  3
Dashed (.5x) _ _ _ _ _ _ _ _ _ _ _ _ _ _ _ _ _
 72
    65
 73
     2
 40
0.375
 49
0.25
 49
-0.125
  0
LTYPE
  2
DASHEDX2
 70
     0
  3
Dashed (2x) ____  ____  ____  ____  ____  ___
 72
    65
 73
     2
 40
1.5
 49
1.0
 49
-0.5
  0
LTYPE
  2
DIVIDE
 70
     0
  3
Divide ____ . . ____ . . ____ . . ____ . . ____
 72
    65
 73
     6
 40
1.25
 49
0.5
 49
-0.25
 49
0.0
 49
-0.25
 49
0.0
 49
-0.25
  0
LTYPE
  2
DIVIDE2
 70
     0
  3
Divide (.5x) __..__..__..__..__..__..__..__.._
 72
    65
 73
     6
 40
0.625
 49
0.25
 49
-0.125
 49
0.0
 49
-0.125
 49
0.0
 49
-0.125
  0
LTYPE
  2
DIVIDEX2
 70
     0
  3
Divide (2x) ________  .  .  ________  .  .  _
 72
    65
 73
     6
 40
2.5
 49
1.0
 49
-0.5
 49
0.0
 49
-0.5
 49
0.0
 49
-0.5
  0
LTYPE
  2
DOT
 70
     0
  3
Dot . . . . . . . . . . . . . . . . . . . . . .
 72
    65
 73
     2
 40
0.25
 49
0.0
 49
-0.25
  0
LTYPE
  2
DOT2
 70
     0
  3
Dot (.5x) .....................................
 72
    65
 73
     2
 40
0.125
 49
0.0
 49
-0.125
  0
LTYPE
  2
DOTX2
 70
     0
  3
Dot (2x) .  .  .  .  .  .  .  .  .  .  .  .  . 
 72
    65
 73
     2
 40
0.5
 49
0.0
 49
-0.5
  0
LTYPE
  2
HIDDEN
 70
     0
  3
Hidden __ __ __ __ __ __ __ __ __ __ __ __ __ _
 72
    65
 73
     2
 40
0.375
 49
0.25
 49
-0.125
  0
LTYPE
  2
HIDDEN2
 70
     0
  3
Hidden (.5x) _ _ _ _ _ _ _ _ _ _ _ _ _ _ _ _ _
 72
    65
 73
     2
 40
0.1875
 49
0.125
 49
-0.0625
  0
LTYPE
  2
HIDDENX2
 70
     0
  3
Hidden (2x) ____ ____ ____ ____ ____ ____ ____
 72
    65
 73
     2
 40
0.75
 49
0.5
 49
-0.25
  0
LTYPE
  2
PHANTOM
 70
     0
  3
Phantom ______  __  __  ______  __  __  ______
 72
    65
 73
     6
 40
2.5
 49
1.25
 49
-0.25
 49
0.25
 49
-0.25
 49
0.25
 49
-0.25
  0
LTYPE
  2
PHANTOMX2
 70
     0
  3
Phantom (2x) ____________    ____    ____   _
 72
    65
 73
     6
 40
5.0
 49
2.5
 49
-0.5
 49
0.5
 49
-0.5
 49
0.5
 49
-0.5
  0
LTYPE
  2
ACAD_ISO02W100
 70
     0
  3
ISO dash __ __ __ __ __ __ __ __ __ __ __ __ __
 72
    65
 73
     2
 40
0.59
 49
0.47
 49
-0.12
  0
LTYPE
  2
ACAD_ISO03W100
 70
     0
  3
ISO dash space __    __    __    __    __    __
 72
    65
 73
     2
 40
1.179999999999999
 49
0.47
 49
-0.71
  0
LTYPE
  2
ACAD_ISO04W100
 70
     0
  3
ISO long-dash dot ____ . ____ . ____ . ____ . _
 72
    65
 73
     4
 40
1.179999999999999
 49
0.9399999999999998
 49
-0.12
 49
0.0
 49
-0.12
  0
LTYPE
  2
ACAD_ISO05W100
 70
     0
  3
ISO long-dash double-dot ____ .. ____ .. ____ .
 72
    65
 73
     6
 40
1.2999999999999989
 49
0.9399999999999998
 49
-0.12
 49
0.0
 49
-0.12
 49
0.0
 49
-0.12
  0
LTYPE
  2
ACAD_ISO06W100
 70
     0
  3
ISO long-dash triple-dot ____ ... ____ ... ____
 72
    65
 73
     8
 40
1.419999999999999
 49
0.9399999999999998
 49
-0.12
 49
0.0
 49
-0.12
 49
0.0
 49
-0.12
 49
0.0
 49
-0.12
  0
LTYPE
  2
ACAD_ISO07W100
 70
     0
  3
ISO dot . . . . . . . . . . . . . . . . . . . .
 72
    65
 73
     2
 40
0.12
 49
0.0
 49
-0.12
  0
LTYPE
  2
ACAD_ISO08W100
 70
     0
  3
ISO long-dash short-dash ____ __ ____ __ ____ _
 72
    65
 73
     4
 40
0.95
 49
0.47
 49
-0.12
 49
0.24
 49
-0.12
  0
LTYPE
  2
ACAD_ISO09W100
 70
     0
  3
ISO long-dash double-short-dash ____ __ __ ____
 72
    65
 73
     6
 40
1.3100000000000001
 49
0.47
 49
-0.12
 49
0.24
 49
-0.12
 49
0.24
 49
-0.12
  0
LTYPE
  2
ACAD_ISO10W100
 70
     0
  3
ISO dash dot __ . __ . __ . __ . __ . __ . __ .
 72
    65
 73
     4
 40
0.71
 49
0.47
 49
-0.12
 49
0.0
 49
-0.12
  0
LTYPE
  2
ACAD_ISO11W100
 70
     0
  3
ISO double-dash dot __ __ . __ __ . __ __ . __ 
 72
    65
 73
     6
 40
1.2999999999999989
 49
0.47
 49
-0.12
 49
0.47
 49
-0.12
 49
0.0
 49
-0.12
  0
LTYPE
  2
ACAD_ISO12W100
 70
     0
  3
ISO dash double-dot __ . . __ . . __ . . __ . .
 72
    65
 73
     6
 40
0.8299999999999999
 49
0.47
 49
-0.12
 49
0.0
 49
-0.12
 49
0.0
 49
-0.12
  0
LTYPE
  2
ACAD_ISO13W100
 70
     0
  3
ISO double-dash double-dot __ __ . . __ __ . . 
 72
    65
 73
     8
 40
1.419999999999999
 49
0.47
 49
-0.12
 49
0.47
 49
-0.12
 49
0.0
 49
-0.12
 49
0.0
 49
-0.12
  0
LTYPE
  2
ACAD_ISO14W100
 70
     0
  3
ISO dash triple-dot __ . . . __ . . . __ . . . 
 72
    65
 73
     8
 40
0.95
 49
0.47
 49
-0.12
 49
0.0
 49
-0.12
 49
0.0
 49
-0.12
 49
0.0
 49
-0.12
  0
LTYPE
  2
ACAD_ISO15W100
 70
     0
  3
ISO double-dash triple-dot __ __ . . . __ __ . 
 72
    65
 73
    10
 40
1.5399999999999989
 49
0.47
 49
-0.12
 49
0.47
 49
-0.12
 49
0.0
 49
-0.12
 49
0.0
 49
-0.12
 49
0.0
 49
-0.12
  0
LTYPE
  2
FENCELINE1
 70
     0
  3
Fenceline circle ----0-----0----0-----0----0---
 72
    65
 73
     4
 40
1.45
 49
0.25
 49
-0.1
 49
-0.1
 49
1.0
  0
LTYPE
  2
FENCELINE2
 70
     0
  3
Fenceline square ----[]-----[]----[]-----[]----
 72
    65
 73
     4
 40
1.45
 49
0.25
 49
-0.1
 49
-0.1
 49
1.0
  0
LTYPE
  2
TRACKS
 70
     0
  3
Tracks -|-|-|-|-|-|-|-|-|-|-|-|-|-|-|-|-|-|-|-|
 72
    65
 73
     2
 40
0.3
 49
0.15
 49
0.15
  0
LTYPE
  2
BATTING
 70
     0
  3
Batting SSSSSSSSSSSSSSSSSSSSSSSSSSSSSSSSSSSSSSS
 72
    65
 73
     4
 40
0.4001000000000001
 49
0.0001
 49
-0.1
 49
-0.2
 49
-0.1
  0
LTYPE
  2
HOT_WATER_SUPPLY
 70
     0
  3
Hot water supply ---- HW ---- HW ---- HW ----
 72
    65
 73
     3
 40
0.9
 49
0.5
 49
-0.2
 49
-0.2
  0
LTYPE
  2
GAS_LINE
 70
     0
  3
Gas line ----GAS----GAS----GAS----GAS----GAS---
 72
    65
 73
     3
 40
0.95
 49
0.5
 49
-0.2
 49
-0.25
  0
LTYPE
  2
ZIGZAG
 70
     0
  3
Zig zag /\/\/\/\/\/\/\/\/\/\/\/\/\/\/\/\/\/\/\/
 72
    65
 73
     4
 40
0.8001000000000001
 49
0.0001
 49
-0.2
 49
-0.4
 49
-0.2
  0
ENDTAB
  0
TABLE
  2
LAYER
 70
     1
  0
LAYER
  2
0
 70
     0
 62
     7
  6
CONTINUOUS
  0
ENDTAB
  0
TABLE
  2
STYLE
 70
     3
  0
STYLE
  2
STANDARD
 70
     0
 40
0.0
 41
1.0
 50
0.0
 71
     0
 42
0.2
  3
txt
  4

  0
STYLE
  2
ANNOTATIVE
 70
     0
 40
0.0
 41
1.0
 50
0.0
 71
     0
 42
0.2
  3
txt
  4

  0
STYLE
  2

 70
     1
 40
0.0
 41
1.0
 50
0.0
 71
     0
 42
0.2
  3
ltypeshp.shx
  4

  0
ENDTAB
  0
TABLE
  2
VIEW
 70
     0
  0
ENDTAB
  0
TABLE
  2
UCS
 70
     0
  0
ENDTAB
  0
TABLE
  2
APPID
 70
     3
  0
APPID
  2
ACAD
 70
     0
  0
APPID
  2
ACADANNOTATIVE
 70
     0
  0
APPID
  2
ACAD_MLEADERVER
 70
     0
  0
ENDTAB
  0
TABLE
  2
DIMSTYLE
 70
     2
  0
DIMSTYLE
  2
STANDARD
 70
     0
  3

  4

  5

  6

  7

 40
1.0
 41
0.18
 42
0.0625
 43
0.38
 44
0.18
 45
0.0
 46
0.0
 47
0.0
 48
0.0
140
0.18
141
0.09
142
0.0
143
25.399999999999999
144
1.0
145
0.0
146
1.0
147
0.09
 71
     0
 72
     0
 73
     1
 74
     1
 75
     0
 76
     0
 77
     0
 78
     0
170
     0
171
     2
172
     0
173
     0
174
     0
175
     0
176
     0
177
     0
178
     0
  0
DIMSTYLE
  2
ANNOTATIVE
 70
     0
  3

  4

  5

  6

  7

 40
1.0
 41
0.18
 42
0.0625
 43
0.38
 44
0.18
 45
0.0
 46
0.0
 47
0.0
 48
0.0
140
0.18
141
0.09
142
0.0
143
25.399999999999999
144
1.0
145
0.0
146
1.0
147
0.09
 71
     0
 72
     0
 73
     1
 74
     1
 75
     0
 76
     0
 77
     0
 78
     0
170
     0
171
     2
172
     0
173
     0
174
     0
175
     0
176
     0
177
     0
178
     0
  0
ENDTAB
  0
ENDSEC
  0
SECTION
  2
BLOCKS
  0
BLOCK
  8
0
  2
$MODEL_SPACE
 70
     0
 10
0.0
 20
0.0
 30
0.0
  3
$MODEL_SPACE
  1

  0
ENDBLK
  5
73
  8
0
  0
BLOCK
 67
     1
  8
0
  2
$PAPER_SPACE
 70
     0
 10
0.0
 20
0.0
 30
0.0
  3
$PAPER_SPACE
  1

  0
ENDBLK
  5
6F
 67
     1
  8
0
  0
ENDSEC
  0
SECTION
  2
ENTITIES
  0
POLYLINE
  8
0
  5
11A
  66
     1
 10
0.000000
 20
0.000000
 30
0.000000
  70
     8
  0
VERTEX
  8
0
  5
11B
 10
2.31349
 20
1.68684
 30
0.000000
  70
    32
  0
VERTEX
  8
0
  5
11C
 10
2.26829
 20
1.67958
 30
0.000000
  70
    32
  0
VERTEX
  8
0
  5
11D
 10
2.22312
 20
1.67224
 30
0.000000
  70
    32
  0
VERTEX
  8
0
  5
11E
 10
2.17797
 20
1.66481
 30
0.000000
  70
    32
  0
VERTEX
  8
0
  5
11F
 10
2.13285
 20
1.65731
 30
0.000000
  70
    32
  0
VERTEX
  8
0
  5
120
 10
2.08775
 20
1.64973
 30
0.000000
  70
    32
  0
VERTEX
  8
0
  5
121
 10
2.04268
 20
1.64207
 30
0.000000
  70
    32
  0
VERTEX
  8
0
  5
122
 10
1.99763
 20
1.63433
 30
0.000000
  70
    32
  0
VERTEX
  8
0
  5
123
 10
1.95260
 20
1.62651
 30
0.000000
  70
    32
  0
VERTEX
  8
0
  5
124
 10
1.90760
 20
1.61861
 30
0.000000
  70
    32
  0
VERTEX
  8
0
  5
125
 10
1.86262
 20
1.61063
 30
0.000000
  70
    32
  0
VERTEX
  8
0
  5
126
 10
1.81767
 20
1.60257
 30
0.000000
  70
    32
  0
VERTEX
  8
0
  5
127
 10
1.77274
 20
1.59444
 30
0.000000
  70
    32
  0
VERTEX
  8
0
  5
128
 10
1.72783
 20
1.58622
 30
0.000000
  70
    32
  0
VERTEX
  8
0
  5
129
 10
1.68295
 20
1.57793
 30
0.000000
  70
    32
  0
VERTEX
  8
0
  5
12A
 10
1.63809
 20
1.56955
 30
0.000000
  70
    32
  0
VERTEX
  8
0
  5
12B
 10
1.59326
 20
1.56110
 30
0.000000
  70
    32
  0
VERTEX
  8
0
  5
12C
 10
1.54845
 20
1.55256
 30
0.000000
  70
    32
  0
VERTEX
  8
0
  5
12D
 10
1.50367
 20
1.54395
 30
0.000000
  70
    32
  0
VERTEX
  8
0
  5
12E
 10
1.45891
 20
1.53526
 30
0.000000
  70
    32
  0
VERTEX
  8
0
  5
12F
 10
1.41417
 20
1.52649
 30
0.000000
  70
    32
  0
VERTEX
  8
0
  5
130
 10
1.36946
 20
1.51764
 30
0.000000
  70
    32
  0
VERTEX
  8
0
  5
131
 10
1.32477
 20
1.50871
 30
0.000000
  70
    32
  0
VERTEX
  8
0
  5
132
 10
1.28010
 20
1.49970
 30
0.000000
  70
    32
  0
VERTEX
  8
0
  5
133
 10
1.23546
 20
1.49061
 30
0.000000
  70
    32
  0
VERTEX
  8
0
  5
134
 10
1.19085
 20
1.48145
 30
0.000000
  70
    32
  0
VERTEX
  8
0
  5
135
 10
1.14626
 20
1.47220
 30
0.000000
  70
    32
  0
VERTEX
  8
0
  5
136
 10
1.10169
 20
1.46287
 30
0.000000
  70
    32
  0
VERTEX
  8
0
  5
137
 10
1.05715
 20
1.45347
 30
0.000000
  70
    32
  0
VERTEX
  8
0
  5
138
 10
1.01263
 20
1.44398
 30
0.000000
  70
    32
  0
VERTEX
  8
0
  5
139
 10
0.968132
 20
1.43442
 30
0.000000
  70
    32
  0
VERTEX
  8
0
  5
13A
 10
0.923661
 20
1.42478
 30
0.000000
  70
    32
  0
VERTEX
  8
0
  5
13B
 10
0.879214
 20
1.41506
 30
0.000000
  70
    32
  0
VERTEX
  8
0
  5
13C
 10
0.834792
 20
1.40525
 30
0.000000
  70
    32
  0
VERTEX
  8
0
  5
13D
 10
0.790393
 20
1.39537
 30
0.000000
  70
    32
  0
VERTEX
  8
0
  5
13E
 10
0.746019
 20
1.38541
 30
0.000000
  70
    32
  0
VERTEX
  8
0
  5
13F
 10
0.701669
 20
1.37537
 30
0.000000
  70
    32
  0
VERTEX
  8
0
  5
140
 10
0.657343
 20
1.36526
 30
0.000000
  70
    32
  0
VERTEX
  8
0
  5
141
 10
0.613041
 20
1.35506
 30
0.000000
  70
    32
  0
VERTEX
  8
0
  5
142
 10
0.568763
 20
1.34478
 30
0.000000
  70
    32
  0
VERTEX
  8
0
  5
143
 10
0.524510
 20
1.33442
 30
0.000000
  70
    32
  0
VERTEX
  8
0
  5
144
 10
0.480280
 20
1.32399
 30
0.000000
  70
    32
  0
VERTEX
  8
0
  5
145
 10
0.436075
 20
1.31347
 30
0.000000
  70
    32
  0
VERTEX
  8
0
  5
146
 10
0.391894
 20
1.30288
 30
0.000000
  70
    32
  0
VERTEX
  8
0
  5
147
 10
0.347737
 20
1.29221
 30
0.000000
  70
    32
  0
VERTEX
  8
0
  5
148
 10
0.303604
 20
1.28145
 30
0.000000
  70
    32
  0
VERTEX
  8
0
  5
149
 10
0.259495
 20
1.27062
 30
0.000000
  70
    32
  0
VERTEX
  8
0
  5
14A
 10
0.215411
 20
1.25971
 30
0.000000
  70
    32
  0
VERTEX
  8
0
  5
14B
 10
0.171350
 20
1.24872
 30
0.000000
  70
    32
  0
VERTEX
  8
0
  5
14C
 10
0.127314
 20
1.23765
 30
0.000000
  70
    32
  0
VERTEX
  8
0
  5
14D
 10
0.0833020
 20
1.22650
 30
0.000000
  70
    32
  0
VERTEX
  8
0
  5
14E
 10
0.0393141
 20
1.21527
 30
0.000000
  70
    32
  0
VERTEX
  8
0
  5
14F
 10
-0.00464971
 20
1.20396
 30
0.000000
  70
    32
  0
VERTEX
  8
0
  5
150
 10
-0.0485894
 20
1.19258
 30
0.000000
  70
    32
  0
VERTEX
  8
0
  5
151
 10
-0.0925049
 20
1.18111
 30
0.000000
  70
    32
  0
VERTEX
  8
0
  5
152
 10
-0.136396
 20
1.16957
 30
0.000000
  70
    32
  0
VERTEX
  8
0
  5
153
 10
-0.180263
 20
1.15794
 30
0.000000
  70
    32
  0
VERTEX
  8
0
  5
154
 10
-0.224107
 20
1.14624
 30
0.000000
  70
    32
  0
VERTEX
  8
0
  5
155
 10
-0.267925
 20
1.13445
 30
0.000000
  70
    32
  0
VERTEX
  8
0
  5
156
 10
-0.311720
 20
1.12259
 30
0.000000
  70
    32
  0
VERTEX
  8
0
  5
157
 10
-0.355491
 20
1.11065
 30
0.000000
  70
    32
  0
VERTEX
  8
0
  5
158
 10
-0.399237
 20
1.09863
 30
0.000000
  70
    32
  0
VERTEX
  8
0
  5
159
 10
-0.442960
 20
1.08653
 30
0.000000
  70
    32
  0
VERTEX
  8
0
  5
15A
 10
-0.486658
 20
1.07435
 30
0.000000
  70
    32
  0
VERTEX
  8
0
  5
15B
 10
-0.530332
 20
1.06209
 30
0.000000
  70
    32
  0
VERTEX
  8
0
  5
15C
 10
-0.573982
 20
1.04975
 30
0.000000
  70
    32
  0
VERTEX
  8
0
  5
15D
 10
-0.617608
 20
1.03733
 30
0.000000
  70
    32
  0
VERTEX
  8
0
  5
15E
 10
-0.661209
 20
1.02484
 30
0.000000
  70
    32
  0
VERTEX
  8
0
  5
15F
 10
-0.704787
 20
1.01226
 30
0.000000
  70
    32
  0
VERTEX
  8
0
  5
160
 10
-0.748340
 20
0.999603
 30
0.000000
  70
    32
  0
VERTEX
  8
0
  5
161
 10
-0.791869
 20
0.986869
 30
0.000000
  70
    32
  0
VERTEX
  8
0
  5
162
 10
-0.835374
 20
0.974055
 30
0.000000
  70
    32
  0
VERTEX
  8
0
  5
163
 10
-0.878855
 20
0.961161
 30
0.000000
  70
    32
  0
VERTEX
  8
0
  5
164
 10
-0.922312
 20
0.948189
 30
0.000000
  70
    32
  0
VERTEX
  8
0
  5
165
 10
-0.965744
 20
0.935137
 30
0.000000
  70
    32
  0
VERTEX
  8
0
  5
166
 10
-1.00915
 20
0.922006
 30
0.000000
  70
    32
  0
VERTEX
  8
0
  5
167
 10
-1.05254
 20
0.908796
 30
0.000000
  70
    32
  0
VERTEX
  8
0
  5
168
 10
-1.09590
 20
0.895506
 30
0.000000
  70
    32
  0
VERTEX
  8
0
  5
169
 10
-1.13923
 20
0.882137
 30
0.000000
  70
    32
  0
VERTEX
  8
0
  5
16A
 10
-1.18254
 20
0.868689
 30
0.000000
  70
    32
  0
VERTEX
  8
0
  5
16B
 10
-1.22583
 20
0.855161
 30
0.000000
  70
    32
  0
VERTEX
  8
0
  5
16C
 10
-1.26910
 20
0.841554
 30
0.000000
  70
    32
  0
VERTEX
  8
0
  5
16D
 10
-1.31234
 20
0.827868
 30
0.000000
  70
    32
  0
VERTEX
  8
0
  5
16E
 10
-1.35555
 20
0.814103
 30
0.000000
  70
    32
  0
VERTEX
  8
0
  5
16F
 10
-1.39874
 20
0.800258
 30
0.000000
  70
    32
  0
VERTEX
  8
0
  5
170
 10
-1.44191
 20
0.786335
 30
0.000000
  70
    32
  0
VERTEX
  8
0
  5
171
 10
-1.48505
 20
0.772331
 30
0.000000
  70
    32
  0
VERTEX
  8
0
  5
172
 10
-1.52817
 20
0.758249
 30
0.000000
  70
    32
  0
VERTEX
  8
0
  5
173
 10
-1.57126
 20
0.744087
 30
0.000000
  70
    32
  0
VERTEX
  8
0
  5
174
 10
-1.61434
 20
0.729846
 30
0.000000
  70
    32
  0
VERTEX
  8
0
  5
175
 10
-1.65738
 20
0.715526
 30
0.000000
  70
    32
  0
VERTEX
  8
0
  5
176
 10
-1.70040
 20
0.701126
 30
0.000000
  70
    32
  0
VERTEX
  8
0
  5
177
 10
-1.74340
 20
0.686647
 30
0.000000
  70
    32
  0
VERTEX
  8
0
  5
178
 10
-1.78637
 20
0.672089
 30
0.000000
  70
    32
  0
VERTEX
  8
0
  5
179
 10
-1.82932
 20
0.657452
 30
0.000000
  70
    32
  0
VERTEX
  8
0
  5
17A
 10
-1.87225
 20
0.642735
 30
0.000000
  70
    32
  0
SEQEND
  8
0
  5
17B
  0
POLYLINE
  8
0
  5
17C
  66
     1
 10
0.000000
 20
0.000000
 30
0.000000
  70
     8
  0
VERTEX
  8
0
  5
17D
 10
3.92497
 20
1.55558
 30
0.000000
  70
    32
  0
VERTEX
  8
0
  5
17E
 10
3.92694
 20
1.56125
 30
0.000000
  70
    32
  0
VERTEX
  8
0
  5
17F
 10
3.92895
 20
1.56696
 30
0.000000
  70
    32
  0
VERTEX
  8
0
  5
180
 10
3.93097
 20
1.57270
 30
0.000000
  70
    32
  0
VERTEX
  8
0
  5
181
 10
3.93302
 20
1.57846
 30
0.000000
  70
    32
  0
VERTEX
  8
0
  5
182
 10
3.93507
 20
1.58423
 30
0.000000
  70
    32
  0
VERTEX
  8
0
  5
183
 10
3.93712
 20
1.59002
 30
0.000000
  70
    32
  0
VERTEX
  8
0
  5
184
 10
3.93916
 20
1.59582
 30
0.000000
  70
    32
  0
VERTEX
  8
0
  5
185
 10
3.94119
 20
1.60163
 30
0.000000
  70
    32
  0
VERTEX
  8
0
  5
186
 10
3.94320
 20
1.60743
 30
0.000000
  70
    32
  0
VERTEX
  8
0
  5
187
 10
3.94518
 20
1.61324
 30
0.000000
  70
    32
  0
VERTEX
  8
0
  5
188
 10
3.94713
 20
1.61904
 30
0.000000
  70
    32
  0
VERTEX
  8
0
  5
189
 10
3.94905
 20
1.62482
 30
0.000000
  70
    32
  0
VERTEX
  8
0
  5
18A
 10
3.95091
 20
1.63060
 30
0.000000
  70
    32
  0
VERTEX
  8
0
  5
18B
 10
3.95273
 20
1.63635
 30
0.000000
  70
    32
  0
VERTEX
  8
0
  5
18C
 10
3.95449
 20
1.64209
 30
0.000000
  70
    32
  0
VERTEX
  8
0
  5
18D
 10
3.95619
 20
1.64780
 30
0.000000
  70
    32
  0
VERTEX
  8
0
  5
18E
 10
3.95782
 20
1.65348
 30
0.000000
  70
    32
  0
VERTEX
  8
0
  5
18F
 10
3.95938
 20
1.65913
 30
0.000000
  70
    32
  0
VERTEX
  8
0
  5
190
 10
3.96086
 20
1.66475
 30
0.000000
  70
    32
  0
VERTEX
  8
0
  5
191
 10
3.96226
 20
1.67033
 30
0.000000
  70
    32
  0
VERTEX
  8
0
  5
192
 10
3.96357
 20
1.67586
 30
0.000000
  70
    32
  0
VERTEX
  8
0
  5
193
 10
3.96479
 20
1.68136
 30
0.000000
  70
    32
  0
VERTEX
  8
0
  5
194
 10
3.96592
 20
1.68681
 30
0.000000
  70
    32
  0
VERTEX
  8
0
  5
195
 10
3.96695
 20
1.69221
 30
0.000000
  70
    32
  0
VERTEX
  8
0
  5
196
 10
3.96788
 20
1.69755
 30
0.000000
  70
    32
  0
VERTEX
  8
0
  5
197
 10
3.96870
 20
1.70285
 30
0.000000
  70
    32
  0
VERTEX
  8
0
  5
198
 10
3.96941
 20
1.70808
 30
0.000000
  70
    32
  0
VERTEX
  8
0
  5
199
 10
3.97000
 20
1.71326
 30
0.000000
  70
    32
  0
VERTEX
  8
0
  5
19A
 10
3.97048
 20
1.71838
 30
0.000000
  70
    32
  0
VERTEX
  8
0
  5
19B
 10
3.97084
 20
1.72343
 30
0.000000
  70
    32
  0
VERTEX
  8
0
  5
19C
 10
3.97108
 20
1.72842
 30
0.000000
  70
    32
  0
VERTEX
  8
0
  5
19D
 10
3.97119
 20
1.73334
 30
0.000000
  70
    32
  0
VERTEX
  8
0
  5
19E
 10
3.97118
 20
1.73820
 30
0.000000
  70
    32
  0
VERTEX
  8
0
  5
19F
 10
3.97104
 20
1.74298
 30
0.000000
  70
    32
  0
VERTEX
  8
0
  5
1A0
 10
3.97076
 20
1.74769
 30
0.000000
  70
    32
  0
VERTEX
  8
0
  5
1A1
 10
3.97035
 20
1.75232
 30
0.000000
  70
    32
  0
VERTEX
  8
0
  5
1A2
 10
3.96981
 20
1.75688
 30
0.000000
  70
    32
  0
VERTEX
  8
0
  5
1A3
 10
3.96913
 20
1.76136
 30
0.000000
  70
    32
  0
VERTEX
  8
0
  5
1A4
 10
3.96831
 20
1.76576
 30
0.000000
  70
    32
  0
VERTEX
  8
0
  5
1A5
 10
3.96735
 20
1.77009
 30
0.000000
  70
    32
  0
VERTEX
  8
0
  5
1A6
 10
3.96625
 20
1.77433
 30
0.000000
  70
    32
  0
VERTEX
  8
0
  5
1A7
 10
3.96501
 20
1.77849
 30
0.000000
  70
    32
  0
VERTEX
  8
0
  5
1A8
 10
3.96363
 20
1.78257
 30
0.000000
  70
    32
  0
VERTEX
  8
0
  5
1A9
 10
3.96211
 20
1.78656
 30
0.000000
  70
    32
  0
VERTEX
  8
0
  5
1AA
 10
3.96044
 20
1.79047
 30
0.000000
  70
    32
  0
VERTEX
  8
0
  5
1AB
 10
3.95863
 20
1.79430
 30
0.000000
  70
    32
  0
VERTEX
  8
0
  5
1AC
 10
3.95668
 20
1.79804
 30
0.000000
  70
    32
  0
VERTEX
  8
0
  5
1AD
 10
3.95458
 20
1.80169
 30
0.000000
  70
    32
  0
VERTEX
  8
0
  5
1AE
 10
3.95235
 20
1.80526
 30
0.000000
  70
    32
  0
VERTEX
  8
0
  5
1AF
 10
3.94997
 20
1.80874
 30
0.000000
  70
    32
  0
VERTEX
  8
0
  5
1B0
 10
3.94745
 20
1.81213
 30
0.000000
  70
    32
  0
VERTEX
  8
0
  5
1B1
 10
3.94479
 20
1.81544
 30
0.000000
  70
    32
  0
VERTEX
  8
0
  5
1B2
 10
3.94199
 20
1.81866
 30
0.000000
  70
    32
  0
VERTEX
  8
0
  5
1B3
 10
3.93905
 20
1.82179
 30
0.000000
  70
    32
  0
VERTEX
  8
0
  5
1B4
 10
3.93598
 20
1.82484
 30
0.000000
  70
    32
  0
VERTEX
  8
0
  5
1B5
 10
3.93277
 20
1.82780
 30
0.000000
  70
    32
  0
VERTEX
  8
0
  5
1B6
 10
3.92943
 20
1.83067
 30
0.000000
  70
    32
  0
VERTEX
  8
0
  5
1B7
 10
3.92596
 20
1.83346
 30
0.000000
  70
    32
  0
VERTEX
  8
0
  5
1B8
 10
3.92237
 20
1.83616
 30
0.000000
  70
    32
  0
VERTEX
  8
0
  5
1B9
 10
3.91864
 20
1.83878
 30
0.000000
  70
    32
  0
VERTEX
  8
0
  5
1BA
 10
3.91479
 20
1.84131
 30
0.000000
  70
    32
  0
VERTEX
  8
0
  5
1BB
 10
3.91082
 20
1.84376
 30
0.000000
  70
    32
  0
VERTEX
  8
0
  5
1BC
 10
3.90674
 20
1.84613
 30
0.000000
  70
    32
  0
VERTEX
  8
0
  5
1BD
 10
3.90253
 20
1.84842
 30
0.000000
  70
    32
  0
VERTEX
  8
0
  5
1BE
 10
3.89822
 20
1.85063
 30
0.000000
  70
    32
  0
VERTEX
  8
0
  5
1BF
 10
3.89380
 20
1.85276
 30
0.000000
  70
    32
  0
VERTEX
  8
0
  5
1C0
 10
3.88927
 20
1.85481
 30
0.000000
  70
    32
  0
VERTEX
  8
0
  5
1C1
 10
3.88464
 20
1.85678
 30
0.000000
  70
    32
  0
VERTEX
  8
0
  5
1C2
 10
3.87991
 20
1.85868
 30
0.000000
  70
    32
  0
VERTEX
  8
0
  5
1C3
 10
3.87509
 20
1.86051
 30
0.000000
  70
    32
  0
VERTEX
  8
0
  5
1C4
 10
3.87018
 20
1.86227
 30
0.000000
  70
    32
  0
VERTEX
  8
0
  5
1C5
 10
3.86519
 20
1.86396
 30
0.000000
  70
    32
  0
VERTEX
  8
0
  5
1C6
 10
3.86011
 20
1.86557
 30
0.000000
  70
    32
  0
VERTEX
  8
0
  5
1C7
 10
3.85495
 20
1.86712
 30
0.000000
  70
    32
  0
VERTEX
  8
0
  5
1C8
 10
3.84971
 20
1.86861
 30
0.000000
  70
    32
  0
VERTEX
  8
0
  5
1C9
 10
3.84441
 20
1.87002
 30
0.000000
  70
    32
  0
VERTEX
  8
0
  5
1CA
 10
3.83903
 20
1.87138
 30
0.000000
  70
    32
  0
VERTEX
  8
0
  5
1CB
 10
3.83358
 20
1.87267
 30
0.000000
  70
    32
  0
VERTEX
  8
0
  5
1CC
 10
3.82807
 20
1.87390
 30
0.000000
  70
    32
  0
VERTEX
  8
0
  5
1CD
 10
3.82250
 20
1.87508
 30
0.000000
  70
    32
  0
VERTEX
  8
0
  5
1CE
 10
3.81686
 20
1.87619
 30
0.000000
  70
    32
  0
VERTEX
  8
0
  5
1CF
 10
3.81117
 20
1.87725
 30
0.000000
  70
    32
  0
VERTEX
  8
0
  5
1D0
 10
3.80542
 20
1.87825
 30
0.000000
  70
    32
  0
VERTEX
  8
0
  5
1D1
 10
3.79962
 20
1.87919
 30
0.000000
  70
    32
  0
VERTEX
  8
0
  5
1D2
 10
3.79377
 20
1.88009
 30
0.000000
  70
    32
  0
VERTEX
  8
0
  5
1D3
 10
3.78786
 20
1.88093
 30
0.000000
  70
    32
  0
VERTEX
  8
0
  5
1D4
 10
3.78191
 20
1.88172
 30
0.000000
  70
    32
  0
VERTEX
  8
0
  5
1D5
 10
3.77591
 20
1.88246
 30
0.000000
  70
    32
  0
VERTEX
  8
0
  5
1D6
 10
3.76987
 20
1.88315
 30
0.000000
  70
    32
  0
VERTEX
  8
0
  5
1D7
 10
3.76378
 20
1.88379
 30
0.000000
  70
    32
  0
VERTEX
  8
0
  5
1D8
 10
3.75765
 20
1.88438
 30
0.000000
  70
    32
  0
VERTEX
  8
0
  5
1D9
 10
3.75148
 20
1.88493
 30
0.000000
  70
    32
  0
VERTEX
  8
0
  5
1DA
 10
3.74527
 20
1.88544
 30
0.000000
  70
    32
  0
VERTEX
  8
0
  5
1DB
 10
3.73902
 20
1.88590
 30
0.000000
  70
    32
  0
VERTEX
  8
0
  5
1DC
 10
3.73273
 20
1.88632
 30
0.000000
  70
    32
  0
VERTEX
  8
0
  5
1DD
 10
3.72640
 20
1.88669
 30
0.000000
  70
    32
  0
VERTEX
  8
0
  5
1DE
 10
3.72003
 20
1.88703
 30
0.000000
  70
    32
  0
VERTEX
  8
0
  5
1DF
 10
3.71362
 20
1.88732
 30
0.000000
  70
    32
  0
VERTEX
  8
0
  5
1E0
 10
3.70718
 20
1.88758
 30
0.000000
  70
    32
  0
VERTEX
  8
0
  5
1E1
 10
3.70069
 20
1.88780
 30
0.000000
  70
    32
  0
VERTEX
  8
0
  5
1E2
 10
3.69417
 20
1.88798
 30
0.000000
  70
    32
  0
VERTEX
  8
0
  5
1E3
 10
3.68762
 20
1.88813
 30
0.000000
  70
    32
  0
VERTEX
  8
0
  5
1E4
 10
3.68102
 20
1.88823
 30
0.000000
  70
    32
  0
VERTEX
  8
0
  5
1E5
 10
3.67439
 20
1.88831
 30
0.000000
  70
    32
  0
VERTEX
  8
0
  5
1E6
 10
3.66772
 20
1.88835
 30
0.000000
  70
    32
  0
VERTEX
  8
0
  5
1E7
 10
3.66101
 20
1.88836
 30
0.000000
  70
    32
  0
VERTEX
  8
0
  5
1E8
 10
3.65427
 20
1.88834
 30
0.000000
  70
    32
  0
VERTEX
  8
0
  5
1E9
 10
3.64749
 20
1.88828
 30
0.000000
  70
    32
  0
VERTEX
  8
0
  5
1EA
 10
3.64067
 20
1.88819
 30
0.000000
  70
    32
  0
VERTEX
  8
0
  5
1EB
 10
3.63381
 20
1.88808
 30
0.000000
  70
    32
  0
VERTEX
  8
0
  5
1EC
 10
3.62691
 20
1.88793
 30
0.000000
  70
    32
  0
VERTEX
  8
0
  5
1ED
 10
3.61998
 20
1.88775
 30
0.000000
  70
    32
  0
VERTEX
  8
0
  5
1EE
 10
3.61300
 20
1.88755
 30
0.000000
  70
    32
  0
VERTEX
  8
0
  5
1EF
 10
3.60599
 20
1.88732
 30
0.000000
  70
    32
  0
VERTEX
  8
0
  5
1F0
 10
3.59894
 20
1.88706
 30
0.000000
  70
    32
  0
VERTEX
  8
0
  5
1F1
 10
3.59185
 20
1.88678
 30
0.000000
  70
    32
  0
VERTEX
  8
0
  5
1F2
 10
3.58471
 20
1.88646
 30
0.000000
  70
    32
  0
VERTEX
  8
0
  5
1F3
 10
3.57754
 20
1.88613
 30
0.000000
  70
    32
  0
VERTEX
  8
0
  5
1F4
 10
3.57032
 20
1.88577
 30
0.000000
  70
    32
  0
VERTEX
  8
0
  5
1F5
 10
3.56307
 20
1.88538
 30
0.000000
  70
    32
  0
VERTEX
  8
0
  5
1F6
 10
3.55577
 20
1.88497
 30
0.000000
  70
    32
  0
VERTEX
  8
0
  5
1F7
 10
3.54842
 20
1.88453
 30
0.000000
  70
    32
  0
VERTEX
  8
0
  5
1F8
 10
3.54104
 20
1.88408
 30
0.000000
  70
    32
  0
VERTEX
  8
0
  5
1F9
 10
3.53360
 20
1.88359
 30
0.000000
  70
    32
  0
VERTEX
  8
0
  5
1FA
 10
3.52613
 20
1.88309
 30
0.000000
  70
    32
  0
VERTEX
  8
0
  5
1FB
 10
3.51860
 20
1.88256
 30
0.000000
  70
    32
  0
VERTEX
  8
0
  5
1FC
 10
3.51104
 20
1.88202
 30
0.000000
  70
    32
  0
VERTEX
  8
0
  5
1FD
 10
3.50342
 20
1.88145
 30
0.000000
  70
    32
  0
VERTEX
  8
0
  5
1FE
 10
3.49575
 20
1.88085
 30
0.000000
  70
    32
  0
VERTEX
  8
0
  5
1FF
 10
3.48804
 20
1.88024
 30
0.000000
  70
    32
  0
VERTEX
  8
0
  5
200
 10
3.48027
 20
1.87961
 30
0.000000
  70
    32
  0
VERTEX
  8
0
  5
201
 10
3.47245
 20
1.87895
 30
0.000000
  70
    32
  0
VERTEX
  8
0
  5
202
 10
3.46459
 20
1.87827
 30
0.000000
  70
    32
  0
VERTEX
  8
0
  5
203
 10
3.45666
 20
1.87758
 30
0.000000
  70
    32
  0
VERTEX
  8
0
  5
204
 10
3.44869
 20
1.87686
 30
0.000000
  70
    32
  0
VERTEX
  8
0
  5
205
 10
3.44065
 20
1.87612
 30
0.000000
  70
    32
  0
VERTEX
  8
0
  5
206
 10
3.43256
 20
1.87536
 30
0.000000
  70
    32
  0
VERTEX
  8
0
  5
207
 10
3.42442
 20
1.87459
 30
0.000000
  70
    32
  0
VERTEX
  8
0
  5
208
 10
3.41621
 20
1.87379
 30
0.000000
  70
    32
  0
VERTEX
  8
0
  5
209
 10
3.40794
 20
1.87297
 30
0.000000
  70
    32
  0
VERTEX
  8
0
  5
20A
 10
3.39962
 20
1.87213
 30
0.000000
  70
    32
  0
VERTEX
  8
0
  5
20B
 10
3.39123
 20
1.87127
 30
0.000000
  70
    32
  0
VERTEX
  8
0
  5
20C
 10
3.38277
 20
1.87039
 30
0.000000
  70
    32
  0
VERTEX
  8
0
  5
20D
 10
3.37425
 20
1.86949
 30
0.000000
  70
    32
  0
VERTEX
  8
0
  5
20E
 10
3.36566
 20
1.86857
 30
0.000000
  70
    32
  0
VERTEX
  8
0
  5
20F
 10
3.35700
 20
1.86762
 30
0.000000
  70
    32
  0
VERTEX
  8
0
  5
210
 10
3.34828
 20
1.86666
 30
0.000000
  70
    32
  0
VERTEX
  8
0
  5
211
 10
3.33948
 20
1.86568
 30
0.000000
  70
    32
  0
VERTEX
  8
0
  5
212
 10
3.33061
 20
1.86467
 30
0.000000
  70
    32
  0
VERTEX
  8
0
  5
213
 10
3.32166
 20
1.86364
 30
0.000000
  70
    32
  0
VERTEX
  8
0
  5
214
 10
3.31264
 20
1.86260
 30
0.000000
  70
    32
  0
VERTEX
  8
0
  5
215
 10
3.30354
 20
1.86153
 30
0.000000
  70
    32
  0
VERTEX
  8
0
  5
216
 10
3.29436
 20
1.86043
 30
0.000000
  70
    32
  0
VERTEX
  8
0
  5
217
 10
3.28509
 20
1.85932
 30
0.000000
  70
    32
  0
VERTEX
  8
0
  5
218
 10
3.27575
 20
1.85818
 30
0.000000
  70
    32
  0
VERTEX
  8
0
  5
219
 10
3.26632
 20
1.85702
 30
0.000000
  70
    32
  0
VERTEX
  8
0
  5
21A
 10
3.25680
 20
1.85583
 30
0.000000
  70
    32
  0
VERTEX
  8
0
  5
21B
 10
3.24719
 20
1.85462
 30
0.000000
  70
    32
  0
VERTEX
  8
0
  5
21C
 10
3.23750
 20
1.85339
 30
0.000000
  70
    32
  0
VERTEX
  8
0
  5
21D
 10
3.22771
 20
1.85213
 30
0.000000
  70
    32
  0
VERTEX
  8
0
  5
21E
 10
3.21782
 20
1.85084
 30
0.000000
  70
    32
  0
VERTEX
  8
0
  5
21F
 10
3.20784
 20
1.84953
 30
0.000000
  70
    32
  0
VERTEX
  8
0
  5
220
 10
3.19776
 20
1.84820
 30
0.000000
  70
    32
  0
VERTEX
  8
0
  5
221
 10
3.18758
 20
1.84683
 30
0.000000
  70
    32
  0
VERTEX
  8
0
  5
222
 10
3.17730
 20
1.84544
 30
0.000000
  70
    32
  0
VERTEX
  8
0
  5
223
 10
3.16691
 20
1.84402
 30
0.000000
  70
    32
  0
VERTEX
  8
0
  5
224
 10
3.15641
 20
1.84258
 30
0.000000
  70
    32
  0
VERTEX
  8
0
  5
225
 10
3.14580
 20
1.84110
 30
0.000000
  70
    32
  0
VERTEX
  8
0
  5
226
 10
3.13509
 20
1.83959
 30
0.000000
  70
    32
  0
VERTEX
  8
0
  5
227
 10
3.12425
 20
1.83805
 30
0.000000
  70
    32
  0
VERTEX
  8
0
  5
228
 10
3.11330
 20
1.83648
 30
0.000000
  70
    32
  0
VERTEX
  8
0
  5
229
 10
3.10224
 20
1.83488
 30
0.000000
  70
    32
  0
VERTEX
  8
0
  5
22A
 10
3.09105
 20
1.83325
 30
0.000000
  70
    32
  0
VERTEX
  8
0
  5
22B
 10
3.07974
 20
1.83158
 30
0.000000
  70
    32
  0
VERTEX
  8
0
  5
22C
 10
3.06830
 20
1.82988
 30
0.000000
  70
    32
  0
VERTEX
  8
0
  5
22D
 10
3.05673
 20
1.82814
 30
0.000000
  70
    32
  0
VERTEX
  8
0
  5
22E
 10
3.04503
 20
1.82637
 30
0.000000
  70
    32
  0
VERTEX
  8
0
  5
22F
 10
3.03320
 20
1.82456
 30
0.000000
  70
    32
  0
VERTEX
  8
0
  5
230
 10
3.02123
 20
1.82271
 30
0.000000
  70
    32
  0
VERTEX
  8
0
  5
231
 10
3.00912
 20
1.82083
 30
0.000000
  70
    32
  0
VERTEX
  8
0
  5
232
 10
2.99687
 20
1.81890
 30
0.000000
  70
    32
  0
VERTEX
  8
0
  5
233
 10
2.98448
 20
1.81694
 30
0.000000
  70
    32
  0
VERTEX
  8
0
  5
234
 10
2.97193
 20
1.81493
 30
0.000000
  70
    32
  0
VERTEX
  8
0
  5
235
 10
2.95924
 20
1.81288
 30
0.000000
  70
    32
  0
VERTEX
  8
0
  5
236
 10
2.94640
 20
1.81079
 30
0.000000
  70
    32
  0
VERTEX
  8
0
  5
237
 10
2.93340
 20
1.80865
 30
0.000000
  70
    32
  0
VERTEX
  8
0
  5
238
 10
2.92024
 20
1.80646
 30
0.000000
  70
    32
  0
VERTEX
  8
0
  5
239
 10
2.90692
 20
1.80423
 30
0.000000
  70
    32
  0
VERTEX
  8
0
  5
23A
 10
2.89343
 20
1.80196
 30
0.000000
  70
    32
  0
VERTEX
  8
0
  5
23B
 10
2.87978
 20
1.79963
 30
0.000000
  70
    32
  0
VERTEX
  8
0
  5
23C
 10
2.86595
 20
1.79726
 30
0.000000
  70
    32
  0
VERTEX
  8
0
  5
23D
 10
2.85196
 20
1.79483
 30
0.000000
  70
    32
  0
VERTEX
  8
0
  5
23E
 10
2.83778
 20
1.79235
 30
0.000000
  70
    32
  0
VERTEX
  8
0
  5
23F
 10
2.82343
 20
1.78982
 30
0.000000
  70
    32
  0
VERTEX
  8
0
  5
240
 10
2.80889
 20
1.78723
 30
0.000000
  70
    32
  0
VERTEX
  8
0
  5
241
 10
2.79417
 20
1.78459
 30
0.000000
  70
    32
  0
VERTEX
  8
0
  5
242
 10
2.77925
 20
1.78188
 30
0.000000
  70
    32
  0
VERTEX
  8
0
  5
243
 10
2.76415
 20
1.77913
 30
0.000000
  70
    32
  0
VERTEX
  8
0
  5
244
 10
2.74885
 20
1.77631
 30
0.000000
  70
    32
  0
VERTEX
  8
0
  5
245
 10
2.73334
 20
1.77343
 30
0.000000
  70
    32
  0
VERTEX
  8
0
  5
246
 10
2.71764
 20
1.77048
 30
0.000000
  70
    32
  0
VERTEX
  8
0
  5
247
 10
2.70173
 20
1.76748
 30
0.000000
  70
    32
  0
VERTEX
  8
0
  5
248
 10
2.68561
 20
1.76440
 30
0.000000
  70
    32
  0
VERTEX
  8
0
  5
249
 10
2.66927
 20
1.76126
 30
0.000000
  70
    32
  0
VERTEX
  8
0
  5
24A
 10
2.65272
 20
1.75806
 30
0.000000
  70
    32
  0
VERTEX
  8
0
  5
24B
 10
2.63595
 20
1.75478
 30
0.000000
  70
    32
  0
VERTEX
  8
0
  5
24C
 10
2.61895
 20
1.75143
 30
0.000000
  70
    32
  0
VERTEX
  8
0
  5
24D
 10
2.60173
 20
1.74801
 30
0.000000
  70
    32
  0
VERTEX
  8
0
  5
24E
 10
2.58428
 20
1.74451
 30
0.000000
  70
    32
  0
VERTEX
  8
0
  5
24F
 10
2.56659
 20
1.74094
 30
0.000000
  70
    32
  0
VERTEX
  8
0
  5
250
 10
2.54866
 20
1.73729
 30
0.000000
  70
    32
  0
VERTEX
  8
0
  5
251
 10
2.53049
 20
1.73356
 30
0.000000
  70
    32
  0
VERTEX
  8
0
  5
252
 10
2.51207
 20
1.72975
 30
0.000000
  70
    32
  0
VERTEX
  8
0
  5
253
 10
2.49340
 20
1.72586
 30
0.000000
  70
    32
  0
VERTEX
  8
0
  5
254
 10
2.47448
 20
1.72189
 30
0.000000
  70
    32
  0
VERTEX
  8
0
  5
255
 10
2.45530
 20
1.71783
 30
0.000000
  70
    32
  0
VERTEX
  8
0
  5
256
 10
2.43586
 20
1.71368
 30
0.000000
  70
    32
  0
VERTEX
  8
0
  5
257
 10
2.41615
 20
1.70944
 30
0.000000
  70
    32
  0
VERTEX
  8
0
  5
258
 10
2.39618
 20
1.70511
 30
0.000000
  70
    32
  0
VERTEX
  8
0
  5
259
 10
2.37593
 20
1.70069
 30
0.000000
  70
    32
  0
VERTEX
  8
0
  5
25A
 10
2.35540
 20
1.69617
 30
0.000000
  70
    32
  0
VERTEX
  8
0
  5
25B
 10
2.33459
 20
1.69156
 30
0.000000
  70
    32
  0
VERTEX
  8
0
  5
25C
 10
2.31349
 20
1.68684
 30
0.000000
  70
    32
  0
SEQEND
  8
0
  5
25D
  0
ARC
  5
BA
  8
0
 10
5.2082648781103771
 20
1.0618396068190901
 30
0.0
 40
1.3749999999999989
 50
158.95607571371531
 51
307.1485668388836
  0
POLYLINE
  8
0
  5
25E
  66
     1
 10
0.000000
 20
0.000000
 30
0.000000
  70
     8
  0
VERTEX
  8
0
  5
25F
 10
-2.05401
 20
-1.88361
 30
0.000000
  70
    32
  0
VERTEX
  8
0
  5
260
 10
-2.03562
 20
-1.88297
 30
0.000000
  70
    32
  0
VERTEX
  8
0
  5
261
 10
-2.01715
 20
-1.88235
 30
0.000000
  70
    32
  0
VERTEX
  8
0
  5
262
 10
-1.99861
 20
-1.88176
 30
0.000000
  70
    32
  0
VERTEX
  8
0
  5
263
 10
-1.98001
 20
-1.88120
 30
0.000000
  70
    32
  0
VERTEX
  8
0
  5
264
 10
-1.96133
 20
-1.88067
 30
0.000000
  70
    32
  0
VERTEX
  8
0
  5
265
 10
-1.94258
 20
-1.88017
 30
0.000000
  70
    32
  0
VERTEX
  8
0
  5
266
 10
-1.92376
 20
-1.87969
 30
0.000000
  70
    32
  0
VERTEX
  8
0
  5
267
 10
-1.90488
 20
-1.87925
 30
0.000000
  70
    32
  0
VERTEX
  8
0
  5
268
 10
-1.88592
 20
-1.87882
 30
0.000000
  70
    32
  0
VERTEX
  8
0
  5
269
 10
-1.86690
 20
-1.87843
 30
0.000000
  70
    32
  0
VERTEX
  8
0
  5
26A
 10
-1.84782
 20
-1.87806
 30
0.000000
  70
    32
  0
VERTEX
  8
0
  5
26B
 10
-1.82867
 20
-1.87772
 30
0.000000
  70
    32
  0
VERTEX
  8
0
  5
26C
 10
-1.80945
 20
-1.87740
 30
0.000000
  70
    32
  0
VERTEX
  8
0
  5
26D
 10
-1.79018
 20
-1.87710
 30
0.000000
  70
    32
  0
VERTEX
  8
0
  5
26E
 10
-1.77083
 20
-1.87684
 30
0.000000
  70
    32
  0
VERTEX
  8
0
  5
26F
 10
-1.75143
 20
-1.87659
 30
0.000000
  70
    32
  0
VERTEX
  8
0
  5
270
 10
-1.73197
 20
-1.87637
 30
0.000000
  70
    32
  0
VERTEX
  8
0
  5
271
 10
-1.71244
 20
-1.87618
 30
0.000000
  70
    32
  0
VERTEX
  8
0
  5
272
 10
-1.69286
 20
-1.87601
 30
0.000000
  70
    32
  0
VERTEX
  8
0
  5
273
 10
-1.67322
 20
-1.87586
 30
0.000000
  70
    32
  0
VERTEX
  8
0
  5
274
 10
-1.65352
 20
-1.87573
 30
0.000000
  70
    32
  0
VERTEX
  8
0
  5
275
 10
-1.63376
 20
-1.87563
 30
0.000000
  70
    32
  0
VERTEX
  8
0
  5
276
 10
-1.61394
 20
-1.87554
 30
0.000000
  70
    32
  0
VERTEX
  8
0
  5
277
 10
-1.59407
 20
-1.87548
 30
0.000000
  70
    32
  0
VERTEX
  8
0
  5
278
 10
-1.57414
 20
-1.87545
 30
0.000000
  70
    32
  0
VERTEX
  8
0
  5
279
 10
-1.55416
 20
-1.87543
 30
0.000000
  70
    32
  0
VERTEX
  8
0
  5
27A
 10
-1.53412
 20
-1.87543
 30
0.000000
  70
    32
  0
VERTEX
  8
0
  5
27B
 10
-1.51403
 20
-1.87546
 30
0.000000
  70
    32
  0
VERTEX
  8
0
  5
27C
 10
-1.49389
 20
-1.87550
 30
0.000000
  70
    32
  0
VERTEX
  8
0
  5
27D
 10
-1.47370
 20
-1.87557
 30
0.000000
  70
    32
  0
VERTEX
  8
0
  5
27E
 10
-1.45345
 20
-1.87565
 30
0.000000
  70
    32
  0
VERTEX
  8
0
  5
27F
 10
-1.43316
 20
-1.87576
 30
0.000000
  70
    32
  0
VERTEX
  8
0
  5
280
 10
-1.41281
 20
-1.87588
 30
0.000000
  70
    32
  0
VERTEX
  8
0
  5
281
 10
-1.39241
 20
-1.87602
 30
0.000000
  70
    32
  0
VERTEX
  8
0
  5
282
 10
-1.37197
 20
-1.87618
 30
0.000000
  70
    32
  0
VERTEX
  8
0
  5
283
 10
-1.35148
 20
-1.87636
 30
0.000000
  70
    32
  0
VERTEX
  8
0
  5
284
 10
-1.33094
 20
-1.87656
 30
0.000000
  70
    32
  0
VERTEX
  8
0
  5
285
 10
-1.31035
 20
-1.87678
 30
0.000000
  70
    32
  0
VERTEX
  8
0
  5
286
 10
-1.28972
 20
-1.87701
 30
0.000000
  70
    32
  0
VERTEX
  8
0
  5
287
 10
-1.26904
 20
-1.87726
 30
0.000000
  70
    32
  0
VERTEX
  8
0
  5
288
 10
-1.24831
 20
-1.87753
 30
0.000000
  70
    32
  0
VERTEX
  8
0
  5
289
 10
-1.22755
 20
-1.87781
 30
0.000000
  70
    32
  0
VERTEX
  8
0
  5
28A
 10
-1.20673
 20
-1.87811
 30
0.000000
  70
    32
  0
VERTEX
  8
0
  5
28B
 10
-1.18588
 20
-1.87843
 30
0.000000
  70
    32
  0
VERTEX
  8
0
  5
28C
 10
-1.16498
 20
-1.87876
 30
0.000000
  70
    32
  0
VERTEX
  8
0
  5
28D
 10
-1.14404
 20
-1.87911
 30
0.000000
  70
    32
  0
VERTEX
  8
0
  5
28E
 10
-1.12306
 20
-1.87948
 30
0.000000
  70
    32
  0
VERTEX
  8
0
  5
28F
 10
-1.10204
 20
-1.87986
 30
0.000000
  70
    32
  0
VERTEX
  8
0
  5
290
 10
-1.08098
 20
-1.88025
 30
0.000000
  70
    32
  0
VERTEX
  8
0
  5
291
 10
-1.05988
 20
-1.88067
 30
0.000000
  70
    32
  0
VERTEX
  8
0
  5
292
 10
-1.03874
 20
-1.88109
 30
0.000000
  70
    32
  0
VERTEX
  8
0
  5
293
 10
-1.01756
 20
-1.88153
 30
0.000000
  70
    32
  0
VERTEX
  8
0
  5
294
 10
-0.996348
 20
-1.88198
 30
0.000000
  70
    32
  0
VERTEX
  8
0
  5
295
 10
-0.975094
 20
-1.88245
 30
0.000000
  70
    32
  0
VERTEX
  8
0
  5
296
 10
-0.953805
 20
-1.88293
 30
0.000000
  70
    32
  0
VERTEX
  8
0
  5
297
 10
-0.932479
 20
-1.88343
 30
0.000000
  70
    32
  0
VERTEX
  8
0
  5
298
 10
-0.911117
 20
-1.88394
 30
0.000000
  70
    32
  0
VERTEX
  8
0
  5
299
 10
-0.889720
 20
-1.88446
 30
0.000000
  70
    32
  0
VERTEX
  8
0
  5
29A
 10
-0.868289
 20
-1.88499
 30
0.000000
  70
    32
  0
VERTEX
  8
0
  5
29B
 10
-0.846823
 20
-1.88554
 30
0.000000
  70
    32
  0
VERTEX
  8
0
  5
29C
 10
-0.825324
 20
-1.88610
 30
0.000000
  70
    32
  0
VERTEX
  8
0
  5
29D
 10
-0.803792
 20
-1.88667
 30
0.000000
  70
    32
  0
VERTEX
  8
0
  5
29E
 10
-0.782228
 20
-1.88725
 30
0.000000
  70
    32
  0
VERTEX
  8
0
  5
29F
 10
-0.760631
 20
-1.88785
 30
0.000000
  70
    32
  0
VERTEX
  8
0
  5
2A0
 10
-0.739003
 20
-1.88846
 30
0.000000
  70
    32
  0
VERTEX
  8
0
  5
2A1
 10
-0.717344
 20
-1.88908
 30
0.000000
  70
    32
  0
VERTEX
  8
0
  5
2A2
 10
-0.695654
 20
-1.88971
 30
0.000000
  70
    32
  0
VERTEX
  8
0
  5
2A3
 10
-0.673935
 20
-1.89035
 30
0.000000
  70
    32
  0
VERTEX
  8
0
  5
2A4
 10
-0.652186
 20
-1.89100
 30
0.000000
  70
    32
  0
VERTEX
  8
0
  5
2A5
 10
-0.630407
 20
-1.89167
 30
0.000000
  70
    32
  0
VERTEX
  8
0
  5
2A6
 10
-0.608601
 20
-1.89234
 30
0.000000
  70
    32
  0
VERTEX
  8
0
  5
2A7
 10
-0.586766
 20
-1.89303
 30
0.000000
  70
    32
  0
VERTEX
  8
0
  5
2A8
 10
-0.564903
 20
-1.89372
 30
0.000000
  70
    32
  0
VERTEX
  8
0
  5
2A9
 10
-0.543013
 20
-1.89443
 30
0.000000
  70
    32
  0
VERTEX
  8
0
  5
2AA
 10
-0.521097
 20
-1.89515
 30
0.000000
  70
    32
  0
VERTEX
  8
0
  5
2AB
 10
-0.499154
 20
-1.89587
 30
0.000000
  70
    32
  0
VERTEX
  8
0
  5
2AC
 10
-0.477185
 20
-1.89661
 30
0.000000
  70
    32
  0
VERTEX
  8
0
  5
2AD
 10
-0.455191
 20
-1.89735
 30
0.000000
  70
    32
  0
VERTEX
  8
0
  5
2AE
 10
-0.433172
 20
-1.89811
 30
0.000000
  70
    32
  0
VERTEX
  8
0
  5
2AF
 10
-0.411128
 20
-1.89887
 30
0.000000
  70
    32
  0
VERTEX
  8
0
  5
2B0
 10
-0.389060
 20
-1.89964
 30
0.000000
  70
    32
  0
VERTEX
  8
0
  5
2B1
 10
-0.366968
 20
-1.90043
 30
0.000000
  70
    32
  0
VERTEX
  8
0
  5
2B2
 10
-0.344853
 20
-1.90122
 30
0.000000
  70
    32
  0
VERTEX
  8
0
  5
2B3
 10
-0.322716
 20
-1.90202
 30
0.000000
  70
    32
  0
VERTEX
  8
0
  5
2B4
 10
-0.300555
 20
-1.90283
 30
0.000000
  70
    32
  0
VERTEX
  8
0
  5
2B5
 10
-0.278373
 20
-1.90364
 30
0.000000
  70
    32
  0
VERTEX
  8
0
  5
2B6
 10
-0.256168
 20
-1.90447
 30
0.000000
  70
    32
  0
VERTEX
  8
0
  5
2B7
 10
-0.233943
 20
-1.90530
 30
0.000000
  70
    32
  0
VERTEX
  8
0
  5
2B8
 10
-0.211696
 20
-1.90614
 30
0.000000
  70
    32
  0
VERTEX
  8
0
  5
2B9
 10
-0.189429
 20
-1.90699
 30
0.000000
  70
    32
  0
VERTEX
  8
0
  5
2BA
 10
-0.167141
 20
-1.90785
 30
0.000000
  70
    32
  0
VERTEX
  8
0
  5
2BB
 10
-0.144834
 20
-1.90872
 30
0.000000
  70
    32
  0
VERTEX
  8
0
  5
2BC
 10
-0.122507
 20
-1.90959
 30
0.000000
  70
    32
  0
VERTEX
  8
0
  5
2BD
 10
-0.100162
 20
-1.91047
 30
0.000000
  70
    32
  0
VERTEX
  8
0
  5
2BE
 10
-0.0777968
 20
-1.91136
 30
0.000000
  70
    32
  0
VERTEX
  8
0
  5
2BF
 10
-0.0554137
 20
-1.91225
 30
0.000000
  70
    32
  0
VERTEX
  8
0
  5
2C0
 10
-0.0330125
 20
-1.91316
 30
0.000000
  70
    32
  0
VERTEX
  8
0
  5
2C1
 10
-0.0105936
 20
-1.91407
 30
0.000000
  70
    32
  0
VERTEX
  8
0
  5
2C2
 10
0.0118428
 20
-1.91498
 30
0.000000
  70
    32
  0
VERTEX
  8
0
  5
2C3
 10
0.0342963
 20
-1.91591
 30
0.000000
  70
    32
  0
VERTEX
  8
0
  5
2C4
 10
0.0567666
 20
-1.91684
 30
0.000000
  70
    32
  0
VERTEX
  8
0
  5
2C5
 10
0.0792534
 20
-1.91778
 30
0.000000
  70
    32
  0
VERTEX
  8
0
  5
2C6
 10
0.101756
 20
-1.91872
 30
0.000000
  70
    32
  0
VERTEX
  8
0
  5
2C7
 10
0.124275
 20
-1.91967
 30
0.000000
  70
    32
  0
VERTEX
  8
0
  5
2C8
 10
0.146809
 20
-1.92063
 30
0.000000
  70
    32
  0
VERTEX
  8
0
  5
2C9
 10
0.169359
 20
-1.92160
 30
0.000000
  70
    32
  0
VERTEX
  8
0
  5
2CA
 10
0.191923
 20
-1.92257
 30
0.000000
  70
    32
  0
VERTEX
  8
0
  5
2CB
 10
0.214502
 20
-1.92354
 30
0.000000
  70
    32
  0
VERTEX
  8
0
  5
2CC
 10
0.237096
 20
-1.92453
 30
0.000000
  70
    32
  0
VERTEX
  8
0
  5
2CD
 10
0.259704
 20
-1.92552
 30
0.000000
  70
    32
  0
VERTEX
  8
0
  5
2CE
 10
0.282325
 20
-1.92652
 30
0.000000
  70
    32
  0
VERTEX
  8
0
  5
2CF
 10
0.304960
 20
-1.92752
 30
0.000000
  70
    32
  0
VERTEX
  8
0
  5
2D0
 10
0.327609
 20
-1.92853
 30
0.000000
  70
    32
  0
VERTEX
  8
0
  5
2D1
 10
0.350270
 20
-1.92954
 30
0.000000
  70
    32
  0
VERTEX
  8
0
  5
2D2
 10
0.372944
 20
-1.93056
 30
0.000000
  70
    32
  0
VERTEX
  8
0
  5
2D3
 10
0.395631
 20
-1.93159
 30
0.000000
  70
    32
  0
VERTEX
  8
0
  5
2D4
 10
0.418330
 20
-1.93263
 30
0.000000
  70
    32
  0
VERTEX
  8
0
  5
2D5
 10
0.441042
 20
-1.93367
 30
0.000000
  70
    32
  0
VERTEX
  8
0
  5
2D6
 10
0.463765
 20
-1.93471
 30
0.000000
  70
    32
  0
VERTEX
  8
0
  5
2D7
 10
0.486500
 20
-1.93576
 30
0.000000
  70
    32
  0
VERTEX
  8
0
  5
2D8
 10
0.509246
 20
-1.93682
 30
0.000000
  70
    32
  0
VERTEX
  8
0
  5
2D9
 10
0.532003
 20
-1.93788
 30
0.000000
  70
    32
  0
VERTEX
  8
0
  5
2DA
 10
0.554771
 20
-1.93895
 30
0.000000
  70
    32
  0
VERTEX
  8
0
  5
2DB
 10
0.577550
 20
-1.94003
 30
0.000000
  70
    32
  0
VERTEX
  8
0
  5
2DC
 10
0.600340
 20
-1.94111
 30
0.000000
  70
    32
  0
VERTEX
  8
0
  5
2DD
 10
0.623140
 20
-1.94219
 30
0.000000
  70
    32
  0
VERTEX
  8
0
  5
2DE
 10
0.645950
 20
-1.94329
 30
0.000000
  70
    32
  0
VERTEX
  8
0
  5
2DF
 10
0.668771
 20
-1.94438
 30
0.000000
  70
    32
  0
VERTEX
  8
0
  5
2E0
 10
0.691601
 20
-1.94549
 30
0.000000
  70
    32
  0
VERTEX
  8
0
  5
2E1
 10
0.714440
 20
-1.94660
 30
0.000000
  70
    32
  0
VERTEX
  8
0
  5
2E2
 10
0.737289
 20
-1.94771
 30
0.000000
  70
    32
  0
VERTEX
  8
0
  5
2E3
 10
0.760148
 20
-1.94884
 30
0.000000
  70
    32
  0
VERTEX
  8
0
  5
2E4
 10
0.783015
 20
-1.94996
 30
0.000000
  70
    32
  0
VERTEX
  8
0
  5
2E5
 10
0.805892
 20
-1.95110
 30
0.000000
  70
    32
  0
VERTEX
  8
0
  5
2E6
 10
0.828777
 20
-1.95224
 30
0.000000
  70
    32
  0
VERTEX
  8
0
  5
2E7
 10
0.851672
 20
-1.95338
 30
0.000000
  70
    32
  0
VERTEX
  8
0
  5
2E8
 10
0.874574
 20
-1.95453
 30
0.000000
  70
    32
  0
VERTEX
  8
0
  5
2E9
 10
0.897485
 20
-1.95569
 30
0.000000
  70
    32
  0
VERTEX
  8
0
  5
2EA
 10
0.920404
 20
-1.95685
 30
0.000000
  70
    32
  0
VERTEX
  8
0
  5
2EB
 10
0.943331
 20
-1.95802
 30
0.000000
  70
    32
  0
VERTEX
  8
0
  5
2EC
 10
0.966265
 20
-1.95920
 30
0.000000
  70
    32
  0
VERTEX
  8
0
  5
2ED
 10
0.989207
 20
-1.96038
 30
0.000000
  70
    32
  0
VERTEX
  8
0
  5
2EE
 10
1.01215
 20
-1.96157
 30
0.000000
  70
    32
  0
VERTEX
  8
0
  5
2EF
 10
1.03511
 20
-1.96276
 30
0.000000
  70
    32
  0
VERTEX
  8
0
  5
2F0
 10
1.05807
 20
-1.96396
 30
0.000000
  70
    32
  0
VERTEX
  8
0
  5
2F1
 10
1.08104
 20
-1.96517
 30
0.000000
  70
    32
  0
VERTEX
  8
0
  5
2F2
 10
1.10401
 20
-1.96638
 30
0.000000
  70
    32
  0
VERTEX
  8
0
  5
2F3
 10
1.12699
 20
-1.96760
 30
0.000000
  70
    32
  0
VERTEX
  8
0
  5
2F4
 10
1.14997
 20
-1.96882
 30
0.000000
  70
    32
  0
VERTEX
  8
0
  5
2F5
 10
1.17295
 20
-1.97006
 30
0.000000
  70
    32
  0
VERTEX
  8
0
  5
2F6
 10
1.19594
 20
-1.97130
 30
0.000000
  70
    32
  0
VERTEX
  8
0
  5
2F7
 10
1.21893
 20
-1.97254
 30
0.000000
  70
    32
  0
VERTEX
  8
0
  5
2F8
 10
1.24193
 20
-1.97380
 30
0.000000
  70
    32
  0
VERTEX
  8
0
  5
2F9
 10
1.26492
 20
-1.97506
 30
0.000000
  70
    32
  0
VERTEX
  8
0
  5
2FA
 10
1.28792
 20
-1.97632
 30
0.000000
  70
    32
  0
VERTEX
  8
0
  5
2FB
 10
1.31092
 20
-1.97760
 30
0.000000
  70
    32
  0
VERTEX
  8
0
  5
2FC
 10
1.33391
 20
-1.97888
 30
0.000000
  70
    32
  0
VERTEX
  8
0
  5
2FD
 10
1.35691
 20
-1.98017
 30
0.000000
  70
    32
  0
VERTEX
  8
0
  5
2FE
 10
1.37990
 20
-1.98147
 30
0.000000
  70
    32
  0
VERTEX
  8
0
  5
2FF
 10
1.40289
 20
-1.98277
 30
0.000000
  70
    32
  0
VERTEX
  8
0
  5
300
 10
1.42588
 20
-1.98409
 30
0.000000
  70
    32
  0
VERTEX
  8
0
  5
301
 10
1.44886
 20
-1.98541
 30
0.000000
  70
    32
  0
VERTEX
  8
0
  5
302
 10
1.47184
 20
-1.98674
 30
0.000000
  70
    32
  0
VERTEX
  8
0
  5
303
 10
1.49481
 20
-1.98808
 30
0.000000
  70
    32
  0
VERTEX
  8
0
  5
304
 10
1.51778
 20
-1.98943
 30
0.000000
  70
    32
  0
VERTEX
  8
0
  5
305
 10
1.54074
 20
-1.99078
 30
0.000000
  70
    32
  0
VERTEX
  8
0
  5
306
 10
1.56369
 20
-1.99215
 30
0.000000
  70
    32
  0
VERTEX
  8
0
  5
307
 10
1.58663
 20
-1.99352
 30
0.000000
  70
    32
  0
VERTEX
  8
0
  5
308
 10
1.60956
 20
-1.99490
 30
0.000000
  70
    32
  0
VERTEX
  8
0
  5
309
 10
1.63247
 20
-1.99629
 30
0.000000
  70
    32
  0
VERTEX
  8
0
  5
30A
 10
1.65538
 20
-1.99770
 30
0.000000
  70
    32
  0
VERTEX
  8
0
  5
30B
 10
1.67827
 20
-1.99911
 30
0.000000
  70
    32
  0
VERTEX
  8
0
  5
30C
 10
1.70115
 20
-2.00053
 30
0.000000
  70
    32
  0
VERTEX
  8
0
  5
30D
 10
1.72401
 20
-2.00196
 30
0.000000
  70
    32
  0
VERTEX
  8
0
  5
30E
 10
1.74686
 20
-2.00340
 30
0.000000
  70
    32
  0
VERTEX
  8
0
  5
30F
 10
1.76969
 20
-2.00486
 30
0.000000
  70
    32
  0
VERTEX
  8
0
  5
310
 10
1.79249
 20
-2.00632
 30
0.000000
  70
    32
  0
VERTEX
  8
0
  5
311
 10
1.81528
 20
-2.00780
 30
0.000000
  70
    32
  0
VERTEX
  8
0
  5
312
 10
1.83805
 20
-2.00928
 30
0.000000
  70
    32
  0
VERTEX
  8
0
  5
313
 10
1.86079
 20
-2.01078
 30
0.000000
  70
    32
  0
VERTEX
  8
0
  5
314
 10
1.88351
 20
-2.01229
 30
0.000000
  70
    32
  0
VERTEX
  8
0
  5
315
 10
1.90620
 20
-2.01381
 30
0.000000
  70
    32
  0
VERTEX
  8
0
  5
316
 10
1.92887
 20
-2.01535
 30
0.000000
  70
    32
  0
VERTEX
  8
0
  5
317
 10
1.95151
 20
-2.01689
 30
0.000000
  70
    32
  0
VERTEX
  8
0
  5
318
 10
1.97412
 20
-2.01845
 30
0.000000
  70
    32
  0
VERTEX
  8
0
  5
319
 10
1.99670
 20
-2.02003
 30
0.000000
  70
    32
  0
VERTEX
  8
0
  5
31A
 10
2.01924
 20
-2.02161
 30
0.000000
  70
    32
  0
VERTEX
  8
0
  5
31B
 10
2.04175
 20
-2.02321
 30
0.000000
  70
    32
  0
VERTEX
  8
0
  5
31C
 10
2.06423
 20
-2.02482
 30
0.000000
  70
    32
  0
VERTEX
  8
0
  5
31D
 10
2.08667
 20
-2.02645
 30
0.000000
  70
    32
  0
VERTEX
  8
0
  5
31E
 10
2.10907
 20
-2.02809
 30
0.000000
  70
    32
  0
VERTEX
  8
0
  5
31F
 10
2.13144
 20
-2.02975
 30
0.000000
  70
    32
  0
VERTEX
  8
0
  5
320
 10
2.15376
 20
-2.03142
 30
0.000000
  70
    32
  0
VERTEX
  8
0
  5
321
 10
2.17604
 20
-2.03311
 30
0.000000
  70
    32
  0
VERTEX
  8
0
  5
322
 10
2.19827
 20
-2.03481
 30
0.000000
  70
    32
  0
VERTEX
  8
0
  5
323
 10
2.22046
 20
-2.03653
 30
0.000000
  70
    32
  0
VERTEX
  8
0
  5
324
 10
2.24261
 20
-2.03826
 30
0.000000
  70
    32
  0
VERTEX
  8
0
  5
325
 10
2.26471
 20
-2.04001
 30
0.000000
  70
    32
  0
VERTEX
  8
0
  5
326
 10
2.28676
 20
-2.04178
 30
0.000000
  70
    32
  0
VERTEX
  8
0
  5
327
 10
2.30876
 20
-2.04356
 30
0.000000
  70
    32
  0
VERTEX
  8
0
  5
328
 10
2.33072
 20
-2.04536
 30
0.000000
  70
    32
  0
VERTEX
  8
0
  5
329
 10
2.35262
 20
-2.04718
 30
0.000000
  70
    32
  0
VERTEX
  8
0
  5
32A
 10
2.37448
 20
-2.04901
 30
0.000000
  70
    32
  0
VERTEX
  8
0
  5
32B
 10
2.39629
 20
-2.05086
 30
0.000000
  70
    32
  0
VERTEX
  8
0
  5
32C
 10
2.41804
 20
-2.05273
 30
0.000000
  70
    32
  0
VERTEX
  8
0
  5
32D
 10
2.43975
 20
-2.05462
 30
0.000000
  70
    32
  0
VERTEX
  8
0
  5
32E
 10
2.46141
 20
-2.05652
 30
0.000000
  70
    32
  0
VERTEX
  8
0
  5
32F
 10
2.48301
 20
-2.05845
 30
0.000000
  70
    32
  0
VERTEX
  8
0
  5
330
 10
2.50457
 20
-2.06039
 30
0.000000
  70
    32
  0
VERTEX
  8
0
  5
331
 10
2.52608
 20
-2.06235
 30
0.000000
  70
    32
  0
VERTEX
  8
0
  5
332
 10
2.54754
 20
-2.06432
 30
0.000000
  70
    32
  0
VERTEX
  8
0
  5
333
 10
2.56894
 20
-2.06632
 30
0.000000
  70
    32
  0
VERTEX
  8
0
  5
334
 10
2.59030
 20
-2.06834
 30
0.000000
  70
    32
  0
VERTEX
  8
0
  5
335
 10
2.61162
 20
-2.07037
 30
0.000000
  70
    32
  0
VERTEX
  8
0
  5
336
 10
2.63288
 20
-2.07243
 30
0.000000
  70
    32
  0
VERTEX
  8
0
  5
337
 10
2.65410
 20
-2.07450
 30
0.000000
  70
    32
  0
VERTEX
  8
0
  5
338
 10
2.67527
 20
-2.07659
 30
0.000000
  70
    32
  0
VERTEX
  8
0
  5
339
 10
2.69640
 20
-2.07870
 30
0.000000
  70
    32
  0
VERTEX
  8
0
  5
33A
 10
2.71749
 20
-2.08083
 30
0.000000
  70
    32
  0
VERTEX
  8
0
  5
33B
 10
2.73853
 20
-2.08298
 30
0.000000
  70
    32
  0
VERTEX
  8
0
  5
33C
 10
2.75953
 20
-2.08515
 30
0.000000
  70
    32
  0
VERTEX
  8
0
  5
33D
 10
2.78049
 20
-2.08734
 30
0.000000
  70
    32
  0
VERTEX
  8
0
  5
33E
 10
2.80141
 20
-2.08955
 30
0.000000
  70
    32
  0
VERTEX
  8
0
  5
33F
 10
2.82230
 20
-2.09178
 30
0.000000
  70
    32
  0
VERTEX
  8
0
  5
340
 10
2.84315
 20
-2.09403
 30
0.000000
  70
    32
  0
VERTEX
  8
0
  5
341
 10
2.86397
 20
-2.09630
 30
0.000000
  70
    32
  0
VERTEX
  8
0
  5
342
 10
2.88476
 20
-2.09859
 30
0.000000
  70
    32
  0
VERTEX
  8
0
  5
343
 10
2.90551
 20
-2.10090
 30
0.000000
  70
    32
  0
VERTEX
  8
0
  5
344
 10
2.92624
 20
-2.10322
 30
0.000000
  70
    32
  0
VERTEX
  8
0
  5
345
 10
2.94694
 20
-2.10557
 30
0.000000
  70
    32
  0
VERTEX
  8
0
  5
346
 10
2.96762
 20
-2.10794
 30
0.000000
  70
    32
  0
VERTEX
  8
0
  5
347
 10
2.98828
 20
-2.11033
 30
0.000000
  70
    32
  0
VERTEX
  8
0
  5
348
 10
3.00892
 20
-2.11273
 30
0.000000
  70
    32
  0
VERTEX
  8
0
  5
349
 10
3.02955
 20
-2.11516
 30
0.000000
  70
    32
  0
VERTEX
  8
0
  5
34A
 10
3.05015
 20
-2.11761
 30
0.000000
  70
    32
  0
VERTEX
  8
0
  5
34B
 10
3.07075
 20
-2.12007
 30
0.000000
  70
    32
  0
VERTEX
  8
0
  5
34C
 10
3.09134
 20
-2.12256
 30
0.000000
  70
    32
  0
VERTEX
  8
0
  5
34D
 10
3.11193
 20
-2.12506
 30
0.000000
  70
    32
  0
VERTEX
  8
0
  5
34E
 10
3.13251
 20
-2.12759
 30
0.000000
  70
    32
  0
VERTEX
  8
0
  5
34F
 10
3.15309
 20
-2.13013
 30
0.000000
  70
    32
  0
VERTEX
  8
0
  5
350
 10
3.17368
 20
-2.13270
 30
0.000000
  70
    32
  0
VERTEX
  8
0
  5
351
 10
3.19427
 20
-2.13528
 30
0.000000
  70
    32
  0
VERTEX
  8
0
  5
352
 10
3.21487
 20
-2.13788
 30
0.000000
  70
    32
  0
VERTEX
  8
0
  5
353
 10
3.23549
 20
-2.14050
 30
0.000000
  70
    32
  0
VERTEX
  8
0
  5
354
 10
3.25612
 20
-2.14314
 30
0.000000
  70
    32
  0
VERTEX
  8
0
  5
355
 10
3.27677
 20
-2.14580
 30
0.000000
  70
    32
  0
VERTEX
  8
0
  5
356
 10
3.29744
 20
-2.14848
 30
0.000000
  70
    32
  0
VERTEX
  8
0
  5
357
 10
3.31814
 20
-2.15118
 30
0.000000
  70
    32
  0
VERTEX
  8
0
  5
358
 10
3.33886
 20
-2.15389
 30
0.000000
  70
    32
  0
VERTEX
  8
0
  5
359
 10
3.35961
 20
-2.15662
 30
0.000000
  70
    32
  0
VERTEX
  8
0
  5
35A
 10
3.38039
 20
-2.15937
 30
0.000000
  70
    32
  0
VERTEX
  8
0
  5
35B
 10
3.40119
 20
-2.16214
 30
0.000000
  70
    32
  0
VERTEX
  8
0
  5
35C
 10
3.42203
 20
-2.16493
 30
0.000000
  70
    32
  0
VERTEX
  8
0
  5
35D
 10
3.44290
 20
-2.16773
 30
0.000000
  70
    32
  0
VERTEX
  8
0
  5
35E
 10
3.46379
 20
-2.17055
 30
0.000000
  70
    32
  0
VERTEX
  8
0
  5
35F
 10
3.48472
 20
-2.17339
 30
0.000000
  70
    32
  0
VERTEX
  8
0
  5
360
 10
3.50567
 20
-2.17625
 30
0.000000
  70
    32
  0
VERTEX
  8
0
  5
361
 10
3.52666
 20
-2.17912
 30
0.000000
  70
    32
  0
VERTEX
  8
0
  5
362
 10
3.54766
 20
-2.18201
 30
0.000000
  70
    32
  0
VERTEX
  8
0
  5
363
 10
3.56870
 20
-2.18491
 30
0.000000
  70
    32
  0
VERTEX
  8
0
  5
364
 10
3.58975
 20
-2.18783
 30
0.000000
  70
    32
  0
VERTEX
  8
0
  5
365
 10
3.61083
 20
-2.19077
 30
0.000000
  70
    32
  0
VERTEX
  8
0
  5
366
 10
3.63193
 20
-2.19372
 30
0.000000
  70
    32
  0
VERTEX
  8
0
  5
367
 10
3.65304
 20
-2.19668
 30
0.000000
  70
    32
  0
VERTEX
  8
0
  5
368
 10
3.67416
 20
-2.19966
 30
0.000000
  70
    32
  0
VERTEX
  8
0
  5
369
 10
3.69529
 20
-2.20266
 30
0.000000
  70
    32
  0
VERTEX
  8
0
  5
36A
 10
3.71642
 20
-2.20567
 30
0.000000
  70
    32
  0
VERTEX
  8
0
  5
36B
 10
3.73755
 20
-2.20869
 30
0.000000
  70
    32
  0
VERTEX
  8
0
  5
36C
 10
3.75868
 20
-2.21172
 30
0.000000
  70
    32
  0
VERTEX
  8
0
  5
36D
 10
3.77980
 20
-2.21477
 30
0.000000
  70
    32
  0
VERTEX
  8
0
  5
36E
 10
3.80091
 20
-2.21783
 30
0.000000
  70
    32
  0
VERTEX
  8
0
  5
36F
 10
3.82199
 20
-2.22090
 30
0.000000
  70
    32
  0
VERTEX
  8
0
  5
370
 10
3.84305
 20
-2.22399
 30
0.000000
  70
    32
  0
VERTEX
  8
0
  5
371
 10
3.86408
 20
-2.22708
 30
0.000000
  70
    32
  0
VERTEX
  8
0
  5
372
 10
3.88507
 20
-2.23019
 30
0.000000
  70
    32
  0
VERTEX
  8
0
  5
373
 10
3.90601
 20
-2.23331
 30
0.000000
  70
    32
  0
VERTEX
  8
0
  5
374
 10
3.92690
 20
-2.23644
 30
0.000000
  70
    32
  0
VERTEX
  8
0
  5
375
 10
3.94773
 20
-2.23957
 30
0.000000
  70
    32
  0
VERTEX
  8
0
  5
376
 10
3.96850
 20
-2.24272
 30
0.000000
  70
    32
  0
VERTEX
  8
0
  5
377
 10
3.98919
 20
-2.24587
 30
0.000000
  70
    32
  0
VERTEX
  8
0
  5
378
 10
4.00979
 20
-2.24904
 30
0.000000
  70
    32
  0
VERTEX
  8
0
  5
379
 10
4.03030
 20
-2.25221
 30
0.000000
  70
    32
  0
VERTEX
  8
0
  5
37A
 10
4.05071
 20
-2.25539
 30
0.000000
  70
    32
  0
VERTEX
  8
0
  5
37B
 10
4.07101
 20
-2.25857
 30
0.000000
  70
    32
  0
VERTEX
  8
0
  5
37C
 10
4.09119
 20
-2.26176
 30
0.000000
  70
    32
  0
VERTEX
  8
0
  5
37D
 10
4.11124
 20
-2.26496
 30
0.000000
  70
    32
  0
VERTEX
  8
0
  5
37E
 10
4.13115
 20
-2.26816
 30
0.000000
  70
    32
  0
VERTEX
  8
0
  5
37F
 10
4.15091
 20
-2.27137
 30
0.000000
  70
    32
  0
VERTEX
  8
0
  5
380
 10
4.17051
 20
-2.27458
 30
0.000000
  70
    32
  0
VERTEX
  8
0
  5
381
 10
4.18993
 20
-2.27780
 30
0.000000
  70
    32
  0
VERTEX
  8
0
  5
382
 10
4.20917
 20
-2.28101
 30
0.000000
  70
    32
  0
VERTEX
  8
0
  5
383
 10
4.22821
 20
-2.28423
 30
0.000000
  70
    32
  0
VERTEX
  8
0
  5
384
 10
4.24706
 20
-2.28745
 30
0.000000
  70
    32
  0
VERTEX
  8
0
  5
385
 10
4.26569
 20
-2.29067
 30
0.000000
  70
    32
  0
VERTEX
  8
0
  5
386
 10
4.28410
 20
-2.29389
 30
0.000000
  70
    32
  0
VERTEX
  8
0
  5
387
 10
4.30229
 20
-2.29711
 30
0.000000
  70
    32
  0
VERTEX
  8
0
  5
388
 10
4.32025
 20
-2.30032
 30
0.000000
  70
    32
  0
VERTEX
  8
0
  5
389
 10
4.33796
 20
-2.30353
 30
0.000000
  70
    32
  0
VERTEX
  8
0
  5
38A
 10
4.35544
 20
-2.30673
 30
0.000000
  70
    32
  0
VERTEX
  8
0
  5
38B
 10
4.37267
 20
-2.30992
 30
0.000000
  70
    32
  0
VERTEX
  8
0
  5
38C
 10
4.38964
 20
-2.31310
 30
0.000000
  70
    32
  0
VERTEX
  8
0
  5
38D
 10
4.40637
 20
-2.31627
 30
0.000000
  70
    32
  0
VERTEX
  8
0
  5
38E
 10
4.42283
 20
-2.31942
 30
0.000000
  70
    32
  0
VERTEX
  8
0
  5
38F
 10
4.43904
 20
-2.32256
 30
0.000000
  70
    32
  0
VERTEX
  8
0
  5
390
 10
4.45499
 20
-2.32567
 30
0.000000
  70
    32
  0
VERTEX
  8
0
  5
391
 10
4.47068
 20
-2.32877
 30
0.000000
  70
    32
  0
VERTEX
  8
0
  5
392
 10
4.48611
 20
-2.33184
 30
0.000000
  70
    32
  0
VERTEX
  8
0
  5
393
 10
4.50129
 20
-2.33488
 30
0.000000
  70
    32
  0
VERTEX
  8
0
  5
394
 10
4.51621
 20
-2.33789
 30
0.000000
  70
    32
  0
VERTEX
  8
0
  5
395
 10
4.53087
 20
-2.34086
 30
0.000000
  70
    32
  0
VERTEX
  8
0
  5
396
 10
4.54528
 20
-2.34380
 30
0.000000
  70
    32
  0
VERTEX
  8
0
  5
397
 10
4.55945
 20
-2.34670
 30
0.000000
  70
    32
  0
VERTEX
  8
0
  5
398
 10
4.57337
 20
-2.34956
 30
0.000000
  70
    32
  0
VERTEX
  8
0
  5
399
 10
4.58706
 20
-2.35237
 30
0.000000
  70
    32
  0
VERTEX
  8
0
  5
39A
 10
4.60051
 20
-2.35512
 30
0.000000
  70
    32
  0
VERTEX
  8
0
  5
39B
 10
4.61375
 20
-2.35783
 30
0.000000
  70
    32
  0
VERTEX
  8
0
  5
39C
 10
4.62676
 20
-2.36047
 30
0.000000
  70
    32
  0
VERTEX
  8
0
  5
39D
 10
4.63956
 20
-2.36306
 30
0.000000
  70
    32
  0
VERTEX
  8
0
  5
39E
 10
4.65216
 20
-2.36557
 30
0.000000
  70
    32
  0
VERTEX
  8
0
  5
39F
 10
4.66457
 20
-2.36802
 30
0.000000
  70
    32
  0
VERTEX
  8
0
  5
3A0
 10
4.67680
 20
-2.37039
 30
0.000000
  70
    32
  0
VERTEX
  8
0
  5
3A1
 10
4.68885
 20
-2.37268
 30
0.000000
  70
    32
  0
VERTEX
  8
0
  5
3A2
 10
4.70074
 20
-2.37489
 30
0.000000
  70
    32
  0
VERTEX
  8
0
  5
3A3
 10
4.71249
 20
-2.37701
 30
0.000000
  70
    32
  0
VERTEX
  8
0
  5
3A4
 10
4.72410
 20
-2.37904
 30
0.000000
  70
    32
  0
VERTEX
  8
0
  5
3A5
 10
4.73558
 20
-2.38096
 30
0.000000
  70
    32
  0
VERTEX
  8
0
  5
3A6
 10
4.74696
 20
-2.38278
 30
0.000000
  70
    32
  0
VERTEX
  8
0
  5
3A7
 10
4.75824
 20
-2.38450
 30
0.000000
  70
    32
  0
VERTEX
  8
0
  5
3A8
 10
4.76944
 20
-2.38610
 30
0.000000
  70
    32
  0
VERTEX
  8
0
  5
3A9
 10
4.78058
 20
-2.38758
 30
0.000000
  70
    32
  0
VERTEX
  8
0
  5
3AA
 10
4.79167
 20
-2.38893
 30
0.000000
  70
    32
  0
VERTEX
  8
0
  5
3AB
 10
4.80272
 20
-2.39016
 30
0.000000
  70
    32
  0
VERTEX
  8
0
  5
3AC
 10
4.81374
 20
-2.39125
 30
0.000000
  70
    32
  0
VERTEX
  8
0
  5
3AD
 10
4.82475
 20
-2.39221
 30
0.000000
  70
    32
  0
VERTEX
  8
0
  5
3AE
 10
4.83576
 20
-2.39303
 30
0.000000
  70
    32
  0
VERTEX
  8
0
  5
3AF
 10
4.84677
 20
-2.39371
 30
0.000000
  70
    32
  0
VERTEX
  8
0
  5
3B0
 10
4.85780
 20
-2.39424
 30
0.000000
  70
    32
  0
VERTEX
  8
0
  5
3B1
 10
4.86884
 20
-2.39462
 30
0.000000
  70
    32
  0
VERTEX
  8
0
  5
3B2
 10
4.87992
 20
-2.39486
 30
0.000000
  70
    32
  0
VERTEX
  8
0
  5
3B3
 10
4.89103
 20
-2.39494
 30
0.000000
  70
    32
  0
VERTEX
  8
0
  5
3B4
 10
4.90219
 20
-2.39488
 30
0.000000
  70
    32
  0
VERTEX
  8
0
  5
3B5
 10
4.91338
 20
-2.39466
 30
0.000000
  70
    32
  0
VERTEX
  8
0
  5
3B6
 10
4.92463
 20
-2.39429
 30
0.000000
  70
    32
  0
VERTEX
  8
0
  5
3B7
 10
4.93593
 20
-2.39377
 30
0.000000
  70
    32
  0
VERTEX
  8
0
  5
3B8
 10
4.94728
 20
-2.39310
 30
0.000000
  70
    32
  0
VERTEX
  8
0
  5
3B9
 10
4.95868
 20
-2.39227
 30
0.000000
  70
    32
  0
VERTEX
  8
0
  5
3BA
 10
4.97015
 20
-2.39130
 30
0.000000
  70
    32
  0
VERTEX
  8
0
  5
3BB
 10
4.98166
 20
-2.39018
 30
0.000000
  70
    32
  0
VERTEX
  8
0
  5
3BC
 10
4.99323
 20
-2.38891
 30
0.000000
  70
    32
  0
VERTEX
  8
0
  5
3BD
 10
5.00485
 20
-2.38749
 30
0.000000
  70
    32
  0
VERTEX
  8
0
  5
3BE
 10
5.01651
 20
-2.38594
 30
0.000000
  70
    32
  0
VERTEX
  8
0
  5
3BF
 10
5.02822
 20
-2.38424
 30
0.000000
  70
    32
  0
VERTEX
  8
0
  5
3C0
 10
5.03997
 20
-2.38241
 30
0.000000
  70
    32
  0
VERTEX
  8
0
  5
3C1
 10
5.05175
 20
-2.38045
 30
0.000000
  70
    32
  0
VERTEX
  8
0
  5
3C2
 10
5.06355
 20
-2.37835
 30
0.000000
  70
    32
  0
VERTEX
  8
0
  5
3C3
 10
5.07538
 20
-2.37614
 30
0.000000
  70
    32
  0
VERTEX
  8
0
  5
3C4
 10
5.08721
 20
-2.37380
 30
0.000000
  70
    32
  0
VERTEX
  8
0
  5
3C5
 10
5.09905
 20
-2.37136
 30
0.000000
  70
    32
  0
VERTEX
  8
0
  5
3C6
 10
5.11088
 20
-2.36880
 30
0.000000
  70
    32
  0
VERTEX
  8
0
  5
3C7
 10
5.12269
 20
-2.36614
 30
0.000000
  70
    32
  0
VERTEX
  8
0
  5
3C8
 10
5.13447
 20
-2.36338
 30
0.000000
  70
    32
  0
VERTEX
  8
0
  5
3C9
 10
5.14620
 20
-2.36054
 30
0.000000
  70
    32
  0
VERTEX
  8
0
  5
3CA
 10
5.15789
 20
-2.35761
 30
0.000000
  70
    32
  0
VERTEX
  8
0
  5
3CB
 10
5.16950
 20
-2.35460
 30
0.000000
  70
    32
  0
VERTEX
  8
0
  5
3CC
 10
5.18105
 20
-2.35151
 30
0.000000
  70
    32
  0
VERTEX
  8
0
  5
3CD
 10
5.19251
 20
-2.34836
 30
0.000000
  70
    32
  0
VERTEX
  8
0
  5
3CE
 10
5.20389
 20
-2.34514
 30
0.000000
  70
    32
  0
VERTEX
  8
0
  5
3CF
 10
5.21517
 20
-2.34186
 30
0.000000
  70
    32
  0
VERTEX
  8
0
  5
3D0
 10
5.22634
 20
-2.33853
 30
0.000000
  70
    32
  0
VERTEX
  8
0
  5
3D1
 10
5.23741
 20
-2.33514
 30
0.000000
  70
    32
  0
VERTEX
  8
0
  5
3D2
 10
5.24836
 20
-2.33169
 30
0.000000
  70
    32
  0
VERTEX
  8
0
  5
3D3
 10
5.25920
 20
-2.32821
 30
0.000000
  70
    32
  0
VERTEX
  8
0
  5
3D4
 10
5.26991
 20
-2.32467
 30
0.000000
  70
    32
  0
VERTEX
  8
0
  5
3D5
 10
5.28051
 20
-2.32109
 30
0.000000
  70
    32
  0
VERTEX
  8
0
  5
3D6
 10
5.29097
 20
-2.31747
 30
0.000000
  70
    32
  0
VERTEX
  8
0
  5
3D7
 10
5.30131
 20
-2.31381
 30
0.000000
  70
    32
  0
VERTEX
  8
0
  5
3D8
 10
5.31153
 20
-2.31010
 30
0.000000
  70
    32
  0
VERTEX
  8
0
  5
3D9
 10
5.32162
 20
-2.30636
 30
0.000000
  70
    32
  0
VERTEX
  8
0
  5
3DA
 10
5.33158
 20
-2.30257
 30
0.000000
  70
    32
  0
VERTEX
  8
0
  5
3DB
 10
5.34143
 20
-2.29875
 30
0.000000
  70
    32
  0
VERTEX
  8
0
  5
3DC
 10
5.35115
 20
-2.29488
 30
0.000000
  70
    32
  0
VERTEX
  8
0
  5
3DD
 10
5.36076
 20
-2.29098
 30
0.000000
  70
    32
  0
VERTEX
  8
0
  5
3DE
 10
5.37025
 20
-2.28702
 30
0.000000
  70
    32
  0
VERTEX
  8
0
  5
3DF
 10
5.37964
 20
-2.28303
 30
0.000000
  70
    32
  0
VERTEX
  8
0
  5
3E0
 10
5.38893
 20
-2.27898
 30
0.000000
  70
    32
  0
VERTEX
  8
0
  5
3E1
 10
5.39813
 20
-2.27489
 30
0.000000
  70
    32
  0
VERTEX
  8
0
  5
3E2
 10
5.40723
 20
-2.27075
 30
0.000000
  70
    32
  0
VERTEX
  8
0
  5
3E3
 10
5.41626
 20
-2.26654
 30
0.000000
  70
    32
  0
VERTEX
  8
0
  5
3E4
 10
5.42523
 20
-2.26228
 30
0.000000
  70
    32
  0
VERTEX
  8
0
  5
3E5
 10
5.43413
 20
-2.25796
 30
0.000000
  70
    32
  0
VERTEX
  8
0
  5
3E6
 10
5.44297
 20
-2.25357
 30
0.000000
  70
    32
  0
VERTEX
  8
0
  5
3E7
 10
5.45178
 20
-2.24911
 30
0.000000
  70
    32
  0
VERTEX
  8
0
  5
3E8
 10
5.46054
 20
-2.24458
 30
0.000000
  70
    32
  0
VERTEX
  8
0
  5
3E9
 10
5.46928
 20
-2.23998
 30
0.000000
  70
    32
  0
VERTEX
  8
0
  5
3EA
 10
5.47800
 20
-2.23529
 30
0.000000
  70
    32
  0
VERTEX
  8
0
  5
3EB
 10
5.48669
 20
-2.23053
 30
0.000000
  70
    32
  0
VERTEX
  8
0
  5
3EC
 10
5.49538
 20
-2.22568
 30
0.000000
  70
    32
  0
VERTEX
  8
0
  5
3ED
 10
5.50405
 20
-2.22075
 30
0.000000
  70
    32
  0
VERTEX
  8
0
  5
3EE
 10
5.51273
 20
-2.21573
 30
0.000000
  70
    32
  0
VERTEX
  8
0
  5
3EF
 10
5.52140
 20
-2.21062
 30
0.000000
  70
    32
  0
VERTEX
  8
0
  5
3F0
 10
5.53009
 20
-2.20543
 30
0.000000
  70
    32
  0
VERTEX
  8
0
  5
3F1
 10
5.53877
 20
-2.20014
 30
0.000000
  70
    32
  0
VERTEX
  8
0
  5
3F2
 10
5.54747
 20
-2.19475
 30
0.000000
  70
    32
  0
VERTEX
  8
0
  5
3F3
 10
5.55619
 20
-2.18927
 30
0.000000
  70
    32
  0
VERTEX
  8
0
  5
3F4
 10
5.56491
 20
-2.18370
 30
0.000000
  70
    32
  0
VERTEX
  8
0
  5
3F5
 10
5.57365
 20
-2.17802
 30
0.000000
  70
    32
  0
VERTEX
  8
0
  5
3F6
 10
5.58241
 20
-2.17225
 30
0.000000
  70
    32
  0
VERTEX
  8
0
  5
3F7
 10
5.59119
 20
-2.16639
 30
0.000000
  70
    32
  0
VERTEX
  8
0
  5
3F8
 10
5.59998
 20
-2.16042
 30
0.000000
  70
    32
  0
VERTEX
  8
0
  5
3F9
 10
5.60878
 20
-2.15435
 30
0.000000
  70
    32
  0
VERTEX
  8
0
  5
3FA
 10
5.61760
 20
-2.14819
 30
0.000000
  70
    32
  0
VERTEX
  8
0
  5
3FB
 10
5.62642
 20
-2.14192
 30
0.000000
  70
    32
  0
VERTEX
  8
0
  5
3FC
 10
5.63526
 20
-2.13556
 30
0.000000
  70
    32
  0
VERTEX
  8
0
  5
3FD
 10
5.64411
 20
-2.12910
 30
0.000000
  70
    32
  0
VERTEX
  8
0
  5
3FE
 10
5.65295
 20
-2.12254
 30
0.000000
  70
    32
  0
VERTEX
  8
0
  5
3FF
 10
5.66180
 20
-2.11588
 30
0.000000
  70
    32
  0
VERTEX
  8
0
  5
400
 10
5.67064
 20
-2.10913
 30
0.000000
  70
    32
  0
VERTEX
  8
0
  5
401
 10
5.67947
 20
-2.10228
 30
0.000000
  70
    32
  0
VERTEX
  8
0
  5
402
 10
5.68829
 20
-2.09534
 30
0.000000
  70
    32
  0
VERTEX
  8
0
  5
403
 10
5.69709
 20
-2.08831
 30
0.000000
  70
    32
  0
VERTEX
  8
0
  5
404
 10
5.70587
 20
-2.08118
 30
0.000000
  70
    32
  0
VERTEX
  8
0
  5
405
 10
5.71462
 20
-2.07397
 30
0.000000
  70
    32
  0
VERTEX
  8
0
  5
406
 10
5.72335
 20
-2.06666
 30
0.000000
  70
    32
  0
VERTEX
  8
0
  5
407
 10
5.73205
 20
-2.05928
 30
0.000000
  70
    32
  0
VERTEX
  8
0
  5
408
 10
5.74071
 20
-2.05181
 30
0.000000
  70
    32
  0
VERTEX
  8
0
  5
409
 10
5.74933
 20
-2.04425
 30
0.000000
  70
    32
  0
VERTEX
  8
0
  5
40A
 10
5.75791
 20
-2.03662
 30
0.000000
  70
    32
  0
VERTEX
  8
0
  5
40B
 10
5.76645
 20
-2.02892
 30
0.000000
  70
    32
  0
VERTEX
  8
0
  5
40C
 10
5.77494
 20
-2.02114
 30
0.000000
  70
    32
  0
VERTEX
  8
0
  5
40D
 10
5.78338
 20
-2.01329
 30
0.000000
  70
    32
  0
VERTEX
  8
0
  5
40E
 10
5.79177
 20
-2.00538
 30
0.000000
  70
    32
  0
VERTEX
  8
0
  5
40F
 10
5.80010
 20
-1.99741
 30
0.000000
  70
    32
  0
VERTEX
  8
0
  5
410
 10
5.80838
 20
-1.98937
 30
0.000000
  70
    32
  0
VERTEX
  8
0
  5
411
 10
5.81660
 20
-1.98128
 30
0.000000
  70
    32
  0
VERTEX
  8
0
  5
412
 10
5.82476
 20
-1.97314
 30
0.000000
  70
    32
  0
VERTEX
  8
0
  5
413
 10
5.83285
 20
-1.96495
 30
0.000000
  70
    32
  0
VERTEX
  8
0
  5
414
 10
5.84088
 20
-1.95672
 30
0.000000
  70
    32
  0
VERTEX
  8
0
  5
415
 10
5.84885
 20
-1.94845
 30
0.000000
  70
    32
  0
VERTEX
  8
0
  5
416
 10
5.85674
 20
-1.94015
 30
0.000000
  70
    32
  0
VERTEX
  8
0
  5
417
 10
5.86457
 20
-1.93181
 30
0.000000
  70
    32
  0
VERTEX
  8
0
  5
418
 10
5.87233
 20
-1.92346
 30
0.000000
  70
    32
  0
VERTEX
  8
0
  5
419
 10
5.88001
 20
-1.91508
 30
0.000000
  70
    32
  0
VERTEX
  8
0
  5
41A
 10
5.88763
 20
-1.90669
 30
0.000000
  70
    32
  0
VERTEX
  8
0
  5
41B
 10
5.89516
 20
-1.89829
 30
0.000000
  70
    32
  0
VERTEX
  8
0
  5
41C
 10
5.90263
 20
-1.88989
 30
0.000000
  70
    32
  0
VERTEX
  8
0
  5
41D
 10
5.91002
 20
-1.88149
 30
0.000000
  70
    32
  0
VERTEX
  8
0
  5
41E
 10
5.91734
 20
-1.87309
 30
0.000000
  70
    32
  0
VERTEX
  8
0
  5
41F
 10
5.92458
 20
-1.86471
 30
0.000000
  70
    32
  0
VERTEX
  8
0
  5
420
 10
5.93174
 20
-1.85633
 30
0.000000
  70
    32
  0
VERTEX
  8
0
  5
421
 10
5.93883
 20
-1.84796
 30
0.000000
  70
    32
  0
VERTEX
  8
0
  5
422
 10
5.94585
 20
-1.83961
 30
0.000000
  70
    32
  0
VERTEX
  8
0
  5
423
 10
5.95279
 20
-1.83127
 30
0.000000
  70
    32
  0
VERTEX
  8
0
  5
424
 10
5.95965
 20
-1.82295
 30
0.000000
  70
    32
  0
VERTEX
  8
0
  5
425
 10
5.96644
 20
-1.81464
 30
0.000000
  70
    32
  0
VERTEX
  8
0
  5
426
 10
5.97316
 20
-1.80634
 30
0.000000
  70
    32
  0
VERTEX
  8
0
  5
427
 10
5.97981
 20
-1.79805
 30
0.000000
  70
    32
  0
VERTEX
  8
0
  5
428
 10
5.98638
 20
-1.78977
 30
0.000000
  70
    32
  0
VERTEX
  8
0
  5
429
 10
5.99289
 20
-1.78149
 30
0.000000
  70
    32
  0
VERTEX
  8
0
  5
42A
 10
5.99932
 20
-1.77321
 30
0.000000
  70
    32
  0
VERTEX
  8
0
  5
42B
 10
6.00569
 20
-1.76493
 30
0.000000
  70
    32
  0
VERTEX
  8
0
  5
42C
 10
6.01200
 20
-1.75665
 30
0.000000
  70
    32
  0
VERTEX
  8
0
  5
42D
 10
6.01824
 20
-1.74834
 30
0.000000
  70
    32
  0
VERTEX
  8
0
  5
42E
 10
6.02442
 20
-1.74002
 30
0.000000
  70
    32
  0
VERTEX
  8
0
  5
42F
 10
6.03054
 20
-1.73167
 30
0.000000
  70
    32
  0
VERTEX
  8
0
  5
430
 10
6.03660
 20
-1.72329
 30
0.000000
  70
    32
  0
VERTEX
  8
0
  5
431
 10
6.04261
 20
-1.71486
 30
0.000000
  70
    32
  0
VERTEX
  8
0
  5
432
 10
6.04857
 20
-1.70638
 30
0.000000
  70
    32
  0
VERTEX
  8
0
  5
433
 10
6.05448
 20
-1.69784
 30
0.000000
  70
    32
  0
VERTEX
  8
0
  5
434
 10
6.06034
 20
-1.68923
 30
0.000000
  70
    32
  0
VERTEX
  8
0
  5
435
 10
6.06616
 20
-1.68054
 30
0.000000
  70
    32
  0
VERTEX
  8
0
  5
436
 10
6.07194
 20
-1.67176
 30
0.000000
  70
    32
  0
VERTEX
  8
0
  5
437
 10
6.07768
 20
-1.66288
 30
0.000000
  70
    32
  0
VERTEX
  8
0
  5
438
 10
6.08339
 20
-1.65387
 30
0.000000
  70
    32
  0
VERTEX
  8
0
  5
439
 10
6.08907
 20
-1.64474
 30
0.000000
  70
    32
  0
VERTEX
  8
0
  5
43A
 10
6.09472
 20
-1.63547
 30
0.000000
  70
    32
  0
VERTEX
  8
0
  5
43B
 10
6.10035
 20
-1.62605
 30
0.000000
  70
    32
  0
VERTEX
  8
0
  5
43C
 10
6.10596
 20
-1.61646
 30
0.000000
  70
    32
  0
VERTEX
  8
0
  5
43D
 10
6.11156
 20
-1.60671
 30
0.000000
  70
    32
  0
VERTEX
  8
0
  5
43E
 10
6.11713
 20
-1.59678
 30
0.000000
  70
    32
  0
VERTEX
  8
0
  5
43F
 10
6.12270
 20
-1.58666
 30
0.000000
  70
    32
  0
VERTEX
  8
0
  5
440
 10
6.12825
 20
-1.57635
 30
0.000000
  70
    32
  0
VERTEX
  8
0
  5
441
 10
6.13380
 20
-1.56585
 30
0.000000
  70
    32
  0
VERTEX
  8
0
  5
442
 10
6.13934
 20
-1.55514
 30
0.000000
  70
    32
  0
VERTEX
  8
0
  5
443
 10
6.14487
 20
-1.54423
 30
0.000000
  70
    32
  0
VERTEX
  8
0
  5
444
 10
6.15040
 20
-1.53312
 30
0.000000
  70
    32
  0
VERTEX
  8
0
  5
445
 10
6.15592
 20
-1.52180
 30
0.000000
  70
    32
  0
VERTEX
  8
0
  5
446
 10
6.16144
 20
-1.51028
 30
0.000000
  70
    32
  0
VERTEX
  8
0
  5
447
 10
6.16696
 20
-1.49855
 30
0.000000
  70
    32
  0
VERTEX
  8
0
  5
448
 10
6.17247
 20
-1.48661
 30
0.000000
  70
    32
  0
VERTEX
  8
0
  5
449
 10
6.17798
 20
-1.47448
 30
0.000000
  70
    32
  0
VERTEX
  8
0
  5
44A
 10
6.18349
 20
-1.46215
 30
0.000000
  70
    32
  0
VERTEX
  8
0
  5
44B
 10
6.18900
 20
-1.44962
 30
0.000000
  70
    32
  0
VERTEX
  8
0
  5
44C
 10
6.19450
 20
-1.43691
 30
0.000000
  70
    32
  0
VERTEX
  8
0
  5
44D
 10
6.20000
 20
-1.42402
 30
0.000000
  70
    32
  0
VERTEX
  8
0
  5
44E
 10
6.20549
 20
-1.41095
 30
0.000000
  70
    32
  0
VERTEX
  8
0
  5
44F
 10
6.21097
 20
-1.39772
 30
0.000000
  70
    32
  0
VERTEX
  8
0
  5
450
 10
6.21645
 20
-1.38434
 30
0.000000
  70
    32
  0
VERTEX
  8
0
  5
451
 10
6.22191
 20
-1.37081
 30
0.000000
  70
    32
  0
VERTEX
  8
0
  5
452
 10
6.22737
 20
-1.35715
 30
0.000000
  70
    32
  0
VERTEX
  8
0
  5
453
 10
6.23280
 20
-1.34337
 30
0.000000
  70
    32
  0
VERTEX
  8
0
  5
454
 10
6.23822
 20
-1.32948
 30
0.000000
  70
    32
  0
VERTEX
  8
0
  5
455
 10
6.24362
 20
-1.31551
 30
0.000000
  70
    32
  0
VERTEX
  8
0
  5
456
 10
6.24900
 20
-1.30145
 30
0.000000
  70
    32
  0
VERTEX
  8
0
  5
457
 10
6.25435
 20
-1.28733
 30
0.000000
  70
    32
  0
VERTEX
  8
0
  5
458
 10
6.25967
 20
-1.27317
 30
0.000000
  70
    32
  0
VERTEX
  8
0
  5
459
 10
6.26496
 20
-1.25898
 30
0.000000
  70
    32
  0
VERTEX
  8
0
  5
45A
 10
6.27022
 20
-1.24478
 30
0.000000
  70
    32
  0
VERTEX
  8
0
  5
45B
 10
6.27543
 20
-1.23058
 30
0.000000
  70
    32
  0
VERTEX
  8
0
  5
45C
 10
6.28060
 20
-1.21639
 30
0.000000
  70
    32
  0
VERTEX
  8
0
  5
45D
 10
6.28573
 20
-1.20223
 30
0.000000
  70
    32
  0
VERTEX
  8
0
  5
45E
 10
6.29081
 20
-1.18811
 30
0.000000
  70
    32
  0
VERTEX
  8
0
  5
45F
 10
6.29584
 20
-1.17404
 30
0.000000
  70
    32
  0
VERTEX
  8
0
  5
460
 10
6.30082
 20
-1.16002
 30
0.000000
  70
    32
  0
VERTEX
  8
0
  5
461
 10
6.30574
 20
-1.14607
 30
0.000000
  70
    32
  0
VERTEX
  8
0
  5
462
 10
6.31060
 20
-1.13220
 30
0.000000
  70
    32
  0
VERTEX
  8
0
  5
463
 10
6.31540
 20
-1.11840
 30
0.000000
  70
    32
  0
VERTEX
  8
0
  5
464
 10
6.32014
 20
-1.10470
 30
0.000000
  70
    32
  0
VERTEX
  8
0
  5
465
 10
6.32481
 20
-1.09108
 30
0.000000
  70
    32
  0
VERTEX
  8
0
  5
466
 10
6.32941
 20
-1.07755
 30
0.000000
  70
    32
  0
VERTEX
  8
0
  5
467
 10
6.33394
 20
-1.06412
 30
0.000000
  70
    32
  0
VERTEX
  8
0
  5
468
 10
6.33840
 20
-1.05079
 30
0.000000
  70
    32
  0
VERTEX
  8
0
  5
469
 10
6.34278
 20
-1.03756
 30
0.000000
  70
    32
  0
VERTEX
  8
0
  5
46A
 10
6.34709
 20
-1.02443
 30
0.000000
  70
    32
  0
VERTEX
  8
0
  5
46B
 10
6.35132
 20
-1.01140
 30
0.000000
  70
    32
  0
VERTEX
  8
0
  5
46C
 10
6.35547
 20
-0.998464
 30
0.000000
  70
    32
  0
VERTEX
  8
0
  5
46D
 10
6.35953
 20
-0.985620
 30
0.000000
  70
    32
  0
VERTEX
  8
0
  5
46E
 10
6.36351
 20
-0.972865
 30
0.000000
  70
    32
  0
VERTEX
  8
0
  5
46F
 10
6.36741
 20
-0.960194
 30
0.000000
  70
    32
  0
VERTEX
  8
0
  5
470
 10
6.37121
 20
-0.947601
 30
0.000000
  70
    32
  0
VERTEX
  8
0
  5
471
 10
6.37493
 20
-0.935079
 30
0.000000
  70
    32
  0
VERTEX
  8
0
  5
472
 10
6.37856
 20
-0.922620
 30
0.000000
  70
    32
  0
VERTEX
  8
0
  5
473
 10
6.38209
 20
-0.910217
 30
0.000000
  70
    32
  0
VERTEX
  8
0
  5
474
 10
6.38553
 20
-0.897858
 30
0.000000
  70
    32
  0
VERTEX
  8
0
  5
475
 10
6.38888
 20
-0.885533
 30
0.000000
  70
    32
  0
VERTEX
  8
0
  5
476
 10
6.39213
 20
-0.873231
 30
0.000000
  70
    32
  0
VERTEX
  8
0
  5
477
 10
6.39528
 20
-0.860939
 30
0.000000
  70
    32
  0
VERTEX
  8
0
  5
478
 10
6.39834
 20
-0.848645
 30
0.000000
  70
    32
  0
VERTEX
  8
0
  5
479
 10
6.40130
 20
-0.836337
 30
0.000000
  70
    32
  0
VERTEX
  8
0
  5
47A
 10
6.40415
 20
-0.824006
 30
0.000000
  70
    32
  0
VERTEX
  8
0
  5
47B
 10
6.40691
 20
-0.811641
 30
0.000000
  70
    32
  0
VERTEX
  8
0
  5
47C
 10
6.40956
 20
-0.799235
 30
0.000000
  70
    32
  0
VERTEX
  8
0
  5
47D
 10
6.41211
 20
-0.786781
 30
0.000000
  70
    32
  0
VERTEX
  8
0
  5
47E
 10
6.41456
 20
-0.774273
 30
0.000000
  70
    32
  0
VERTEX
  8
0
  5
47F
 10
6.41691
 20
-0.761706
 30
0.000000
  70
    32
  0
VERTEX
  8
0
  5
480
 10
6.41915
 20
-0.749077
 30
0.000000
  70
    32
  0
VERTEX
  8
0
  5
481
 10
6.42129
 20
-0.736382
 30
0.000000
  70
    32
  0
VERTEX
  8
0
  5
482
 10
6.42333
 20
-0.723619
 30
0.000000
  70
    32
  0
VERTEX
  8
0
  5
483
 10
6.42526
 20
-0.710790
 30
0.000000
  70
    32
  0
VERTEX
  8
0
  5
484
 10
6.42709
 20
-0.697893
 30
0.000000
  70
    32
  0
VERTEX
  8
0
  5
485
 10
6.42882
 20
-0.684931
 30
0.000000
  70
    32
  0
VERTEX
  8
0
  5
486
 10
6.43044
 20
-0.671906
 30
0.000000
  70
    32
  0
VERTEX
  8
0
  5
487
 10
6.43196
 20
-0.658822
 30
0.000000
  70
    32
  0
VERTEX
  8
0
  5
488
 10
6.43337
 20
-0.645685
 30
0.000000
  70
    32
  0
VERTEX
  8
0
  5
489
 10
6.43469
 20
-0.632499
 30
0.000000
  70
    32
  0
VERTEX
  8
0
  5
48A
 10
6.43590
 20
-0.619272
 30
0.000000
  70
    32
  0
VERTEX
  8
0
  5
48B
 10
6.43701
 20
-0.606013
 30
0.000000
  70
    32
  0
VERTEX
  8
0
  5
48C
 10
6.43802
 20
-0.592730
 30
0.000000
  70
    32
  0
VERTEX
  8
0
  5
48D
 10
6.43893
 20
-0.579433
 30
0.000000
  70
    32
  0
VERTEX
  8
0
  5
48E
 10
6.43975
 20
-0.566134
 30
0.000000
  70
    32
  0
VERTEX
  8
0
  5
48F
 10
6.44046
 20
-0.552846
 30
0.000000
  70
    32
  0
VERTEX
  8
0
  5
490
 10
6.44108
 20
-0.539582
 30
0.000000
  70
    32
  0
VERTEX
  8
0
  5
491
 10
6.44161
 20
-0.526357
 30
0.000000
  70
    32
  0
VERTEX
  8
0
  5
492
 10
6.44204
 20
-0.513185
 30
0.000000
  70
    32
  0
VERTEX
  8
0
  5
493
 10
6.44237
 20
-0.500085
 30
0.000000
  70
    32
  0
VERTEX
  8
0
  5
494
 10
6.44262
 20
-0.487074
 30
0.000000
  70
    32
  0
VERTEX
  8
0
  5
495
 10
6.44278
 20
-0.474171
 30
0.000000
  70
    32
  0
VERTEX
  8
0
  5
496
 10
6.44285
 20
-0.461393
 30
0.000000
  70
    32
  0
VERTEX
  8
0
  5
497
 10
6.44283
 20
-0.448758
 30
0.000000
  70
    32
  0
VERTEX
  8
0
  5
498
 10
6.44272
 20
-0.436281
 30
0.000000
  70
    32
  0
VERTEX
  8
0
  5
499
 10
6.44254
 20
-0.423976
 30
0.000000
  70
    32
  0
VERTEX
  8
0
  5
49A
 10
6.44227
 20
-0.411856
 30
0.000000
  70
    32
  0
VERTEX
  8
0
  5
49B
 10
6.44192
 20
-0.399932
 30
0.000000
  70
    32
  0
VERTEX
  8
0
  5
49C
 10
6.44149
 20
-0.388214
 30
0.000000
  70
    32
  0
VERTEX
  8
0
  5
49D
 10
6.44098
 20
-0.376710
 30
0.000000
  70
    32
  0
VERTEX
  8
0
  5
49E
 10
6.44040
 20
-0.365427
 30
0.000000
  70
    32
  0
VERTEX
  8
0
  5
49F
 10
6.43974
 20
-0.354371
 30
0.000000
  70
    32
  0
VERTEX
  8
0
  5
4A0
 10
6.43901
 20
-0.343547
 30
0.000000
  70
    32
  0
VERTEX
  8
0
  5
4A1
 10
6.43821
 20
-0.332957
 30
0.000000
  70
    32
  0
VERTEX
  8
0
  5
4A2
 10
6.43733
 20
-0.322603
 30
0.000000
  70
    32
  0
VERTEX
  8
0
  5
4A3
 10
6.43638
 20
-0.312485
 30
0.000000
  70
    32
  0
VERTEX
  8
0
  5
4A4
 10
6.43537
 20
-0.302601
 30
0.000000
  70
    32
  0
VERTEX
  8
0
  5
4A5
 10
6.43429
 20
-0.292950
 30
0.000000
  70
    32
  0
VERTEX
  8
0
  5
4A6
 10
6.43314
 20
-0.283527
 30
0.000000
  70
    32
  0
VERTEX
  8
0
  5
4A7
 10
6.43192
 20
-0.274326
 30
0.000000
  70
    32
  0
VERTEX
  8
0
  5
4A8
 10
6.43065
 20
-0.265341
 30
0.000000
  70
    32
  0
VERTEX
  8
0
  5
4A9
 10
6.42930
 20
-0.256563
 30
0.000000
  70
    32
  0
VERTEX
  8
0
  5
4AA
 10
6.42790
 20
-0.247984
 30
0.000000
  70
    32
  0
VERTEX
  8
0
  5
4AB
 10
6.42644
 20
-0.239591
 30
0.000000
  70
    32
  0
VERTEX
  8
0
  5
4AC
 10
6.42491
 20
-0.231373
 30
0.000000
  70
    32
  0
VERTEX
  8
0
  5
4AD
 10
6.42333
 20
-0.223317
 30
0.000000
  70
    32
  0
VERTEX
  8
0
  5
4AE
 10
6.42169
 20
-0.215405
 30
0.000000
  70
    32
  0
VERTEX
  8
0
  5
4AF
 10
6.41999
 20
-0.207625
 30
0.000000
  70
    32
  0
VERTEX
  8
0
  5
4B0
 10
6.41824
 20
-0.199962
 30
0.000000
  70
    32
  0
VERTEX
  8
0
  5
4B1
 10
6.41643
 20
-0.192403
 30
0.000000
  70
    32
  0
VERTEX
  8
0
  5
4B2
 10
6.41457
 20
-0.184937
 30
0.000000
  70
    32
  0
VERTEX
  8
0
  5
4B3
 10
6.41265
 20
-0.177554
 30
0.000000
  70
    32
  0
VERTEX
  8
0
  5
4B4
 10
6.41067
 20
-0.170244
 30
0.000000
  70
    32
  0
VERTEX
  8
0
  5
4B5
 10
6.40864
 20
-0.163001
 30
0.000000
  70
    32
  0
VERTEX
  8
0
  5
4B6
 10
6.40656
 20
-0.155817
 30
0.000000
  70
    32
  0
VERTEX
  8
0
  5
4B7
 10
6.40442
 20
-0.148687
 30
0.000000
  70
    32
  0
VERTEX
  8
0
  5
4B8
 10
6.40222
 20
-0.141608
 30
0.000000
  70
    32
  0
VERTEX
  8
0
  5
4B9
 10
6.39996
 20
-0.134575
 30
0.000000
  70
    32
  0
VERTEX
  8
0
  5
4BA
 10
6.39764
 20
-0.127589
 30
0.000000
  70
    32
  0
VERTEX
  8
0
  5
4BB
 10
6.39526
 20
-0.120647
 30
0.000000
  70
    32
  0
VERTEX
  8
0
  5
4BC
 10
6.39282
 20
-0.113752
 30
0.000000
  70
    32
  0
VERTEX
  8
0
  5
4BD
 10
6.39032
 20
-0.106904
 30
0.000000
  70
    32
  0
VERTEX
  8
0
  5
4BE
 10
6.38775
 20
-0.100108
 30
0.000000
  70
    32
  0
VERTEX
  8
0
  5
4BF
 10
6.38511
 20
-0.0933675
 30
0.000000
  70
    32
  0
VERTEX
  8
0
  5
4C0
 10
6.38240
 20
-0.0866885
 30
0.000000
  70
    32
  0
VERTEX
  8
0
  5
4C1
 10
6.37962
 20
-0.0800778
 30
0.000000
  70
    32
  0
VERTEX
  8
0
  5
4C2
 10
6.37677
 20
-0.0735436
 30
0.000000
  70
    32
  0
VERTEX
  8
0
  5
4C3
 10
6.37384
 20
-0.0670951
 30
0.000000
  70
    32
  0
VERTEX
  8
0
  5
4C4
 10
6.37082
 20
-0.0607414
 30
0.000000
  70
    32
  0
VERTEX
  8
0
  5
4C5
 10
6.36772
 20
-0.0544917
 30
0.000000
  70
    32
  0
VERTEX
  8
0
  5
4C6
 10
6.36454
 20
-0.0483547
 30
0.000000
  70
    32
  0
VERTEX
  8
0
  5
4C7
 10
6.36127
 20
-0.0423391
 30
0.000000
  70
    32
  0
VERTEX
  8
0
  5
4C8
 10
6.35791
 20
-0.0364530
 30
0.000000
  70
    32
  0
VERTEX
  8
0
  5
4C9
 10
6.35446
 20
-0.0307046
 30
0.000000
  70
    32
  0
VERTEX
  8
0
  5
4CA
 10
6.35092
 20
-0.0251018
 30
0.000000
  70
    32
  0
VERTEX
  8
0
  5
4CB
 10
6.34729
 20
-0.0196521
 30
0.000000
  70
    32
  0
VERTEX
  8
0
  5
4CC
 10
6.34356
 20
-0.0143628
 30
0.000000
  70
    32
  0
VERTEX
  8
0
  5
4CD
 10
6.33974
 20
-0.00924121
 30
0.000000
  70
    32
  0
VERTEX
  8
0
  5
4CE
 10
6.33582
 20
-0.00429405
 30
0.000000
  70
    32
  0
VERTEX
  8
0
  5
4CF
 10
6.33181
 20
0.000472002
 30
0.000000
  70
    32
  0
VERTEX
  8
0
  5
4D0
 10
6.32770
 20
0.00505055
 30
0.000000
  70
    32
  0
VERTEX
  8
0
  5
4D1
 10
6.32349
 20
0.00943545
 30
0.000000
  70
    32
  0
VERTEX
  8
0
  5
4D2
 10
6.31920
 20
0.0136208
 30
0.000000
  70
    32
  0
VERTEX
  8
0
  5
4D3
 10
6.31480
 20
0.0176009
 30
0.000000
  70
    32
  0
VERTEX
  8
0
  5
4D4
 10
6.31032
 20
0.0213703
 30
0.000000
  70
    32
  0
VERTEX
  8
0
  5
4D5
 10
6.30574
 20
0.0249240
 30
0.000000
  70
    32
  0
VERTEX
  8
0
  5
4D6
 10
6.30107
 20
0.0282572
 30
0.000000
  70
    32
  0
VERTEX
  8
0
  5
4D7
 10
6.29631
 20
0.0313654
 30
0.000000
  70
    32
  0
VERTEX
  8
0
  5
4D8
 10
6.29146
 20
0.0342445
 30
0.000000
  70
    32
  0
VERTEX
  8
0
  5
4D9
 10
6.28651
 20
0.0368907
 30
0.000000
  70
    32
  0
VERTEX
  8
0
  5
4DA
 10
6.28148
 20
0.0393006
 30
0.000000
  70
    32
  0
VERTEX
  8
0
  5
4DB
 10
6.27636
 20
0.0414710
 30
0.000000
  70
    32
  0
VERTEX
  8
0
  5
4DC
 10
6.27115
 20
0.0433989
 30
0.000000
  70
    32
  0
VERTEX
  8
0
  5
4DD
 10
6.26585
 20
0.0450821
 30
0.000000
  70
    32
  0
VERTEX
  8
0
  5
4DE
 10
6.26046
 20
0.0465181
 30
0.000000
  70
    32
  0
VERTEX
  8
0
  5
4DF
 10
6.25498
 20
0.0477053
 30
0.000000
  70
    32
  0
VERTEX
  8
0
  5
4E0
 10
6.24942
 20
0.0486420
 30
0.000000
  70
    32
  0
VERTEX
  8
0
  5
4E1
 10
6.24376
 20
0.0493270
 30
0.000000
  70
    32
  0
VERTEX
  8
0
  5
4E2
 10
6.23802
 20
0.0497595
 30
0.000000
  70
    32
  0
VERTEX
  8
0
  5
4E3
 10
6.23219
 20
0.0499388
 30
0.000000
  70
    32
  0
VERTEX
  8
0
  5
4E4
 10
6.22626
 20
0.0498648
 30
0.000000
  70
    32
  0
VERTEX
  8
0
  5
4E5
 10
6.22025
 20
0.0495374
 30
0.000000
  70
    32
  0
VERTEX
  8
0
  5
4E6
 10
6.21415
 20
0.0489571
 30
0.000000
  70
    32
  0
VERTEX
  8
0
  5
4E7
 10
6.20796
 20
0.0481247
 30
0.000000
  70
    32
  0
VERTEX
  8
0
  5
4E8
 10
6.20168
 20
0.0470410
 30
0.000000
  70
    32
  0
VERTEX
  8
0
  5
4E9
 10
6.19530
 20
0.0457077
 30
0.000000
  70
    32
  0
VERTEX
  8
0
  5
4EA
 10
6.18884
 20
0.0441262
 30
0.000000
  70
    32
  0
VERTEX
  8
0
  5
4EB
 10
6.18228
 20
0.0422987
 30
0.000000
  70
    32
  0
VERTEX
  8
0
  5
4EC
 10
6.17562
 20
0.0402274
 30
0.000000
  70
    32
  0
VERTEX
  8
0
  5
4ED
 10
6.16888
 20
0.0379151
 30
0.000000
  70
    32
  0
VERTEX
  8
0
  5
4EE
 10
6.16203
 20
0.0353646
 30
0.000000
  70
    32
  0
VERTEX
  8
0
  5
4EF
 10
6.15509
 20
0.0325794
 30
0.000000
  70
    32
  0
VERTEX
  8
0
  5
4F0
 10
6.14806
 20
0.0295631
 30
0.000000
  70
    32
  0
VERTEX
  8
0
  5
4F1
 10
6.14092
 20
0.0263195
 30
0.000000
  70
    32
  0
VERTEX
  8
0
  5
4F2
 10
6.13369
 20
0.0228530
 30
0.000000
  70
    32
  0
VERTEX
  8
0
  5
4F3
 10
6.12636
 20
0.0191682
 30
0.000000
  70
    32
  0
VERTEX
  8
0
  5
4F4
 10
6.11892
 20
0.0152701
 30
0.000000
  70
    32
  0
VERTEX
  8
0
  5
4F5
 10
6.11138
 20
0.0111637
 30
0.000000
  70
    32
  0
VERTEX
  8
0
  5
4F6
 10
6.10373
 20
0.00685477
 30
0.000000
  70
    32
  0
VERTEX
  8
0
  5
4F7
 10
6.09598
 20
0.00234915
 30
0.000000
  70
    32
  0
VERTEX
  8
0
  5
4F8
 10
6.08812
 20
-0.00234696
 30
0.000000
  70
    32
  0
VERTEX
  8
0
  5
4F9
 10
6.08015
 20
-0.00722700
 30
0.000000
  70
    32
  0
VERTEX
  8
0
  5
4FA
 10
6.07207
 20
-0.0122841
 30
0.000000
  70
    32
  0
VERTEX
  8
0
  5
4FB
 10
6.06388
 20
-0.0175111
 30
0.000000
  70
    32
  0
VERTEX
  8
0
  5
4FC
 10
6.05557
 20
-0.0229005
 30
0.000000
  70
    32
  0
VERTEX
  8
0
  5
4FD
 10
6.04715
 20
-0.0284445
 30
0.000000
  70
    32
  0
VERTEX
  8
0
  5
4FE
 10
6.03861
 20
-0.0341349
 30
0.000000
  70
    32
  0
SEQEND
  8
0
  5
4FF
  0
POLYLINE
  8
0
  5
500
  66
     1
 10
0.000000
 20
0.000000
 30
0.000000
  70
     8
  0
VERTEX
  8
0
  5
501
 10
-1.87225
 20
0.642735
 30
0.000000
  70
    32
  0
VERTEX
  8
0
  5
502
 10
-1.88330
 20
0.625372
 30
0.000000
  70
    32
  0
VERTEX
  8
0
  5
503
 10
-1.89412
 20
0.608243
 30
0.000000
  70
    32
  0
VERTEX
  8
0
  5
504
 10
-1.90473
 20
0.591342
 30
0.000000
  70
    32
  0
VERTEX
  8
0
  5
505
 10
-1.91513
 20
0.574668
 30
0.000000
  70
    32
  0
VERTEX
  8
0
  5
506
 10
-1.92532
 20
0.558216
 30
0.000000
  70
    32
  0
VERTEX
  8
0
  5
507
 10
-1.93530
 20
0.541983
 30
0.000000
  70
    32
  0
VERTEX
  8
0
  5
508
 10
-1.94508
 20
0.525966
 30
0.000000
  70
    32
  0
VERTEX
  8
0
  5
509
 10
-1.95467
 20
0.510161
 30
0.000000
  70
    32
  0
VERTEX
  8
0
  5
50A
 10
-1.96407
 20
0.494565
 30
0.000000
  70
    32
  0
VERTEX
  8
0
  5
50B
 10
-1.97328
 20
0.479174
 30
0.000000
  70
    32
  0
VERTEX
  8
0
  5
50C
 10
-1.98230
 20
0.463985
 30
0.000000
  70
    32
  0
VERTEX
  8
0
  5
50D
 10
-1.99115
 20
0.448994
 30
0.000000
  70
    32
  0
VERTEX
  8
0
  5
50E
 10
-1.99982
 20
0.434199
 30
0.000000
  70
    32
  0
VERTEX
  8
0
  5
50F
 10
-2.00832
 20
0.419596
 30
0.000000
  70
    32
  0
VERTEX
  8
0
  5
510
 10
-2.01665
 20
0.405182
 30
0.000000
  70
    32
  0
VERTEX
  8
0
  5
511
 10
-2.02482
 20
0.390953
 30
0.000000
  70
    32
  0
VERTEX
  8
0
  5
512
 10
-2.03283
 20
0.376906
 30
0.000000
  70
    32
  0
VERTEX
  8
0
  5
513
 10
-2.04068
 20
0.363039
 30
0.000000
  70
    32
  0
VERTEX
  8
0
  5
514
 10
-2.04838
 20
0.349347
 30
0.000000
  70
    32
  0
VERTEX
  8
0
  5
515
 10
-2.05593
 20
0.335828
 30
0.000000
  70
    32
  0
VERTEX
  8
0
  5
516
 10
-2.06334
 20
0.322478
 30
0.000000
  70
    32
  0
VERTEX
  8
0
  5
517
 10
-2.07060
 20
0.309295
 30
0.000000
  70
    32
  0
VERTEX
  8
0
  5
518
 10
-2.07773
 20
0.296275
 30
0.000000
  70
    32
  0
VERTEX
  8
0
  5
519
 10
-2.08472
 20
0.283415
 30
0.000000
  70
    32
  0
VERTEX
  8
0
  5
51A
 10
-2.09158
 20
0.270712
 30
0.000000
  70
    32
  0
VERTEX
  8
0
  5
51B
 10
-2.09831
 20
0.258163
 30
0.000000
  70
    32
  0
VERTEX
  8
0
  5
51C
 10
-2.10491
 20
0.245766
 30
0.000000
  70
    32
  0
VERTEX
  8
0
  5
51D
 10
-2.11140
 20
0.233516
 30
0.000000
  70
    32
  0
VERTEX
  8
0
  5
51E
 10
-2.11777
 20
0.221412
 30
0.000000
  70
    32
  0
VERTEX
  8
0
  5
51F
 10
-2.12402
 20
0.209450
 30
0.000000
  70
    32
  0
VERTEX
  8
0
  5
520
 10
-2.13016
 20
0.197627
 30
0.000000
  70
    32
  0
VERTEX
  8
0
  5
521
 10
-2.13619
 20
0.185940
 30
0.000000
  70
    32
  0
VERTEX
  8
0
  5
522
 10
-2.14211
 20
0.174387
 30
0.000000
  70
    32
  0
VERTEX
  8
0
  5
523
 10
-2.14794
 20
0.162964
 30
0.000000
  70
    32
  0
VERTEX
  8
0
  5
524
 10
-2.15366
 20
0.151668
 30
0.000000
  70
    32
  0
VERTEX
  8
0
  5
525
 10
-2.15929
 20
0.140498
 30
0.000000
  70
    32
  0
VERTEX
  8
0
  5
526
 10
-2.16482
 20
0.129450
 30
0.000000
  70
    32
  0
VERTEX
  8
0
  5
527
 10
-2.17026
 20
0.118521
 30
0.000000
  70
    32
  0
VERTEX
  8
0
  5
528
 10
-2.17561
 20
0.107708
 30
0.000000
  70
    32
  0
VERTEX
  8
0
  5
529
 10
-2.18087
 20
0.0970097
 30
0.000000
  70
    32
  0
VERTEX
  8
0
  5
52A
 10
-2.18606
 20
0.0864220
 30
0.000000
  70
    32
  0
VERTEX
  8
0
  5
52B
 10
-2.19116
 20
0.0759427
 30
0.000000
  70
    32
  0
VERTEX
  8
0
  5
52C
 10
-2.19618
 20
0.0655691
 30
0.000000
  70
    32
  0
VERTEX
  8
0
  5
52D
 10
-2.20113
 20
0.0552985
 30
0.000000
  70
    32
  0
VERTEX
  8
0
  5
52E
 10
-2.20601
 20
0.0451283
 30
0.000000
  70
    32
  0
VERTEX
  8
0
  5
52F
 10
-2.21081
 20
0.0350560
 30
0.000000
  70
    32
  0
VERTEX
  8
0
  5
530
 10
-2.21555
 20
0.0250788
 30
0.000000
  70
    32
  0
VERTEX
  8
0
  5
531
 10
-2.22022
 20
0.0151943
 30
0.000000
  70
    32
  0
VERTEX
  8
0
  5
532
 10
-2.22483
 20
0.00539983
 30
0.000000
  70
    32
  0
VERTEX
  8
0
  5
533
 10
-2.22938
 20
-0.00430703
 30
0.000000
  70
    32
  0
VERTEX
  8
0
  5
534
 10
-2.23386
 20
-0.0139288
 30
0.000000
  70
    32
  0
VERTEX
  8
0
  5
535
 10
-2.23829
 20
-0.0234680
 30
0.000000
  70
    32
  0
VERTEX
  8
0
  5
536
 10
-2.24267
 20
-0.0329270
 30
0.000000
  70
    32
  0
VERTEX
  8
0
  5
537
 10
-2.24699
 20
-0.0423084
 30
0.000000
  70
    32
  0
VERTEX
  8
0
  5
538
 10
-2.25127
 20
-0.0516144
 30
0.000000
  70
    32
  0
VERTEX
  8
0
  5
539
 10
-2.25549
 20
-0.0608475
 30
0.000000
  70
    32
  0
VERTEX
  8
0
  5
53A
 10
-2.25967
 20
-0.0700101
 30
0.000000
  70
    32
  0
VERTEX
  8
0
  5
53B
 10
-2.26380
 20
-0.0791046
 30
0.000000
  70
    32
  0
VERTEX
  8
0
  5
53C
 10
-2.26789
 20
-0.0881332
 30
0.000000
  70
    32
  0
VERTEX
  8
0
  5
53D
 10
-2.27193
 20
-0.0970982
 30
0.000000
  70
    32
  0
VERTEX
  8
0
  5
53E
 10
-2.27594
 20
-0.106002
 30
0.000000
  70
    32
  0
VERTEX
  8
0
  5
53F
 10
-2.27991
 20
-0.114847
 30
0.000000
  70
    32
  0
VERTEX
  8
0
  5
540
 10
-2.28384
 20
-0.123635
 30
0.000000
  70
    32
  0
VERTEX
  8
0
  5
541
 10
-2.28774
 20
-0.132368
 30
0.000000
  70
    32
  0
VERTEX
  8
0
  5
542
 10
-2.29161
 20
-0.141049
 30
0.000000
  70
    32
  0
VERTEX
  8
0
  5
543
 10
-2.29544
 20
-0.149680
 30
0.000000
  70
    32
  0
VERTEX
  8
0
  5
544
 10
-2.29925
 20
-0.158263
 30
0.000000
  70
    32
  0
VERTEX
  8
0
  5
545
 10
-2.30302
 20
-0.166800
 30
0.000000
  70
    32
  0
VERTEX
  8
0
  5
546
 10
-2.30677
 20
-0.175294
 30
0.000000
  70
    32
  0
VERTEX
  8
0
  5
547
 10
-2.31049
 20
-0.183745
 30
0.000000
  70
    32
  0
VERTEX
  8
0
  5
548
 10
-2.31419
 20
-0.192157
 30
0.000000
  70
    32
  0
VERTEX
  8
0
  5
549
 10
-2.31786
 20
-0.200532
 30
0.000000
  70
    32
  0
VERTEX
  8
0
  5
54A
 10
-2.32151
 20
-0.208871
 30
0.000000
  70
    32
  0
VERTEX
  8
0
  5
54B
 10
-2.32514
 20
-0.217176
 30
0.000000
  70
    32
  0
VERTEX
  8
0
  5
54C
 10
-2.32875
 20
-0.225450
 30
0.000000
  70
    32
  0
VERTEX
  8
0
  5
54D
 10
-2.33234
 20
-0.233694
 30
0.000000
  70
    32
  0
VERTEX
  8
0
  5
54E
 10
-2.33591
 20
-0.241910
 30
0.000000
  70
    32
  0
VERTEX
  8
0
  5
54F
 10
-2.33946
 20
-0.250101
 30
0.000000
  70
    32
  0
VERTEX
  8
0
  5
550
 10
-2.34300
 20
-0.258268
 30
0.000000
  70
    32
  0
VERTEX
  8
0
  5
551
 10
-2.34652
 20
-0.266413
 30
0.000000
  70
    32
  0
VERTEX
  8
0
  5
552
 10
-2.35003
 20
-0.274538
 30
0.000000
  70
    32
  0
VERTEX
  8
0
  5
553
 10
-2.35352
 20
-0.282644
 30
0.000000
  70
    32
  0
VERTEX
  8
0
  5
554
 10
-2.35700
 20
-0.290734
 30
0.000000
  70
    32
  0
VERTEX
  8
0
  5
555
 10
-2.36047
 20
-0.298810
 30
0.000000
  70
    32
  0
VERTEX
  8
0
  5
556
 10
-2.36393
 20
-0.306872
 30
0.000000
  70
    32
  0
VERTEX
  8
0
  5
557
 10
-2.36737
 20
-0.314923
 30
0.000000
  70
    32
  0
VERTEX
  8
0
  5
558
 10
-2.37081
 20
-0.322965
 30
0.000000
  70
    32
  0
VERTEX
  8
0
  5
559
 10
-2.37423
 20
-0.330999
 30
0.000000
  70
    32
  0
VERTEX
  8
0
  5
55A
 10
-2.37764
 20
-0.339027
 30
0.000000
  70
    32
  0
VERTEX
  8
0
  5
55B
 10
-2.38105
 20
-0.347050
 30
0.000000
  70
    32
  0
VERTEX
  8
0
  5
55C
 10
-2.38444
 20
-0.355071
 30
0.000000
  70
    32
  0
VERTEX
  8
0
  5
55D
 10
-2.38783
 20
-0.363090
 30
0.000000
  70
    32
  0
VERTEX
  8
0
  5
55E
 10
-2.39121
 20
-0.371110
 30
0.000000
  70
    32
  0
VERTEX
  8
0
  5
55F
 10
-2.39457
 20
-0.379132
 30
0.000000
  70
    32
  0
VERTEX
  8
0
  5
560
 10
-2.39793
 20
-0.387157
 30
0.000000
  70
    32
  0
VERTEX
  8
0
  5
561
 10
-2.40129
 20
-0.395187
 30
0.000000
  70
    32
  0
VERTEX
  8
0
  5
562
 10
-2.40463
 20
-0.403224
 30
0.000000
  70
    32
  0
VERTEX
  8
0
  5
563
 10
-2.40797
 20
-0.411269
 30
0.000000
  70
    32
  0
VERTEX
  8
0
  5
564
 10
-2.41129
 20
-0.419323
 30
0.000000
  70
    32
  0
VERTEX
  8
0
  5
565
 10
-2.41461
 20
-0.427389
 30
0.000000
  70
    32
  0
VERTEX
  8
0
  5
566
 10
-2.41792
 20
-0.435466
 30
0.000000
  70
    32
  0
VERTEX
  8
0
  5
567
 10
-2.42123
 20
-0.443558
 30
0.000000
  70
    32
  0
VERTEX
  8
0
  5
568
 10
-2.42452
 20
-0.451664
 30
0.000000
  70
    32
  0
VERTEX
  8
0
  5
569
 10
-2.42780
 20
-0.459787
 30
0.000000
  70
    32
  0
VERTEX
  8
0
  5
56A
 10
-2.43108
 20
-0.467928
 30
0.000000
  70
    32
  0
VERTEX
  8
0
  5
56B
 10
-2.43435
 20
-0.476088
 30
0.000000
  70
    32
  0
VERTEX
  8
0
  5
56C
 10
-2.43760
 20
-0.484268
 30
0.000000
  70
    32
  0
VERTEX
  8
0
  5
56D
 10
-2.44085
 20
-0.492470
 30
0.000000
  70
    32
  0
VERTEX
  8
0
  5
56E
 10
-2.44408
 20
-0.500695
 30
0.000000
  70
    32
  0
VERTEX
  8
0
  5
56F
 10
-2.44730
 20
-0.508944
 30
0.000000
  70
    32
  0
VERTEX
  8
0
  5
570
 10
-2.45051
 20
-0.517219
 30
0.000000
  70
    32
  0
VERTEX
  8
0
  5
571
 10
-2.45371
 20
-0.525520
 30
0.000000
  70
    32
  0
VERTEX
  8
0
  5
572
 10
-2.45689
 20
-0.533848
 30
0.000000
  70
    32
  0
VERTEX
  8
0
  5
573
 10
-2.46006
 20
-0.542206
 30
0.000000
  70
    32
  0
VERTEX
  8
0
  5
574
 10
-2.46322
 20
-0.550593
 30
0.000000
  70
    32
  0
VERTEX
  8
0
  5
575
 10
-2.46635
 20
-0.559012
 30
0.000000
  70
    32
  0
VERTEX
  8
0
  5
576
 10
-2.46948
 20
-0.567462
 30
0.000000
  70
    32
  0
VERTEX
  8
0
  5
577
 10
-2.47258
 20
-0.575946
 30
0.000000
  70
    32
  0
VERTEX
  8
0
  5
578
 10
-2.47567
 20
-0.584464
 30
0.000000
  70
    32
  0
VERTEX
  8
0
  5
579
 10
-2.47873
 20
-0.593017
 30
0.000000
  70
    32
  0
VERTEX
  8
0
  5
57A
 10
-2.48178
 20
-0.601606
 30
0.000000
  70
    32
  0
VERTEX
  8
0
  5
57B
 10
-2.48480
 20
-0.610232
 30
0.000000
  70
    32
  0
VERTEX
  8
0
  5
57C
 10
-2.48780
 20
-0.618896
 30
0.000000
  70
    32
  0
VERTEX
  8
0
  5
57D
 10
-2.49078
 20
-0.627600
 30
0.000000
  70
    32
  0
VERTEX
  8
0
  5
57E
 10
-2.49373
 20
-0.636343
 30
0.000000
  70
    32
  0
VERTEX
  8
0
  5
57F
 10
-2.49665
 20
-0.645127
 30
0.000000
  70
    32
  0
VERTEX
  8
0
  5
580
 10
-2.49955
 20
-0.653953
 30
0.000000
  70
    32
  0
VERTEX
  8
0
  5
581
 10
-2.50242
 20
-0.662821
 30
0.000000
  70
    32
  0
VERTEX
  8
0
  5
582
 10
-2.50525
 20
-0.671732
 30
0.000000
  70
    32
  0
VERTEX
  8
0
  5
583
 10
-2.50806
 20
-0.680688
 30
0.000000
  70
    32
  0
VERTEX
  8
0
  5
584
 10
-2.51083
 20
-0.689687
 30
0.000000
  70
    32
  0
VERTEX
  8
0
  5
585
 10
-2.51356
 20
-0.698732
 30
0.000000
  70
    32
  0
VERTEX
  8
0
  5
586
 10
-2.51626
 20
-0.707822
 30
0.000000
  70
    32
  0
VERTEX
  8
0
  5
587
 10
-2.51892
 20
-0.716957
 30
0.000000
  70
    32
  0
VERTEX
  8
0
  5
588
 10
-2.52154
 20
-0.726136
 30
0.000000
  70
    32
  0
VERTEX
  8
0
  5
589
 10
-2.52413
 20
-0.735360
 30
0.000000
  70
    32
  0
VERTEX
  8
0
  5
58A
 10
-2.52667
 20
-0.744628
 30
0.000000
  70
    32
  0
VERTEX
  8
0
  5
58B
 10
-2.52917
 20
-0.753939
 30
0.000000
  70
    32
  0
VERTEX
  8
0
  5
58C
 10
-2.53162
 20
-0.763292
 30
0.000000
  70
    32
  0
VERTEX
  8
0
  5
58D
 10
-2.53403
 20
-0.772686
 30
0.000000
  70
    32
  0
VERTEX
  8
0
  5
58E
 10
-2.53640
 20
-0.782120
 30
0.000000
  70
    32
  0
VERTEX
  8
0
  5
58F
 10
-2.53872
 20
-0.791593
 30
0.000000
  70
    32
  0
VERTEX
  8
0
  5
590
 10
-2.54099
 20
-0.801101
 30
0.000000
  70
    32
  0
VERTEX
  8
0
  5
591
 10
-2.54322
 20
-0.810645
 30
0.000000
  70
    32
  0
VERTEX
  8
0
  5
592
 10
-2.54539
 20
-0.820221
 30
0.000000
  70
    32
  0
VERTEX
  8
0
  5
593
 10
-2.54752
 20
-0.829828
 30
0.000000
  70
    32
  0
VERTEX
  8
0
  5
594
 10
-2.54960
 20
-0.839463
 30
0.000000
  70
    32
  0
VERTEX
  8
0
  5
595
 10
-2.55162
 20
-0.849123
 30
0.000000
  70
    32
  0
VERTEX
  8
0
  5
596
 10
-2.55359
 20
-0.858806
 30
0.000000
  70
    32
  0
VERTEX
  8
0
  5
597
 10
-2.55552
 20
-0.868509
 30
0.000000
  70
    32
  0
VERTEX
  8
0
  5
598
 10
-2.55738
 20
-0.878229
 30
0.000000
  70
    32
  0
VERTEX
  8
0
  5
599
 10
-2.55920
 20
-0.887962
 30
0.000000
  70
    32
  0
VERTEX
  8
0
  5
59A
 10
-2.56096
 20
-0.897705
 30
0.000000
  70
    32
  0
VERTEX
  8
0
  5
59B
 10
-2.56267
 20
-0.907454
 30
0.000000
  70
    32
  0
VERTEX
  8
0
  5
59C
 10
-2.56432
 20
-0.917205
 30
0.000000
  70
    32
  0
VERTEX
  8
0
  5
59D
 10
-2.56591
 20
-0.926955
 30
0.000000
  70
    32
  0
VERTEX
  8
0
  5
59E
 10
-2.56745
 20
-0.936698
 30
0.000000
  70
    32
  0
VERTEX
  8
0
  5
59F
 10
-2.56894
 20
-0.946431
 30
0.000000
  70
    32
  0
VERTEX
  8
0
  5
5A0
 10
-2.57037
 20
-0.956150
 30
0.000000
  70
    32
  0
VERTEX
  8
0
  5
5A1
 10
-2.57174
 20
-0.965848
 30
0.000000
  70
    32
  0
VERTEX
  8
0
  5
5A2
 10
-2.57306
 20
-0.975522
 30
0.000000
  70
    32
  0
VERTEX
  8
0
  5
5A3
 10
-2.57432
 20
-0.985165
 30
0.000000
  70
    32
  0
VERTEX
  8
0
  5
5A4
 10
-2.57552
 20
-0.994774
 30
0.000000
  70
    32
  0
VERTEX
  8
0
  5
5A5
 10
-2.57667
 20
-1.00434
 30
0.000000
  70
    32
  0
VERTEX
  8
0
  5
5A6
 10
-2.57776
 20
-1.01386
 30
0.000000
  70
    32
  0
VERTEX
  8
0
  5
5A7
 10
-2.57879
 20
-1.02333
 30
0.000000
  70
    32
  0
VERTEX
  8
0
  5
5A8
 10
-2.57977
 20
-1.03274
 30
0.000000
  70
    32
  0
VERTEX
  8
0
  5
5A9
 10
-2.58069
 20
-1.04209
 30
0.000000
  70
    32
  0
VERTEX
  8
0
  5
5AA
 10
-2.58155
 20
-1.05136
 30
0.000000
  70
    32
  0
VERTEX
  8
0
  5
5AB
 10
-2.58236
 20
-1.06056
 30
0.000000
  70
    32
  0
VERTEX
  8
0
  5
5AC
 10
-2.58311
 20
-1.06968
 30
0.000000
  70
    32
  0
VERTEX
  8
0
  5
5AD
 10
-2.58381
 20
-1.07871
 30
0.000000
  70
    32
  0
VERTEX
  8
0
  5
5AE
 10
-2.58445
 20
-1.08765
 30
0.000000
  70
    32
  0
VERTEX
  8
0
  5
5AF
 10
-2.58504
 20
-1.09650
 30
0.000000
  70
    32
  0
VERTEX
  8
0
  5
5B0
 10
-2.58557
 20
-1.10524
 30
0.000000
  70
    32
  0
VERTEX
  8
0
  5
5B1
 10
-2.58604
 20
-1.11388
 30
0.000000
  70
    32
  0
VERTEX
  8
0
  5
5B2
 10
-2.58646
 20
-1.12242
 30
0.000000
  70
    32
  0
VERTEX
  8
0
  5
5B3
 10
-2.58683
 20
-1.13085
 30
0.000000
  70
    32
  0
VERTEX
  8
0
  5
5B4
 10
-2.58714
 20
-1.13916
 30
0.000000
  70
    32
  0
VERTEX
  8
0
  5
5B5
 10
-2.58740
 20
-1.14736
 30
0.000000
  70
    32
  0
VERTEX
  8
0
  5
5B6
 10
-2.58760
 20
-1.15545
 30
0.000000
  70
    32
  0
VERTEX
  8
0
  5
5B7
 10
-2.58775
 20
-1.16342
 30
0.000000
  70
    32
  0
VERTEX
  8
0
  5
5B8
 10
-2.58785
 20
-1.17127
 30
0.000000
  70
    32
  0
VERTEX
  8
0
  5
5B9
 10
-2.58790
 20
-1.17901
 30
0.000000
  70
    32
  0
VERTEX
  8
0
  5
5BA
 10
-2.58789
 20
-1.18662
 30
0.000000
  70
    32
  0
VERTEX
  8
0
  5
5BB
 10
-2.58783
 20
-1.19412
 30
0.000000
  70
    32
  0
VERTEX
  8
0
  5
5BC
 10
-2.58772
 20
-1.20150
 30
0.000000
  70
    32
  0
VERTEX
  8
0
  5
5BD
 10
-2.58756
 20
-1.20876
 30
0.000000
  70
    32
  0
VERTEX
  8
0
  5
5BE
 10
-2.58734
 20
-1.21591
 30
0.000000
  70
    32
  0
VERTEX
  8
0
  5
5BF
 10
-2.58708
 20
-1.22294
 30
0.000000
  70
    32
  0
VERTEX
  8
0
  5
5C0
 10
-2.58676
 20
-1.22985
 30
0.000000
  70
    32
  0
VERTEX
  8
0
  5
5C1
 10
-2.58639
 20
-1.23666
 30
0.000000
  70
    32
  0
VERTEX
  8
0
  5
5C2
 10
-2.58598
 20
-1.24335
 30
0.000000
  70
    32
  0
VERTEX
  8
0
  5
5C3
 10
-2.58551
 20
-1.24994
 30
0.000000
  70
    32
  0
VERTEX
  8
0
  5
5C4
 10
-2.58500
 20
-1.25643
 30
0.000000
  70
    32
  0
VERTEX
  8
0
  5
5C5
 10
-2.58444
 20
-1.26282
 30
0.000000
  70
    32
  0
VERTEX
  8
0
  5
5C6
 10
-2.58383
 20
-1.26911
 30
0.000000
  70
    32
  0
VERTEX
  8
0
  5
5C7
 10
-2.58317
 20
-1.27532
 30
0.000000
  70
    32
  0
VERTEX
  8
0
  5
5C8
 10
-2.58247
 20
-1.28143
 30
0.000000
  70
    32
  0
VERTEX
  8
0
  5
5C9
 10
-2.58172
 20
-1.28747
 30
0.000000
  70
    32
  0
VERTEX
  8
0
  5
5CA
 10
-2.58092
 20
-1.29343
 30
0.000000
  70
    32
  0
VERTEX
  8
0
  5
5CB
 10
-2.58008
 20
-1.29932
 30
0.000000
  70
    32
  0
VERTEX
  8
0
  5
5CC
 10
-2.57919
 20
-1.30514
 30
0.000000
  70
    32
  0
VERTEX
  8
0
  5
5CD
 10
-2.57826
 20
-1.31091
 30
0.000000
  70
    32
  0
VERTEX
  8
0
  5
5CE
 10
-2.57728
 20
-1.31662
 30
0.000000
  70
    32
  0
VERTEX
  8
0
  5
5CF
 10
-2.57626
 20
-1.32229
 30
0.000000
  70
    32
  0
VERTEX
  8
0
  5
5D0
 10
-2.57520
 20
-1.32792
 30
0.000000
  70
    32
  0
VERTEX
  8
0
  5
5D1
 10
-2.57409
 20
-1.33351
 30
0.000000
  70
    32
  0
VERTEX
  8
0
  5
5D2
 10
-2.57295
 20
-1.33906
 30
0.000000
  70
    32
  0
VERTEX
  8
0
  5
5D3
 10
-2.57176
 20
-1.34459
 30
0.000000
  70
    32
  0
VERTEX
  8
0
  5
5D4
 10
-2.57052
 20
-1.35010
 30
0.000000
  70
    32
  0
VERTEX
  8
0
  5
5D5
 10
-2.56925
 20
-1.35558
 30
0.000000
  70
    32
  0
VERTEX
  8
0
  5
5D6
 10
-2.56794
 20
-1.36105
 30
0.000000
  70
    32
  0
VERTEX
  8
0
  5
5D7
 10
-2.56658
 20
-1.36650
 30
0.000000
  70
    32
  0
VERTEX
  8
0
  5
5D8
 10
-2.56519
 20
-1.37195
 30
0.000000
  70
    32
  0
VERTEX
  8
0
  5
5D9
 10
-2.56375
 20
-1.37738
 30
0.000000
  70
    32
  0
VERTEX
  8
0
  5
5DA
 10
-2.56227
 20
-1.38281
 30
0.000000
  70
    32
  0
VERTEX
  8
0
  5
5DB
 10
-2.56076
 20
-1.38824
 30
0.000000
  70
    32
  0
VERTEX
  8
0
  5
5DC
 10
-2.55920
 20
-1.39367
 30
0.000000
  70
    32
  0
VERTEX
  8
0
  5
5DD
 10
-2.55761
 20
-1.39909
 30
0.000000
  70
    32
  0
VERTEX
  8
0
  5
5DE
 10
-2.55597
 20
-1.40452
 30
0.000000
  70
    32
  0
VERTEX
  8
0
  5
5DF
 10
-2.55430
 20
-1.40995
 30
0.000000
  70
    32
  0
VERTEX
  8
0
  5
5E0
 10
-2.55258
 20
-1.41538
 30
0.000000
  70
    32
  0
VERTEX
  8
0
  5
5E1
 10
-2.55083
 20
-1.42082
 30
0.000000
  70
    32
  0
VERTEX
  8
0
  5
5E2
 10
-2.54904
 20
-1.42626
 30
0.000000
  70
    32
  0
VERTEX
  8
0
  5
5E3
 10
-2.54720
 20
-1.43170
 30
0.000000
  70
    32
  0
VERTEX
  8
0
  5
5E4
 10
-2.54533
 20
-1.43715
 30
0.000000
  70
    32
  0
VERTEX
  8
0
  5
5E5
 10
-2.54342
 20
-1.44260
 30
0.000000
  70
    32
  0
VERTEX
  8
0
  5
5E6
 10
-2.54147
 20
-1.44805
 30
0.000000
  70
    32
  0
VERTEX
  8
0
  5
5E7
 10
-2.53949
 20
-1.45351
 30
0.000000
  70
    32
  0
VERTEX
  8
0
  5
5E8
 10
-2.53746
 20
-1.45896
 30
0.000000
  70
    32
  0
VERTEX
  8
0
  5
5E9
 10
-2.53539
 20
-1.46441
 30
0.000000
  70
    32
  0
VERTEX
  8
0
  5
5EA
 10
-2.53328
 20
-1.46985
 30
0.000000
  70
    32
  0
VERTEX
  8
0
  5
5EB
 10
-2.53113
 20
-1.47529
 30
0.000000
  70
    32
  0
VERTEX
  8
0
  5
5EC
 10
-2.52895
 20
-1.48072
 30
0.000000
  70
    32
  0
VERTEX
  8
0
  5
5ED
 10
-2.52672
 20
-1.48614
 30
0.000000
  70
    32
  0
VERTEX
  8
0
  5
5EE
 10
-2.52445
 20
-1.49154
 30
0.000000
  70
    32
  0
VERTEX
  8
0
  5
5EF
 10
-2.52214
 20
-1.49693
 30
0.000000
  70
    32
  0
VERTEX
  8
0
  5
5F0
 10
-2.51979
 20
-1.50230
 30
0.000000
  70
    32
  0
VERTEX
  8
0
  5
5F1
 10
-2.51740
 20
-1.50766
 30
0.000000
  70
    32
  0
VERTEX
  8
0
  5
5F2
 10
-2.51497
 20
-1.51299
 30
0.000000
  70
    32
  0
VERTEX
  8
0
  5
5F3
 10
-2.51250
 20
-1.51830
 30
0.000000
  70
    32
  0
VERTEX
  8
0
  5
5F4
 10
-2.50999
 20
-1.52359
 30
0.000000
  70
    32
  0
VERTEX
  8
0
  5
5F5
 10
-2.50744
 20
-1.52885
 30
0.000000
  70
    32
  0
VERTEX
  8
0
  5
5F6
 10
-2.50485
 20
-1.53409
 30
0.000000
  70
    32
  0
VERTEX
  8
0
  5
5F7
 10
-2.50221
 20
-1.53930
 30
0.000000
  70
    32
  0
VERTEX
  8
0
  5
5F8
 10
-2.49954
 20
-1.54448
 30
0.000000
  70
    32
  0
VERTEX
  8
0
  5
5F9
 10
-2.49683
 20
-1.54963
 30
0.000000
  70
    32
  0
VERTEX
  8
0
  5
5FA
 10
-2.49407
 20
-1.55475
 30
0.000000
  70
    32
  0
VERTEX
  8
0
  5
5FB
 10
-2.49128
 20
-1.55985
 30
0.000000
  70
    32
  0
VERTEX
  8
0
  5
5FC
 10
-2.48844
 20
-1.56491
 30
0.000000
  70
    32
  0
VERTEX
  8
0
  5
5FD
 10
-2.48556
 20
-1.56993
 30
0.000000
  70
    32
  0
VERTEX
  8
0
  5
5FE
 10
-2.48265
 20
-1.57493
 30
0.000000
  70
    32
  0
VERTEX
  8
0
  5
5FF
 10
-2.47969
 20
-1.57989
 30
0.000000
  70
    32
  0
VERTEX
  8
0
  5
600
 10
-2.47670
 20
-1.58483
 30
0.000000
  70
    32
  0
VERTEX
  8
0
  5
601
 10
-2.47367
 20
-1.58972
 30
0.000000
  70
    32
  0
VERTEX
  8
0
  5
602
 10
-2.47059
 20
-1.59459
 30
0.000000
  70
    32
  0
VERTEX
  8
0
  5
603
 10
-2.46748
 20
-1.59942
 30
0.000000
  70
    32
  0
VERTEX
  8
0
  5
604
 10
-2.46433
 20
-1.60422
 30
0.000000
  70
    32
  0
VERTEX
  8
0
  5
605
 10
-2.46114
 20
-1.60899
 30
0.000000
  70
    32
  0
VERTEX
  8
0
  5
606
 10
-2.45791
 20
-1.61372
 30
0.000000
  70
    32
  0
VERTEX
  8
0
  5
607
 10
-2.45465
 20
-1.61842
 30
0.000000
  70
    32
  0
VERTEX
  8
0
  5
608
 10
-2.45134
 20
-1.62310
 30
0.000000
  70
    32
  0
VERTEX
  8
0
  5
609
 10
-2.44800
 20
-1.62774
 30
0.000000
  70
    32
  0
VERTEX
  8
0
  5
60A
 10
-2.44462
 20
-1.63235
 30
0.000000
  70
    32
  0
VERTEX
  8
0
  5
60B
 10
-2.44121
 20
-1.63693
 30
0.000000
  70
    32
  0
VERTEX
  8
0
  5
60C
 10
-2.43776
 20
-1.64148
 30
0.000000
  70
    32
  0
VERTEX
  8
0
  5
60D
 10
-2.43427
 20
-1.64600
 30
0.000000
  70
    32
  0
VERTEX
  8
0
  5
60E
 10
-2.43075
 20
-1.65049
 30
0.000000
  70
    32
  0
VERTEX
  8
0
  5
60F
 10
-2.42719
 20
-1.65495
 30
0.000000
  70
    32
  0
VERTEX
  8
0
  5
610
 10
-2.42360
 20
-1.65938
 30
0.000000
  70
    32
  0
VERTEX
  8
0
  5
611
 10
-2.41997
 20
-1.66378
 30
0.000000
  70
    32
  0
VERTEX
  8
0
  5
612
 10
-2.41630
 20
-1.66815
 30
0.000000
  70
    32
  0
VERTEX
  8
0
  5
613
 10
-2.41261
 20
-1.67249
 30
0.000000
  70
    32
  0
VERTEX
  8
0
  5
614
 10
-2.40887
 20
-1.67680
 30
0.000000
  70
    32
  0
VERTEX
  8
0
  5
615
 10
-2.40511
 20
-1.68108
 30
0.000000
  70
    32
  0
VERTEX
  8
0
  5
616
 10
-2.40131
 20
-1.68533
 30
0.000000
  70
    32
  0
VERTEX
  8
0
  5
617
 10
-2.39748
 20
-1.68956
 30
0.000000
  70
    32
  0
VERTEX
  8
0
  5
618
 10
-2.39361
 20
-1.69375
 30
0.000000
  70
    32
  0
VERTEX
  8
0
  5
619
 10
-2.38971
 20
-1.69790
 30
0.000000
  70
    32
  0
VERTEX
  8
0
  5
61A
 10
-2.38578
 20
-1.70203
 30
0.000000
  70
    32
  0
VERTEX
  8
0
  5
61B
 10
-2.38182
 20
-1.70613
 30
0.000000
  70
    32
  0
VERTEX
  8
0
  5
61C
 10
-2.37783
 20
-1.71019
 30
0.000000
  70
    32
  0
VERTEX
  8
0
  5
61D
 10
-2.37380
 20
-1.71422
 30
0.000000
  70
    32
  0
VERTEX
  8
0
  5
61E
 10
-2.36974
 20
-1.71822
 30
0.000000
  70
    32
  0
VERTEX
  8
0
  5
61F
 10
-2.36566
 20
-1.72219
 30
0.000000
  70
    32
  0
VERTEX
  8
0
  5
620
 10
-2.36154
 20
-1.72612
 30
0.000000
  70
    32
  0
VERTEX
  8
0
  5
621
 10
-2.35739
 20
-1.73002
 30
0.000000
  70
    32
  0
VERTEX
  8
0
  5
622
 10
-2.35321
 20
-1.73388
 30
0.000000
  70
    32
  0
VERTEX
  8
0
  5
623
 10
-2.34901
 20
-1.73770
 30
0.000000
  70
    32
  0
VERTEX
  8
0
  5
624
 10
-2.34477
 20
-1.74149
 30
0.000000
  70
    32
  0
VERTEX
  8
0
  5
625
 10
-2.34050
 20
-1.74525
 30
0.000000
  70
    32
  0
VERTEX
  8
0
  5
626
 10
-2.33621
 20
-1.74896
 30
0.000000
  70
    32
  0
VERTEX
  8
0
  5
627
 10
-2.33189
 20
-1.75264
 30
0.000000
  70
    32
  0
VERTEX
  8
0
  5
628
 10
-2.32754
 20
-1.75628
 30
0.000000
  70
    32
  0
VERTEX
  8
0
  5
629
 10
-2.32316
 20
-1.75988
 30
0.000000
  70
    32
  0
VERTEX
  8
0
  5
62A
 10
-2.31876
 20
-1.76344
 30
0.000000
  70
    32
  0
VERTEX
  8
0
  5
62B
 10
-2.31433
 20
-1.76696
 30
0.000000
  70
    32
  0
VERTEX
  8
0
  5
62C
 10
-2.30987
 20
-1.77044
 30
0.000000
  70
    32
  0
VERTEX
  8
0
  5
62D
 10
-2.30539
 20
-1.77388
 30
0.000000
  70
    32
  0
VERTEX
  8
0
  5
62E
 10
-2.30088
 20
-1.77728
 30
0.000000
  70
    32
  0
VERTEX
  8
0
  5
62F
 10
-2.29634
 20
-1.78063
 30
0.000000
  70
    32
  0
VERTEX
  8
0
  5
630
 10
-2.29179
 20
-1.78394
 30
0.000000
  70
    32
  0
VERTEX
  8
0
  5
631
 10
-2.28720
 20
-1.78721
 30
0.000000
  70
    32
  0
VERTEX
  8
0
  5
632
 10
-2.28260
 20
-1.79043
 30
0.000000
  70
    32
  0
VERTEX
  8
0
  5
633
 10
-2.27797
 20
-1.79362
 30
0.000000
  70
    32
  0
VERTEX
  8
0
  5
634
 10
-2.27332
 20
-1.79675
 30
0.000000
  70
    32
  0
VERTEX
  8
0
  5
635
 10
-2.26864
 20
-1.79984
 30
0.000000
  70
    32
  0
VERTEX
  8
0
  5
636
 10
-2.26394
 20
-1.80289
 30
0.000000
  70
    32
  0
VERTEX
  8
0
  5
637
 10
-2.25923
 20
-1.80588
 30
0.000000
  70
    32
  0
VERTEX
  8
0
  5
638
 10
-2.25449
 20
-1.80884
 30
0.000000
  70
    32
  0
VERTEX
  8
0
  5
639
 10
-2.24973
 20
-1.81174
 30
0.000000
  70
    32
  0
VERTEX
  8
0
  5
63A
 10
-2.24495
 20
-1.81460
 30
0.000000
  70
    32
  0
VERTEX
  8
0
  5
63B
 10
-2.24015
 20
-1.81740
 30
0.000000
  70
    32
  0
VERTEX
  8
0
  5
63C
 10
-2.23533
 20
-1.82016
 30
0.000000
  70
    32
  0
VERTEX
  8
0
  5
63D
 10
-2.23049
 20
-1.82288
 30
0.000000
  70
    32
  0
VERTEX
  8
0
  5
63E
 10
-2.22564
 20
-1.82554
 30
0.000000
  70
    32
  0
VERTEX
  8
0
  5
63F
 10
-2.22076
 20
-1.82815
 30
0.000000
  70
    32
  0
VERTEX
  8
0
  5
640
 10
-2.21587
 20
-1.83071
 30
0.000000
  70
    32
  0
VERTEX
  8
0
  5
641
 10
-2.21097
 20
-1.83322
 30
0.000000
  70
    32
  0
VERTEX
  8
0
  5
642
 10
-2.20604
 20
-1.83568
 30
0.000000
  70
    32
  0
VERTEX
  8
0
  5
643
 10
-2.20111
 20
-1.83809
 30
0.000000
  70
    32
  0
VERTEX
  8
0
  5
644
 10
-2.19616
 20
-1.84044
 30
0.000000
  70
    32
  0
VERTEX
  8
0
  5
645
 10
-2.19119
 20
-1.84274
 30
0.000000
  70
    32
  0
VERTEX
  8
0
  5
646
 10
-2.18621
 20
-1.84499
 30
0.000000
  70
    32
  0
VERTEX
  8
0
  5
647
 10
-2.18122
 20
-1.84719
 30
0.000000
  70
    32
  0
VERTEX
  8
0
  5
648
 10
-2.17621
 20
-1.84933
 30
0.000000
  70
    32
  0
VERTEX
  8
0
  5
649
 10
-2.17119
 20
-1.85142
 30
0.000000
  70
    32
  0
VERTEX
  8
0
  5
64A
 10
-2.16617
 20
-1.85345
 30
0.000000
  70
    32
  0
VERTEX
  8
0
  5
64B
 10
-2.16113
 20
-1.85543
 30
0.000000
  70
    32
  0
VERTEX
  8
0
  5
64C
 10
-2.15608
 20
-1.85735
 30
0.000000
  70
    32
  0
VERTEX
  8
0
  5
64D
 10
-2.15102
 20
-1.85922
 30
0.000000
  70
    32
  0
VERTEX
  8
0
  5
64E
 10
-2.14595
 20
-1.86103
 30
0.000000
  70
    32
  0
VERTEX
  8
0
  5
64F
 10
-2.14088
 20
-1.86278
 30
0.000000
  70
    32
  0
VERTEX
  8
0
  5
650
 10
-2.13579
 20
-1.86448
 30
0.000000
  70
    32
  0
VERTEX
  8
0
  5
651
 10
-2.13070
 20
-1.86612
 30
0.000000
  70
    32
  0
VERTEX
  8
0
  5
652
 10
-2.12561
 20
-1.86770
 30
0.000000
  70
    32
  0
VERTEX
  8
0
  5
653
 10
-2.12051
 20
-1.86923
 30
0.000000
  70
    32
  0
VERTEX
  8
0
  5
654
 10
-2.11540
 20
-1.87069
 30
0.000000
  70
    32
  0
VERTEX
  8
0
  5
655
 10
-2.11029
 20
-1.87210
 30
0.000000
  70
    32
  0
VERTEX
  8
0
  5
656
 10
-2.10518
 20
-1.87345
 30
0.000000
  70
    32
  0
VERTEX
  8
0
  5
657
 10
-2.10006
 20
-1.87474
 30
0.000000
  70
    32
  0
VERTEX
  8
0
  5
658
 10
-2.09494
 20
-1.87597
 30
0.000000
  70
    32
  0
VERTEX
  8
0
  5
659
 10
-2.08982
 20
-1.87714
 30
0.000000
  70
    32
  0
VERTEX
  8
0
  5
65A
 10
-2.08470
 20
-1.87825
 30
0.000000
  70
    32
  0
VERTEX
  8
0
  5
65B
 10
-2.07958
 20
-1.87929
 30
0.000000
  70
    32
  0
VERTEX
  8
0
  5
65C
 10
-2.07446
 20
-1.88028
 30
0.000000
  70
    32
  0
VERTEX
  8
0
  5
65D
 10
-2.06935
 20
-1.88121
 30
0.000000
  70
    32
  0
VERTEX
  8
0
  5
65E
 10
-2.06423
 20
-1.88207
 30
0.000000
  70
    32
  0
VERTEX
  8
0
  5
65F
 10
-2.05912
 20
-1.88287
 30
0.000000
  70
    32
  0
VERTEX
  8
0
  5
660
 10
-2.05401
 20
-1.88361
 30
0.000000
  70
    32
  0
SEQEND
  8
0
  5
661
  0
CIRCLE
  5
BD
  8
0
 10
0.8849351867060011
 20
1.0618396068190901
 30
0.0
 40
0.0625
  0
CIRCLE
  5
BE
  8
0
 10
4.9420863933717882
 20
-2.0884188519062872
 30
0.0
 40
0.0625
  0
CIRCLE
  5
BF
  8
0
 10
-1.6319405262619331
 20
0.412569703113628
 30
0.0
 40
0.0625
  0
CIRCLE
  5
C0
  8
0
 10
-2.110997026514672
 20
-1.371782461609405
 30
0.0
 40
0.0625
  0
CIRCLE
  5
C1
  8
0
 10
3.6241051510297599
 20
1.6273355726947301
 30
0.0
 40
0.0625
  0
CIRCLE
  5
C2
  8
0
 10
6.1568522758467807
 20
-0.2856431257819168
 30
0.0
 40
0.0625
  0
CIRCLE
  5
C3
  8
0
 10
1.37315539925345
 20
-1.719882728031239
 30
0.0
 40
0.0625
  0
ENDSEC
  0
EOF
