  0
SECTION
  2
HEADER
  9
$ACADVER
  1
AC1009
  9
$INSBASE
 10
0.0
 20
0.0
 30
0.0
  9
$EXTMIN
 10
0.0
 20
0.0
 30
0.0
  9
$EXTMAX
 10
3.618812971912734
 20
3.618812971912734
 30
0.0
  9
$LIMMIN
 10
0.0
 20
0.0
  9
$LIMMAX
 10
3.618812971912734
 20
3.618812971912734
  9
$ORTHOMODE
 70
     0
  9
$REGENMODE
 70
     1
  9
$FILLMODE
 70
     1
  9
$QTEXTMODE
 70
     0
  9
$MIRRTEXT
 70
     0
  9
$DRAGMODE
 70
     2
  9
$LTSCALE
 40
1.0
  9
$OSMODE
 70
     0
  9
$ATTMODE
 70
     1
  9
$TEXTSIZE
 40
0.2
  9
$TRACEWID
 40
0.05
  9
$TEXTSTYLE
  7
STANDARD
  9
$CLAYER
  8
0
  9
$CELTYPE
  6
BYLAYER
  9
$CECOLOR
 62
   256
  9
$DIMSCALE
 40
1.0
  9
$DIMASZ
 40
0.0708661417322835
  9
$DIMEXO
 40
0.0625
  9
$DIMDLI
 40
0.38
  9
$DIMRND
 40
0.0
  9
$DIMDLE
 40
0.0
  9
$DIMEXE
 40
0.18
  9
$DIMTP
 40
0.0
  9
$DIMTM
 40
0.0
  9
$DIMTXT
 40
0.0708661417322835
  9
$DIMCEN
 40
0.09
  9
$DIMTSZ
 40
0.0
  9
$DIMTOL
 70
     0
  9
$DIMLIM
 70
     0
  9
$DIMTIH
 70
     1
  9
$DIMTOH
 70
     1
  9
$DIMSE1
 70
     0
  9
$DIMSE2
 70
     0
  9
$DIMTAD
 70
     0
  9
$DIMZIN
 70
     0
  9
$DIMBLK
  1

  9
$DIMASO
 70
     1
  9
$DIMSHO
 70
     1
  9
$DIMPOST
  1

  9
$DIMAPOST
  1

  9
$DIMALT
 70
     0
  9
$DIMALTD
 70
     2
  9
$DIMALTF
 40
25.399999999999999
  9
$DIMLFAC
 40
1.0
  9
$DIMTOFL
 70
     0
  9
$DIMTVP
 40
0.0
  9
$DIMTIX
 70
     0
  9
$DIMSOXD
 70
     0
  9
$DIMSAH
 70
     0
  9
$DIMBLK1
  1

  9
$DIMBLK2
  1

  9
$DIMSTYLE
  2
STANDARD
  9
$DIMCLRD
 70
     0
  9
$DIMCLRE
 70
     0
  9
$DIMCLRT
 70
     0
  9
$DIMTFAC
 40
1.0
  9
$DIMGAP
 40
0.09
  9
$LUNITS
 70
     2
  9
$LUPREC
 70
     4
  9
$SKETCHINC
 40
0.1
  9
$FILLETRAD
 40
0.0
  9
$AUNITS
 70
     0
  9
$AUPREC
 70
     0
  9
$MENU
  1
.
  9
$ELEVATION
 40
0.0
  9
$PELEVATION
 40
0.0
  9
$THICKNESS
 40
0.0
  9
$LIMCHECK
 70
     0
  9
$BLIPMODE
 70
     0
  9
$CHAMFERA
 40
0.0
  9
$CHAMFERB
 40
0.0
  9
$SKPOLY
 70
     0
  9
$TDCREATE
 40
2456840.704669144
  9
$TDUPDATE
 40
2456840.704669144
  9
$TDINDWG
 40
0.0000029282
  9
$TDUSRTIMER
 40
0.0000029282
  9
$USRTIMER
 70
     1
  9
$ANGBASE
 50
0.0
  9
$ANGDIR
 70
     0
  9
$PDMODE
 70
     0
  9
$PDSIZE
 40
0.0
  9
$PLINEWID
 40
0.0
  9
$COORDS
 70
     0
  9
$SPLFRAME
 70
     0
  9
$SPLINETYPE
 70
     6
  9
$SPLINESEGS
 70
     8
  9
$ATTDIA
 70
     0
  9
$ATTREQ
 70
     1
  9
$HANDLING
 70
     1
  9
$HANDSEED
  5
235
  9
$SURFTAB1
 70
     6
  9
$SURFTAB2
 70
     6
  9
$SURFTYPE
 70
     6
  9
$SURFU
 70
     6
  9
$SURFV
 70
     6
  9
$UCSNAME
  2

  9
$UCSORG
 10
0.0
 20
0.0
 30
0.0
  9
$UCSXDIR
 10
1.0
 20
0.0
 30
0.0
  9
$UCSYDIR
 10
0.0
 20
1.0
 30
0.0
  9
$PUCSNAME
  2

  9
$PUCSORG
 10
0.0
 20
0.0
 30
0.0
  9
$PUCSXDIR
 10
1.0
 20
0.0
 30
0.0
  9
$PUCSYDIR
 10
0.0
 20
1.0
 30
0.0
  9
$USERI1
 70
     0
  9
$USERI2
 70
     0
  9
$USERI3
 70
     0
  9
$USERI4
 70
     0
  9
$USERI5
 70
     0
  9
$USERR1
 40
0.0
  9
$USERR2
 40
0.0
  9
$USERR3
 40
0.0
  9
$USERR4
 40
0.0
  9
$USERR5
 40
0.0
  9
$WORLDVIEW
 70
     1
  9
$SHADEDGE
 70
     3
  9
$SHADEDIF
 70
    70
  9
$TILEMODE
 70
     1
  9
$MAXACTVP
 70
    64
  9
$PLIMCHECK
 70
     0
  9
$PEXTMIN
 10
0.0
 20
0.0
 30
0.0
  9
$PEXTMAX
 10
3.618812971912734
 20
3.618812971912734
 30
0.0
  9
$PLIMMIN
 10
0.0
 20
0.0
  9
$PLIMMAX
 10
3.618812971912734
 20
3.618812971912734
  9
$UNITMODE
 70
     0
  9
$VISRETAIN
 70
     1
  9
$PLINEGEN
 70
     0
  9
$PSLTSCALE
 70
     1
  0
ENDSEC
  0
SECTION
  2
TABLES
  0
TABLE
  2
VPORT
 70
     1
  0
VPORT
  2
*ACTIVE
 70
     0
 10
0.0
 20
0.0
 11
1.0
 21
1.0
 12
0.0
 22
0.0
 13
0.0
 23
0.0
 14
1.0
 24
1.0
 15
0.0
 25
0.0
 16
0.0
 26
0.0
 36
1.0
 17
0.0
 27
0.0
 37
0.0
 40
3.618812971912734
 41
1.0
 42
50.0
 43
0.0
 44
0.0
 50
0.0
 51
0.0
 71
     0
 72
   100
 73
     1
 74
     1
 75
     0
 76
     0
 77
     0
 78
     0
  0
ENDTAB
  0
TABLE
  2
LTYPE
 70
    59
  0
LTYPE
  2
CONTINUOUS
 70
     0
  3
Solid line
 72
    65
 73
     0
 40
0.0
  0
LTYPE
  2
PHANTOM2
 70
     0
  3
Phantom (.5x) ___ _ _ ___ _ _ ___ _ _ ___ _ _
 72
    65
 73
     6
 40
1.25
 49
0.625
 49
-0.125
 49
0.125
 49
-0.125
 49
0.125
 49
-0.125
  0
LTYPE
  2
BY_STANDARD
 70
     0
  3
By Standard ____________    ____    ____   _
 72
    65
 73
     6
 40
1.2402999999999991
 49
0.6614
 49
-0.0827
 49
0.1654
 49
-0.0827
 49
0.1654
 49
-0.0827
  0
LTYPE
  2
CHAIN
 70
     0
  3
Chain ____ _ ____ _ ____ _ ____ _ ____ _ ____
 72
    65
 73
     4
 40
0.7087
 49
0.4724000000000001
 49
-0.0591
 49
0.1181
 49
-0.0591
  0
LTYPE
  2
DASH_DOT
 70
     0
  3
Dash dot __ . __ . __ . __ . __ . __ . __ . __
 72
    65
 73
     4
 40
0.37
 49
0.24
 49
-0.06
 49
0.01
 49
-0.06
  0
LTYPE
  2
DOUBLE_DASH_DOT
 70
     0
  3
Double-Dash Dot __ __ . __ __ . __ __ . __ _
 72
    65
 73
     6
 40
0.4398
 49
0.24
 49
-0.06
 49
0.0098
 49
-0.06
 49
0.01
 49
-0.06
  0
LTYPE
  2
DASH_TRIPLE_DOT
 70
     0
  3
Dash Triple-Dot _ . . . _ . . . _ . . . _
 72
    65
 73
     8
 40
0.51
 49
0.24
 49
-0.06
 49
0.01
 49
-0.06
 49
0.01
 49
-0.06
 49
0.01
 49
-0.06
  0
LTYPE
  2
DASHED
 70
     0
  3
Dashed __ __ __ __ __ __ __ __ __ __ __ __ __ _
 72
    65
 73
     2
 40
0.2067
 49
0.1654
 49
-0.0413
  0
LTYPE
  2
DASH_DOUBLE_DOT
 70
     0
  3
Dash Double-Dot __ . . __ . . __ . . __ . .
 72
    65
 73
     6
 40
0.4398
 49
0.24
 49
-0.06
 49
0.0098
 49
-0.06
 49
0.01
 49
-0.06
  0
LTYPE
  2
DASHED_SPACE
 70
     0
  3
Dashed Space __ __ __ __ __ __ __ __ __ __ __ _
 72
    65
 73
     2
 40
0.2067
 49
0.1654
 49
-0.0413
  0
LTYPE
  2
DOTTED
 70
     0
  3
Dotted . . . . . . . . . . . . . . . . . . . . 
 72
    65
 73
     2
 40
0.0482
 49
0.0069
 49
-0.0413
  0
LTYPE
  2
DOUBLE_DASH_CHAIN
 70
     0
  3
Double-Dash Chain ______  __  __  ______  __  _
 72
    65
 73
     6
 40
1.2402999999999991
 49
0.6614
 49
-0.0827
 49
0.1654
 49
-0.0827
 49
0.1654
 49
-0.0827
  0
LTYPE
  2
DOUBLE_DASH_DOUBLE_DOT
 70
     0
  3
Double-Dash Double-dot _ _ . . _ _ . . _
 72
    65
 73
     8
 40
0.7400000000000001
 49
0.24
 49
-0.06
 49
0.24
 49
-0.06
 49
0.01
 49
-0.06
 49
0.01
 49
-0.06
  0
LTYPE
  2
DOUBLE_DASH_TRIPLE_DOT
 70
     0
  3
Double Dash Triple Dot __ __ . . . __ __ . .
 72
    65
 73
    10
 40
0.8100000000000001
 49
0.24
 49
-0.06
 49
0.24
 49
-0.06
 49
0.01
 49
-0.06
 49
0.01
 49
-0.06
 49
0.01
 49
-0.06
  0
LTYPE
  2
LONG_DASH_DOTTED
 70
     0
  3
Long Dash Dotted ____ . ____ . ____ . ____ . _
 72
    65
 73
     4
 40
0.3543
 49
0.2362
 49
-0.0295
 49
0.0591
 49
-0.0295
  0
LTYPE
  2
LONG_DASH_DOUBLE_DOT
 70
     0
  3
Long Dash Double Dot ________  .  .  ________  
 72
    65
 73
     6
 40
0.6799999999999999
 49
0.48
 49
-0.06
 49
0.01
 49
-0.06
 49
0.01
 49
-0.06
  0
LTYPE
  2
LONG_DASH_TRIPLE_DOT
 70
     0
  3
Long Dash Triple Dot ____ ... ____ ... ____
 72
    65
 73
     8
 40
0.3689
 49
0.2362
 49
-0.0295
 49
0.0049
 49
-0.0295
 49
0.0049
 49
-0.0295
 49
0.0049
 49
-0.0295
  0
LTYPE
  2
BORDER
 70
     0
  3
Border __ __ . __ __ . __ __ . __ __ . __ __ .
 72
    65
 73
     6
 40
1.75
 49
0.5
 49
-0.25
 49
0.5
 49
-0.25
 49
0.0
 49
-0.25
  0
LTYPE
  2
BORDER2
 70
     0
  3
Border (.5x) __.__.__.__.__.__.__.__.__.__.__.
 72
    65
 73
     6
 40
0.875
 49
0.25
 49
-0.125
 49
0.25
 49
-0.125
 49
0.0
 49
-0.125
  0
LTYPE
  2
BORDERX2
 70
     0
  3
Border (2x) ____  ____  .  ____  ____  .  ___
 72
    65
 73
     6
 40
3.5
 49
1.0
 49
-0.5
 49
1.0
 49
-0.5
 49
0.0
 49
-0.5
  0
LTYPE
  2
CENTER
 70
     0
  3
Center ____ _ ____ _ ____ _ ____ _ ____ _ ____
 72
    65
 73
     4
 40
2.0
 49
1.25
 49
-0.25
 49
0.25
 49
-0.25
  0
LTYPE
  2
CENTER2
 70
     0
  3
Center (.5x) ___ _ ___ _ ___ _ ___ _ ___ _ ___
 72
    65
 73
     4
 40
1.125
 49
0.75
 49
-0.125
 49
0.125
 49
-0.125
  0
LTYPE
  2
CENTERX2
 70
     0
  3
Center (2x) ________  __  ________  __  _____
 72
    65
 73
     4
 40
4.0
 49
2.5
 49
-0.5
 49
0.5
 49
-0.5
  0
LTYPE
  2
DASHDOT2
 70
     0
  3
Dash dot (.5x) _._._._._._._._._._._._._._._.
 72
    65
 73
     4
 40
0.5
 49
0.25
 49
-0.125
 49
0.0
 49
-0.125
  0
LTYPE
  2
DASHDOTX2
 70
     0
  3
Dash dot (2x) ____  .  ____  .  ____  .  ___
 72
    65
 73
     4
 40
2.0
 49
1.0
 49
-0.5
 49
0.0
 49
-0.5
  0
LTYPE
  2
DASHED2
 70
     0
  3
Dashed (.5x) _ _ _ _ _ _ _ _ _ _ _ _ _ _ _ _ _
 72
    65
 73
     2
 40
0.375
 49
0.25
 49
-0.125
  0
LTYPE
  2
DASHEDX2
 70
     0
  3
Dashed (2x) ____  ____  ____  ____  ____  ___
 72
    65
 73
     2
 40
1.5
 49
1.0
 49
-0.5
  0
LTYPE
  2
DIVIDE
 70
     0
  3
Divide ____ . . ____ . . ____ . . ____ . . ____
 72
    65
 73
     6
 40
1.25
 49
0.5
 49
-0.25
 49
0.0
 49
-0.25
 49
0.0
 49
-0.25
  0
LTYPE
  2
DIVIDE2
 70
     0
  3
Divide (.5x) __..__..__..__..__..__..__..__.._
 72
    65
 73
     6
 40
0.625
 49
0.25
 49
-0.125
 49
0.0
 49
-0.125
 49
0.0
 49
-0.125
  0
LTYPE
  2
DIVIDEX2
 70
     0
  3
Divide (2x) ________  .  .  ________  .  .  _
 72
    65
 73
     6
 40
2.5
 49
1.0
 49
-0.5
 49
0.0
 49
-0.5
 49
0.0
 49
-0.5
  0
LTYPE
  2
DOT
 70
     0
  3
Dot . . . . . . . . . . . . . . . . . . . . . .
 72
    65
 73
     2
 40
0.25
 49
0.0
 49
-0.25
  0
LTYPE
  2
DOT2
 70
     0
  3
Dot (.5x) .....................................
 72
    65
 73
     2
 40
0.125
 49
0.0
 49
-0.125
  0
LTYPE
  2
DOTX2
 70
     0
  3
Dot (2x) .  .  .  .  .  .  .  .  .  .  .  .  . 
 72
    65
 73
     2
 40
0.5
 49
0.0
 49
-0.5
  0
LTYPE
  2
HIDDEN
 70
     0
  3
Hidden __ __ __ __ __ __ __ __ __ __ __ __ __ _
 72
    65
 73
     2
 40
0.375
 49
0.25
 49
-0.125
  0
LTYPE
  2
HIDDEN2
 70
     0
  3
Hidden (.5x) _ _ _ _ _ _ _ _ _ _ _ _ _ _ _ _ _
 72
    65
 73
     2
 40
0.1875
 49
0.125
 49
-0.0625
  0
LTYPE
  2
HIDDENX2
 70
     0
  3
Hidden (2x) ____ ____ ____ ____ ____ ____ ____
 72
    65
 73
     2
 40
0.75
 49
0.5
 49
-0.25
  0
LTYPE
  2
PHANTOM
 70
     0
  3
Phantom ______  __  __  ______  __  __  ______
 72
    65
 73
     6
 40
2.5
 49
1.25
 49
-0.25
 49
0.25
 49
-0.25
 49
0.25
 49
-0.25
  0
LTYPE
  2
PHANTOMX2
 70
     0
  3
Phantom (2x) ____________    ____    ____   _
 72
    65
 73
     6
 40
5.0
 49
2.5
 49
-0.5
 49
0.5
 49
-0.5
 49
0.5
 49
-0.5
  0
LTYPE
  2
ACAD_ISO02W100
 70
     0
  3
ISO dash __ __ __ __ __ __ __ __ __ __ __ __ __
 72
    65
 73
     2
 40
0.59
 49
0.47
 49
-0.12
  0
LTYPE
  2
ACAD_ISO03W100
 70
     0
  3
ISO dash space __    __    __    __    __    __
 72
    65
 73
     2
 40
1.179999999999999
 49
0.47
 49
-0.71
  0
LTYPE
  2
ACAD_ISO04W100
 70
     0
  3
ISO long-dash dot ____ . ____ . ____ . ____ . _
 72
    65
 73
     4
 40
1.179999999999999
 49
0.9399999999999998
 49
-0.12
 49
0.0
 49
-0.12
  0
LTYPE
  2
ACAD_ISO05W100
 70
     0
  3
ISO long-dash double-dot ____ .. ____ .. ____ .
 72
    65
 73
     6
 40
1.2999999999999989
 49
0.9399999999999998
 49
-0.12
 49
0.0
 49
-0.12
 49
0.0
 49
-0.12
  0
LTYPE
  2
ACAD_ISO06W100
 70
     0
  3
ISO long-dash triple-dot ____ ... ____ ... ____
 72
    65
 73
     8
 40
1.419999999999999
 49
0.9399999999999998
 49
-0.12
 49
0.0
 49
-0.12
 49
0.0
 49
-0.12
 49
0.0
 49
-0.12
  0
LTYPE
  2
ACAD_ISO07W100
 70
     0
  3
ISO dot . . . . . . . . . . . . . . . . . . . .
 72
    65
 73
     2
 40
0.12
 49
0.0
 49
-0.12
  0
LTYPE
  2
ACAD_ISO08W100
 70
     0
  3
ISO long-dash short-dash ____ __ ____ __ ____ _
 72
    65
 73
     4
 40
0.95
 49
0.47
 49
-0.12
 49
0.24
 49
-0.12
  0
LTYPE
  2
ACAD_ISO09W100
 70
     0
  3
ISO long-dash double-short-dash ____ __ __ ____
 72
    65
 73
     6
 40
1.3100000000000001
 49
0.47
 49
-0.12
 49
0.24
 49
-0.12
 49
0.24
 49
-0.12
  0
LTYPE
  2
ACAD_ISO10W100
 70
     0
  3
ISO dash dot __ . __ . __ . __ . __ . __ . __ .
 72
    65
 73
     4
 40
0.71
 49
0.47
 49
-0.12
 49
0.0
 49
-0.12
  0
LTYPE
  2
ACAD_ISO11W100
 70
     0
  3
ISO double-dash dot __ __ . __ __ . __ __ . __ 
 72
    65
 73
     6
 40
1.2999999999999989
 49
0.47
 49
-0.12
 49
0.47
 49
-0.12
 49
0.0
 49
-0.12
  0
LTYPE
  2
ACAD_ISO12W100
 70
     0
  3
ISO dash double-dot __ . . __ . . __ . . __ . .
 72
    65
 73
     6
 40
0.8299999999999999
 49
0.47
 49
-0.12
 49
0.0
 49
-0.12
 49
0.0
 49
-0.12
  0
LTYPE
  2
ACAD_ISO13W100
 70
     0
  3
ISO double-dash double-dot __ __ . . __ __ . . 
 72
    65
 73
     8
 40
1.419999999999999
 49
0.47
 49
-0.12
 49
0.47
 49
-0.12
 49
0.0
 49
-0.12
 49
0.0
 49
-0.12
  0
LTYPE
  2
ACAD_ISO14W100
 70
     0
  3
ISO dash triple-dot __ . . . __ . . . __ . . . 
 72
    65
 73
     8
 40
0.95
 49
0.47
 49
-0.12
 49
0.0
 49
-0.12
 49
0.0
 49
-0.12
 49
0.0
 49
-0.12
  0
LTYPE
  2
ACAD_ISO15W100
 70
     0
  3
ISO double-dash triple-dot __ __ . . . __ __ . 
 72
    65
 73
    10
 40
1.5399999999999989
 49
0.47
 49
-0.12
 49
0.47
 49
-0.12
 49
0.0
 49
-0.12
 49
0.0
 49
-0.12
 49
0.0
 49
-0.12
  0
LTYPE
  2
FENCELINE1
 70
     0
  3
Fenceline circle ----0-----0----0-----0----0---
 72
    65
 73
     4
 40
1.45
 49
0.25
 49
-0.1
 49
-0.1
 49
1.0
  0
LTYPE
  2
FENCELINE2
 70
     0
  3
Fenceline square ----[]-----[]----[]-----[]----
 72
    65
 73
     4
 40
1.45
 49
0.25
 49
-0.1
 49
-0.1
 49
1.0
  0
LTYPE
  2
TRACKS
 70
     0
  3
Tracks -|-|-|-|-|-|-|-|-|-|-|-|-|-|-|-|-|-|-|-|
 72
    65
 73
     2
 40
0.3
 49
0.15
 49
0.15
  0
LTYPE
  2
BATTING
 70
     0
  3
Batting SSSSSSSSSSSSSSSSSSSSSSSSSSSSSSSSSSSSSSS
 72
    65
 73
     4
 40
0.4001000000000001
 49
0.0001
 49
-0.1
 49
-0.2
 49
-0.1
  0
LTYPE
  2
HOT_WATER_SUPPLY
 70
     0
  3
Hot water supply ---- HW ---- HW ---- HW ----
 72
    65
 73
     3
 40
0.9
 49
0.5
 49
-0.2
 49
-0.2
  0
LTYPE
  2
GAS_LINE
 70
     0
  3
Gas line ----GAS----GAS----GAS----GAS----GAS---
 72
    65
 73
     3
 40
0.95
 49
0.5
 49
-0.2
 49
-0.25
  0
LTYPE
  2
ZIGZAG
 70
     0
  3
Zig zag /\/\/\/\/\/\/\/\/\/\/\/\/\/\/\/\/\/\/\/
 72
    65
 73
     4
 40
0.8001000000000001
 49
0.0001
 49
-0.2
 49
-0.4
 49
-0.2
  0
ENDTAB
  0
TABLE
  2
LAYER
 70
     1
  0
LAYER
  2
0
 70
     0
 62
     7
  6
CONTINUOUS
  0
ENDTAB
  0
TABLE
  2
STYLE
 70
     3
  0
STYLE
  2
STANDARD
 70
     0
 40
0.0
 41
1.0
 50
0.0
 71
     0
 42
0.2
  3
txt
  4

  0
STYLE
  2
ANNOTATIVE
 70
     0
 40
0.0
 41
1.0
 50
0.0
 71
     0
 42
0.2
  3
txt
  4

  0
STYLE
  2

 70
     1
 40
0.0
 41
1.0
 50
0.0
 71
     0
 42
0.2
  3
ltypeshp.shx
  4

  0
ENDTAB
  0
TABLE
  2
VIEW
 70
     0
  0
ENDTAB
  0
TABLE
  2
UCS
 70
     0
  0
ENDTAB
  0
TABLE
  2
APPID
 70
     3
  0
APPID
  2
ACAD
 70
     0
  0
APPID
  2
ACADANNOTATIVE
 70
     0
  0
APPID
  2
ACAD_MLEADERVER
 70
     0
  0
ENDTAB
  0
TABLE
  2
DIMSTYLE
 70
     2
  0
DIMSTYLE
  2
STANDARD
 70
     0
  3

  4

  5

  6

  7

 40
1.0
 41
0.18
 42
0.0625
 43
0.38
 44
0.18
 45
0.0
 46
0.0
 47
0.0
 48
0.0
140
0.18
141
0.09
142
0.0
143
25.399999999999999
144
1.0
145
0.0
146
1.0
147
0.09
 71
     0
 72
     0
 73
     1
 74
     1
 75
     0
 76
     0
 77
     0
 78
     0
170
     0
171
     2
172
     0
173
     0
174
     0
175
     0
176
     0
177
     0
178
     0
  0
DIMSTYLE
  2
ANNOTATIVE
 70
     0
  3

  4

  5

  6

  7

 40
1.0
 41
0.18
 42
0.0625
 43
0.38
 44
0.18
 45
0.0
 46
0.0
 47
0.0
 48
0.0
140
0.18
141
0.09
142
0.0
143
25.399999999999999
144
1.0
145
0.0
146
1.0
147
0.09
 71
     0
 72
     0
 73
     1
 74
     1
 75
     0
 76
     0
 77
     0
 78
     0
170
     0
171
     2
172
     0
173
     0
174
     0
175
     0
176
     0
177
     0
178
     0
  0
ENDTAB
  0
ENDSEC
  0
SECTION
  2
BLOCKS
  0
BLOCK
  8
0
  2
$MODEL_SPACE
 70
     0
 10
0.0
 20
0.0
 30
0.0
  3
$MODEL_SPACE
  1

  0
ENDBLK
  5
73
  8
0
  0
BLOCK
 67
     1
  8
0
  2
$PAPER_SPACE
 70
     0
 10
0.0
 20
0.0
 30
0.0
  3
$PAPER_SPACE
  1

  0
ENDBLK
  5
6F
 67
     1
  8
0
  0
ENDSEC
  0
SECTION
  2
ENTITIES
  0
POLYLINE
  5
B7
  8
0
 66
     1
 10
0.0
 20
0.0
 30
0.0
 70
     1
  0
VERTEX
  5
B8
  8
0
 10
-0.1611669937409636
 20
1.63635594831069
 30
0.0
 42
0.0453438381185909
  0
VERTEX
  5
B9
  8
0
 10
-0.184907060509243
 20
1.533599928123444
 30
0.0
 42
0.0054542079961414
  0
VERTEX
  5
BB
  8
0
 10
-0.2183183637571314
 20
1.5292012466032101
 30
0.0
 42
0.0453438381185909
  0
VERTEX
  5
BC
  8
0
 10
-0.2678447223898379
 20
1.6223115588971151
 30
0.0
 42
0.0054542079961452
  0
VERTEX
  5
BD
  8
0
 10
-0.3031715227467002
 20
1.616082490852099
 30
0.0
 42
0.0453438381185911
  0
VERTEX
  5
BE
  8
0
 10
-0.3178654741323915
 20
1.5116484051924881
 30
0.0
 42
0.0054542079961427
  0
VERTEX
  5
BF
  8
0
 10
-0.3507662669292668
 20
1.5043544750327
 30
0.0
 42
0.0453438381185913
  0
VERTEX
  5
C0
  8
0
 10
-0.4082192612404015
 20
1.592793967905334
 30
0.0
 42
0.0054542079961427
  0
VERTEX
  5
C1
  8
0
 10
-0.4428687334043639
 20
1.583509669820836
 30
0.0
 42
0.0453438381185909
  0
VERTEX
  5
C2
  8
0
 10
-0.4484047395649713
 20
1.478192325139754
 30
0.0
 42
0.0054542079961427
  0
VERTEX
  5
C3
  8
0
 10
-0.4805446270116078
 20
1.4680586575531229
 30
0.0
 42
0.0453438381185909
  0
VERTEX
  5
C4
  8
0
 10
-0.5454870050233958
 20
1.5511542530625
 30
0.0
 42
0.0054542079961427
  0
VERTEX
  5
C5
  8
0
 10
-0.5791954455893693
 20
1.5388853840529551
 30
0.0
 42
0.0453438381185913
  0
VERTEX
  5
C6
  8
0
 10
-0.5755313741752786
 20
1.433486308935777
 30
0.0
 42
0.0054542079961414
  0
VERTEX
  5
C7
  8
0
 10
-0.6066657523216126
 20
1.4205900272515131
 30
0.0
 42
0.0453438381185906
  0
VERTEX
  5
C8
  8
0
 10
-0.6786032633241046
 20
1.497709317741315
 30
0.0
 42
0.0054542079961427
  0
VERTEX
  5
C9
  8
0
 10
-0.7111141307056663
 20
1.4825492513080309
 30
0.0
 42
0.0453438381185909
  0
VERTEX
  5
CA
  8
0
 10
-0.6982778675127656
 20
1.3778705963580999
 30
0.0
 42
0.0054542079961427
  0
VERTEX
  5
CB
  8
0
 10
-0.7281697849416519
 20
1.3623098490668091
 30
0.0
 42
0.0453438381185909
  0
VERTEX
  5
CC
  8
0
 10
-0.8065549410390621
 20
1.4328659101705059
 30
0.0
 42
0.0054542079961452
  0
VERTEX
  5
CD
  8
0
 10
-0.8376208079048412
 20
1.4149300235729401
 30
0.0
 42
0.0453438381185909
  0
VERTEX
  5
CE
  8
0
 10
-0.8157100446467762
 20
1.311768456561125
 30
0.0
 42
0.0054542079961414
  0
VERTEX
  5
CF
  8
0
 10
-0.8441320058173475
 20
1.293661670345529
 30
0.0
 42
0.0453438381185909
  0
VERTEX
  5
D0
  8
0
 10
-0.9283682486415237
 20
1.357117527835209
 30
0.0
 42
0.0054542079961452
  0
VERTEX
  5
D1
  8
0
 10
-0.9577526849865883
 20
1.3365423240003509
 30
0.0
 42
0.0453438381185909
  0
VERTEX
  5
D2
  8
0
 10
-0.9269341758018334
 20
1.2356829667422691
 30
0.0
 42
0.0054542079961414
  0
VERTEX
  5
D3
  8
0
 10
-0.9536698724279329
 20
1.2151679451786459
 30
0.0
 42
0.0453438381185909
  0
VERTEX
  5
D4
  8
0
 10
-1.043116113307748
 20
1.2710406616631169
 30
0.0
 42
0.0054542079961452
  0
VERTEX
  5
D5
  8
0
 10
-1.0705954858287039
 20
1.2479827303158
 30
0.0
 42
0.0453438381185909
  0
VERTEX
  5
D6
  8
0
 10
-1.0311037781808801
 20
1.1501931834207311
 30
0.0
 42
0.0054542079961414
  0
VERTEX
  5
D7
  8
0
 10
-1.0559497354677281
 20
1.1274260582104869
 30
0.0
 42
0.0453438381185909
  0
VERTEX
  5
D8
  8
0
 10
-1.1499252345009709
 20
1.1752904085804341
 30
0.0
 42
0.0054542079961452
  0
VERTEX
  5
D9
  8
0
 10
-1.175290408580435
 20
1.1499252345009701
 30
0.0
 42
0.0453438381185909
  0
VERTEX
  5
DA
  8
0
 10
-1.1274260582104869
 20
1.0559497354677281
 30
0.0
 42
0.0054542079961427
  0
VERTEX
  5
DB
  8
0
 10
-1.1501931834207311
 20
1.0311037781808801
 30
0.0
 42
0.0453438381185909
  0
VERTEX
  5
DC
  8
0
 10
-1.2479827303158011
 20
1.070595485828703
 30
0.0
 42
0.0054542079961452
  0
VERTEX
  5
DD
  8
0
 10
-1.271040661663118
 20
1.0431161133077469
 30
0.0
 42
0.0453438381185913
  0
VERTEX
  5
DE
  8
0
 10
-1.2151679451786459
 20
0.9536698724279323
 30
0.0
 42
0.0054542079961427
  0
VERTEX
  5
DF
  8
0
 10
-1.23568296674227
 20
0.9269341758018331
 30
0.0
 42
0.0453438381185909
  0
VERTEX
  5
E0
  8
0
 10
-1.336542324000352
 20
0.9577526849865868
 30
0.0
 42
0.0054542079961427
  0
VERTEX
  5
E1
  8
0
 10
-1.357117527835209
 20
0.9283682486415226
 30
0.0
 42
0.0453438381185909
  0
VERTEX
  5
E2
  8
0
 10
-1.293661670345529
 20
0.8441320058173474
 30
0.0
 42
0.0054542079961414
  0
VERTEX
  5
E3
  8
0
 10
-1.3117684565611261
 20
0.815710044646776
 30
0.0
 42
0.0453438381185909
  0
VERTEX
  5
E4
  8
0
 10
-1.4149300235729401
 20
0.8376208079048398
 30
0.0
 42
0.0054542079961452
  0
VERTEX
  5
E5
  8
0
 10
-1.432865910170507
 20
0.8065549410390616
 30
0.0
 42
0.0453438381185909
  0
VERTEX
  5
E6
  8
0
 10
-1.362309849066808
 20
0.7281697849416515
 30
0.0
 42
0.0054542079961414
  0
VERTEX
  5
E7
  8
0
 10
-1.3778705963581011
 20
0.6982778675127653
 30
0.0
 42
0.0453438381185909
  0
VERTEX
  5
E8
  8
0
 10
-1.4825492513080309
 20
0.7111141307056652
 30
0.0
 42
0.0054542079961452
  0
VERTEX
  5
E9
  8
0
 10
-1.497709317741315
 20
0.6786032633241027
 30
0.0
 42
0.0453438381185906
  0
VERTEX
  5
EA
  8
0
 10
-1.420590027251514
 20
0.6066657523216109
 30
0.0
 42
0.0054542079961414
  0
VERTEX
  5
EB
  8
0
 10
-1.4334863089357781
 20
0.5755313741752772
 30
0.0
 42
0.0453438381185909
  0
VERTEX
  5
EC
  8
0
 10
-1.5388853840529551
 20
0.5791954455893669
 30
0.0
 42
0.0054542079961452
  0
VERTEX
  5
ED
  8
0
 10
-1.5511542530625011
 20
0.5454870050233946
 30
0.0
 42
0.0453438381185906
  0
VERTEX
  5
EE
  8
0
 10
-1.4680586575531229
 20
0.4805446270116069
 30
0.0
 42
0.0054542079961414
  0
VERTEX
  5
EF
  8
0
 10
-1.4781923251397551
 20
0.4484047395649703
 30
0.0
 42
0.0453438381185909
  0
VERTEX
  5
F0
  8
0
 10
-1.583509669820836
 20
0.4428687334043627
 30
0.0
 42
0.0054542079961427
  0
VERTEX
  5
F1
  8
0
 10
-1.5927939679053349
 20
0.4082192612403998
 30
0.0
 42
0.0453438381185906
  0
VERTEX
  5
F2
  8
0
 10
-1.5043544750327
 20
0.350766266929266
 30
0.0
 42
0.0054542079961414
  0
VERTEX
  5
F3
  8
0
 10
-1.511648405192489
 20
0.3178654741323904
 30
0.0
 42
0.0453438381185906
  0
VERTEX
  5
F4
  8
0
 10
-1.616082490852099
 20
0.303171522746699
 30
0.0
 42
0.0054542079961427
  0
VERTEX
  5
F5
  8
0
 10
-1.6223115588971151
 20
0.2678447223898373
 30
0.0
 42
0.0453438381185909
  0
VERTEX
  5
F6
  8
0
 10
-1.529201246603209
 20
0.2183183637571306
 30
0.0
 42
0.0054542079961427
  0
VERTEX
  5
F7
  8
0
 10
-1.533599928123444
 20
0.1849070605092427
 30
0.0
 42
0.0453438381185906
  0
VERTEX
  5
F8
  8
0
 10
-1.63635594831069
 20
0.1611669937409625
 30
0.0
 42
0.0054542079961427
  0
VERTEX
  5
F9
  8
0
 10
-1.639482379347188
 20
0.1254317234728222
 30
0.0
 42
0.0453438381185914
  0
VERTEX
  5
FA
  8
0
 10
-1.5424098733301119
 20
0.0842089260125714
 30
0.0
 42
0.0054542079961401
  0
VERTEX
  5
FB
  8
0
 10
-1.5438798295884271
 20
0.0505413925056833
 30
0.0
 42
0.0453438381185909
  0
VERTEX
  5
FC
  8
0
 10
-1.6441757489439011
 20
0.0179358865975661
 30
0.0
 42
0.0054542079961452
  0
VERTEX
  5
FD
  8
0
 10
-1.6441757489439011
 20
-0.0179358865975665
 30
0.0
 42
0.0453438381185909
  0
VERTEX
  5
FE
  8
0
 10
-1.543879829588426
 20
-0.0505413925056837
 30
0.0
 42
0.0054542079961414
  0
VERTEX
  5
FF
  8
0
 10
-1.542409873330111
 20
-0.0842089260125715
 30
0.0
 42
0.0453438381185913
  0
VERTEX
  5
100
  8
0
 10
-1.6394823793471871
 20
-0.1254317234728228
 30
0.0
 42
0.0054542079961427
  0
VERTEX
  5
101
  8
0
 10
-1.63635594831069
 20
-0.161166993740964
 30
0.0
 42
0.0453438381185906
  0
VERTEX
  5
102
  8
0
 10
-1.533599928123444
 20
-0.184907060509243
 30
0.0
 42
0.0054542079961414
  0
VERTEX
  5
103
  8
0
 10
-1.5292012466032101
 20
-0.2183183637571316
 30
0.0
 42
0.0453438381185909
  0
VERTEX
  5
104
  8
0
 10
-1.6223115588971151
 20
-0.2678447223898378
 30
0.0
 42
0.0054542079961452
  0
VERTEX
  5
105
  8
0
 10
-1.616082490852099
 20
-0.3031715227466997
 30
0.0
 42
0.0453438381185909
  0
VERTEX
  5
106
  8
0
 10
-1.5116484051924881
 20
-0.3178654741323912
 30
0.0
 42
0.0054542079961427
  0
VERTEX
  5
107
  8
0
 10
-1.5043544750326989
 20
-0.3507662669292664
 30
0.0
 42
0.0453438381185909
  0
VERTEX
  5
108
  8
0
 10
-1.592793967905334
 20
-0.4082192612404013
 30
0.0
 42
0.0054542079961427
  0
VERTEX
  5
109
  8
0
 10
-1.583509669820836
 20
-0.4428687334043641
 30
0.0
 42
0.0453438381185906
  0
VERTEX
  5
10A
  8
0
 10
-1.478192325139754
 20
-0.4484047395649713
 30
0.0
 42
0.0054542079961427
  0
VERTEX
  5
10B
  8
0
 10
-1.4680586575531229
 20
-0.4805446270116074
 30
0.0
 42
0.0453438381185903
  0
VERTEX
  5
10C
  8
0
 10
-1.5511542530625
 20
-0.5454870050233958
 30
0.0
 42
0.0054542079961452
  0
VERTEX
  5
10D
  8
0
 10
-1.5388853840529551
 20
-0.5791954455893693
 30
0.0
 42
0.0453438381185913
  0
VERTEX
  5
10E
  8
0
 10
-1.4334863089357761
 20
-0.5755313741752786
 30
0.0
 42
0.0054542079961414
  0
VERTEX
  5
10F
  8
0
 10
-1.4205900272515131
 20
-0.6066657523216128
 30
0.0
 42
0.0453438381185909
  0
VERTEX
  5
110
  8
0
 10
-1.4977093177413141
 20
-0.678603263324105
 30
0.0
 42
0.0054542079961452
  0
VERTEX
  5
111
  8
0
 10
-1.4825492513080309
 20
-0.7111141307056663
 30
0.0
 42
0.0453438381185909
  0
VERTEX
  5
112
  8
0
 10
-1.3778705963580999
 20
-0.6982778675127656
 30
0.0
 42
0.0054542079961414
  0
VERTEX
  5
113
  8
0
 10
-1.3623098490668091
 20
-0.7281697849416519
 30
0.0
 42
0.0453438381185909
  0
VERTEX
  5
114
  8
0
 10
-1.4328659101705059
 20
-0.8065549410390621
 30
0.0
 42
0.0054542079961452
  0
VERTEX
  5
115
  8
0
 10
-1.4149300235729401
 20
-0.8376208079048407
 30
0.0
 42
0.0453438381185913
  0
VERTEX
  5
116
  8
0
 10
-1.311768456561125
 20
-0.8157100446467758
 30
0.0
 42
0.0054542079961427
  0
VERTEX
  5
117
  8
0
 10
-1.293661670345529
 20
-0.8441320058173477
 30
0.0
 42
0.0453438381185913
  0
VERTEX
  5
118
  8
0
 10
-1.357117527835209
 20
-0.9283682486415237
 30
0.0
 42
0.0054542079961427
  0
VERTEX
  5
119
  8
0
 10
-1.3365423240003509
 20
-0.9577526849865879
 30
0.0
 42
0.0453438381185909
  0
VERTEX
  5
11A
  8
0
 10
-1.23568296674227
 20
-0.9269341758018334
 30
0.0
 42
0.0054542079961414
  0
VERTEX
  5
11B
  8
0
 10
-1.2151679451786459
 20
-0.9536698724279327
 30
0.0
 42
0.0453438381185909
  0
VERTEX
  5
11C
  8
0
 10
-1.2710406616631169
 20
-1.043116113307748
 30
0.0
 42
0.0054542079961452
  0
VERTEX
  5
11D
  8
0
 10
-1.2479827303158
 20
-1.0705954858287039
 30
0.0
 42
0.0453438381185909
  0
VERTEX
  5
11E
  8
0
 10
-1.1501931834207311
 20
-1.0311037781808801
 30
0.0
 42
0.0054542079961427
  0
VERTEX
  5
11F
  8
0
 10
-1.1274260582104869
 20
-1.0559497354677281
 30
0.0
 42
0.0453438381185906
  0
VERTEX
  5
120
  8
0
 10
-1.1752904085804341
 20
-1.1499252345009709
 30
0.0
 42
0.0054542079961427
  0
VERTEX
  5
121
  8
0
 10
-1.1499252345009709
 20
-1.175290408580435
 30
0.0
 42
0.0453438381185913
  0
VERTEX
  5
122
  8
0
 10
-1.0559497354677281
 20
-1.1274260582104869
 30
0.0
 42
0.0054542079961427
  0
VERTEX
  5
123
  8
0
 10
-1.0311037781808801
 20
-1.1501931834207311
 30
0.0
 42
0.0453438381185909
  0
VERTEX
  5
124
  8
0
 10
-1.070595485828703
 20
-1.2479827303158011
 30
0.0
 42
0.0054542079961452
  0
VERTEX
  5
125
  8
0
 10
-1.0431161133077469
 20
-1.271040661663118
 30
0.0
 42
0.0453438381185913
  0
VERTEX
  5
126
  8
0
 10
-0.9536698724279323
 20
-1.2151679451786459
 30
0.0
 42
0.0054542079961427
  0
VERTEX
  5
127
  8
0
 10
-0.9269341758018335
 20
-1.23568296674227
 30
0.0
 42
0.0453438381185909
  0
VERTEX
  5
128
  8
0
 10
-0.9577526849865872
 20
-1.336542324000352
 30
0.0
 42
0.0054542079961427
  0
VERTEX
  5
129
  8
0
 10
-0.9283682486415226
 20
-1.357117527835209
 30
0.0
 42
0.0453438381185906
  0
VERTEX
  5
12A
  8
0
 10
-0.844132005817347
 20
-1.293661670345529
 30
0.0
 42
0.0054542079961427
  0
VERTEX
  5
12B
  8
0
 10
-0.8157100446467762
 20
-1.311768456561125
 30
0.0
 42
0.0453438381185913
  0
VERTEX
  5
12C
  8
0
 10
-0.8376208079048394
 20
-1.4149300235729401
 30
0.0
 42
0.0054542079961452
  0
VERTEX
  5
12D
  8
0
 10
-0.8065549410390609
 20
-1.432865910170507
 30
0.0
 42
0.0453438381185906
  0
VERTEX
  5
12E
  8
0
 10
-0.728169784941651
 20
-1.3623098490668091
 30
0.0
 42
0.0054542079961427
  0
VERTEX
  5
12F
  8
0
 10
-0.6982778675127656
 20
-1.3778705963581011
 30
0.0
 42
0.0453438381185909
  0
VERTEX
  5
130
  8
0
 10
-0.7111141307056644
 20
-1.4825492513080321
 30
0.0
 42
0.0054542079961452
  0
VERTEX
  5
131
  8
0
 10
-0.6786032633241036
 20
-1.497709317741315
 30
0.0
 42
0.0453438381185913
  0
VERTEX
  5
132
  8
0
 10
-0.6066657523216116
 20
-1.4205900272515131
 30
0.0
 42
0.0054542079961427
  0
VERTEX
  5
133
  8
0
 10
-0.5755313741752772
 20
-1.4334863089357781
 30
0.0
 42
0.0453438381185906
  0
VERTEX
  5
134
  8
0
 10
-0.5791954455893675
 20
-1.5388853840529551
 30
0.0
 42
0.0054542079961452
  0
VERTEX
  5
135
  8
0
 10
-0.5454870050233959
 20
-1.5511542530625011
 30
0.0
 42
0.0453438381185913
  0
VERTEX
  5
136
  8
0
 10
-0.480544627011608
 20
-1.468058657553122
 30
0.0
 42
0.0054542079961427
  0
VERTEX
  5
137
  8
0
 10
-0.4484047395649723
 20
-1.478192325139754
 30
0.0
 42
0.0453438381185906
  0
VERTEX
  5
138
  8
0
 10
-0.4428687334043638
 20
-1.583509669820836
 30
0.0
 42
0.0054542079961452
  0
VERTEX
  5
139
  8
0
 10
-0.4082192612404013
 20
-1.592793967905334
 30
0.0
 42
0.0453438381185913
  0
VERTEX
  5
13A
  8
0
 10
-0.3507662669292669
 20
-1.5043544750326989
 30
0.0
 42
0.0054542079961427
  0
VERTEX
  5
13B
  8
0
 10
-0.3178654741323925
 20
-1.5116484051924881
 30
0.0
 42
0.0453438381185909
  0
VERTEX
  5
13C
  8
0
 10
-0.3031715227467
 20
-1.616082490852099
 30
0.0
 42
0.0054542079961452
  0
VERTEX
  5
13D
  8
0
 10
-0.2678447223898366
 20
-1.6223115588971151
 30
0.0
 42
0.0453438381185909
  0
VERTEX
  5
13E
  8
0
 10
-0.2183183637571307
 20
-1.529201246603209
 30
0.0
 42
0.0054542079961414
  0
VERTEX
  5
13F
  8
0
 10
-0.1849070605092428
 20
-1.533599928123444
 30
0.0
 42
0.0453438381185913
  0
VERTEX
  5
140
  8
0
 10
-0.1611669937409626
 20
-1.63635594831069
 30
0.0
 42
0.0054542079961427
  0
VERTEX
  5
141
  8
0
 10
-0.1254317234728215
 20
-1.639482379347188
 30
0.0
 42
0.0453438381185909
  0
VERTEX
  5
142
  8
0
 10
-0.0842089260125714
 20
-1.5424098733301119
 30
0.0
 42
0.0054542079961414
  0
VERTEX
  5
143
  8
0
 10
-0.0505413925056834
 20
-1.543879829588426
 30
0.0
 42
0.0453438381185909
  0
VERTEX
  5
144
  8
0
 10
-0.017935886597566
 20
-1.6441757489439011
 30
0.0
 42
0.0054542079961452
  0
VERTEX
  5
145
  8
0
 10
0.0179358865975657
 20
-1.6441757489439011
 30
0.0
 42
0.0453438381185906
  0
VERTEX
  5
146
  8
0
 10
0.0505413925056835
 20
-1.543879829588426
 30
0.0
 42
0.0054542079961414
  0
VERTEX
  5
147
  8
0
 10
0.0842089260125714
 20
-1.542409873330111
 30
0.0
 42
0.0453438381185906
  0
VERTEX
  5
148
  8
0
 10
0.1254317234728226
 20
-1.6394823793471871
 30
0.0
 42
0.0054542079961427
  0
VERTEX
  5
149
  8
0
 10
0.1611669937409624
 20
-1.63635594831069
 30
0.0
 42
0.0453438381185909
  0
VERTEX
  5
14A
  8
0
 10
0.1849070605092428
 20
-1.533599928123444
 30
0.0
 42
0.0054542079961414
  0
VERTEX
  5
14B
  8
0
 10
0.2183183637571308
 20
-1.5292012466032101
 30
0.0
 42
0.0453438381185909
  0
VERTEX
  5
14C
  8
0
 10
0.2678447223898376
 20
-1.6223115588971151
 30
0.0
 42
0.0054542079961427
  0
VERTEX
  5
14D
  8
0
 10
0.3031715227467004
 20
-1.616082490852099
 30
0.0
 42
0.0453438381185914
  0
VERTEX
  5
14E
  8
0
 10
0.3178654741323917
 20
-1.5116484051924881
 30
0.0
 42
0.0054542079961414
  0
VERTEX
  5
14F
  8
0
 10
0.3507662669292677
 20
-1.5043544750327
 30
0.0
 42
0.0453438381185913
  0
VERTEX
  5
150
  8
0
 10
0.408219261240402
 20
-1.592793967905334
 30
0.0
 42
0.0054542079961427
  0
VERTEX
  5
151
  8
0
 10
0.442868733404364
 20
-1.583509669820836
 30
0.0
 42
0.0453438381185909
  0
VERTEX
  5
152
  8
0
 10
0.4484047395649717
 20
-1.478192325139754
 30
0.0
 42
0.0054542079961414
  0
VERTEX
  5
153
  8
0
 10
0.4805446270116086
 20
-1.4680586575531229
 30
0.0
 42
0.0453438381185909
  0
VERTEX
  5
154
  8
0
 10
0.5454870050233965
 20
-1.5511542530625
 30
0.0
 42
0.0054542079961452
  0
VERTEX
  5
155
  8
0
 10
0.5791954455893679
 20
-1.5388853840529551
 30
0.0
 42
0.0453438381185913
  0
VERTEX
  5
156
  8
0
 10
0.5755313741752778
 20
-1.433486308935777
 30
0.0
 42
0.0054542079961427
  0
VERTEX
  5
157
  8
0
 10
0.6066657523216122
 20
-1.4205900272515131
 30
0.0
 42
0.0453438381185913
  0
VERTEX
  5
158
  8
0
 10
0.6786032633241039
 20
-1.497709317741315
 30
0.0
 42
0.0054542079961427
  0
VERTEX
  5
159
  8
0
 10
0.7111141307056649
 20
-1.4825492513080321
 30
0.0
 42
0.0453438381185909
  0
VERTEX
  5
15A
  8
0
 10
0.6982778675127647
 20
-1.3778705963581011
 30
0.0
 42
0.0054542079961414
  0
VERTEX
  5
15B
  8
0
 10
0.7281697849416517
 20
-1.3623098490668091
 30
0.0
 42
0.0453438381185906
  0
VERTEX
  5
15C
  8
0
 10
0.8065549410390615
 20
-1.432865910170507
 30
0.0
 42
0.0054542079961452
  0
VERTEX
  5
15D
  8
0
 10
0.8376208079048396
 20
-1.4149300235729401
 30
0.0
 42
0.0453438381185909
  0
VERTEX
  5
15E
  8
0
 10
0.8157100446467753
 20
-1.3117684565611261
 30
0.0
 42
0.0054542079961427
  0
VERTEX
  5
15F
  8
0
 10
0.8441320058173475
 20
-1.293661670345529
 30
0.0
 42
0.0453438381185914
  0
VERTEX
  5
160
  8
0
 10
0.9283682486415228
 20
-1.357117527835209
 30
0.0
 42
0.0054542079961452
  0
VERTEX
  5
161
  8
0
 10
0.9577526849865879
 20
-1.3365423240003509
 30
0.0
 42
0.0453438381185906
  0
VERTEX
  5
162
  8
0
 10
0.9269341758018334
 20
-1.23568296674227
 30
0.0
 42
0.0054542079961427
  0
VERTEX
  5
163
  8
0
 10
0.9536698724279327
 20
-1.2151679451786459
 30
0.0
 42
0.0453438381185911
  0
VERTEX
  5
164
  8
0
 10
1.043116113307748
 20
-1.2710406616631169
 30
0.0
 42
0.0054542079961452
  0
VERTEX
  5
165
  8
0
 10
1.0705954858287039
 20
-1.2479827303158
 30
0.0
 42
0.0453438381185909
  0
VERTEX
  5
166
  8
0
 10
1.0311037781808801
 20
-1.1501931834207311
 30
0.0
 42
0.0054542079961414
  0
VERTEX
  5
167
  8
0
 10
1.0559497354677281
 20
-1.127426058210488
 30
0.0
 42
0.0453438381185909
  0
VERTEX
  5
168
  8
0
 10
1.1499252345009709
 20
-1.1752904085804341
 30
0.0
 42
0.0054542079961427
  0
VERTEX
  5
169
  8
0
 10
1.175290408580435
 20
-1.1499252345009701
 30
0.0
 42
0.0453438381185909
  0
VERTEX
  5
16A
  8
0
 10
1.1274260582104869
 20
-1.0559497354677281
 30
0.0
 42
0.005454207996144
  0
VERTEX
  5
16B
  8
0
 10
1.1501931834207311
 20
-1.0311037781808801
 30
0.0
 42
0.0453438381185909
  0
VERTEX
  5
16C
  8
0
 10
1.2479827303158011
 20
-1.070595485828703
 30
0.0
 42
0.0054542079961452
  0
VERTEX
  5
16D
  8
0
 10
1.271040661663118
 20
-1.0431161133077469
 30
0.0
 42
0.0453438381185913
  0
VERTEX
  5
16E
  8
0
 10
1.2151679451786459
 20
-0.9536698724279323
 30
0.0
 42
0.0054542079961427
  0
VERTEX
  5
16F
  8
0
 10
1.23568296674227
 20
-0.9269341758018335
 30
0.0
 42
0.0453438381185911
  0
VERTEX
  5
170
  8
0
 10
1.336542324000352
 20
-0.9577526849865872
 30
0.0
 42
0.0054542079961427
  0
VERTEX
  5
171
  8
0
 10
1.357117527835209
 20
-0.9283682486415228
 30
0.0
 42
0.0453438381185906
  0
VERTEX
  5
172
  8
0
 10
1.293661670345529
 20
-0.844132005817347
 30
0.0
 42
0.0054542079961427
  0
VERTEX
  5
173
  8
0
 10
1.311768456561125
 20
-0.8157100446467762
 30
0.0
 42
0.0453438381185913
  0
VERTEX
  5
174
  8
0
 10
1.4149300235729401
 20
-0.8376208079048394
 30
0.0
 42
0.0054542079961427
  0
VERTEX
  5
175
  8
0
 10
1.432865910170507
 20
-0.8065549410390612
 30
0.0
 42
0.0453438381185913
  0
VERTEX
  5
176
  8
0
 10
1.3623098490668091
 20
-0.7281697849416509
 30
0.0
 42
0.0054542079961427
  0
VERTEX
  5
177
  8
0
 10
1.3778705963581011
 20
-0.6982778675127643
 30
0.0
 42
0.0453438381185909
  0
VERTEX
  5
178
  8
0
 10
1.4825492513080321
 20
-0.7111141307056644
 30
0.0
 42
0.0054542079961427
  0
VERTEX
  5
179
  8
0
 10
1.497709317741315
 20
-0.6786032633241036
 30
0.0
 42
0.0453438381185909
  0
VERTEX
  5
17A
  8
0
 10
1.4205900272515131
 20
-0.6066657523216112
 30
0.0
 42
0.0054542079961427
  0
VERTEX
  5
17B
  8
0
 10
1.4334863089357781
 20
-0.5755313741752773
 30
0.0
 42
0.0453438381185906
  0
VERTEX
  5
17C
  8
0
 10
1.5388853840529551
 20
-0.5791954455893674
 30
0.0
 42
0.0054542079961427
  0
VERTEX
  5
17D
  8
0
 10
1.5511542530625011
 20
-0.545487005023396
 30
0.0
 42
0.0453438381185909
  0
VERTEX
  5
17E
  8
0
 10
1.468058657553122
 20
-0.4805446270116078
 30
0.0
 42
0.0054542079961414
  0
VERTEX
  5
17F
  8
0
 10
1.478192325139754
 20
-0.4484047395649713
 30
0.0
 42
0.0453438381185906
  0
VERTEX
  5
180
  8
0
 10
1.583509669820836
 20
-0.4428687334043636
 30
0.0
 42
0.0054542079961452
  0
VERTEX
  5
181
  8
0
 10
1.592793967905334
 20
-0.4082192612404015
 30
0.0
 42
0.0453438381185913
  0
VERTEX
  5
182
  8
0
 10
1.5043544750326989
 20
-0.3507662669292666
 30
0.0
 42
0.0054542079961427
  0
VERTEX
  5
183
  8
0
 10
1.5116484051924881
 20
-0.3178654741323912
 30
0.0
 42
0.0453438381185911
  0
VERTEX
  5
184
  8
0
 10
1.616082490852099
 20
-0.3031715227467
 30
0.0
 42
0.0054542079961452
  0
VERTEX
  5
185
  8
0
 10
1.6223115588971151
 20
-0.2678447223898383
 30
0.0
 42
0.0453438381185909
  0
VERTEX
  5
186
  8
0
 10
1.529201246603209
 20
-0.2183183637571311
 30
0.0
 42
0.0054542079961414
  0
VERTEX
  5
187
  8
0
 10
1.533599928123444
 20
-0.1849070605092429
 30
0.0
 42
0.0453438381185909
  0
VERTEX
  5
188
  8
0
 10
1.63635594831069
 20
-0.1611669937409631
 30
0.0
 42
0.0054542079961452
  0
VERTEX
  5
189
  8
0
 10
1.639482379347188
 20
-0.1254317234728212
 30
0.0
 42
0.0453438381185913
  0
VERTEX
  5
18A
  8
0
 10
1.542409873330111
 20
-0.0842089260125713
 30
0.0
 42
0.0054542079961414
  0
VERTEX
  5
18B
  8
0
 10
1.543879829588426
 20
-0.0505413925056831
 30
0.0
 42
0.0453438381185913
  0
VERTEX
  5
18C
  8
0
 10
1.6441757489439011
 20
-0.017935886597566
 30
0.0
 42
0.0054542079961452
  0
VERTEX
  5
18D
  8
0
 10
1.6441757489439011
 20
0.0179358865975674
 30
0.0
 42
0.0453438381185909
  0
VERTEX
  5
18E
  8
0
 10
1.543879829588426
 20
0.0505413925056836
 30
0.0
 42
0.0054542079961414
  0
VERTEX
  5
18F
  8
0
 10
1.542409873330111
 20
0.084208926012572
 30
0.0
 42
0.0453438381185909
  0
VERTEX
  5
190
  8
0
 10
1.6394823793471871
 20
0.1254317234728228
 30
0.0
 42
0.0054542079961427
  0
VERTEX
  5
191
  8
0
 10
1.63635594831069
 20
0.1611669937409641
 30
0.0
 42
0.0453438381185909
  0
VERTEX
  5
192
  8
0
 10
1.533599928123444
 20
0.1849070605092433
 30
0.0
 42
0.0054542079961414
  0
VERTEX
  5
193
  8
0
 10
1.5292012466032101
 20
0.2183183637571318
 30
0.0
 42
0.0453438381185909
  0
VERTEX
  5
194
  8
0
 10
1.6223115588971151
 20
0.2678447223898381
 30
0.0
 42
0.0054542079961452
  0
VERTEX
  5
195
  8
0
 10
1.616082490852099
 20
0.3031715227467005
 30
0.0
 42
0.0453438381185906
  0
VERTEX
  5
196
  8
0
 10
1.511648405192487
 20
0.3178654741323916
 30
0.0
 42
0.0054542079961427
  0
VERTEX
  5
197
  8
0
 10
1.5043544750326989
 20
0.3507662669292672
 30
0.0
 42
0.0453438381185909
  0
VERTEX
  5
198
  8
0
 10
1.592793967905334
 20
0.4082192612404015
 30
0.0
 42
0.0054542079961452
  0
VERTEX
  5
199
  8
0
 10
1.583509669820836
 20
0.442868733404364
 30
0.0
 42
0.0453438381185909
  0
VERTEX
  5
19A
  8
0
 10
1.478192325139754
 20
0.4484047395649713
 30
0.0
 42
0.0054542079961427
  0
VERTEX
  5
19B
  8
0
 10
1.4680586575531229
 20
0.4805446270116079
 30
0.0
 42
0.0453438381185909
  0
VERTEX
  5
19C
  8
0
 10
1.5511542530625
 20
0.5454870050233959
 30
0.0
 42
0.0054542079961452
  0
VERTEX
  5
19D
  8
0
 10
1.5388853840529551
 20
0.5791954455893685
 30
0.0
 42
0.0453438381185906
  0
VERTEX
  5
19E
  8
0
 10
1.433486308935777
 20
0.5755313741752778
 30
0.0
 42
0.0054542079961427
  0
VERTEX
  5
19F
  8
0
 10
1.4205900272515131
 20
0.6066657523216121
 30
0.0
 42
0.0453438381185909
  0
VERTEX
  5
1A0
  8
0
 10
1.497709317741315
 20
0.6786032633241037
 30
0.0
 42
0.0054542079961452
  0
VERTEX
  5
1A1
  8
0
 10
1.4825492513080309
 20
0.7111141307056653
 30
0.0
 42
0.0453438381185906
  0
VERTEX
  5
1A2
  8
0
 10
1.3778705963581011
 20
0.6982778675127649
 30
0.0
 42
0.0054542079961414
  0
VERTEX
  5
1A3
  8
0
 10
1.3623098490668091
 20
0.7281697849416516
 30
0.0
 42
0.0453438381185906
  0
VERTEX
  5
1A4
  8
0
 10
1.4328659101705059
 20
0.8065549410390615
 30
0.0
 42
0.0054542079961452
  0
VERTEX
  5
1A5
  8
0
 10
1.4149300235729401
 20
0.8376208079048403
 30
0.0
 42
0.0453438381185909
  0
VERTEX
  5
1A6
  8
0
 10
1.311768456561125
 20
0.8157100446467756
 30
0.0
 42
0.0054542079961427
  0
VERTEX
  5
1A7
  8
0
 10
1.293661670345529
 20
0.8441320058173477
 30
0.0
 42
0.0453438381185913
  0
VERTEX
  5
1A8
  8
0
 10
1.357117527835209
 20
0.9283682486415235
 30
0.0
 42
0.0054542079961427
  0
VERTEX
  5
1A9
  8
0
 10
1.336542324000352
 20
0.9577526849865874
 30
0.0
 42
0.0453438381185909
  0
VERTEX
  5
1AA
  8
0
 10
1.23568296674227
 20
0.9269341758018327
 30
0.0
 42
0.0054542079961414
  0
VERTEX
  5
1AB
  8
0
 10
1.215167945178647
 20
0.9536698724279329
 30
0.0
 42
0.0453438381185911
  0
VERTEX
  5
1AC
  8
0
 10
1.2710406616631169
 20
1.0431161133077469
 30
0.0
 42
0.0054542079961452
  0
VERTEX
  5
1AD
  8
0
 10
1.2479827303158
 20
1.070595485828703
 30
0.0
 42
0.0453438381185909
  0
VERTEX
  5
1AE
  8
0
 10
1.1501931834207311
 20
1.0311037781808801
 30
0.0
 42
0.0054542079961414
  0
VERTEX
  5
1AF
  8
0
 10
1.1274260582104869
 20
1.0559497354677281
 30
0.0
 42
0.0453438381185913
  0
VERTEX
  5
1B0
  8
0
 10
1.175290408580435
 20
1.1499252345009701
 30
0.0
 42
0.0054542079961452
  0
VERTEX
  5
1B1
  8
0
 10
1.1499252345009701
 20
1.175290408580435
 30
0.0
 42
0.0453438381185909
  0
VERTEX
  5
1B2
  8
0
 10
1.0559497354677281
 20
1.1274260582104869
 30
0.0
 42
0.0054542079961427
  0
VERTEX
  5
1B3
  8
0
 10
1.0311037781808801
 20
1.1501931834207311
 30
0.0
 42
0.0453438381185909
  0
VERTEX
  5
1B4
  8
0
 10
1.070595485828703
 20
1.2479827303158011
 30
0.0
 42
0.0054542079961427
  0
VERTEX
  5
1B5
  8
0
 10
1.0431161133077469
 20
1.271040661663118
 30
0.0
 42
0.0453438381185913
  0
VERTEX
  5
1B6
  8
0
 10
0.9536698724279323
 20
1.2151679451786459
 30
0.0
 42
0.0054542079961427
  0
VERTEX
  5
1B7
  8
0
 10
0.9269341758018331
 20
1.2356829667422711
 30
0.0
 42
0.0453438381185906
  0
VERTEX
  5
1B8
  8
0
 10
0.9577526849865871
 20
1.336542324000352
 30
0.0
 42
0.0054542079961452
  0
VERTEX
  5
1B9
  8
0
 10
0.9283682486415228
 20
1.357117527835209
 30
0.0
 42
0.0453438381185911
  0
VERTEX
  5
1BA
  8
0
 10
0.8441320058173472
 20
1.293661670345529
 30
0.0
 42
0.0054542079961427
  0
VERTEX
  5
1BB
  8
0
 10
0.8157100446467756
 20
1.3117684565611261
 30
0.0
 42
0.0453438381185909
  0
VERTEX
  5
1BC
  8
0
 10
0.83762080790484
 20
1.4149300235729401
 30
0.0
 42
0.0054542079961427
  0
VERTEX
  5
1BD
  8
0
 10
0.8065549410390609
 20
1.432865910170507
 30
0.0
 42
0.0453438381185906
  0
VERTEX
  5
1BE
  8
0
 10
0.7281697849416512
 20
1.3623098490668091
 30
0.0
 42
0.0054542079961414
  0
VERTEX
  5
1BF
  8
0
 10
0.6982778675127647
 20
1.3778705963581011
 30
0.0
 42
0.0453438381185909
  0
VERTEX
  5
1C0
  8
0
 10
0.7111141307056647
 20
1.4825492513080309
 30
0.0
 42
0.0054542079961427
  0
VERTEX
  5
1C1
  8
0
 10
0.6786032633241033
 20
1.497709317741315
 30
0.0
 42
0.0453438381185906
  0
VERTEX
  5
1C2
  8
0
 10
0.6066657523216116
 20
1.4205900272515131
 30
0.0
 42
0.0054542079961427
  0
VERTEX
  5
1C3
  8
0
 10
0.5755313741752776
 20
1.433486308935777
 30
0.0
 42
0.0453438381185913
  0
VERTEX
  5
1C4
  8
0
 10
0.5791954455893678
 20
1.5388853840529551
 30
0.0
 42
0.0054542079961452
  0
VERTEX
  5
1C5
  8
0
 10
0.5454870050233954
 20
1.5511542530625011
 30
0.0
 42
0.0453438381185911
  0
VERTEX
  5
1C6
  8
0
 10
0.4805446270116078
 20
1.468058657553122
 30
0.0
 42
0.0054542079961427
  0
VERTEX
  5
1C7
  8
0
 10
0.4484047395649712
 20
1.478192325139754
 30
0.0
 42
0.0453438381185909
  0
VERTEX
  5
1C8
  8
0
 10
0.4428687334043636
 20
1.583509669820836
 30
0.0
 42
0.0054542079961427
  0
VERTEX
  5
1C9
  8
0
 10
0.4082192612404009
 20
1.592793967905334
 30
0.0
 42
0.0453438381185909
  0
VERTEX
  5
1CA
  8
0
 10
0.3507662669292668
 20
1.5043544750326989
 30
0.0
 42
0.0054542079961427
  0
VERTEX
  5
1CB
  8
0
 10
0.3178654741323912
 20
1.5116484051924881
 30
0.0
 42
0.0453438381185909
  0
VERTEX
  5
1CC
  8
0
 10
0.3031715227466999
 20
1.616082490852099
 30
0.0
 42
0.0054542079961427
  0
VERTEX
  5
1CD
  8
0
 10
0.2678447223898376
 20
1.6223115588971151
 30
0.0
 42
0.0453438381185906
  0
VERTEX
  5
1CE
  8
0
 10
0.2183183637571312
 20
1.529201246603209
 30
0.0
 42
0.0054542079961401
  0
VERTEX
  5
1CF
  8
0
 10
0.1849070605092429
 20
1.533599928123444
 30
0.0
 42
0.0453438381185909
  0
VERTEX
  5
1D0
  8
0
 10
0.1611669937409632
 20
1.63635594831069
 30
0.0
 42
0.0054542079961427
  0
VERTEX
  5
1D1
  8
0
 10
0.1254317234728221
 20
1.639482379347188
 30
0.0
 42
0.0453438381185911
  0
VERTEX
  5
1D2
  8
0
 10
0.0842089260125718
 20
1.542409873330111
 30
0.0
 42
0.0054542079961401
  0
VERTEX
  5
1D3
  8
0
 10
0.0505413925056832
 20
1.543879829588426
 30
0.0
 42
0.0453438381185909
  0
VERTEX
  5
1D4
  8
0
 10
0.0179358865975664
 20
1.6441757489439011
 30
0.0
 42
0.0054542079961452
  0
VERTEX
  5
1D5
  8
0
 10
-0.0179358865975666
 20
1.6441757489439011
 30
0.0
 42
0.0453438381185909
  0
VERTEX
  5
1D6
  8
0
 10
-0.0505413925056833
 20
1.543879829588426
 30
0.0
 42
0.0054542079961414
  0
VERTEX
  5
1D7
  8
0
 10
-0.0842089260125716
 20
1.542409873330111
 30
0.0
 42
0.0453438381185909
  0
VERTEX
  5
1D8
  8
0
 10
-0.1254317234728225
 20
1.6394823793471871
 30
0.0
 42
0.0054542079961427
  0
SEQEND
  5
BA
  8
0
  0
CIRCLE
  5
1DA
  8
0
 10
-0.0000000000000002
 20
0.0
 30
0.0
 40
0.1249999999999999
  0
CIRCLE
  5
1DB
  8
0
 10
-0.0000000000000003
 20
0.5175987694207873
 30
0.0
 40
0.0730000000000001
  0
CIRCLE
  5
1DC
  8
0
 10
-0.0000000000000001
 20
-0.5175987694207873
 30
0.0
 40
0.0730000000000001
  0
CIRCLE
  5
1DD
  8
0
 10
0.5175987694207871
 20
0.0
 30
0.0
 40
0.0730000000000001
  0
CIRCLE
  5
1DE
  8
0
 10
-0.5175987694207875
 20
-0.0000000000000001
 30
0.0
 40
0.0730000000000001
  0
ENDSEC
  0
EOF
