  0
SECTION
  2
HEADER
  9
$ACADVER
  1
AC1009
  9
$INSBASE
 10
0.0
 20
0.0
 30
0.0
  9
$EXTMIN
 10
0.0
 20
0.0
 30
0.0
  9
$EXTMAX
 10
9.3293873919943682
 20
4.4247915714601476
 30
0.0
  9
$LIMMIN
 10
0.0
 20
0.0
  9
$LIMMAX
 10
9.3293873919943682
 20
4.4247915714601476
  9
$ORTHOMODE
 70
     0
  9
$REGENMODE
 70
     1
  9
$FILLMODE
 70
     1
  9
$QTEXTMODE
 70
     0
  9
$MIRRTEXT
 70
     0
  9
$DRAGMODE
 70
     2
  9
$LTSCALE
 40
1.0
  9
$OSMODE
 70
     0
  9
$ATTMODE
 70
     1
  9
$TEXTSIZE
 40
0.2
  9
$TRACEWID
 40
0.05
  9
$TEXTSTYLE
  7
STANDARD
  9
$CLAYER
  8
0
  9
$CELTYPE
  6
BYLAYER
  9
$CECOLOR
 62
   256
  9
$DIMSCALE
 40
1.0
  9
$DIMASZ
 40
0.0708661417322835
  9
$DIMEXO
 40
0.0625
  9
$DIMDLI
 40
0.38
  9
$DIMRND
 40
0.0
  9
$DIMDLE
 40
0.0
  9
$DIMEXE
 40
0.18
  9
$DIMTP
 40
0.0
  9
$DIMTM
 40
0.0
  9
$DIMTXT
 40
0.0708661417322835
  9
$DIMCEN
 40
0.09
  9
$DIMTSZ
 40
0.0
  9
$DIMTOL
 70
     0
  9
$DIMLIM
 70
     0
  9
$DIMTIH
 70
     1
  9
$DIMTOH
 70
     1
  9
$DIMSE1
 70
     0
  9
$DIMSE2
 70
     0
  9
$DIMTAD
 70
     0
  9
$DIMZIN
 70
     0
  9
$DIMBLK
  1

  9
$DIMASO
 70
     1
  9
$DIMSHO
 70
     1
  9
$DIMPOST
  1

  9
$DIMAPOST
  1

  9
$DIMALT
 70
     0
  9
$DIMALTD
 70
     2
  9
$DIMALTF
 40
25.399999999999999
  9
$DIMLFAC
 40
1.0
  9
$DIMTOFL
 70
     0
  9
$DIMTVP
 40
0.0
  9
$DIMTIX
 70
     0
  9
$DIMSOXD
 70
     0
  9
$DIMSAH
 70
     0
  9
$DIMBLK1
  1

  9
$DIMBLK2
  1

  9
$DIMSTYLE
  2
STANDARD
  9
$DIMCLRD
 70
     0
  9
$DIMCLRE
 70
     0
  9
$DIMCLRT
 70
     0
  9
$DIMTFAC
 40
1.0
  9
$DIMGAP
 40
0.09
  9
$LUNITS
 70
     2
  9
$LUPREC
 70
     4
  9
$SKETCHINC
 40
0.1
  9
$FILLETRAD
 40
0.0
  9
$AUNITS
 70
     0
  9
$AUPREC
 70
     0
  9
$MENU
  1
.
  9
$ELEVATION
 40
0.0
  9
$PELEVATION
 40
0.0
  9
$THICKNESS
 40
0.0
  9
$LIMCHECK
 70
     0
  9
$BLIPMODE
 70
     0
  9
$CHAMFERA
 40
0.0
  9
$CHAMFERB
 40
0.0
  9
$SKPOLY
 70
     0
  9
$TDCREATE
 40
2456846.8375901971
  9
$TDUPDATE
 40
2456846.8375901971
  9
$TDINDWG
 40
0.0000063657
  9
$TDUSRTIMER
 40
0.0000063657
  9
$USRTIMER
 70
     1
  9
$ANGBASE
 50
0.0
  9
$ANGDIR
 70
     0
  9
$PDMODE
 70
     0
  9
$PDSIZE
 40
0.0
  9
$PLINEWID
 40
0.0
  9
$COORDS
 70
     0
  9
$SPLFRAME
 70
     0
  9
$SPLINETYPE
 70
     6
  9
$SPLINESEGS
 70
     8
  9
$ATTDIA
 70
     0
  9
$ATTREQ
 70
     1
  9
$HANDLING
 70
     1
  9
$HANDSEED
  5
28D
  9
$SURFTAB1
 70
     6
  9
$SURFTAB2
 70
     6
  9
$SURFTYPE
 70
     6
  9
$SURFU
 70
     6
  9
$SURFV
 70
     6
  9
$UCSNAME
  2

  9
$UCSORG
 10
0.0
 20
0.0
 30
0.0
  9
$UCSXDIR
 10
1.0
 20
0.0
 30
0.0
  9
$UCSYDIR
 10
0.0
 20
1.0
 30
0.0
  9
$PUCSNAME
  2

  9
$PUCSORG
 10
0.0
 20
0.0
 30
0.0
  9
$PUCSXDIR
 10
1.0
 20
0.0
 30
0.0
  9
$PUCSYDIR
 10
0.0
 20
1.0
 30
0.0
  9
$USERI1
 70
     0
  9
$USERI2
 70
     0
  9
$USERI3
 70
     0
  9
$USERI4
 70
     0
  9
$USERI5
 70
     0
  9
$USERR1
 40
0.0
  9
$USERR2
 40
0.0
  9
$USERR3
 40
0.0
  9
$USERR4
 40
0.0
  9
$USERR5
 40
0.0
  9
$WORLDVIEW
 70
     1
  9
$SHADEDGE
 70
     3
  9
$SHADEDIF
 70
    70
  9
$TILEMODE
 70
     1
  9
$MAXACTVP
 70
    64
  9
$PLIMCHECK
 70
     0
  9
$PEXTMIN
 10
0.0
 20
0.0
 30
0.0
  9
$PEXTMAX
 10
9.3293873919943682
 20
4.4247915714601476
 30
0.0
  9
$PLIMMIN
 10
0.0
 20
0.0
  9
$PLIMMAX
 10
9.3293873919943682
 20
4.4247915714601476
  9
$UNITMODE
 70
     0
  9
$VISRETAIN
 70
     1
  9
$PLINEGEN
 70
     0
  9
$PSLTSCALE
 70
     1
  0
ENDSEC
  0
SECTION
  2
TABLES
  0
TABLE
  2
VPORT
 70
     1
  0
VPORT
  2
*ACTIVE
 70
     0
 10
0.0
 20
0.0
 11
1.0
 21
1.0
 12
-1.7406306232103179
 22
0.0000000000000004
 13
0.0
 23
0.0
 14
1.0
 24
1.0
 15
0.0
 25
0.0
 16
0.0
 26
0.0
 36
1.0
 17
0.0
 27
0.0
 37
0.0
 40
4.4247915714601476
 41
2.1084354463538579
 42
50.0
 43
0.0
 44
0.0
 50
0.0
 51
0.0
 71
     0
 72
   100
 73
     1
 74
     1
 75
     0
 76
     0
 77
     0
 78
     0
  0
ENDTAB
  0
TABLE
  2
LTYPE
 70
    59
  0
LTYPE
  2
CONTINUOUS
 70
     0
  3
Solid line
 72
    65
 73
     0
 40
0.0
  0
LTYPE
  2
PHANTOM2
 70
     0
  3
Phantom (.5x) ___ _ _ ___ _ _ ___ _ _ ___ _ _
 72
    65
 73
     6
 40
1.25
 49
0.625
 49
-0.125
 49
0.125
 49
-0.125
 49
0.125
 49
-0.125
  0
LTYPE
  2
BY_STANDARD
 70
     0
  3
By Standard ____________    ____    ____   _
 72
    65
 73
     6
 40
1.2402999999999991
 49
0.6614
 49
-0.0827
 49
0.1654
 49
-0.0827
 49
0.1654
 49
-0.0827
  0
LTYPE
  2
CHAIN
 70
     0
  3
Chain ____ _ ____ _ ____ _ ____ _ ____ _ ____
 72
    65
 73
     4
 40
0.7087
 49
0.4724000000000001
 49
-0.0591
 49
0.1181
 49
-0.0591
  0
LTYPE
  2
DASH_DOT
 70
     0
  3
Dash dot __ . __ . __ . __ . __ . __ . __ . __
 72
    65
 73
     4
 40
0.37
 49
0.24
 49
-0.06
 49
0.01
 49
-0.06
  0
LTYPE
  2
DOUBLE_DASH_DOT
 70
     0
  3
Double-Dash Dot __ __ . __ __ . __ __ . __ _
 72
    65
 73
     6
 40
0.4398
 49
0.24
 49
-0.06
 49
0.0098
 49
-0.06
 49
0.01
 49
-0.06
  0
LTYPE
  2
DASH_TRIPLE_DOT
 70
     0
  3
Dash Triple-Dot _ . . . _ . . . _ . . . _
 72
    65
 73
     8
 40
0.51
 49
0.24
 49
-0.06
 49
0.01
 49
-0.06
 49
0.01
 49
-0.06
 49
0.01
 49
-0.06
  0
LTYPE
  2
DASHED
 70
     0
  3
Dashed __ __ __ __ __ __ __ __ __ __ __ __ __ _
 72
    65
 73
     2
 40
0.2067
 49
0.1654
 49
-0.0413
  0
LTYPE
  2
DASH_DOUBLE_DOT
 70
     0
  3
Dash Double-Dot __ . . __ . . __ . . __ . .
 72
    65
 73
     6
 40
0.4398
 49
0.24
 49
-0.06
 49
0.0098
 49
-0.06
 49
0.01
 49
-0.06
  0
LTYPE
  2
DASHED_SPACE
 70
     0
  3
Dashed Space __ __ __ __ __ __ __ __ __ __ __ _
 72
    65
 73
     2
 40
0.2067
 49
0.1654
 49
-0.0413
  0
LTYPE
  2
DOTTED
 70
     0
  3
Dotted . . . . . . . . . . . . . . . . . . . . 
 72
    65
 73
     2
 40
0.0482
 49
0.0069
 49
-0.0413
  0
LTYPE
  2
DOUBLE_DASH_CHAIN
 70
     0
  3
Double-Dash Chain ______  __  __  ______  __  _
 72
    65
 73
     6
 40
1.2402999999999991
 49
0.6614
 49
-0.0827
 49
0.1654
 49
-0.0827
 49
0.1654
 49
-0.0827
  0
LTYPE
  2
DOUBLE_DASH_DOUBLE_DOT
 70
     0
  3
Double-Dash Double-dot _ _ . . _ _ . . _
 72
    65
 73
     8
 40
0.7400000000000001
 49
0.24
 49
-0.06
 49
0.24
 49
-0.06
 49
0.01
 49
-0.06
 49
0.01
 49
-0.06
  0
LTYPE
  2
DOUBLE_DASH_TRIPLE_DOT
 70
     0
  3
Double Dash Triple Dot __ __ . . . __ __ . .
 72
    65
 73
    10
 40
0.8100000000000001
 49
0.24
 49
-0.06
 49
0.24
 49
-0.06
 49
0.01
 49
-0.06
 49
0.01
 49
-0.06
 49
0.01
 49
-0.06
  0
LTYPE
  2
LONG_DASH_DOTTED
 70
     0
  3
Long Dash Dotted ____ . ____ . ____ . ____ . _
 72
    65
 73
     4
 40
0.3543
 49
0.2362
 49
-0.0295
 49
0.0591
 49
-0.0295
  0
LTYPE
  2
LONG_DASH_DOUBLE_DOT
 70
     0
  3
Long Dash Double Dot ________  .  .  ________  
 72
    65
 73
     6
 40
0.6799999999999999
 49
0.48
 49
-0.06
 49
0.01
 49
-0.06
 49
0.01
 49
-0.06
  0
LTYPE
  2
LONG_DASH_TRIPLE_DOT
 70
     0
  3
Long Dash Triple Dot ____ ... ____ ... ____
 72
    65
 73
     8
 40
0.3689
 49
0.2362
 49
-0.0295
 49
0.0049
 49
-0.0295
 49
0.0049
 49
-0.0295
 49
0.0049
 49
-0.0295
  0
LTYPE
  2
BORDER
 70
     0
  3
Border __ __ . __ __ . __ __ . __ __ . __ __ .
 72
    65
 73
     6
 40
1.75
 49
0.5
 49
-0.25
 49
0.5
 49
-0.25
 49
0.0
 49
-0.25
  0
LTYPE
  2
BORDER2
 70
     0
  3
Border (.5x) __.__.__.__.__.__.__.__.__.__.__.
 72
    65
 73
     6
 40
0.875
 49
0.25
 49
-0.125
 49
0.25
 49
-0.125
 49
0.0
 49
-0.125
  0
LTYPE
  2
BORDERX2
 70
     0
  3
Border (2x) ____  ____  .  ____  ____  .  ___
 72
    65
 73
     6
 40
3.5
 49
1.0
 49
-0.5
 49
1.0
 49
-0.5
 49
0.0
 49
-0.5
  0
LTYPE
  2
CENTER
 70
     0
  3
Center ____ _ ____ _ ____ _ ____ _ ____ _ ____
 72
    65
 73
     4
 40
2.0
 49
1.25
 49
-0.25
 49
0.25
 49
-0.25
  0
LTYPE
  2
CENTER2
 70
     0
  3
Center (.5x) ___ _ ___ _ ___ _ ___ _ ___ _ ___
 72
    65
 73
     4
 40
1.125
 49
0.75
 49
-0.125
 49
0.125
 49
-0.125
  0
LTYPE
  2
CENTERX2
 70
     0
  3
Center (2x) ________  __  ________  __  _____
 72
    65
 73
     4
 40
4.0
 49
2.5
 49
-0.5
 49
0.5
 49
-0.5
  0
LTYPE
  2
DASHDOT2
 70
     0
  3
Dash dot (.5x) _._._._._._._._._._._._._._._.
 72
    65
 73
     4
 40
0.5
 49
0.25
 49
-0.125
 49
0.0
 49
-0.125
  0
LTYPE
  2
DASHDOTX2
 70
     0
  3
Dash dot (2x) ____  .  ____  .  ____  .  ___
 72
    65
 73
     4
 40
2.0
 49
1.0
 49
-0.5
 49
0.0
 49
-0.5
  0
LTYPE
  2
DASHED2
 70
     0
  3
Dashed (.5x) _ _ _ _ _ _ _ _ _ _ _ _ _ _ _ _ _
 72
    65
 73
     2
 40
0.375
 49
0.25
 49
-0.125
  0
LTYPE
  2
DASHEDX2
 70
     0
  3
Dashed (2x) ____  ____  ____  ____  ____  ___
 72
    65
 73
     2
 40
1.5
 49
1.0
 49
-0.5
  0
LTYPE
  2
DIVIDE
 70
     0
  3
Divide ____ . . ____ . . ____ . . ____ . . ____
 72
    65
 73
     6
 40
1.25
 49
0.5
 49
-0.25
 49
0.0
 49
-0.25
 49
0.0
 49
-0.25
  0
LTYPE
  2
DIVIDE2
 70
     0
  3
Divide (.5x) __..__..__..__..__..__..__..__.._
 72
    65
 73
     6
 40
0.625
 49
0.25
 49
-0.125
 49
0.0
 49
-0.125
 49
0.0
 49
-0.125
  0
LTYPE
  2
DIVIDEX2
 70
     0
  3
Divide (2x) ________  .  .  ________  .  .  _
 72
    65
 73
     6
 40
2.5
 49
1.0
 49
-0.5
 49
0.0
 49
-0.5
 49
0.0
 49
-0.5
  0
LTYPE
  2
DOT
 70
     0
  3
Dot . . . . . . . . . . . . . . . . . . . . . .
 72
    65
 73
     2
 40
0.25
 49
0.0
 49
-0.25
  0
LTYPE
  2
DOT2
 70
     0
  3
Dot (.5x) .....................................
 72
    65
 73
     2
 40
0.125
 49
0.0
 49
-0.125
  0
LTYPE
  2
DOTX2
 70
     0
  3
Dot (2x) .  .  .  .  .  .  .  .  .  .  .  .  . 
 72
    65
 73
     2
 40
0.5
 49
0.0
 49
-0.5
  0
LTYPE
  2
HIDDEN
 70
     0
  3
Hidden __ __ __ __ __ __ __ __ __ __ __ __ __ _
 72
    65
 73
     2
 40
0.375
 49
0.25
 49
-0.125
  0
LTYPE
  2
HIDDEN2
 70
     0
  3
Hidden (.5x) _ _ _ _ _ _ _ _ _ _ _ _ _ _ _ _ _
 72
    65
 73
     2
 40
0.1875
 49
0.125
 49
-0.0625
  0
LTYPE
  2
HIDDENX2
 70
     0
  3
Hidden (2x) ____ ____ ____ ____ ____ ____ ____
 72
    65
 73
     2
 40
0.75
 49
0.5
 49
-0.25
  0
LTYPE
  2
PHANTOM
 70
     0
  3
Phantom ______  __  __  ______  __  __  ______
 72
    65
 73
     6
 40
2.5
 49
1.25
 49
-0.25
 49
0.25
 49
-0.25
 49
0.25
 49
-0.25
  0
LTYPE
  2
PHANTOMX2
 70
     0
  3
Phantom (2x) ____________    ____    ____   _
 72
    65
 73
     6
 40
5.0
 49
2.5
 49
-0.5
 49
0.5
 49
-0.5
 49
0.5
 49
-0.5
  0
LTYPE
  2
ACAD_ISO02W100
 70
     0
  3
ISO dash __ __ __ __ __ __ __ __ __ __ __ __ __
 72
    65
 73
     2
 40
0.59
 49
0.47
 49
-0.12
  0
LTYPE
  2
ACAD_ISO03W100
 70
     0
  3
ISO dash space __    __    __    __    __    __
 72
    65
 73
     2
 40
1.179999999999999
 49
0.47
 49
-0.71
  0
LTYPE
  2
ACAD_ISO04W100
 70
     0
  3
ISO long-dash dot ____ . ____ . ____ . ____ . _
 72
    65
 73
     4
 40
1.179999999999999
 49
0.9399999999999998
 49
-0.12
 49
0.0
 49
-0.12
  0
LTYPE
  2
ACAD_ISO05W100
 70
     0
  3
ISO long-dash double-dot ____ .. ____ .. ____ .
 72
    65
 73
     6
 40
1.2999999999999989
 49
0.9399999999999998
 49
-0.12
 49
0.0
 49
-0.12
 49
0.0
 49
-0.12
  0
LTYPE
  2
ACAD_ISO06W100
 70
     0
  3
ISO long-dash triple-dot ____ ... ____ ... ____
 72
    65
 73
     8
 40
1.419999999999999
 49
0.9399999999999998
 49
-0.12
 49
0.0
 49
-0.12
 49
0.0
 49
-0.12
 49
0.0
 49
-0.12
  0
LTYPE
  2
ACAD_ISO07W100
 70
     0
  3
ISO dot . . . . . . . . . . . . . . . . . . . .
 72
    65
 73
     2
 40
0.12
 49
0.0
 49
-0.12
  0
LTYPE
  2
ACAD_ISO08W100
 70
     0
  3
ISO long-dash short-dash ____ __ ____ __ ____ _
 72
    65
 73
     4
 40
0.95
 49
0.47
 49
-0.12
 49
0.24
 49
-0.12
  0
LTYPE
  2
ACAD_ISO09W100
 70
     0
  3
ISO long-dash double-short-dash ____ __ __ ____
 72
    65
 73
     6
 40
1.3100000000000001
 49
0.47
 49
-0.12
 49
0.24
 49
-0.12
 49
0.24
 49
-0.12
  0
LTYPE
  2
ACAD_ISO10W100
 70
     0
  3
ISO dash dot __ . __ . __ . __ . __ . __ . __ .
 72
    65
 73
     4
 40
0.71
 49
0.47
 49
-0.12
 49
0.0
 49
-0.12
  0
LTYPE
  2
ACAD_ISO11W100
 70
     0
  3
ISO double-dash dot __ __ . __ __ . __ __ . __ 
 72
    65
 73
     6
 40
1.2999999999999989
 49
0.47
 49
-0.12
 49
0.47
 49
-0.12
 49
0.0
 49
-0.12
  0
LTYPE
  2
ACAD_ISO12W100
 70
     0
  3
ISO dash double-dot __ . . __ . . __ . . __ . .
 72
    65
 73
     6
 40
0.8299999999999999
 49
0.47
 49
-0.12
 49
0.0
 49
-0.12
 49
0.0
 49
-0.12
  0
LTYPE
  2
ACAD_ISO13W100
 70
     0
  3
ISO double-dash double-dot __ __ . . __ __ . . 
 72
    65
 73
     8
 40
1.419999999999999
 49
0.47
 49
-0.12
 49
0.47
 49
-0.12
 49
0.0
 49
-0.12
 49
0.0
 49
-0.12
  0
LTYPE
  2
ACAD_ISO14W100
 70
     0
  3
ISO dash triple-dot __ . . . __ . . . __ . . . 
 72
    65
 73
     8
 40
0.95
 49
0.47
 49
-0.12
 49
0.0
 49
-0.12
 49
0.0
 49
-0.12
 49
0.0
 49
-0.12
  0
LTYPE
  2
ACAD_ISO15W100
 70
     0
  3
ISO double-dash triple-dot __ __ . . . __ __ . 
 72
    65
 73
    10
 40
1.5399999999999989
 49
0.47
 49
-0.12
 49
0.47
 49
-0.12
 49
0.0
 49
-0.12
 49
0.0
 49
-0.12
 49
0.0
 49
-0.12
  0
LTYPE
  2
FENCELINE1
 70
     0
  3
Fenceline circle ----0-----0----0-----0----0---
 72
    65
 73
     4
 40
1.45
 49
0.25
 49
-0.1
 49
-0.1
 49
1.0
  0
LTYPE
  2
FENCELINE2
 70
     0
  3
Fenceline square ----[]-----[]----[]-----[]----
 72
    65
 73
     4
 40
1.45
 49
0.25
 49
-0.1
 49
-0.1
 49
1.0
  0
LTYPE
  2
TRACKS
 70
     0
  3
Tracks -|-|-|-|-|-|-|-|-|-|-|-|-|-|-|-|-|-|-|-|
 72
    65
 73
     2
 40
0.3
 49
0.15
 49
0.15
  0
LTYPE
  2
BATTING
 70
     0
  3
Batting SSSSSSSSSSSSSSSSSSSSSSSSSSSSSSSSSSSSSSS
 72
    65
 73
     4
 40
0.4001000000000001
 49
0.0001
 49
-0.1
 49
-0.2
 49
-0.1
  0
LTYPE
  2
HOT_WATER_SUPPLY
 70
     0
  3
Hot water supply ---- HW ---- HW ---- HW ----
 72
    65
 73
     3
 40
0.9
 49
0.5
 49
-0.2
 49
-0.2
  0
LTYPE
  2
GAS_LINE
 70
     0
  3
Gas line ----GAS----GAS----GAS----GAS----GAS---
 72
    65
 73
     3
 40
0.95
 49
0.5
 49
-0.2
 49
-0.25
  0
LTYPE
  2
ZIGZAG
 70
     0
  3
Zig zag /\/\/\/\/\/\/\/\/\/\/\/\/\/\/\/\/\/\/\/
 72
    65
 73
     4
 40
0.8001000000000001
 49
0.0001
 49
-0.2
 49
-0.4
 49
-0.2
  0
ENDTAB
  0
TABLE
  2
LAYER
 70
     1
  0
LAYER
  2
0
 70
     0
 62
     7
  6
CONTINUOUS
  0
ENDTAB
  0
TABLE
  2
STYLE
 70
     3
  0
STYLE
  2
STANDARD
 70
     0
 40
0.0
 41
1.0
 50
0.0
 71
     0
 42
0.2
  3
txt
  4

  0
STYLE
  2
ANNOTATIVE
 70
     0
 40
0.0
 41
1.0
 50
0.0
 71
     0
 42
0.2
  3
txt
  4

  0
STYLE
  2

 70
     1
 40
0.0
 41
1.0
 50
0.0
 71
     0
 42
0.2
  3
ltypeshp.shx
  4

  0
ENDTAB
  0
TABLE
  2
VIEW
 70
     0
  0
ENDTAB
  0
TABLE
  2
UCS
 70
     0
  0
ENDTAB
  0
TABLE
  2
APPID
 70
     3
  0
APPID
  2
ACAD
 70
     0
  0
APPID
  2
ACADANNOTATIVE
 70
     0
  0
APPID
  2
ACAD_MLEADERVER
 70
     0
  0
ENDTAB
  0
TABLE
  2
DIMSTYLE
 70
     2
  0
DIMSTYLE
  2
STANDARD
 70
     0
  3

  4

  5

  6

  7

 40
1.0
 41
0.18
 42
0.0625
 43
0.38
 44
0.18
 45
0.0
 46
0.0
 47
0.0
 48
0.0
140
0.18
141
0.09
142
0.0
143
25.399999999999999
144
1.0
145
0.0
146
1.0
147
0.09
 71
     0
 72
     0
 73
     1
 74
     1
 75
     0
 76
     0
 77
     0
 78
     0
170
     0
171
     2
172
     0
173
     0
174
     0
175
     0
176
     0
177
     0
178
     0
  0
DIMSTYLE
  2
ANNOTATIVE
 70
     0
  3

  4

  5

  6

  7

 40
1.0
 41
0.18
 42
0.0625
 43
0.38
 44
0.18
 45
0.0
 46
0.0
 47
0.0
 48
0.0
140
0.18
141
0.09
142
0.0
143
25.399999999999999
144
1.0
145
0.0
146
1.0
147
0.09
 71
     0
 72
     0
 73
     1
 74
     1
 75
     0
 76
     0
 77
     0
 78
     0
170
     0
171
     2
172
     0
173
     0
174
     0
175
     0
176
     0
177
     0
178
     0
  0
ENDTAB
  0
ENDSEC
  0
SECTION
  2
BLOCKS
  0
BLOCK
  8
0
  2
$MODEL_SPACE
 70
     0
 10
0.0
 20
0.0
 30
0.0
  3
$MODEL_SPACE
  1

  0
ENDBLK
  5
73
  8
0
  0
BLOCK
 67
     1
  8
0
  2
$PAPER_SPACE
 70
     0
 10
0.0
 20
0.0
 30
0.0
  3
$PAPER_SPACE
  1

  0
ENDBLK
  5
6F
 67
     1
  8
0
  0
ENDSEC
  0
SECTION
  2
ENTITIES
  0
POLYLINE
  5
B7
  8
0
 66
     1
 10
0.0
 20
0.0
 30
0.0
  0
VERTEX
  5
B8
  8
0
 10
-4.0000000000191651
 20
2.000000000007784
 30
0.0
  0
VERTEX
  5
B9
  8
0
 10
-5.0000000000191562
 20
2.0000000000078231
 30
0.0
  0
VERTEX
  5
BB
  8
0
 10
-5.0000000000191642
 20
1.1249999999999989
 30
0.0
  0
VERTEX
  5
BC
  8
0
 10
-5.7312612480559162
 20
1.1249999999999989
 30
0.0
  0
VERTEX
  5
BD
  8
0
 10
-5.7312612480559109
 20
0.9480000000000273
 30
0.0
  0
VERTEX
  5
BE
  8
0
 10
-5.4812612480559109
 20
0.9480000000000272
 30
0.0
  0
VERTEX
  5
BF
  8
0
 10
-5.4812612480559118
 20
1.0300000000000269
 30
0.0
  0
VERTEX
  5
C0
  8
0
 10
-5.3712612480559123
 20
1.0300000000000269
 30
0.0
  0
VERTEX
  5
C1
  8
0
 10
-5.3712612480559123
 20
0.9480000000000273
 30
0.0
  0
VERTEX
  5
C2
  8
0
 10
-5.2312612480559118
 20
0.9480000000000272
 30
0.0
  0
VERTEX
  5
C3
  8
0
 10
-5.2312612480559268
 20
0.8020000000000431
 30
0.0
  0
VERTEX
  5
C4
  8
0
 10
-5.3712612480559123
 20
0.8020000000000278
 30
0.0
  0
VERTEX
  5
C5
  8
0
 10
-5.3712612480559123
 20
0.7200000000000275
 30
0.0
  0
VERTEX
  5
C6
  8
0
 10
-5.4812612480559118
 20
0.7200000000000278
 30
0.0
  0
VERTEX
  5
C7
  8
0
 10
-5.4812612480559268
 20
0.8020000000000433
 30
0.0
  0
VERTEX
  5
C8
  8
0
 10
-5.7312612480559162
 20
0.8020000000000278
 30
0.0
  0
VERTEX
  5
C9
  8
0
 10
-5.7312612480559162
 20
0.499999999962504
 30
0.0
  0
VERTEX
  5
CA
  8
0
 10
-5.9812612480559162
 20
0.499999999962504
 30
0.0
  0
VERTEX
  5
CB
  8
0
 10
-5.9812612480559162
 20
-0.500000000037561
 30
0.0
  0
VERTEX
  5
CC
  8
0
 10
-5.7312612480559162
 20
-0.500000000037561
 30
0.0
  0
VERTEX
  5
CD
  8
0
 10
-5.7312612480559126
 20
-0.8019999999999659
 30
0.0
  0
VERTEX
  5
CE
  8
0
 10
-5.4812612480559126
 20
-0.801999999999966
 30
0.0
  0
VERTEX
  5
CF
  8
0
 10
-5.4812612480559126
 20
-0.719999999999966
 30
0.0
  0
VERTEX
  5
D0
  8
0
 10
-5.3712612480559132
 20
-0.719999999999966
 30
0.0
  0
VERTEX
  5
D1
  8
0
 10
-5.3712612480559132
 20
-0.8019999999999662
 30
0.0
  0
VERTEX
  5
D2
  8
0
 10
-5.2312612480559126
 20
-0.8019999999999663
 30
0.0
  0
VERTEX
  5
D3
  8
0
 10
-5.2312612480559126
 20
-0.9479999999999661
 30
0.0
  0
VERTEX
  5
D4
  8
0
 10
-5.3712612480559132
 20
-0.9479999999999661
 30
0.0
  0
VERTEX
  5
D5
  8
0
 10
-5.3712612480559132
 20
-1.0299999999999661
 30
0.0
  0
VERTEX
  5
D6
  8
0
 10
-5.4812612480559126
 20
-1.0299999999999661
 30
0.0
  0
VERTEX
  5
D7
  8
0
 10
-5.4812612480559144
 20
-0.9479999999999659
 30
0.0
  0
VERTEX
  5
D8
  8
0
 10
-5.7312612480559126
 20
-0.9479999999999657
 30
0.0
  0
VERTEX
  5
D9
  8
0
 10
-5.7312612480559162
 20
-1.1249999999999989
 30
0.0
  0
VERTEX
  5
DA
  8
0
 10
-5.0000000000191651
 20
-1.1249999999999969
 30
0.0
  0
VERTEX
  5
DB
  8
0
 10
-5.0000000000191571
 20
-2.00000000000782
 30
0.0
  0
VERTEX
  5
DC
  8
0
 10
-4.0000000000191651
 20
-2.0000000000077831
 30
0.0
  0
SEQEND
  5
BA
  8
0
  0
POLYLINE
  5
DE
  8
0
 66
     1
 10
0.0
 20
0.0
 30
0.0
  0
VERTEX
  5
DF
  8
0
 10
-3.040113011225428
 20
-1.124999999999998
 30
0.0
  0
VERTEX
  5
E0
  8
0
 10
0.7312612480559155
 20
-1.125
 30
0.0
  0
VERTEX
  5
E2
  8
0
 10
1.0966437183372899
 20
-0.759617529718625
 30
0.0
  0
VERTEX
  5
E3
  8
0
 10
2.3750000000091318
 20
-0.759617529718631
 30
0.0
  0
VERTEX
  5
E4
  8
0
 10
2.5000000000096119
 20
-0.634617529718142
 30
0.0
  0
VERTEX
  5
E5
  8
0
 10
2.5000000000096141
 20
0.6346175297181267
 30
0.0
  0
VERTEX
  5
E6
  8
0
 10
2.375000000009134
 20
0.7596175297186174
 30
0.0
  0
VERTEX
  5
E7
  8
0
 10
1.0966437183372919
 20
0.7596175297186236
 30
0.0
  0
VERTEX
  5
E8
  8
0
 10
0.7312612480559158
 20
1.1249999999999989
 30
0.0
  0
VERTEX
  5
E9
  8
0
 10
-3.0401130112254271
 20
1.1249999999999989
 30
0.0
  0
SEQEND
  5
E1
  8
0
  0
POLYLINE
  8
0
  5
149
  66
     1
 10
0.000000
 20
0.000000
 30
0.000000
  70
     8
  0
VERTEX
  8
0
  5
14A
 10
-3.04011
 20
1.12500
 30
0.000000
  70
    32
  0
VERTEX
  8
0
  5
14B
 10
-3.04909
 20
1.12513
 30
0.000000
  70
    32
  0
VERTEX
  8
0
  5
14C
 10
-3.05804
 20
1.12527
 30
0.000000
  70
    32
  0
VERTEX
  8
0
  5
14D
 10
-3.06696
 20
1.12542
 30
0.000000
  70
    32
  0
VERTEX
  8
0
  5
14E
 10
-3.07584
 20
1.12557
 30
0.000000
  70
    32
  0
VERTEX
  8
0
  5
14F
 10
-3.08469
 20
1.12574
 30
0.000000
  70
    32
  0
VERTEX
  8
0
  5
150
 10
-3.09351
 20
1.12591
 30
0.000000
  70
    32
  0
VERTEX
  8
0
  5
151
 10
-3.10230
 20
1.12610
 30
0.000000
  70
    32
  0
VERTEX
  8
0
  5
152
 10
-3.11106
 20
1.12631
 30
0.000000
  70
    32
  0
VERTEX
  8
0
  5
153
 10
-3.11978
 20
1.12653
 30
0.000000
  70
    32
  0
VERTEX
  8
0
  5
154
 10
-3.12848
 20
1.12677
 30
0.000000
  70
    32
  0
VERTEX
  8
0
  5
155
 10
-3.13715
 20
1.12704
 30
0.000000
  70
    32
  0
VERTEX
  8
0
  5
156
 10
-3.14579
 20
1.12732
 30
0.000000
  70
    32
  0
VERTEX
  8
0
  5
157
 10
-3.15441
 20
1.12764
 30
0.000000
  70
    32
  0
VERTEX
  8
0
  5
158
 10
-3.16299
 20
1.12797
 30
0.000000
  70
    32
  0
VERTEX
  8
0
  5
159
 10
-3.17155
 20
1.12834
 30
0.000000
  70
    32
  0
VERTEX
  8
0
  5
15A
 10
-3.18008
 20
1.12874
 30
0.000000
  70
    32
  0
VERTEX
  8
0
  5
15B
 10
-3.18858
 20
1.12916
 30
0.000000
  70
    32
  0
VERTEX
  8
0
  5
15C
 10
-3.19706
 20
1.12962
 30
0.000000
  70
    32
  0
VERTEX
  8
0
  5
15D
 10
-3.20551
 20
1.13012
 30
0.000000
  70
    32
  0
VERTEX
  8
0
  5
15E
 10
-3.21394
 20
1.13065
 30
0.000000
  70
    32
  0
VERTEX
  8
0
  5
15F
 10
-3.22234
 20
1.13122
 30
0.000000
  70
    32
  0
VERTEX
  8
0
  5
160
 10
-3.23071
 20
1.13183
 30
0.000000
  70
    32
  0
VERTEX
  8
0
  5
161
 10
-3.23906
 20
1.13248
 30
0.000000
  70
    32
  0
VERTEX
  8
0
  5
162
 10
-3.24738
 20
1.13317
 30
0.000000
  70
    32
  0
VERTEX
  8
0
  5
163
 10
-3.25568
 20
1.13391
 30
0.000000
  70
    32
  0
VERTEX
  8
0
  5
164
 10
-3.26395
 20
1.13469
 30
0.000000
  70
    32
  0
VERTEX
  8
0
  5
165
 10
-3.27220
 20
1.13552
 30
0.000000
  70
    32
  0
VERTEX
  8
0
  5
166
 10
-3.28043
 20
1.13640
 30
0.000000
  70
    32
  0
VERTEX
  8
0
  5
167
 10
-3.28863
 20
1.13733
 30
0.000000
  70
    32
  0
VERTEX
  8
0
  5
168
 10
-3.29680
 20
1.13831
 30
0.000000
  70
    32
  0
VERTEX
  8
0
  5
169
 10
-3.30496
 20
1.13934
 30
0.000000
  70
    32
  0
VERTEX
  8
0
  5
16A
 10
-3.31308
 20
1.14043
 30
0.000000
  70
    32
  0
VERTEX
  8
0
  5
16B
 10
-3.32119
 20
1.14157
 30
0.000000
  70
    32
  0
VERTEX
  8
0
  5
16C
 10
-3.32927
 20
1.14277
 30
0.000000
  70
    32
  0
VERTEX
  8
0
  5
16D
 10
-3.33733
 20
1.14403
 30
0.000000
  70
    32
  0
VERTEX
  8
0
  5
16E
 10
-3.34536
 20
1.14535
 30
0.000000
  70
    32
  0
VERTEX
  8
0
  5
16F
 10
-3.35337
 20
1.14673
 30
0.000000
  70
    32
  0
VERTEX
  8
0
  5
170
 10
-3.36135
 20
1.14817
 30
0.000000
  70
    32
  0
VERTEX
  8
0
  5
171
 10
-3.36931
 20
1.14967
 30
0.000000
  70
    32
  0
VERTEX
  8
0
  5
172
 10
-3.37725
 20
1.15124
 30
0.000000
  70
    32
  0
VERTEX
  8
0
  5
173
 10
-3.38516
 20
1.15287
 30
0.000000
  70
    32
  0
VERTEX
  8
0
  5
174
 10
-3.39305
 20
1.15458
 30
0.000000
  70
    32
  0
VERTEX
  8
0
  5
175
 10
-3.40092
 20
1.15635
 30
0.000000
  70
    32
  0
VERTEX
  8
0
  5
176
 10
-3.40876
 20
1.15819
 30
0.000000
  70
    32
  0
VERTEX
  8
0
  5
177
 10
-3.41657
 20
1.16010
 30
0.000000
  70
    32
  0
VERTEX
  8
0
  5
178
 10
-3.42437
 20
1.16208
 30
0.000000
  70
    32
  0
VERTEX
  8
0
  5
179
 10
-3.43213
 20
1.16414
 30
0.000000
  70
    32
  0
VERTEX
  8
0
  5
17A
 10
-3.43987
 20
1.16627
 30
0.000000
  70
    32
  0
VERTEX
  8
0
  5
17B
 10
-3.44759
 20
1.16847
 30
0.000000
  70
    32
  0
VERTEX
  8
0
  5
17C
 10
-3.45528
 20
1.17075
 30
0.000000
  70
    32
  0
VERTEX
  8
0
  5
17D
 10
-3.46295
 20
1.17311
 30
0.000000
  70
    32
  0
VERTEX
  8
0
  5
17E
 10
-3.47059
 20
1.17555
 30
0.000000
  70
    32
  0
VERTEX
  8
0
  5
17F
 10
-3.47821
 20
1.17806
 30
0.000000
  70
    32
  0
VERTEX
  8
0
  5
180
 10
-3.48580
 20
1.18066
 30
0.000000
  70
    32
  0
VERTEX
  8
0
  5
181
 10
-3.49336
 20
1.18334
 30
0.000000
  70
    32
  0
VERTEX
  8
0
  5
182
 10
-3.50089
 20
1.18610
 30
0.000000
  70
    32
  0
VERTEX
  8
0
  5
183
 10
-3.50840
 20
1.18894
 30
0.000000
  70
    32
  0
VERTEX
  8
0
  5
184
 10
-3.51588
 20
1.19187
 30
0.000000
  70
    32
  0
VERTEX
  8
0
  5
185
 10
-3.52334
 20
1.19488
 30
0.000000
  70
    32
  0
VERTEX
  8
0
  5
186
 10
-3.53076
 20
1.19798
 30
0.000000
  70
    32
  0
VERTEX
  8
0
  5
187
 10
-3.53816
 20
1.20116
 30
0.000000
  70
    32
  0
VERTEX
  8
0
  5
188
 10
-3.54553
 20
1.20443
 30
0.000000
  70
    32
  0
VERTEX
  8
0
  5
189
 10
-3.55287
 20
1.20779
 30
0.000000
  70
    32
  0
VERTEX
  8
0
  5
18A
 10
-3.56017
 20
1.21124
 30
0.000000
  70
    32
  0
VERTEX
  8
0
  5
18B
 10
-3.56745
 20
1.21478
 30
0.000000
  70
    32
  0
VERTEX
  8
0
  5
18C
 10
-3.57470
 20
1.21841
 30
0.000000
  70
    32
  0
VERTEX
  8
0
  5
18D
 10
-3.58192
 20
1.22214
 30
0.000000
  70
    32
  0
VERTEX
  8
0
  5
18E
 10
-3.58910
 20
1.22595
 30
0.000000
  70
    32
  0
VERTEX
  8
0
  5
18F
 10
-3.59626
 20
1.22986
 30
0.000000
  70
    32
  0
VERTEX
  8
0
  5
190
 10
-3.60338
 20
1.23386
 30
0.000000
  70
    32
  0
VERTEX
  8
0
  5
191
 10
-3.61047
 20
1.23796
 30
0.000000
  70
    32
  0
VERTEX
  8
0
  5
192
 10
-3.61752
 20
1.24215
 30
0.000000
  70
    32
  0
VERTEX
  8
0
  5
193
 10
-3.62454
 20
1.24643
 30
0.000000
  70
    32
  0
VERTEX
  8
0
  5
194
 10
-3.63153
 20
1.25082
 30
0.000000
  70
    32
  0
VERTEX
  8
0
  5
195
 10
-3.63848
 20
1.25530
 30
0.000000
  70
    32
  0
VERTEX
  8
0
  5
196
 10
-3.64539
 20
1.25987
 30
0.000000
  70
    32
  0
VERTEX
  8
0
  5
197
 10
-3.65227
 20
1.26455
 30
0.000000
  70
    32
  0
VERTEX
  8
0
  5
198
 10
-3.65911
 20
1.26932
 30
0.000000
  70
    32
  0
VERTEX
  8
0
  5
199
 10
-3.66591
 20
1.27420
 30
0.000000
  70
    32
  0
VERTEX
  8
0
  5
19A
 10
-3.67267
 20
1.27917
 30
0.000000
  70
    32
  0
VERTEX
  8
0
  5
19B
 10
-3.67940
 20
1.28424
 30
0.000000
  70
    32
  0
VERTEX
  8
0
  5
19C
 10
-3.68608
 20
1.28942
 30
0.000000
  70
    32
  0
VERTEX
  8
0
  5
19D
 10
-3.69273
 20
1.29469
 30
0.000000
  70
    32
  0
VERTEX
  8
0
  5
19E
 10
-3.69933
 20
1.30007
 30
0.000000
  70
    32
  0
VERTEX
  8
0
  5
19F
 10
-3.70589
 20
1.30555
 30
0.000000
  70
    32
  0
VERTEX
  8
0
  5
1A0
 10
-3.71240
 20
1.31113
 30
0.000000
  70
    32
  0
VERTEX
  8
0
  5
1A1
 10
-3.71888
 20
1.31681
 30
0.000000
  70
    32
  0
VERTEX
  8
0
  5
1A2
 10
-3.72531
 20
1.32260
 30
0.000000
  70
    32
  0
VERTEX
  8
0
  5
1A3
 10
-3.73169
 20
1.32849
 30
0.000000
  70
    32
  0
VERTEX
  8
0
  5
1A4
 10
-3.73803
 20
1.33449
 30
0.000000
  70
    32
  0
VERTEX
  8
0
  5
1A5
 10
-3.74432
 20
1.34059
 30
0.000000
  70
    32
  0
VERTEX
  8
0
  5
1A6
 10
-3.75056
 20
1.34679
 30
0.000000
  70
    32
  0
VERTEX
  8
0
  5
1A7
 10
-3.75675
 20
1.35310
 30
0.000000
  70
    32
  0
VERTEX
  8
0
  5
1A8
 10
-3.76290
 20
1.35952
 30
0.000000
  70
    32
  0
VERTEX
  8
0
  5
1A9
 10
-3.76899
 20
1.36604
 30
0.000000
  70
    32
  0
VERTEX
  8
0
  5
1AA
 10
-3.77503
 20
1.37266
 30
0.000000
  70
    32
  0
VERTEX
  8
0
  5
1AB
 10
-3.78102
 20
1.37939
 30
0.000000
  70
    32
  0
VERTEX
  8
0
  5
1AC
 10
-3.78695
 20
1.38623
 30
0.000000
  70
    32
  0
VERTEX
  8
0
  5
1AD
 10
-3.79284
 20
1.39317
 30
0.000000
  70
    32
  0
VERTEX
  8
0
  5
1AE
 10
-3.79866
 20
1.40022
 30
0.000000
  70
    32
  0
VERTEX
  8
0
  5
1AF
 10
-3.80443
 20
1.40738
 30
0.000000
  70
    32
  0
VERTEX
  8
0
  5
1B0
 10
-3.81014
 20
1.41464
 30
0.000000
  70
    32
  0
VERTEX
  8
0
  5
1B1
 10
-3.81580
 20
1.42201
 30
0.000000
  70
    32
  0
VERTEX
  8
0
  5
1B2
 10
-3.82139
 20
1.42949
 30
0.000000
  70
    32
  0
VERTEX
  8
0
  5
1B3
 10
-3.82692
 20
1.43707
 30
0.000000
  70
    32
  0
VERTEX
  8
0
  5
1B4
 10
-3.83240
 20
1.44476
 30
0.000000
  70
    32
  0
VERTEX
  8
0
  5
1B5
 10
-3.83781
 20
1.45256
 30
0.000000
  70
    32
  0
VERTEX
  8
0
  5
1B6
 10
-3.84315
 20
1.46046
 30
0.000000
  70
    32
  0
VERTEX
  8
0
  5
1B7
 10
-3.84843
 20
1.46848
 30
0.000000
  70
    32
  0
VERTEX
  8
0
  5
1B8
 10
-3.85365
 20
1.47659
 30
0.000000
  70
    32
  0
VERTEX
  8
0
  5
1B9
 10
-3.85879
 20
1.48482
 30
0.000000
  70
    32
  0
VERTEX
  8
0
  5
1BA
 10
-3.86387
 20
1.49315
 30
0.000000
  70
    32
  0
VERTEX
  8
0
  5
1BB
 10
-3.86888
 20
1.50159
 30
0.000000
  70
    32
  0
VERTEX
  8
0
  5
1BC
 10
-3.87382
 20
1.51013
 30
0.000000
  70
    32
  0
VERTEX
  8
0
  5
1BD
 10
-3.87868
 20
1.51879
 30
0.000000
  70
    32
  0
VERTEX
  8
0
  5
1BE
 10
-3.88348
 20
1.52754
 30
0.000000
  70
    32
  0
VERTEX
  8
0
  5
1BF
 10
-3.88819
 20
1.53641
 30
0.000000
  70
    32
  0
VERTEX
  8
0
  5
1C0
 10
-3.89284
 20
1.54538
 30
0.000000
  70
    32
  0
VERTEX
  8
0
  5
1C1
 10
-3.89740
 20
1.55446
 30
0.000000
  70
    32
  0
VERTEX
  8
0
  5
1C2
 10
-3.90189
 20
1.56364
 30
0.000000
  70
    32
  0
VERTEX
  8
0
  5
1C3
 10
-3.90629
 20
1.57293
 30
0.000000
  70
    32
  0
VERTEX
  8
0
  5
1C4
 10
-3.91062
 20
1.58232
 30
0.000000
  70
    32
  0
VERTEX
  8
0
  5
1C5
 10
-3.91486
 20
1.59182
 30
0.000000
  70
    32
  0
VERTEX
  8
0
  5
1C6
 10
-3.91902
 20
1.60142
 30
0.000000
  70
    32
  0
VERTEX
  8
0
  5
1C7
 10
-3.92309
 20
1.61113
 30
0.000000
  70
    32
  0
VERTEX
  8
0
  5
1C8
 10
-3.92708
 20
1.62094
 30
0.000000
  70
    32
  0
VERTEX
  8
0
  5
1C9
 10
-3.93098
 20
1.63086
 30
0.000000
  70
    32
  0
VERTEX
  8
0
  5
1CA
 10
-3.93479
 20
1.64087
 30
0.000000
  70
    32
  0
VERTEX
  8
0
  5
1CB
 10
-3.93851
 20
1.65100
 30
0.000000
  70
    32
  0
VERTEX
  8
0
  5
1CC
 10
-3.94214
 20
1.66122
 30
0.000000
  70
    32
  0
VERTEX
  8
0
  5
1CD
 10
-3.94567
 20
1.67155
 30
0.000000
  70
    32
  0
VERTEX
  8
0
  5
1CE
 10
-3.94911
 20
1.68197
 30
0.000000
  70
    32
  0
VERTEX
  8
0
  5
1CF
 10
-3.95245
 20
1.69250
 30
0.000000
  70
    32
  0
VERTEX
  8
0
  5
1D0
 10
-3.95569
 20
1.70314
 30
0.000000
  70
    32
  0
VERTEX
  8
0
  5
1D1
 10
-3.95883
 20
1.71387
 30
0.000000
  70
    32
  0
VERTEX
  8
0
  5
1D2
 10
-3.96187
 20
1.72470
 30
0.000000
  70
    32
  0
VERTEX
  8
0
  5
1D3
 10
-3.96481
 20
1.73563
 30
0.000000
  70
    32
  0
VERTEX
  8
0
  5
1D4
 10
-3.96764
 20
1.74666
 30
0.000000
  70
    32
  0
VERTEX
  8
0
  5
1D5
 10
-3.97037
 20
1.75779
 30
0.000000
  70
    32
  0
VERTEX
  8
0
  5
1D6
 10
-3.97299
 20
1.76901
 30
0.000000
  70
    32
  0
VERTEX
  8
0
  5
1D7
 10
-3.97550
 20
1.78034
 30
0.000000
  70
    32
  0
VERTEX
  8
0
  5
1D8
 10
-3.97790
 20
1.79176
 30
0.000000
  70
    32
  0
VERTEX
  8
0
  5
1D9
 10
-3.98019
 20
1.80327
 30
0.000000
  70
    32
  0
VERTEX
  8
0
  5
1DA
 10
-3.98236
 20
1.81488
 30
0.000000
  70
    32
  0
VERTEX
  8
0
  5
1DB
 10
-3.98441
 20
1.82659
 30
0.000000
  70
    32
  0
VERTEX
  8
0
  5
1DC
 10
-3.98635
 20
1.83839
 30
0.000000
  70
    32
  0
VERTEX
  8
0
  5
1DD
 10
-3.98817
 20
1.85028
 30
0.000000
  70
    32
  0
VERTEX
  8
0
  5
1DE
 10
-3.98986
 20
1.86227
 30
0.000000
  70
    32
  0
VERTEX
  8
0
  5
1DF
 10
-3.99144
 20
1.87434
 30
0.000000
  70
    32
  0
VERTEX
  8
0
  5
1E0
 10
-3.99288
 20
1.88651
 30
0.000000
  70
    32
  0
VERTEX
  8
0
  5
1E1
 10
-3.99421
 20
1.89877
 30
0.000000
  70
    32
  0
VERTEX
  8
0
  5
1E2
 10
-3.99540
 20
1.91112
 30
0.000000
  70
    32
  0
VERTEX
  8
0
  5
1E3
 10
-3.99646
 20
1.92356
 30
0.000000
  70
    32
  0
VERTEX
  8
0
  5
1E4
 10
-3.99739
 20
1.93608
 30
0.000000
  70
    32
  0
VERTEX
  8
0
  5
1E5
 10
-3.99819
 20
1.94870
 30
0.000000
  70
    32
  0
VERTEX
  8
0
  5
1E6
 10
-3.99885
 20
1.96139
 30
0.000000
  70
    32
  0
VERTEX
  8
0
  5
1E7
 10
-3.99937
 20
1.97418
 30
0.000000
  70
    32
  0
VERTEX
  8
0
  5
1E8
 10
-3.99976
 20
1.98705
 30
0.000000
  70
    32
  0
VERTEX
  8
0
  5
1E9
 10
-4.00000
 20
2.00000
 30
0.000000
  70
    32
  0
SEQEND
  8
0
  5
1EA
  0
POLYLINE
  8
0
  5
1EB
  66
     1
 10
0.000000
 20
0.000000
 30
0.000000
  70
     8
  0
VERTEX
  8
0
  5
1EC
 10
-3.04011
 20
-1.12500
 30
0.000000
  70
    32
  0
VERTEX
  8
0
  5
1ED
 10
-3.04909
 20
-1.12513
 30
0.000000
  70
    32
  0
VERTEX
  8
0
  5
1EE
 10
-3.05804
 20
-1.12527
 30
0.000000
  70
    32
  0
VERTEX
  8
0
  5
1EF
 10
-3.06696
 20
-1.12542
 30
0.000000
  70
    32
  0
VERTEX
  8
0
  5
1F0
 10
-3.07584
 20
-1.12557
 30
0.000000
  70
    32
  0
VERTEX
  8
0
  5
1F1
 10
-3.08469
 20
-1.12574
 30
0.000000
  70
    32
  0
VERTEX
  8
0
  5
1F2
 10
-3.09351
 20
-1.12591
 30
0.000000
  70
    32
  0
VERTEX
  8
0
  5
1F3
 10
-3.10230
 20
-1.12610
 30
0.000000
  70
    32
  0
VERTEX
  8
0
  5
1F4
 10
-3.11106
 20
-1.12631
 30
0.000000
  70
    32
  0
VERTEX
  8
0
  5
1F5
 10
-3.11978
 20
-1.12653
 30
0.000000
  70
    32
  0
VERTEX
  8
0
  5
1F6
 10
-3.12848
 20
-1.12677
 30
0.000000
  70
    32
  0
VERTEX
  8
0
  5
1F7
 10
-3.13715
 20
-1.12704
 30
0.000000
  70
    32
  0
VERTEX
  8
0
  5
1F8
 10
-3.14579
 20
-1.12732
 30
0.000000
  70
    32
  0
VERTEX
  8
0
  5
1F9
 10
-3.15441
 20
-1.12764
 30
0.000000
  70
    32
  0
VERTEX
  8
0
  5
1FA
 10
-3.16299
 20
-1.12797
 30
0.000000
  70
    32
  0
VERTEX
  8
0
  5
1FB
 10
-3.17155
 20
-1.12834
 30
0.000000
  70
    32
  0
VERTEX
  8
0
  5
1FC
 10
-3.18008
 20
-1.12874
 30
0.000000
  70
    32
  0
VERTEX
  8
0
  5
1FD
 10
-3.18858
 20
-1.12916
 30
0.000000
  70
    32
  0
VERTEX
  8
0
  5
1FE
 10
-3.19706
 20
-1.12962
 30
0.000000
  70
    32
  0
VERTEX
  8
0
  5
1FF
 10
-3.20551
 20
-1.13012
 30
0.000000
  70
    32
  0
VERTEX
  8
0
  5
200
 10
-3.21394
 20
-1.13065
 30
0.000000
  70
    32
  0
VERTEX
  8
0
  5
201
 10
-3.22234
 20
-1.13122
 30
0.000000
  70
    32
  0
VERTEX
  8
0
  5
202
 10
-3.23071
 20
-1.13183
 30
0.000000
  70
    32
  0
VERTEX
  8
0
  5
203
 10
-3.23906
 20
-1.13248
 30
0.000000
  70
    32
  0
VERTEX
  8
0
  5
204
 10
-3.24738
 20
-1.13317
 30
0.000000
  70
    32
  0
VERTEX
  8
0
  5
205
 10
-3.25568
 20
-1.13391
 30
0.000000
  70
    32
  0
VERTEX
  8
0
  5
206
 10
-3.26395
 20
-1.13469
 30
0.000000
  70
    32
  0
VERTEX
  8
0
  5
207
 10
-3.27220
 20
-1.13552
 30
0.000000
  70
    32
  0
VERTEX
  8
0
  5
208
 10
-3.28043
 20
-1.13640
 30
0.000000
  70
    32
  0
VERTEX
  8
0
  5
209
 10
-3.28863
 20
-1.13733
 30
0.000000
  70
    32
  0
VERTEX
  8
0
  5
20A
 10
-3.29680
 20
-1.13831
 30
0.000000
  70
    32
  0
VERTEX
  8
0
  5
20B
 10
-3.30496
 20
-1.13934
 30
0.000000
  70
    32
  0
VERTEX
  8
0
  5
20C
 10
-3.31308
 20
-1.14043
 30
0.000000
  70
    32
  0
VERTEX
  8
0
  5
20D
 10
-3.32119
 20
-1.14157
 30
0.000000
  70
    32
  0
VERTEX
  8
0
  5
20E
 10
-3.32927
 20
-1.14277
 30
0.000000
  70
    32
  0
VERTEX
  8
0
  5
20F
 10
-3.33733
 20
-1.14403
 30
0.000000
  70
    32
  0
VERTEX
  8
0
  5
210
 10
-3.34536
 20
-1.14535
 30
0.000000
  70
    32
  0
VERTEX
  8
0
  5
211
 10
-3.35337
 20
-1.14673
 30
0.000000
  70
    32
  0
VERTEX
  8
0
  5
212
 10
-3.36135
 20
-1.14817
 30
0.000000
  70
    32
  0
VERTEX
  8
0
  5
213
 10
-3.36931
 20
-1.14967
 30
0.000000
  70
    32
  0
VERTEX
  8
0
  5
214
 10
-3.37725
 20
-1.15124
 30
0.000000
  70
    32
  0
VERTEX
  8
0
  5
215
 10
-3.38516
 20
-1.15287
 30
0.000000
  70
    32
  0
VERTEX
  8
0
  5
216
 10
-3.39305
 20
-1.15458
 30
0.000000
  70
    32
  0
VERTEX
  8
0
  5
217
 10
-3.40092
 20
-1.15635
 30
0.000000
  70
    32
  0
VERTEX
  8
0
  5
218
 10
-3.40876
 20
-1.15819
 30
0.000000
  70
    32
  0
VERTEX
  8
0
  5
219
 10
-3.41657
 20
-1.16010
 30
0.000000
  70
    32
  0
VERTEX
  8
0
  5
21A
 10
-3.42437
 20
-1.16208
 30
0.000000
  70
    32
  0
VERTEX
  8
0
  5
21B
 10
-3.43213
 20
-1.16414
 30
0.000000
  70
    32
  0
VERTEX
  8
0
  5
21C
 10
-3.43987
 20
-1.16627
 30
0.000000
  70
    32
  0
VERTEX
  8
0
  5
21D
 10
-3.44759
 20
-1.16847
 30
0.000000
  70
    32
  0
VERTEX
  8
0
  5
21E
 10
-3.45528
 20
-1.17075
 30
0.000000
  70
    32
  0
VERTEX
  8
0
  5
21F
 10
-3.46295
 20
-1.17311
 30
0.000000
  70
    32
  0
VERTEX
  8
0
  5
220
 10
-3.47059
 20
-1.17555
 30
0.000000
  70
    32
  0
VERTEX
  8
0
  5
221
 10
-3.47821
 20
-1.17806
 30
0.000000
  70
    32
  0
VERTEX
  8
0
  5
222
 10
-3.48580
 20
-1.18066
 30
0.000000
  70
    32
  0
VERTEX
  8
0
  5
223
 10
-3.49336
 20
-1.18334
 30
0.000000
  70
    32
  0
VERTEX
  8
0
  5
224
 10
-3.50089
 20
-1.18610
 30
0.000000
  70
    32
  0
VERTEX
  8
0
  5
225
 10
-3.50840
 20
-1.18894
 30
0.000000
  70
    32
  0
VERTEX
  8
0
  5
226
 10
-3.51588
 20
-1.19187
 30
0.000000
  70
    32
  0
VERTEX
  8
0
  5
227
 10
-3.52334
 20
-1.19488
 30
0.000000
  70
    32
  0
VERTEX
  8
0
  5
228
 10
-3.53076
 20
-1.19798
 30
0.000000
  70
    32
  0
VERTEX
  8
0
  5
229
 10
-3.53816
 20
-1.20116
 30
0.000000
  70
    32
  0
VERTEX
  8
0
  5
22A
 10
-3.54553
 20
-1.20443
 30
0.000000
  70
    32
  0
VERTEX
  8
0
  5
22B
 10
-3.55287
 20
-1.20779
 30
0.000000
  70
    32
  0
VERTEX
  8
0
  5
22C
 10
-3.56017
 20
-1.21124
 30
0.000000
  70
    32
  0
VERTEX
  8
0
  5
22D
 10
-3.56745
 20
-1.21478
 30
0.000000
  70
    32
  0
VERTEX
  8
0
  5
22E
 10
-3.57470
 20
-1.21841
 30
0.000000
  70
    32
  0
VERTEX
  8
0
  5
22F
 10
-3.58192
 20
-1.22214
 30
0.000000
  70
    32
  0
VERTEX
  8
0
  5
230
 10
-3.58910
 20
-1.22595
 30
0.000000
  70
    32
  0
VERTEX
  8
0
  5
231
 10
-3.59626
 20
-1.22986
 30
0.000000
  70
    32
  0
VERTEX
  8
0
  5
232
 10
-3.60338
 20
-1.23386
 30
0.000000
  70
    32
  0
VERTEX
  8
0
  5
233
 10
-3.61047
 20
-1.23796
 30
0.000000
  70
    32
  0
VERTEX
  8
0
  5
234
 10
-3.61752
 20
-1.24215
 30
0.000000
  70
    32
  0
VERTEX
  8
0
  5
235
 10
-3.62454
 20
-1.24643
 30
0.000000
  70
    32
  0
VERTEX
  8
0
  5
236
 10
-3.63153
 20
-1.25082
 30
0.000000
  70
    32
  0
VERTEX
  8
0
  5
237
 10
-3.63848
 20
-1.25530
 30
0.000000
  70
    32
  0
VERTEX
  8
0
  5
238
 10
-3.64539
 20
-1.25987
 30
0.000000
  70
    32
  0
VERTEX
  8
0
  5
239
 10
-3.65227
 20
-1.26455
 30
0.000000
  70
    32
  0
VERTEX
  8
0
  5
23A
 10
-3.65911
 20
-1.26932
 30
0.000000
  70
    32
  0
VERTEX
  8
0
  5
23B
 10
-3.66591
 20
-1.27420
 30
0.000000
  70
    32
  0
VERTEX
  8
0
  5
23C
 10
-3.67267
 20
-1.27917
 30
0.000000
  70
    32
  0
VERTEX
  8
0
  5
23D
 10
-3.67940
 20
-1.28424
 30
0.000000
  70
    32
  0
VERTEX
  8
0
  5
23E
 10
-3.68608
 20
-1.28942
 30
0.000000
  70
    32
  0
VERTEX
  8
0
  5
23F
 10
-3.69273
 20
-1.29469
 30
0.000000
  70
    32
  0
VERTEX
  8
0
  5
240
 10
-3.69933
 20
-1.30007
 30
0.000000
  70
    32
  0
VERTEX
  8
0
  5
241
 10
-3.70589
 20
-1.30555
 30
0.000000
  70
    32
  0
VERTEX
  8
0
  5
242
 10
-3.71240
 20
-1.31113
 30
0.000000
  70
    32
  0
VERTEX
  8
0
  5
243
 10
-3.71888
 20
-1.31681
 30
0.000000
  70
    32
  0
VERTEX
  8
0
  5
244
 10
-3.72531
 20
-1.32260
 30
0.000000
  70
    32
  0
VERTEX
  8
0
  5
245
 10
-3.73169
 20
-1.32849
 30
0.000000
  70
    32
  0
VERTEX
  8
0
  5
246
 10
-3.73803
 20
-1.33449
 30
0.000000
  70
    32
  0
VERTEX
  8
0
  5
247
 10
-3.74432
 20
-1.34059
 30
0.000000
  70
    32
  0
VERTEX
  8
0
  5
248
 10
-3.75056
 20
-1.34679
 30
0.000000
  70
    32
  0
VERTEX
  8
0
  5
249
 10
-3.75675
 20
-1.35310
 30
0.000000
  70
    32
  0
VERTEX
  8
0
  5
24A
 10
-3.76290
 20
-1.35952
 30
0.000000
  70
    32
  0
VERTEX
  8
0
  5
24B
 10
-3.76899
 20
-1.36604
 30
0.000000
  70
    32
  0
VERTEX
  8
0
  5
24C
 10
-3.77503
 20
-1.37266
 30
0.000000
  70
    32
  0
VERTEX
  8
0
  5
24D
 10
-3.78102
 20
-1.37939
 30
0.000000
  70
    32
  0
VERTEX
  8
0
  5
24E
 10
-3.78695
 20
-1.38623
 30
0.000000
  70
    32
  0
VERTEX
  8
0
  5
24F
 10
-3.79284
 20
-1.39317
 30
0.000000
  70
    32
  0
VERTEX
  8
0
  5
250
 10
-3.79866
 20
-1.40022
 30
0.000000
  70
    32
  0
VERTEX
  8
0
  5
251
 10
-3.80443
 20
-1.40738
 30
0.000000
  70
    32
  0
VERTEX
  8
0
  5
252
 10
-3.81014
 20
-1.41464
 30
0.000000
  70
    32
  0
VERTEX
  8
0
  5
253
 10
-3.81580
 20
-1.42201
 30
0.000000
  70
    32
  0
VERTEX
  8
0
  5
254
 10
-3.82139
 20
-1.42949
 30
0.000000
  70
    32
  0
VERTEX
  8
0
  5
255
 10
-3.82692
 20
-1.43707
 30
0.000000
  70
    32
  0
VERTEX
  8
0
  5
256
 10
-3.83240
 20
-1.44476
 30
0.000000
  70
    32
  0
VERTEX
  8
0
  5
257
 10
-3.83781
 20
-1.45256
 30
0.000000
  70
    32
  0
VERTEX
  8
0
  5
258
 10
-3.84315
 20
-1.46046
 30
0.000000
  70
    32
  0
VERTEX
  8
0
  5
259
 10
-3.84843
 20
-1.46848
 30
0.000000
  70
    32
  0
VERTEX
  8
0
  5
25A
 10
-3.85365
 20
-1.47659
 30
0.000000
  70
    32
  0
VERTEX
  8
0
  5
25B
 10
-3.85879
 20
-1.48482
 30
0.000000
  70
    32
  0
VERTEX
  8
0
  5
25C
 10
-3.86387
 20
-1.49315
 30
0.000000
  70
    32
  0
VERTEX
  8
0
  5
25D
 10
-3.86888
 20
-1.50159
 30
0.000000
  70
    32
  0
VERTEX
  8
0
  5
25E
 10
-3.87382
 20
-1.51013
 30
0.000000
  70
    32
  0
VERTEX
  8
0
  5
25F
 10
-3.87868
 20
-1.51879
 30
0.000000
  70
    32
  0
VERTEX
  8
0
  5
260
 10
-3.88348
 20
-1.52754
 30
0.000000
  70
    32
  0
VERTEX
  8
0
  5
261
 10
-3.88819
 20
-1.53641
 30
0.000000
  70
    32
  0
VERTEX
  8
0
  5
262
 10
-3.89284
 20
-1.54538
 30
0.000000
  70
    32
  0
VERTEX
  8
0
  5
263
 10
-3.89740
 20
-1.55446
 30
0.000000
  70
    32
  0
VERTEX
  8
0
  5
264
 10
-3.90189
 20
-1.56364
 30
0.000000
  70
    32
  0
VERTEX
  8
0
  5
265
 10
-3.90629
 20
-1.57293
 30
0.000000
  70
    32
  0
VERTEX
  8
0
  5
266
 10
-3.91062
 20
-1.58232
 30
0.000000
  70
    32
  0
VERTEX
  8
0
  5
267
 10
-3.91486
 20
-1.59182
 30
0.000000
  70
    32
  0
VERTEX
  8
0
  5
268
 10
-3.91902
 20
-1.60142
 30
0.000000
  70
    32
  0
VERTEX
  8
0
  5
269
 10
-3.92309
 20
-1.61113
 30
0.000000
  70
    32
  0
VERTEX
  8
0
  5
26A
 10
-3.92708
 20
-1.62094
 30
0.000000
  70
    32
  0
VERTEX
  8
0
  5
26B
 10
-3.93098
 20
-1.63086
 30
0.000000
  70
    32
  0
VERTEX
  8
0
  5
26C
 10
-3.93479
 20
-1.64087
 30
0.000000
  70
    32
  0
VERTEX
  8
0
  5
26D
 10
-3.93851
 20
-1.65100
 30
0.000000
  70
    32
  0
VERTEX
  8
0
  5
26E
 10
-3.94214
 20
-1.66122
 30
0.000000
  70
    32
  0
VERTEX
  8
0
  5
26F
 10
-3.94567
 20
-1.67155
 30
0.000000
  70
    32
  0
VERTEX
  8
0
  5
270
 10
-3.94911
 20
-1.68197
 30
0.000000
  70
    32
  0
VERTEX
  8
0
  5
271
 10
-3.95245
 20
-1.69250
 30
0.000000
  70
    32
  0
VERTEX
  8
0
  5
272
 10
-3.95569
 20
-1.70314
 30
0.000000
  70
    32
  0
VERTEX
  8
0
  5
273
 10
-3.95883
 20
-1.71387
 30
0.000000
  70
    32
  0
VERTEX
  8
0
  5
274
 10
-3.96187
 20
-1.72470
 30
0.000000
  70
    32
  0
VERTEX
  8
0
  5
275
 10
-3.96481
 20
-1.73563
 30
0.000000
  70
    32
  0
VERTEX
  8
0
  5
276
 10
-3.96764
 20
-1.74666
 30
0.000000
  70
    32
  0
VERTEX
  8
0
  5
277
 10
-3.97037
 20
-1.75779
 30
0.000000
  70
    32
  0
VERTEX
  8
0
  5
278
 10
-3.97299
 20
-1.76901
 30
0.000000
  70
    32
  0
VERTEX
  8
0
  5
279
 10
-3.97550
 20
-1.78034
 30
0.000000
  70
    32
  0
VERTEX
  8
0
  5
27A
 10
-3.97790
 20
-1.79176
 30
0.000000
  70
    32
  0
VERTEX
  8
0
  5
27B
 10
-3.98019
 20
-1.80327
 30
0.000000
  70
    32
  0
VERTEX
  8
0
  5
27C
 10
-3.98236
 20
-1.81488
 30
0.000000
  70
    32
  0
VERTEX
  8
0
  5
27D
 10
-3.98441
 20
-1.82659
 30
0.000000
  70
    32
  0
VERTEX
  8
0
  5
27E
 10
-3.98635
 20
-1.83839
 30
0.000000
  70
    32
  0
VERTEX
  8
0
  5
27F
 10
-3.98817
 20
-1.85028
 30
0.000000
  70
    32
  0
VERTEX
  8
0
  5
280
 10
-3.98986
 20
-1.86227
 30
0.000000
  70
    32
  0
VERTEX
  8
0
  5
281
 10
-3.99144
 20
-1.87434
 30
0.000000
  70
    32
  0
VERTEX
  8
0
  5
282
 10
-3.99288
 20
-1.88651
 30
0.000000
  70
    32
  0
VERTEX
  8
0
  5
283
 10
-3.99421
 20
-1.89877
 30
0.000000
  70
    32
  0
VERTEX
  8
0
  5
284
 10
-3.99540
 20
-1.91112
 30
0.000000
  70
    32
  0
VERTEX
  8
0
  5
285
 10
-3.99646
 20
-1.92356
 30
0.000000
  70
    32
  0
VERTEX
  8
0
  5
286
 10
-3.99739
 20
-1.93608
 30
0.000000
  70
    32
  0
VERTEX
  8
0
  5
287
 10
-3.99819
 20
-1.94870
 30
0.000000
  70
    32
  0
VERTEX
  8
0
  5
288
 10
-3.99885
 20
-1.96139
 30
0.000000
  70
    32
  0
VERTEX
  8
0
  5
289
 10
-3.99937
 20
-1.97418
 30
0.000000
  70
    32
  0
VERTEX
  8
0
  5
28A
 10
-3.99976
 20
-1.98705
 30
0.000000
  70
    32
  0
VERTEX
  8
0
  5
28B
 10
-4.00000
 20
-2.00000
 30
0.000000
  70
    32
  0
SEQEND
  8
0
  5
28C
  0
CIRCLE
  5
EC
  8
0
 10
-5.0627726467657457
 20
-0.4750000000001583
 30
0.0
 40
0.073
  0
CIRCLE
  5
ED
  8
0
 10
-5.0627726467657457
 20
0.4750000000001581
 30
0.0
 40
0.0730000000000001
  0
CIRCLE
  5
EE
  8
0
 10
-0.0000000000000042
 20
-0.0000000000000038
 30
0.0
 40
0.7500000000029365
  0
CIRCLE
  5
EF
  8
0
 10
-4.5000000000172369
 20
1.5000000000058631
 30
0.0
 40
0.0990000000003802
  0
CIRCLE
  5
F0
  8
0
 10
-4.5000000000172378
 20
-1.5000000000058611
 30
0.0
 40
0.0990000000003802
  0
CIRCLE
  5
F1
  8
0
 10
2.1500000000082711
 20
-0.0000000000000059
 30
0.0
 40
0.0990000000003879
  0
CIRCLE
  5
F2
  8
0
 10
-2.0000000000074549
 20
0.0000000000004014
 30
0.0
 40
0.1250000000004798
  0
ENDSEC
  0
EOF
